<svg width="100%" height="100%" version="1.1" xmlns="http://www.w3.org/2000/svg"> 
<path d="M271 498 263 491 248 494 245 498 236 498 246 498 256 492 263 492 Z" fill="none" stroke="black" stroke-width="1.106544" />
<path d="M262 348 255 349 254 346 246 349 253 348 250 352 241 352 232 357 220 356 232 357 Z" fill="none" stroke="black" stroke-width="1.121410" />
<path d="M210 339 220 343 257 345 238 342 228 344 Z" fill="none" stroke="black" stroke-width="1.129401" />
<path d="M223 335 222 331 222 335 217 337 198 334 209 337 Z" fill="none" stroke="black" stroke-width="1.042094" />
<path d="M173 329 177 333 205 339 199 339 186 332 176 332 174 329 180 323 Z" fill="none" stroke="black" stroke-width="1.129112" />
<path d="M183 328 208 323 228 323 235 326 252 324 289 334 289 340 271 343 286 343 292 339 288 333 277 332 263 325 237 326 216 322 Z" fill="none" stroke="black" stroke-width="1.548796" />
<path d="M198 288 215 292 222 297 217 292 Z" fill="none" stroke="black" stroke-width="1.013071" />
<path d="M285 285 274 298 260 300 247 309 263 300 274 299 Z" fill="none" stroke="black" stroke-width="1.127102" />
<path d="M67 241 67 258 68 243 71 260 80 267 93 270 83 273 95 273 95 281 84 276 96 280 96 288 98 281 93 269 80 267 72 260 Z" fill="none" stroke="black" stroke-width="1.403659" />
<path d="M296 235 315 239 334 239 338 236 334 239 316 239 Z" fill="none" stroke="black" stroke-width="1.100816" />
<path d="M70 220 71 234 68 237 73 234 74 227 73 221 74 226 71 229 Z" fill="none" stroke="black" stroke-width="1.048579" />
<path d="M61 208 58 235 64 256 58 234 Z" fill="none" stroke="black" stroke-width="1.115037" />
<path d="M314 222 321 208 339 220 347 220 340 220 320 207 Z" fill="none" stroke="black" stroke-width="1.126452" />
<path d="M287 212 293 207 298 220 305 225 313 225 303 222 312 220 299 220 295 215 295 207 Z" fill="none" stroke="black" stroke-width="1.150879" />
<path d="M277 215 292 203 310 199 345 217 325 204 311 199 290 203 Z" fill="none" stroke="black" stroke-width="1.287193" />
<path d="M276 193 267 206 262 202 249 203 246 196 242 200 234 200 235 203 240 201 240 204 264 207 261 210 244 208 236 220 244 208 262 210 266 206 268 209 268 204 Z" fill="none" stroke="black" stroke-width="1.386685" />
<path d="M417 180 413 184 411 212 403 225 402 244 399 249 398 245 405 215 399 209 405 217 401 223 395 257 386 275 370 290 386 276 392 265 385 292 369 311 361 313 350 350 338 371 328 380 327 426 331 478 327 498 332 475 327 426 328 383 349 354 361 314 371 310 385 293 402 245 403 226 411 212 413 186 Z" fill="none" stroke="black" stroke-width="3.137695" />
<path d="M360 173 371 186 382 193 397 194 406 190 401 193 383 193 367 182 Z" fill="none" stroke="black" stroke-width="1.184611" />
<path d="M86 172 79 193 84 216 79 193 Z" fill="none" stroke="black" stroke-width="1.108182" />
<path d="M161 161 165 163 171 160 188 160 Z" fill="none" stroke="black" stroke-width="1.000000" />
<path d="M88 158 84 162 84 159 73 176 68 190 70 198 69 188 75 172 81 169 77 179 Z" fill="none" stroke="black" stroke-width="1.180489" />
<path d="M158 161 153 157 143 160 125 175 144 160 152 157 Z" fill="none" stroke="black" stroke-width="1.118242" />
<path d="M393 210 383 205 376 195 356 180 348 161 341 156 339 158 343 157 350 165 356 181 378 198 379 203 355 192 343 179 346 184 340 183 326 165 328 163 331 167 327 162 326 166 341 185 347 184 352 188 328 184 305 185 327 184 351 189 368 209 368 239 363 246 368 224 365 211 368 220 367 232 352 264 346 261 349 266 334 274 311 275 294 268 282 257 273 237 278 228 273 224 277 232 272 235 271 218 283 199 284 201 295 194 317 194 335 201 346 211 327 200 312 196 295 197 285 203 293 198 311 196 328 201 340 210 349 211 335 200 318 194 292 195 296 191 314 189 296 187 278 196 267 215 268 230 268 213 276 207 271 218 271 232 281 257 277 258 271 247 261 216 247 214 237 223 218 256 204 269 203 282 209 285 213 282 222 282 232 289 241 287 232 288 217 281 208 284 204 282 202 275 220 255 241 219 248 214 256 214 263 220 281 271 282 281 279 286 282 283 282 273 278 257 281 264 295 275 326 282 317 279 341 275 362 258 372 238 376 220 380 216 375 221 367 247 370 231 369 211 355 192 388 208 379 210 373 204 379 214 389 216 Z" fill="none" stroke="black" stroke-width="6.000000" />
<path d="M300 276 305 276 301 272 309 275 342 273 330 278 313 280 Z" fill="none" stroke="black" stroke-width="1.142903" />
<path d="M304 188 289 193 275 206 278 199 288 191 297 187 Z" fill="none" stroke="black" stroke-width="1.097575" />
<path d="M190 155 204 157 223 174 206 158 Z" fill="none" stroke="black" stroke-width="1.091761" />
<path d="M99 151 100 159 96 164 93 186 96 189 104 185 105 187 93 200 91 199 94 204 95 233 102 281 92 201 96 202 97 194 107 187 112 188 112 184 125 186 125 179 156 171 178 171 186 174 158 173 143 178 133 187 128 203 133 238 126 222 123 193 114 188 123 194 125 219 130 235 145 255 163 264 181 265 176 268 180 275 179 267 184 268 187 267 183 265 206 258 221 243 233 214 231 206 235 205 235 208 236 205 230 204 227 194 217 185 219 183 207 176 168 166 178 168 179 171 159 170 116 180 115 185 112 181 110 186 104 179 105 162 104 183 108 186 98 188 95 186 96 165 100 159 Z" fill="none" stroke="black" stroke-width="3.663810" />
<path d="M152 258 165 262 193 262 172 265 Z" fill="none" stroke="black" stroke-width="1.091319" />
<path d="M135 242 137 241 153 257 146 255 Z" fill="none" stroke="black" stroke-width="1.010450" />
<path d="M225 193 233 210 225 234 223 228 228 219 Z" fill="none" stroke="black" stroke-width="1.085761" />
<path d="M144 178 154 174 172 173 200 181 186 176 192 174 205 178 221 192 227 202 227 222 221 226 226 217 223 215 225 219 215 230 216 238 220 235 221 237 205 254 192 261 169 262 154 257 140 245 130 226 128 204 133 189 Z" fill="none" stroke="black" stroke-width="1.864710" />
<path d="M159 225 180 230 207 228 180 230 Z" fill="none" stroke="black" stroke-width="1.125385" />
<path d="M179 215 181 218 182 214 210 216 188 225 217 215 219 218 218 214 196 217 Z" fill="none" stroke="black" stroke-width="1.242566" />
<path d="M132 197 133 202 154 207 134 202 134 196 Z" fill="none" stroke="black" stroke-width="1.066236" />
<path d="M219 210 211 199 193 189 174 190 161 197 147 200 162 197 171 191 192 189 212 201 218 210 210 207 202 197 199 206 188 213 177 209 175 196 158 203 174 196 176 209 188 213 197 210 201 197 210 207 Z" fill="none" stroke="black" stroke-width="1.797318" />
<path d="M146 194 168 185 197 184 208 188 217 196 216 198 198 187 173 187 150 197 174 187 198 187 211 194 224 210 213 190 197 184 173 184 156 188 Z" fill="none" stroke="black" stroke-width="1.760735" />
<path d="M298 150 307 168 293 171 287 177 294 171 307 169 320 176 305 166 304 158 Z" fill="none" stroke="black" stroke-width="1.205593" />
<path d="M169 150 174 154 185 154 198 164 204 164 194 161 185 153 176 154 Z" fill="none" stroke="black" stroke-width="1.113802" />
<path d="M129 139 127 148 123 148 126 152 123 156 125 164 135 152 137 155 137 152 124 157 128 142 131 145 Z" fill="none" stroke="black" stroke-width="1.156108" />
<path d="M291 132 297 131 312 146 314 140 311 144 301 133 Z" fill="none" stroke="black" stroke-width="1.066724" />
<path d="M280 133 297 141 302 140 284 131 Z" fill="none" stroke="black" stroke-width="1.041743" />
<path d="M80 114 72 136 74 138 79 133 75 137 73 133 Z" fill="none" stroke="black" stroke-width="1.040229" />
<path d="M320 113 327 120 349 121 349 117 342 114 330 115 341 114 349 119 343 122 344 118 326 119 Z" fill="none" stroke="black" stroke-width="1.202331" />
<path d="M260 111 261 113 263 110 274 123 274 119 287 126 270 114 270 117 264 109 Z" fill="none" stroke="black" stroke-width="1.124620" />
<path d="M227 108 240 135 254 150 266 154 280 154 290 150 294 152 290 150 268 154 255 150 244 139 246 134 262 147 265 147 260 145 265 143 269 152 268 149 288 147 271 149 265 141 273 143 260 138 256 133 264 136 254 130 251 132 261 139 255 139 242 125 238 116 241 114 250 117 258 126 273 135 268 137 300 144 303 150 302 145 305 144 310 153 313 149 338 160 345 166 315 149 310 150 306 144 277 139 273 136 276 131 265 125 276 132 270 133 250 116 241 113 238 115 234 110 229 111 Z" fill="none" stroke="black" stroke-width="2.679150" />
<path d="M230 110 236 113 247 131 243 137 Z" fill="none" stroke="black" stroke-width="1.018019" />
<path d="M119 110 106 118 104 116 109 113 104 113 104 106 104 118 99 122 95 114 97 112 100 117 101 106 98 105 100 112 95 111 95 128 90 129 86 123 90 136 90 130 95 128 96 120 100 127 103 126 103 120 118 112 120 114 Z" fill="none" stroke="black" stroke-width="1.447570" />
<path d="M174 98 167 105 158 106 152 111 142 107 138 133 139 124 151 120 159 132 158 136 161 129 155 117 163 112 169 113 161 112 155 116 156 126 152 119 140 123 141 111 145 108 152 113 158 106 166 106 Z" fill="none" stroke="black" stroke-width="1.530912" />
<path d="M255 97 254 100 261 100 269 111 275 114 275 110 287 123 291 123 288 119 291 116 297 123 294 116 281 103 291 114 288 118 275 105 276 110 270 105 270 111 263 101 Z" fill="none" stroke="black" stroke-width="1.373912" />
<path d="M304 92 279 95 255 93 279 95 Z" fill="none" stroke="black" stroke-width="1.119086" />
<path d="M354 92 347 92 340 87 333 92 307 94 294 99 271 98 294 99 308 94 330 93 340 87 345 92 Z" fill="none" stroke="black" stroke-width="1.363054" />
<path d="M171 79 176 85 207 99 210 103 209 100 212 98 224 126 231 133 237 134 232 133 217 112 214 99 202 98 176 85 Z" fill="none" stroke="black" stroke-width="1.414525" />
<path d="M341 73 348 74 360 90 349 74 Z" fill="none" stroke="black" stroke-width="1.048270" />
<path d="M107 68 87 109 Z" fill="none" stroke="black" stroke-width="1.045977" />
<path d="M198 67 200 75 193 83 184 81 191 86 194 80 201 76 Z" fill="none" stroke="black" stroke-width="1.061403" />
<path d="M123 65 115 75 115 84 123 73 123 70 116 82 113 82 Z" fill="none" stroke="black" stroke-width="1.071506" />
<path d="M373 62 379 76 393 91 387 81 380 76 Z" fill="none" stroke="black" stroke-width="1.073388" />
<path d="M275 62 277 64 274 68 284 79 282 72 294 78 298 75 303 76 307 71 314 76 332 81 343 80 321 78 305 70 292 77 286 72 280 72 275 67 278 65 Z" fill="none" stroke="black" stroke-width="1.393582" />
<path d="M252 60 250 63 260 70 257 74 253 68 257 75 260 74 265 79 259 72 262 69 275 83 281 84 277 84 Z" fill="none" stroke="black" stroke-width="1.160278" />
<path d="M376 59 379 62 378 68 396 85 396 80 390 72 393 71 Z" fill="none" stroke="black" stroke-width="1.066091" />
<path d="M379 63 389 69 396 81 395 85 378 67 Z" fill="none" stroke="black" stroke-width="1.069228" />
<path d="M260 57 266 69 271 73 265 66 267 62 278 76 268 62 Z" fill="none" stroke="black" stroke-width="1.106363" />
<path d="M233 53 232 60 225 69 228 70 225 76 234 65 238 69 237 80 234 83 238 86 235 82 241 81 237 80 240 63 Z" fill="none" stroke="black" stroke-width="1.191920" />
<path d="M104 53 89 71 80 78 84 76 85 79 78 82 84 88 73 101 64 138 64 170 65 130 72 104 84 89 81 84 86 79 85 75 Z" fill="none" stroke="black" stroke-width="1.581829" />
<path d="M324 44 332 51 340 52 347 57 338 63 355 71 371 87 355 71 339 63 347 59 347 63 352 64 353 61 357 66 349 55 353 53 360 60 354 52 349 54 341 46 332 46 346 52 352 59 351 62 344 54 333 51 Z" fill="none" stroke="black" stroke-width="1.613785" />
<path d="M337 30 345 37 342 38 345 44 338 38 341 42 351 47 347 43 349 42 365 57 Z" fill="none" stroke="black" stroke-width="1.125360" />
<path d="M269 27 284 42 283 37 291 45 286 43 298 55 291 45 300 44 309 57 306 61 302 60 312 61 310 54 314 62 319 62 297 40 300 44 294 45 Z" fill="none" stroke="black" stroke-width="1.399368" />
<path d="M220 19 229 27 226 31 235 41 247 45 236 41 228 30 242 39 235 34 236 32 245 34 248 38 255 35 271 52 276 52 285 59 290 58 278 52 295 58 274 42 267 42 273 42 278 47 274 49 277 51 275 52 266 48 258 36 249 38 247 35 253 32 250 28 240 27 246 30 246 34 241 29 229 27 220 20 232 19 Z" fill="none" stroke="black" stroke-width="1.883032" />
<path d="M187 17 198 25 219 31 221 29 226 41 243 54 247 54 244 59 248 63 245 61 247 52 243 53 227 41 221 28 205 27 Z" fill="none" stroke="black" stroke-width="1.335583" />
<path d="M257 16 271 37 269 38 261 29 259 22 259 27 267 36 265 39 272 40 263 26 264 23 Z" fill="none" stroke="black" stroke-width="1.174389" />
<path d="M284 12 290 13 298 20 315 46 298 18 Z" fill="none" stroke="black" stroke-width="1.138039" />
<path d="M271 9 274 13 293 20 276 14 Z" fill="none" stroke="black" stroke-width="1.039803" />
<path d="M160 1 151 1 143 6 119 36 95 58 115 42 145 5 Z" fill="none" stroke="black" stroke-width="1.354569" />
<path d="M330 0 345 12 350 22 367 34 367 38 389 61 399 77 402 93 412 105 416 118 414 135 417 174 414 135 417 118 412 104 403 93 399 76 390 61 367 37 367 33 353 23 341 7 Z" fill="none" stroke="black" stroke-width="1.986920" />
<path d="M0 0 2 12 25 35 38 37 55 56 54 76 49 83 49 99 65 113 61 128 61 177 52 223 64 271 72 284 84 293 90 309 97 317 105 349 115 361 115 436 106 454 109 498 106 454 116 435 116 360 112 359 106 350 95 313 98 313 88 298 90 293 99 295 105 338 99 294 89 293 89 301 86 300 84 292 68 278 56 243 54 217 56 219 57 191 61 177 61 131 65 112 49 98 49 84 55 76 55 52 41 38 27 35 2 11 Z" fill="none" stroke="black" stroke-width="4.184972" />
</svg>