<svg width="100%" height="100%" version="1.1" xmlns="http://www.w3.org/2000/svg"> 
<path d="M313 375 326 378 334 387 334 404 340 429 339 473 327 498 339 475 340 428 334 403 334 386 327 378 Z" fill="none" stroke="black" stroke-width="1.805141" />
<path d="M122 376 123 380 136 381 148 377 172 379 171 382 207 380 239 387 241 382 235 386 212 380 174 380 159 376 127 380 123 377 128 369 Z" fill="none" stroke="black" stroke-width="1.792741" />
<path d="M162 357 164 361 175 366 194 364 213 372 213 375 228 378 219 377 196 364 178 366 165 361 Z" fill="none" stroke="black" stroke-width="1.387974" />
<path d="M254 348 259 357 260 376 261 364 Z" fill="none" stroke="black" stroke-width="1.049229" />
<path d="M183 342 180 343 185 353 179 356 180 359 177 360 171 350 175 360 180 360 185 355 Z" fill="none" stroke="black" stroke-width="1.118224" />
<path d="M300 340 294 351 297 347 297 353 291 361 294 361 298 353 Z" fill="none" stroke="black" stroke-width="1.063054" />
<path d="M188 315 200 309 212 312 209 315 212 314 209 309 198 309 Z" fill="none" stroke="black" stroke-width="1.078347" />
<path d="M45 275 47 293 57 305 63 358 72 391 91 421 91 436 100 460 117 486 131 498 114 481 103 464 91 434 91 420 69 382 63 357 63 336 59 325 58 305 47 292 Z" fill="none" stroke="black" stroke-width="2.513993" />
<path d="M299 255 311 284 306 300 311 283 Z" fill="none" stroke="black" stroke-width="1.131640" />
<path d="M131 230 102 236 93 235 119 234 Z" fill="none" stroke="black" stroke-width="1.127674" />
<path d="M227 213 234 212 233 217 237 225 244 229 252 229 259 224 264 209 273 216 278 216 268 210 246 207 245 210 250 212 245 217 258 209 262 210 258 224 252 228 244 228 235 220 233 210 Z" fill="none" stroke="black" stroke-width="1.578958" />
<path d="M106 209 111 214 114 207 114 214 122 210 118 209 120 207 Z" fill="none" stroke="black" stroke-width="1.036513" />
<path d="M83 215 101 205 102 219 111 226 118 226 127 220 130 207 135 213 136 211 128 207 127 219 117 226 102 218 101 209 104 204 Z" fill="none" stroke="black" stroke-width="1.422363" />
<path d="M282 165 290 170 286 171 290 178 298 182 296 186 294 183 296 192 299 191 295 198 297 195 302 202 303 225 306 232 303 248 307 251 306 260 312 253 314 258 312 246 306 238 306 222 303 218 305 213 301 208 304 198 298 188 300 182 294 180 294 175 297 175 294 171 Z" fill="none" stroke="black" stroke-width="1.749469" />
<path d="M84 162 62 179 62 201 66 201 62 198 62 181 Z" fill="none" stroke="black" stroke-width="1.165053" />
<path d="M305 136 308 143 300 142 307 145 306 148 303 147 311 157 311 207 317 268 300 369 288 400 297 380 304 385 321 388 306 385 297 379 301 363 308 369 302 371 310 371 302 360 309 318 326 304 329 291 341 304 332 304 339 305 340 308 332 307 347 311 356 323 353 366 357 372 301 373 357 373 354 366 354 317 329 291 334 289 335 278 349 248 352 236 349 212 339 205 329 204 319 213 320 270 320 212 323 209 325 211 323 209 329 205 339 206 345 214 348 212 349 223 350 217 352 222 352 236 350 241 349 233 347 245 337 267 336 252 336 280 332 282 334 274 327 288 330 289 328 292 324 291 323 282 319 280 321 281 317 300 320 301 321 296 324 299 315 311 310 312 316 283 317 250 311 207 311 156 306 148 309 141 Z" fill="none" stroke="black" stroke-width="6.000000" />
<path d="M62 129 54 157 55 199 49 242 49 269 49 243 56 191 54 158 Z" fill="none" stroke="black" stroke-width="1.761253" />
<path d="M291 66 290 73 289 67 286 75 280 77 284 77 284 82 285 76 286 79 289 78 Z" fill="none" stroke="black" stroke-width="1.076356" />
<path d="M9 53 17 61 31 47 17 59 13 57 19 51 18 46 10 48 Z" fill="none" stroke="black" stroke-width="1.165226" />
<path d="M250 45 246 59 248 71 Z" fill="none" stroke="black" stroke-width="1.000000" />
<path d="M261 18 251 42 259 28 257 49 254 51 257 50 259 53 261 51 257 50 257 37 261 28 Z" fill="none" stroke="black" stroke-width="1.257843" />
<path d="M217 0 247 4 252 11 251 14 255 12 253 20 257 20 260 14 265 19 267 12 275 9 278 12 275 17 277 25 278 13 280 11 282 14 282 10 285 10 282 20 284 11 289 9 290 16 286 13 289 18 288 25 295 21 296 25 301 26 303 35 310 36 311 39 316 39 336 51 336 55 331 56 322 49 315 50 311 61 309 56 304 57 302 54 310 54 310 48 299 43 314 42 297 40 298 46 304 47 302 54 298 51 305 61 303 76 299 66 296 67 299 79 297 69 303 76 303 85 305 69 308 68 308 105 311 98 317 103 312 104 313 108 321 102 324 114 322 118 326 121 324 127 320 120 323 126 319 131 318 129 316 147 314 144 316 153 313 164 316 153 317 156 316 136 320 132 319 151 321 128 324 128 318 194 314 200 318 195 321 153 329 133 327 120 323 118 322 103 317 100 321 84 324 85 326 79 323 69 327 59 318 64 313 56 316 50 334 57 337 52 331 46 304 34 300 23 297 24 295 20 288 24 291 14 289 9 268 10 264 18 248 4 Z" fill="none" stroke="black" stroke-width="4.773744" />
<path d="M308 65 316 76 313 80 309 73 313 81 312 86 307 77 307 72 310 71 Z" fill="none" stroke="black" stroke-width="1.109097" />
<path d="M324 60 325 82 319 82 317 92 316 85 313 84 316 80 317 66 315 73 310 65 319 64 Z" fill="none" stroke="black" stroke-width="1.223760" />
<path d="M134 0 70 0 58 9 46 12 43 18 36 18 15 32 6 33 6 39 2 44 4 50 0 53 5 58 6 71 13 76 13 84 17 92 12 94 17 104 9 107 14 112 27 115 45 167 48 199 40 201 34 207 34 226 42 247 42 270 39 273 41 277 40 238 45 229 41 232 42 236 39 236 34 221 34 210 40 212 47 221 47 204 46 217 35 207 41 201 50 202 47 182 49 177 46 176 46 167 43 164 45 161 41 159 35 138 38 133 33 133 27 114 11 108 25 110 18 107 24 104 19 95 19 103 23 103 21 105 17 104 13 96 17 93 14 73 10 73 5 66 5 56 2 53 6 34 16 32 33 20 43 18 48 11 60 9 70 0 Z" fill="none" stroke="black" stroke-width="4.048327" />

<path d="M0 0 29 0 29 44 0 44 0 0 Z" fill="rgba(0,0,0,0.5)" stroke="none" />
<path d="M29 0 58 0 58 44 29 44 29 0 Z" fill="rgba(0,0,0,0.5)" stroke="none" />
<path d="M58 0 87 0 87 44 58 44 58 0 Z" fill="rgba(0,0,0,0.5)" stroke="none" />
<path d="M87 0 116 0 116 44 87 44 87 0 Z" fill="rgba(0,0,0,0.5)" stroke="none" />
<path d="M116 0 145 0 145 44 116 44 116 0 Z" fill="rgba(0,0,0,0.5)" stroke="none" />
<path d="M145 0 174 0 174 44 145 44 145 0 Z" fill="rgba(34,34,34,0.5)" stroke="none" />
<path d="M174 0 203 0 203 44 174 44 174 0 Z" fill="rgba(31,31,31,0.5)" stroke="none" />
<path d="M203 0 232 0 232 44 203 44 203 0 Z" fill="rgba(42,42,42,0.5)" stroke="none" />
<path d="M232 0 261 0 261 44 232 44 232 0 Z" fill="rgba(43,43,43,0.5)" stroke="none" />
<path d="M261 0 290 0 290 44 261 44 261 0 Z" fill="rgba(41,41,41,0.5)" stroke="none" />
<path d="M290 0 319 0 319 44 290 44 290 0 Z" fill="rgba(32,32,32,0.5)" stroke="none" />
<path d="M319 0 348 0 348 44 319 44 319 0 Z" fill="rgba(44,44,44,0.5)" stroke="none" />
<path d="M348 0 377 0 377 44 348 44 348 0 Z" fill="rgba(59,59,59,0.5)" stroke="none" />
<path d="M377 0 406 0 406 44 377 44 377 0 Z" fill="rgba(14,14,14,0.5)" stroke="none" />
<path d="M406 0 435 0 435 44 406 44 406 0 Z" fill="rgba(78,78,78,0.5)" stroke="none" />
<path d="M435 0 464 0 464 44 435 44 435 0 Z" fill="rgba(28,28,28,0.5)" stroke="none" />
<path d="M464 0 493 0 493 44 464 44 464 0 Z" fill="rgba(0,0,0,0.5)" stroke="none" />
<path d="M493 0 522 0 522 44 493 44 493 0 Z" fill="rgba(0,0,0,0.5)" stroke="none" />
<path d="M522 0 551 0 551 44 522 44 522 0 Z" fill="rgba(0,0,0,0.5)" stroke="none" />
<path d="M551 0 580 0 580 44 551 44 551 0 Z" fill="rgba(0,0,0,0.5)" stroke="none" />
<path d="M0 44 29 44 29 89 0 89 0 44 Z" fill="rgba(0,0,0,0.5)" stroke="none" />
<path d="M29 44 58 44 58 89 29 89 29 44 Z" fill="rgba(0,0,0,0.5)" stroke="none" />
<path d="M58 44 87 44 87 89 58 89 58 44 Z" fill="rgba(0,0,0,0.5)" stroke="none" />
<path d="M87 44 116 44 116 89 87 89 87 44 Z" fill="rgba(53,53,53,0.5)" stroke="none" />
<path d="M116 44 145 44 145 89 116 89 116 44 Z" fill="rgba(34,34,34,0.5)" stroke="none" />
<path d="M145 44 174 44 174 89 145 89 145 44 Z" fill="rgba(31,31,31,0.5)" stroke="none" />
<path d="M174 44 203 44 203 89 174 89 174 44 Z" fill="rgba(24,24,24,0.5)" stroke="none" />
<path d="M203 44 232 44 232 89 203 89 203 44 Z" fill="rgba(26,26,26,0.5)" stroke="none" />
<path d="M232 44 261 44 261 89 232 89 232 44 Z" fill="rgba(34,34,34,0.5)" stroke="none" />
<path d="M261 44 290 44 290 89 261 89 261 44 Z" fill="rgba(30,30,30,0.5)" stroke="none" />
<path d="M290 44 319 44 319 89 290 89 290 44 Z" fill="rgba(36,36,36,0.5)" stroke="none" />
<path d="M319 44 348 44 348 89 319 89 319 44 Z" fill="rgba(62,62,62,0.5)" stroke="none" />
<path d="M348 44 377 44 377 89 348 89 348 44 Z" fill="rgba(60,60,60,0.5)" stroke="none" />
<path d="M377 44 406 44 406 89 377 89 377 44 Z" fill="rgba(48,48,48,0.5)" stroke="none" />
<path d="M406 44 435 44 435 89 406 89 406 44 Z" fill="rgba(83,83,83,0.5)" stroke="none" />
<path d="M435 44 464 44 464 89 435 89 435 44 Z" fill="rgba(26,26,26,0.5)" stroke="none" />
<path d="M464 44 493 44 493 89 464 89 464 44 Z" fill="rgba(0,0,0,0.5)" stroke="none" />
<path d="M493 44 522 44 522 89 493 89 493 44 Z" fill="rgba(0,0,0,0.5)" stroke="none" />
<path d="M522 44 551 44 551 89 522 89 522 44 Z" fill="rgba(0,0,0,0.5)" stroke="none" />
<path d="M551 44 580 44 580 89 551 89 551 44 Z" fill="rgba(0,0,0,0.5)" stroke="none" />
<path d="M0 89 29 89 29 133 0 133 0 89 Z" fill="rgba(0,0,0,0.5)" stroke="none" />
<path d="M29 89 58 89 58 133 29 133 29 89 Z" fill="rgba(0,0,0,0.5)" stroke="none" />
<path d="M58 89 87 89 87 133 58 133 58 89 Z" fill="rgba(0,0,0,0.5)" stroke="none" />
<path d="M87 89 116 89 116 133 87 133 87 89 Z" fill="rgba(57,57,57,0.5)" stroke="none" />
<path d="M116 89 145 89 145 133 116 133 116 89 Z" fill="rgba(26,26,26,0.5)" stroke="none" />
<path d="M145 89 174 89 174 133 145 133 145 89 Z" fill="rgba(30,30,30,0.5)" stroke="none" />
<path d="M174 89 203 89 203 133 174 133 174 89 Z" fill="rgba(22,22,22,0.5)" stroke="none" />
<path d="M203 89 232 89 232 133 203 133 203 89 Z" fill="rgba(36,36,36,0.5)" stroke="none" />
<path d="M232 89 261 89 261 133 232 133 232 89 Z" fill="rgba(42,42,42,0.5)" stroke="none" />
<path d="M261 89 290 89 290 133 261 133 261 89 Z" fill="rgba(41,41,41,0.5)" stroke="none" />
<path d="M290 89 319 89 319 133 290 133 290 89 Z" fill="rgba(56,56,56,0.5)" stroke="none" />
<path d="M319 89 348 89 348 133 319 133 319 89 Z" fill="rgba(76,76,76,0.5)" stroke="none" />
<path d="M348 89 377 89 377 133 348 133 348 89 Z" fill="rgba(63,63,63,0.5)" stroke="none" />
<path d="M377 89 406 89 406 133 377 133 377 89 Z" fill="rgba(63,63,63,0.5)" stroke="none" />
<path d="M406 89 435 89 435 133 406 133 406 89 Z" fill="rgba(65,65,65,0.5)" stroke="none" />
<path d="M435 89 464 89 464 133 435 133 435 89 Z" fill="rgba(91,91,91,0.5)" stroke="none" />
<path d="M464 89 493 89 493 133 464 133 464 89 Z" fill="rgba(27,27,27,0.5)" stroke="none" />
<path d="M493 89 522 89 522 133 493 133 493 89 Z" fill="rgba(0,0,0,0.5)" stroke="none" />
<path d="M522 89 551 89 551 133 522 133 522 89 Z" fill="rgba(0,0,0,0.5)" stroke="none" />
<path d="M551 89 580 89 580 133 551 133 551 89 Z" fill="rgba(0,0,0,0.5)" stroke="none" />
<path d="M0 133 29 133 29 178 0 178 0 133 Z" fill="rgba(0,0,0,0.5)" stroke="none" />
<path d="M29 133 58 133 58 178 29 178 29 133 Z" fill="rgba(0,0,0,0.5)" stroke="none" />
<path d="M58 133 87 133 87 178 58 178 58 133 Z" fill="rgba(0,0,0,0.5)" stroke="none" />
<path d="M87 133 116 133 116 178 87 178 87 133 Z" fill="rgba(3,3,3,0.5)" stroke="none" />
<path d="M116 133 145 133 145 178 116 178 116 133 Z" fill="rgba(23,23,23,0.5)" stroke="none" />
<path d="M145 133 174 133 174 178 145 178 145 133 Z" fill="rgba(30,30,30,0.5)" stroke="none" />
<path d="M174 133 203 133 203 178 174 178 174 133 Z" fill="rgba(49,49,49,0.5)" stroke="none" />
<path d="M203 133 232 133 232 178 203 178 203 133 Z" fill="rgba(72,72,72,0.5)" stroke="none" />
<path d="M232 133 261 133 261 178 232 178 232 133 Z" fill="rgba(85,85,85,0.5)" stroke="none" />
<path d="M261 133 290 133 290 178 261 178 261 133 Z" fill="rgba(103,103,103,0.5)" stroke="none" />
<path d="M290 133 319 133 319 178 290 178 290 133 Z" fill="rgba(125,125,125,0.5)" stroke="none" />
<path d="M319 133 348 133 348 178 319 178 319 133 Z" fill="rgba(126,126,126,0.5)" stroke="none" />
<path d="M348 133 377 133 377 178 348 178 348 133 Z" fill="rgba(118,118,118,0.5)" stroke="none" />
<path d="M377 133 406 133 406 178 377 178 377 133 Z" fill="rgba(107,107,107,0.5)" stroke="none" />
<path d="M406 133 435 133 435 178 406 178 406 133 Z" fill="rgba(110,110,110,0.5)" stroke="none" />
<path d="M435 133 464 133 464 178 435 178 435 133 Z" fill="rgba(128,128,128,0.5)" stroke="none" />
<path d="M464 133 493 133 493 178 464 178 464 133 Z" fill="rgba(37,37,37,0.5)" stroke="none" />
<path d="M493 133 522 133 522 178 493 178 493 133 Z" fill="rgba(0,0,0,0.5)" stroke="none" />
<path d="M522 133 551 133 551 178 522 178 522 133 Z" fill="rgba(0,0,0,0.5)" stroke="none" />
<path d="M551 133 580 133 580 178 551 178 551 133 Z" fill="rgba(0,0,0,0.5)" stroke="none" />
<path d="M0 178 29 178 29 223 0 223 0 178 Z" fill="rgba(0,0,0,0.5)" stroke="none" />
<path d="M29 178 58 178 58 223 29 223 29 178 Z" fill="rgba(0,0,0,0.5)" stroke="none" />
<path d="M58 178 87 178 87 223 58 223 58 178 Z" fill="rgba(0,0,0,0.5)" stroke="none" />
<path d="M87 178 116 178 116 223 87 223 87 178 Z" fill="rgba(0,0,0,0.5)" stroke="none" />
<path d="M116 178 145 178 145 223 116 223 116 178 Z" fill="rgba(31,31,31,0.5)" stroke="none" />
<path d="M145 178 174 178 174 223 145 223 145 178 Z" fill="rgba(53,53,53,0.5)" stroke="none" />
<path d="M174 178 203 178 203 223 174 223 174 178 Z" fill="rgba(95,95,95,0.5)" stroke="none" />
<path d="M203 178 232 178 232 223 203 223 203 178 Z" fill="rgba(124,124,124,0.5)" stroke="none" />
<path d="M232 178 261 178 261 223 232 223 232 178 Z" fill="rgba(137,137,137,0.5)" stroke="none" />
<path d="M261 178 290 178 290 223 261 223 261 178 Z" fill="rgba(152,152,152,0.5)" stroke="none" />
<path d="M290 178 319 178 319 223 290 223 290 178 Z" fill="rgba(157,157,157,0.5)" stroke="none" />
<path d="M319 178 348 178 348 223 319 223 319 178 Z" fill="rgba(153,153,153,0.5)" stroke="none" />
<path d="M348 178 377 178 377 223 348 223 348 178 Z" fill="rgba(145,145,145,0.5)" stroke="none" />
<path d="M377 178 406 178 406 223 377 223 377 178 Z" fill="rgba(131,131,131,0.5)" stroke="none" />
<path d="M406 178 435 178 435 223 406 223 406 178 Z" fill="rgba(118,118,118,0.5)" stroke="none" />
<path d="M435 178 464 178 464 223 435 223 435 178 Z" fill="rgba(68,68,68,0.5)" stroke="none" />
<path d="M464 178 493 178 493 223 464 223 464 178 Z" fill="rgba(13,13,13,0.5)" stroke="none" />
<path d="M493 178 522 178 522 223 493 223 493 178 Z" fill="rgba(0,0,0,0.5)" stroke="none" />
<path d="M522 178 551 178 551 223 522 223 522 178 Z" fill="rgba(0,0,0,0.5)" stroke="none" />
<path d="M551 178 580 178 580 223 551 223 551 178 Z" fill="rgba(0,0,0,0.5)" stroke="none" />
<path d="M0 223 29 223 29 267 0 267 0 223 Z" fill="rgba(0,0,0,0.5)" stroke="none" />
<path d="M29 223 58 223 58 267 29 267 29 223 Z" fill="rgba(0,0,0,0.5)" stroke="none" />
<path d="M58 223 87 223 87 267 58 267 58 223 Z" fill="rgba(0,0,0,0.5)" stroke="none" />
<path d="M87 223 116 223 116 267 87 267 87 223 Z" fill="rgba(0,0,0,0.5)" stroke="none" />
<path d="M116 223 145 223 145 267 116 267 116 223 Z" fill="rgba(37,37,37,0.5)" stroke="none" />
<path d="M145 223 174 223 174 267 145 267 145 223 Z" fill="rgba(78,78,78,0.5)" stroke="none" />
<path d="M174 223 203 223 203 267 174 267 174 223 Z" fill="rgba(117,117,117,0.5)" stroke="none" />
<path d="M203 223 232 223 232 267 203 267 203 223 Z" fill="rgba(144,144,144,0.5)" stroke="none" />
<path d="M232 223 261 223 261 267 232 267 232 223 Z" fill="rgba(168,168,168,0.5)" stroke="none" />
<path d="M261 223 290 223 290 267 261 267 261 223 Z" fill="rgba(176,176,176,0.5)" stroke="none" />
<path d="M290 223 319 223 319 267 290 267 290 223 Z" fill="rgba(171,171,171,0.5)" stroke="none" />
<path d="M319 223 348 223 348 267 319 267 319 223 Z" fill="rgba(166,166,166,0.5)" stroke="none" />
<path d="M348 223 377 223 377 267 348 267 348 223 Z" fill="rgba(160,160,160,0.5)" stroke="none" />
<path d="M377 223 406 223 406 267 377 267 377 223 Z" fill="rgba(146,146,146,0.5)" stroke="none" />
<path d="M406 223 435 223 435 267 406 267 406 223 Z" fill="rgba(136,136,136,0.5)" stroke="none" />
<path d="M435 223 464 223 464 267 435 267 435 223 Z" fill="rgba(71,71,71,0.5)" stroke="none" />
<path d="M464 223 493 223 493 267 464 267 464 223 Z" fill="rgba(13,13,13,0.5)" stroke="none" />
<path d="M493 223 522 223 522 267 493 267 493 223 Z" fill="rgba(0,0,0,0.5)" stroke="none" />
<path d="M522 223 551 223 551 267 522 267 522 223 Z" fill="rgba(0,0,0,0.5)" stroke="none" />
<path d="M551 223 580 223 580 267 551 267 551 223 Z" fill="rgba(0,0,0,0.5)" stroke="none" />
<path d="M0 267 29 267 29 312 0 312 0 267 Z" fill="rgba(0,0,0,0.5)" stroke="none" />
<path d="M29 267 58 267 58 312 29 312 29 267 Z" fill="rgba(0,0,0,0.5)" stroke="none" />
<path d="M58 267 87 267 87 312 58 312 58 267 Z" fill="rgba(0,0,0,0.5)" stroke="none" />
<path d="M87 267 116 267 116 312 87 312 87 267 Z" fill="rgba(0,0,0,0.5)" stroke="none" />
<path d="M116 267 145 267 145 312 116 312 116 267 Z" fill="rgba(3,3,3,0.5)" stroke="none" />
<path d="M145 267 174 267 174 312 145 312 145 267 Z" fill="rgba(92,92,92,0.5)" stroke="none" />
<path d="M174 267 203 267 203 312 174 312 174 267 Z" fill="rgba(100,100,100,0.5)" stroke="none" />
<path d="M203 267 232 267 232 312 203 312 203 267 Z" fill="rgba(135,135,135,0.5)" stroke="none" />
<path d="M232 267 261 267 261 312 232 312 232 267 Z" fill="rgba(169,169,169,0.5)" stroke="none" />
<path d="M261 267 290 267 290 312 261 312 261 267 Z" fill="rgba(174,174,174,0.5)" stroke="none" />
<path d="M290 267 319 267 319 312 290 312 290 267 Z" fill="rgba(167,167,167,0.5)" stroke="none" />
<path d="M319 267 348 267 348 312 319 312 319 267 Z" fill="rgba(161,161,161,0.5)" stroke="none" />
<path d="M348 267 377 267 377 312 348 312 348 267 Z" fill="rgba(150,150,150,0.5)" stroke="none" />
<path d="M377 267 406 267 406 312 377 312 377 267 Z" fill="rgba(135,135,135,0.5)" stroke="none" />
<path d="M406 267 435 267 435 312 406 312 406 267 Z" fill="rgba(147,147,147,0.5)" stroke="none" />
<path d="M435 267 464 267 464 312 435 312 435 267 Z" fill="rgba(101,101,101,0.5)" stroke="none" />
<path d="M464 267 493 267 493 312 464 312 464 267 Z" fill="rgba(22,22,22,0.5)" stroke="none" />
<path d="M493 267 522 267 522 312 493 312 493 267 Z" fill="rgba(0,0,0,0.5)" stroke="none" />
<path d="M522 267 551 267 551 312 522 312 522 267 Z" fill="rgba(0,0,0,0.5)" stroke="none" />
<path d="M551 267 580 267 580 312 551 312 551 267 Z" fill="rgba(0,0,0,0.5)" stroke="none" />
<path d="M0 312 29 312 29 356 0 356 0 312 Z" fill="rgba(0,0,0,0.5)" stroke="none" />
<path d="M29 312 58 312 58 356 29 356 29 312 Z" fill="rgba(0,0,0,0.5)" stroke="none" />
<path d="M58 312 87 312 87 356 58 356 58 312 Z" fill="rgba(0,0,0,0.5)" stroke="none" />
<path d="M87 312 116 312 116 356 87 356 87 312 Z" fill="rgba(0,0,0,0.5)" stroke="none" />
<path d="M116 312 145 312 145 356 116 356 116 312 Z" fill="rgba(0,0,0,0.5)" stroke="none" />
<path d="M145 312 174 312 174 356 145 356 145 312 Z" fill="rgba(57,57,57,0.5)" stroke="none" />
<path d="M174 312 203 312 203 356 174 356 174 312 Z" fill="rgba(44,44,44,0.5)" stroke="none" />
<path d="M203 312 232 312 232 356 203 356 203 312 Z" fill="rgba(47,47,47,0.5)" stroke="none" />
<path d="M232 312 261 312 261 356 232 356 232 312 Z" fill="rgba(65,65,65,0.5)" stroke="none" />
<path d="M261 312 290 312 290 356 261 356 261 312 Z" fill="rgba(123,123,123,0.5)" stroke="none" />
<path d="M290 312 319 312 319 356 290 356 290 312 Z" fill="rgba(142,142,142,0.5)" stroke="none" />
<path d="M319 312 348 312 348 356 319 356 319 312 Z" fill="rgba(97,97,97,0.5)" stroke="none" />
<path d="M348 312 377 312 377 356 348 356 348 312 Z" fill="rgba(61,61,61,0.5)" stroke="none" />
<path d="M377 312 406 312 406 356 377 356 377 312 Z" fill="rgba(58,58,58,0.5)" stroke="none" />
<path d="M406 312 435 312 435 356 406 356 406 312 Z" fill="rgba(81,81,81,0.5)" stroke="none" />
<path d="M435 312 464 312 464 356 435 356 435 312 Z" fill="rgba(86,86,86,0.5)" stroke="none" />
<path d="M464 312 493 312 493 356 464 356 464 312 Z" fill="rgba(23,23,23,0.5)" stroke="none" />
<path d="M493 312 522 312 522 356 493 356 493 312 Z" fill="rgba(0,0,0,0.5)" stroke="none" />
<path d="M522 312 551 312 551 356 522 356 522 312 Z" fill="rgba(0,0,0,0.5)" stroke="none" />
<path d="M551 312 580 312 580 356 551 356 551 312 Z" fill="rgba(0,0,0,0.5)" stroke="none" />
<path d="M0 356 29 356 29 401 0 401 0 356 Z" fill="rgba(0,0,0,0.5)" stroke="none" />
<path d="M29 356 58 356 58 401 29 401 29 356 Z" fill="rgba(0,0,0,0.5)" stroke="none" />
<path d="M58 356 87 356 87 401 58 401 58 356 Z" fill="rgba(0,0,0,0.5)" stroke="none" />
<path d="M87 356 116 356 116 401 87 401 87 356 Z" fill="rgba(0,0,0,0.5)" stroke="none" />
<path d="M116 356 145 356 145 401 116 401 116 356 Z" fill="rgba(65,65,65,0.5)" stroke="none" />
<path d="M145 356 174 356 174 401 145 401 145 356 Z" fill="rgba(90,90,90,0.5)" stroke="none" />
<path d="M174 356 203 356 203 401 174 401 174 356 Z" fill="rgba(53,53,53,0.5)" stroke="none" />
<path d="M203 356 232 356 232 401 203 401 203 356 Z" fill="rgba(61,61,61,0.5)" stroke="none" />
<path d="M232 356 261 356 261 401 232 401 232 356 Z" fill="rgba(51,51,51,0.5)" stroke="none" />
<path d="M261 356 290 356 290 401 261 401 261 356 Z" fill="rgba(96,96,96,0.5)" stroke="none" />
<path d="M290 356 319 356 319 401 290 401 290 356 Z" fill="rgba(150,150,150,0.5)" stroke="none" />
<path d="M319 356 348 356 348 401 319 401 319 356 Z" fill="rgba(100,100,100,0.5)" stroke="none" />
<path d="M348 356 377 356 377 401 348 401 348 356 Z" fill="rgba(60,60,60,0.5)" stroke="none" />
<path d="M377 356 406 356 406 401 377 401 377 356 Z" fill="rgba(86,86,86,0.5)" stroke="none" />
<path d="M406 356 435 356 435 401 406 401 406 356 Z" fill="rgba(89,89,89,0.5)" stroke="none" />
<path d="M435 356 464 356 464 401 435 401 435 356 Z" fill="rgba(32,32,32,0.5)" stroke="none" />
<path d="M464 356 493 356 493 401 464 401 464 356 Z" fill="rgba(60,60,60,0.5)" stroke="none" />
<path d="M493 356 522 356 522 401 493 401 493 356 Z" fill="rgba(24,24,24,0.5)" stroke="none" />
<path d="M522 356 551 356 551 401 522 401 522 356 Z" fill="rgba(0,0,0,0.5)" stroke="none" />
<path d="M551 356 580 356 580 401 551 401 551 356 Z" fill="rgba(0,0,0,0.5)" stroke="none" />
<path d="M0 401 29 401 29 446 0 446 0 401 Z" fill="rgba(0,0,0,0.5)" stroke="none" />
<path d="M29 401 58 401 58 446 29 446 29 401 Z" fill="rgba(0,0,0,0.5)" stroke="none" />
<path d="M58 401 87 401 87 446 58 446 58 401 Z" fill="rgba(0,0,0,0.5)" stroke="none" />
<path d="M87 401 116 401 116 446 87 446 87 401 Z" fill="rgba(0,0,0,0.5)" stroke="none" />
<path d="M116 401 145 401 145 446 116 446 116 401 Z" fill="rgba(89,89,89,0.5)" stroke="none" />
<path d="M145 401 174 401 174 446 145 446 145 401 Z" fill="rgba(117,117,117,0.5)" stroke="none" />
<path d="M174 401 203 401 203 446 174 446 174 401 Z" fill="rgba(119,119,119,0.5)" stroke="none" />
<path d="M203 401 232 401 232 446 203 446 203 401 Z" fill="rgba(127,127,127,0.5)" stroke="none" />
<path d="M232 401 261 401 261 446 232 446 232 401 Z" fill="rgba(115,115,115,0.5)" stroke="none" />
<path d="M261 401 290 401 290 446 261 446 261 401 Z" fill="rgba(121,121,121,0.5)" stroke="none" />
<path d="M290 401 319 401 319 446 290 446 290 401 Z" fill="rgba(164,164,164,0.5)" stroke="none" />
<path d="M319 401 348 401 348 446 319 446 319 401 Z" fill="rgba(138,138,138,0.5)" stroke="none" />
<path d="M348 401 377 401 377 446 348 446 348 401 Z" fill="rgba(100,100,100,0.5)" stroke="none" />
<path d="M377 401 406 401 406 446 377 446 377 401 Z" fill="rgba(104,104,104,0.5)" stroke="none" />
<path d="M406 401 435 401 435 446 406 446 406 401 Z" fill="rgba(116,116,116,0.5)" stroke="none" />
<path d="M435 401 464 401 464 446 435 446 435 401 Z" fill="rgba(163,163,163,0.5)" stroke="none" />
<path d="M464 401 493 401 493 446 464 446 464 401 Z" fill="rgba(100,100,100,0.5)" stroke="none" />
<path d="M493 401 522 401 522 446 493 446 493 401 Z" fill="rgba(21,21,21,0.5)" stroke="none" />
<path d="M522 401 551 401 551 446 522 446 522 401 Z" fill="rgba(0,0,0,0.5)" stroke="none" />
<path d="M551 401 580 401 580 446 551 446 551 401 Z" fill="rgba(0,0,0,0.5)" stroke="none" />
<path d="M0 446 29 446 29 490 0 490 0 446 Z" fill="rgba(0,0,0,0.5)" stroke="none" />
<path d="M29 446 58 446 58 490 29 490 29 446 Z" fill="rgba(0,0,0,0.5)" stroke="none" />
<path d="M58 446 87 446 87 490 58 490 58 446 Z" fill="rgba(0,0,0,0.5)" stroke="none" />
<path d="M87 446 116 446 116 490 87 490 87 446 Z" fill="rgba(0,0,0,0.5)" stroke="none" />
<path d="M116 446 145 446 145 490 116 490 116 446 Z" fill="rgba(39,39,39,0.5)" stroke="none" />
<path d="M145 446 174 446 174 490 145 490 145 446 Z" fill="rgba(119,119,119,0.5)" stroke="none" />
<path d="M174 446 203 446 203 490 174 490 174 446 Z" fill="rgba(142,142,142,0.5)" stroke="none" />
<path d="M203 446 232 446 232 490 203 490 203 446 Z" fill="rgba(148,148,148,0.5)" stroke="none" />
<path d="M232 446 261 446 261 490 232 490 232 446 Z" fill="rgba(133,133,133,0.5)" stroke="none" />
<path d="M261 446 290 446 290 490 261 490 261 446 Z" fill="rgba(136,136,136,0.5)" stroke="none" />
<path d="M290 446 319 446 319 490 290 490 290 446 Z" fill="rgba(160,160,160,0.5)" stroke="none" />
<path d="M319 446 348 446 348 490 319 490 319 446 Z" fill="rgba(150,150,150,0.5)" stroke="none" />
<path d="M348 446 377 446 377 490 348 490 348 446 Z" fill="rgba(140,140,140,0.5)" stroke="none" />
<path d="M377 446 406 446 406 490 377 490 377 446 Z" fill="rgba(131,131,131,0.5)" stroke="none" />
<path d="M406 446 435 446 435 490 406 490 406 446 Z" fill="rgba(123,123,123,0.5)" stroke="none" />
<path d="M435 446 464 446 464 490 435 490 435 446 Z" fill="rgba(196,196,196,0.5)" stroke="none" />
<path d="M464 446 493 446 493 490 464 490 464 446 Z" fill="rgba(162,162,162,0.5)" stroke="none" />
<path d="M493 446 522 446 522 490 493 490 493 446 Z" fill="rgba(43,43,43,0.5)" stroke="none" />
<path d="M522 446 551 446 551 490 522 490 522 446 Z" fill="rgba(0,0,0,0.5)" stroke="none" />
<path d="M551 446 580 446 580 490 551 490 551 446 Z" fill="rgba(0,0,0,0.5)" stroke="none" />
<path d="M0 490 29 490 29 535 0 535 0 490 Z" fill="rgba(0,0,0,0.5)" stroke="none" />
<path d="M29 490 58 490 58 535 29 535 29 490 Z" fill="rgba(0,0,0,0.5)" stroke="none" />
<path d="M58 490 87 490 87 535 58 535 58 490 Z" fill="rgba(0,0,0,0.5)" stroke="none" />
<path d="M87 490 116 490 116 535 87 535 87 490 Z" fill="rgba(0,0,0,0.5)" stroke="none" />
<path d="M116 490 145 490 145 535 116 535 116 490 Z" fill="rgba(5,5,5,0.5)" stroke="none" />
<path d="M145 490 174 490 174 535 145 535 145 490 Z" fill="rgba(104,104,104,0.5)" stroke="none" />
<path d="M174 490 203 490 203 535 174 535 174 490 Z" fill="rgba(135,135,135,0.5)" stroke="none" />
<path d="M203 490 232 490 232 535 203 535 203 490 Z" fill="rgba(147,147,147,0.5)" stroke="none" />
<path d="M232 490 261 490 261 535 232 535 232 490 Z" fill="rgba(121,121,121,0.5)" stroke="none" />
<path d="M261 490 290 490 290 535 261 535 261 490 Z" fill="rgba(137,137,137,0.5)" stroke="none" />
<path d="M290 490 319 490 319 535 290 535 290 490 Z" fill="rgba(164,164,164,0.5)" stroke="none" />
<path d="M319 490 348 490 348 535 319 535 319 490 Z" fill="rgba(149,149,149,0.5)" stroke="none" />
<path d="M348 490 377 490 377 535 348 535 348 490 Z" fill="rgba(145,145,145,0.5)" stroke="none" />
<path d="M377 490 406 490 406 535 377 535 377 490 Z" fill="rgba(133,133,133,0.5)" stroke="none" />
<path d="M406 490 435 490 435 535 406 535 406 490 Z" fill="rgba(115,115,115,0.5)" stroke="none" />
<path d="M435 490 464 490 464 535 435 535 435 490 Z" fill="rgba(166,166,166,0.5)" stroke="none" />
<path d="M464 490 493 490 493 535 464 535 464 490 Z" fill="rgba(74,74,74,0.5)" stroke="none" />
<path d="M493 490 522 490 522 535 493 535 493 490 Z" fill="rgba(9,9,9,0.5)" stroke="none" />
<path d="M522 490 551 490 551 535 522 535 522 490 Z" fill="rgba(0,0,0,0.5)" stroke="none" />
<path d="M551 490 580 490 580 535 551 535 551 490 Z" fill="rgba(0,0,0,0.5)" stroke="none" />
<path d="M0 535 29 535 29 580 0 580 0 535 Z" fill="rgba(0,0,0,0.5)" stroke="none" />
<path d="M29 535 58 535 58 580 29 580 29 535 Z" fill="rgba(0,0,0,0.5)" stroke="none" />
<path d="M58 535 87 535 87 580 58 580 58 535 Z" fill="rgba(0,0,0,0.5)" stroke="none" />
<path d="M87 535 116 535 116 580 87 580 87 535 Z" fill="rgba(0,0,0,0.5)" stroke="none" />
<path d="M116 535 145 535 145 580 116 580 116 535 Z" fill="rgba(0,0,0,0.5)" stroke="none" />
<path d="M145 535 174 535 174 580 145 580 145 535 Z" fill="rgba(100,100,100,0.5)" stroke="none" />
<path d="M174 535 203 535 203 580 174 580 174 535 Z" fill="rgba(126,126,126,0.5)" stroke="none" />
<path d="M203 535 232 535 232 580 203 580 203 535 Z" fill="rgba(144,144,144,0.5)" stroke="none" />
<path d="M232 535 261 535 261 580 232 580 232 535 Z" fill="rgba(93,93,93,0.5)" stroke="none" />
<path d="M261 535 290 535 290 580 261 580 261 535 Z" fill="rgba(98,98,98,0.5)" stroke="none" />
<path d="M290 535 319 535 319 580 290 580 290 535 Z" fill="rgba(128,128,128,0.5)" stroke="none" />
<path d="M319 535 348 535 348 580 319 580 319 535 Z" fill="rgba(122,122,122,0.5)" stroke="none" />
<path d="M348 535 377 535 377 580 348 580 348 535 Z" fill="rgba(135,135,135,0.5)" stroke="none" />
<path d="M377 535 406 535 406 580 377 580 377 535 Z" fill="rgba(134,134,134,0.5)" stroke="none" />
<path d="M406 535 435 535 435 580 406 580 406 535 Z" fill="rgba(118,118,118,0.5)" stroke="none" />
<path d="M435 535 464 535 464 580 435 580 435 535 Z" fill="rgba(129,129,129,0.5)" stroke="none" />
<path d="M464 535 493 535 493 580 464 580 464 535 Z" fill="rgba(66,66,66,0.5)" stroke="none" />
<path d="M493 535 522 535 522 580 493 580 493 535 Z" fill="rgba(12,12,12,0.5)" stroke="none" />
<path d="M522 535 551 535 551 580 522 580 522 535 Z" fill="rgba(0,0,0,0.5)" stroke="none" />
<path d="M551 535 580 535 580 580 551 580 551 535 Z" fill="rgba(0,0,0,0.5)" stroke="none" />
<path d="M0 580 29 580 29 624 0 624 0 580 Z" fill="rgba(0,0,0,0.5)" stroke="none" />
<path d="M29 580 58 580 58 624 29 624 29 580 Z" fill="rgba(0,0,0,0.5)" stroke="none" />
<path d="M58 580 87 580 87 624 58 624 58 580 Z" fill="rgba(0,0,0,0.5)" stroke="none" />
<path d="M87 580 116 580 116 624 87 624 87 580 Z" fill="rgba(0,0,0,0.5)" stroke="none" />
<path d="M116 580 145 580 145 624 116 624 116 580 Z" fill="rgba(0,0,0,0.5)" stroke="none" />
<path d="M145 580 174 580 174 624 145 624 145 580 Z" fill="rgba(114,114,114,0.5)" stroke="none" />
<path d="M174 580 203 580 203 624 174 624 174 580 Z" fill="rgba(128,128,128,0.5)" stroke="none" />
<path d="M203 580 232 580 232 624 203 624 203 580 Z" fill="rgba(142,142,142,0.5)" stroke="none" />
<path d="M232 580 261 580 261 624 232 624 232 580 Z" fill="rgba(115,115,115,0.5)" stroke="none" />
<path d="M261 580 290 580 290 624 261 624 261 580 Z" fill="rgba(104,104,104,0.5)" stroke="none" />
<path d="M290 580 319 580 319 624 290 624 290 580 Z" fill="rgba(121,121,121,0.5)" stroke="none" />
<path d="M319 580 348 580 348 624 319 624 319 580 Z" fill="rgba(131,131,131,0.5)" stroke="none" />
<path d="M348 580 377 580 377 624 348 624 348 580 Z" fill="rgba(144,144,144,0.5)" stroke="none" />
<path d="M377 580 406 580 406 624 377 624 377 580 Z" fill="rgba(139,139,139,0.5)" stroke="none" />
<path d="M406 580 435 580 435 624 406 624 406 580 Z" fill="rgba(140,140,140,0.5)" stroke="none" />
<path d="M435 580 464 580 464 624 435 624 435 580 Z" fill="rgba(80,80,80,0.5)" stroke="none" />
<path d="M464 580 493 580 493 624 464 624 464 580 Z" fill="rgba(47,47,47,0.5)" stroke="none" />
<path d="M493 580 522 580 522 624 493 624 493 580 Z" fill="rgba(13,13,13,0.5)" stroke="none" />
<path d="M522 580 551 580 551 624 522 624 522 580 Z" fill="rgba(0,0,0,0.5)" stroke="none" />
<path d="M551 580 580 580 580 624 551 624 551 580 Z" fill="rgba(0,0,0,0.5)" stroke="none" />
<path d="M0 624 29 624 29 669 0 669 0 624 Z" fill="rgba(0,0,0,0.5)" stroke="none" />
<path d="M29 624 58 624 58 669 29 669 29 624 Z" fill="rgba(0,0,0,0.5)" stroke="none" />
<path d="M58 624 87 624 87 669 58 669 58 624 Z" fill="rgba(0,0,0,0.5)" stroke="none" />
<path d="M87 624 116 624 116 669 87 669 87 624 Z" fill="rgba(0,0,0,0.5)" stroke="none" />
<path d="M116 624 145 624 145 669 116 669 116 624 Z" fill="rgba(0,0,0,0.5)" stroke="none" />
<path d="M145 624 174 624 174 669 145 669 145 624 Z" fill="rgba(92,92,92,0.5)" stroke="none" />
<path d="M174 624 203 624 203 669 174 669 174 624 Z" fill="rgba(129,129,129,0.5)" stroke="none" />
<path d="M203 624 232 624 232 669 203 669 203 624 Z" fill="rgba(135,135,135,0.5)" stroke="none" />
<path d="M232 624 261 624 261 669 232 669 232 624 Z" fill="rgba(138,138,138,0.5)" stroke="none" />
<path d="M261 624 290 624 290 669 261 669 261 624 Z" fill="rgba(123,123,123,0.5)" stroke="none" />
<path d="M290 624 319 624 319 669 290 669 290 624 Z" fill="rgba(140,140,140,0.5)" stroke="none" />
<path d="M319 624 348 624 348 669 319 669 319 624 Z" fill="rgba(145,145,145,0.5)" stroke="none" />
<path d="M348 624 377 624 377 669 348 669 348 624 Z" fill="rgba(134,134,134,0.5)" stroke="none" />
<path d="M377 624 406 624 406 669 377 669 377 624 Z" fill="rgba(141,141,141,0.5)" stroke="none" />
<path d="M406 624 435 624 435 669 406 669 406 624 Z" fill="rgba(172,172,172,0.5)" stroke="none" />
<path d="M435 624 464 624 464 669 435 669 435 624 Z" fill="rgba(95,95,95,0.5)" stroke="none" />
<path d="M464 624 493 624 493 669 464 669 464 624 Z" fill="rgba(44,44,44,0.5)" stroke="none" />
<path d="M493 624 522 624 522 669 493 669 493 624 Z" fill="rgba(11,11,11,0.5)" stroke="none" />
<path d="M522 624 551 624 551 669 522 669 522 624 Z" fill="rgba(0,0,0,0.5)" stroke="none" />
<path d="M551 624 580 624 580 669 551 669 551 624 Z" fill="rgba(0,0,0,0.5)" stroke="none" />
<path d="M0 669 29 669 29 713 0 713 0 669 Z" fill="rgba(0,0,0,0.5)" stroke="none" />
<path d="M29 669 58 669 58 713 29 713 29 669 Z" fill="rgba(0,0,0,0.5)" stroke="none" />
<path d="M58 669 87 669 87 713 58 713 58 669 Z" fill="rgba(0,0,0,0.5)" stroke="none" />
<path d="M87 669 116 669 116 713 87 713 87 669 Z" fill="rgba(0,0,0,0.5)" stroke="none" />
<path d="M116 669 145 669 145 713 116 713 116 669 Z" fill="rgba(0,0,0,0.5)" stroke="none" />
<path d="M145 669 174 669 174 713 145 713 145 669 Z" fill="rgba(23,23,23,0.5)" stroke="none" />
<path d="M174 669 203 669 203 713 174 713 174 669 Z" fill="rgba(110,110,110,0.5)" stroke="none" />
<path d="M203 669 232 669 232 713 203 713 203 669 Z" fill="rgba(137,137,137,0.5)" stroke="none" />
<path d="M232 669 261 669 261 713 232 713 232 669 Z" fill="rgba(137,137,137,0.5)" stroke="none" />
<path d="M261 669 290 669 290 713 261 713 261 669 Z" fill="rgba(140,140,140,0.5)" stroke="none" />
<path d="M290 669 319 669 319 713 290 713 290 669 Z" fill="rgba(149,149,149,0.5)" stroke="none" />
<path d="M319 669 348 669 348 713 319 713 319 669 Z" fill="rgba(139,139,139,0.5)" stroke="none" />
<path d="M348 669 377 669 377 713 348 713 348 669 Z" fill="rgba(120,120,120,0.5)" stroke="none" />
<path d="M377 669 406 669 406 713 377 713 377 669 Z" fill="rgba(144,144,144,0.5)" stroke="none" />
<path d="M406 669 435 669 435 713 406 713 406 669 Z" fill="rgba(173,173,173,0.5)" stroke="none" />
<path d="M435 669 464 669 464 713 435 713 435 669 Z" fill="rgba(93,93,93,0.5)" stroke="none" />
<path d="M464 669 493 669 493 713 464 713 464 669 Z" fill="rgba(23,23,23,0.5)" stroke="none" />
<path d="M493 669 522 669 522 713 493 713 493 669 Z" fill="rgba(3,3,3,0.5)" stroke="none" />
<path d="M522 669 551 669 551 713 522 713 522 669 Z" fill="rgba(0,0,0,0.5)" stroke="none" />
<path d="M551 669 580 669 580 713 551 713 551 669 Z" fill="rgba(0,0,0,0.5)" stroke="none" />
<path d="M0 713 29 713 29 758 0 758 0 713 Z" fill="rgba(0,0,0,0.5)" stroke="none" />
<path d="M29 713 58 713 58 758 29 758 29 713 Z" fill="rgba(0,0,0,0.5)" stroke="none" />
<path d="M58 713 87 713 87 758 58 758 58 713 Z" fill="rgba(0,0,0,0.5)" stroke="none" />
<path d="M87 713 116 713 116 758 87 758 87 713 Z" fill="rgba(0,0,0,0.5)" stroke="none" />
<path d="M116 713 145 713 145 758 116 758 116 713 Z" fill="rgba(0,0,0,0.5)" stroke="none" />
<path d="M145 713 174 713 174 758 145 758 145 713 Z" fill="rgba(0,0,0,0.5)" stroke="none" />
<path d="M174 713 203 713 203 758 174 758 174 713 Z" fill="rgba(92,92,92,0.5)" stroke="none" />
<path d="M203 713 232 713 232 758 203 758 203 713 Z" fill="rgba(116,116,116,0.5)" stroke="none" />
<path d="M232 713 261 713 261 758 232 758 232 713 Z" fill="rgba(124,124,124,0.5)" stroke="none" />
<path d="M261 713 290 713 290 758 261 758 261 713 Z" fill="rgba(130,130,130,0.5)" stroke="none" />
<path d="M290 713 319 713 319 758 290 758 290 713 Z" fill="rgba(126,126,126,0.5)" stroke="none" />
<path d="M319 713 348 713 348 758 319 758 319 713 Z" fill="rgba(120,120,120,0.5)" stroke="none" />
<path d="M348 713 377 713 377 758 348 758 348 713 Z" fill="rgba(119,119,119,0.5)" stroke="none" />
<path d="M377 713 406 713 406 758 377 758 377 713 Z" fill="rgba(155,155,155,0.5)" stroke="none" />
<path d="M406 713 435 713 435 758 406 758 406 713 Z" fill="rgba(164,164,164,0.5)" stroke="none" />
<path d="M435 713 464 713 464 758 435 758 435 713 Z" fill="rgba(125,125,125,0.5)" stroke="none" />
<path d="M464 713 493 713 493 758 464 758 464 713 Z" fill="rgba(30,30,30,0.5)" stroke="none" />
<path d="M493 713 522 713 522 758 493 758 493 713 Z" fill="rgba(0,0,0,0.5)" stroke="none" />
<path d="M522 713 551 713 551 758 522 758 522 713 Z" fill="rgba(0,0,0,0.5)" stroke="none" />
<path d="M551 713 580 713 580 758 551 758 551 713 Z" fill="rgba(0,0,0,0.5)" stroke="none" />
<path d="M0 758 29 758 29 803 0 803 0 758 Z" fill="rgba(0,0,0,0.5)" stroke="none" />
<path d="M29 758 58 758 58 803 29 803 29 758 Z" fill="rgba(0,0,0,0.5)" stroke="none" />
<path d="M58 758 87 758 87 803 58 803 58 758 Z" fill="rgba(0,0,0,0.5)" stroke="none" />
<path d="M87 758 116 758 116 803 87 803 87 758 Z" fill="rgba(0,0,0,0.5)" stroke="none" />
<path d="M116 758 145 758 145 803 116 803 116 758 Z" fill="rgba(0,0,0,0.5)" stroke="none" />
<path d="M145 758 174 758 174 803 145 803 145 758 Z" fill="rgba(0,0,0,0.5)" stroke="none" />
<path d="M174 758 203 758 203 803 174 803 174 758 Z" fill="rgba(27,27,27,0.5)" stroke="none" />
<path d="M203 758 232 758 232 803 203 803 203 758 Z" fill="rgba(107,107,107,0.5)" stroke="none" />
<path d="M232 758 261 758 261 803 232 803 232 758 Z" fill="rgba(135,135,135,0.5)" stroke="none" />
<path d="M261 758 290 758 290 803 261 803 261 758 Z" fill="rgba(134,134,134,0.5)" stroke="none" />
<path d="M290 758 319 758 319 803 290 803 290 758 Z" fill="rgba(132,132,132,0.5)" stroke="none" />
<path d="M319 758 348 758 348 803 319 803 319 758 Z" fill="rgba(131,131,131,0.5)" stroke="none" />
<path d="M348 758 377 758 377 803 348 803 348 758 Z" fill="rgba(133,133,133,0.5)" stroke="none" />
<path d="M377 758 406 758 406 803 377 803 377 758 Z" fill="rgba(170,170,170,0.5)" stroke="none" />
<path d="M406 758 435 758 435 803 406 803 406 758 Z" fill="rgba(169,169,169,0.5)" stroke="none" />
<path d="M435 758 464 758 464 803 435 803 435 758 Z" fill="rgba(156,156,156,0.5)" stroke="none" />
<path d="M464 758 493 758 493 803 464 803 464 758 Z" fill="rgba(88,88,88,0.5)" stroke="none" />
<path d="M493 758 522 758 522 803 493 803 493 758 Z" fill="rgba(19,19,19,0.5)" stroke="none" />
<path d="M522 758 551 758 551 803 522 803 522 758 Z" fill="rgba(0,0,0,0.5)" stroke="none" />
<path d="M551 758 580 758 580 803 551 803 551 758 Z" fill="rgba(0,0,0,0.5)" stroke="none" />
<path d="M0 803 29 803 29 847 0 847 0 803 Z" fill="rgba(0,0,0,0.5)" stroke="none" />
<path d="M29 803 58 803 58 847 29 847 29 803 Z" fill="rgba(0,0,0,0.5)" stroke="none" />
<path d="M58 803 87 803 87 847 58 847 58 803 Z" fill="rgba(0,0,0,0.5)" stroke="none" />
<path d="M87 803 116 803 116 847 87 847 87 803 Z" fill="rgba(0,0,0,0.5)" stroke="none" />
<path d="M116 803 145 803 145 847 116 847 116 803 Z" fill="rgba(0,0,0,0.5)" stroke="none" />
<path d="M145 803 174 803 174 847 145 847 145 803 Z" fill="rgba(0,0,0,0.5)" stroke="none" />
<path d="M174 803 203 803 203 847 174 847 174 803 Z" fill="rgba(0,0,0,0.5)" stroke="none" />
<path d="M203 803 232 803 232 847 203 847 203 803 Z" fill="rgba(88,88,88,0.5)" stroke="none" />
<path d="M232 803 261 803 261 847 232 847 232 803 Z" fill="rgba(124,124,124,0.5)" stroke="none" />
<path d="M261 803 290 803 290 847 261 847 261 803 Z" fill="rgba(134,134,134,0.5)" stroke="none" />
<path d="M290 803 319 803 319 847 290 847 290 803 Z" fill="rgba(138,138,138,0.5)" stroke="none" />
<path d="M319 803 348 803 348 847 319 847 319 803 Z" fill="rgba(138,138,138,0.5)" stroke="none" />
<path d="M348 803 377 803 377 847 348 847 348 803 Z" fill="rgba(137,137,137,0.5)" stroke="none" />
<path d="M377 803 406 803 406 847 377 847 377 803 Z" fill="rgba(157,157,157,0.5)" stroke="none" />
<path d="M406 803 435 803 435 847 406 847 406 803 Z" fill="rgba(167,167,167,0.5)" stroke="none" />
<path d="M435 803 464 803 464 847 435 847 435 803 Z" fill="rgba(172,172,172,0.5)" stroke="none" />
<path d="M464 803 493 803 493 847 464 847 464 803 Z" fill="rgba(118,118,118,0.5)" stroke="none" />
<path d="M493 803 522 803 522 847 493 847 493 803 Z" fill="rgba(30,30,30,0.5)" stroke="none" />
<path d="M522 803 551 803 551 847 522 847 522 803 Z" fill="rgba(0,0,0,0.5)" stroke="none" />
<path d="M551 803 580 803 580 847 551 847 551 803 Z" fill="rgba(0,0,0,0.5)" stroke="none" />
<path d="M0 847 29 847 29 892 0 892 0 847 Z" fill="rgba(0,0,0,0.5)" stroke="none" />
<path d="M29 847 58 847 58 892 29 892 29 847 Z" fill="rgba(0,0,0,0.5)" stroke="none" />
<path d="M58 847 87 847 87 892 58 892 58 847 Z" fill="rgba(0,0,0,0.5)" stroke="none" />
<path d="M87 847 116 847 116 892 87 892 87 847 Z" fill="rgba(0,0,0,0.5)" stroke="none" />
<path d="M116 847 145 847 145 892 116 892 116 847 Z" fill="rgba(0,0,0,0.5)" stroke="none" />
<path d="M145 847 174 847 174 892 145 892 145 847 Z" fill="rgba(0,0,0,0.5)" stroke="none" />
<path d="M174 847 203 847 203 892 174 892 174 847 Z" fill="rgba(0,0,0,0.5)" stroke="none" />
<path d="M203 847 232 847 232 892 203 892 203 847 Z" fill="rgba(27,27,27,0.5)" stroke="none" />
<path d="M232 847 261 847 261 892 232 892 232 847 Z" fill="rgba(99,99,99,0.5)" stroke="none" />
<path d="M261 847 290 847 290 892 261 892 261 847 Z" fill="rgba(100,100,100,0.5)" stroke="none" />
<path d="M290 847 319 847 319 892 290 892 290 847 Z" fill="rgba(96,96,96,0.5)" stroke="none" />
<path d="M319 847 348 847 348 892 319 892 319 847 Z" fill="rgba(123,123,123,0.5)" stroke="none" />
<path d="M348 847 377 847 377 892 348 892 348 847 Z" fill="rgba(136,136,136,0.5)" stroke="none" />
<path d="M377 847 406 847 406 892 377 892 377 847 Z" fill="rgba(152,152,152,0.5)" stroke="none" />
<path d="M406 847 435 847 435 892 406 892 406 847 Z" fill="rgba(166,166,166,0.5)" stroke="none" />
<path d="M435 847 464 847 464 892 435 892 435 847 Z" fill="rgba(172,172,172,0.5)" stroke="none" />
<path d="M464 847 493 847 493 892 464 892 464 847 Z" fill="rgba(72,72,72,0.5)" stroke="none" />
<path d="M493 847 522 847 522 892 493 892 493 847 Z" fill="rgba(10,10,10,0.5)" stroke="none" />
<path d="M522 847 551 847 551 892 522 892 522 847 Z" fill="rgba(0,0,0,0.5)" stroke="none" />
<path d="M551 847 580 847 580 892 551 892 551 847 Z" fill="rgba(0,0,0,0.5)" stroke="none" />
</svg>