<svg width="100%" height="100%" version="1.1" xmlns="http://www.w3.org/2000/svg"> 
<path d="M152 484 141 479 122 479 108 483 74 483 73 486 111 485 123 481 140 481 149 486 Z" fill="none" stroke="black" stroke-width="1.278874" />
<path d="M145 448 150 451 165 451 182 445 171 445 164 449 160 445 155 449 Z" fill="none" stroke="black" stroke-width="1.084678" />
<path d="M94 381 103 391 110 389 120 400 125 396 134 409 148 417 171 421 186 415 182 413 179 417 170 419 151 415 136 406 127 393 121 398 113 387 104 389 101 383 Z" fill="none" stroke="black" stroke-width="1.410277" />
<path d="M122 330 127 336 143 334 151 329 200 329 202 332 213 334 229 333 201 327 150 327 136 334 134 331 129 333 126 329 Z" fill="none" stroke="black" stroke-width="1.410861" />
<path d="M41 327 47 362 51 452 54 455 56 486 50 363 47 360 47 344 Z" fill="none" stroke="black" stroke-width="1.585908" />
<path d="M124 326 137 327 159 317 170 321 181 321 189 317 206 325 221 325 233 329 224 323 207 323 190 314 180 319 164 316 161 313 160 297 157 301 150 302 152 306 158 305 157 316 144 319 136 325 Z" fill="none" stroke="black" stroke-width="1.506319" />
<path d="M312 268 315 272 321 268 319 274 325 274 321 268 327 263 Z" fill="none" stroke="black" stroke-width="1.019597" />
<path d="M152 266 152 273 155 276 167 271 162 269 156 272 154 269 160 265 166 265 172 272 180 275 180 272 169 263 159 261 Z" fill="none" stroke="black" stroke-width="1.145314" />
<path d="M149 252 141 260 139 267 148 280 154 280 144 269 146 258 152 259 Z" fill="none" stroke="black" stroke-width="1.090140" />
<path d="M207 250 204 254 195 250 190 256 191 261 196 255 207 260 207 275 195 289 202 287 210 275 Z" fill="none" stroke="black" stroke-width="1.154867" />
<path d="M137 249 131 274 138 285 155 287 158 295 159 288 165 284 164 280 184 280 182 276 179 280 163 278 157 284 140 282 133 273 137 254 144 247 Z" fill="none" stroke="black" stroke-width="1.351537" />
<path d="M232 203 229 214 237 218 242 215 242 206 239 207 236 216 231 211 Z" fill="none" stroke="black" stroke-width="1.052412" />
<path d="M60 204 70 206 75 214 85 214 91 223 101 227 123 225 128 222 125 220 102 225 95 222 86 210 79 212 74 203 Z" fill="none" stroke="black" stroke-width="1.248309" />
<path d="M90 208 91 212 96 212 100 204 105 212 109 212 102 201 97 201 Z" fill="none" stroke="black" stroke-width="1.040952" />
<path d="M216 208 217 212 224 212 224 205 221 210 219 209 224 201 238 199 247 201 254 209 254 213 247 216 250 212 248 208 244 217 240 218 241 221 245 218 254 218 260 210 265 215 262 222 257 221 260 225 287 222 280 218 270 222 266 219 267 214 262 207 239 197 227 197 219 201 Z" fill="none" stroke="black" stroke-width="1.506873" />
<path d="M207 196 226 191 243 191 244 195 251 193 260 197 274 212 276 211 274 204 263 195 243 188 225 188 Z" fill="none" stroke="black" stroke-width="1.237316" />
<path d="M81 196 87 197 95 191 127 195 124 206 127 212 137 212 142 208 145 211 133 225 126 228 137 226 139 246 141 233 137 224 150 214 146 209 150 203 144 194 146 191 133 189 141 194 145 202 144 207 135 197 121 190 95 188 Z" fill="none" stroke="black" stroke-width="1.584581" />
<path d="M128 179 154 194 152 197 158 195 153 188 133 178 Z" fill="none" stroke="black" stroke-width="1.086665" />
<path d="M128 173 106 171 79 178 66 192 66 196 69 196 80 180 98 178 106 174 127 176 Z" fill="none" stroke="black" stroke-width="1.242277" />
<path d="M216 172 238 182 256 182 270 186 276 184 239 180 226 175 220 169 Z" fill="none" stroke="black" stroke-width="1.197409" />
<path d="M318 165 310 170 310 211 306 227 304 274 312 212 312 173 Z" fill="none" stroke="black" stroke-width="1.395927" />
<path d="M216 165 220 167 224 163 243 163 251 167 260 167 270 178 282 185 279 192 270 188 270 193 277 193 285 203 287 202 281 194 285 191 285 183 263 165 245 163 242 160 222 160 Z" fill="none" stroke="black" stroke-width="1.393006" />
<path d="M216 161 213 158 200 160 190 172 190 177 193 177 193 172 197 171 202 163 Z" fill="none" stroke="black" stroke-width="1.062415" />
<path d="M58 187 58 194 64 197 60 190 76 174 100 161 128 159 136 163 145 163 148 168 145 171 136 171 136 174 146 174 153 167 167 190 169 228 152 244 152 250 159 250 171 261 171 255 166 250 154 247 171 229 169 189 161 170 156 165 128 156 91 160 85 167 74 171 Z" fill="none" stroke="black" stroke-width="1.967690" />
<path d="M45 150 41 150 38 158 35 154 26 169 28 186 28 172 35 161 41 160 37 171 36 195 40 206 37 212 39 225 34 239 36 243 32 247 34 258 26 266 26 273 19 281 19 288 15 292 15 299 19 301 15 312 20 311 20 305 25 300 32 307 35 323 37 317 33 303 36 300 41 310 37 296 32 291 24 291 34 298 31 301 27 297 21 299 17 295 22 290 25 276 28 277 28 288 32 289 30 279 37 271 35 251 39 243 37 239 41 226 39 213 43 209 43 202 39 198 39 172 43 167 Z" fill="none" stroke="black" stroke-width="2.152969" />
<path d="M59 81 58 95 45 110 47 113 42 127 45 126 50 110 60 98 Z" fill="none" stroke="black" stroke-width="1.123015" />
<path d="M114 83 108 79 102 86 92 86 76 94 73 91 79 88 71 86 69 95 62 96 66 98 68 105 72 95 76 97 93 88 102 88 110 82 111 87 107 91 110 97 112 94 109 91 114 87 Z" fill="none" stroke="black" stroke-width="1.313077" />
<path d="M253 62 250 66 262 71 289 100 301 125 310 136 310 145 314 150 312 133 295 108 291 97 265 69 Z" fill="none" stroke="black" stroke-width="1.388977" />
<path d="M220 56 208 54 200 60 195 60 185 69 169 71 164 75 157 73 153 77 132 81 114 96 122 94 134 84 154 79 158 75 165 77 186 71 209 56 215 56 218 59 216 62 220 62 Z" fill="none" stroke="black" stroke-width="1.460049" />
<path d="M197 54 184 54 177 62 153 66 146 71 164 69 182 62 187 56 Z" fill="none" stroke="black" stroke-width="1.152739" />
<path d="M203 52 184 45 178 45 166 54 162 54 159 49 159 56 132 66 122 79 126 79 136 67 145 67 157 58 169 56 179 47 202 54 Z" fill="none" stroke="black" stroke-width="1.355436" />
<path d="M73 56 77 56 85 47 91 45 99 49 99 44 90 43 83 47 80 43 81 48 Z" fill="none" stroke="black" stroke-width="1.070873" />
<path d="M163 46 157 45 154 41 139 53 143 54 155 45 Z" fill="none" stroke="black" stroke-width="1.040686" />
<path d="M192 32 198 37 216 39 211 34 198 34 194 30 Z" fill="none" stroke="black" stroke-width="1.045464" />
<path d="M154 28 148 26 133 34 140 35 Z" fill="none" stroke="black" stroke-width="1.000000" />
<path d="M190 25 191 28 200 26 203 30 215 28 234 39 243 37 258 52 282 69 273 58 243 34 232 34 214 24 Z" fill="none" stroke="black" stroke-width="1.353326" />
<path d="M212 14 197 13 192 19 168 19 166 22 155 17 123 30 121 37 112 39 107 45 123 39 130 41 136 52 136 41 153 35 181 35 188 24 184 24 179 32 151 32 146 37 139 37 134 41 124 37 128 30 157 20 165 24 192 22 198 15 212 17 Z" fill="none" stroke="black" stroke-width="1.788799" />
<path d="M124 7 110 17 94 22 73 41 58 63 45 76 43 85 30 103 30 112 24 122 22 146 17 157 19 230 2 243 0 251 4 307 7 309 9 321 17 329 25 332 36 332 39 329 25 329 11 318 7 307 3 251 5 243 11 241 7 248 7 269 10 270 9 249 12 244 17 249 11 281 12 285 15 280 17 252 20 247 11 239 22 232 20 157 32 104 39 98 47 79 91 28 124 13 127 9 153 7 159 11 194 13 190 9 160 9 155 6 157 3 209 7 218 15 225 15 234 24 249 32 259 43 264 43 291 70 297 85 312 106 314 121 321 136 327 172 319 247 316 249 329 260 331 286 321 302 319 330 309 342 291 347 287 366 278 381 274 402 274 449 280 478 277 483 254 485 280 486 282 475 276 448 276 403 280 384 289 369 291 352 298 347 307 347 319 337 323 303 333 287 332 258 321 249 329 171 314 103 297 78 293 67 269 43 262 41 244 24 226 13 221 13 216 7 173 0 157 0 138 7 Z" fill="none" stroke="black" stroke-width="6.000000" />

<path d="M0 0 11 0 11 16 0 16 0 0 Z" fill="rgba(0,0,0,0.5)" stroke="none" />
<path d="M11 0 22 0 22 16 11 16 11 0 Z" fill="rgba(0,0,0,0.5)" stroke="none" />
<path d="M22 0 33 0 33 16 22 16 22 0 Z" fill="rgba(0,0,0,0.5)" stroke="none" />
<path d="M33 0 44 0 44 16 33 16 33 0 Z" fill="rgba(0,0,0,0.5)" stroke="none" />
<path d="M44 0 55 0 55 16 44 16 44 0 Z" fill="rgba(0,0,0,0.5)" stroke="none" />
<path d="M55 0 66 0 66 16 55 16 55 0 Z" fill="rgba(0,0,0,0.5)" stroke="none" />
<path d="M66 0 77 0 77 16 66 16 66 0 Z" fill="rgba(0,0,0,0.5)" stroke="none" />
<path d="M77 0 88 0 88 16 77 16 77 0 Z" fill="rgba(0,0,0,0.5)" stroke="none" />
<path d="M88 0 99 0 99 16 88 16 88 0 Z" fill="rgba(0,0,0,0.5)" stroke="none" />
<path d="M99 0 110 0 110 16 99 16 99 0 Z" fill="rgba(5,5,5,0.5)" stroke="none" />
<path d="M110 0 121 0 121 16 110 16 110 0 Z" fill="rgba(9,9,9,0.5)" stroke="none" />
<path d="M121 0 132 0 132 16 121 16 121 0 Z" fill="rgba(2,2,2,0.5)" stroke="none" />
<path d="M132 0 143 0 143 16 132 16 132 0 Z" fill="rgba(0,0,0,0.5)" stroke="none" />
<path d="M143 0 154 0 154 16 143 16 143 0 Z" fill="rgba(0,0,0,0.5)" stroke="none" />
<path d="M154 0 165 0 165 16 154 16 154 0 Z" fill="rgba(0,0,0,0.5)" stroke="none" />
<path d="M165 0 176 0 176 16 165 16 165 0 Z" fill="rgba(0,0,0,0.5)" stroke="none" />
<path d="M176 0 187 0 187 16 176 16 176 0 Z" fill="rgba(0,0,0,0.5)" stroke="none" />
<path d="M187 0 198 0 198 16 187 16 187 0 Z" fill="rgba(0,0,0,0.5)" stroke="none" />
<path d="M198 0 209 0 209 16 198 16 198 0 Z" fill="rgba(0,0,0,0.5)" stroke="none" />
<path d="M209 0 220 0 220 16 209 16 209 0 Z" fill="rgba(0,0,0,0.5)" stroke="none" />
<path d="M0 16 11 16 11 33 0 33 0 16 Z" fill="rgba(0,0,0,0.5)" stroke="none" />
<path d="M11 16 22 16 22 33 11 33 11 16 Z" fill="rgba(0,0,0,0.5)" stroke="none" />
<path d="M22 16 33 16 33 33 22 33 22 16 Z" fill="rgba(0,0,0,0.5)" stroke="none" />
<path d="M33 16 44 16 44 33 33 33 33 16 Z" fill="rgba(0,0,0,0.5)" stroke="none" />
<path d="M44 16 55 16 55 33 44 33 44 16 Z" fill="rgba(0,0,0,0.5)" stroke="none" />
<path d="M55 16 66 16 66 33 55 33 55 16 Z" fill="rgba(0,0,0,0.5)" stroke="none" />
<path d="M66 16 77 16 77 33 66 33 66 16 Z" fill="rgba(1,1,1,0.5)" stroke="none" />
<path d="M77 16 88 16 88 33 77 33 77 16 Z" fill="rgba(34,34,34,0.5)" stroke="none" />
<path d="M88 16 99 16 99 33 88 33 88 16 Z" fill="rgba(56,56,56,0.5)" stroke="none" />
<path d="M99 16 110 16 110 33 99 33 99 16 Z" fill="rgba(55,55,55,0.5)" stroke="none" />
<path d="M110 16 121 16 121 33 110 33 110 16 Z" fill="rgba(71,71,71,0.5)" stroke="none" />
<path d="M121 16 132 16 132 33 121 33 121 16 Z" fill="rgba(94,94,94,0.5)" stroke="none" />
<path d="M132 16 143 16 143 33 132 33 132 16 Z" fill="rgba(108,108,108,0.5)" stroke="none" />
<path d="M143 16 154 16 154 33 143 33 143 16 Z" fill="rgba(81,81,81,0.5)" stroke="none" />
<path d="M154 16 165 16 165 33 154 33 154 16 Z" fill="rgba(0,0,0,0.5)" stroke="none" />
<path d="M165 16 176 16 176 33 165 33 165 16 Z" fill="rgba(0,0,0,0.5)" stroke="none" />
<path d="M176 16 187 16 187 33 176 33 176 16 Z" fill="rgba(0,0,0,0.5)" stroke="none" />
<path d="M187 16 198 16 198 33 187 33 187 16 Z" fill="rgba(0,0,0,0.5)" stroke="none" />
<path d="M198 16 209 16 209 33 198 33 198 16 Z" fill="rgba(0,0,0,0.5)" stroke="none" />
<path d="M209 16 220 16 220 33 209 33 209 16 Z" fill="rgba(0,0,0,0.5)" stroke="none" />
<path d="M0 33 11 33 11 50 0 50 0 33 Z" fill="rgba(0,0,0,0.5)" stroke="none" />
<path d="M11 33 22 33 22 50 11 50 11 33 Z" fill="rgba(0,0,0,0.5)" stroke="none" />
<path d="M22 33 33 33 33 50 22 50 22 33 Z" fill="rgba(0,0,0,0.5)" stroke="none" />
<path d="M33 33 44 33 44 50 33 50 33 33 Z" fill="rgba(0,0,0,0.5)" stroke="none" />
<path d="M44 33 55 33 55 50 44 50 44 33 Z" fill="rgba(0,0,0,0.5)" stroke="none" />
<path d="M55 33 66 33 66 50 55 50 55 33 Z" fill="rgba(0,0,0,0.5)" stroke="none" />
<path d="M66 33 77 33 77 50 66 50 66 33 Z" fill="rgba(59,59,59,0.5)" stroke="none" />
<path d="M77 33 88 33 88 50 77 50 77 33 Z" fill="rgba(86,86,86,0.5)" stroke="none" />
<path d="M88 33 99 33 99 50 88 50 88 33 Z" fill="rgba(80,80,80,0.5)" stroke="none" />
<path d="M99 33 110 33 110 50 99 50 99 33 Z" fill="rgba(88,88,88,0.5)" stroke="none" />
<path d="M110 33 121 33 121 50 110 50 110 33 Z" fill="rgba(108,108,108,0.5)" stroke="none" />
<path d="M121 33 132 33 132 50 121 50 121 33 Z" fill="rgba(121,121,121,0.5)" stroke="none" />
<path d="M132 33 143 33 143 50 132 50 132 33 Z" fill="rgba(110,110,110,0.5)" stroke="none" />
<path d="M143 33 154 33 154 50 143 50 143 33 Z" fill="rgba(118,118,118,0.5)" stroke="none" />
<path d="M154 33 165 33 165 50 154 50 154 33 Z" fill="rgba(95,95,95,0.5)" stroke="none" />
<path d="M165 33 176 33 176 50 165 50 165 33 Z" fill="rgba(0,0,0,0.5)" stroke="none" />
<path d="M176 33 187 33 187 50 176 50 176 33 Z" fill="rgba(0,0,0,0.5)" stroke="none" />
<path d="M187 33 198 33 198 50 187 50 187 33 Z" fill="rgba(0,0,0,0.5)" stroke="none" />
<path d="M198 33 209 33 209 50 198 50 198 33 Z" fill="rgba(0,0,0,0.5)" stroke="none" />
<path d="M209 33 220 33 220 50 209 50 209 33 Z" fill="rgba(0,0,0,0.5)" stroke="none" />
<path d="M0 50 11 50 11 67 0 67 0 50 Z" fill="rgba(0,0,0,0.5)" stroke="none" />
<path d="M11 50 22 50 22 67 11 67 11 50 Z" fill="rgba(0,0,0,0.5)" stroke="none" />
<path d="M22 50 33 50 33 67 22 67 22 50 Z" fill="rgba(0,0,0,0.5)" stroke="none" />
<path d="M33 50 44 50 44 67 33 67 33 50 Z" fill="rgba(0,0,0,0.5)" stroke="none" />
<path d="M44 50 55 50 55 67 44 67 44 50 Z" fill="rgba(0,0,0,0.5)" stroke="none" />
<path d="M55 50 66 50 66 67 55 67 55 50 Z" fill="rgba(69,69,69,0.5)" stroke="none" />
<path d="M66 50 77 50 77 67 66 67 66 50 Z" fill="rgba(103,103,103,0.5)" stroke="none" />
<path d="M77 50 88 50 88 67 77 67 77 50 Z" fill="rgba(98,98,98,0.5)" stroke="none" />
<path d="M88 50 99 50 99 67 88 67 88 50 Z" fill="rgba(114,114,114,0.5)" stroke="none" />
<path d="M99 50 110 50 110 67 99 67 99 50 Z" fill="rgba(136,136,136,0.5)" stroke="none" />
<path d="M110 50 121 50 121 67 110 67 110 50 Z" fill="rgba(153,153,153,0.5)" stroke="none" />
<path d="M121 50 132 50 132 67 121 67 121 50 Z" fill="rgba(175,175,175,0.5)" stroke="none" />
<path d="M132 50 143 50 143 67 132 67 132 50 Z" fill="rgba(159,159,159,0.5)" stroke="none" />
<path d="M143 50 154 50 154 67 143 67 143 50 Z" fill="rgba(160,160,160,0.5)" stroke="none" />
<path d="M154 50 165 50 165 67 154 67 154 50 Z" fill="rgba(145,145,145,0.5)" stroke="none" />
<path d="M165 50 176 50 176 67 165 67 165 50 Z" fill="rgba(71,71,71,0.5)" stroke="none" />
<path d="M176 50 187 50 187 67 176 67 176 50 Z" fill="rgba(0,0,0,0.5)" stroke="none" />
<path d="M187 50 198 50 198 67 187 67 187 50 Z" fill="rgba(0,0,0,0.5)" stroke="none" />
<path d="M198 50 209 50 209 67 198 67 198 50 Z" fill="rgba(0,0,0,0.5)" stroke="none" />
<path d="M209 50 220 50 220 67 209 67 209 50 Z" fill="rgba(0,0,0,0.5)" stroke="none" />
<path d="M0 67 11 67 11 84 0 84 0 67 Z" fill="rgba(0,0,0,0.5)" stroke="none" />
<path d="M11 67 22 67 22 84 11 84 11 67 Z" fill="rgba(0,0,0,0.5)" stroke="none" />
<path d="M22 67 33 67 33 84 22 84 22 67 Z" fill="rgba(0,0,0,0.5)" stroke="none" />
<path d="M33 67 44 67 44 84 33 84 33 67 Z" fill="rgba(0,0,0,0.5)" stroke="none" />
<path d="M44 67 55 67 55 84 44 84 44 67 Z" fill="rgba(51,51,51,0.5)" stroke="none" />
<path d="M55 67 66 67 66 84 55 84 55 67 Z" fill="rgba(124,124,124,0.5)" stroke="none" />
<path d="M66 67 77 67 77 84 66 84 66 67 Z" fill="rgba(161,161,161,0.5)" stroke="none" />
<path d="M77 67 88 67 88 84 77 84 77 67 Z" fill="rgba(170,170,170,0.5)" stroke="none" />
<path d="M88 67 99 67 99 84 88 84 88 67 Z" fill="rgba(184,184,184,0.5)" stroke="none" />
<path d="M99 67 110 67 110 84 99 84 99 67 Z" fill="rgba(198,198,198,0.5)" stroke="none" />
<path d="M110 67 121 67 121 84 110 84 110 67 Z" fill="rgba(199,199,199,0.5)" stroke="none" />
<path d="M121 67 132 67 132 84 121 84 121 67 Z" fill="rgba(198,198,198,0.5)" stroke="none" />
<path d="M132 67 143 67 143 84 132 84 132 67 Z" fill="rgba(201,201,201,0.5)" stroke="none" />
<path d="M143 67 154 67 154 84 143 84 143 67 Z" fill="rgba(204,204,204,0.5)" stroke="none" />
<path d="M154 67 165 67 165 84 154 84 154 67 Z" fill="rgba(193,193,193,0.5)" stroke="none" />
<path d="M165 67 176 67 176 84 165 84 165 67 Z" fill="rgba(148,148,148,0.5)" stroke="none" />
<path d="M176 67 187 67 187 84 176 84 176 67 Z" fill="rgba(13,13,13,0.5)" stroke="none" />
<path d="M187 67 198 67 198 84 187 84 187 67 Z" fill="rgba(0,0,0,0.5)" stroke="none" />
<path d="M198 67 209 67 209 84 198 84 198 67 Z" fill="rgba(0,0,0,0.5)" stroke="none" />
<path d="M209 67 220 67 220 84 209 84 209 67 Z" fill="rgba(0,0,0,0.5)" stroke="none" />
<path d="M0 84 11 84 11 101 0 101 0 84 Z" fill="rgba(0,0,0,0.5)" stroke="none" />
<path d="M11 84 22 84 22 101 11 101 11 84 Z" fill="rgba(0,0,0,0.5)" stroke="none" />
<path d="M22 84 33 84 33 101 22 101 22 84 Z" fill="rgba(0,0,0,0.5)" stroke="none" />
<path d="M33 84 44 84 44 101 33 101 33 84 Z" fill="rgba(0,0,0,0.5)" stroke="none" />
<path d="M44 84 55 84 55 101 44 101 44 84 Z" fill="rgba(96,96,96,0.5)" stroke="none" />
<path d="M55 84 66 84 66 101 55 101 55 84 Z" fill="rgba(153,153,153,0.5)" stroke="none" />
<path d="M66 84 77 84 77 101 66 101 66 84 Z" fill="rgba(184,184,184,0.5)" stroke="none" />
<path d="M77 84 88 84 88 101 77 101 77 84 Z" fill="rgba(200,200,200,0.5)" stroke="none" />
<path d="M88 84 99 84 99 101 88 101 88 84 Z" fill="rgba(208,208,208,0.5)" stroke="none" />
<path d="M99 84 110 84 110 101 99 101 99 84 Z" fill="rgba(215,215,215,0.5)" stroke="none" />
<path d="M110 84 121 84 121 101 110 101 110 84 Z" fill="rgba(216,216,216,0.5)" stroke="none" />
<path d="M121 84 132 84 132 101 121 101 121 84 Z" fill="rgba(212,212,212,0.5)" stroke="none" />
<path d="M132 84 143 84 143 101 132 101 132 84 Z" fill="rgba(215,215,215,0.5)" stroke="none" />
<path d="M143 84 154 84 154 101 143 101 143 84 Z" fill="rgba(217,217,217,0.5)" stroke="none" />
<path d="M154 84 165 84 165 101 154 101 154 84 Z" fill="rgba(212,212,212,0.5)" stroke="none" />
<path d="M165 84 176 84 176 101 165 101 165 84 Z" fill="rgba(188,188,188,0.5)" stroke="none" />
<path d="M176 84 187 84 187 101 176 101 176 84 Z" fill="rgba(97,97,97,0.5)" stroke="none" />
<path d="M187 84 198 84 198 101 187 101 187 84 Z" fill="rgba(0,0,0,0.5)" stroke="none" />
<path d="M198 84 209 84 209 101 198 101 198 84 Z" fill="rgba(0,0,0,0.5)" stroke="none" />
<path d="M209 84 220 84 220 101 209 101 209 84 Z" fill="rgba(0,0,0,0.5)" stroke="none" />
<path d="M0 101 11 101 11 118 0 118 0 101 Z" fill="rgba(0,0,0,0.5)" stroke="none" />
<path d="M11 101 22 101 22 118 11 118 11 101 Z" fill="rgba(0,0,0,0.5)" stroke="none" />
<path d="M22 101 33 101 33 118 22 118 22 101 Z" fill="rgba(0,0,0,0.5)" stroke="none" />
<path d="M33 101 44 101 44 118 33 118 33 101 Z" fill="rgba(0,0,0,0.5)" stroke="none" />
<path d="M44 101 55 101 55 118 44 118 44 101 Z" fill="rgba(106,106,106,0.5)" stroke="none" />
<path d="M55 101 66 101 66 118 55 118 55 101 Z" fill="rgba(157,157,157,0.5)" stroke="none" />
<path d="M66 101 77 101 77 118 66 118 66 101 Z" fill="rgba(181,181,181,0.5)" stroke="none" />
<path d="M77 101 88 101 88 118 77 118 77 101 Z" fill="rgba(198,198,198,0.5)" stroke="none" />
<path d="M88 101 99 101 99 118 88 118 88 101 Z" fill="rgba(208,208,208,0.5)" stroke="none" />
<path d="M99 101 110 101 110 118 99 118 99 101 Z" fill="rgba(218,218,218,0.5)" stroke="none" />
<path d="M110 101 121 101 121 118 110 118 110 101 Z" fill="rgba(225,225,225,0.5)" stroke="none" />
<path d="M121 101 132 101 132 118 121 118 121 101 Z" fill="rgba(226,226,226,0.5)" stroke="none" />
<path d="M132 101 143 101 143 118 132 118 132 101 Z" fill="rgba(223,223,223,0.5)" stroke="none" />
<path d="M143 101 154 101 154 118 143 118 143 101 Z" fill="rgba(218,218,218,0.5)" stroke="none" />
<path d="M154 101 165 101 165 118 154 118 154 101 Z" fill="rgba(213,213,213,0.5)" stroke="none" />
<path d="M165 101 176 101 176 118 165 118 165 101 Z" fill="rgba(196,196,196,0.5)" stroke="none" />
<path d="M176 101 187 101 187 118 176 118 176 101 Z" fill="rgba(170,170,170,0.5)" stroke="none" />
<path d="M187 101 198 101 198 118 187 118 187 101 Z" fill="rgba(0,0,0,0.5)" stroke="none" />
<path d="M198 101 209 101 209 118 198 118 198 101 Z" fill="rgba(0,0,0,0.5)" stroke="none" />
<path d="M209 101 220 101 220 118 209 118 209 101 Z" fill="rgba(0,0,0,0.5)" stroke="none" />
<path d="M0 118 11 118 11 135 0 135 0 118 Z" fill="rgba(0,0,0,0.5)" stroke="none" />
<path d="M11 118 22 118 22 135 11 135 11 118 Z" fill="rgba(0,0,0,0.5)" stroke="none" />
<path d="M22 118 33 118 33 135 22 135 22 118 Z" fill="rgba(0,0,0,0.5)" stroke="none" />
<path d="M33 118 44 118 44 135 33 135 33 118 Z" fill="rgba(0,0,0,0.5)" stroke="none" />
<path d="M44 118 55 118 55 135 44 135 44 118 Z" fill="rgba(98,98,98,0.5)" stroke="none" />
<path d="M55 118 66 118 66 135 55 135 55 118 Z" fill="rgba(146,146,146,0.5)" stroke="none" />
<path d="M66 118 77 118 77 135 66 135 66 118 Z" fill="rgba(138,138,138,0.5)" stroke="none" />
<path d="M77 118 88 118 88 135 77 135 77 118 Z" fill="rgba(150,150,150,0.5)" stroke="none" />
<path d="M88 118 99 118 99 135 88 135 88 118 Z" fill="rgba(158,158,158,0.5)" stroke="none" />
<path d="M99 118 110 118 110 135 99 135 99 118 Z" fill="rgba(170,170,170,0.5)" stroke="none" />
<path d="M110 118 121 118 121 135 110 135 110 118 Z" fill="rgba(205,205,205,0.5)" stroke="none" />
<path d="M121 118 132 118 132 135 121 135 121 118 Z" fill="rgba(209,209,209,0.5)" stroke="none" />
<path d="M132 118 143 118 143 135 132 135 132 118 Z" fill="rgba(169,169,169,0.5)" stroke="none" />
<path d="M143 118 154 118 154 135 143 135 143 118 Z" fill="rgba(139,139,139,0.5)" stroke="none" />
<path d="M154 118 165 118 165 135 154 135 154 118 Z" fill="rgba(161,161,161,0.5)" stroke="none" />
<path d="M165 118 176 118 176 135 165 135 165 118 Z" fill="rgba(188,188,188,0.5)" stroke="none" />
<path d="M176 118 187 118 187 135 176 135 176 118 Z" fill="rgba(181,181,181,0.5)" stroke="none" />
<path d="M187 118 198 118 198 135 187 135 187 118 Z" fill="rgba(0,0,0,0.5)" stroke="none" />
<path d="M198 118 209 118 209 135 198 135 198 118 Z" fill="rgba(0,0,0,0.5)" stroke="none" />
<path d="M209 118 220 118 220 135 209 135 209 118 Z" fill="rgba(0,0,0,0.5)" stroke="none" />
<path d="M0 135 11 135 11 152 0 152 0 135 Z" fill="rgba(0,0,0,0.5)" stroke="none" />
<path d="M11 135 22 135 22 152 11 152 11 135 Z" fill="rgba(0,0,0,0.5)" stroke="none" />
<path d="M22 135 33 135 33 152 22 152 22 135 Z" fill="rgba(0,0,0,0.5)" stroke="none" />
<path d="M33 135 44 135 44 152 33 152 33 135 Z" fill="rgba(0,0,0,0.5)" stroke="none" />
<path d="M44 135 55 135 55 152 44 152 44 135 Z" fill="rgba(94,94,94,0.5)" stroke="none" />
<path d="M55 135 66 135 66 152 55 152 55 135 Z" fill="rgba(136,136,136,0.5)" stroke="none" />
<path d="M66 135 77 135 77 152 66 152 66 135 Z" fill="rgba(103,103,103,0.5)" stroke="none" />
<path d="M77 135 88 135 88 152 77 152 77 135 Z" fill="rgba(89,89,89,0.5)" stroke="none" />
<path d="M88 135 99 135 99 152 88 152 88 135 Z" fill="rgba(94,94,94,0.5)" stroke="none" />
<path d="M99 135 110 135 110 152 99 152 99 135 Z" fill="rgba(116,116,116,0.5)" stroke="none" />
<path d="M110 135 121 135 121 152 110 152 110 135 Z" fill="rgba(169,169,169,0.5)" stroke="none" />
<path d="M121 135 132 135 132 152 121 152 121 135 Z" fill="rgba(186,186,186,0.5)" stroke="none" />
<path d="M132 135 143 135 143 152 132 152 132 135 Z" fill="rgba(115,115,115,0.5)" stroke="none" />
<path d="M143 135 154 135 154 152 143 152 143 135 Z" fill="rgba(84,84,84,0.5)" stroke="none" />
<path d="M154 135 165 135 165 152 154 152 154 135 Z" fill="rgba(122,122,122,0.5)" stroke="none" />
<path d="M165 135 176 135 176 152 165 152 165 135 Z" fill="rgba(173,173,173,0.5)" stroke="none" />
<path d="M176 135 187 135 187 152 176 152 176 135 Z" fill="rgba(172,172,172,0.5)" stroke="none" />
<path d="M187 135 198 135 198 152 187 152 187 135 Z" fill="rgba(0,0,0,0.5)" stroke="none" />
<path d="M198 135 209 135 209 152 198 152 198 135 Z" fill="rgba(0,0,0,0.5)" stroke="none" />
<path d="M209 135 220 135 220 152 209 152 209 135 Z" fill="rgba(0,0,0,0.5)" stroke="none" />
<path d="M0 152 11 152 11 169 0 169 0 152 Z" fill="rgba(0,0,0,0.5)" stroke="none" />
<path d="M11 152 22 152 22 169 11 169 11 152 Z" fill="rgba(0,0,0,0.5)" stroke="none" />
<path d="M22 152 33 152 33 169 22 169 22 152 Z" fill="rgba(0,0,0,0.5)" stroke="none" />
<path d="M33 152 44 152 44 169 33 169 33 152 Z" fill="rgba(0,0,0,0.5)" stroke="none" />
<path d="M44 152 55 152 55 169 44 169 44 152 Z" fill="rgba(97,97,97,0.5)" stroke="none" />
<path d="M55 152 66 152 66 169 55 169 55 152 Z" fill="rgba(148,148,148,0.5)" stroke="none" />
<path d="M66 152 77 152 77 169 66 169 66 152 Z" fill="rgba(139,139,139,0.5)" stroke="none" />
<path d="M77 152 88 152 88 169 77 169 77 152 Z" fill="rgba(119,119,119,0.5)" stroke="none" />
<path d="M88 152 99 152 99 169 88 169 88 152 Z" fill="rgba(116,116,116,0.5)" stroke="none" />
<path d="M99 152 110 152 110 169 99 169 99 152 Z" fill="rgba(126,126,126,0.5)" stroke="none" />
<path d="M110 152 121 152 121 169 110 169 110 152 Z" fill="rgba(154,154,154,0.5)" stroke="none" />
<path d="M121 152 132 152 132 169 121 169 121 152 Z" fill="rgba(186,186,186,0.5)" stroke="none" />
<path d="M132 152 143 152 143 169 132 169 132 152 Z" fill="rgba(140,140,140,0.5)" stroke="none" />
<path d="M143 152 154 152 154 169 143 169 143 152 Z" fill="rgba(130,130,130,0.5)" stroke="none" />
<path d="M154 152 165 152 165 169 154 169 154 152 Z" fill="rgba(140,140,140,0.5)" stroke="none" />
<path d="M165 152 176 152 176 169 165 169 165 152 Z" fill="rgba(172,172,172,0.5)" stroke="none" />
<path d="M176 152 187 152 187 169 176 169 176 152 Z" fill="rgba(156,156,156,0.5)" stroke="none" />
<path d="M187 152 198 152 198 169 187 169 187 152 Z" fill="rgba(0,0,0,0.5)" stroke="none" />
<path d="M198 152 209 152 209 169 198 169 198 152 Z" fill="rgba(0,0,0,0.5)" stroke="none" />
<path d="M209 152 220 152 220 169 209 169 209 152 Z" fill="rgba(0,0,0,0.5)" stroke="none" />
<path d="M0 169 11 169 11 186 0 186 0 169 Z" fill="rgba(0,0,0,0.5)" stroke="none" />
<path d="M11 169 22 169 22 186 11 186 11 169 Z" fill="rgba(0,0,0,0.5)" stroke="none" />
<path d="M22 169 33 169 33 186 22 186 22 169 Z" fill="rgba(0,0,0,0.5)" stroke="none" />
<path d="M33 169 44 169 44 186 33 186 33 169 Z" fill="rgba(21,21,21,0.5)" stroke="none" />
<path d="M44 169 55 169 55 186 44 186 44 169 Z" fill="rgba(110,110,110,0.5)" stroke="none" />
<path d="M55 169 66 169 66 186 55 186 55 169 Z" fill="rgba(167,167,167,0.5)" stroke="none" />
<path d="M66 169 77 169 77 186 66 186 66 169 Z" fill="rgba(189,189,189,0.5)" stroke="none" />
<path d="M77 169 88 169 88 186 77 186 77 169 Z" fill="rgba(195,195,195,0.5)" stroke="none" />
<path d="M88 169 99 169 99 186 88 186 88 169 Z" fill="rgba(182,182,182,0.5)" stroke="none" />
<path d="M99 169 110 169 110 186 99 186 99 169 Z" fill="rgba(159,159,159,0.5)" stroke="none" />
<path d="M110 169 121 169 121 186 110 186 110 169 Z" fill="rgba(171,171,171,0.5)" stroke="none" />
<path d="M121 169 132 169 132 186 121 186 121 169 Z" fill="rgba(204,204,204,0.5)" stroke="none" />
<path d="M132 169 143 169 143 186 132 186 132 169 Z" fill="rgba(190,190,190,0.5)" stroke="none" />
<path d="M143 169 154 169 154 186 143 186 143 169 Z" fill="rgba(184,184,184,0.5)" stroke="none" />
<path d="M154 169 165 169 165 186 154 186 154 169 Z" fill="rgba(177,177,177,0.5)" stroke="none" />
<path d="M165 169 176 169 176 186 165 186 165 169 Z" fill="rgba(187,187,187,0.5)" stroke="none" />
<path d="M176 169 187 169 187 186 176 186 176 169 Z" fill="rgba(145,145,145,0.5)" stroke="none" />
<path d="M187 169 198 169 198 186 187 186 187 169 Z" fill="rgba(0,0,0,0.5)" stroke="none" />
<path d="M198 169 209 169 209 186 198 186 198 169 Z" fill="rgba(0,0,0,0.5)" stroke="none" />
<path d="M209 169 220 169 220 186 209 186 209 169 Z" fill="rgba(0,0,0,0.5)" stroke="none" />
<path d="M0 186 11 186 11 203 0 203 0 186 Z" fill="rgba(0,0,0,0.5)" stroke="none" />
<path d="M11 186 22 186 22 203 11 203 11 186 Z" fill="rgba(0,0,0,0.5)" stroke="none" />
<path d="M22 186 33 186 33 203 22 203 22 186 Z" fill="rgba(0,0,0,0.5)" stroke="none" />
<path d="M33 186 44 186 44 203 33 203 33 186 Z" fill="rgba(72,72,72,0.5)" stroke="none" />
<path d="M44 186 55 186 55 203 44 203 44 186 Z" fill="rgba(132,132,132,0.5)" stroke="none" />
<path d="M55 186 66 186 66 203 55 203 55 186 Z" fill="rgba(163,163,163,0.5)" stroke="none" />
<path d="M66 186 77 186 77 203 66 203 66 186 Z" fill="rgba(193,193,193,0.5)" stroke="none" />
<path d="M77 186 88 186 88 203 77 203 77 186 Z" fill="rgba(212,212,212,0.5)" stroke="none" />
<path d="M88 186 99 186 99 203 88 203 88 186 Z" fill="rgba(186,186,186,0.5)" stroke="none" />
<path d="M99 186 110 186 110 203 99 203 99 186 Z" fill="rgba(147,147,147,0.5)" stroke="none" />
<path d="M110 186 121 186 121 203 110 203 110 186 Z" fill="rgba(166,166,166,0.5)" stroke="none" />
<path d="M121 186 132 186 132 203 121 203 121 186 Z" fill="rgba(202,202,202,0.5)" stroke="none" />
<path d="M132 186 143 186 143 203 132 203 132 186 Z" fill="rgba(209,209,209,0.5)" stroke="none" />
<path d="M143 186 154 186 154 203 143 203 143 186 Z" fill="rgba(218,218,218,0.5)" stroke="none" />
<path d="M154 186 165 186 165 203 154 203 154 186 Z" fill="rgba(212,212,212,0.5)" stroke="none" />
<path d="M165 186 176 186 176 203 165 203 165 186 Z" fill="rgba(193,193,193,0.5)" stroke="none" />
<path d="M176 186 187 186 187 203 176 203 176 186 Z" fill="rgba(156,156,156,0.5)" stroke="none" />
<path d="M187 186 198 186 198 203 187 203 187 186 Z" fill="rgba(0,0,0,0.5)" stroke="none" />
<path d="M198 186 209 186 209 203 198 203 198 186 Z" fill="rgba(0,0,0,0.5)" stroke="none" />
<path d="M209 186 220 186 220 203 209 203 209 186 Z" fill="rgba(0,0,0,0.5)" stroke="none" />
<path d="M0 203 11 203 11 220 0 220 0 203 Z" fill="rgba(0,0,0,0.5)" stroke="none" />
<path d="M11 203 22 203 22 220 11 220 11 203 Z" fill="rgba(0,0,0,0.5)" stroke="none" />
<path d="M22 203 33 203 33 220 22 220 22 203 Z" fill="rgba(0,0,0,0.5)" stroke="none" />
<path d="M33 203 44 203 44 220 33 220 33 203 Z" fill="rgba(110,110,110,0.5)" stroke="none" />
<path d="M44 203 55 203 55 220 44 220 44 203 Z" fill="rgba(143,143,143,0.5)" stroke="none" />
<path d="M55 203 66 203 66 220 55 220 55 203 Z" fill="rgba(147,147,147,0.5)" stroke="none" />
<path d="M66 203 77 203 77 220 66 220 66 203 Z" fill="rgba(176,176,176,0.5)" stroke="none" />
<path d="M77 203 88 203 88 220 77 220 77 203 Z" fill="rgba(205,205,205,0.5)" stroke="none" />
<path d="M88 203 99 203 99 220 88 220 88 203 Z" fill="rgba(175,175,175,0.5)" stroke="none" />
<path d="M99 203 110 203 110 220 99 220 99 203 Z" fill="rgba(123,123,123,0.5)" stroke="none" />
<path d="M110 203 121 203 121 220 110 220 110 203 Z" fill="rgba(129,129,129,0.5)" stroke="none" />
<path d="M121 203 132 203 132 220 121 220 121 203 Z" fill="rgba(161,161,161,0.5)" stroke="none" />
<path d="M132 203 143 203 143 220 132 220 132 203 Z" fill="rgba(213,213,213,0.5)" stroke="none" />
<path d="M143 203 154 203 154 220 143 220 143 203 Z" fill="rgba(224,224,224,0.5)" stroke="none" />
<path d="M154 203 165 203 165 220 154 220 154 203 Z" fill="rgba(204,204,204,0.5)" stroke="none" />
<path d="M165 203 176 203 176 220 165 220 165 203 Z" fill="rgba(183,183,183,0.5)" stroke="none" />
<path d="M176 203 187 203 187 220 176 220 176 203 Z" fill="rgba(181,181,181,0.5)" stroke="none" />
<path d="M187 203 198 203 198 220 187 220 187 203 Z" fill="rgba(2,2,2,0.5)" stroke="none" />
<path d="M198 203 209 203 209 220 198 220 198 203 Z" fill="rgba(0,0,0,0.5)" stroke="none" />
<path d="M209 203 220 203 220 220 209 220 209 203 Z" fill="rgba(0,0,0,0.5)" stroke="none" />
<path d="M0 220 11 220 11 236 0 236 0 220 Z" fill="rgba(0,0,0,0.5)" stroke="none" />
<path d="M11 220 22 220 22 236 11 236 11 220 Z" fill="rgba(0,0,0,0.5)" stroke="none" />
<path d="M22 220 33 220 33 236 22 236 22 220 Z" fill="rgba(0,0,0,0.5)" stroke="none" />
<path d="M33 220 44 220 44 236 33 236 33 220 Z" fill="rgba(101,101,101,0.5)" stroke="none" />
<path d="M44 220 55 220 55 236 44 236 44 220 Z" fill="rgba(134,134,134,0.5)" stroke="none" />
<path d="M55 220 66 220 66 236 55 236 55 220 Z" fill="rgba(140,140,140,0.5)" stroke="none" />
<path d="M66 220 77 220 77 236 66 236 66 220 Z" fill="rgba(155,155,155,0.5)" stroke="none" />
<path d="M77 220 88 220 88 236 77 236 77 220 Z" fill="rgba(182,182,182,0.5)" stroke="none" />
<path d="M88 220 99 220 99 236 88 236 88 220 Z" fill="rgba(185,185,185,0.5)" stroke="none" />
<path d="M99 220 110 220 110 236 99 236 99 220 Z" fill="rgba(181,181,181,0.5)" stroke="none" />
<path d="M110 220 121 220 121 236 110 236 110 220 Z" fill="rgba(196,196,196,0.5)" stroke="none" />
<path d="M121 220 132 220 132 236 121 236 121 220 Z" fill="rgba(201,201,201,0.5)" stroke="none" />
<path d="M132 220 143 220 143 236 132 236 132 220 Z" fill="rgba(197,197,197,0.5)" stroke="none" />
<path d="M143 220 154 220 154 236 143 236 143 220 Z" fill="rgba(207,207,207,0.5)" stroke="none" />
<path d="M154 220 165 220 165 236 154 236 154 220 Z" fill="rgba(187,187,187,0.5)" stroke="none" />
<path d="M165 220 176 220 176 236 165 236 165 220 Z" fill="rgba(179,179,179,0.5)" stroke="none" />
<path d="M176 220 187 220 187 236 176 236 176 220 Z" fill="rgba(209,209,209,0.5)" stroke="none" />
<path d="M187 220 198 220 198 236 187 236 187 220 Z" fill="rgba(0,0,0,0.5)" stroke="none" />
<path d="M198 220 209 220 209 236 198 236 198 220 Z" fill="rgba(0,0,0,0.5)" stroke="none" />
<path d="M209 220 220 220 220 236 209 236 209 220 Z" fill="rgba(0,0,0,0.5)" stroke="none" />
<path d="M0 236 11 236 11 253 0 253 0 236 Z" fill="rgba(0,0,0,0.5)" stroke="none" />
<path d="M11 236 22 236 22 253 11 253 11 236 Z" fill="rgba(0,0,0,0.5)" stroke="none" />
<path d="M22 236 33 236 33 253 22 253 22 236 Z" fill="rgba(0,0,0,0.5)" stroke="none" />
<path d="M33 236 44 236 44 253 33 253 33 236 Z" fill="rgba(33,33,33,0.5)" stroke="none" />
<path d="M44 236 55 236 55 253 44 253 44 236 Z" fill="rgba(89,89,89,0.5)" stroke="none" />
<path d="M55 236 66 236 66 253 55 253 55 236 Z" fill="rgba(130,130,130,0.5)" stroke="none" />
<path d="M66 236 77 236 77 253 66 253 66 236 Z" fill="rgba(149,149,149,0.5)" stroke="none" />
<path d="M77 236 88 236 88 253 77 253 77 236 Z" fill="rgba(167,167,167,0.5)" stroke="none" />
<path d="M88 236 99 236 99 253 88 253 88 236 Z" fill="rgba(161,161,161,0.5)" stroke="none" />
<path d="M99 236 110 236 110 253 99 253 99 236 Z" fill="rgba(123,123,123,0.5)" stroke="none" />
<path d="M110 236 121 236 121 253 110 253 110 236 Z" fill="rgba(107,107,107,0.5)" stroke="none" />
<path d="M121 236 132 236 132 253 121 253 121 236 Z" fill="rgba(126,126,126,0.5)" stroke="none" />
<path d="M132 236 143 236 143 253 132 253 132 236 Z" fill="rgba(173,173,173,0.5)" stroke="none" />
<path d="M143 236 154 236 154 253 143 253 143 236 Z" fill="rgba(194,194,194,0.5)" stroke="none" />
<path d="M154 236 165 236 165 253 154 253 154 236 Z" fill="rgba(183,183,183,0.5)" stroke="none" />
<path d="M165 236 176 236 176 253 165 253 165 236 Z" fill="rgba(181,181,181,0.5)" stroke="none" />
<path d="M176 236 187 236 187 253 176 253 176 236 Z" fill="rgba(192,192,192,0.5)" stroke="none" />
<path d="M187 236 198 236 198 253 187 253 187 236 Z" fill="rgba(0,0,0,0.5)" stroke="none" />
<path d="M198 236 209 236 209 253 198 253 198 236 Z" fill="rgba(0,0,0,0.5)" stroke="none" />
<path d="M209 236 220 236 220 253 209 253 209 236 Z" fill="rgba(0,0,0,0.5)" stroke="none" />
<path d="M0 253 11 253 11 270 0 270 0 253 Z" fill="rgba(0,0,0,0.5)" stroke="none" />
<path d="M11 253 22 253 22 270 11 270 11 253 Z" fill="rgba(0,0,0,0.5)" stroke="none" />
<path d="M22 253 33 253 33 270 22 270 22 253 Z" fill="rgba(0,0,0,0.5)" stroke="none" />
<path d="M33 253 44 253 44 270 33 270 33 253 Z" fill="rgba(0,0,0,0.5)" stroke="none" />
<path d="M44 253 55 253 55 270 44 270 44 253 Z" fill="rgba(0,0,0,0.5)" stroke="none" />
<path d="M55 253 66 253 66 270 55 270 55 253 Z" fill="rgba(92,92,92,0.5)" stroke="none" />
<path d="M66 253 77 253 77 270 66 270 66 253 Z" fill="rgba(139,139,139,0.5)" stroke="none" />
<path d="M77 253 88 253 88 270 77 270 77 253 Z" fill="rgba(154,154,154,0.5)" stroke="none" />
<path d="M88 253 99 253 99 270 88 270 88 253 Z" fill="rgba(184,184,184,0.5)" stroke="none" />
<path d="M99 253 110 253 110 270 99 270 99 253 Z" fill="rgba(192,192,192,0.5)" stroke="none" />
<path d="M110 253 121 253 121 270 110 270 110 253 Z" fill="rgba(181,181,181,0.5)" stroke="none" />
<path d="M121 253 132 253 132 270 121 270 121 253 Z" fill="rgba(186,186,186,0.5)" stroke="none" />
<path d="M132 253 143 253 143 270 132 270 132 253 Z" fill="rgba(202,202,202,0.5)" stroke="none" />
<path d="M143 253 154 253 154 270 143 270 143 253 Z" fill="rgba(188,188,188,0.5)" stroke="none" />
<path d="M154 253 165 253 165 270 154 270 154 253 Z" fill="rgba(176,176,176,0.5)" stroke="none" />
<path d="M165 253 176 253 176 270 165 270 165 253 Z" fill="rgba(147,147,147,0.5)" stroke="none" />
<path d="M176 253 187 253 187 270 176 270 176 253 Z" fill="rgba(1,1,1,0.5)" stroke="none" />
<path d="M187 253 198 253 198 270 187 270 187 253 Z" fill="rgba(0,0,0,0.5)" stroke="none" />
<path d="M198 253 209 253 209 270 198 270 198 253 Z" fill="rgba(0,0,0,0.5)" stroke="none" />
<path d="M209 253 220 253 220 270 209 270 209 253 Z" fill="rgba(0,0,0,0.5)" stroke="none" />
<path d="M0 270 11 270 11 287 0 287 0 270 Z" fill="rgba(0,0,0,0.5)" stroke="none" />
<path d="M11 270 22 270 22 287 11 287 11 270 Z" fill="rgba(0,0,0,0.5)" stroke="none" />
<path d="M22 270 33 270 33 287 22 287 22 270 Z" fill="rgba(0,0,0,0.5)" stroke="none" />
<path d="M33 270 44 270 44 287 33 287 33 270 Z" fill="rgba(0,0,0,0.5)" stroke="none" />
<path d="M44 270 55 270 55 287 44 287 44 270 Z" fill="rgba(0,0,0,0.5)" stroke="none" />
<path d="M55 270 66 270 66 287 55 287 55 270 Z" fill="rgba(80,80,80,0.5)" stroke="none" />
<path d="M66 270 77 270 77 287 66 287 66 270 Z" fill="rgba(132,132,132,0.5)" stroke="none" />
<path d="M77 270 88 270 88 287 77 287 77 270 Z" fill="rgba(152,152,152,0.5)" stroke="none" />
<path d="M88 270 99 270 99 287 88 287 88 270 Z" fill="rgba(181,181,181,0.5)" stroke="none" />
<path d="M99 270 110 270 110 287 99 287 99 270 Z" fill="rgba(200,200,200,0.5)" stroke="none" />
<path d="M110 270 121 270 121 287 110 287 110 270 Z" fill="rgba(209,209,209,0.5)" stroke="none" />
<path d="M121 270 132 270 132 287 121 287 121 270 Z" fill="rgba(217,217,217,0.5)" stroke="none" />
<path d="M132 270 143 270 143 287 132 287 132 270 Z" fill="rgba(203,203,203,0.5)" stroke="none" />
<path d="M143 270 154 270 154 287 143 287 143 270 Z" fill="rgba(182,182,182,0.5)" stroke="none" />
<path d="M154 270 165 270 165 287 154 287 154 270 Z" fill="rgba(165,165,165,0.5)" stroke="none" />
<path d="M165 270 176 270 176 287 165 287 165 270 Z" fill="rgba(31,31,31,0.5)" stroke="none" />
<path d="M176 270 187 270 187 287 176 287 176 270 Z" fill="rgba(0,0,0,0.5)" stroke="none" />
<path d="M187 270 198 270 198 287 187 287 187 270 Z" fill="rgba(0,0,0,0.5)" stroke="none" />
<path d="M198 270 209 270 209 287 198 287 198 270 Z" fill="rgba(0,0,0,0.5)" stroke="none" />
<path d="M209 270 220 270 220 287 209 287 209 270 Z" fill="rgba(0,0,0,0.5)" stroke="none" />
<path d="M0 287 11 287 11 304 0 304 0 287 Z" fill="rgba(0,0,0,0.5)" stroke="none" />
<path d="M11 287 22 287 22 304 11 304 11 287 Z" fill="rgba(0,0,0,0.5)" stroke="none" />
<path d="M22 287 33 287 33 304 22 304 22 287 Z" fill="rgba(0,0,0,0.5)" stroke="none" />
<path d="M33 287 44 287 44 304 33 304 33 287 Z" fill="rgba(0,0,0,0.5)" stroke="none" />
<path d="M44 287 55 287 55 304 44 304 44 287 Z" fill="rgba(0,0,0,0.5)" stroke="none" />
<path d="M55 287 66 287 66 304 55 304 55 287 Z" fill="rgba(79,79,79,0.5)" stroke="none" />
<path d="M66 287 77 287 77 304 66 304 66 287 Z" fill="rgba(112,112,112,0.5)" stroke="none" />
<path d="M77 287 88 287 88 304 77 304 77 287 Z" fill="rgba(105,105,105,0.5)" stroke="none" />
<path d="M88 287 99 287 99 304 88 304 88 287 Z" fill="rgba(125,125,125,0.5)" stroke="none" />
<path d="M99 287 110 287 110 304 99 304 99 287 Z" fill="rgba(161,161,161,0.5)" stroke="none" />
<path d="M110 287 121 287 121 304 110 304 110 287 Z" fill="rgba(178,178,178,0.5)" stroke="none" />
<path d="M121 287 132 287 132 304 121 304 121 287 Z" fill="rgba(183,183,183,0.5)" stroke="none" />
<path d="M132 287 143 287 143 304 132 304 132 287 Z" fill="rgba(179,179,179,0.5)" stroke="none" />
<path d="M143 287 154 287 154 304 143 304 143 287 Z" fill="rgba(158,158,158,0.5)" stroke="none" />
<path d="M154 287 165 287 165 304 154 304 154 287 Z" fill="rgba(126,126,126,0.5)" stroke="none" />
<path d="M165 287 176 287 176 304 165 304 165 287 Z" fill="rgba(0,0,0,0.5)" stroke="none" />
<path d="M176 287 187 287 187 304 176 304 176 287 Z" fill="rgba(0,0,0,0.5)" stroke="none" />
<path d="M187 287 198 287 198 304 187 304 187 287 Z" fill="rgba(0,0,0,0.5)" stroke="none" />
<path d="M198 287 209 287 209 304 198 304 198 287 Z" fill="rgba(0,0,0,0.5)" stroke="none" />
<path d="M209 287 220 287 220 304 209 304 209 287 Z" fill="rgba(0,0,0,0.5)" stroke="none" />
<path d="M0 304 11 304 11 321 0 321 0 304 Z" fill="rgba(0,0,0,0.5)" stroke="none" />
<path d="M11 304 22 304 22 321 11 321 11 304 Z" fill="rgba(0,0,0,0.5)" stroke="none" />
<path d="M22 304 33 304 33 321 22 321 22 304 Z" fill="rgba(0,0,0,0.5)" stroke="none" />
<path d="M33 304 44 304 44 321 33 321 33 304 Z" fill="rgba(0,0,0,0.5)" stroke="none" />
<path d="M44 304 55 304 55 321 44 321 44 304 Z" fill="rgba(0,0,0,0.5)" stroke="none" />
<path d="M55 304 66 304 66 321 55 321 55 304 Z" fill="rgba(84,84,84,0.5)" stroke="none" />
<path d="M66 304 77 304 77 321 66 321 66 304 Z" fill="rgba(119,119,119,0.5)" stroke="none" />
<path d="M77 304 88 304 88 321 77 321 77 304 Z" fill="rgba(101,101,101,0.5)" stroke="none" />
<path d="M88 304 99 304 99 321 88 321 88 304 Z" fill="rgba(86,86,86,0.5)" stroke="none" />
<path d="M99 304 110 304 110 321 99 321 99 304 Z" fill="rgba(81,81,81,0.5)" stroke="none" />
<path d="M110 304 121 304 121 321 110 321 110 304 Z" fill="rgba(88,88,88,0.5)" stroke="none" />
<path d="M121 304 132 304 132 321 121 321 121 304 Z" fill="rgba(99,99,99,0.5)" stroke="none" />
<path d="M132 304 143 304 143 321 132 321 132 304 Z" fill="rgba(123,123,123,0.5)" stroke="none" />
<path d="M143 304 154 304 154 321 143 321 143 304 Z" fill="rgba(153,153,153,0.5)" stroke="none" />
<path d="M154 304 165 304 165 321 154 321 154 304 Z" fill="rgba(165,165,165,0.5)" stroke="none" />
<path d="M165 304 176 304 176 321 165 321 165 304 Z" fill="rgba(0,0,0,0.5)" stroke="none" />
<path d="M176 304 187 304 187 321 176 321 176 304 Z" fill="rgba(0,0,0,0.5)" stroke="none" />
<path d="M187 304 198 304 198 321 187 321 187 304 Z" fill="rgba(0,0,0,0.5)" stroke="none" />
<path d="M198 304 209 304 209 321 198 321 198 304 Z" fill="rgba(0,0,0,0.5)" stroke="none" />
<path d="M209 304 220 304 220 321 209 321 209 304 Z" fill="rgba(0,0,0,0.5)" stroke="none" />
<path d="M0 321 11 321 11 338 0 338 0 321 Z" fill="rgba(0,0,0,0.5)" stroke="none" />
<path d="M11 321 22 321 22 338 11 338 11 321 Z" fill="rgba(0,0,0,0.5)" stroke="none" />
<path d="M22 321 33 321 33 338 22 338 22 321 Z" fill="rgba(0,0,0,0.5)" stroke="none" />
<path d="M33 321 44 321 44 338 33 338 33 321 Z" fill="rgba(0,0,0,0.5)" stroke="none" />
<path d="M44 321 55 321 55 338 44 338 44 321 Z" fill="rgba(0,0,0,0.5)" stroke="none" />
<path d="M55 321 66 321 66 338 55 338 55 321 Z" fill="rgba(88,88,88,0.5)" stroke="none" />
<path d="M66 321 77 321 77 338 66 338 66 321 Z" fill="rgba(151,151,151,0.5)" stroke="none" />
<path d="M77 321 88 321 88 338 77 338 77 321 Z" fill="rgba(143,143,143,0.5)" stroke="none" />
<path d="M88 321 99 321 99 338 88 338 88 321 Z" fill="rgba(128,128,128,0.5)" stroke="none" />
<path d="M99 321 110 321 110 338 99 338 99 321 Z" fill="rgba(129,129,129,0.5)" stroke="none" />
<path d="M110 321 121 321 121 338 110 338 110 321 Z" fill="rgba(142,142,142,0.5)" stroke="none" />
<path d="M121 321 132 321 132 338 121 338 121 321 Z" fill="rgba(164,164,164,0.5)" stroke="none" />
<path d="M132 321 143 321 143 338 132 338 132 321 Z" fill="rgba(183,183,183,0.5)" stroke="none" />
<path d="M143 321 154 321 154 338 143 338 143 321 Z" fill="rgba(196,196,196,0.5)" stroke="none" />
<path d="M154 321 165 321 165 338 154 338 154 321 Z" fill="rgba(185,185,185,0.5)" stroke="none" />
<path d="M165 321 176 321 176 338 165 338 165 321 Z" fill="rgba(0,0,0,0.5)" stroke="none" />
<path d="M176 321 187 321 187 338 176 338 176 321 Z" fill="rgba(0,0,0,0.5)" stroke="none" />
<path d="M187 321 198 321 198 338 187 338 187 321 Z" fill="rgba(0,0,0,0.5)" stroke="none" />
<path d="M198 321 209 321 209 338 198 338 198 321 Z" fill="rgba(0,0,0,0.5)" stroke="none" />
<path d="M209 321 220 321 220 338 209 338 209 321 Z" fill="rgba(0,0,0,0.5)" stroke="none" />
</svg>