<svg width="100%" height="100%" version="1.1" xmlns="http://www.w3.org/2000/svg"> 
<path d="M87 427 109 452 128 463 142 467 186 468 200 464 217 451 203 462 192 464 196 460 188 466 182 464 180 453 179 464 163 464 163 456 158 456 152 467 127 462 111 452 Z" fill="none" stroke="black" stroke-width="1.619193" />
<path d="M49 376 51 383 74 411 80 424 75 412 Z" fill="none" stroke="black" stroke-width="1.078966" />
<path d="M139 362 155 363 157 368 160 368 157 365 161 364 172 369 193 365 217 365 209 367 207 364 193 364 173 368 162 363 Z" fill="none" stroke="black" stroke-width="1.255396" />
<path d="M172 357 177 360 203 357 222 363 224 367 223 362 202 356 188 356 182 360 Z" fill="none" stroke="black" stroke-width="1.155487" />
<path d="M114 353 114 357 119 360 124 360 120 360 115 355 117 353 153 352 156 356 155 352 Z" fill="none" stroke="black" stroke-width="1.085852" />
<path d="M208 343 208 348 210 346 221 352 226 358 230 353 239 362 230 352 227 354 217 351 Z" fill="none" stroke="black" stroke-width="1.087967" />
<path d="M231 330 248 347 245 361 240 360 247 364 247 371 250 370 245 358 248 355 247 350 252 349 242 341 238 333 Z" fill="none" stroke="black" stroke-width="1.169838" />
<path d="M116 324 110 324 91 340 93 342 96 337 98 338 96 352 99 349 97 337 103 330 Z" fill="none" stroke="black" stroke-width="1.103185" />
<path d="M217 320 243 350 243 356 241 346 Z" fill="none" stroke="black" stroke-width="1.045068" />
<path d="M133 313 129 314 123 325 118 325 123 326 116 346 98 353 99 355 112 347 129 344 128 340 122 346 117 346 116 343 123 327 132 320 129 316 Z" fill="none" stroke="black" stroke-width="1.273736" />
<path d="M151 311 148 319 152 334 148 338 147 332 147 339 143 340 148 338 152 342 150 340 153 336 160 338 152 333 149 319 Z" fill="none" stroke="black" stroke-width="1.137972" />
<path d="M224 349 224 342 206 313 212 305 206 310 212 329 201 346 189 333 188 336 179 339 168 335 162 323 167 336 175 339 186 336 194 338 201 352 200 348 204 344 206 349 204 344 214 328 224 344 Z" fill="none" stroke="black" stroke-width="1.532415" />
<path d="M167 298 158 292 147 290 141 292 137 299 128 291 137 300 139 311 135 313 133 327 128 327 133 328 138 317 144 317 145 324 147 322 143 312 142 316 135 317 140 313 137 299 145 299 140 298 142 292 147 290 160 295 155 298 149 293 155 299 160 296 Z" fill="none" stroke="black" stroke-width="1.459276" />
<path d="M144 264 130 281 135 293 132 289 132 279 Z" fill="none" stroke="black" stroke-width="1.031737" />
<path d="M21 263 22 266 30 268 31 272 25 274 23 270 17 269 22 270 24 275 31 274 32 269 Z" fill="none" stroke="black" stroke-width="1.043181" />
<path d="M287 210 287 226 295 218 299 223 298 238 291 255 299 238 300 223 298 218 292 219 289 223 Z" fill="none" stroke="black" stroke-width="1.184704" />
<path d="M285 210 287 259 289 250 284 225 Z" fill="none" stroke="black" stroke-width="1.108293" />
<path d="M75 209 78 211 84 207 92 217 100 220 83 206 Z" fill="none" stroke="black" stroke-width="1.041194" />
<path d="M206 217 213 226 206 219 213 217 222 225 224 221 229 227 242 227 246 225 251 212 256 215 248 224 258 215 265 220 260 224 262 225 268 215 255 207 229 205 227 208 254 207 267 217 265 220 259 214 249 212 247 220 241 226 232 227 224 221 223 209 217 213 217 216 222 209 224 211 223 222 214 217 Z" fill="none" stroke="black" stroke-width="1.703455" />
<path d="M136 210 125 214 125 199 125 210 116 217 108 217 101 211 102 201 86 204 105 217 117 217 Z" fill="none" stroke="black" stroke-width="1.207970" />
<path d="M137 202 120 195 94 196 78 202 82 203 91 197 116 196 128 197 Z" fill="none" stroke="black" stroke-width="1.175782" />
<path d="M73 198 103 191 136 195 144 202 143 210 122 223 111 225 120 225 129 218 138 216 145 203 137 194 128 192 86 192 Z" fill="none" stroke="black" stroke-width="1.431716" />
<path d="M7 189 2 194 0 216 8 239 9 259 15 265 13 284 18 292 24 296 32 296 37 303 37 342 44 365 35 372 29 385 31 426 47 458 60 474 78 491 94 498 80 491 61 473 43 450 36 436 38 433 41 438 39 425 47 376 38 343 37 303 34 296 24 295 14 286 15 264 10 258 9 238 5 234 1 208 3 216 6 198 16 206 7 229 14 209 17 207 21 210 10 198 4 198 2 207 2 196 9 189 15 189 30 198 27 226 14 233 12 239 13 235 28 225 31 197 34 196 26 196 16 189 Z" fill="none" stroke="black" stroke-width="3.191081" />
<path d="M44 366 47 371 36 434 32 429 33 425 36 430 32 416 30 417 30 389 32 390 36 377 44 370 36 376 35 374 Z" fill="none" stroke="black" stroke-width="1.303208" />
<path d="M284 188 267 194 253 190 216 193 253 190 267 195 Z" fill="none" stroke="black" stroke-width="1.194400" />
<path d="M57 183 60 193 63 190 58 187 60 182 87 186 87 182 98 180 134 186 99 180 87 182 76 176 85 180 85 185 65 181 Z" fill="none" stroke="black" stroke-width="1.372837" />
<path d="M72 169 59 173 58 176 63 172 67 176 58 179 70 177 66 172 Z" fill="none" stroke="black" stroke-width="1.047298" />
<path d="M284 180 271 166 256 165 260 169 248 168 245 172 233 175 231 172 234 170 230 171 221 182 229 174 233 176 248 169 261 169 264 166 276 171 282 177 283 185 Z" fill="none" stroke="black" stroke-width="1.312832" />
<path d="M140 164 154 176 152 178 147 172 148 176 156 179 156 185 152 187 155 187 155 175 Z" fill="none" stroke="black" stroke-width="1.070759" />
<path d="M90 164 116 160 137 170 129 163 116 160 Z" fill="none" stroke="black" stroke-width="1.085102" />
<path d="M110 157 103 152 97 152 101 152 104 155 102 157 98 155 78 164 77 162 83 158 92 156 89 155 63 169 74 164 87 163 97 156 Z" fill="none" stroke="black" stroke-width="1.237672" />
<path d="M376 93 387 101 409 107 418 113 420 109 423 111 387 101 Z" fill="none" stroke="black" stroke-width="1.128507" />
<path d="M91 90 93 97 106 106 127 106 114 107 100 102 Z" fill="none" stroke="black" stroke-width="1.081605" />
<path d="M280 83 287 104 284 112 278 112 265 96 280 117 283 117 279 112 287 115 288 129 288 114 285 112 287 102 Z" fill="none" stroke="black" stroke-width="1.244764" />
<path d="M214 69 185 77 161 73 145 103 143 98 137 104 130 105 138 106 133 112 113 115 102 107 102 111 107 115 127 115 126 118 109 120 100 116 108 120 117 120 135 115 149 100 162 74 191 77 Z" fill="none" stroke="black" stroke-width="1.678379" />
<path d="M407 70 420 71 423 75 423 62 418 62 Z" fill="none" stroke="black" stroke-width="1.000000" />
<path d="M229 62 222 64 209 79 207 77 211 73 203 78 206 77 208 80 199 80 211 79 Z" fill="none" stroke="black" stroke-width="1.083562" />
<path d="M281 43 247 53 247 57 270 47 282 47 Z" fill="none" stroke="black" stroke-width="1.091872" />
<path d="M271 38 262 42 256 39 256 43 244 45 236 39 241 46 252 46 258 42 268 42 Z" fill="none" stroke="black" stroke-width="1.098717" />
<path d="M286 32 286 41 290 42 297 52 293 47 294 42 290 42 290 36 290 41 286 40 Z" fill="none" stroke="black" stroke-width="1.045200" />
<path d="M115 28 140 35 148 34 122 31 119 29 122 27 144 31 132 29 130 26 Z" fill="none" stroke="black" stroke-width="1.157730" />
<path d="M156 24 158 26 165 21 176 19 165 19 158 25 158 20 Z" fill="none" stroke="black" stroke-width="1.026762" />
<path d="M258 20 258 23 274 36 274 41 269 45 282 40 281 29 276 31 273 27 278 27 262 17 265 17 268 22 262 19 280 34 278 37 Z" fill="none" stroke="black" stroke-width="1.228724" />
<path d="M230 16 216 11 219 13 214 15 215 19 224 17 225 20 220 23 208 22 211 16 207 19 207 25 204 22 198 23 208 26 218 25 224 21 219 31 Z" fill="none" stroke="black" stroke-width="1.202235" />
<path d="M260 1 252 10 246 2 234 3 224 9 214 6 171 5 158 12 152 21 141 23 104 16 97 37 81 45 82 58 73 58 71 66 57 79 54 99 57 122 52 138 40 154 36 208 30 235 24 243 24 250 31 263 31 246 28 238 31 236 32 219 40 187 41 155 52 140 52 133 58 121 58 113 54 108 58 80 70 68 76 66 72 64 74 58 93 58 85 60 82 51 91 52 84 51 82 47 98 38 106 16 140 24 167 16 170 10 162 18 155 17 172 6 224 9 234 4 246 3 252 10 261 2 269 12 296 33 292 37 299 45 299 54 305 52 310 61 309 84 311 61 305 51 300 53 300 45 294 37 298 34 311 49 319 72 317 111 314 122 307 129 291 129 289 132 289 168 286 183 286 208 295 209 302 217 303 239 290 264 275 332 271 334 265 364 254 390 238 413 234 426 230 426 232 421 228 426 232 428 223 439 223 454 217 469 214 470 215 473 213 472 214 475 188 498 200 491 213 478 223 455 223 440 234 427 259 381 268 356 271 337 276 333 274 328 292 261 301 247 304 234 302 215 296 209 286 206 290 132 293 129 308 129 313 125 320 94 319 64 310 45 Z" fill="none" stroke="black" stroke-width="6.000000" />
<path d="M357 0 357 11 369 28 378 32 407 27 419 19 417 15 420 11 421 20 415 28 414 39 423 46 414 38 415 29 421 22 423 8 419 10 416 0 419 11 401 26 387 29 377 28 368 22 361 10 361 0 360 10 367 21 364 22 358 11 Z" fill="none" stroke="black" stroke-width="1.663832" />
<path d="M370 27 402 28 379 32 Z" fill="none" stroke="black" stroke-width="1.043852" />
<path d="M353 0 348 6 347 13 348 39 346 42 337 41 335 48 342 57 350 59 354 56 372 87 375 116 384 136 402 154 423 165 404 154 384 134 375 114 372 86 356 56 343 57 335 47 339 41 348 42 348 13 Z" fill="none" stroke="black" stroke-width="1.887339" />
</svg>