<svg width="100%" height="100%" version="1.1" xmlns="http://www.w3.org/2000/svg"> 
<path d="M38 464 38 473 48 481 55 494 68 498 67 495 60 496 53 489 49 479 39 472 40 465 44 471 44 468 Z" fill="none" stroke="black" stroke-width="1.364122" />
<path d="M155 455 157 479 151 495 139 488 109 487 99 492 84 493 80 498 111 488 133 488 152 496 157 480 Z" fill="none" stroke="black" stroke-width="1.792795" />
<path d="M160 443 160 489 178 498 161 488 163 466 Z" fill="none" stroke="black" stroke-width="1.352761" />
<path d="M163 428 173 440 209 467 224 472 247 474 285 472 301 467 319 455 338 435 337 433 317 455 301 466 276 473 248 474 231 473 206 464 Z" fill="none" stroke="black" stroke-width="2.410898" />
<path d="M159 424 154 421 151 424 151 428 155 422 157 424 154 429 142 438 Z" fill="none" stroke="black" stroke-width="1.080225" />
<path d="M351 409 346 424 343 451 345 460 339 468 310 482 255 498 276 495 281 491 324 478 340 469 346 461 344 451 Z" fill="none" stroke="black" stroke-width="2.022632" />
<path d="M331 403 329 406 332 413 324 428 328 427 335 411 331 411 Z" fill="none" stroke="black" stroke-width="1.118576" />
<path d="M21 393 22 411 38 455 28 419 23 411 Z" fill="none" stroke="black" stroke-width="1.368791" />
<path d="M138 391 144 407 150 413 140 428 144 426 151 412 Z" fill="none" stroke="black" stroke-width="1.161481" />
<path d="M389 377 386 380 380 438 385 390 Z" fill="none" stroke="black" stroke-width="1.365192" />
<path d="M235 354 290 355 312 363 316 371 319 371 312 361 290 354 Z" fill="none" stroke="black" stroke-width="1.429414" />
<path d="M204 362 206 368 226 365 238 371 293 370 302 378 294 369 238 370 226 364 206 366 206 363 234 351 218 359 Z" fill="none" stroke="black" stroke-width="2.010346" />
<path d="M299 343 308 341 317 346 327 359 330 358 318 344 309 341 Z" fill="none" stroke="black" stroke-width="1.175666" />
<path d="M108 332 109 341 105 346 104 396 100 402 92 438 94 451 104 463 105 461 96 453 93 438 104 397 107 370 105 347 112 339 Z" fill="none" stroke="black" stroke-width="2.059256" />
<path d="M251 325 250 335 259 340 265 337 262 328 264 336 255 338 251 334 Z" fill="none" stroke="black" stroke-width="1.143905" />
<path d="M286 289 273 289 270 295 273 298 277 297 280 293 287 292 279 291 274 297 272 291 Z" fill="none" stroke="black" stroke-width="1.155495" />
<path d="M221 289 223 295 226 295 222 291 225 288 237 292 235 297 228 293 237 304 236 298 241 292 230 287 Z" fill="none" stroke="black" stroke-width="1.255724" />
<path d="M105 286 108 292 118 299 128 365 135 386 126 397 129 398 136 386 129 364 119 298 Z" fill="none" stroke="black" stroke-width="1.876132" />
<path d="M291 272 283 271 289 272 294 278 297 291 286 304 280 306 276 302 277 305 288 304 297 292 297 282 Z" fill="none" stroke="black" stroke-width="1.333625" />
<path d="M400 270 404 290 392 315 386 358 378 377 355 415 354 446 359 450 377 442 359 449 355 446 356 416 379 377 388 354 386 349 393 315 405 290 Z" fill="none" stroke="black" stroke-width="2.641538" />
<path d="M225 257 213 272 204 298 208 295 210 279 Z" fill="none" stroke="black" stroke-width="1.179313" />
<path d="M11 239 4 245 1 259 3 254 4 260 0 266 4 263 Z" fill="none" stroke="black" stroke-width="1.090056" />
<path d="M273 232 283 257 293 263 301 273 302 291 298 301 303 291 302 273 296 264 284 256 283 248 Z" fill="none" stroke="black" stroke-width="1.503157" />
<path d="M82 224 57 295 49 308 45 324 47 329 38 339 48 330 46 324 50 310 65 278 Z" fill="none" stroke="black" stroke-width="1.731790" />
<path d="M472 222 469 246 458 288 456 311 449 327 439 381 431 387 426 399 413 400 408 405 405 419 382 446 379 440 382 446 360 475 322 498 331 496 358 479 377 453 398 431 402 422 408 418 410 405 418 400 428 400 430 391 440 382 447 339 456 312 465 259 469 251 Z" fill="none" stroke="black" stroke-width="3.745478" />
<path d="M428 218 420 246 423 261 421 274 409 297 391 351 397 342 403 316 423 270 421 263 424 261 420 255 420 246 429 223 Z" fill="none" stroke="black" stroke-width="2.096676" />
<path d="M98 218 88 227 88 241 88 229 99 218 108 225 109 261 116 282 115 285 109 285 120 289 125 298 127 311 128 301 112 272 109 223 Z" fill="none" stroke="black" stroke-width="2.015563" />
<path d="M295 209 296 215 313 219 304 211 304 204 Z" fill="none" stroke="black" stroke-width="1.070034" />
<path d="M160 211 177 222 161 212 171 206 173 213 181 220 171 204 Z" fill="none" stroke="black" stroke-width="1.264581" />
<path d="M56 203 45 227 Z" fill="none" stroke="black" stroke-width="1.000000" />
<path d="M346 209 337 203 330 203 329 212 321 220 330 219 Z" fill="none" stroke="black" stroke-width="1.090163" />
<path d="M344 209 329 219 326 218 330 214 333 202 Z" fill="none" stroke="black" stroke-width="1.055444" />
<path d="M145 219 147 222 147 217 160 202 183 196 211 199 220 206 223 215 226 214 221 205 212 198 183 195 158 202 157 207 Z" fill="none" stroke="black" stroke-width="1.691990" />
<path d="M309 194 342 197 358 213 342 196 Z" fill="none" stroke="black" stroke-width="1.228033" />
<path d="M158 188 153 188 149 195 135 203 146 199 Z" fill="none" stroke="black" stroke-width="1.062692" />
<path d="M100 181 104 206 91 217 95 217 105 205 Z" fill="none" stroke="black" stroke-width="1.153876" />
<path d="M280 179 286 187 306 188 331 184 345 174 333 183 306 187 287 186 281 178 284 170 Z" fill="none" stroke="black" stroke-width="1.545172" />
<path d="M223 182 218 167 217 170 213 169 219 172 221 180 218 186 199 188 178 185 154 194 178 186 209 189 218 187 Z" fill="none" stroke="black" stroke-width="1.648829" />
<path d="M189 161 210 173 212 180 215 175 201 164 Z" fill="none" stroke="black" stroke-width="1.124173" />
<path d="M310 160 301 162 292 172 292 182 291 176 303 163 Z" fill="none" stroke="black" stroke-width="1.129994" />
<path d="M165 160 154 161 131 181 130 186 131 184 133 189 145 193 131 184 157 161 Z" fill="none" stroke="black" stroke-width="1.397375" />
<path d="M166 158 178 165 197 168 178 164 Z" fill="none" stroke="black" stroke-width="1.113106" />
<path d="M81 145 55 201 58 200 60 191 81 151 Z" fill="none" stroke="black" stroke-width="1.401918" />
<path d="M171 133 169 132 155 148 147 145 150 148 157 148 Z" fill="none" stroke="black" stroke-width="1.073039" />
<path d="M92 127 83 139 88 131 91 131 94 177 89 193 95 178 Z" fill="none" stroke="black" stroke-width="1.346322" />
<path d="M397 118 394 176 391 183 391 224 397 261 391 287 395 297 392 286 398 261 392 223 392 183 397 151 Z" fill="none" stroke="black" stroke-width="2.311751" />
<path d="M153 73 144 97 143 120 154 129 167 131 165 127 158 129 144 120 145 97 149 91 149 79 155 74 Z" fill="none" stroke="black" stroke-width="1.554021" />
<path d="M181 5 161 13 139 36 135 50 127 63 100 86 97 104 85 120 80 138 67 158 35 240 29 248 28 264 19 279 21 296 12 320 15 348 9 370 14 382 9 410 15 422 15 438 32 460 32 476 45 489 47 498 46 488 33 476 33 459 16 438 16 422 9 409 9 402 14 395 15 380 9 367 16 350 13 322 22 296 20 279 31 260 30 248 41 228 52 195 58 187 69 157 81 139 86 121 91 116 90 123 99 112 105 87 131 67 142 47 143 39 166 17 152 28 151 26 163 14 170 15 178 11 Z" fill="none" stroke="black" stroke-width="6.000000" />
<path d="M116 73 117 76 107 83 100 107 92 117 98 105 101 87 Z" fill="none" stroke="black" stroke-width="1.252828" />
<path d="M139 46 140 49 131 65 117 74 118 70 128 65 Z" fill="none" stroke="black" stroke-width="1.117096" />
<path d="M377 0 397 32 416 54 422 73 455 108 466 135 472 170 467 133 455 106 426 76 419 64 417 53 Z" fill="none" stroke="black" stroke-width="2.327235" />
<path d="M354 0 351 4 344 5 341 12 332 13 330 21 339 42 359 57 368 60 376 69 390 102 404 121 407 133 406 147 408 133 405 119 393 104 375 65 343 44 332 25 332 15 342 13 346 6 355 2 Z" fill="none" stroke="black" stroke-width="2.534894" />
<path d="M273 1 293 6 319 6 322 8 318 10 297 10 279 4 297 11 318 11 325 8 330 12 321 5 294 5 279 0 Z" fill="none" stroke="black" stroke-width="1.764948" />

<path d="M0 0 22 0 22 33 0 33 0 0 Z" fill="rgba(0,0,0,0.5)" stroke="none" />
<path d="M22 0 44 0 44 33 22 33 22 0 Z" fill="rgba(0,0,0,0.5)" stroke="none" />
<path d="M44 0 66 0 66 33 44 33 44 0 Z" fill="rgba(0,0,0,0.5)" stroke="none" />
<path d="M66 0 88 0 88 33 66 33 66 0 Z" fill="rgba(0,0,0,0.5)" stroke="none" />
<path d="M88 0 110 0 110 33 88 33 88 0 Z" fill="rgba(0,0,0,0.5)" stroke="none" />
<path d="M110 0 132 0 132 33 110 33 110 0 Z" fill="rgba(0,0,0,0.5)" stroke="none" />
<path d="M132 0 154 0 154 33 132 33 132 0 Z" fill="rgba(1,1,1,0.5)" stroke="none" />
<path d="M154 0 176 0 176 33 154 33 154 0 Z" fill="rgba(4,4,4,0.5)" stroke="none" />
<path d="M176 0 198 0 198 33 176 33 176 0 Z" fill="rgba(39,39,39,0.5)" stroke="none" />
<path d="M198 0 220 0 220 33 198 33 198 0 Z" fill="rgba(25,25,25,0.5)" stroke="none" />
<path d="M220 0 242 0 242 33 220 33 220 0 Z" fill="rgba(15,15,15,0.5)" stroke="none" />
<path d="M242 0 264 0 264 33 242 33 242 0 Z" fill="rgba(18,18,18,0.5)" stroke="none" />
<path d="M264 0 286 0 286 33 264 33 264 0 Z" fill="rgba(29,29,29,0.5)" stroke="none" />
<path d="M286 0 308 0 308 33 286 33 286 0 Z" fill="rgba(50,50,50,0.5)" stroke="none" />
<path d="M308 0 330 0 330 33 308 33 308 0 Z" fill="rgba(201,201,201,0.5)" stroke="none" />
<path d="M330 0 352 0 352 33 330 33 330 0 Z" fill="rgba(96,96,96,0.5)" stroke="none" />
<path d="M352 0 374 0 374 33 352 33 352 0 Z" fill="rgba(7,7,7,0.5)" stroke="none" />
<path d="M374 0 396 0 396 33 374 33 374 0 Z" fill="rgba(0,0,0,0.5)" stroke="none" />
<path d="M396 0 418 0 418 33 396 33 396 0 Z" fill="rgba(0,0,0,0.5)" stroke="none" />
<path d="M418 0 440 0 440 33 418 33 418 0 Z" fill="rgba(0,0,0,0.5)" stroke="none" />
<path d="M0 33 22 33 22 67 0 67 0 33 Z" fill="rgba(0,0,0,0.5)" stroke="none" />
<path d="M22 33 44 33 44 67 22 67 22 33 Z" fill="rgba(0,0,0,0.5)" stroke="none" />
<path d="M44 33 66 33 66 67 44 67 44 33 Z" fill="rgba(0,0,0,0.5)" stroke="none" />
<path d="M66 33 88 33 88 67 66 67 66 33 Z" fill="rgba(0,0,0,0.5)" stroke="none" />
<path d="M88 33 110 33 110 67 88 67 88 33 Z" fill="rgba(0,0,0,0.5)" stroke="none" />
<path d="M110 33 132 33 132 67 110 67 110 33 Z" fill="rgba(6,6,6,0.5)" stroke="none" />
<path d="M132 33 154 33 154 67 132 67 132 33 Z" fill="rgba(21,21,21,0.5)" stroke="none" />
<path d="M154 33 176 33 176 67 154 67 154 33 Z" fill="rgba(15,15,15,0.5)" stroke="none" />
<path d="M176 33 198 33 198 67 176 67 176 33 Z" fill="rgba(33,33,33,0.5)" stroke="none" />
<path d="M198 33 220 33 220 67 198 67 198 33 Z" fill="rgba(31,31,31,0.5)" stroke="none" />
<path d="M220 33 242 33 242 67 220 67 220 33 Z" fill="rgba(30,30,30,0.5)" stroke="none" />
<path d="M242 33 264 33 264 67 242 67 242 33 Z" fill="rgba(26,26,26,0.5)" stroke="none" />
<path d="M264 33 286 33 286 67 264 67 264 33 Z" fill="rgba(13,13,13,0.5)" stroke="none" />
<path d="M286 33 308 33 308 67 286 67 286 33 Z" fill="rgba(63,63,63,0.5)" stroke="none" />
<path d="M308 33 330 33 330 67 308 67 308 33 Z" fill="rgba(188,188,188,0.5)" stroke="none" />
<path d="M330 33 352 33 352 67 330 67 330 33 Z" fill="rgba(206,206,206,0.5)" stroke="none" />
<path d="M352 33 374 33 374 67 352 67 352 33 Z" fill="rgba(18,18,18,0.5)" stroke="none" />
<path d="M374 33 396 33 396 67 374 67 374 33 Z" fill="rgba(0,0,0,0.5)" stroke="none" />
<path d="M396 33 418 33 418 67 396 67 396 33 Z" fill="rgba(0,0,0,0.5)" stroke="none" />
<path d="M418 33 440 33 440 67 418 67 418 33 Z" fill="rgba(0,0,0,0.5)" stroke="none" />
<path d="M0 67 22 67 22 101 0 101 0 67 Z" fill="rgba(0,0,0,0.5)" stroke="none" />
<path d="M22 67 44 67 44 101 22 101 22 67 Z" fill="rgba(0,0,0,0.5)" stroke="none" />
<path d="M44 67 66 67 66 101 44 101 44 67 Z" fill="rgba(0,0,0,0.5)" stroke="none" />
<path d="M66 67 88 67 88 101 66 101 66 67 Z" fill="rgba(0,0,0,0.5)" stroke="none" />
<path d="M88 67 110 67 110 101 88 101 88 67 Z" fill="rgba(0,0,0,0.5)" stroke="none" />
<path d="M110 67 132 67 132 101 110 101 110 67 Z" fill="rgba(13,13,13,0.5)" stroke="none" />
<path d="M132 67 154 67 154 101 132 101 132 67 Z" fill="rgba(20,20,20,0.5)" stroke="none" />
<path d="M154 67 176 67 176 101 154 101 154 67 Z" fill="rgba(53,53,53,0.5)" stroke="none" />
<path d="M176 67 198 67 198 101 176 101 176 67 Z" fill="rgba(96,96,96,0.5)" stroke="none" />
<path d="M198 67 220 67 220 101 198 101 198 67 Z" fill="rgba(67,67,67,0.5)" stroke="none" />
<path d="M220 67 242 67 242 101 220 101 220 67 Z" fill="rgba(95,95,95,0.5)" stroke="none" />
<path d="M242 67 264 67 264 101 242 101 242 67 Z" fill="rgba(98,98,98,0.5)" stroke="none" />
<path d="M264 67 286 67 286 101 264 101 264 67 Z" fill="rgba(73,73,73,0.5)" stroke="none" />
<path d="M286 67 308 67 308 101 286 101 286 67 Z" fill="rgba(36,36,36,0.5)" stroke="none" />
<path d="M308 67 330 67 330 101 308 101 308 67 Z" fill="rgba(37,37,37,0.5)" stroke="none" />
<path d="M330 67 352 67 352 101 330 101 330 67 Z" fill="rgba(177,177,177,0.5)" stroke="none" />
<path d="M352 67 374 67 374 101 352 101 352 67 Z" fill="rgba(207,207,207,0.5)" stroke="none" />
<path d="M374 67 396 67 396 101 374 101 374 67 Z" fill="rgba(19,19,19,0.5)" stroke="none" />
<path d="M396 67 418 67 418 101 396 101 396 67 Z" fill="rgba(0,0,0,0.5)" stroke="none" />
<path d="M418 67 440 67 440 101 418 101 418 67 Z" fill="rgba(0,0,0,0.5)" stroke="none" />
<path d="M0 101 22 101 22 135 0 135 0 101 Z" fill="rgba(0,0,0,0.5)" stroke="none" />
<path d="M22 101 44 101 44 135 22 135 22 101 Z" fill="rgba(0,0,0,0.5)" stroke="none" />
<path d="M44 101 66 101 66 135 44 135 44 101 Z" fill="rgba(0,0,0,0.5)" stroke="none" />
<path d="M66 101 88 101 88 135 66 135 66 101 Z" fill="rgba(0,0,0,0.5)" stroke="none" />
<path d="M88 101 110 101 110 135 88 135 88 101 Z" fill="rgba(12,12,12,0.5)" stroke="none" />
<path d="M110 101 132 101 132 135 110 135 110 101 Z" fill="rgba(4,4,4,0.5)" stroke="none" />
<path d="M132 101 154 101 154 135 132 135 132 101 Z" fill="rgba(113,113,113,0.5)" stroke="none" />
<path d="M154 101 176 101 176 135 154 135 154 101 Z" fill="rgba(155,155,155,0.5)" stroke="none" />
<path d="M176 101 198 101 198 135 176 135 176 101 Z" fill="rgba(166,166,166,0.5)" stroke="none" />
<path d="M198 101 220 101 220 135 198 135 198 101 Z" fill="rgba(170,170,170,0.5)" stroke="none" />
<path d="M220 101 242 101 242 135 220 135 220 101 Z" fill="rgba(167,167,167,0.5)" stroke="none" />
<path d="M242 101 264 101 264 135 242 135 242 101 Z" fill="rgba(160,160,160,0.5)" stroke="none" />
<path d="M264 101 286 101 286 135 264 135 264 101 Z" fill="rgba(148,148,148,0.5)" stroke="none" />
<path d="M286 101 308 101 308 135 286 135 286 101 Z" fill="rgba(118,118,118,0.5)" stroke="none" />
<path d="M308 101 330 101 330 135 308 135 308 101 Z" fill="rgba(27,27,27,0.5)" stroke="none" />
<path d="M330 101 352 101 352 135 330 135 330 101 Z" fill="rgba(157,157,157,0.5)" stroke="none" />
<path d="M352 101 374 101 374 135 352 135 352 101 Z" fill="rgba(186,186,186,0.5)" stroke="none" />
<path d="M374 101 396 101 396 135 374 135 374 101 Z" fill="rgba(106,106,106,0.5)" stroke="none" />
<path d="M396 101 418 101 418 135 396 135 396 101 Z" fill="rgba(8,8,8,0.5)" stroke="none" />
<path d="M418 101 440 101 440 135 418 135 418 101 Z" fill="rgba(0,0,0,0.5)" stroke="none" />
<path d="M0 135 22 135 22 169 0 169 0 135 Z" fill="rgba(0,0,0,0.5)" stroke="none" />
<path d="M22 135 44 135 44 169 22 169 22 135 Z" fill="rgba(0,0,0,0.5)" stroke="none" />
<path d="M44 135 66 135 66 169 44 169 44 135 Z" fill="rgba(0,0,0,0.5)" stroke="none" />
<path d="M66 135 88 135 88 169 66 169 66 135 Z" fill="rgba(0,0,0,0.5)" stroke="none" />
<path d="M88 135 110 135 110 169 88 169 88 135 Z" fill="rgba(7,7,7,0.5)" stroke="none" />
<path d="M110 135 132 135 132 169 110 169 110 135 Z" fill="rgba(15,15,15,0.5)" stroke="none" />
<path d="M132 135 154 135 154 169 132 169 132 135 Z" fill="rgba(152,152,152,0.5)" stroke="none" />
<path d="M154 135 176 135 176 169 154 169 154 135 Z" fill="rgba(181,181,181,0.5)" stroke="none" />
<path d="M176 135 198 135 198 169 176 169 176 135 Z" fill="rgba(183,183,183,0.5)" stroke="none" />
<path d="M198 135 220 135 220 169 198 169 198 135 Z" fill="rgba(186,186,186,0.5)" stroke="none" />
<path d="M220 135 242 135 242 169 220 169 220 135 Z" fill="rgba(184,184,184,0.5)" stroke="none" />
<path d="M242 135 264 135 264 169 242 169 242 135 Z" fill="rgba(171,171,171,0.5)" stroke="none" />
<path d="M264 135 286 135 286 169 264 169 264 135 Z" fill="rgba(161,161,161,0.5)" stroke="none" />
<path d="M286 135 308 135 308 169 286 169 286 135 Z" fill="rgba(150,150,150,0.5)" stroke="none" />
<path d="M308 135 330 135 330 169 308 169 308 135 Z" fill="rgba(56,56,56,0.5)" stroke="none" />
<path d="M330 135 352 135 352 169 330 169 330 135 Z" fill="rgba(25,25,25,0.5)" stroke="none" />
<path d="M352 135 374 135 374 169 352 169 352 135 Z" fill="rgba(185,185,185,0.5)" stroke="none" />
<path d="M374 135 396 135 396 169 374 169 374 135 Z" fill="rgba(208,208,208,0.5)" stroke="none" />
<path d="M396 135 418 135 418 169 396 169 396 135 Z" fill="rgba(20,20,20,0.5)" stroke="none" />
<path d="M418 135 440 135 440 169 418 169 418 135 Z" fill="rgba(0,0,0,0.5)" stroke="none" />
<path d="M0 169 22 169 22 203 0 203 0 169 Z" fill="rgba(0,0,0,0.5)" stroke="none" />
<path d="M22 169 44 169 44 203 22 203 22 169 Z" fill="rgba(0,0,0,0.5)" stroke="none" />
<path d="M44 169 66 169 66 203 44 203 44 169 Z" fill="rgba(0,0,0,0.5)" stroke="none" />
<path d="M66 169 88 169 88 203 66 203 66 169 Z" fill="rgba(85,85,85,0.5)" stroke="none" />
<path d="M88 169 110 169 110 203 88 203 88 169 Z" fill="rgba(20,20,20,0.5)" stroke="none" />
<path d="M110 169 132 169 132 203 110 203 110 169 Z" fill="rgba(61,61,61,0.5)" stroke="none" />
<path d="M132 169 154 169 154 203 132 203 132 169 Z" fill="rgba(71,71,71,0.5)" stroke="none" />
<path d="M154 169 176 169 176 203 154 203 154 169 Z" fill="rgba(172,172,172,0.5)" stroke="none" />
<path d="M176 169 198 169 198 203 176 203 176 169 Z" fill="rgba(186,186,186,0.5)" stroke="none" />
<path d="M198 169 220 169 220 203 198 203 198 169 Z" fill="rgba(194,194,194,0.5)" stroke="none" />
<path d="M220 169 242 169 242 203 220 203 220 169 Z" fill="rgba(194,194,194,0.5)" stroke="none" />
<path d="M242 169 264 169 264 203 242 203 242 169 Z" fill="rgba(185,185,185,0.5)" stroke="none" />
<path d="M264 169 286 169 286 203 264 203 264 169 Z" fill="rgba(170,170,170,0.5)" stroke="none" />
<path d="M286 169 308 169 308 203 286 203 286 169 Z" fill="rgba(143,143,143,0.5)" stroke="none" />
<path d="M308 169 330 169 330 203 308 203 308 169 Z" fill="rgba(97,97,97,0.5)" stroke="none" />
<path d="M330 169 352 169 352 203 330 203 330 169 Z" fill="rgba(26,26,26,0.5)" stroke="none" />
<path d="M352 169 374 169 374 203 352 203 352 169 Z" fill="rgba(192,192,192,0.5)" stroke="none" />
<path d="M374 169 396 169 396 203 374 203 374 169 Z" fill="rgba(190,190,190,0.5)" stroke="none" />
<path d="M396 169 418 169 418 203 396 203 396 169 Z" fill="rgba(200,200,200,0.5)" stroke="none" />
<path d="M418 169 440 169 440 203 418 203 418 169 Z" fill="rgba(18,18,18,0.5)" stroke="none" />
<path d="M0 203 22 203 22 236 0 236 0 203 Z" fill="rgba(0,0,0,0.5)" stroke="none" />
<path d="M22 203 44 203 44 236 22 236 22 203 Z" fill="rgba(0,0,0,0.5)" stroke="none" />
<path d="M44 203 66 203 66 236 44 236 44 203 Z" fill="rgba(0,0,0,0.5)" stroke="none" />
<path d="M66 203 88 203 88 236 66 236 66 203 Z" fill="rgba(106,106,106,0.5)" stroke="none" />
<path d="M88 203 110 203 110 236 88 236 88 203 Z" fill="rgba(25,25,25,0.5)" stroke="none" />
<path d="M110 203 132 203 132 236 110 236 110 203 Z" fill="rgba(115,115,115,0.5)" stroke="none" />
<path d="M132 203 154 203 154 236 132 236 132 203 Z" fill="rgba(86,86,86,0.5)" stroke="none" />
<path d="M154 203 176 203 176 236 154 236 154 203 Z" fill="rgba(150,150,150,0.5)" stroke="none" />
<path d="M176 203 198 203 198 236 176 236 176 203 Z" fill="rgba(198,198,198,0.5)" stroke="none" />
<path d="M198 203 220 203 220 236 198 236 198 203 Z" fill="rgba(206,206,206,0.5)" stroke="none" />
<path d="M220 203 242 203 242 236 220 236 220 203 Z" fill="rgba(205,205,205,0.5)" stroke="none" />
<path d="M242 203 264 203 264 236 242 236 242 203 Z" fill="rgba(191,191,191,0.5)" stroke="none" />
<path d="M264 203 286 203 286 236 264 236 264 203 Z" fill="rgba(129,129,129,0.5)" stroke="none" />
<path d="M286 203 308 203 308 236 286 236 286 203 Z" fill="rgba(78,78,78,0.5)" stroke="none" />
<path d="M308 203 330 203 330 236 308 236 308 203 Z" fill="rgba(80,80,80,0.5)" stroke="none" />
<path d="M330 203 352 203 352 236 330 236 330 203 Z" fill="rgba(30,30,30,0.5)" stroke="none" />
<path d="M352 203 374 203 374 236 352 236 352 203 Z" fill="rgba(165,165,165,0.5)" stroke="none" />
<path d="M374 203 396 203 396 236 374 236 374 203 Z" fill="rgba(204,204,204,0.5)" stroke="none" />
<path d="M396 203 418 203 418 236 396 236 396 203 Z" fill="rgba(213,213,213,0.5)" stroke="none" />
<path d="M418 203 440 203 440 236 418 236 418 203 Z" fill="rgba(19,19,19,0.5)" stroke="none" />
<path d="M0 236 22 236 22 270 0 270 0 236 Z" fill="rgba(0,0,0,0.5)" stroke="none" />
<path d="M22 236 44 236 44 270 22 270 22 236 Z" fill="rgba(0,0,0,0.5)" stroke="none" />
<path d="M44 236 66 236 66 270 44 270 44 236 Z" fill="rgba(93,93,93,0.5)" stroke="none" />
<path d="M66 236 88 236 88 270 66 270 66 236 Z" fill="rgba(109,109,109,0.5)" stroke="none" />
<path d="M88 236 110 236 110 270 88 270 88 236 Z" fill="rgba(25,25,25,0.5)" stroke="none" />
<path d="M110 236 132 236 132 270 110 270 110 236 Z" fill="rgba(55,55,55,0.5)" stroke="none" />
<path d="M132 236 154 236 154 270 132 270 132 236 Z" fill="rgba(85,85,85,0.5)" stroke="none" />
<path d="M154 236 176 236 176 270 154 270 154 236 Z" fill="rgba(96,96,96,0.5)" stroke="none" />
<path d="M176 236 198 236 198 270 176 270 176 236 Z" fill="rgba(110,110,110,0.5)" stroke="none" />
<path d="M198 236 220 236 220 270 198 270 198 236 Z" fill="rgba(188,188,188,0.5)" stroke="none" />
<path d="M220 236 242 236 242 270 220 270 220 236 Z" fill="rgba(179,179,179,0.5)" stroke="none" />
<path d="M242 236 264 236 264 270 242 270 242 236 Z" fill="rgba(130,130,130,0.5)" stroke="none" />
<path d="M264 236 286 236 286 270 264 270 264 236 Z" fill="rgba(127,127,127,0.5)" stroke="none" />
<path d="M286 236 308 236 308 270 286 270 286 236 Z" fill="rgba(141,141,141,0.5)" stroke="none" />
<path d="M308 236 330 236 330 270 308 270 308 236 Z" fill="rgba(77,77,77,0.5)" stroke="none" />
<path d="M330 236 352 236 352 270 330 270 330 236 Z" fill="rgba(30,30,30,0.5)" stroke="none" />
<path d="M352 236 374 236 374 270 352 270 352 236 Z" fill="rgba(177,177,177,0.5)" stroke="none" />
<path d="M374 236 396 236 396 270 374 270 374 236 Z" fill="rgba(209,209,209,0.5)" stroke="none" />
<path d="M396 236 418 236 418 270 396 270 396 236 Z" fill="rgba(202,202,202,0.5)" stroke="none" />
<path d="M418 236 440 236 440 270 418 270 418 236 Z" fill="rgba(18,18,18,0.5)" stroke="none" />
<path d="M0 270 22 270 22 304 0 304 0 270 Z" fill="rgba(0,0,0,0.5)" stroke="none" />
<path d="M22 270 44 270 44 304 22 304 22 270 Z" fill="rgba(0,0,0,0.5)" stroke="none" />
<path d="M44 270 66 270 66 304 44 304 44 270 Z" fill="rgba(148,148,148,0.5)" stroke="none" />
<path d="M66 270 88 270 88 304 66 304 66 270 Z" fill="rgba(78,78,78,0.5)" stroke="none" />
<path d="M88 270 110 270 110 304 88 304 88 270 Z" fill="rgba(15,15,15,0.5)" stroke="none" />
<path d="M110 270 132 270 132 304 110 304 110 270 Z" fill="rgba(142,142,142,0.5)" stroke="none" />
<path d="M132 270 154 270 154 304 132 304 132 270 Z" fill="rgba(100,100,100,0.5)" stroke="none" />
<path d="M154 270 176 270 176 304 154 304 154 270 Z" fill="rgba(69,69,69,0.5)" stroke="none" />
<path d="M176 270 198 270 198 304 176 304 176 270 Z" fill="rgba(68,68,68,0.5)" stroke="none" />
<path d="M198 270 220 270 220 304 198 304 198 270 Z" fill="rgba(128,128,128,0.5)" stroke="none" />
<path d="M220 270 242 270 242 304 220 304 220 270 Z" fill="rgba(152,152,152,0.5)" stroke="none" />
<path d="M242 270 264 270 264 304 242 304 242 270 Z" fill="rgba(104,104,104,0.5)" stroke="none" />
<path d="M264 270 286 270 286 304 264 304 264 270 Z" fill="rgba(82,82,82,0.5)" stroke="none" />
<path d="M286 270 308 270 308 304 286 304 286 270 Z" fill="rgba(135,135,135,0.5)" stroke="none" />
<path d="M308 270 330 270 330 304 308 304 308 270 Z" fill="rgba(143,143,143,0.5)" stroke="none" />
<path d="M330 270 352 270 352 304 330 304 330 270 Z" fill="rgba(32,32,32,0.5)" stroke="none" />
<path d="M352 270 374 270 374 304 352 304 352 270 Z" fill="rgba(175,175,175,0.5)" stroke="none" />
<path d="M374 270 396 270 396 304 374 304 374 270 Z" fill="rgba(196,196,196,0.5)" stroke="none" />
<path d="M396 270 418 270 418 304 396 304 396 270 Z" fill="rgba(207,207,207,0.5)" stroke="none" />
<path d="M418 270 440 270 440 304 418 304 418 270 Z" fill="rgba(18,18,18,0.5)" stroke="none" />
<path d="M0 304 22 304 22 338 0 338 0 304 Z" fill="rgba(0,0,0,0.5)" stroke="none" />
<path d="M22 304 44 304 44 338 22 338 22 304 Z" fill="rgba(91,91,91,0.5)" stroke="none" />
<path d="M44 304 66 304 66 338 44 338 44 304 Z" fill="rgba(151,151,151,0.5)" stroke="none" />
<path d="M66 304 88 304 88 338 66 338 66 304 Z" fill="rgba(124,124,124,0.5)" stroke="none" />
<path d="M88 304 110 304 110 338 88 338 88 304 Z" fill="rgba(38,38,38,0.5)" stroke="none" />
<path d="M110 304 132 304 132 338 110 338 110 304 Z" fill="rgba(134,134,134,0.5)" stroke="none" />
<path d="M132 304 154 304 154 338 132 338 132 304 Z" fill="rgba(158,158,158,0.5)" stroke="none" />
<path d="M154 304 176 304 176 338 154 338 154 304 Z" fill="rgba(179,179,179,0.5)" stroke="none" />
<path d="M176 304 198 304 198 338 176 338 176 304 Z" fill="rgba(167,167,167,0.5)" stroke="none" />
<path d="M198 304 220 304 220 338 198 338 198 304 Z" fill="rgba(114,114,114,0.5)" stroke="none" />
<path d="M220 304 242 304 242 338 220 338 220 304 Z" fill="rgba(124,124,124,0.5)" stroke="none" />
<path d="M242 304 264 304 264 338 242 338 242 304 Z" fill="rgba(127,127,127,0.5)" stroke="none" />
<path d="M264 304 286 304 286 338 264 338 264 304 Z" fill="rgba(171,171,171,0.5)" stroke="none" />
<path d="M286 304 308 304 308 338 286 338 286 304 Z" fill="rgba(160,160,160,0.5)" stroke="none" />
<path d="M308 304 330 304 330 338 308 338 308 304 Z" fill="rgba(136,136,136,0.5)" stroke="none" />
<path d="M330 304 352 304 352 338 330 338 330 304 Z" fill="rgba(43,43,43,0.5)" stroke="none" />
<path d="M352 304 374 304 374 338 352 338 352 304 Z" fill="rgba(173,173,173,0.5)" stroke="none" />
<path d="M374 304 396 304 396 338 374 338 374 304 Z" fill="rgba(196,196,196,0.5)" stroke="none" />
<path d="M396 304 418 304 418 338 396 338 396 304 Z" fill="rgba(207,207,207,0.5)" stroke="none" />
<path d="M418 304 440 304 440 338 418 338 418 304 Z" fill="rgba(19,19,19,0.5)" stroke="none" />
<path d="M0 338 22 338 22 372 0 372 0 338 Z" fill="rgba(0,0,0,0.5)" stroke="none" />
<path d="M22 338 44 338 44 372 22 372 22 338 Z" fill="rgba(156,156,156,0.5)" stroke="none" />
<path d="M44 338 66 338 66 372 44 372 44 338 Z" fill="rgba(129,129,129,0.5)" stroke="none" />
<path d="M66 338 88 338 88 372 66 372 66 338 Z" fill="rgba(122,122,122,0.5)" stroke="none" />
<path d="M88 338 110 338 110 372 88 372 88 338 Z" fill="rgba(73,73,73,0.5)" stroke="none" />
<path d="M110 338 132 338 132 372 110 372 110 338 Z" fill="rgba(145,145,145,0.5)" stroke="none" />
<path d="M132 338 154 338 154 372 132 372 132 338 Z" fill="rgba(180,180,180,0.5)" stroke="none" />
<path d="M154 338 176 338 176 372 154 372 154 338 Z" fill="rgba(192,192,192,0.5)" stroke="none" />
<path d="M176 338 198 338 198 372 176 372 176 338 Z" fill="rgba(170,170,170,0.5)" stroke="none" />
<path d="M198 338 220 338 220 372 198 372 198 338 Z" fill="rgba(143,143,143,0.5)" stroke="none" />
<path d="M220 338 242 338 242 372 220 372 220 338 Z" fill="rgba(157,157,157,0.5)" stroke="none" />
<path d="M242 338 264 338 264 372 242 372 242 338 Z" fill="rgba(80,80,80,0.5)" stroke="none" />
<path d="M264 338 286 338 286 372 264 372 264 338 Z" fill="rgba(173,173,173,0.5)" stroke="none" />
<path d="M286 338 308 338 308 372 286 372 286 338 Z" fill="rgba(176,176,176,0.5)" stroke="none" />
<path d="M308 338 330 338 330 372 308 372 308 338 Z" fill="rgba(160,160,160,0.5)" stroke="none" />
<path d="M330 338 352 338 352 372 330 372 330 338 Z" fill="rgba(54,54,54,0.5)" stroke="none" />
<path d="M352 338 374 338 374 372 352 372 352 338 Z" fill="rgba(160,160,160,0.5)" stroke="none" />
<path d="M374 338 396 338 396 372 374 372 374 338 Z" fill="rgba(186,186,186,0.5)" stroke="none" />
<path d="M396 338 418 338 418 372 396 372 396 338 Z" fill="rgba(213,213,213,0.5)" stroke="none" />
<path d="M418 338 440 338 440 372 418 372 418 338 Z" fill="rgba(19,19,19,0.5)" stroke="none" />
<path d="M0 372 22 372 22 406 0 406 0 372 Z" fill="rgba(0,0,0,0.5)" stroke="none" />
<path d="M22 372 44 372 44 406 22 406 22 372 Z" fill="rgba(168,168,168,0.5)" stroke="none" />
<path d="M44 372 66 372 66 406 44 406 44 372 Z" fill="rgba(139,139,139,0.5)" stroke="none" />
<path d="M66 372 88 372 88 406 66 406 66 372 Z" fill="rgba(112,112,112,0.5)" stroke="none" />
<path d="M88 372 110 372 110 406 88 406 88 372 Z" fill="rgba(82,82,82,0.5)" stroke="none" />
<path d="M110 372 132 372 132 406 110 406 110 372 Z" fill="rgba(154,154,154,0.5)" stroke="none" />
<path d="M132 372 154 372 154 406 132 406 132 372 Z" fill="rgba(188,188,188,0.5)" stroke="none" />
<path d="M154 372 176 372 176 406 154 406 154 372 Z" fill="rgba(192,192,192,0.5)" stroke="none" />
<path d="M176 372 198 372 198 406 176 406 176 372 Z" fill="rgba(165,165,165,0.5)" stroke="none" />
<path d="M198 372 220 372 220 406 198 406 198 372 Z" fill="rgba(175,175,175,0.5)" stroke="none" />
<path d="M220 372 242 372 242 406 220 406 220 372 Z" fill="rgba(192,192,192,0.5)" stroke="none" />
<path d="M242 372 264 372 264 406 242 406 242 372 Z" fill="rgba(175,175,175,0.5)" stroke="none" />
<path d="M264 372 286 372 286 406 264 406 264 372 Z" fill="rgba(189,189,189,0.5)" stroke="none" />
<path d="M286 372 308 372 308 406 286 406 286 372 Z" fill="rgba(174,174,174,0.5)" stroke="none" />
<path d="M308 372 330 372 330 406 308 406 308 372 Z" fill="rgba(164,164,164,0.5)" stroke="none" />
<path d="M330 372 352 372 352 406 330 406 330 372 Z" fill="rgba(45,45,45,0.5)" stroke="none" />
<path d="M352 372 374 372 374 406 352 406 352 372 Z" fill="rgba(155,155,155,0.5)" stroke="none" />
<path d="M374 372 396 372 396 406 374 406 374 372 Z" fill="rgba(190,190,190,0.5)" stroke="none" />
<path d="M396 372 418 372 418 406 396 406 396 372 Z" fill="rgba(80,80,80,0.5)" stroke="none" />
<path d="M418 372 440 372 440 406 418 406 418 372 Z" fill="rgba(6,6,6,0.5)" stroke="none" />
<path d="M0 406 22 406 22 440 0 440 0 406 Z" fill="rgba(0,0,0,0.5)" stroke="none" />
<path d="M22 406 44 406 44 440 22 440 22 406 Z" fill="rgba(165,165,165,0.5)" stroke="none" />
<path d="M44 406 66 406 66 440 44 440 44 406 Z" fill="rgba(162,162,162,0.5)" stroke="none" />
<path d="M66 406 88 406 88 440 66 440 66 406 Z" fill="rgba(114,114,114,0.5)" stroke="none" />
<path d="M88 406 110 406 110 440 88 440 88 406 Z" fill="rgba(150,150,150,0.5)" stroke="none" />
<path d="M110 406 132 406 132 440 110 440 110 406 Z" fill="rgba(144,144,144,0.5)" stroke="none" />
<path d="M132 406 154 406 154 440 132 440 132 406 Z" fill="rgba(175,175,175,0.5)" stroke="none" />
<path d="M154 406 176 406 176 440 154 440 154 406 Z" fill="rgba(197,197,197,0.5)" stroke="none" />
<path d="M176 406 198 406 198 440 176 440 176 406 Z" fill="rgba(163,163,163,0.5)" stroke="none" />
<path d="M198 406 220 406 220 440 198 440 198 406 Z" fill="rgba(141,141,141,0.5)" stroke="none" />
<path d="M220 406 242 406 242 440 220 440 220 406 Z" fill="rgba(181,181,181,0.5)" stroke="none" />
<path d="M242 406 264 406 264 440 242 440 242 406 Z" fill="rgba(117,117,117,0.5)" stroke="none" />
<path d="M264 406 286 406 286 440 264 440 264 406 Z" fill="rgba(152,152,152,0.5)" stroke="none" />
<path d="M286 406 308 406 308 440 286 440 286 406 Z" fill="rgba(163,163,163,0.5)" stroke="none" />
<path d="M308 406 330 406 330 440 308 440 308 406 Z" fill="rgba(155,155,155,0.5)" stroke="none" />
<path d="M330 406 352 406 352 440 330 440 330 406 Z" fill="rgba(56,56,56,0.5)" stroke="none" />
<path d="M352 406 374 406 374 440 352 440 352 406 Z" fill="rgba(205,205,205,0.5)" stroke="none" />
<path d="M374 406 396 406 396 440 374 440 374 406 Z" fill="rgba(195,195,195,0.5)" stroke="none" />
<path d="M396 406 418 406 418 440 396 440 396 406 Z" fill="rgba(22,22,22,0.5)" stroke="none" />
<path d="M418 406 440 406 440 440 418 440 418 406 Z" fill="rgba(0,0,0,0.5)" stroke="none" />
<path d="M0 440 22 440 22 473 0 473 0 440 Z" fill="rgba(14,14,14,0.5)" stroke="none" />
<path d="M22 440 44 440 44 473 22 473 22 440 Z" fill="rgba(122,122,122,0.5)" stroke="none" />
<path d="M44 440 66 440 66 473 44 473 44 440 Z" fill="rgba(170,170,170,0.5)" stroke="none" />
<path d="M66 440 88 440 88 473 66 473 66 440 Z" fill="rgba(104,104,104,0.5)" stroke="none" />
<path d="M88 440 110 440 110 473 88 473 88 440 Z" fill="rgba(145,145,145,0.5)" stroke="none" />
<path d="M110 440 132 440 132 473 110 473 110 440 Z" fill="rgba(120,120,120,0.5)" stroke="none" />
<path d="M132 440 154 440 154 473 132 473 132 440 Z" fill="rgba(159,159,159,0.5)" stroke="none" />
<path d="M154 440 176 440 176 473 154 473 154 440 Z" fill="rgba(150,150,150,0.5)" stroke="none" />
<path d="M176 440 198 440 198 473 176 473 176 440 Z" fill="rgba(139,139,139,0.5)" stroke="none" />
<path d="M198 440 220 440 220 473 198 473 198 440 Z" fill="rgba(155,155,155,0.5)" stroke="none" />
<path d="M220 440 242 440 242 473 220 473 220 440 Z" fill="rgba(136,136,136,0.5)" stroke="none" />
<path d="M242 440 264 440 264 473 242 473 242 440 Z" fill="rgba(131,131,131,0.5)" stroke="none" />
<path d="M264 440 286 440 286 473 264 473 264 440 Z" fill="rgba(134,134,134,0.5)" stroke="none" />
<path d="M286 440 308 440 308 473 286 473 286 440 Z" fill="rgba(157,157,157,0.5)" stroke="none" />
<path d="M308 440 330 440 330 473 308 473 308 440 Z" fill="rgba(128,128,128,0.5)" stroke="none" />
<path d="M330 440 352 440 352 473 330 473 330 440 Z" fill="rgba(47,47,47,0.5)" stroke="none" />
<path d="M352 440 374 440 374 473 352 473 352 440 Z" fill="rgba(213,213,213,0.5)" stroke="none" />
<path d="M374 440 396 440 396 473 374 473 374 440 Z" fill="rgba(209,209,209,0.5)" stroke="none" />
<path d="M396 440 418 440 418 473 396 473 396 440 Z" fill="rgba(18,18,18,0.5)" stroke="none" />
<path d="M418 440 440 440 440 473 418 473 418 440 Z" fill="rgba(0,0,0,0.5)" stroke="none" />
<path d="M0 473 22 473 22 507 0 507 0 473 Z" fill="rgba(105,105,105,0.5)" stroke="none" />
<path d="M22 473 44 473 44 507 22 507 22 473 Z" fill="rgba(162,162,162,0.5)" stroke="none" />
<path d="M44 473 66 473 66 507 44 507 44 473 Z" fill="rgba(159,159,159,0.5)" stroke="none" />
<path d="M66 473 88 473 88 507 66 507 66 473 Z" fill="rgba(94,94,94,0.5)" stroke="none" />
<path d="M88 473 110 473 110 507 88 507 88 473 Z" fill="rgba(135,135,135,0.5)" stroke="none" />
<path d="M110 473 132 473 132 507 110 507 110 473 Z" fill="rgba(97,97,97,0.5)" stroke="none" />
<path d="M132 473 154 473 154 507 132 507 132 473 Z" fill="rgba(122,122,122,0.5)" stroke="none" />
<path d="M154 473 176 473 176 507 154 507 154 473 Z" fill="rgba(164,164,164,0.5)" stroke="none" />
<path d="M176 473 198 473 198 507 176 507 176 473 Z" fill="rgba(140,140,140,0.5)" stroke="none" />
<path d="M198 473 220 473 220 507 198 507 198 473 Z" fill="rgba(119,119,119,0.5)" stroke="none" />
<path d="M220 473 242 473 242 507 220 507 220 473 Z" fill="rgba(121,121,121,0.5)" stroke="none" />
<path d="M242 473 264 473 264 507 242 507 242 473 Z" fill="rgba(103,103,103,0.5)" stroke="none" />
<path d="M264 473 286 473 286 507 264 507 264 473 Z" fill="rgba(154,154,154,0.5)" stroke="none" />
<path d="M286 473 308 473 308 507 286 507 286 473 Z" fill="rgba(149,149,149,0.5)" stroke="none" />
<path d="M308 473 330 473 330 507 308 507 308 473 Z" fill="rgba(94,94,94,0.5)" stroke="none" />
<path d="M330 473 352 473 352 507 330 507 330 473 Z" fill="rgba(108,108,108,0.5)" stroke="none" />
<path d="M352 473 374 473 374 507 352 507 352 473 Z" fill="rgba(209,209,209,0.5)" stroke="none" />
<path d="M374 473 396 473 396 507 374 507 374 473 Z" fill="rgba(224,224,224,0.5)" stroke="none" />
<path d="M396 473 418 473 418 507 396 507 396 473 Z" fill="rgba(20,20,20,0.5)" stroke="none" />
<path d="M418 473 440 473 440 507 418 507 418 473 Z" fill="rgba(0,0,0,0.5)" stroke="none" />
<path d="M0 507 22 507 22 541 0 541 0 507 Z" fill="rgba(21,21,21,0.5)" stroke="none" />
<path d="M22 507 44 507 44 541 22 541 22 507 Z" fill="rgba(167,167,167,0.5)" stroke="none" />
<path d="M44 507 66 507 66 541 44 541 44 507 Z" fill="rgba(162,162,162,0.5)" stroke="none" />
<path d="M66 507 88 507 88 541 66 541 66 507 Z" fill="rgba(86,86,86,0.5)" stroke="none" />
<path d="M88 507 110 507 110 541 88 541 88 507 Z" fill="rgba(136,136,136,0.5)" stroke="none" />
<path d="M110 507 132 507 132 541 110 541 110 507 Z" fill="rgba(88,88,88,0.5)" stroke="none" />
<path d="M132 507 154 507 154 541 132 541 132 507 Z" fill="rgba(120,120,120,0.5)" stroke="none" />
<path d="M154 507 176 507 176 541 154 541 154 507 Z" fill="rgba(170,170,170,0.5)" stroke="none" />
<path d="M176 507 198 507 198 541 176 541 176 507 Z" fill="rgba(188,188,188,0.5)" stroke="none" />
<path d="M198 507 220 507 220 541 198 541 198 507 Z" fill="rgba(184,184,184,0.5)" stroke="none" />
<path d="M220 507 242 507 242 541 220 541 220 507 Z" fill="rgba(155,155,155,0.5)" stroke="none" />
<path d="M242 507 264 507 264 541 242 541 242 507 Z" fill="rgba(174,174,174,0.5)" stroke="none" />
<path d="M264 507 286 507 286 541 264 541 264 507 Z" fill="rgba(162,162,162,0.5)" stroke="none" />
<path d="M286 507 308 507 308 541 286 541 286 507 Z" fill="rgba(140,140,140,0.5)" stroke="none" />
<path d="M308 507 330 507 330 541 308 541 308 507 Z" fill="rgba(75,75,75,0.5)" stroke="none" />
<path d="M330 507 352 507 352 541 330 541 330 507 Z" fill="rgba(159,159,159,0.5)" stroke="none" />
<path d="M352 507 374 507 374 541 352 541 352 507 Z" fill="rgba(196,196,196,0.5)" stroke="none" />
<path d="M374 507 396 507 396 541 374 541 374 507 Z" fill="rgba(50,50,50,0.5)" stroke="none" />
<path d="M396 507 418 507 418 541 396 541 396 507 Z" fill="rgba(3,3,3,0.5)" stroke="none" />
<path d="M418 507 440 507 440 541 418 541 418 507 Z" fill="rgba(0,0,0,0.5)" stroke="none" />
<path d="M0 541 22 541 22 575 0 575 0 541 Z" fill="rgba(107,107,107,0.5)" stroke="none" />
<path d="M22 541 44 541 44 575 22 575 22 541 Z" fill="rgba(177,177,177,0.5)" stroke="none" />
<path d="M44 541 66 541 66 575 44 575 44 541 Z" fill="rgba(177,177,177,0.5)" stroke="none" />
<path d="M66 541 88 541 88 575 66 575 66 541 Z" fill="rgba(95,95,95,0.5)" stroke="none" />
<path d="M88 541 110 541 110 575 88 575 88 541 Z" fill="rgba(144,144,144,0.5)" stroke="none" />
<path d="M110 541 132 541 132 575 110 575 110 541 Z" fill="rgba(134,134,134,0.5)" stroke="none" />
<path d="M132 541 154 541 154 575 132 575 132 541 Z" fill="rgba(122,122,122,0.5)" stroke="none" />
<path d="M154 541 176 541 176 575 154 575 154 541 Z" fill="rgba(163,163,163,0.5)" stroke="none" />
<path d="M176 541 198 541 198 575 176 575 176 541 Z" fill="rgba(191,191,191,0.5)" stroke="none" />
<path d="M198 541 220 541 220 575 198 575 198 541 Z" fill="rgba(198,198,198,0.5)" stroke="none" />
<path d="M220 541 242 541 242 575 220 575 220 541 Z" fill="rgba(190,190,190,0.5)" stroke="none" />
<path d="M242 541 264 541 264 575 242 575 242 541 Z" fill="rgba(187,187,187,0.5)" stroke="none" />
<path d="M264 541 286 541 286 575 264 575 264 541 Z" fill="rgba(160,160,160,0.5)" stroke="none" />
<path d="M286 541 308 541 308 575 286 575 286 541 Z" fill="rgba(102,102,102,0.5)" stroke="none" />
<path d="M308 541 330 541 330 575 308 575 308 541 Z" fill="rgba(131,131,131,0.5)" stroke="none" />
<path d="M330 541 352 541 352 575 330 575 330 541 Z" fill="rgba(193,193,193,0.5)" stroke="none" />
<path d="M352 541 374 541 374 575 352 575 352 541 Z" fill="rgba(38,38,38,0.5)" stroke="none" />
<path d="M374 541 396 541 396 575 374 575 374 541 Z" fill="rgba(3,3,3,0.5)" stroke="none" />
<path d="M396 541 418 541 418 575 396 575 396 541 Z" fill="rgba(0,0,0,0.5)" stroke="none" />
<path d="M418 541 440 541 440 575 418 575 418 541 Z" fill="rgba(0,0,0,0.5)" stroke="none" />
<path d="M0 575 22 575 22 609 0 609 0 575 Z" fill="rgba(11,11,11,0.5)" stroke="none" />
<path d="M22 575 44 575 44 609 22 609 22 575 Z" fill="rgba(188,188,188,0.5)" stroke="none" />
<path d="M44 575 66 575 66 609 44 609 44 575 Z" fill="rgba(173,173,173,0.5)" stroke="none" />
<path d="M66 575 88 575 88 609 66 609 66 575 Z" fill="rgba(91,91,91,0.5)" stroke="none" />
<path d="M88 575 110 575 110 609 88 609 88 575 Z" fill="rgba(154,154,154,0.5)" stroke="none" />
<path d="M110 575 132 575 132 609 110 609 110 575 Z" fill="rgba(92,92,92,0.5)" stroke="none" />
<path d="M132 575 154 575 154 609 132 609 132 575 Z" fill="rgba(104,104,104,0.5)" stroke="none" />
<path d="M154 575 176 575 176 609 154 609 154 575 Z" fill="rgba(109,109,109,0.5)" stroke="none" />
<path d="M176 575 198 575 198 609 176 609 176 575 Z" fill="rgba(175,175,175,0.5)" stroke="none" />
<path d="M198 575 220 575 220 609 198 609 198 575 Z" fill="rgba(194,194,194,0.5)" stroke="none" />
<path d="M220 575 242 575 242 609 220 609 220 575 Z" fill="rgba(179,179,179,0.5)" stroke="none" />
<path d="M242 575 264 575 264 609 242 609 242 575 Z" fill="rgba(159,159,159,0.5)" stroke="none" />
<path d="M264 575 286 575 286 609 264 609 264 575 Z" fill="rgba(134,134,134,0.5)" stroke="none" />
<path d="M286 575 308 575 308 609 286 609 286 575 Z" fill="rgba(75,75,75,0.5)" stroke="none" />
<path d="M308 575 330 575 330 609 308 609 308 575 Z" fill="rgba(118,118,118,0.5)" stroke="none" />
<path d="M330 575 352 575 352 609 330 609 330 575 Z" fill="rgba(164,164,164,0.5)" stroke="none" />
<path d="M352 575 374 575 374 609 352 609 352 575 Z" fill="rgba(15,15,15,0.5)" stroke="none" />
<path d="M374 575 396 575 396 609 374 609 374 575 Z" fill="rgba(0,0,0,0.5)" stroke="none" />
<path d="M396 575 418 575 418 609 396 609 396 575 Z" fill="rgba(0,0,0,0.5)" stroke="none" />
<path d="M418 575 440 575 440 609 418 609 418 575 Z" fill="rgba(0,0,0,0.5)" stroke="none" />
<path d="M0 609 22 609 22 643 0 643 0 609 Z" fill="rgba(0,0,0,0.5)" stroke="none" />
<path d="M22 609 44 609 44 643 22 643 22 609 Z" fill="rgba(119,119,119,0.5)" stroke="none" />
<path d="M44 609 66 609 66 643 44 643 44 609 Z" fill="rgba(167,167,167,0.5)" stroke="none" />
<path d="M66 609 88 609 88 643 66 643 66 609 Z" fill="rgba(100,100,100,0.5)" stroke="none" />
<path d="M88 609 110 609 110 643 88 643 88 609 Z" fill="rgba(127,127,127,0.5)" stroke="none" />
<path d="M110 609 132 609 132 643 110 643 110 609 Z" fill="rgba(114,114,114,0.5)" stroke="none" />
<path d="M132 609 154 609 154 643 132 643 132 609 Z" fill="rgba(85,85,85,0.5)" stroke="none" />
<path d="M154 609 176 609 176 643 154 643 154 609 Z" fill="rgba(153,153,153,0.5)" stroke="none" />
<path d="M176 609 198 609 198 643 176 643 176 609 Z" fill="rgba(107,107,107,0.5)" stroke="none" />
<path d="M198 609 220 609 220 643 198 643 198 609 Z" fill="rgba(156,156,156,0.5)" stroke="none" />
<path d="M220 609 242 609 242 643 220 643 220 609 Z" fill="rgba(144,144,144,0.5)" stroke="none" />
<path d="M242 609 264 609 264 643 242 643 242 609 Z" fill="rgba(118,118,118,0.5)" stroke="none" />
<path d="M264 609 286 609 286 643 264 643 264 609 Z" fill="rgba(122,122,122,0.5)" stroke="none" />
<path d="M286 609 308 609 308 643 286 643 286 609 Z" fill="rgba(88,88,88,0.5)" stroke="none" />
<path d="M308 609 330 609 330 643 308 643 308 609 Z" fill="rgba(35,35,35,0.5)" stroke="none" />
<path d="M330 609 352 609 352 643 330 643 330 609 Z" fill="rgba(16,16,16,0.5)" stroke="none" />
<path d="M352 609 374 609 374 643 352 643 352 609 Z" fill="rgba(1,1,1,0.5)" stroke="none" />
<path d="M374 609 396 609 396 643 374 643 374 609 Z" fill="rgba(0,0,0,0.5)" stroke="none" />
<path d="M396 609 418 609 418 643 396 643 396 609 Z" fill="rgba(0,0,0,0.5)" stroke="none" />
<path d="M418 609 440 609 440 643 418 643 418 609 Z" fill="rgba(0,0,0,0.5)" stroke="none" />
<path d="M0 643 22 643 22 676 0 676 0 643 Z" fill="rgba(0,0,0,0.5)" stroke="none" />
<path d="M22 643 44 643 44 676 22 676 22 643 Z" fill="rgba(10,10,10,0.5)" stroke="none" />
<path d="M44 643 66 643 66 676 44 676 44 643 Z" fill="rgba(107,107,107,0.5)" stroke="none" />
<path d="M66 643 88 643 88 676 66 676 66 643 Z" fill="rgba(115,115,115,0.5)" stroke="none" />
<path d="M88 643 110 643 110 676 88 676 88 643 Z" fill="rgba(64,64,64,0.5)" stroke="none" />
<path d="M110 643 132 643 132 676 110 676 110 643 Z" fill="rgba(122,122,122,0.5)" stroke="none" />
<path d="M132 643 154 643 154 676 132 676 132 643 Z" fill="rgba(72,72,72,0.5)" stroke="none" />
<path d="M154 643 176 643 176 676 154 676 154 643 Z" fill="rgba(163,163,163,0.5)" stroke="none" />
<path d="M176 643 198 643 198 676 176 676 176 643 Z" fill="rgba(179,179,179,0.5)" stroke="none" />
<path d="M198 643 220 643 220 676 198 676 198 643 Z" fill="rgba(182,182,182,0.5)" stroke="none" />
<path d="M220 643 242 643 242 676 220 676 220 643 Z" fill="rgba(179,179,179,0.5)" stroke="none" />
<path d="M242 643 264 643 264 676 242 676 242 643 Z" fill="rgba(152,152,152,0.5)" stroke="none" />
<path d="M264 643 286 643 286 676 264 676 264 643 Z" fill="rgba(56,56,56,0.5)" stroke="none" />
<path d="M286 643 308 643 308 676 286 676 286 643 Z" fill="rgba(44,44,44,0.5)" stroke="none" />
<path d="M308 643 330 643 330 676 308 676 308 643 Z" fill="rgba(5,5,5,0.5)" stroke="none" />
<path d="M330 643 352 643 352 676 330 676 330 643 Z" fill="rgba(0,0,0,0.5)" stroke="none" />
<path d="M352 643 374 643 374 676 352 676 352 643 Z" fill="rgba(0,0,0,0.5)" stroke="none" />
<path d="M374 643 396 643 396 676 374 676 374 643 Z" fill="rgba(0,0,0,0.5)" stroke="none" />
<path d="M396 643 418 643 418 676 396 676 396 643 Z" fill="rgba(0,0,0,0.5)" stroke="none" />
<path d="M418 643 440 643 440 676 418 676 418 643 Z" fill="rgba(0,0,0,0.5)" stroke="none" />
</svg>