<svg width="100%" height="100%" version="1.1" xmlns="http://www.w3.org/2000/svg"> 
<path d="M357 484 341 487 336 493 336 498 338 492 346 485 Z" fill="none" stroke="black" stroke-width="1.071471" />
<path d="M155 482 161 490 177 498 Z" fill="none" stroke="black" stroke-width="1.000000" />
<path d="M345 468 299 498 319 488 Z" fill="none" stroke="black" stroke-width="1.194433" />
<path d="M346 428 343 450 326 465 296 480 260 493 236 498 260 494 324 468 344 452 Z" fill="none" stroke="black" stroke-width="1.914652" />
<path d="M161 427 175 444 200 461 232 471 264 471 294 466 316 453 337 432 335 431 317 450 296 464 275 470 232 471 208 464 196 457 Z" fill="none" stroke="black" stroke-width="2.310717" />
<path d="M404 392 399 394 385 412 379 414 368 429 367 410 372 388 371 380 366 410 366 438 368 431 373 427 376 431 349 464 345 475 308 498 349 473 350 465 374 437 376 429 373 427 381 414 387 412 Z" fill="none" stroke="black" stroke-width="2.481302" />
<path d="M399 359 400 372 384 407 393 396 396 381 401 373 402 362 Z" fill="none" stroke="black" stroke-width="1.289828" />
<path d="M204 358 204 364 225 362 227 365 235 365 214 360 211 363 205 362 207 358 226 351 283 351 299 357 308 357 313 368 315 367 309 356 283 350 262 352 227 349 Z" fill="none" stroke="black" stroke-width="2.024671" />
<path d="M260 322 263 331 260 335 254 336 249 331 251 325 248 329 253 337 264 333 Z" fill="none" stroke="black" stroke-width="1.126821" />
<path d="M384 316 372 369 352 413 351 435 355 437 363 431 355 436 352 434 353 413 372 373 Z" fill="none" stroke="black" stroke-width="1.746497" />
<path d="M103 307 99 382 88 417 87 432 100 451 98 448 102 447 110 452 119 452 150 422 152 416 149 412 149 421 116 451 95 444 87 431 94 396 100 382 Z" fill="none" stroke="black" stroke-width="2.356224" />
<path d="M285 287 270 286 269 293 272 296 285 290 277 289 274 293 270 291 272 287 Z" fill="none" stroke="black" stroke-width="1.136928" />
<path d="M212 292 219 300 228 301 232 294 236 300 234 297 238 291 258 290 239 290 235 286 220 285 220 290 229 295 226 300 217 297 213 290 Z" fill="none" stroke="black" stroke-width="1.457747" />
<path d="M293 281 291 294 282 301 278 297 278 302 287 300 293 294 Z" fill="none" stroke="black" stroke-width="1.098526" />
<path d="M104 278 103 281 118 297 127 362 134 386 145 405 136 418 145 404 130 371 118 292 107 284 Z" fill="none" stroke="black" stroke-width="2.070741" />
<path d="M223 255 213 264 202 296 206 293 210 272 Z" fill="none" stroke="black" stroke-width="1.180223" />
<path d="M279 254 297 271 298 294 302 296 300 276 295 265 Z" fill="none" stroke="black" stroke-width="1.222607" />
<path d="M470 211 447 283 442 310 435 323 432 346 417 355 416 364 403 390 410 381 412 370 417 366 418 356 432 350 434 329 444 305 448 283 465 235 Z" fill="none" stroke="black" stroke-width="2.351756" />
<path d="M293 206 294 208 299 205 301 212 293 210 305 213 301 204 Z" fill="none" stroke="black" stroke-width="1.070557" />
<path d="M160 207 168 215 181 217 169 203 Z" fill="none" stroke="black" stroke-width="1.059118" />
<path d="M196 214 205 210 209 212 214 206 211 207 208 202 200 202 Z" fill="none" stroke="black" stroke-width="1.044232" />
<path d="M340 205 333 200 318 216 329 208 331 202 339 206 328 215 Z" fill="none" stroke="black" stroke-width="1.180018" />
<path d="M206 194 167 193 155 200 167 194 Z" fill="none" stroke="black" stroke-width="1.151298" />
<path d="M280 203 283 215 289 217 281 210 282 202 289 194 298 191 328 192 345 198 350 207 347 198 329 191 292 191 Z" fill="none" stroke="black" stroke-width="1.605282" />
<path d="M219 179 216 183 177 182 158 186 137 197 128 206 126 223 128 208 139 197 156 188 178 183 217 184 Z" fill="none" stroke="black" stroke-width="1.789660" />
<path d="M339 174 326 181 286 183 282 180 284 184 310 184 335 179 Z" fill="none" stroke="black" stroke-width="1.346008" />
<path d="M94 171 102 197 88 210 96 210 106 218 106 249 114 275 108 258 107 217 92 207 103 197 98 176 Z" fill="none" stroke="black" stroke-width="1.830438" />
<path d="M197 162 207 168 220 170 217 166 207 167 Z" fill="none" stroke="black" stroke-width="1.047146" />
<path d="M306 157 301 158 289 170 289 178 289 172 Z" fill="none" stroke="black" stroke-width="1.032206" />
<path d="M394 131 389 141 386 163 385 216 388 227 388 272 396 293 386 316 408 274 412 255 410 243 418 222 423 218 420 212 421 217 409 242 411 254 405 278 397 291 391 282 388 262 386 179 389 146 Z" fill="none" stroke="black" stroke-width="3.004695" />
<path d="M169 125 166 125 167 127 152 142 148 142 154 143 Z" fill="none" stroke="black" stroke-width="1.034027" />
<path d="M87 106 88 151 91 165 79 195 63 221 58 237 65 219 82 192 83 183 92 165 87 131 Z" fill="none" stroke="black" stroke-width="1.888932" />
<path d="M147 79 142 87 140 116 155 123 168 123 156 123 141 116 142 94 Z" fill="none" stroke="black" stroke-width="1.357225" />
<path d="M81 74 61 97 51 120 31 146 22 170 14 179 2 203 2 215 15 221 16 231 14 244 4 262 4 272 11 289 10 334 8 347 4 352 0 395 12 409 15 420 12 429 28 445 31 463 40 471 44 485 54 489 45 484 41 470 32 462 34 459 45 468 58 488 73 497 77 497 76 485 81 482 135 480 143 476 149 480 149 490 156 492 150 488 150 479 143 475 117 481 77 482 74 488 75 497 66 489 58 487 46 466 32 456 28 443 13 428 16 423 13 409 3 398 2 393 12 309 12 286 5 271 5 264 13 250 17 231 16 220 4 215 3 204 14 181 23 171 33 146 52 122 62 99 81 76 86 75 92 79 87 74 Z" fill="none" stroke="black" stroke-width="6.000000" />
<path d="M103 73 97 75 88 96 74 111 62 138 54 147 50 159 33 187 41 178 55 148 63 140 72 116 85 103 93 82 Z" fill="none" stroke="black" stroke-width="1.912306" />
<path d="M327 15 334 38 343 47 366 58 372 64 395 129 408 144 402 133 396 129 384 102 373 63 338 40 Z" fill="none" stroke="black" stroke-width="2.036722" />
<path d="M163 10 139 26 125 56 115 65 109 66 105 71 107 74 110 67 122 62 126 57 137 31 Z" fill="none" stroke="black" stroke-width="1.467900" />
<path d="M327 11 328 13 345 10 358 20 372 21 376 11 382 10 409 38 431 77 456 113 464 137 470 173 468 149 458 115 411 38 383 9 376 9 370 21 362 21 346 9 Z" fill="none" stroke="black" stroke-width="2.837088" />
<path d="M169 4 156 7 145 18 135 23 119 56 98 68 93 75 120 57 127 46 130 33 140 21 147 19 158 7 Z" fill="none" stroke="black" stroke-width="1.707272" />
<path d="M282 0 287 5 317 6 324 10 318 5 292 5 Z" fill="none" stroke="black" stroke-width="1.201052" />

<path d="M0 0 21 0 21 32 0 32 0 0 Z" fill="rgba(0,0,0,0.5)" stroke="none" />
<path d="M21 0 42 0 42 32 21 32 21 0 Z" fill="rgba(0,0,0,0.5)" stroke="none" />
<path d="M42 0 63 0 63 32 42 32 42 0 Z" fill="rgba(0,0,0,0.5)" stroke="none" />
<path d="M63 0 84 0 84 32 63 32 63 0 Z" fill="rgba(0,0,0,0.5)" stroke="none" />
<path d="M84 0 105 0 105 32 84 32 84 0 Z" fill="rgba(0,0,0,0.5)" stroke="none" />
<path d="M105 0 126 0 126 32 105 32 105 0 Z" fill="rgba(0,0,0,0.5)" stroke="none" />
<path d="M126 0 147 0 147 32 126 32 126 0 Z" fill="rgba(6,6,6,0.5)" stroke="none" />
<path d="M147 0 168 0 168 32 147 32 147 0 Z" fill="rgba(4,4,4,0.5)" stroke="none" />
<path d="M168 0 189 0 189 32 168 32 168 0 Z" fill="rgba(30,30,30,0.5)" stroke="none" />
<path d="M189 0 210 0 210 32 189 32 189 0 Z" fill="rgba(27,27,27,0.5)" stroke="none" />
<path d="M210 0 231 0 231 32 210 32 210 0 Z" fill="rgba(17,17,17,0.5)" stroke="none" />
<path d="M231 0 252 0 252 32 231 32 231 0 Z" fill="rgba(16,16,16,0.5)" stroke="none" />
<path d="M252 0 273 0 273 32 252 32 252 0 Z" fill="rgba(26,26,26,0.5)" stroke="none" />
<path d="M273 0 294 0 294 32 273 32 273 0 Z" fill="rgba(76,76,76,0.5)" stroke="none" />
<path d="M294 0 315 0 315 32 294 32 294 0 Z" fill="rgba(33,33,33,0.5)" stroke="none" />
<path d="M315 0 336 0 336 32 315 32 315 0 Z" fill="rgba(53,53,53,0.5)" stroke="none" />
<path d="M336 0 357 0 357 32 336 32 336 0 Z" fill="rgba(33,33,33,0.5)" stroke="none" />
<path d="M357 0 378 0 378 32 357 32 357 0 Z" fill="rgba(0,0,0,0.5)" stroke="none" />
<path d="M378 0 399 0 399 32 378 32 378 0 Z" fill="rgba(0,0,0,0.5)" stroke="none" />
<path d="M399 0 420 0 420 32 399 32 399 0 Z" fill="rgba(0,0,0,0.5)" stroke="none" />
<path d="M0 32 21 32 21 64 0 64 0 32 Z" fill="rgba(0,0,0,0.5)" stroke="none" />
<path d="M21 32 42 32 42 64 21 64 21 32 Z" fill="rgba(0,0,0,0.5)" stroke="none" />
<path d="M42 32 63 32 63 64 42 64 42 32 Z" fill="rgba(0,0,0,0.5)" stroke="none" />
<path d="M63 32 84 32 84 64 63 64 63 32 Z" fill="rgba(0,0,0,0.5)" stroke="none" />
<path d="M84 32 105 32 105 64 84 64 84 32 Z" fill="rgba(0,0,0,0.5)" stroke="none" />
<path d="M105 32 126 32 126 64 105 64 105 32 Z" fill="rgba(13,13,13,0.5)" stroke="none" />
<path d="M126 32 147 32 147 64 126 64 126 32 Z" fill="rgba(28,28,28,0.5)" stroke="none" />
<path d="M147 32 168 32 168 64 147 64 147 32 Z" fill="rgba(13,13,13,0.5)" stroke="none" />
<path d="M168 32 189 32 189 64 168 64 168 32 Z" fill="rgba(34,34,34,0.5)" stroke="none" />
<path d="M189 32 210 32 210 64 189 64 189 32 Z" fill="rgba(25,25,25,0.5)" stroke="none" />
<path d="M210 32 231 32 231 64 210 64 210 32 Z" fill="rgba(24,24,24,0.5)" stroke="none" />
<path d="M231 32 252 32 252 64 231 64 231 32 Z" fill="rgba(22,22,22,0.5)" stroke="none" />
<path d="M252 32 273 32 273 64 252 64 252 32 Z" fill="rgba(14,14,14,0.5)" stroke="none" />
<path d="M273 32 294 32 294 64 273 64 273 32 Z" fill="rgba(96,96,96,0.5)" stroke="none" />
<path d="M294 32 315 32 315 64 294 64 294 32 Z" fill="rgba(168,168,168,0.5)" stroke="none" />
<path d="M315 32 336 32 336 64 315 64 315 32 Z" fill="rgba(197,197,197,0.5)" stroke="none" />
<path d="M336 32 357 32 357 64 336 64 336 32 Z" fill="rgba(99,99,99,0.5)" stroke="none" />
<path d="M357 32 378 32 378 64 357 64 357 32 Z" fill="rgba(14,14,14,0.5)" stroke="none" />
<path d="M378 32 399 32 399 64 378 64 378 32 Z" fill="rgba(0,0,0,0.5)" stroke="none" />
<path d="M399 32 420 32 420 64 399 64 399 32 Z" fill="rgba(0,0,0,0.5)" stroke="none" />
<path d="M0 64 21 64 21 96 0 96 0 64 Z" fill="rgba(0,0,0,0.5)" stroke="none" />
<path d="M21 64 42 64 42 96 21 96 21 64 Z" fill="rgba(0,0,0,0.5)" stroke="none" />
<path d="M42 64 63 64 63 96 42 96 42 64 Z" fill="rgba(0,0,0,0.5)" stroke="none" />
<path d="M63 64 84 64 84 96 63 96 63 64 Z" fill="rgba(0,0,0,0.5)" stroke="none" />
<path d="M84 64 105 64 105 96 84 96 84 64 Z" fill="rgba(30,30,30,0.5)" stroke="none" />
<path d="M105 64 126 64 126 96 105 96 105 64 Z" fill="rgba(12,12,12,0.5)" stroke="none" />
<path d="M126 64 147 64 147 96 126 96 126 64 Z" fill="rgba(32,32,32,0.5)" stroke="none" />
<path d="M147 64 168 64 168 96 147 96 147 64 Z" fill="rgba(75,75,75,0.5)" stroke="none" />
<path d="M168 64 189 64 189 96 168 96 168 64 Z" fill="rgba(102,102,102,0.5)" stroke="none" />
<path d="M189 64 210 64 210 96 189 96 189 64 Z" fill="rgba(76,76,76,0.5)" stroke="none" />
<path d="M210 64 231 64 231 96 210 96 210 64 Z" fill="rgba(93,93,93,0.5)" stroke="none" />
<path d="M231 64 252 64 252 96 231 96 231 64 Z" fill="rgba(103,103,103,0.5)" stroke="none" />
<path d="M252 64 273 64 273 96 252 96 252 64 Z" fill="rgba(87,87,87,0.5)" stroke="none" />
<path d="M273 64 294 64 294 96 273 96 273 64 Z" fill="rgba(57,57,57,0.5)" stroke="none" />
<path d="M294 64 315 64 315 96 294 96 294 64 Z" fill="rgba(38,38,38,0.5)" stroke="none" />
<path d="M315 64 336 64 336 96 315 96 315 64 Z" fill="rgba(124,124,124,0.5)" stroke="none" />
<path d="M336 64 357 64 357 96 336 96 336 64 Z" fill="rgba(192,192,192,0.5)" stroke="none" />
<path d="M357 64 378 64 378 96 357 96 357 64 Z" fill="rgba(86,86,86,0.5)" stroke="none" />
<path d="M378 64 399 64 399 96 378 96 378 64 Z" fill="rgba(0,0,0,0.5)" stroke="none" />
<path d="M399 64 420 64 420 96 399 96 399 64 Z" fill="rgba(0,0,0,0.5)" stroke="none" />
<path d="M0 96 21 96 21 129 0 129 0 96 Z" fill="rgba(0,0,0,0.5)" stroke="none" />
<path d="M21 96 42 96 42 129 21 129 21 96 Z" fill="rgba(0,0,0,0.5)" stroke="none" />
<path d="M42 96 63 96 63 129 42 129 42 96 Z" fill="rgba(0,0,0,0.5)" stroke="none" />
<path d="M63 96 84 96 84 129 63 129 63 96 Z" fill="rgba(142,142,142,0.5)" stroke="none" />
<path d="M84 96 105 96 105 129 84 129 84 96 Z" fill="rgba(33,33,33,0.5)" stroke="none" />
<path d="M105 96 126 96 126 129 105 129 105 96 Z" fill="rgba(14,14,14,0.5)" stroke="none" />
<path d="M126 96 147 96 147 129 126 129 126 96 Z" fill="rgba(104,104,104,0.5)" stroke="none" />
<path d="M147 96 168 96 168 129 147 129 147 96 Z" fill="rgba(143,143,143,0.5)" stroke="none" />
<path d="M168 96 189 96 189 129 168 129 168 96 Z" fill="rgba(157,157,157,0.5)" stroke="none" />
<path d="M189 96 210 96 210 129 189 129 189 96 Z" fill="rgba(162,162,162,0.5)" stroke="none" />
<path d="M210 96 231 96 231 129 210 129 210 96 Z" fill="rgba(162,162,162,0.5)" stroke="none" />
<path d="M231 96 252 96 252 129 231 129 231 96 Z" fill="rgba(156,156,156,0.5)" stroke="none" />
<path d="M252 96 273 96 273 129 252 129 252 96 Z" fill="rgba(145,145,145,0.5)" stroke="none" />
<path d="M273 96 294 96 294 129 273 129 273 96 Z" fill="rgba(119,119,119,0.5)" stroke="none" />
<path d="M294 96 315 96 315 129 294 129 294 96 Z" fill="rgba(51,51,51,0.5)" stroke="none" />
<path d="M315 96 336 96 336 129 315 129 315 96 Z" fill="rgba(131,131,131,0.5)" stroke="none" />
<path d="M336 96 357 96 357 129 336 129 336 96 Z" fill="rgba(193,193,193,0.5)" stroke="none" />
<path d="M357 96 378 96 378 129 357 129 357 96 Z" fill="rgba(176,176,176,0.5)" stroke="none" />
<path d="M378 96 399 96 399 129 378 129 378 96 Z" fill="rgba(71,71,71,0.5)" stroke="none" />
<path d="M399 96 420 96 420 129 399 129 399 96 Z" fill="rgba(0,0,0,0.5)" stroke="none" />
<path d="M0 129 21 129 21 161 0 161 0 129 Z" fill="rgba(0,0,0,0.5)" stroke="none" />
<path d="M21 129 42 129 42 161 21 161 21 129 Z" fill="rgba(0,0,0,0.5)" stroke="none" />
<path d="M42 129 63 129 63 161 42 161 42 129 Z" fill="rgba(184,184,184,0.5)" stroke="none" />
<path d="M63 129 84 129 84 161 63 161 63 129 Z" fill="rgba(94,94,94,0.5)" stroke="none" />
<path d="M84 129 105 129 105 161 84 161 84 129 Z" fill="rgba(15,15,15,0.5)" stroke="none" />
<path d="M105 129 126 129 126 161 105 161 105 129 Z" fill="rgba(18,18,18,0.5)" stroke="none" />
<path d="M126 129 147 129 147 161 126 161 126 129 Z" fill="rgba(128,128,128,0.5)" stroke="none" />
<path d="M147 129 168 129 168 161 147 161 147 129 Z" fill="rgba(162,162,162,0.5)" stroke="none" />
<path d="M168 129 189 129 189 161 168 161 168 129 Z" fill="rgba(168,168,168,0.5)" stroke="none" />
<path d="M189 129 210 129 210 161 189 161 189 129 Z" fill="rgba(176,176,176,0.5)" stroke="none" />
<path d="M210 129 231 129 231 161 210 161 210 129 Z" fill="rgba(176,176,176,0.5)" stroke="none" />
<path d="M231 129 252 129 252 161 231 161 231 129 Z" fill="rgba(167,167,167,0.5)" stroke="none" />
<path d="M252 129 273 129 273 161 252 161 252 129 Z" fill="rgba(156,156,156,0.5)" stroke="none" />
<path d="M273 129 294 129 294 161 273 161 273 129 Z" fill="rgba(145,145,145,0.5)" stroke="none" />
<path d="M294 129 315 129 315 161 294 161 294 129 Z" fill="rgba(73,73,73,0.5)" stroke="none" />
<path d="M315 129 336 129 336 161 315 161 315 129 Z" fill="rgba(54,54,54,0.5)" stroke="none" />
<path d="M336 129 357 129 357 161 336 161 336 129 Z" fill="rgba(156,156,156,0.5)" stroke="none" />
<path d="M357 129 378 129 378 161 357 161 357 129 Z" fill="rgba(206,206,206,0.5)" stroke="none" />
<path d="M378 129 399 129 399 161 378 161 378 129 Z" fill="rgba(85,85,85,0.5)" stroke="none" />
<path d="M399 129 420 129 420 161 399 161 399 129 Z" fill="rgba(0,0,0,0.5)" stroke="none" />
<path d="M0 161 21 161 21 193 0 193 0 161 Z" fill="rgba(0,0,0,0.5)" stroke="none" />
<path d="M21 161 42 161 42 193 21 193 21 161 Z" fill="rgba(19,19,19,0.5)" stroke="none" />
<path d="M42 161 63 161 63 193 42 193 42 161 Z" fill="rgba(166,166,166,0.5)" stroke="none" />
<path d="M63 161 84 161 84 193 63 193 63 161 Z" fill="rgba(87,87,87,0.5)" stroke="none" />
<path d="M84 161 105 161 105 193 84 193 84 161 Z" fill="rgba(26,26,26,0.5)" stroke="none" />
<path d="M105 161 126 161 126 193 105 193 105 161 Z" fill="rgba(65,65,65,0.5)" stroke="none" />
<path d="M126 161 147 161 147 193 126 193 126 161 Z" fill="rgba(118,118,118,0.5)" stroke="none" />
<path d="M147 161 168 161 168 193 147 193 147 161 Z" fill="rgba(155,155,155,0.5)" stroke="none" />
<path d="M168 161 189 161 189 193 168 193 168 161 Z" fill="rgba(175,175,175,0.5)" stroke="none" />
<path d="M189 161 210 161 210 193 189 193 189 161 Z" fill="rgba(184,184,184,0.5)" stroke="none" />
<path d="M210 161 231 161 231 193 210 193 210 161 Z" fill="rgba(183,183,183,0.5)" stroke="none" />
<path d="M231 161 252 161 252 193 231 193 231 161 Z" fill="rgba(176,176,176,0.5)" stroke="none" />
<path d="M252 161 273 161 273 193 252 193 252 161 Z" fill="rgba(162,162,162,0.5)" stroke="none" />
<path d="M273 161 294 161 294 193 273 193 273 161 Z" fill="rgba(141,141,141,0.5)" stroke="none" />
<path d="M294 161 315 161 315 193 294 193 294 161 Z" fill="rgba(98,98,98,0.5)" stroke="none" />
<path d="M315 161 336 161 336 193 315 193 315 161 Z" fill="rgba(45,45,45,0.5)" stroke="none" />
<path d="M336 161 357 161 357 193 336 193 336 161 Z" fill="rgba(135,135,135,0.5)" stroke="none" />
<path d="M357 161 378 161 378 193 357 193 357 161 Z" fill="rgba(198,198,198,0.5)" stroke="none" />
<path d="M378 161 399 161 399 193 378 193 378 161 Z" fill="rgba(176,176,176,0.5)" stroke="none" />
<path d="M399 161 420 161 420 193 399 193 399 161 Z" fill="rgba(77,77,77,0.5)" stroke="none" />
<path d="M0 193 21 193 21 226 0 226 0 193 Z" fill="rgba(0,0,0,0.5)" stroke="none" />
<path d="M21 193 42 193 42 226 21 226 21 193 Z" fill="rgba(172,172,172,0.5)" stroke="none" />
<path d="M42 193 63 193 63 226 42 226 42 193 Z" fill="rgba(145,145,145,0.5)" stroke="none" />
<path d="M63 193 84 193 84 226 63 226 63 193 Z" fill="rgba(96,96,96,0.5)" stroke="none" />
<path d="M84 193 105 193 105 226 84 226 84 193 Z" fill="rgba(28,28,28,0.5)" stroke="none" />
<path d="M105 193 126 193 126 226 105 226 105 193 Z" fill="rgba(88,88,88,0.5)" stroke="none" />
<path d="M126 193 147 193 147 226 126 226 126 193 Z" fill="rgba(71,71,71,0.5)" stroke="none" />
<path d="M147 193 168 193 168 226 147 226 147 193 Z" fill="rgba(102,102,102,0.5)" stroke="none" />
<path d="M168 193 189 193 189 226 168 226 168 193 Z" fill="rgba(164,164,164,0.5)" stroke="none" />
<path d="M189 193 210 193 210 226 189 226 189 193 Z" fill="rgba(191,191,191,0.5)" stroke="none" />
<path d="M210 193 231 193 231 226 210 226 210 193 Z" fill="rgba(191,191,191,0.5)" stroke="none" />
<path d="M231 193 252 193 252 226 231 226 231 193 Z" fill="rgba(176,176,176,0.5)" stroke="none" />
<path d="M252 193 273 193 273 226 252 226 252 193 Z" fill="rgba(113,113,113,0.5)" stroke="none" />
<path d="M273 193 294 193 294 226 273 226 273 193 Z" fill="rgba(70,70,70,0.5)" stroke="none" />
<path d="M294 193 315 193 315 226 294 226 294 193 Z" fill="rgba(71,71,71,0.5)" stroke="none" />
<path d="M315 193 336 193 336 226 315 226 315 193 Z" fill="rgba(72,72,72,0.5)" stroke="none" />
<path d="M336 193 357 193 357 226 336 226 336 193 Z" fill="rgba(141,141,141,0.5)" stroke="none" />
<path d="M357 193 378 193 378 226 357 226 357 193 Z" fill="rgba(187,187,187,0.5)" stroke="none" />
<path d="M378 193 399 193 399 226 378 226 378 193 Z" fill="rgba(205,205,205,0.5)" stroke="none" />
<path d="M399 193 420 193 420 226 399 226 399 193 Z" fill="rgba(103,103,103,0.5)" stroke="none" />
<path d="M0 226 21 226 21 258 0 258 0 226 Z" fill="rgba(76,76,76,0.5)" stroke="none" />
<path d="M21 226 42 226 42 258 21 258 21 226 Z" fill="rgba(158,158,158,0.5)" stroke="none" />
<path d="M42 226 63 226 63 258 42 258 42 226 Z" fill="rgba(150,150,150,0.5)" stroke="none" />
<path d="M63 226 84 226 84 258 63 258 63 226 Z" fill="rgba(86,86,86,0.5)" stroke="none" />
<path d="M84 226 105 226 105 258 84 258 84 226 Z" fill="rgba(22,22,22,0.5)" stroke="none" />
<path d="M105 226 126 226 126 258 105 258 105 226 Z" fill="rgba(64,64,64,0.5)" stroke="none" />
<path d="M126 226 147 226 147 258 126 258 126 226 Z" fill="rgba(103,103,103,0.5)" stroke="none" />
<path d="M147 226 168 226 168 258 147 258 147 226 Z" fill="rgba(137,137,137,0.5)" stroke="none" />
<path d="M168 226 189 226 189 258 168 258 168 226 Z" fill="rgba(136,136,136,0.5)" stroke="none" />
<path d="M189 226 210 226 210 258 189 258 189 226 Z" fill="rgba(169,169,169,0.5)" stroke="none" />
<path d="M210 226 231 226 231 258 210 258 210 226 Z" fill="rgba(174,174,174,0.5)" stroke="none" />
<path d="M231 226 252 226 252 258 231 258 231 226 Z" fill="rgba(146,146,146,0.5)" stroke="none" />
<path d="M252 226 273 226 273 258 252 258 252 226 Z" fill="rgba(142,142,142,0.5)" stroke="none" />
<path d="M273 226 294 226 294 258 273 258 273 226 Z" fill="rgba(133,133,133,0.5)" stroke="none" />
<path d="M294 226 315 226 315 258 294 258 294 226 Z" fill="rgba(93,93,93,0.5)" stroke="none" />
<path d="M315 226 336 226 336 258 315 258 315 226 Z" fill="rgba(95,95,95,0.5)" stroke="none" />
<path d="M336 226 357 226 357 258 336 258 336 226 Z" fill="rgba(157,157,157,0.5)" stroke="none" />
<path d="M357 226 378 226 378 258 357 258 357 226 Z" fill="rgba(189,189,189,0.5)" stroke="none" />
<path d="M378 226 399 226 399 258 378 258 378 226 Z" fill="rgba(205,205,205,0.5)" stroke="none" />
<path d="M399 226 420 226 420 258 399 258 399 226 Z" fill="rgba(102,102,102,0.5)" stroke="none" />
<path d="M0 258 21 258 21 290 0 290 0 258 Z" fill="rgba(180,180,180,0.5)" stroke="none" />
<path d="M21 258 42 258 42 290 21 290 21 258 Z" fill="rgba(154,154,154,0.5)" stroke="none" />
<path d="M42 258 63 258 63 290 42 290 42 258 Z" fill="rgba(145,145,145,0.5)" stroke="none" />
<path d="M63 258 84 258 84 290 63 290 63 258 Z" fill="rgba(86,86,86,0.5)" stroke="none" />
<path d="M84 258 105 258 105 290 84 290 84 258 Z" fill="rgba(19,19,19,0.5)" stroke="none" />
<path d="M105 258 126 258 126 290 105 290 105 258 Z" fill="rgba(115,115,115,0.5)" stroke="none" />
<path d="M126 258 147 258 147 290 126 290 126 258 Z" fill="rgba(97,97,97,0.5)" stroke="none" />
<path d="M147 258 168 258 168 290 147 290 147 258 Z" fill="rgba(81,81,81,0.5)" stroke="none" />
<path d="M168 258 189 258 189 290 168 290 168 258 Z" fill="rgba(87,87,87,0.5)" stroke="none" />
<path d="M189 258 210 258 210 290 189 290 189 258 Z" fill="rgba(116,116,116,0.5)" stroke="none" />
<path d="M210 258 231 258 231 290 210 290 210 258 Z" fill="rgba(139,139,139,0.5)" stroke="none" />
<path d="M231 258 252 258 252 290 231 290 231 258 Z" fill="rgba(102,102,102,0.5)" stroke="none" />
<path d="M252 258 273 258 273 290 252 290 252 258 Z" fill="rgba(85,85,85,0.5)" stroke="none" />
<path d="M273 258 294 258 294 290 273 290 273 258 Z" fill="rgba(96,96,96,0.5)" stroke="none" />
<path d="M294 258 315 258 315 290 294 290 294 258 Z" fill="rgba(114,114,114,0.5)" stroke="none" />
<path d="M315 258 336 258 336 290 315 290 315 258 Z" fill="rgba(114,114,114,0.5)" stroke="none" />
<path d="M336 258 357 258 357 290 336 290 336 258 Z" fill="rgba(154,154,154,0.5)" stroke="none" />
<path d="M357 258 378 258 378 290 357 290 357 258 Z" fill="rgba(186,186,186,0.5)" stroke="none" />
<path d="M378 258 399 258 399 290 378 290 378 258 Z" fill="rgba(203,203,203,0.5)" stroke="none" />
<path d="M399 258 420 258 420 290 399 290 399 258 Z" fill="rgba(101,101,101,0.5)" stroke="none" />
<path d="M0 290 21 290 21 323 0 323 0 290 Z" fill="rgba(56,56,56,0.5)" stroke="none" />
<path d="M21 290 42 290 42 323 21 323 21 290 Z" fill="rgba(160,160,160,0.5)" stroke="none" />
<path d="M42 290 63 290 63 323 42 323 42 290 Z" fill="rgba(121,121,121,0.5)" stroke="none" />
<path d="M63 290 84 290 84 323 63 323 63 290 Z" fill="rgba(118,118,118,0.5)" stroke="none" />
<path d="M84 290 105 290 105 323 84 323 84 290 Z" fill="rgba(36,36,36,0.5)" stroke="none" />
<path d="M105 290 126 290 126 323 105 323 105 290 Z" fill="rgba(117,117,117,0.5)" stroke="none" />
<path d="M126 290 147 290 147 323 126 323 126 290 Z" fill="rgba(139,139,139,0.5)" stroke="none" />
<path d="M147 290 168 290 168 323 147 323 147 290 Z" fill="rgba(152,152,152,0.5)" stroke="none" />
<path d="M168 290 189 290 189 323 168 323 168 290 Z" fill="rgba(151,151,151,0.5)" stroke="none" />
<path d="M189 290 210 290 210 323 189 323 189 290 Z" fill="rgba(115,115,115,0.5)" stroke="none" />
<path d="M210 290 231 290 231 323 210 323 210 290 Z" fill="rgba(117,117,117,0.5)" stroke="none" />
<path d="M231 290 252 290 252 323 231 323 231 290 Z" fill="rgba(117,117,117,0.5)" stroke="none" />
<path d="M252 290 273 290 273 323 252 323 252 290 Z" fill="rgba(141,141,141,0.5)" stroke="none" />
<path d="M273 290 294 290 294 323 273 323 273 290 Z" fill="rgba(142,142,142,0.5)" stroke="none" />
<path d="M294 290 315 290 315 323 294 323 294 290 Z" fill="rgba(128,128,128,0.5)" stroke="none" />
<path d="M315 290 336 290 336 323 315 323 315 290 Z" fill="rgba(93,93,93,0.5)" stroke="none" />
<path d="M336 290 357 290 357 323 336 323 336 290 Z" fill="rgba(128,128,128,0.5)" stroke="none" />
<path d="M357 290 378 290 378 323 357 323 357 290 Z" fill="rgba(178,178,178,0.5)" stroke="none" />
<path d="M378 290 399 290 399 323 378 323 378 290 Z" fill="rgba(195,195,195,0.5)" stroke="none" />
<path d="M399 290 420 290 420 323 399 323 399 290 Z" fill="rgba(94,94,94,0.5)" stroke="none" />
<path d="M0 323 21 323 21 355 0 355 0 323 Z" fill="rgba(123,123,123,0.5)" stroke="none" />
<path d="M21 323 42 323 42 355 21 355 21 323 Z" fill="rgba(163,163,163,0.5)" stroke="none" />
<path d="M42 323 63 323 63 355 42 355 42 323 Z" fill="rgba(137,137,137,0.5)" stroke="none" />
<path d="M63 323 84 323 84 355 63 355 63 323 Z" fill="rgba(111,111,111,0.5)" stroke="none" />
<path d="M84 323 105 323 105 355 84 355 84 323 Z" fill="rgba(59,59,59,0.5)" stroke="none" />
<path d="M105 323 126 323 126 355 105 355 105 323 Z" fill="rgba(128,128,128,0.5)" stroke="none" />
<path d="M126 323 147 323 147 355 126 355 126 323 Z" fill="rgba(167,167,167,0.5)" stroke="none" />
<path d="M147 323 168 323 168 355 147 355 147 323 Z" fill="rgba(181,181,181,0.5)" stroke="none" />
<path d="M168 323 189 323 189 355 168 355 168 323 Z" fill="rgba(163,163,163,0.5)" stroke="none" />
<path d="M189 323 210 323 210 355 189 355 189 323 Z" fill="rgba(134,134,134,0.5)" stroke="none" />
<path d="M210 323 231 323 231 355 210 355 210 323 Z" fill="rgba(140,140,140,0.5)" stroke="none" />
<path d="M231 323 252 323 252 355 231 355 231 323 Z" fill="rgba(102,102,102,0.5)" stroke="none" />
<path d="M252 323 273 323 273 355 252 355 252 323 Z" fill="rgba(150,150,150,0.5)" stroke="none" />
<path d="M273 323 294 323 294 355 273 355 273 323 Z" fill="rgba(164,164,164,0.5)" stroke="none" />
<path d="M294 323 315 323 315 355 294 355 294 323 Z" fill="rgba(143,143,143,0.5)" stroke="none" />
<path d="M315 323 336 323 336 355 315 355 315 323 Z" fill="rgba(90,90,90,0.5)" stroke="none" />
<path d="M336 323 357 323 357 355 336 355 336 323 Z" fill="rgba(133,133,133,0.5)" stroke="none" />
<path d="M357 323 378 323 378 355 357 355 357 323 Z" fill="rgba(185,185,185,0.5)" stroke="none" />
<path d="M378 323 399 323 399 355 378 355 378 323 Z" fill="rgba(108,108,108,0.5)" stroke="none" />
<path d="M399 323 420 323 420 355 399 355 399 323 Z" fill="rgba(22,22,22,0.5)" stroke="none" />
<path d="M0 355 21 355 21 387 0 387 0 355 Z" fill="rgba(139,139,139,0.5)" stroke="none" />
<path d="M21 355 42 355 42 387 21 387 21 355 Z" fill="rgba(154,154,154,0.5)" stroke="none" />
<path d="M42 355 63 355 63 387 42 387 42 355 Z" fill="rgba(152,152,152,0.5)" stroke="none" />
<path d="M63 355 84 355 84 387 63 387 63 355 Z" fill="rgba(98,98,98,0.5)" stroke="none" />
<path d="M84 355 105 355 105 387 84 387 84 355 Z" fill="rgba(80,80,80,0.5)" stroke="none" />
<path d="M105 355 126 355 126 387 105 387 105 355 Z" fill="rgba(138,138,138,0.5)" stroke="none" />
<path d="M126 355 147 355 147 387 126 387 126 355 Z" fill="rgba(174,174,174,0.5)" stroke="none" />
<path d="M147 355 168 355 168 387 147 387 147 355 Z" fill="rgba(185,185,185,0.5)" stroke="none" />
<path d="M168 355 189 355 189 387 168 387 168 355 Z" fill="rgba(165,165,165,0.5)" stroke="none" />
<path d="M189 355 210 355 210 387 189 387 189 355 Z" fill="rgba(152,152,152,0.5)" stroke="none" />
<path d="M210 355 231 355 231 387 210 387 210 355 Z" fill="rgba(165,165,165,0.5)" stroke="none" />
<path d="M231 355 252 355 252 387 231 387 231 355 Z" fill="rgba(148,148,148,0.5)" stroke="none" />
<path d="M252 355 273 355 273 387 252 387 252 355 Z" fill="rgba(169,169,169,0.5)" stroke="none" />
<path d="M273 355 294 355 294 387 273 387 273 355 Z" fill="rgba(166,166,166,0.5)" stroke="none" />
<path d="M294 355 315 355 315 387 294 387 294 355 Z" fill="rgba(151,151,151,0.5)" stroke="none" />
<path d="M315 355 336 355 336 387 315 387 315 355 Z" fill="rgba(95,95,95,0.5)" stroke="none" />
<path d="M336 355 357 355 357 387 336 387 336 355 Z" fill="rgba(146,146,146,0.5)" stroke="none" />
<path d="M357 355 378 355 378 387 357 387 357 355 Z" fill="rgba(198,198,198,0.5)" stroke="none" />
<path d="M378 355 399 355 399 387 378 387 378 355 Z" fill="rgba(85,85,85,0.5)" stroke="none" />
<path d="M399 355 420 355 420 387 399 387 399 355 Z" fill="rgba(0,0,0,0.5)" stroke="none" />
<path d="M0 387 21 387 21 420 0 420 0 387 Z" fill="rgba(136,136,136,0.5)" stroke="none" />
<path d="M21 387 42 387 42 420 21 420 21 387 Z" fill="rgba(140,140,140,0.5)" stroke="none" />
<path d="M42 387 63 387 63 420 42 420 42 387 Z" fill="rgba(165,165,165,0.5)" stroke="none" />
<path d="M63 387 84 387 84 420 63 420 63 387 Z" fill="rgba(107,107,107,0.5)" stroke="none" />
<path d="M84 387 105 387 105 420 84 420 84 387 Z" fill="rgba(116,116,116,0.5)" stroke="none" />
<path d="M105 387 126 387 126 420 105 420 105 387 Z" fill="rgba(126,126,126,0.5)" stroke="none" />
<path d="M126 387 147 387 147 420 126 420 126 387 Z" fill="rgba(162,162,162,0.5)" stroke="none" />
<path d="M147 387 168 387 168 420 147 420 147 387 Z" fill="rgba(186,186,186,0.5)" stroke="none" />
<path d="M168 387 189 387 189 420 168 420 168 387 Z" fill="rgba(156,156,156,0.5)" stroke="none" />
<path d="M189 387 210 387 210 420 189 420 189 387 Z" fill="rgba(138,138,138,0.5)" stroke="none" />
<path d="M210 387 231 387 231 420 210 420 210 387 Z" fill="rgba(158,158,158,0.5)" stroke="none" />
<path d="M231 387 252 387 252 420 231 420 231 387 Z" fill="rgba(132,132,132,0.5)" stroke="none" />
<path d="M252 387 273 387 273 420 252 420 252 387 Z" fill="rgba(143,143,143,0.5)" stroke="none" />
<path d="M273 387 294 387 294 420 273 420 273 387 Z" fill="rgba(154,154,154,0.5)" stroke="none" />
<path d="M294 387 315 387 315 420 294 420 294 387 Z" fill="rgba(145,145,145,0.5)" stroke="none" />
<path d="M315 387 336 387 336 420 315 420 315 387 Z" fill="rgba(108,108,108,0.5)" stroke="none" />
<path d="M336 387 357 387 357 420 336 420 336 387 Z" fill="rgba(165,165,165,0.5)" stroke="none" />
<path d="M357 387 378 387 378 420 357 420 357 387 Z" fill="rgba(211,211,211,0.5)" stroke="none" />
<path d="M378 387 399 387 399 420 378 420 378 387 Z" fill="rgba(90,90,90,0.5)" stroke="none" />
<path d="M399 387 420 387 420 420 399 420 399 387 Z" fill="rgba(0,0,0,0.5)" stroke="none" />
<path d="M0 420 21 420 21 452 0 452 0 420 Z" fill="rgba(148,148,148,0.5)" stroke="none" />
<path d="M21 420 42 420 42 452 21 452 21 420 Z" fill="rgba(151,151,151,0.5)" stroke="none" />
<path d="M42 420 63 420 63 452 42 452 42 420 Z" fill="rgba(163,163,163,0.5)" stroke="none" />
<path d="M63 420 84 420 84 452 63 452 63 420 Z" fill="rgba(106,106,106,0.5)" stroke="none" />
<path d="M84 420 105 420 105 452 84 452 84 420 Z" fill="rgba(129,129,129,0.5)" stroke="none" />
<path d="M105 420 126 420 126 452 105 452 105 420 Z" fill="rgba(113,113,113,0.5)" stroke="none" />
<path d="M126 420 147 420 147 452 126 452 126 420 Z" fill="rgba(145,145,145,0.5)" stroke="none" />
<path d="M147 420 168 420 168 452 147 452 147 420 Z" fill="rgba(148,148,148,0.5)" stroke="none" />
<path d="M168 420 189 420 189 452 168 452 168 420 Z" fill="rgba(143,143,143,0.5)" stroke="none" />
<path d="M189 420 210 420 210 452 189 452 189 420 Z" fill="rgba(147,147,147,0.5)" stroke="none" />
<path d="M210 420 231 420 231 452 210 452 210 420 Z" fill="rgba(158,158,158,0.5)" stroke="none" />
<path d="M231 420 252 420 252 452 231 452 231 420 Z" fill="rgba(132,132,132,0.5)" stroke="none" />
<path d="M252 420 273 420 273 452 252 452 252 420 Z" fill="rgba(126,126,126,0.5)" stroke="none" />
<path d="M273 420 294 420 294 452 273 452 273 420 Z" fill="rgba(145,145,145,0.5)" stroke="none" />
<path d="M294 420 315 420 315 452 294 452 294 420 Z" fill="rgba(122,122,122,0.5)" stroke="none" />
<path d="M315 420 336 420 336 452 315 452 315 420 Z" fill="rgba(137,137,137,0.5)" stroke="none" />
<path d="M336 420 357 420 357 452 336 452 336 420 Z" fill="rgba(179,179,179,0.5)" stroke="none" />
<path d="M357 420 378 420 378 452 357 452 357 420 Z" fill="rgba(126,126,126,0.5)" stroke="none" />
<path d="M378 420 399 420 399 452 378 452 378 420 Z" fill="rgba(33,33,33,0.5)" stroke="none" />
<path d="M399 420 420 420 420 452 399 452 399 420 Z" fill="rgba(0,0,0,0.5)" stroke="none" />
<path d="M0 452 21 452 21 484 0 484 0 452 Z" fill="rgba(152,152,152,0.5)" stroke="none" />
<path d="M21 452 42 452 42 484 21 484 21 452 Z" fill="rgba(167,167,167,0.5)" stroke="none" />
<path d="M42 452 63 452 63 484 42 484 42 452 Z" fill="rgba(165,165,165,0.5)" stroke="none" />
<path d="M63 452 84 452 84 484 63 484 63 452 Z" fill="rgba(97,97,97,0.5)" stroke="none" />
<path d="M84 452 105 452 105 484 84 484 84 452 Z" fill="rgba(135,135,135,0.5)" stroke="none" />
<path d="M105 452 126 452 126 484 105 484 105 452 Z" fill="rgba(99,99,99,0.5)" stroke="none" />
<path d="M126 452 147 452 147 484 126 484 126 452 Z" fill="rgba(110,110,110,0.5)" stroke="none" />
<path d="M147 452 168 452 168 484 147 484 147 452 Z" fill="rgba(143,143,143,0.5)" stroke="none" />
<path d="M168 452 189 452 189 484 168 484 168 452 Z" fill="rgba(132,132,132,0.5)" stroke="none" />
<path d="M189 452 210 452 210 484 189 484 189 452 Z" fill="rgba(134,134,134,0.5)" stroke="none" />
<path d="M210 452 231 452 231 484 210 484 210 452 Z" fill="rgba(140,140,140,0.5)" stroke="none" />
<path d="M231 452 252 452 252 484 231 484 231 452 Z" fill="rgba(121,121,121,0.5)" stroke="none" />
<path d="M252 452 273 452 273 484 252 484 252 452 Z" fill="rgba(137,137,137,0.5)" stroke="none" />
<path d="M273 452 294 452 294 484 273 484 273 452 Z" fill="rgba(148,148,148,0.5)" stroke="none" />
<path d="M294 452 315 452 315 484 294 484 294 452 Z" fill="rgba(100,100,100,0.5)" stroke="none" />
<path d="M315 452 336 452 336 484 315 484 315 452 Z" fill="rgba(150,150,150,0.5)" stroke="none" />
<path d="M336 452 357 452 357 484 336 484 336 452 Z" fill="rgba(180,180,180,0.5)" stroke="none" />
<path d="M357 452 378 452 378 484 357 484 357 452 Z" fill="rgba(75,75,75,0.5)" stroke="none" />
<path d="M378 452 399 452 399 484 378 484 378 452 Z" fill="rgba(1,1,1,0.5)" stroke="none" />
<path d="M399 452 420 452 420 484 399 484 399 452 Z" fill="rgba(0,0,0,0.5)" stroke="none" />
<path d="M0 484 21 484 21 516 0 516 0 484 Z" fill="rgba(148,148,148,0.5)" stroke="none" />
<path d="M21 484 42 484 42 516 21 516 21 484 Z" fill="rgba(180,180,180,0.5)" stroke="none" />
<path d="M42 484 63 484 63 516 42 516 42 484 Z" fill="rgba(167,167,167,0.5)" stroke="none" />
<path d="M63 484 84 484 84 516 63 516 63 484 Z" fill="rgba(93,93,93,0.5)" stroke="none" />
<path d="M84 484 105 484 105 516 84 516 84 484 Z" fill="rgba(134,134,134,0.5)" stroke="none" />
<path d="M105 484 126 484 126 516 105 516 105 484 Z" fill="rgba(90,90,90,0.5)" stroke="none" />
<path d="M126 484 147 484 147 516 126 516 126 484 Z" fill="rgba(102,102,102,0.5)" stroke="none" />
<path d="M147 484 168 484 168 516 147 516 147 484 Z" fill="rgba(149,149,149,0.5)" stroke="none" />
<path d="M168 484 189 484 189 516 168 516 168 484 Z" fill="rgba(159,159,159,0.5)" stroke="none" />
<path d="M189 484 210 484 210 516 189 516 189 484 Z" fill="rgba(161,161,161,0.5)" stroke="none" />
<path d="M210 484 231 484 231 516 210 516 210 484 Z" fill="rgba(145,145,145,0.5)" stroke="none" />
<path d="M231 484 252 484 252 516 231 516 231 484 Z" fill="rgba(143,143,143,0.5)" stroke="none" />
<path d="M252 484 273 484 273 516 252 516 252 484 Z" fill="rgba(152,152,152,0.5)" stroke="none" />
<path d="M273 484 294 484 294 516 273 516 273 484 Z" fill="rgba(132,132,132,0.5)" stroke="none" />
<path d="M294 484 315 484 315 516 294 516 294 484 Z" fill="rgba(83,83,83,0.5)" stroke="none" />
<path d="M315 484 336 484 336 516 315 516 315 484 Z" fill="rgba(147,147,147,0.5)" stroke="none" />
<path d="M336 484 357 484 357 516 336 516 336 484 Z" fill="rgba(115,115,115,0.5)" stroke="none" />
<path d="M357 484 378 484 378 516 357 516 357 484 Z" fill="rgba(27,27,27,0.5)" stroke="none" />
<path d="M378 484 399 484 399 516 378 516 378 484 Z" fill="rgba(0,0,0,0.5)" stroke="none" />
<path d="M399 484 420 484 420 516 399 516 399 484 Z" fill="rgba(0,0,0,0.5)" stroke="none" />
<path d="M0 516 21 516 21 549 0 549 0 516 Z" fill="rgba(85,85,85,0.5)" stroke="none" />
<path d="M21 516 42 516 42 549 21 549 21 516 Z" fill="rgba(183,183,183,0.5)" stroke="none" />
<path d="M42 516 63 516 63 549 42 549 42 516 Z" fill="rgba(169,169,169,0.5)" stroke="none" />
<path d="M63 516 84 516 84 549 63 549 63 516 Z" fill="rgba(95,95,95,0.5)" stroke="none" />
<path d="M84 516 105 516 105 549 84 549 84 516 Z" fill="rgba(141,141,141,0.5)" stroke="none" />
<path d="M105 516 126 516 126 549 105 549 105 516 Z" fill="rgba(116,116,116,0.5)" stroke="none" />
<path d="M126 516 147 516 147 549 126 549 126 516 Z" fill="rgba(100,100,100,0.5)" stroke="none" />
<path d="M147 516 168 516 168 549 147 549 147 516 Z" fill="rgba(142,142,142,0.5)" stroke="none" />
<path d="M168 516 189 516 189 549 168 549 168 516 Z" fill="rgba(174,174,174,0.5)" stroke="none" />
<path d="M189 516 210 516 210 549 189 549 189 516 Z" fill="rgba(185,185,185,0.5)" stroke="none" />
<path d="M210 516 231 516 231 549 210 549 210 516 Z" fill="rgba(172,172,172,0.5)" stroke="none" />
<path d="M231 516 252 516 252 549 231 549 231 516 Z" fill="rgba(172,172,172,0.5)" stroke="none" />
<path d="M252 516 273 516 273 549 252 549 252 516 Z" fill="rgba(159,159,159,0.5)" stroke="none" />
<path d="M273 516 294 516 294 549 273 549 273 516 Z" fill="rgba(106,106,106,0.5)" stroke="none" />
<path d="M294 516 315 516 315 549 294 549 294 516 Z" fill="rgba(84,84,84,0.5)" stroke="none" />
<path d="M315 516 336 516 336 549 315 549 315 516 Z" fill="rgba(104,104,104,0.5)" stroke="none" />
<path d="M336 516 357 516 357 549 336 549 336 516 Z" fill="rgba(44,44,44,0.5)" stroke="none" />
<path d="M357 516 378 516 378 549 357 549 357 516 Z" fill="rgba(0,0,0,0.5)" stroke="none" />
<path d="M378 516 399 516 399 549 378 549 378 516 Z" fill="rgba(0,0,0,0.5)" stroke="none" />
<path d="M399 516 420 516 420 549 399 549 399 516 Z" fill="rgba(0,0,0,0.5)" stroke="none" />
<path d="M0 549 21 549 21 581 0 581 0 549 Z" fill="rgba(20,20,20,0.5)" stroke="none" />
<path d="M21 549 42 549 42 581 21 581 21 549 Z" fill="rgba(183,183,183,0.5)" stroke="none" />
<path d="M42 549 63 549 63 581 42 581 42 549 Z" fill="rgba(174,174,174,0.5)" stroke="none" />
<path d="M63 549 84 549 84 581 63 581 63 549 Z" fill="rgba(107,107,107,0.5)" stroke="none" />
<path d="M84 549 105 549 105 581 84 581 84 549 Z" fill="rgba(139,139,139,0.5)" stroke="none" />
<path d="M105 549 126 549 126 581 105 581 105 549 Z" fill="rgba(100,100,100,0.5)" stroke="none" />
<path d="M126 549 147 549 147 581 126 581 126 549 Z" fill="rgba(97,97,97,0.5)" stroke="none" />
<path d="M147 549 168 549 168 581 147 581 147 549 Z" fill="rgba(107,107,107,0.5)" stroke="none" />
<path d="M168 549 189 549 189 581 168 581 168 549 Z" fill="rgba(147,147,147,0.5)" stroke="none" />
<path d="M189 549 210 549 210 581 189 581 189 549 Z" fill="rgba(176,176,176,0.5)" stroke="none" />
<path d="M210 549 231 549 231 581 210 581 210 549 Z" fill="rgba(177,177,177,0.5)" stroke="none" />
<path d="M231 549 252 549 252 581 231 581 231 549 Z" fill="rgba(163,163,163,0.5)" stroke="none" />
<path d="M252 549 273 549 273 581 252 581 252 549 Z" fill="rgba(133,133,133,0.5)" stroke="none" />
<path d="M273 549 294 549 294 581 273 581 273 549 Z" fill="rgba(90,90,90,0.5)" stroke="none" />
<path d="M294 549 315 549 315 581 294 581 294 549 Z" fill="rgba(66,66,66,0.5)" stroke="none" />
<path d="M315 549 336 549 336 581 315 581 315 549 Z" fill="rgba(41,41,41,0.5)" stroke="none" />
<path d="M336 549 357 549 357 581 336 581 336 549 Z" fill="rgba(10,10,10,0.5)" stroke="none" />
<path d="M357 549 378 549 378 581 357 581 357 549 Z" fill="rgba(0,0,0,0.5)" stroke="none" />
<path d="M378 549 399 549 399 581 378 581 378 549 Z" fill="rgba(0,0,0,0.5)" stroke="none" />
<path d="M399 549 420 549 420 581 399 581 399 549 Z" fill="rgba(0,0,0,0.5)" stroke="none" />
<path d="M0 581 21 581 21 613 0 613 0 581 Z" fill="rgba(0,0,0,0.5)" stroke="none" />
<path d="M21 581 42 581 42 613 21 613 21 581 Z" fill="rgba(130,130,130,0.5)" stroke="none" />
<path d="M42 581 63 581 63 613 42 613 42 581 Z" fill="rgba(156,156,156,0.5)" stroke="none" />
<path d="M63 581 84 581 84 613 63 613 63 581 Z" fill="rgba(104,104,104,0.5)" stroke="none" />
<path d="M84 581 105 581 105 613 84 613 84 581 Z" fill="rgba(106,106,106,0.5)" stroke="none" />
<path d="M105 581 126 581 126 613 105 613 105 581 Z" fill="rgba(92,92,92,0.5)" stroke="none" />
<path d="M126 581 147 581 147 613 126 613 126 581 Z" fill="rgba(97,97,97,0.5)" stroke="none" />
<path d="M147 581 168 581 168 613 147 613 147 581 Z" fill="rgba(116,116,116,0.5)" stroke="none" />
<path d="M168 581 189 581 189 613 168 613 168 581 Z" fill="rgba(104,104,104,0.5)" stroke="none" />
<path d="M189 581 210 581 210 613 189 613 189 581 Z" fill="rgba(131,131,131,0.5)" stroke="none" />
<path d="M210 581 231 581 231 613 210 613 210 581 Z" fill="rgba(134,134,134,0.5)" stroke="none" />
<path d="M231 581 252 581 252 613 231 613 231 581 Z" fill="rgba(115,115,115,0.5)" stroke="none" />
<path d="M252 581 273 581 273 613 252 613 252 581 Z" fill="rgba(118,118,118,0.5)" stroke="none" />
<path d="M273 581 294 581 294 613 273 613 273 581 Z" fill="rgba(75,75,75,0.5)" stroke="none" />
<path d="M294 581 315 581 315 613 294 613 294 581 Z" fill="rgba(27,27,27,0.5)" stroke="none" />
<path d="M315 581 336 581 336 613 315 613 315 581 Z" fill="rgba(5,5,5,0.5)" stroke="none" />
<path d="M336 581 357 581 357 613 336 613 336 581 Z" fill="rgba(0,0,0,0.5)" stroke="none" />
<path d="M357 581 378 581 378 613 357 613 357 581 Z" fill="rgba(0,0,0,0.5)" stroke="none" />
<path d="M378 581 399 581 399 613 378 613 378 581 Z" fill="rgba(0,0,0,0.5)" stroke="none" />
<path d="M399 581 420 581 420 613 399 613 399 581 Z" fill="rgba(0,0,0,0.5)" stroke="none" />
<path d="M0 613 21 613 21 646 0 646 0 613 Z" fill="rgba(0,0,0,0.5)" stroke="none" />
<path d="M21 613 42 613 42 646 21 646 21 613 Z" fill="rgba(42,42,42,0.5)" stroke="none" />
<path d="M42 613 63 613 63 646 42 646 42 613 Z" fill="rgba(111,111,111,0.5)" stroke="none" />
<path d="M63 613 84 613 84 646 63 646 63 613 Z" fill="rgba(51,51,51,0.5)" stroke="none" />
<path d="M84 613 105 613 105 646 84 646 84 613 Z" fill="rgba(42,42,42,0.5)" stroke="none" />
<path d="M105 613 126 613 126 646 105 646 105 613 Z" fill="rgba(50,50,50,0.5)" stroke="none" />
<path d="M126 613 147 613 147 646 126 646 126 613 Z" fill="rgba(74,74,74,0.5)" stroke="none" />
<path d="M147 613 168 613 168 646 147 646 147 613 Z" fill="rgba(142,142,142,0.5)" stroke="none" />
<path d="M168 613 189 613 189 646 168 646 168 613 Z" fill="rgba(133,133,133,0.5)" stroke="none" />
<path d="M189 613 210 613 210 646 189 646 189 613 Z" fill="rgba(143,143,143,0.5)" stroke="none" />
<path d="M210 613 231 613 231 646 210 646 210 613 Z" fill="rgba(143,143,143,0.5)" stroke="none" />
<path d="M231 613 252 613 252 646 231 646 231 613 Z" fill="rgba(87,87,87,0.5)" stroke="none" />
<path d="M252 613 273 613 273 646 252 646 252 613 Z" fill="rgba(76,76,76,0.5)" stroke="none" />
<path d="M273 613 294 613 294 646 273 646 273 613 Z" fill="rgba(37,37,37,0.5)" stroke="none" />
<path d="M294 613 315 613 315 646 294 646 294 613 Z" fill="rgba(10,10,10,0.5)" stroke="none" />
<path d="M315 613 336 613 336 646 315 646 315 613 Z" fill="rgba(3,3,3,0.5)" stroke="none" />
<path d="M336 613 357 613 357 646 336 646 336 613 Z" fill="rgba(0,0,0,0.5)" stroke="none" />
<path d="M357 613 378 613 378 646 357 646 357 613 Z" fill="rgba(0,0,0,0.5)" stroke="none" />
<path d="M378 613 399 613 399 646 378 646 378 613 Z" fill="rgba(0,0,0,0.5)" stroke="none" />
<path d="M399 613 420 613 420 646 399 646 399 613 Z" fill="rgba(0,0,0,0.5)" stroke="none" />
</svg>