<svg width="100%" height="100%" version="1.1" xmlns="http://www.w3.org/2000/svg"> 
<path d="M182 498 201 498 203 495 222 497 201 494 198 497 192 495 Z" fill="none" stroke="black" stroke-width="1.264825" />
<path d="M103 497 111 495 113 498 112 494 118 492 130 498 125 492 112 491 Z" fill="none" stroke="black" stroke-width="1.163861" />
<path d="M242 414 231 426 232 438 227 434 229 429 224 432 228 438 226 441 223 436 218 436 218 442 215 442 207 430 204 437 207 439 205 434 208 433 215 445 219 443 220 437 228 443 236 435 233 428 242 420 Z" fill="none" stroke="black" stroke-width="1.877455" />
<path d="M111 407 110 410 124 425 127 437 141 449 142 454 145 447 138 445 139 439 137 442 131 438 125 427 131 423 125 424 118 412 Z" fill="none" stroke="black" stroke-width="1.608455" />
<path d="M182 400 180 430 183 438 178 441 171 432 169 434 181 444 181 447 183 446 184 417 190 423 190 428 198 431 199 440 196 443 200 442 205 450 205 444 199 438 199 428 205 420 195 429 187 415 187 408 198 399 194 397 196 401 189 403 185 410 Z" fill="none" stroke="black" stroke-width="2.419044" />
<path d="M172 391 178 398 188 397 192 393 181 397 175 393 178 388 Z" fill="none" stroke="black" stroke-width="1.122754" />
<path d="M272 385 268 385 262 394 252 383 248 385 243 402 228 417 232 419 231 416 242 407 240 405 245 404 248 387 252 385 257 394 266 395 267 390 272 395 266 409 261 413 251 397 260 415 266 413 267 407 273 401 273 394 269 390 Z" fill="none" stroke="black" stroke-width="2.319445" />
<path d="M92 379 100 391 107 388 118 390 116 386 106 386 102 389 Z" fill="none" stroke="black" stroke-width="1.140753" />
<path d="M210 378 206 374 203 377 174 376 150 380 159 382 175 377 Z" fill="none" stroke="black" stroke-width="1.358710" />
<path d="M239 358 225 358 207 353 182 359 147 356 134 360 124 359 121 362 134 362 148 357 183 360 208 354 224 359 Z" fill="none" stroke="black" stroke-width="2.179783" />
<path d="M308 349 305 349 302 357 301 381 294 391 289 392 286 402 281 406 287 410 284 415 290 494 282 486 276 492 267 492 263 486 256 484 252 488 255 491 254 495 227 495 225 498 257 496 256 487 260 487 266 495 278 493 283 489 287 496 291 496 285 426 288 407 285 404 291 393 299 389 305 352 Z" fill="none" stroke="black" stroke-width="3.739375" />
<path d="M207 347 197 351 192 349 186 353 150 351 187 354 207 350 Z" fill="none" stroke="black" stroke-width="1.523992" />
<path d="M49 338 45 348 50 352 56 366 56 384 64 397 70 399 76 413 74 427 77 493 80 498 75 416 79 413 91 425 92 423 74 408 71 397 65 394 60 387 62 385 57 382 57 365 48 346 Z" fill="none" stroke="black" stroke-width="3.071957" />
<path d="M240 329 251 343 252 352 257 358 253 361 248 351 245 351 254 363 258 356 248 334 Z" fill="none" stroke="black" stroke-width="1.429384" />
<path d="M237 353 197 338 199 321 196 315 196 333 191 338 182 341 163 338 140 350 122 355 136 353 164 339 184 342 196 338 236 356 Z" fill="none" stroke="black" stroke-width="2.539256" />
<path d="M192 299 194 305 207 300 207 296 202 291 195 291 200 292 206 299 197 302 Z" fill="none" stroke="black" stroke-width="1.197055" />
<path d="M195 267 196 278 192 290 180 294 183 300 192 294 193 286 198 280 198 270 Z" fill="none" stroke="black" stroke-width="1.302106" />
<path d="M328 265 319 279 323 298 320 299 318 294 314 304 314 314 307 338 307 345 310 347 323 339 332 321 331 317 325 332 317 342 311 345 308 343 313 319 317 315 323 315 326 309 320 281 326 269 329 269 331 297 334 298 331 267 Z" fill="none" stroke="black" stroke-width="2.795363" />
<path d="M155 259 148 266 142 282 142 303 145 309 153 314 160 312 166 303 175 298 180 299 172 291 167 291 166 287 169 285 165 285 165 290 155 300 151 294 148 298 162 306 159 311 151 311 143 302 143 283 Z" fill="none" stroke="black" stroke-width="2.126890" />
<path d="M206 256 206 262 215 279 215 305 211 309 188 308 182 314 170 306 165 309 166 311 170 309 177 315 184 315 190 309 212 311 216 307 216 278 Z" fill="none" stroke="black" stroke-width="2.000429" />
<path d="M8 241 0 251 3 294 9 301 6 307 13 317 23 322 23 330 30 327 24 325 23 320 26 317 35 321 41 339 40 347 27 344 11 318 12 324 24 345 42 348 42 338 36 320 29 314 22 320 8 307 11 300 4 291 1 276 3 248 8 243 17 244 27 256 26 266 15 252 6 248 3 260 10 267 9 273 6 273 11 279 9 295 14 297 18 268 27 281 24 290 26 297 29 281 21 267 15 264 14 292 11 292 12 266 6 260 8 250 27 269 27 274 29 256 21 244 Z" fill="none" stroke="black" stroke-width="5.335289" />
<path d="M337 240 328 241 320 249 319 265 322 250 327 244 336 241 341 245 323 260 324 264 341 246 344 249 344 260 340 264 340 254 337 252 334 288 338 266 341 266 337 301 320 322 322 327 322 322 334 312 343 278 345 249 Z" fill="none" stroke="black" stroke-width="3.070411" />
<path d="M312 240 313 263 308 263 310 267 302 282 301 298 298 307 290 316 292 320 289 324 293 321 291 316 299 309 305 278 316 259 Z" fill="none" stroke="black" stroke-width="1.846879" />
<path d="M233 214 237 221 246 220 240 220 236 216 245 213 240 214 239 211 236 216 Z" fill="none" stroke="black" stroke-width="1.138743" />
<path d="M104 218 114 220 118 216 108 211 115 216 112 219 108 219 107 216 Z" fill="none" stroke="black" stroke-width="1.107063" />
<path d="M210 219 212 223 236 229 239 235 240 230 247 228 253 220 257 226 264 229 253 217 242 228 213 222 215 217 224 214 221 220 227 216 230 223 234 223 227 215 237 208 227 211 226 214 216 214 Z" fill="none" stroke="black" stroke-width="2.147212" />
<path d="M204 217 206 226 219 235 219 232 211 228 205 220 219 206 238 206 257 215 270 226 270 233 264 236 257 228 261 237 272 235 273 226 278 229 259 214 240 206 240 203 256 206 268 217 270 216 264 208 241 200 238 203 234 200 229 205 218 205 Z" fill="none" stroke="black" stroke-width="2.785113" />
<path d="M76 226 80 226 110 206 120 209 128 216 121 217 118 224 112 226 102 225 98 216 88 228 89 231 97 219 99 226 118 228 114 231 104 231 101 228 94 229 95 231 115 232 129 226 137 226 127 211 111 205 89 214 89 210 99 203 114 200 134 205 139 214 129 212 142 221 145 220 138 215 141 213 154 223 156 221 137 205 126 200 114 199 96 203 95 201 101 200 102 197 87 203 80 210 79 220 80 213 87 205 89 207 86 214 90 215 Z" fill="none" stroke="black" stroke-width="4.182310" />
<path d="M291 212 286 200 269 194 229 194 213 199 259 194 283 200 Z" fill="none" stroke="black" stroke-width="1.773688" />
<path d="M92 187 97 191 134 197 127 193 Z" fill="none" stroke="black" stroke-width="1.136328" />
<path d="M272 175 282 184 288 185 295 195 301 214 299 221 302 221 301 208 291 185 Z" fill="none" stroke="black" stroke-width="1.423344" />
<path d="M261 187 258 186 256 179 236 172 206 191 210 191 215 185 237 173 257 182 257 188 Z" fill="none" stroke="black" stroke-width="1.613495" />
<path d="M216 172 206 176 201 188 208 177 214 173 215 175 Z" fill="none" stroke="black" stroke-width="1.102371" />
<path d="M95 167 76 170 72 178 61 182 54 198 53 211 62 185 70 181 79 170 Z" fill="none" stroke="black" stroke-width="1.548556" />
<path d="M141 166 149 175 156 175 162 180 158 172 150 173 Z" fill="none" stroke="black" stroke-width="1.088070" />
<path d="M140 181 127 168 128 166 120 166 91 173 81 181 76 181 76 185 95 173 120 167 131 172 140 184 Z" fill="none" stroke="black" stroke-width="1.754151" />
<path d="M130 164 138 168 149 190 139 166 Z" fill="none" stroke="black" stroke-width="1.181616" />
<path d="M316 92 314 96 320 106 317 107 317 115 325 130 325 137 329 134 323 147 331 171 331 201 322 238 325 241 323 239 328 228 332 202 332 170 325 147 332 131 331 118 326 112 329 105 322 94 Z" fill="none" stroke="black" stroke-width="2.761830" />
<path d="M318 93 328 106 325 114 329 120 326 123 329 124 330 133 326 131 319 115 320 111 323 113 323 107 317 98 Z" fill="none" stroke="black" stroke-width="1.393711" />
<path d="M274 89 295 109 296 114 307 126 310 138 317 137 317 133 311 135 308 125 293 103 280 90 Z" fill="none" stroke="black" stroke-width="1.635270" />
<path d="M74 81 67 81 63 87 53 92 53 96 58 90 64 89 67 83 Z" fill="none" stroke="black" stroke-width="1.124661" />
<path d="M195 68 203 72 220 71 227 75 253 79 262 89 267 89 278 97 268 87 256 83 252 77 228 74 220 69 204 71 Z" fill="none" stroke="black" stroke-width="1.877144" />
<path d="M159 57 168 54 176 63 176 58 184 60 181 56 176 57 168 52 163 52 Z" fill="none" stroke="black" stroke-width="1.180224" />
<path d="M266 45 269 48 274 43 291 45 311 57 291 43 274 42 Z" fill="none" stroke="black" stroke-width="1.382372" />
<path d="M195 24 199 30 206 32 206 36 200 36 209 38 210 41 206 45 235 46 238 49 218 54 253 52 260 61 250 60 239 67 250 61 261 63 263 57 255 51 239 49 240 45 217 45 211 41 207 30 202 28 225 24 203 24 202 28 Z" fill="none" stroke="black" stroke-width="2.753147" />
<path d="M206 19 206 22 211 19 228 22 228 19 Z" fill="none" stroke="black" stroke-width="1.000000" />
<path d="M225 15 241 19 230 22 230 25 257 20 254 18 243 21 241 18 245 15 Z" fill="none" stroke="black" stroke-width="1.315379" />
<path d="M239 12 230 10 216 15 182 13 176 16 159 39 159 52 163 35 182 15 195 13 200 16 219 16 221 13 Z" fill="none" stroke="black" stroke-width="1.978241" />
<path d="M124 3 121 3 113 14 110 24 112 44 106 57 112 49 113 32 118 26 115 15 Z" fill="none" stroke="black" stroke-width="1.468884" />
<path d="M238 7 241 10 250 7 252 9 245 13 250 12 252 15 262 15 266 18 278 13 278 16 296 22 293 20 295 18 302 23 304 30 295 34 305 32 313 41 314 49 297 36 295 39 306 45 310 51 314 51 314 65 319 73 319 79 329 88 326 92 332 105 334 101 329 92 331 86 320 77 316 65 316 44 305 29 302 19 285 10 284 4 281 3 262 4 254 0 252 2 261 5 280 4 283 7 278 7 278 10 288 13 293 19 278 12 267 16 254 13 255 7 253 9 251 6 Z" fill="none" stroke="black" stroke-width="3.970652" />
<path d="M192 0 204 5 246 2 213 1 205 4 199 0 Z" fill="none" stroke="black" stroke-width="1.446077" />
<path d="M163 0 151 11 145 23 144 46 147 55 149 52 156 54 146 48 146 23 153 12 162 5 Z" fill="none" stroke="black" stroke-width="1.626898" />
<path d="M124 0 127 4 141 5 157 2 156 0 147 4 139 0 138 3 130 3 Z" fill="none" stroke="black" stroke-width="1.229126" />
<path d="M113 0 102 13 94 13 91 16 79 13 76 16 73 33 69 39 60 43 70 48 58 48 51 58 42 64 41 73 54 73 39 85 29 101 23 105 23 127 17 134 12 134 6 148 12 206 23 241 23 228 18 222 7 149 12 138 17 136 15 146 18 136 23 132 24 108 41 86 55 75 69 75 58 75 57 69 66 70 60 68 45 73 42 71 44 65 49 63 60 49 72 52 69 49 75 48 67 42 71 40 72 34 75 34 75 22 82 15 88 20 91 18 93 21 96 15 100 14 103 17 101 25 106 39 94 66 98 63 107 40 103 18 115 2 Z" fill="none" stroke="black" stroke-width="6.000000" />

<path d="M0 0 16 0 16 22 0 22 0 0 Z" fill="rgba(0,0,0,0.5)" stroke="none" />
<path d="M16 0 32 0 32 22 16 22 16 0 Z" fill="rgba(0,0,0,0.5)" stroke="none" />
<path d="M32 0 48 0 48 22 32 22 32 0 Z" fill="rgba(0,0,0,0.5)" stroke="none" />
<path d="M48 0 64 0 64 22 48 22 48 0 Z" fill="rgba(0,0,0,0.5)" stroke="none" />
<path d="M64 0 80 0 80 22 64 22 64 0 Z" fill="rgba(0,0,0,0.5)" stroke="none" />
<path d="M80 0 96 0 96 22 80 22 80 0 Z" fill="rgba(0,0,0,0.5)" stroke="none" />
<path d="M96 0 112 0 112 22 96 22 96 0 Z" fill="rgba(0,0,0,0.5)" stroke="none" />
<path d="M112 0 128 0 128 22 112 22 112 0 Z" fill="rgba(60,60,60,0.5)" stroke="none" />
<path d="M128 0 144 0 144 22 128 22 128 0 Z" fill="rgba(105,105,105,0.5)" stroke="none" />
<path d="M144 0 160 0 160 22 144 22 144 0 Z" fill="rgba(58,58,58,0.5)" stroke="none" />
<path d="M160 0 176 0 176 22 160 22 160 0 Z" fill="rgba(49,49,49,0.5)" stroke="none" />
<path d="M176 0 192 0 192 22 176 22 176 0 Z" fill="rgba(99,99,99,0.5)" stroke="none" />
<path d="M192 0 208 0 208 22 192 22 192 0 Z" fill="rgba(100,100,100,0.5)" stroke="none" />
<path d="M208 0 224 0 224 22 208 22 208 0 Z" fill="rgba(103,103,103,0.5)" stroke="none" />
<path d="M224 0 240 0 240 22 224 22 224 0 Z" fill="rgba(67,67,67,0.5)" stroke="none" />
<path d="M240 0 256 0 256 22 240 22 240 0 Z" fill="rgba(14,14,14,0.5)" stroke="none" />
<path d="M256 0 272 0 272 22 256 22 256 0 Z" fill="rgba(0,0,0,0.5)" stroke="none" />
<path d="M272 0 288 0 288 22 272 22 272 0 Z" fill="rgba(0,0,0,0.5)" stroke="none" />
<path d="M288 0 304 0 304 22 288 22 288 0 Z" fill="rgba(0,0,0,0.5)" stroke="none" />
<path d="M304 0 320 0 320 22 304 22 304 0 Z" fill="rgba(0,0,0,0.5)" stroke="none" />
<path d="M0 22 16 22 16 45 0 45 0 22 Z" fill="rgba(0,0,0,0.5)" stroke="none" />
<path d="M16 22 32 22 32 45 16 45 16 22 Z" fill="rgba(0,0,0,0.5)" stroke="none" />
<path d="M32 22 48 22 48 45 32 45 32 22 Z" fill="rgba(0,0,0,0.5)" stroke="none" />
<path d="M48 22 64 22 64 45 48 45 48 22 Z" fill="rgba(0,0,0,0.5)" stroke="none" />
<path d="M64 22 80 22 80 45 64 45 64 22 Z" fill="rgba(0,0,0,0.5)" stroke="none" />
<path d="M80 22 96 22 96 45 80 45 80 22 Z" fill="rgba(0,0,0,0.5)" stroke="none" />
<path d="M96 22 112 22 112 45 96 45 96 22 Z" fill="rgba(35,35,35,0.5)" stroke="none" />
<path d="M112 22 128 22 128 45 112 45 112 22 Z" fill="rgba(94,94,94,0.5)" stroke="none" />
<path d="M128 22 144 22 144 45 128 45 128 22 Z" fill="rgba(90,90,90,0.5)" stroke="none" />
<path d="M144 22 160 22 160 45 144 45 144 22 Z" fill="rgba(52,52,52,0.5)" stroke="none" />
<path d="M160 22 176 22 176 45 160 45 160 22 Z" fill="rgba(31,31,31,0.5)" stroke="none" />
<path d="M176 22 192 22 192 45 176 45 176 22 Z" fill="rgba(83,83,83,0.5)" stroke="none" />
<path d="M192 22 208 22 208 45 192 45 192 22 Z" fill="rgba(102,102,102,0.5)" stroke="none" />
<path d="M208 22 224 22 224 45 208 45 208 22 Z" fill="rgba(61,61,61,0.5)" stroke="none" />
<path d="M224 22 240 22 240 45 224 45 224 22 Z" fill="rgba(31,31,31,0.5)" stroke="none" />
<path d="M240 22 256 22 256 45 240 45 240 22 Z" fill="rgba(16,16,16,0.5)" stroke="none" />
<path d="M256 22 272 22 272 45 256 45 256 22 Z" fill="rgba(2,2,2,0.5)" stroke="none" />
<path d="M272 22 288 22 288 45 272 45 272 22 Z" fill="rgba(0,0,0,0.5)" stroke="none" />
<path d="M288 22 304 22 304 45 288 45 288 22 Z" fill="rgba(0,0,0,0.5)" stroke="none" />
<path d="M304 22 320 22 320 45 304 45 304 22 Z" fill="rgba(0,0,0,0.5)" stroke="none" />
<path d="M0 45 16 45 16 68 0 68 0 45 Z" fill="rgba(0,0,0,0.5)" stroke="none" />
<path d="M16 45 32 45 32 68 16 68 16 45 Z" fill="rgba(0,0,0,0.5)" stroke="none" />
<path d="M32 45 48 45 48 68 32 68 32 45 Z" fill="rgba(0,0,0,0.5)" stroke="none" />
<path d="M48 45 64 45 64 68 48 68 48 45 Z" fill="rgba(0,0,0,0.5)" stroke="none" />
<path d="M64 45 80 45 80 68 64 68 64 45 Z" fill="rgba(0,0,0,0.5)" stroke="none" />
<path d="M80 45 96 45 96 68 80 68 80 45 Z" fill="rgba(42,42,42,0.5)" stroke="none" />
<path d="M96 45 112 45 112 68 96 68 96 45 Z" fill="rgba(49,49,49,0.5)" stroke="none" />
<path d="M112 45 128 45 128 68 112 68 112 45 Z" fill="rgba(111,111,111,0.5)" stroke="none" />
<path d="M128 45 144 45 144 68 128 68 128 45 Z" fill="rgba(119,119,119,0.5)" stroke="none" />
<path d="M144 45 160 45 160 68 144 68 144 45 Z" fill="rgba(127,127,127,0.5)" stroke="none" />
<path d="M160 45 176 45 176 68 160 68 160 45 Z" fill="rgba(103,103,103,0.5)" stroke="none" />
<path d="M176 45 192 45 192 68 176 68 176 45 Z" fill="rgba(62,62,62,0.5)" stroke="none" />
<path d="M192 45 208 45 208 68 192 68 192 45 Z" fill="rgba(43,43,43,0.5)" stroke="none" />
<path d="M208 45 224 45 224 68 208 68 208 45 Z" fill="rgba(62,62,62,0.5)" stroke="none" />
<path d="M224 45 240 45 240 68 224 68 224 45 Z" fill="rgba(77,77,77,0.5)" stroke="none" />
<path d="M240 45 256 45 256 68 240 68 240 45 Z" fill="rgba(62,62,62,0.5)" stroke="none" />
<path d="M256 45 272 45 272 68 256 68 256 45 Z" fill="rgba(24,24,24,0.5)" stroke="none" />
<path d="M272 45 288 45 288 68 272 68 272 45 Z" fill="rgba(0,0,0,0.5)" stroke="none" />
<path d="M288 45 304 45 304 68 288 68 288 45 Z" fill="rgba(0,0,0,0.5)" stroke="none" />
<path d="M304 45 320 45 320 68 304 68 304 45 Z" fill="rgba(0,0,0,0.5)" stroke="none" />
<path d="M0 68 16 68 16 91 0 91 0 68 Z" fill="rgba(0,0,0,0.5)" stroke="none" />
<path d="M16 68 32 68 32 91 16 91 16 68 Z" fill="rgba(0,0,0,0.5)" stroke="none" />
<path d="M32 68 48 68 48 91 32 91 32 68 Z" fill="rgba(0,0,0,0.5)" stroke="none" />
<path d="M48 68 64 68 64 91 48 91 48 68 Z" fill="rgba(0,0,0,0.5)" stroke="none" />
<path d="M64 68 80 68 80 91 64 91 64 68 Z" fill="rgba(29,29,29,0.5)" stroke="none" />
<path d="M80 68 96 68 96 91 80 91 80 68 Z" fill="rgba(82,82,82,0.5)" stroke="none" />
<path d="M96 68 112 68 112 91 96 91 96 68 Z" fill="rgba(135,135,135,0.5)" stroke="none" />
<path d="M112 68 128 68 128 91 112 91 112 68 Z" fill="rgba(169,169,169,0.5)" stroke="none" />
<path d="M128 68 144 68 144 91 128 91 128 68 Z" fill="rgba(182,182,182,0.5)" stroke="none" />
<path d="M144 68 160 68 160 91 144 91 144 68 Z" fill="rgba(192,192,192,0.5)" stroke="none" />
<path d="M160 68 176 68 176 91 160 91 160 68 Z" fill="rgba(197,197,197,0.5)" stroke="none" />
<path d="M176 68 192 68 192 91 176 91 176 68 Z" fill="rgba(190,190,190,0.5)" stroke="none" />
<path d="M192 68 208 68 208 91 192 91 192 68 Z" fill="rgba(177,177,177,0.5)" stroke="none" />
<path d="M208 68 224 68 224 91 208 91 208 68 Z" fill="rgba(145,145,145,0.5)" stroke="none" />
<path d="M224 68 240 68 240 91 224 91 224 68 Z" fill="rgba(86,86,86,0.5)" stroke="none" />
<path d="M240 68 256 68 256 91 240 91 240 68 Z" fill="rgba(49,49,49,0.5)" stroke="none" />
<path d="M256 68 272 68 272 91 256 91 256 68 Z" fill="rgba(21,21,21,0.5)" stroke="none" />
<path d="M272 68 288 68 288 91 272 91 272 68 Z" fill="rgba(0,0,0,0.5)" stroke="none" />
<path d="M288 68 304 68 304 91 288 91 288 68 Z" fill="rgba(0,0,0,0.5)" stroke="none" />
<path d="M304 68 320 68 320 91 304 91 304 68 Z" fill="rgba(0,0,0,0.5)" stroke="none" />
<path d="M0 91 16 91 16 114 0 114 0 91 Z" fill="rgba(0,0,0,0.5)" stroke="none" />
<path d="M16 91 32 91 32 114 16 114 16 91 Z" fill="rgba(0,0,0,0.5)" stroke="none" />
<path d="M32 91 48 91 48 114 32 114 32 91 Z" fill="rgba(0,0,0,0.5)" stroke="none" />
<path d="M48 91 64 91 64 114 48 114 48 91 Z" fill="rgba(0,0,0,0.5)" stroke="none" />
<path d="M64 91 80 91 80 114 64 114 64 91 Z" fill="rgba(45,45,45,0.5)" stroke="none" />
<path d="M80 91 96 91 96 114 80 114 80 91 Z" fill="rgba(113,113,113,0.5)" stroke="none" />
<path d="M96 91 112 91 112 114 96 114 96 91 Z" fill="rgba(160,160,160,0.5)" stroke="none" />
<path d="M112 91 128 91 128 114 112 114 112 91 Z" fill="rgba(190,190,190,0.5)" stroke="none" />
<path d="M128 91 144 91 144 114 128 114 128 91 Z" fill="rgba(203,203,203,0.5)" stroke="none" />
<path d="M144 91 160 91 160 114 144 114 144 91 Z" fill="rgba(209,209,209,0.5)" stroke="none" />
<path d="M160 91 176 91 176 114 160 114 160 91 Z" fill="rgba(211,211,211,0.5)" stroke="none" />
<path d="M176 91 192 91 192 114 176 114 176 91 Z" fill="rgba(209,209,209,0.5)" stroke="none" />
<path d="M192 91 208 91 208 114 192 114 192 91 Z" fill="rgba(201,201,201,0.5)" stroke="none" />
<path d="M208 91 224 91 224 114 208 114 208 91 Z" fill="rgba(178,178,178,0.5)" stroke="none" />
<path d="M224 91 240 91 240 114 224 114 224 91 Z" fill="rgba(138,138,138,0.5)" stroke="none" />
<path d="M240 91 256 91 256 114 240 114 240 91 Z" fill="rgba(72,72,72,0.5)" stroke="none" />
<path d="M256 91 272 91 272 114 256 114 256 91 Z" fill="rgba(13,13,13,0.5)" stroke="none" />
<path d="M272 91 288 91 288 114 272 114 272 91 Z" fill="rgba(0,0,0,0.5)" stroke="none" />
<path d="M288 91 304 91 304 114 288 114 288 91 Z" fill="rgba(0,0,0,0.5)" stroke="none" />
<path d="M304 91 320 91 320 114 304 114 304 91 Z" fill="rgba(0,0,0,0.5)" stroke="none" />
<path d="M0 114 16 114 16 137 0 137 0 114 Z" fill="rgba(0,0,0,0.5)" stroke="none" />
<path d="M16 114 32 114 32 137 16 137 16 114 Z" fill="rgba(0,0,0,0.5)" stroke="none" />
<path d="M32 114 48 114 48 137 32 137 32 114 Z" fill="rgba(0,0,0,0.5)" stroke="none" />
<path d="M48 114 64 114 64 137 48 137 48 114 Z" fill="rgba(27,27,27,0.5)" stroke="none" />
<path d="M64 114 80 114 80 137 64 137 64 114 Z" fill="rgba(52,52,52,0.5)" stroke="none" />
<path d="M80 114 96 114 96 137 80 137 80 114 Z" fill="rgba(115,115,115,0.5)" stroke="none" />
<path d="M96 114 112 114 112 137 96 137 96 114 Z" fill="rgba(164,164,164,0.5)" stroke="none" />
<path d="M112 114 128 114 128 137 112 137 112 114 Z" fill="rgba(192,192,192,0.5)" stroke="none" />
<path d="M128 114 144 114 144 137 128 137 128 114 Z" fill="rgba(211,211,211,0.5)" stroke="none" />
<path d="M144 114 160 114 160 137 144 137 144 114 Z" fill="rgba(217,217,217,0.5)" stroke="none" />
<path d="M160 114 176 114 176 137 160 137 160 114 Z" fill="rgba(215,215,215,0.5)" stroke="none" />
<path d="M176 114 192 114 192 137 176 137 176 114 Z" fill="rgba(213,213,213,0.5)" stroke="none" />
<path d="M192 114 208 114 208 137 192 137 192 114 Z" fill="rgba(205,205,205,0.5)" stroke="none" />
<path d="M208 114 224 114 224 137 208 137 208 114 Z" fill="rgba(182,182,182,0.5)" stroke="none" />
<path d="M224 114 240 114 240 137 224 137 224 114 Z" fill="rgba(147,147,147,0.5)" stroke="none" />
<path d="M240 114 256 114 256 137 240 137 240 114 Z" fill="rgba(85,85,85,0.5)" stroke="none" />
<path d="M256 114 272 114 272 137 256 137 256 114 Z" fill="rgba(20,20,20,0.5)" stroke="none" />
<path d="M272 114 288 114 288 137 272 137 272 114 Z" fill="rgba(0,0,0,0.5)" stroke="none" />
<path d="M288 114 304 114 304 137 288 137 288 114 Z" fill="rgba(0,0,0,0.5)" stroke="none" />
<path d="M304 114 320 114 320 137 304 137 304 114 Z" fill="rgba(0,0,0,0.5)" stroke="none" />
<path d="M0 137 16 137 16 160 0 160 0 137 Z" fill="rgba(0,0,0,0.5)" stroke="none" />
<path d="M16 137 32 137 32 160 16 160 16 137 Z" fill="rgba(0,0,0,0.5)" stroke="none" />
<path d="M32 137 48 137 48 160 32 160 32 137 Z" fill="rgba(0,0,0,0.5)" stroke="none" />
<path d="M48 137 64 137 64 160 48 160 48 137 Z" fill="rgba(29,29,29,0.5)" stroke="none" />
<path d="M64 137 80 137 80 160 64 160 64 137 Z" fill="rgba(48,48,48,0.5)" stroke="none" />
<path d="M80 137 96 137 96 160 80 160 80 137 Z" fill="rgba(109,109,109,0.5)" stroke="none" />
<path d="M96 137 112 137 112 160 96 160 96 137 Z" fill="rgba(166,166,166,0.5)" stroke="none" />
<path d="M112 137 128 137 128 160 112 160 112 137 Z" fill="rgba(199,199,199,0.5)" stroke="none" />
<path d="M128 137 144 137 144 160 128 160 128 137 Z" fill="rgba(220,220,220,0.5)" stroke="none" />
<path d="M144 137 160 137 160 160 144 160 144 137 Z" fill="rgba(229,229,229,0.5)" stroke="none" />
<path d="M160 137 176 137 176 160 160 160 160 137 Z" fill="rgba(231,231,231,0.5)" stroke="none" />
<path d="M176 137 192 137 192 160 176 160 176 137 Z" fill="rgba(225,225,225,0.5)" stroke="none" />
<path d="M192 137 208 137 208 160 192 160 192 137 Z" fill="rgba(216,216,216,0.5)" stroke="none" />
<path d="M208 137 224 137 224 160 208 160 208 137 Z" fill="rgba(195,195,195,0.5)" stroke="none" />
<path d="M224 137 240 137 240 160 224 160 224 137 Z" fill="rgba(150,150,150,0.5)" stroke="none" />
<path d="M240 137 256 137 256 160 240 160 240 137 Z" fill="rgba(91,91,91,0.5)" stroke="none" />
<path d="M256 137 272 137 272 160 256 160 256 137 Z" fill="rgba(28,28,28,0.5)" stroke="none" />
<path d="M272 137 288 137 288 160 272 160 272 137 Z" fill="rgba(0,0,0,0.5)" stroke="none" />
<path d="M288 137 304 137 304 160 288 160 288 137 Z" fill="rgba(0,0,0,0.5)" stroke="none" />
<path d="M304 137 320 137 320 160 304 160 304 137 Z" fill="rgba(0,0,0,0.5)" stroke="none" />
<path d="M0 160 16 160 16 182 0 182 0 160 Z" fill="rgba(0,0,0,0.5)" stroke="none" />
<path d="M16 160 32 160 32 182 16 182 16 160 Z" fill="rgba(0,0,0,0.5)" stroke="none" />
<path d="M32 160 48 160 48 182 32 182 32 160 Z" fill="rgba(0,0,0,0.5)" stroke="none" />
<path d="M48 160 64 160 64 182 48 182 48 160 Z" fill="rgba(34,34,34,0.5)" stroke="none" />
<path d="M64 160 80 160 80 182 64 182 64 160 Z" fill="rgba(58,58,58,0.5)" stroke="none" />
<path d="M80 160 96 160 96 182 80 182 80 160 Z" fill="rgba(72,72,72,0.5)" stroke="none" />
<path d="M96 160 112 160 112 182 96 182 96 160 Z" fill="rgba(110,110,110,0.5)" stroke="none" />
<path d="M112 160 128 160 128 182 112 182 112 160 Z" fill="rgba(100,100,100,0.5)" stroke="none" />
<path d="M128 160 144 160 144 182 128 182 128 160 Z" fill="rgba(118,118,118,0.5)" stroke="none" />
<path d="M144 160 160 160 160 182 144 182 144 160 Z" fill="rgba(169,169,169,0.5)" stroke="none" />
<path d="M160 160 176 160 176 182 160 182 160 160 Z" fill="rgba(192,192,192,0.5)" stroke="none" />
<path d="M176 160 192 160 192 182 176 182 176 160 Z" fill="rgba(151,151,151,0.5)" stroke="none" />
<path d="M192 160 208 160 208 182 192 182 192 160 Z" fill="rgba(108,108,108,0.5)" stroke="none" />
<path d="M208 160 224 160 224 182 208 182 208 160 Z" fill="rgba(101,101,101,0.5)" stroke="none" />
<path d="M224 160 240 160 240 182 224 182 224 160 Z" fill="rgba(95,95,95,0.5)" stroke="none" />
<path d="M240 160 256 160 256 182 240 182 240 160 Z" fill="rgba(76,76,76,0.5)" stroke="none" />
<path d="M256 160 272 160 272 182 256 182 256 160 Z" fill="rgba(31,31,31,0.5)" stroke="none" />
<path d="M272 160 288 160 288 182 272 182 272 160 Z" fill="rgba(0,0,0,0.5)" stroke="none" />
<path d="M288 160 304 160 304 182 288 182 288 160 Z" fill="rgba(0,0,0,0.5)" stroke="none" />
<path d="M304 160 320 160 320 182 304 182 304 160 Z" fill="rgba(0,0,0,0.5)" stroke="none" />
<path d="M0 182 16 182 16 205 0 205 0 182 Z" fill="rgba(0,0,0,0.5)" stroke="none" />
<path d="M16 182 32 182 32 205 16 205 16 182 Z" fill="rgba(0,0,0,0.5)" stroke="none" />
<path d="M32 182 48 182 48 205 32 205 32 182 Z" fill="rgba(0,0,0,0.5)" stroke="none" />
<path d="M48 182 64 182 64 205 48 205 48 182 Z" fill="rgba(17,17,17,0.5)" stroke="none" />
<path d="M64 182 80 182 80 205 64 205 64 182 Z" fill="rgba(65,65,65,0.5)" stroke="none" />
<path d="M80 182 96 182 96 205 80 205 80 182 Z" fill="rgba(85,85,85,0.5)" stroke="none" />
<path d="M96 182 112 182 112 205 96 205 96 182 Z" fill="rgba(117,117,117,0.5)" stroke="none" />
<path d="M112 182 128 182 128 205 112 205 112 182 Z" fill="rgba(70,70,70,0.5)" stroke="none" />
<path d="M128 182 144 182 144 205 128 205 128 182 Z" fill="rgba(134,134,134,0.5)" stroke="none" />
<path d="M144 182 160 182 160 205 144 205 144 182 Z" fill="rgba(162,162,162,0.5)" stroke="none" />
<path d="M160 182 176 182 176 205 160 205 160 182 Z" fill="rgba(176,176,176,0.5)" stroke="none" />
<path d="M176 182 192 182 192 205 176 205 176 182 Z" fill="rgba(169,169,169,0.5)" stroke="none" />
<path d="M192 182 208 182 208 205 192 205 192 182 Z" fill="rgba(103,103,103,0.5)" stroke="none" />
<path d="M208 182 224 182 224 205 208 205 208 182 Z" fill="rgba(94,94,94,0.5)" stroke="none" />
<path d="M224 182 240 182 240 205 224 205 224 182 Z" fill="rgba(96,96,96,0.5)" stroke="none" />
<path d="M240 182 256 182 256 205 240 205 240 182 Z" fill="rgba(73,73,73,0.5)" stroke="none" />
<path d="M256 182 272 182 272 205 256 205 256 182 Z" fill="rgba(32,32,32,0.5)" stroke="none" />
<path d="M272 182 288 182 288 205 272 205 272 182 Z" fill="rgba(0,0,0,0.5)" stroke="none" />
<path d="M288 182 304 182 304 205 288 205 288 182 Z" fill="rgba(0,0,0,0.5)" stroke="none" />
<path d="M304 182 320 182 320 205 304 205 304 182 Z" fill="rgba(0,0,0,0.5)" stroke="none" />
<path d="M0 205 16 205 16 228 0 228 0 205 Z" fill="rgba(0,0,0,0.5)" stroke="none" />
<path d="M16 205 32 205 32 228 16 228 16 205 Z" fill="rgba(0,0,0,0.5)" stroke="none" />
<path d="M32 205 48 205 48 228 32 228 32 205 Z" fill="rgba(0,0,0,0.5)" stroke="none" />
<path d="M48 205 64 205 64 228 48 228 48 205 Z" fill="rgba(3,3,3,0.5)" stroke="none" />
<path d="M64 205 80 205 80 228 64 228 64 205 Z" fill="rgba(79,79,79,0.5)" stroke="none" />
<path d="M80 205 96 205 96 228 80 228 80 205 Z" fill="rgba(124,124,124,0.5)" stroke="none" />
<path d="M96 205 112 205 112 228 96 228 96 205 Z" fill="rgba(129,129,129,0.5)" stroke="none" />
<path d="M112 205 128 205 128 228 112 228 112 205 Z" fill="rgba(137,137,137,0.5)" stroke="none" />
<path d="M128 205 144 205 144 228 128 228 128 205 Z" fill="rgba(171,171,171,0.5)" stroke="none" />
<path d="M144 205 160 205 160 228 144 228 144 205 Z" fill="rgba(166,166,166,0.5)" stroke="none" />
<path d="M160 205 176 205 176 228 160 228 160 205 Z" fill="rgba(177,177,177,0.5)" stroke="none" />
<path d="M176 205 192 205 192 228 176 228 176 205 Z" fill="rgba(181,181,181,0.5)" stroke="none" />
<path d="M192 205 208 205 208 228 192 228 192 205 Z" fill="rgba(152,152,152,0.5)" stroke="none" />
<path d="M208 205 224 205 224 228 208 228 208 205 Z" fill="rgba(127,127,127,0.5)" stroke="none" />
<path d="M224 205 240 205 240 228 224 228 224 205 Z" fill="rgba(127,127,127,0.5)" stroke="none" />
<path d="M240 205 256 205 256 228 240 228 240 205 Z" fill="rgba(98,98,98,0.5)" stroke="none" />
<path d="M256 205 272 205 272 228 256 228 256 205 Z" fill="rgba(32,32,32,0.5)" stroke="none" />
<path d="M272 205 288 205 288 228 272 228 272 205 Z" fill="rgba(0,0,0,0.5)" stroke="none" />
<path d="M288 205 304 205 304 228 288 228 288 205 Z" fill="rgba(0,0,0,0.5)" stroke="none" />
<path d="M304 205 320 205 320 228 304 228 304 205 Z" fill="rgba(0,0,0,0.5)" stroke="none" />
<path d="M0 228 16 228 16 251 0 251 0 228 Z" fill="rgba(0,0,0,0.5)" stroke="none" />
<path d="M16 228 32 228 32 251 16 251 16 228 Z" fill="rgba(0,0,0,0.5)" stroke="none" />
<path d="M32 228 48 228 48 251 32 251 32 228 Z" fill="rgba(0,0,0,0.5)" stroke="none" />
<path d="M48 228 64 228 64 251 48 251 48 228 Z" fill="rgba(34,34,34,0.5)" stroke="none" />
<path d="M64 228 80 228 80 251 64 251 64 228 Z" fill="rgba(89,89,89,0.5)" stroke="none" />
<path d="M80 228 96 228 96 251 80 251 80 228 Z" fill="rgba(154,154,154,0.5)" stroke="none" />
<path d="M96 228 112 228 112 251 96 251 96 228 Z" fill="rgba(178,178,178,0.5)" stroke="none" />
<path d="M112 228 128 228 128 251 112 251 112 228 Z" fill="rgba(193,193,193,0.5)" stroke="none" />
<path d="M128 228 144 228 144 251 128 251 128 228 Z" fill="rgba(182,182,182,0.5)" stroke="none" />
<path d="M144 228 160 228 160 251 144 251 144 228 Z" fill="rgba(157,157,157,0.5)" stroke="none" />
<path d="M160 228 176 228 176 251 160 251 160 228 Z" fill="rgba(184,184,184,0.5)" stroke="none" />
<path d="M176 228 192 228 192 251 176 251 176 228 Z" fill="rgba(179,179,179,0.5)" stroke="none" />
<path d="M192 228 208 228 208 251 192 251 192 228 Z" fill="rgba(184,184,184,0.5)" stroke="none" />
<path d="M208 228 224 228 224 251 208 251 208 228 Z" fill="rgba(186,186,186,0.5)" stroke="none" />
<path d="M224 228 240 228 240 251 224 251 224 228 Z" fill="rgba(175,175,175,0.5)" stroke="none" />
<path d="M240 228 256 228 256 251 240 251 240 228 Z" fill="rgba(121,121,121,0.5)" stroke="none" />
<path d="M256 228 272 228 272 251 256 251 256 228 Z" fill="rgba(64,64,64,0.5)" stroke="none" />
<path d="M272 228 288 228 288 251 272 251 272 228 Z" fill="rgba(32,32,32,0.5)" stroke="none" />
<path d="M288 228 304 228 304 251 288 251 288 228 Z" fill="rgba(0,0,0,0.5)" stroke="none" />
<path d="M304 228 320 228 320 251 304 251 304 228 Z" fill="rgba(0,0,0,0.5)" stroke="none" />
<path d="M0 251 16 251 16 274 0 274 0 251 Z" fill="rgba(0,0,0,0.5)" stroke="none" />
<path d="M16 251 32 251 32 274 16 274 16 251 Z" fill="rgba(0,0,0,0.5)" stroke="none" />
<path d="M32 251 48 251 48 274 32 274 32 251 Z" fill="rgba(0,0,0,0.5)" stroke="none" />
<path d="M48 251 64 251 64 274 48 274 48 251 Z" fill="rgba(94,94,94,0.5)" stroke="none" />
<path d="M64 251 80 251 80 274 64 274 64 251 Z" fill="rgba(85,85,85,0.5)" stroke="none" />
<path d="M80 251 96 251 96 274 80 274 80 251 Z" fill="rgba(153,153,153,0.5)" stroke="none" />
<path d="M96 251 112 251 112 274 96 274 96 251 Z" fill="rgba(196,196,196,0.5)" stroke="none" />
<path d="M112 251 128 251 128 274 112 274 112 251 Z" fill="rgba(210,210,210,0.5)" stroke="none" />
<path d="M128 251 144 251 144 274 128 274 128 251 Z" fill="rgba(190,190,190,0.5)" stroke="none" />
<path d="M144 251 160 251 160 274 144 274 144 251 Z" fill="rgba(150,150,150,0.5)" stroke="none" />
<path d="M160 251 176 251 176 274 160 274 160 251 Z" fill="rgba(172,172,172,0.5)" stroke="none" />
<path d="M176 251 192 251 192 274 176 274 176 251 Z" fill="rgba(161,161,161,0.5)" stroke="none" />
<path d="M192 251 208 251 208 274 192 274 192 251 Z" fill="rgba(186,186,186,0.5)" stroke="none" />
<path d="M208 251 224 251 224 274 208 274 208 251 Z" fill="rgba(209,209,209,0.5)" stroke="none" />
<path d="M224 251 240 251 240 274 224 274 224 251 Z" fill="rgba(186,186,186,0.5)" stroke="none" />
<path d="M240 251 256 251 256 274 240 274 240 251 Z" fill="rgba(114,114,114,0.5)" stroke="none" />
<path d="M256 251 272 251 272 274 256 274 256 251 Z" fill="rgba(80,80,80,0.5)" stroke="none" />
<path d="M272 251 288 251 288 274 272 274 272 251 Z" fill="rgba(56,56,56,0.5)" stroke="none" />
<path d="M288 251 304 251 304 274 288 274 288 251 Z" fill="rgba(0,0,0,0.5)" stroke="none" />
<path d="M304 251 320 251 320 274 304 274 304 251 Z" fill="rgba(0,0,0,0.5)" stroke="none" />
<path d="M0 274 16 274 16 297 0 297 0 274 Z" fill="rgba(0,0,0,0.5)" stroke="none" />
<path d="M16 274 32 274 32 297 16 297 16 274 Z" fill="rgba(0,0,0,0.5)" stroke="none" />
<path d="M32 274 48 274 48 297 32 297 32 274 Z" fill="rgba(0,0,0,0.5)" stroke="none" />
<path d="M48 274 64 274 64 297 48 297 48 274 Z" fill="rgba(126,126,126,0.5)" stroke="none" />
<path d="M64 274 80 274 80 297 64 297 64 274 Z" fill="rgba(64,64,64,0.5)" stroke="none" />
<path d="M80 274 96 274 96 297 80 297 80 274 Z" fill="rgba(130,130,130,0.5)" stroke="none" />
<path d="M96 274 112 274 112 297 96 297 96 274 Z" fill="rgba(188,188,188,0.5)" stroke="none" />
<path d="M112 274 128 274 128 297 112 297 112 274 Z" fill="rgba(210,210,210,0.5)" stroke="none" />
<path d="M128 274 144 274 144 297 128 297 128 274 Z" fill="rgba(190,190,190,0.5)" stroke="none" />
<path d="M144 274 160 274 160 297 144 297 144 274 Z" fill="rgba(146,146,146,0.5)" stroke="none" />
<path d="M160 274 176 274 176 297 160 297 160 274 Z" fill="rgba(140,140,140,0.5)" stroke="none" />
<path d="M176 274 192 274 192 297 176 297 176 274 Z" fill="rgba(143,143,143,0.5)" stroke="none" />
<path d="M192 274 208 274 208 297 192 297 192 274 Z" fill="rgba(184,184,184,0.5)" stroke="none" />
<path d="M208 274 224 274 224 297 208 297 208 274 Z" fill="rgba(208,208,208,0.5)" stroke="none" />
<path d="M224 274 240 274 240 297 224 297 224 274 Z" fill="rgba(170,170,170,0.5)" stroke="none" />
<path d="M240 274 256 274 256 297 240 297 240 274 Z" fill="rgba(102,102,102,0.5)" stroke="none" />
<path d="M256 274 272 274 272 297 256 297 256 274 Z" fill="rgba(51,51,51,0.5)" stroke="none" />
<path d="M272 274 288 274 288 297 272 297 272 274 Z" fill="rgba(22,22,22,0.5)" stroke="none" />
<path d="M288 274 304 274 304 297 288 297 288 274 Z" fill="rgba(0,0,0,0.5)" stroke="none" />
<path d="M304 274 320 274 320 297 304 297 304 274 Z" fill="rgba(0,0,0,0.5)" stroke="none" />
<path d="M0 297 16 297 16 320 0 320 0 297 Z" fill="rgba(0,0,0,0.5)" stroke="none" />
<path d="M16 297 32 297 32 320 16 320 16 297 Z" fill="rgba(0,0,0,0.5)" stroke="none" />
<path d="M32 297 48 297 48 320 32 320 32 297 Z" fill="rgba(0,0,0,0.5)" stroke="none" />
<path d="M48 297 64 297 64 320 48 320 48 297 Z" fill="rgba(56,56,56,0.5)" stroke="none" />
<path d="M64 297 80 297 80 320 64 320 64 297 Z" fill="rgba(66,66,66,0.5)" stroke="none" />
<path d="M80 297 96 297 96 320 80 320 80 297 Z" fill="rgba(104,104,104,0.5)" stroke="none" />
<path d="M96 297 112 297 112 320 96 320 96 297 Z" fill="rgba(172,172,172,0.5)" stroke="none" />
<path d="M112 297 128 297 128 320 112 320 112 297 Z" fill="rgba(186,186,186,0.5)" stroke="none" />
<path d="M128 297 144 297 144 320 128 320 128 297 Z" fill="rgba(170,170,170,0.5)" stroke="none" />
<path d="M144 297 160 297 160 320 144 320 144 297 Z" fill="rgba(164,164,164,0.5)" stroke="none" />
<path d="M160 297 176 297 176 320 160 320 160 297 Z" fill="rgba(169,169,169,0.5)" stroke="none" />
<path d="M176 297 192 297 192 320 176 320 176 297 Z" fill="rgba(163,163,163,0.5)" stroke="none" />
<path d="M192 297 208 297 208 320 192 320 192 297 Z" fill="rgba(173,173,173,0.5)" stroke="none" />
<path d="M208 297 224 297 224 320 208 320 208 297 Z" fill="rgba(187,187,187,0.5)" stroke="none" />
<path d="M224 297 240 297 240 320 224 320 224 297 Z" fill="rgba(147,147,147,0.5)" stroke="none" />
<path d="M240 297 256 297 256 320 240 320 240 297 Z" fill="rgba(105,105,105,0.5)" stroke="none" />
<path d="M256 297 272 297 272 320 256 320 256 297 Z" fill="rgba(48,48,48,0.5)" stroke="none" />
<path d="M272 297 288 297 288 320 272 320 272 297 Z" fill="rgba(0,0,0,0.5)" stroke="none" />
<path d="M288 297 304 297 304 320 288 320 288 297 Z" fill="rgba(0,0,0,0.5)" stroke="none" />
<path d="M304 297 320 297 320 320 304 320 304 297 Z" fill="rgba(0,0,0,0.5)" stroke="none" />
<path d="M0 320 16 320 16 342 0 342 0 320 Z" fill="rgba(0,0,0,0.5)" stroke="none" />
<path d="M16 320 32 320 32 342 16 342 16 320 Z" fill="rgba(0,0,0,0.5)" stroke="none" />
<path d="M32 320 48 320 48 342 32 342 32 320 Z" fill="rgba(0,0,0,0.5)" stroke="none" />
<path d="M48 320 64 320 64 342 48 342 48 320 Z" fill="rgba(0,0,0,0.5)" stroke="none" />
<path d="M64 320 80 320 80 342 64 342 64 320 Z" fill="rgba(32,32,32,0.5)" stroke="none" />
<path d="M80 320 96 320 96 342 80 342 80 320 Z" fill="rgba(77,77,77,0.5)" stroke="none" />
<path d="M96 320 112 320 112 342 96 342 96 320 Z" fill="rgba(147,147,147,0.5)" stroke="none" />
<path d="M112 320 128 320 128 342 112 342 112 320 Z" fill="rgba(169,169,169,0.5)" stroke="none" />
<path d="M128 320 144 320 144 342 128 342 128 320 Z" fill="rgba(144,144,144,0.5)" stroke="none" />
<path d="M144 320 160 320 160 342 144 342 144 320 Z" fill="rgba(159,159,159,0.5)" stroke="none" />
<path d="M160 320 176 320 176 342 160 342 160 320 Z" fill="rgba(183,183,183,0.5)" stroke="none" />
<path d="M176 320 192 320 192 342 176 342 176 320 Z" fill="rgba(161,161,161,0.5)" stroke="none" />
<path d="M192 320 208 320 208 342 192 342 192 320 Z" fill="rgba(155,155,155,0.5)" stroke="none" />
<path d="M208 320 224 320 224 342 208 342 208 320 Z" fill="rgba(165,165,165,0.5)" stroke="none" />
<path d="M224 320 240 320 240 342 224 342 224 320 Z" fill="rgba(127,127,127,0.5)" stroke="none" />
<path d="M240 320 256 320 256 342 240 342 240 320 Z" fill="rgba(74,74,74,0.5)" stroke="none" />
<path d="M256 320 272 320 272 342 256 342 256 320 Z" fill="rgba(26,26,26,0.5)" stroke="none" />
<path d="M272 320 288 320 288 342 272 342 272 320 Z" fill="rgba(0,0,0,0.5)" stroke="none" />
<path d="M288 320 304 320 304 342 288 342 288 320 Z" fill="rgba(0,0,0,0.5)" stroke="none" />
<path d="M304 320 320 320 320 342 304 342 304 320 Z" fill="rgba(0,0,0,0.5)" stroke="none" />
<path d="M0 342 16 342 16 365 0 365 0 342 Z" fill="rgba(0,0,0,0.5)" stroke="none" />
<path d="M16 342 32 342 32 365 16 365 16 342 Z" fill="rgba(0,0,0,0.5)" stroke="none" />
<path d="M32 342 48 342 48 365 32 365 32 342 Z" fill="rgba(0,0,0,0.5)" stroke="none" />
<path d="M48 342 64 342 64 365 48 365 48 342 Z" fill="rgba(0,0,0,0.5)" stroke="none" />
<path d="M64 342 80 342 80 365 64 365 64 342 Z" fill="rgba(0,0,0,0.5)" stroke="none" />
<path d="M80 342 96 342 96 365 80 365 80 342 Z" fill="rgba(52,52,52,0.5)" stroke="none" />
<path d="M96 342 112 342 112 365 96 365 96 342 Z" fill="rgba(125,125,125,0.5)" stroke="none" />
<path d="M112 342 128 342 128 365 112 365 112 342 Z" fill="rgba(166,166,166,0.5)" stroke="none" />
<path d="M128 342 144 342 144 365 128 365 128 342 Z" fill="rgba(151,151,151,0.5)" stroke="none" />
<path d="M144 342 160 342 160 365 144 365 144 342 Z" fill="rgba(141,141,141,0.5)" stroke="none" />
<path d="M160 342 176 342 176 365 160 365 160 342 Z" fill="rgba(151,151,151,0.5)" stroke="none" />
<path d="M176 342 192 342 192 365 176 365 176 342 Z" fill="rgba(150,150,150,0.5)" stroke="none" />
<path d="M192 342 208 342 208 365 192 365 192 342 Z" fill="rgba(161,161,161,0.5)" stroke="none" />
<path d="M208 342 224 342 224 365 208 365 208 342 Z" fill="rgba(158,158,158,0.5)" stroke="none" />
<path d="M224 342 240 342 240 365 224 365 224 342 Z" fill="rgba(104,104,104,0.5)" stroke="none" />
<path d="M240 342 256 342 256 365 240 365 240 342 Z" fill="rgba(35,35,35,0.5)" stroke="none" />
<path d="M256 342 272 342 272 365 256 365 256 342 Z" fill="rgba(0,0,0,0.5)" stroke="none" />
<path d="M272 342 288 342 288 365 272 365 272 342 Z" fill="rgba(0,0,0,0.5)" stroke="none" />
<path d="M288 342 304 342 304 365 288 365 288 342 Z" fill="rgba(0,0,0,0.5)" stroke="none" />
<path d="M304 342 320 342 320 365 304 365 304 342 Z" fill="rgba(0,0,0,0.5)" stroke="none" />
<path d="M0 365 16 365 16 388 0 388 0 365 Z" fill="rgba(0,0,0,0.5)" stroke="none" />
<path d="M16 365 32 365 32 388 16 388 16 365 Z" fill="rgba(0,0,0,0.5)" stroke="none" />
<path d="M32 365 48 365 48 388 32 388 32 365 Z" fill="rgba(0,0,0,0.5)" stroke="none" />
<path d="M48 365 64 365 64 388 48 388 48 365 Z" fill="rgba(0,0,0,0.5)" stroke="none" />
<path d="M64 365 80 365 80 388 64 388 64 365 Z" fill="rgba(0,0,0,0.5)" stroke="none" />
<path d="M80 365 96 365 96 388 80 388 80 365 Z" fill="rgba(19,19,19,0.5)" stroke="none" />
<path d="M96 365 112 365 112 388 96 388 96 365 Z" fill="rgba(90,90,90,0.5)" stroke="none" />
<path d="M112 365 128 365 128 388 112 388 112 365 Z" fill="rgba(129,129,129,0.5)" stroke="none" />
<path d="M128 365 144 365 144 388 128 388 128 365 Z" fill="rgba(169,169,169,0.5)" stroke="none" />
<path d="M144 365 160 365 160 388 144 388 144 365 Z" fill="rgba(163,163,163,0.5)" stroke="none" />
<path d="M160 365 176 365 176 388 160 388 160 365 Z" fill="rgba(153,153,153,0.5)" stroke="none" />
<path d="M176 365 192 365 192 388 176 388 176 365 Z" fill="rgba(172,172,172,0.5)" stroke="none" />
<path d="M192 365 208 365 208 388 192 388 192 365 Z" fill="rgba(158,158,158,0.5)" stroke="none" />
<path d="M208 365 224 365 224 388 208 388 208 365 Z" fill="rgba(118,118,118,0.5)" stroke="none" />
<path d="M224 365 240 365 240 388 224 388 224 365 Z" fill="rgba(59,59,59,0.5)" stroke="none" />
<path d="M240 365 256 365 256 388 240 388 240 365 Z" fill="rgba(14,14,14,0.5)" stroke="none" />
<path d="M256 365 272 365 272 388 256 388 256 365 Z" fill="rgba(0,0,0,0.5)" stroke="none" />
<path d="M272 365 288 365 288 388 272 388 272 365 Z" fill="rgba(0,0,0,0.5)" stroke="none" />
<path d="M288 365 304 365 304 388 288 388 288 365 Z" fill="rgba(0,0,0,0.5)" stroke="none" />
<path d="M304 365 320 365 320 388 304 388 304 365 Z" fill="rgba(0,0,0,0.5)" stroke="none" />
<path d="M0 388 16 388 16 411 0 411 0 388 Z" fill="rgba(0,0,0,0.5)" stroke="none" />
<path d="M16 388 32 388 32 411 16 411 16 388 Z" fill="rgba(0,0,0,0.5)" stroke="none" />
<path d="M32 388 48 388 48 411 32 411 32 388 Z" fill="rgba(0,0,0,0.5)" stroke="none" />
<path d="M48 388 64 388 64 411 48 411 48 388 Z" fill="rgba(0,0,0,0.5)" stroke="none" />
<path d="M64 388 80 388 80 411 64 411 64 388 Z" fill="rgba(0,0,0,0.5)" stroke="none" />
<path d="M80 388 96 388 96 411 80 411 80 388 Z" fill="rgba(0,0,0,0.5)" stroke="none" />
<path d="M96 388 112 388 112 411 96 411 96 388 Z" fill="rgba(48,48,48,0.5)" stroke="none" />
<path d="M112 388 128 388 128 411 112 411 112 388 Z" fill="rgba(66,66,66,0.5)" stroke="none" />
<path d="M128 388 144 388 144 411 128 411 128 388 Z" fill="rgba(127,127,127,0.5)" stroke="none" />
<path d="M144 388 160 388 160 411 144 411 144 388 Z" fill="rgba(149,149,149,0.5)" stroke="none" />
<path d="M160 388 176 388 176 411 160 411 160 388 Z" fill="rgba(145,145,145,0.5)" stroke="none" />
<path d="M176 388 192 388 192 411 176 411 176 388 Z" fill="rgba(155,155,155,0.5)" stroke="none" />
<path d="M192 388 208 388 208 411 192 411 192 388 Z" fill="rgba(113,113,113,0.5)" stroke="none" />
<path d="M208 388 224 388 224 411 208 411 208 388 Z" fill="rgba(62,62,62,0.5)" stroke="none" />
<path d="M224 388 240 388 240 411 224 411 224 388 Z" fill="rgba(23,23,23,0.5)" stroke="none" />
<path d="M240 388 256 388 256 411 240 411 240 388 Z" fill="rgba(3,3,3,0.5)" stroke="none" />
<path d="M256 388 272 388 272 411 256 411 256 388 Z" fill="rgba(0,0,0,0.5)" stroke="none" />
<path d="M272 388 288 388 288 411 272 411 272 388 Z" fill="rgba(0,0,0,0.5)" stroke="none" />
<path d="M288 388 304 388 304 411 288 411 288 388 Z" fill="rgba(0,0,0,0.5)" stroke="none" />
<path d="M304 388 320 388 320 411 304 411 304 388 Z" fill="rgba(0,0,0,0.5)" stroke="none" />
<path d="M0 411 16 411 16 434 0 434 0 411 Z" fill="rgba(0,0,0,0.5)" stroke="none" />
<path d="M16 411 32 411 32 434 16 434 16 411 Z" fill="rgba(0,0,0,0.5)" stroke="none" />
<path d="M32 411 48 411 48 434 32 434 32 411 Z" fill="rgba(0,0,0,0.5)" stroke="none" />
<path d="M48 411 64 411 64 434 48 434 48 411 Z" fill="rgba(0,0,0,0.5)" stroke="none" />
<path d="M64 411 80 411 80 434 64 434 64 411 Z" fill="rgba(0,0,0,0.5)" stroke="none" />
<path d="M80 411 96 411 96 434 80 434 80 411 Z" fill="rgba(0,0,0,0.5)" stroke="none" />
<path d="M96 411 112 411 112 434 96 434 96 411 Z" fill="rgba(47,47,47,0.5)" stroke="none" />
<path d="M112 411 128 411 128 434 112 434 112 411 Z" fill="rgba(40,40,40,0.5)" stroke="none" />
<path d="M128 411 144 411 144 434 128 434 128 411 Z" fill="rgba(55,55,55,0.5)" stroke="none" />
<path d="M144 411 160 411 160 434 144 434 144 411 Z" fill="rgba(72,72,72,0.5)" stroke="none" />
<path d="M160 411 176 411 176 434 160 434 160 411 Z" fill="rgba(78,78,78,0.5)" stroke="none" />
<path d="M176 411 192 411 192 434 176 434 176 411 Z" fill="rgba(79,79,79,0.5)" stroke="none" />
<path d="M192 411 208 411 208 434 192 434 192 411 Z" fill="rgba(57,57,57,0.5)" stroke="none" />
<path d="M208 411 224 411 224 434 208 434 208 411 Z" fill="rgba(52,52,52,0.5)" stroke="none" />
<path d="M224 411 240 411 240 434 224 434 224 411 Z" fill="rgba(34,34,34,0.5)" stroke="none" />
<path d="M240 411 256 411 256 434 240 434 240 411 Z" fill="rgba(7,7,7,0.5)" stroke="none" />
<path d="M256 411 272 411 272 434 256 434 256 411 Z" fill="rgba(0,0,0,0.5)" stroke="none" />
<path d="M272 411 288 411 288 434 272 434 272 411 Z" fill="rgba(0,0,0,0.5)" stroke="none" />
<path d="M288 411 304 411 304 434 288 434 288 411 Z" fill="rgba(0,0,0,0.5)" stroke="none" />
<path d="M304 411 320 411 320 434 304 434 304 411 Z" fill="rgba(0,0,0,0.5)" stroke="none" />
<path d="M0 434 16 434 16 457 0 457 0 434 Z" fill="rgba(0,0,0,0.5)" stroke="none" />
<path d="M16 434 32 434 32 457 16 457 16 434 Z" fill="rgba(0,0,0,0.5)" stroke="none" />
<path d="M32 434 48 434 48 457 32 457 32 434 Z" fill="rgba(0,0,0,0.5)" stroke="none" />
<path d="M48 434 64 434 64 457 48 457 48 434 Z" fill="rgba(0,0,0,0.5)" stroke="none" />
<path d="M64 434 80 434 80 457 64 457 64 434 Z" fill="rgba(0,0,0,0.5)" stroke="none" />
<path d="M80 434 96 434 96 457 80 457 80 434 Z" fill="rgba(0,0,0,0.5)" stroke="none" />
<path d="M96 434 112 434 112 457 96 457 96 434 Z" fill="rgba(78,78,78,0.5)" stroke="none" />
<path d="M112 434 128 434 128 457 112 457 112 434 Z" fill="rgba(70,70,70,0.5)" stroke="none" />
<path d="M128 434 144 434 144 457 128 457 128 434 Z" fill="rgba(46,46,46,0.5)" stroke="none" />
<path d="M144 434 160 434 160 457 144 457 144 434 Z" fill="rgba(41,41,41,0.5)" stroke="none" />
<path d="M160 434 176 434 176 457 160 457 160 434 Z" fill="rgba(41,41,41,0.5)" stroke="none" />
<path d="M176 434 192 434 192 457 176 457 176 434 Z" fill="rgba(39,39,39,0.5)" stroke="none" />
<path d="M192 434 208 434 208 457 192 457 192 434 Z" fill="rgba(41,41,41,0.5)" stroke="none" />
<path d="M208 434 224 434 224 457 208 457 208 434 Z" fill="rgba(79,79,79,0.5)" stroke="none" />
<path d="M224 434 240 434 240 457 224 457 224 434 Z" fill="rgba(71,71,71,0.5)" stroke="none" />
<path d="M240 434 256 434 256 457 240 457 240 434 Z" fill="rgba(21,21,21,0.5)" stroke="none" />
<path d="M256 434 272 434 272 457 256 457 256 434 Z" fill="rgba(0,0,0,0.5)" stroke="none" />
<path d="M272 434 288 434 288 457 272 457 272 434 Z" fill="rgba(0,0,0,0.5)" stroke="none" />
<path d="M288 434 304 434 304 457 288 457 288 434 Z" fill="rgba(0,0,0,0.5)" stroke="none" />
<path d="M304 434 320 434 320 457 304 457 304 434 Z" fill="rgba(0,0,0,0.5)" stroke="none" />
</svg>