<svg width="100%" height="100%" version="1.1" xmlns="http://www.w3.org/2000/svg"> 
<path d="M333 463 328 480 318 489 300 498 308 497 329 482 Z" fill="none" stroke="black" stroke-width="1.230601" />
<path d="M142 462 134 498 Z" fill="none" stroke="black" stroke-width="1.000000" />
<path d="M153 436 157 444 181 466 192 473 221 483 276 483 302 472 327 453 293 476 276 482 221 482 183 466 Z" fill="none" stroke="black" stroke-width="2.519901" />
<path d="M146 436 109 468 95 469 110 469 124 454 144 440 147 443 133 451 126 460 148 444 Z" fill="none" stroke="black" stroke-width="1.692333" />
<path d="M147 426 143 426 137 435 145 426 147 431 144 433 147 434 Z" fill="none" stroke="black" stroke-width="1.010186" />
<path d="M324 414 314 435 319 431 322 420 327 418 Z" fill="none" stroke="black" stroke-width="1.045707" />
<path d="M393 413 382 419 376 432 383 420 Z" fill="none" stroke="black" stroke-width="1.018443" />
<path d="M0 394 6 436 10 441 8 466 16 476 18 493 25 498 19 493 17 475 9 466 9 453 12 448 14 462 23 475 25 486 36 498 37 479 34 474 41 469 34 473 36 496 26 485 10 445 3 398 Z" fill="none" stroke="black" stroke-width="2.718369" />
<path d="M129 393 128 398 139 416 127 433 141 418 Z" fill="none" stroke="black" stroke-width="1.146332" />
<path d="M219 349 277 351 302 361 310 371 304 360 290 357 277 350 Z" fill="none" stroke="black" stroke-width="1.489483" />
<path d="M119 345 119 366 126 390 102 415 112 409 127 390 120 366 Z" fill="none" stroke="black" stroke-width="1.499729" />
<path d="M0 337 0 362 4 383 0 388 4 388 3 341 Z" fill="none" stroke="black" stroke-width="1.319537" />
<path d="M245 340 237 336 228 337 201 354 191 355 189 359 196 361 211 358 214 355 196 360 190 358 196 354 203 354 232 337 240 338 244 344 Z" fill="none" stroke="black" stroke-width="1.680377" />
<path d="M250 314 251 330 248 333 243 333 238 327 239 318 236 328 242 334 253 331 Z" fill="none" stroke="black" stroke-width="1.169950" />
<path d="M287 285 277 299 268 297 262 302 264 315 263 302 267 298 281 297 285 294 Z" fill="none" stroke="black" stroke-width="1.230366" />
<path d="M250 286 257 283 264 290 261 283 270 281 267 291 274 282 277 282 261 280 Z" fill="none" stroke="black" stroke-width="1.183562" />
<path d="M213 278 211 284 215 286 219 283 226 289 226 295 230 283 222 278 Z" fill="none" stroke="black" stroke-width="1.077462" />
<path d="M102 251 97 268 97 281 106 297 105 311 113 324 100 388 80 436 83 460 92 468 95 467 83 456 81 436 102 384 109 343 113 337 113 320 116 319 114 294 106 282 103 283 113 295 113 320 105 308 107 297 98 281 Z" fill="none" stroke="black" stroke-width="3.324987" />
<path d="M274 246 289 257 295 269 295 282 290 295 296 283 296 269 292 258 Z" fill="none" stroke="black" stroke-width="1.292201" />
<path d="M101 213 91 222 91 234 94 220 101 214 106 215 105 240 110 281 106 239 107 214 Z" fill="none" stroke="black" stroke-width="1.719871" />
<path d="M464 206 462 230 445 302 438 316 437 330 427 339 416 387 407 399 392 442 364 483 355 479 341 484 348 469 370 447 371 440 378 434 372 436 367 449 347 468 343 477 328 489 324 498 338 483 329 498 339 485 348 485 355 480 364 485 392 445 408 400 418 385 427 343 431 335 438 331 438 321 447 296 463 230 Z" fill="none" stroke="black" stroke-width="4.822922" />
<path d="M1 205 3 210 0 218 8 224 8 228 0 244 3 243 9 229 9 223 2 217 4 210 Z" fill="none" stroke="black" stroke-width="1.237973" />
<path d="M312 215 309 209 311 201 308 205 309 215 293 208 309 199 296 202 291 208 285 208 302 215 Z" fill="none" stroke="black" stroke-width="1.355694" />
<path d="M154 204 175 214 176 212 158 203 172 197 174 208 180 213 181 218 185 213 179 212 175 206 175 196 171 195 Z" fill="none" stroke="black" stroke-width="1.391025" />
<path d="M167 191 146 202 140 211 145 204 Z" fill="none" stroke="black" stroke-width="1.029834" />
<path d="M313 195 314 198 323 191 339 192 349 198 359 211 356 210 351 198 339 191 323 190 Z" fill="none" stroke="black" stroke-width="1.324088" />
<path d="M149 194 150 196 162 188 176 186 204 188 221 205 211 191 196 186 176 185 Z" fill="none" stroke="black" stroke-width="1.473129" />
<path d="M103 176 108 201 97 210 98 213 109 203 107 181 Z" fill="none" stroke="black" stroke-width="1.205097" />
<path d="M278 167 281 176 291 180 329 177 345 170 339 170 328 177 290 179 282 175 280 164 285 171 286 165 283 161 279 162 Z" fill="none" stroke="black" stroke-width="1.668486" />
<path d="M215 160 206 156 214 162 213 174 196 177 190 174 181 176 174 172 168 176 161 174 161 177 138 186 132 194 137 188 162 176 214 175 Z" fill="none" stroke="black" stroke-width="1.840495" />
<path d="M307 150 300 152 290 163 289 174 289 166 301 153 308 152 Z" fill="none" stroke="black" stroke-width="1.138851" />
<path d="M128 180 140 182 129 179 130 171 153 147 158 148 162 145 167 147 168 151 199 155 206 163 208 171 208 163 194 152 186 154 173 151 164 144 158 144 161 145 158 147 152 145 129 169 Z" fill="none" stroke="black" stroke-width="1.997398" />
<path d="M124 140 119 151 119 189 112 239 115 291 118 293 121 306 115 281 113 239 120 189 120 151 Z" fill="none" stroke="black" stroke-width="2.379954" />
<path d="M175 103 168 133 164 136 151 125 148 133 134 145 142 141 154 127 162 136 167 136 171 131 170 123 174 116 Z" fill="none" stroke="black" stroke-width="1.524782" />
<path d="M86 78 45 147 25 165 34 159 36 161 21 177 46 156 81 140 86 128 80 138 70 145 53 151 37 161 35 158 46 147 51 149 62 144 77 132 74 123 76 131 68 139 53 147 46 147 72 107 Z" fill="none" stroke="black" stroke-width="2.945303" />
<path d="M127 22 121 23 107 33 74 75 71 85 29 145 16 171 16 180 0 196 1 198 17 182 17 173 30 146 72 86 75 76 104 42 106 36 123 22 132 30 138 55 122 74 110 110 95 133 82 146 51 166 49 175 32 195 36 200 32 196 48 179 52 167 81 148 91 138 95 137 98 150 97 139 94 136 109 114 122 76 140 53 137 50 136 37 Z" fill="none" stroke="black" stroke-width="5.137318" />
<path d="M376 0 410 41 425 73 449 112 459 140 464 173 460 140 450 111 423 67 416 48 Z" fill="none" stroke="black" stroke-width="2.415513" />
<path d="M353 0 333 12 333 25 340 42 346 48 376 65 382 100 397 141 393 152 391 187 394 294 374 351 365 405 347 429 346 463 349 462 345 460 345 441 348 430 360 414 363 416 360 439 362 444 364 442 361 438 367 387 377 344 395 295 392 187 394 152 398 141 383 100 375 61 346 46 333 24 333 14 340 8 352 4 Z" fill="none" stroke="black" stroke-width="6.000000" />
<path d="M281 0 295 7 323 8 330 12 324 7 296 6 Z" fill="none" stroke="black" stroke-width="1.242029" />
<path d="M180 0 160 6 154 19 146 24 141 37 142 49 143 33 147 25 154 21 163 6 173 5 Z" fill="none" stroke="black" stroke-width="1.450343" />

<path d="M0 0 22 0 22 33 0 33 0 0 Z" fill="rgba(0,0,0,0.5)" stroke="none" />
<path d="M22 0 44 0 44 33 22 33 22 0 Z" fill="rgba(0,0,0,0.5)" stroke="none" />
<path d="M44 0 66 0 66 33 44 33 44 0 Z" fill="rgba(0,0,0,0.5)" stroke="none" />
<path d="M66 0 88 0 88 33 66 33 66 0 Z" fill="rgba(0,0,0,0.5)" stroke="none" />
<path d="M88 0 110 0 110 33 88 33 88 0 Z" fill="rgba(0,0,0,0.5)" stroke="none" />
<path d="M110 0 132 0 132 33 110 33 110 0 Z" fill="rgba(0,0,0,0.5)" stroke="none" />
<path d="M132 0 154 0 154 33 132 33 132 0 Z" fill="rgba(22,22,22,0.5)" stroke="none" />
<path d="M154 0 176 0 176 33 154 33 154 0 Z" fill="rgba(12,12,12,0.5)" stroke="none" />
<path d="M176 0 198 0 198 33 176 33 176 0 Z" fill="rgba(21,21,21,0.5)" stroke="none" />
<path d="M198 0 220 0 220 33 198 33 198 0 Z" fill="rgba(35,35,35,0.5)" stroke="none" />
<path d="M220 0 242 0 242 33 220 33 220 0 Z" fill="rgba(26,26,26,0.5)" stroke="none" />
<path d="M242 0 264 0 264 33 242 33 242 0 Z" fill="rgba(21,21,21,0.5)" stroke="none" />
<path d="M264 0 286 0 286 33 264 33 264 0 Z" fill="rgba(32,32,32,0.5)" stroke="none" />
<path d="M286 0 308 0 308 33 286 33 286 0 Z" fill="rgba(108,108,108,0.5)" stroke="none" />
<path d="M308 0 330 0 330 33 308 33 308 0 Z" fill="rgba(197,197,197,0.5)" stroke="none" />
<path d="M330 0 352 0 352 33 330 33 330 0 Z" fill="rgba(170,170,170,0.5)" stroke="none" />
<path d="M352 0 374 0 374 33 352 33 352 0 Z" fill="rgba(64,64,64,0.5)" stroke="none" />
<path d="M374 0 396 0 396 33 374 33 374 0 Z" fill="rgba(0,0,0,0.5)" stroke="none" />
<path d="M396 0 418 0 418 33 396 33 396 0 Z" fill="rgba(0,0,0,0.5)" stroke="none" />
<path d="M418 0 440 0 440 33 418 33 418 0 Z" fill="rgba(0,0,0,0.5)" stroke="none" />
<path d="M0 33 22 33 22 67 0 67 0 33 Z" fill="rgba(0,0,0,0.5)" stroke="none" />
<path d="M22 33 44 33 44 67 22 67 22 33 Z" fill="rgba(0,0,0,0.5)" stroke="none" />
<path d="M44 33 66 33 66 67 44 67 44 33 Z" fill="rgba(0,0,0,0.5)" stroke="none" />
<path d="M66 33 88 33 88 67 66 67 66 33 Z" fill="rgba(0,0,0,0.5)" stroke="none" />
<path d="M88 33 110 33 110 67 88 67 88 33 Z" fill="rgba(107,107,107,0.5)" stroke="none" />
<path d="M110 33 132 33 132 67 110 67 110 33 Z" fill="rgba(54,54,54,0.5)" stroke="none" />
<path d="M132 33 154 33 154 67 132 67 132 33 Z" fill="rgba(40,40,40,0.5)" stroke="none" />
<path d="M154 33 176 33 176 67 154 67 154 33 Z" fill="rgba(31,31,31,0.5)" stroke="none" />
<path d="M176 33 198 33 198 67 176 67 176 33 Z" fill="rgba(43,43,43,0.5)" stroke="none" />
<path d="M198 33 220 33 220 67 198 67 198 33 Z" fill="rgba(29,29,29,0.5)" stroke="none" />
<path d="M220 33 242 33 242 67 220 67 220 33 Z" fill="rgba(26,26,26,0.5)" stroke="none" />
<path d="M242 33 264 33 264 67 242 67 242 33 Z" fill="rgba(33,33,33,0.5)" stroke="none" />
<path d="M264 33 286 33 286 67 264 67 264 33 Z" fill="rgba(26,26,26,0.5)" stroke="none" />
<path d="M286 33 308 33 308 67 286 67 286 33 Z" fill="rgba(41,41,41,0.5)" stroke="none" />
<path d="M308 33 330 33 330 67 308 67 308 33 Z" fill="rgba(134,134,134,0.5)" stroke="none" />
<path d="M330 33 352 33 352 67 330 67 330 33 Z" fill="rgba(205,205,205,0.5)" stroke="none" />
<path d="M352 33 374 33 374 67 352 67 352 33 Z" fill="rgba(118,118,118,0.5)" stroke="none" />
<path d="M374 33 396 33 396 67 374 67 374 33 Z" fill="rgba(1,1,1,0.5)" stroke="none" />
<path d="M396 33 418 33 418 67 396 67 396 33 Z" fill="rgba(0,0,0,0.5)" stroke="none" />
<path d="M418 33 440 33 440 67 418 67 418 33 Z" fill="rgba(0,0,0,0.5)" stroke="none" />
<path d="M0 67 22 67 22 101 0 101 0 67 Z" fill="rgba(0,0,0,0.5)" stroke="none" />
<path d="M22 67 44 67 44 101 22 101 22 67 Z" fill="rgba(0,0,0,0.5)" stroke="none" />
<path d="M44 67 66 67 66 101 44 101 44 67 Z" fill="rgba(0,0,0,0.5)" stroke="none" />
<path d="M66 67 88 67 88 101 66 101 66 67 Z" fill="rgba(80,80,80,0.5)" stroke="none" />
<path d="M88 67 110 67 110 101 88 101 88 67 Z" fill="rgba(178,178,178,0.5)" stroke="none" />
<path d="M110 67 132 67 132 101 110 101 110 67 Z" fill="rgba(93,93,93,0.5)" stroke="none" />
<path d="M132 67 154 67 154 101 132 101 132 67 Z" fill="rgba(63,63,63,0.5)" stroke="none" />
<path d="M154 67 176 67 176 101 154 101 154 67 Z" fill="rgba(94,94,94,0.5)" stroke="none" />
<path d="M176 67 198 67 198 101 176 101 176 67 Z" fill="rgba(134,134,134,0.5)" stroke="none" />
<path d="M198 67 220 67 220 101 198 101 198 67 Z" fill="rgba(118,118,118,0.5)" stroke="none" />
<path d="M220 67 242 67 242 101 220 101 220 67 Z" fill="rgba(127,127,127,0.5)" stroke="none" />
<path d="M242 67 264 67 264 101 242 101 242 67 Z" fill="rgba(116,116,116,0.5)" stroke="none" />
<path d="M264 67 286 67 286 101 264 101 264 67 Z" fill="rgba(97,97,97,0.5)" stroke="none" />
<path d="M286 67 308 67 308 101 286 101 286 67 Z" fill="rgba(75,75,75,0.5)" stroke="none" />
<path d="M308 67 330 67 330 101 308 101 308 67 Z" fill="rgba(55,55,55,0.5)" stroke="none" />
<path d="M330 67 352 67 352 101 330 101 330 67 Z" fill="rgba(119,119,119,0.5)" stroke="none" />
<path d="M352 67 374 67 374 101 352 101 352 67 Z" fill="rgba(194,194,194,0.5)" stroke="none" />
<path d="M374 67 396 67 396 101 374 101 374 67 Z" fill="rgba(109,109,109,0.5)" stroke="none" />
<path d="M396 67 418 67 418 101 396 101 396 67 Z" fill="rgba(0,0,0,0.5)" stroke="none" />
<path d="M418 67 440 67 440 101 418 101 418 67 Z" fill="rgba(0,0,0,0.5)" stroke="none" />
<path d="M0 101 22 101 22 135 0 135 0 101 Z" fill="rgba(0,0,0,0.5)" stroke="none" />
<path d="M22 101 44 101 44 135 22 135 22 101 Z" fill="rgba(0,0,0,0.5)" stroke="none" />
<path d="M44 101 66 101 66 135 44 135 44 101 Z" fill="rgba(0,0,0,0.5)" stroke="none" />
<path d="M66 101 88 101 88 135 66 135 66 101 Z" fill="rgba(147,147,147,0.5)" stroke="none" />
<path d="M88 101 110 101 110 135 88 135 88 101 Z" fill="rgba(206,206,206,0.5)" stroke="none" />
<path d="M110 101 132 101 132 135 110 135 110 101 Z" fill="rgba(65,65,65,0.5)" stroke="none" />
<path d="M132 101 154 101 154 135 132 135 132 101 Z" fill="rgba(70,70,70,0.5)" stroke="none" />
<path d="M154 101 176 101 176 135 154 135 154 101 Z" fill="rgba(141,141,141,0.5)" stroke="none" />
<path d="M176 101 198 101 198 135 176 135 176 101 Z" fill="rgba(174,174,174,0.5)" stroke="none" />
<path d="M198 101 220 101 220 135 198 135 198 101 Z" fill="rgba(180,180,180,0.5)" stroke="none" />
<path d="M220 101 242 101 242 135 220 135 220 101 Z" fill="rgba(181,181,181,0.5)" stroke="none" />
<path d="M242 101 264 101 264 135 242 135 242 101 Z" fill="rgba(173,173,173,0.5)" stroke="none" />
<path d="M264 101 286 101 286 135 264 135 264 101 Z" fill="rgba(161,161,161,0.5)" stroke="none" />
<path d="M286 101 308 101 308 135 286 135 286 101 Z" fill="rgba(138,138,138,0.5)" stroke="none" />
<path d="M308 101 330 101 330 135 308 135 308 101 Z" fill="rgba(74,74,74,0.5)" stroke="none" />
<path d="M330 101 352 101 352 135 330 135 330 101 Z" fill="rgba(119,119,119,0.5)" stroke="none" />
<path d="M352 101 374 101 374 135 352 135 352 101 Z" fill="rgba(207,207,207,0.5)" stroke="none" />
<path d="M374 101 396 101 396 135 374 135 374 101 Z" fill="rgba(129,129,129,0.5)" stroke="none" />
<path d="M396 101 418 101 418 135 396 135 396 101 Z" fill="rgba(19,19,19,0.5)" stroke="none" />
<path d="M418 101 440 101 440 135 418 135 418 101 Z" fill="rgba(0,0,0,0.5)" stroke="none" />
<path d="M0 135 22 135 22 169 0 169 0 135 Z" fill="rgba(0,0,0,0.5)" stroke="none" />
<path d="M22 135 44 135 44 169 22 169 22 135 Z" fill="rgba(0,0,0,0.5)" stroke="none" />
<path d="M44 135 66 135 66 169 44 169 44 135 Z" fill="rgba(150,150,150,0.5)" stroke="none" />
<path d="M66 135 88 135 88 169 66 169 66 135 Z" fill="rgba(202,202,202,0.5)" stroke="none" />
<path d="M88 135 110 135 110 169 88 169 88 135 Z" fill="rgba(81,81,81,0.5)" stroke="none" />
<path d="M110 135 132 135 132 169 110 169 110 135 Z" fill="rgba(47,47,47,0.5)" stroke="none" />
<path d="M132 135 154 135 154 169 132 169 132 135 Z" fill="rgba(58,58,58,0.5)" stroke="none" />
<path d="M154 135 176 135 176 169 154 169 154 135 Z" fill="rgba(138,138,138,0.5)" stroke="none" />
<path d="M176 135 198 135 198 169 176 169 176 135 Z" fill="rgba(174,174,174,0.5)" stroke="none" />
<path d="M198 135 220 135 220 169 198 169 198 135 Z" fill="rgba(191,191,191,0.5)" stroke="none" />
<path d="M220 135 242 135 242 169 220 169 220 135 Z" fill="rgba(195,195,195,0.5)" stroke="none" />
<path d="M242 135 264 135 264 169 242 169 242 135 Z" fill="rgba(180,180,180,0.5)" stroke="none" />
<path d="M264 135 286 135 286 169 264 169 264 135 Z" fill="rgba(164,164,164,0.5)" stroke="none" />
<path d="M286 135 308 135 308 169 286 169 286 135 Z" fill="rgba(152,152,152,0.5)" stroke="none" />
<path d="M308 135 330 135 330 169 308 169 308 135 Z" fill="rgba(108,108,108,0.5)" stroke="none" />
<path d="M330 135 352 135 352 169 330 169 330 135 Z" fill="rgba(95,95,95,0.5)" stroke="none" />
<path d="M352 135 374 135 374 169 352 169 352 135 Z" fill="rgba(157,157,157,0.5)" stroke="none" />
<path d="M374 135 396 135 396 169 374 169 374 135 Z" fill="rgba(205,205,205,0.5)" stroke="none" />
<path d="M396 135 418 135 418 169 396 169 396 135 Z" fill="rgba(117,117,117,0.5)" stroke="none" />
<path d="M418 135 440 135 440 169 418 169 418 135 Z" fill="rgba(0,0,0,0.5)" stroke="none" />
<path d="M0 169 22 169 22 203 0 203 0 169 Z" fill="rgba(0,0,0,0.5)" stroke="none" />
<path d="M22 169 44 169 44 203 22 203 22 169 Z" fill="rgba(85,85,85,0.5)" stroke="none" />
<path d="M44 169 66 169 66 203 44 203 44 169 Z" fill="rgba(189,189,189,0.5)" stroke="none" />
<path d="M66 169 88 169 88 203 66 203 66 169 Z" fill="rgba(221,221,221,0.5)" stroke="none" />
<path d="M88 169 110 169 110 203 88 203 88 169 Z" fill="rgba(54,54,54,0.5)" stroke="none" />
<path d="M110 169 132 169 132 203 110 203 110 169 Z" fill="rgba(77,77,77,0.5)" stroke="none" />
<path d="M132 169 154 169 154 203 132 203 132 169 Z" fill="rgba(104,104,104,0.5)" stroke="none" />
<path d="M154 169 176 169 176 203 154 203 154 169 Z" fill="rgba(161,161,161,0.5)" stroke="none" />
<path d="M176 169 198 169 198 203 176 203 176 169 Z" fill="rgba(193,193,193,0.5)" stroke="none" />
<path d="M198 169 220 169 220 203 198 203 198 169 Z" fill="rgba(200,200,200,0.5)" stroke="none" />
<path d="M220 169 242 169 242 203 220 203 220 169 Z" fill="rgba(199,199,199,0.5)" stroke="none" />
<path d="M242 169 264 169 264 203 242 203 242 169 Z" fill="rgba(192,192,192,0.5)" stroke="none" />
<path d="M264 169 286 169 286 203 264 203 264 169 Z" fill="rgba(175,175,175,0.5)" stroke="none" />
<path d="M286 169 308 169 308 203 286 203 286 169 Z" fill="rgba(149,149,149,0.5)" stroke="none" />
<path d="M308 169 330 169 330 203 308 203 308 169 Z" fill="rgba(118,118,118,0.5)" stroke="none" />
<path d="M330 169 352 169 352 203 330 203 330 169 Z" fill="rgba(72,72,72,0.5)" stroke="none" />
<path d="M352 169 374 169 374 203 352 203 352 169 Z" fill="rgba(117,117,117,0.5)" stroke="none" />
<path d="M374 169 396 169 396 203 374 203 374 169 Z" fill="rgba(207,207,207,0.5)" stroke="none" />
<path d="M396 169 418 169 418 203 396 203 396 169 Z" fill="rgba(123,123,123,0.5)" stroke="none" />
<path d="M418 169 440 169 440 203 418 203 418 169 Z" fill="rgba(3,3,3,0.5)" stroke="none" />
<path d="M0 203 22 203 22 236 0 236 0 203 Z" fill="rgba(0,0,0,0.5)" stroke="none" />
<path d="M22 203 44 203 44 236 22 236 22 203 Z" fill="rgba(152,152,152,0.5)" stroke="none" />
<path d="M44 203 66 203 66 236 44 236 44 203 Z" fill="rgba(149,149,149,0.5)" stroke="none" />
<path d="M66 203 88 203 88 236 66 236 66 203 Z" fill="rgba(156,156,156,0.5)" stroke="none" />
<path d="M88 203 110 203 110 236 88 236 88 203 Z" fill="rgba(44,44,44,0.5)" stroke="none" />
<path d="M110 203 132 203 132 236 110 236 110 203 Z" fill="rgba(66,66,66,0.5)" stroke="none" />
<path d="M132 203 154 203 154 236 132 236 132 203 Z" fill="rgba(65,65,65,0.5)" stroke="none" />
<path d="M154 203 176 203 176 236 154 236 154 203 Z" fill="rgba(78,78,78,0.5)" stroke="none" />
<path d="M176 203 198 203 198 236 176 236 176 203 Z" fill="rgba(122,122,122,0.5)" stroke="none" />
<path d="M198 203 220 203 220 236 198 236 198 203 Z" fill="rgba(184,184,184,0.5)" stroke="none" />
<path d="M220 203 242 203 242 236 220 236 220 203 Z" fill="rgba(200,200,200,0.5)" stroke="none" />
<path d="M242 203 264 203 264 236 242 236 242 203 Z" fill="rgba(180,180,180,0.5)" stroke="none" />
<path d="M264 203 286 203 286 236 264 236 264 203 Z" fill="rgba(117,117,117,0.5)" stroke="none" />
<path d="M286 203 308 203 308 236 286 236 286 203 Z" fill="rgba(71,71,71,0.5)" stroke="none" />
<path d="M308 203 330 203 330 236 308 236 308 203 Z" fill="rgba(65,65,65,0.5)" stroke="none" />
<path d="M330 203 352 203 352 236 330 236 330 203 Z" fill="rgba(53,53,53,0.5)" stroke="none" />
<path d="M352 203 374 203 374 236 352 236 352 203 Z" fill="rgba(102,102,102,0.5)" stroke="none" />
<path d="M374 203 396 203 396 236 374 236 374 203 Z" fill="rgba(191,191,191,0.5)" stroke="none" />
<path d="M396 203 418 203 418 236 396 236 396 203 Z" fill="rgba(181,181,181,0.5)" stroke="none" />
<path d="M418 203 440 203 440 236 418 236 418 203 Z" fill="rgba(92,92,92,0.5)" stroke="none" />
<path d="M0 236 22 236 22 270 0 270 0 236 Z" fill="rgba(91,91,91,0.5)" stroke="none" />
<path d="M22 236 44 236 44 270 22 270 22 236 Z" fill="rgba(158,158,158,0.5)" stroke="none" />
<path d="M44 236 66 236 66 270 44 270 44 236 Z" fill="rgba(159,159,159,0.5)" stroke="none" />
<path d="M66 236 88 236 88 270 66 270 66 236 Z" fill="rgba(132,132,132,0.5)" stroke="none" />
<path d="M88 236 110 236 110 270 88 270 88 236 Z" fill="rgba(33,33,33,0.5)" stroke="none" />
<path d="M110 236 132 236 132 270 110 270 110 236 Z" fill="rgba(83,83,83,0.5)" stroke="none" />
<path d="M132 236 154 236 154 270 132 270 132 236 Z" fill="rgba(128,128,128,0.5)" stroke="none" />
<path d="M154 236 176 236 176 270 154 270 154 236 Z" fill="rgba(118,118,118,0.5)" stroke="none" />
<path d="M176 236 198 236 198 270 176 270 176 236 Z" fill="rgba(148,148,148,0.5)" stroke="none" />
<path d="M198 236 220 236 220 270 198 270 198 236 Z" fill="rgba(175,175,175,0.5)" stroke="none" />
<path d="M220 236 242 236 242 270 220 270 220 236 Z" fill="rgba(171,171,171,0.5)" stroke="none" />
<path d="M242 236 264 236 264 270 242 270 242 236 Z" fill="rgba(167,167,167,0.5)" stroke="none" />
<path d="M264 236 286 236 286 270 264 270 264 236 Z" fill="rgba(160,160,160,0.5)" stroke="none" />
<path d="M286 236 308 236 308 270 286 270 286 236 Z" fill="rgba(148,148,148,0.5)" stroke="none" />
<path d="M308 236 330 236 330 270 308 270 308 236 Z" fill="rgba(117,117,117,0.5)" stroke="none" />
<path d="M330 236 352 236 352 270 330 270 330 236 Z" fill="rgba(64,64,64,0.5)" stroke="none" />
<path d="M352 236 374 236 374 270 352 270 352 236 Z" fill="rgba(105,105,105,0.5)" stroke="none" />
<path d="M374 236 396 236 396 270 374 270 374 236 Z" fill="rgba(193,193,193,0.5)" stroke="none" />
<path d="M396 236 418 236 418 270 396 270 396 236 Z" fill="rgba(199,199,199,0.5)" stroke="none" />
<path d="M418 236 440 236 440 270 418 270 418 236 Z" fill="rgba(132,132,132,0.5)" stroke="none" />
<path d="M0 270 22 270 22 304 0 304 0 270 Z" fill="rgba(185,185,185,0.5)" stroke="none" />
<path d="M22 270 44 270 44 304 22 304 22 270 Z" fill="rgba(164,164,164,0.5)" stroke="none" />
<path d="M44 270 66 270 66 304 44 304 44 270 Z" fill="rgba(165,165,165,0.5)" stroke="none" />
<path d="M66 270 88 270 88 304 66 304 66 270 Z" fill="rgba(104,104,104,0.5)" stroke="none" />
<path d="M88 270 110 270 110 304 88 304 88 270 Z" fill="rgba(27,27,27,0.5)" stroke="none" />
<path d="M110 270 132 270 132 304 110 304 110 270 Z" fill="rgba(120,120,120,0.5)" stroke="none" />
<path d="M132 270 154 270 154 304 132 304 132 270 Z" fill="rgba(122,122,122,0.5)" stroke="none" />
<path d="M154 270 176 270 176 304 154 304 154 270 Z" fill="rgba(96,96,96,0.5)" stroke="none" />
<path d="M176 270 198 270 198 304 176 304 176 270 Z" fill="rgba(119,119,119,0.5)" stroke="none" />
<path d="M198 270 220 270 220 304 198 304 198 270 Z" fill="rgba(142,142,142,0.5)" stroke="none" />
<path d="M220 270 242 270 242 304 220 304 220 270 Z" fill="rgba(130,130,130,0.5)" stroke="none" />
<path d="M242 270 264 270 264 304 242 304 242 270 Z" fill="rgba(115,115,115,0.5)" stroke="none" />
<path d="M264 270 286 270 286 304 264 304 264 270 Z" fill="rgba(125,125,125,0.5)" stroke="none" />
<path d="M286 270 308 270 308 304 286 304 286 270 Z" fill="rgba(129,129,129,0.5)" stroke="none" />
<path d="M308 270 330 270 330 304 308 304 308 270 Z" fill="rgba(130,130,130,0.5)" stroke="none" />
<path d="M330 270 352 270 352 304 330 304 330 270 Z" fill="rgba(83,83,83,0.5)" stroke="none" />
<path d="M352 270 374 270 374 304 352 304 352 270 Z" fill="rgba(105,105,105,0.5)" stroke="none" />
<path d="M374 270 396 270 396 304 374 304 374 270 Z" fill="rgba(200,200,200,0.5)" stroke="none" />
<path d="M396 270 418 270 418 304 396 304 396 270 Z" fill="rgba(207,207,207,0.5)" stroke="none" />
<path d="M418 270 440 270 440 304 418 304 418 270 Z" fill="rgba(131,131,131,0.5)" stroke="none" />
<path d="M0 304 22 304 22 338 0 338 0 304 Z" fill="rgba(177,177,177,0.5)" stroke="none" />
<path d="M22 304 44 304 44 338 22 338 22 304 Z" fill="rgba(169,169,169,0.5)" stroke="none" />
<path d="M44 304 66 304 66 338 44 338 44 304 Z" fill="rgba(149,149,149,0.5)" stroke="none" />
<path d="M66 304 88 304 88 338 66 338 66 304 Z" fill="rgba(120,120,120,0.5)" stroke="none" />
<path d="M88 304 110 304 110 338 88 338 88 304 Z" fill="rgba(51,51,51,0.5)" stroke="none" />
<path d="M110 304 132 304 132 338 110 338 110 304 Z" fill="rgba(124,124,124,0.5)" stroke="none" />
<path d="M132 304 154 304 154 338 132 338 132 304 Z" fill="rgba(150,150,150,0.5)" stroke="none" />
<path d="M154 304 176 304 176 338 154 338 154 304 Z" fill="rgba(154,154,154,0.5)" stroke="none" />
<path d="M176 304 198 304 198 338 176 338 176 304 Z" fill="rgba(148,148,148,0.5)" stroke="none" />
<path d="M198 304 220 304 220 338 198 338 198 304 Z" fill="rgba(138,138,138,0.5)" stroke="none" />
<path d="M220 304 242 304 242 338 220 338 220 304 Z" fill="rgba(107,107,107,0.5)" stroke="none" />
<path d="M242 304 264 304 264 338 242 338 242 304 Z" fill="rgba(116,116,116,0.5)" stroke="none" />
<path d="M264 304 286 304 286 338 264 338 264 304 Z" fill="rgba(147,147,147,0.5)" stroke="none" />
<path d="M286 304 308 304 308 338 286 338 286 304 Z" fill="rgba(149,149,149,0.5)" stroke="none" />
<path d="M308 304 330 304 330 338 308 338 308 304 Z" fill="rgba(136,136,136,0.5)" stroke="none" />
<path d="M330 304 352 304 352 338 330 338 330 304 Z" fill="rgba(91,91,91,0.5)" stroke="none" />
<path d="M352 304 374 304 374 338 352 338 352 304 Z" fill="rgba(116,116,116,0.5)" stroke="none" />
<path d="M374 304 396 304 396 338 374 338 374 304 Z" fill="rgba(201,201,201,0.5)" stroke="none" />
<path d="M396 304 418 304 418 338 396 338 396 304 Z" fill="rgba(170,170,170,0.5)" stroke="none" />
<path d="M418 304 440 304 440 338 418 338 418 304 Z" fill="rgba(73,73,73,0.5)" stroke="none" />
<path d="M0 338 22 338 22 372 0 372 0 338 Z" fill="rgba(179,179,179,0.5)" stroke="none" />
<path d="M22 338 44 338 44 372 22 372 22 338 Z" fill="rgba(167,167,167,0.5)" stroke="none" />
<path d="M44 338 66 338 66 372 44 372 44 338 Z" fill="rgba(121,121,121,0.5)" stroke="none" />
<path d="M66 338 88 338 88 372 66 372 66 338 Z" fill="rgba(133,133,133,0.5)" stroke="none" />
<path d="M88 338 110 338 110 372 88 372 88 338 Z" fill="rgba(80,80,80,0.5)" stroke="none" />
<path d="M110 338 132 338 132 372 110 372 110 338 Z" fill="rgba(141,141,141,0.5)" stroke="none" />
<path d="M132 338 154 338 154 372 132 372 132 338 Z" fill="rgba(176,176,176,0.5)" stroke="none" />
<path d="M154 338 176 338 176 372 154 372 154 338 Z" fill="rgba(188,188,188,0.5)" stroke="none" />
<path d="M176 338 198 338 198 372 176 372 176 338 Z" fill="rgba(156,156,156,0.5)" stroke="none" />
<path d="M198 338 220 338 220 372 198 372 198 338 Z" fill="rgba(167,167,167,0.5)" stroke="none" />
<path d="M220 338 242 338 242 372 220 372 220 338 Z" fill="rgba(146,146,146,0.5)" stroke="none" />
<path d="M242 338 264 338 264 372 242 372 242 338 Z" fill="rgba(100,100,100,0.5)" stroke="none" />
<path d="M264 338 286 338 286 372 264 372 264 338 Z" fill="rgba(137,137,137,0.5)" stroke="none" />
<path d="M286 338 308 338 308 372 286 372 286 338 Z" fill="rgba(165,165,165,0.5)" stroke="none" />
<path d="M308 338 330 338 330 372 308 372 308 338 Z" fill="rgba(146,146,146,0.5)" stroke="none" />
<path d="M330 338 352 338 352 372 330 372 330 338 Z" fill="rgba(100,100,100,0.5)" stroke="none" />
<path d="M352 338 374 338 374 372 352 372 352 338 Z" fill="rgba(127,127,127,0.5)" stroke="none" />
<path d="M374 338 396 338 396 372 374 372 374 338 Z" fill="rgba(207,207,207,0.5)" stroke="none" />
<path d="M396 338 418 338 418 372 396 372 396 338 Z" fill="rgba(134,134,134,0.5)" stroke="none" />
<path d="M418 338 440 338 440 372 418 372 418 338 Z" fill="rgba(14,14,14,0.5)" stroke="none" />
<path d="M0 372 22 372 22 406 0 406 0 372 Z" fill="rgba(179,179,179,0.5)" stroke="none" />
<path d="M22 372 44 372 44 406 22 406 22 372 Z" fill="rgba(156,156,156,0.5)" stroke="none" />
<path d="M44 372 66 372 66 406 44 406 44 372 Z" fill="rgba(141,141,141,0.5)" stroke="none" />
<path d="M66 372 88 372 88 406 66 406 66 372 Z" fill="rgba(128,128,128,0.5)" stroke="none" />
<path d="M88 372 110 372 110 406 88 406 88 372 Z" fill="rgba(82,82,82,0.5)" stroke="none" />
<path d="M110 372 132 372 132 406 110 406 110 372 Z" fill="rgba(151,151,151,0.5)" stroke="none" />
<path d="M132 372 154 372 154 406 132 406 132 372 Z" fill="rgba(180,180,180,0.5)" stroke="none" />
<path d="M154 372 176 372 176 406 154 406 154 372 Z" fill="rgba(192,192,192,0.5)" stroke="none" />
<path d="M176 372 198 372 198 406 176 406 176 372 Z" fill="rgba(172,172,172,0.5)" stroke="none" />
<path d="M198 372 220 372 220 406 198 406 198 372 Z" fill="rgba(174,174,174,0.5)" stroke="none" />
<path d="M220 372 242 372 242 406 220 406 220 372 Z" fill="rgba(134,134,134,0.5)" stroke="none" />
<path d="M242 372 264 372 264 406 242 406 242 372 Z" fill="rgba(111,111,111,0.5)" stroke="none" />
<path d="M264 372 286 372 286 406 264 406 264 372 Z" fill="rgba(147,147,147,0.5)" stroke="none" />
<path d="M286 372 308 372 308 406 286 406 286 372 Z" fill="rgba(163,163,163,0.5)" stroke="none" />
<path d="M308 372 330 372 330 406 308 406 308 372 Z" fill="rgba(149,149,149,0.5)" stroke="none" />
<path d="M330 372 352 372 352 406 330 406 330 372 Z" fill="rgba(94,94,94,0.5)" stroke="none" />
<path d="M352 372 374 372 374 406 352 406 352 372 Z" fill="rgba(119,119,119,0.5)" stroke="none" />
<path d="M374 372 396 372 396 406 374 406 374 372 Z" fill="rgba(213,213,213,0.5)" stroke="none" />
<path d="M396 372 418 372 418 406 396 406 396 372 Z" fill="rgba(129,129,129,0.5)" stroke="none" />
<path d="M418 372 440 372 440 406 418 406 418 372 Z" fill="rgba(0,0,0,0.5)" stroke="none" />
<path d="M0 406 22 406 22 440 0 440 0 406 Z" fill="rgba(175,175,175,0.5)" stroke="none" />
<path d="M22 406 44 406 44 440 22 440 22 406 Z" fill="rgba(141,141,141,0.5)" stroke="none" />
<path d="M44 406 66 406 66 440 44 440 44 406 Z" fill="rgba(168,168,168,0.5)" stroke="none" />
<path d="M66 406 88 406 88 440 66 440 66 406 Z" fill="rgba(129,129,129,0.5)" stroke="none" />
<path d="M88 406 110 406 110 440 88 440 88 406 Z" fill="rgba(115,115,115,0.5)" stroke="none" />
<path d="M110 406 132 406 132 440 110 440 110 406 Z" fill="rgba(150,150,150,0.5)" stroke="none" />
<path d="M132 406 154 406 154 440 132 440 132 406 Z" fill="rgba(174,174,174,0.5)" stroke="none" />
<path d="M154 406 176 406 176 440 154 440 154 406 Z" fill="rgba(171,171,171,0.5)" stroke="none" />
<path d="M176 406 198 406 198 440 176 440 176 406 Z" fill="rgba(153,153,153,0.5)" stroke="none" />
<path d="M198 406 220 406 220 440 198 440 198 406 Z" fill="rgba(164,164,164,0.5)" stroke="none" />
<path d="M220 406 242 406 242 440 220 440 220 406 Z" fill="rgba(134,134,134,0.5)" stroke="none" />
<path d="M242 406 264 406 264 440 242 440 242 406 Z" fill="rgba(122,122,122,0.5)" stroke="none" />
<path d="M264 406 286 406 286 440 264 440 264 406 Z" fill="rgba(139,139,139,0.5)" stroke="none" />
<path d="M286 406 308 406 308 440 286 440 286 406 Z" fill="rgba(148,148,148,0.5)" stroke="none" />
<path d="M308 406 330 406 330 440 308 440 308 406 Z" fill="rgba(144,144,144,0.5)" stroke="none" />
<path d="M330 406 352 406 352 440 330 440 330 406 Z" fill="rgba(93,93,93,0.5)" stroke="none" />
<path d="M352 406 374 406 374 440 352 440 352 406 Z" fill="rgba(118,118,118,0.5)" stroke="none" />
<path d="M374 406 396 406 396 440 374 440 374 406 Z" fill="rgba(211,211,211,0.5)" stroke="none" />
<path d="M396 406 418 406 418 440 396 440 396 406 Z" fill="rgba(130,130,130,0.5)" stroke="none" />
<path d="M418 406 440 406 440 440 418 440 418 406 Z" fill="rgba(0,0,0,0.5)" stroke="none" />
<path d="M0 440 22 440 22 473 0 473 0 440 Z" fill="rgba(158,158,158,0.5)" stroke="none" />
<path d="M22 440 44 440 44 473 22 473 22 440 Z" fill="rgba(151,151,151,0.5)" stroke="none" />
<path d="M44 440 66 440 66 473 44 473 44 440 Z" fill="rgba(171,171,171,0.5)" stroke="none" />
<path d="M66 440 88 440 88 473 66 473 66 440 Z" fill="rgba(122,122,122,0.5)" stroke="none" />
<path d="M88 440 110 440 110 473 88 473 88 440 Z" fill="rgba(120,120,120,0.5)" stroke="none" />
<path d="M110 440 132 440 132 473 110 473 110 440 Z" fill="rgba(125,125,125,0.5)" stroke="none" />
<path d="M132 440 154 440 154 473 132 473 132 440 Z" fill="rgba(163,163,163,0.5)" stroke="none" />
<path d="M154 440 176 440 176 473 154 473 154 440 Z" fill="rgba(160,160,160,0.5)" stroke="none" />
<path d="M176 440 198 440 198 473 176 473 176 440 Z" fill="rgba(152,152,152,0.5)" stroke="none" />
<path d="M198 440 220 440 220 473 198 473 198 440 Z" fill="rgba(171,171,171,0.5)" stroke="none" />
<path d="M220 440 242 440 242 473 220 473 220 440 Z" fill="rgba(168,168,168,0.5)" stroke="none" />
<path d="M242 440 264 440 264 473 242 473 242 440 Z" fill="rgba(142,142,142,0.5)" stroke="none" />
<path d="M264 440 286 440 286 473 264 473 264 440 Z" fill="rgba(127,127,127,0.5)" stroke="none" />
<path d="M286 440 308 440 308 473 286 473 286 440 Z" fill="rgba(137,137,137,0.5)" stroke="none" />
<path d="M308 440 330 440 330 473 308 473 308 440 Z" fill="rgba(130,130,130,0.5)" stroke="none" />
<path d="M330 440 352 440 352 473 330 473 330 440 Z" fill="rgba(127,127,127,0.5)" stroke="none" />
<path d="M352 440 374 440 374 473 352 473 352 440 Z" fill="rgba(168,168,168,0.5)" stroke="none" />
<path d="M374 440 396 440 396 473 374 473 374 440 Z" fill="rgba(157,157,157,0.5)" stroke="none" />
<path d="M396 440 418 440 418 473 396 473 396 440 Z" fill="rgba(59,59,59,0.5)" stroke="none" />
<path d="M418 440 440 440 440 473 418 473 418 440 Z" fill="rgba(0,0,0,0.5)" stroke="none" />
<path d="M0 473 22 473 22 507 0 507 0 473 Z" fill="rgba(151,151,151,0.5)" stroke="none" />
<path d="M22 473 44 473 44 507 22 507 22 473 Z" fill="rgba(175,175,175,0.5)" stroke="none" />
<path d="M44 473 66 473 66 507 44 507 44 473 Z" fill="rgba(176,176,176,0.5)" stroke="none" />
<path d="M66 473 88 473 88 507 66 507 66 473 Z" fill="rgba(112,112,112,0.5)" stroke="none" />
<path d="M88 473 110 473 110 507 88 507 88 473 Z" fill="rgba(117,117,117,0.5)" stroke="none" />
<path d="M110 473 132 473 132 507 110 507 110 473 Z" fill="rgba(117,117,117,0.5)" stroke="none" />
<path d="M132 473 154 473 154 507 132 507 132 473 Z" fill="rgba(157,157,157,0.5)" stroke="none" />
<path d="M154 473 176 473 176 507 154 507 154 473 Z" fill="rgba(176,176,176,0.5)" stroke="none" />
<path d="M176 473 198 473 198 507 176 507 176 473 Z" fill="rgba(160,160,160,0.5)" stroke="none" />
<path d="M198 473 220 473 220 507 198 507 198 473 Z" fill="rgba(163,163,163,0.5)" stroke="none" />
<path d="M220 473 242 473 242 507 220 507 220 473 Z" fill="rgba(166,166,166,0.5)" stroke="none" />
<path d="M242 473 264 473 264 507 242 507 242 473 Z" fill="rgba(132,132,132,0.5)" stroke="none" />
<path d="M264 473 286 473 286 507 264 507 264 473 Z" fill="rgba(137,137,137,0.5)" stroke="none" />
<path d="M286 473 308 473 308 507 286 507 286 473 Z" fill="rgba(148,148,148,0.5)" stroke="none" />
<path d="M308 473 330 473 330 507 308 507 308 473 Z" fill="rgba(115,115,115,0.5)" stroke="none" />
<path d="M330 473 352 473 352 507 330 507 330 473 Z" fill="rgba(152,152,152,0.5)" stroke="none" />
<path d="M352 473 374 473 374 507 352 507 352 473 Z" fill="rgba(210,210,210,0.5)" stroke="none" />
<path d="M374 473 396 473 396 507 374 507 374 473 Z" fill="rgba(113,113,113,0.5)" stroke="none" />
<path d="M396 473 418 473 418 507 396 507 396 473 Z" fill="rgba(0,0,0,0.5)" stroke="none" />
<path d="M418 473 440 473 440 507 418 507 418 473 Z" fill="rgba(0,0,0,0.5)" stroke="none" />
<path d="M0 507 22 507 22 541 0 541 0 507 Z" fill="rgba(161,161,161,0.5)" stroke="none" />
<path d="M22 507 44 507 44 541 22 541 22 507 Z" fill="rgba(183,183,183,0.5)" stroke="none" />
<path d="M44 507 66 507 66 541 44 541 44 507 Z" fill="rgba(176,176,176,0.5)" stroke="none" />
<path d="M66 507 88 507 88 541 66 541 66 507 Z" fill="rgba(110,110,110,0.5)" stroke="none" />
<path d="M88 507 110 507 110 541 88 541 88 507 Z" fill="rgba(133,133,133,0.5)" stroke="none" />
<path d="M110 507 132 507 132 541 110 541 110 507 Z" fill="rgba(127,127,127,0.5)" stroke="none" />
<path d="M132 507 154 507 154 541 132 541 132 507 Z" fill="rgba(152,152,152,0.5)" stroke="none" />
<path d="M154 507 176 507 176 541 154 541 154 507 Z" fill="rgba(180,180,180,0.5)" stroke="none" />
<path d="M176 507 198 507 198 541 176 541 176 507 Z" fill="rgba(170,170,170,0.5)" stroke="none" />
<path d="M198 507 220 507 220 541 198 541 198 507 Z" fill="rgba(163,163,163,0.5)" stroke="none" />
<path d="M220 507 242 507 242 541 220 541 220 507 Z" fill="rgba(164,164,164,0.5)" stroke="none" />
<path d="M242 507 264 507 264 541 242 541 242 507 Z" fill="rgba(141,141,141,0.5)" stroke="none" />
<path d="M264 507 286 507 286 541 264 541 264 507 Z" fill="rgba(152,152,152,0.5)" stroke="none" />
<path d="M286 507 308 507 308 541 286 541 286 507 Z" fill="rgba(143,143,143,0.5)" stroke="none" />
<path d="M308 507 330 507 330 541 308 541 308 507 Z" fill="rgba(97,97,97,0.5)" stroke="none" />
<path d="M330 507 352 507 352 541 330 541 330 507 Z" fill="rgba(144,144,144,0.5)" stroke="none" />
<path d="M352 507 374 507 374 541 352 541 352 507 Z" fill="rgba(211,211,211,0.5)" stroke="none" />
<path d="M374 507 396 507 396 541 374 541 374 507 Z" fill="rgba(115,115,115,0.5)" stroke="none" />
<path d="M396 507 418 507 418 541 396 541 396 507 Z" fill="rgba(0,0,0,0.5)" stroke="none" />
<path d="M418 507 440 507 440 541 418 541 418 507 Z" fill="rgba(0,0,0,0.5)" stroke="none" />
<path d="M0 541 22 541 22 575 0 575 0 541 Z" fill="rgba(179,179,179,0.5)" stroke="none" />
<path d="M22 541 44 541 44 575 22 575 22 541 Z" fill="rgba(184,184,184,0.5)" stroke="none" />
<path d="M44 541 66 541 66 575 44 575 44 541 Z" fill="rgba(166,166,166,0.5)" stroke="none" />
<path d="M66 541 88 541 88 575 66 575 66 541 Z" fill="rgba(102,102,102,0.5)" stroke="none" />
<path d="M88 541 110 541 110 575 88 575 88 541 Z" fill="rgba(132,132,132,0.5)" stroke="none" />
<path d="M110 541 132 541 132 575 110 575 110 541 Z" fill="rgba(128,128,128,0.5)" stroke="none" />
<path d="M132 541 154 541 154 575 132 575 132 541 Z" fill="rgba(140,140,140,0.5)" stroke="none" />
<path d="M154 541 176 541 176 575 154 575 154 541 Z" fill="rgba(171,171,171,0.5)" stroke="none" />
<path d="M176 541 198 541 198 575 176 575 176 541 Z" fill="rgba(189,189,189,0.5)" stroke="none" />
<path d="M198 541 220 541 220 575 198 575 198 541 Z" fill="rgba(184,184,184,0.5)" stroke="none" />
<path d="M220 541 242 541 242 575 220 575 220 541 Z" fill="rgba(183,183,183,0.5)" stroke="none" />
<path d="M242 541 264 541 264 575 242 575 242 541 Z" fill="rgba(175,175,175,0.5)" stroke="none" />
<path d="M264 541 286 541 286 575 264 575 264 541 Z" fill="rgba(161,161,161,0.5)" stroke="none" />
<path d="M286 541 308 541 308 575 286 575 286 541 Z" fill="rgba(123,123,123,0.5)" stroke="none" />
<path d="M308 541 330 541 330 575 308 575 308 541 Z" fill="rgba(84,84,84,0.5)" stroke="none" />
<path d="M330 541 352 541 352 575 330 575 330 541 Z" fill="rgba(134,134,134,0.5)" stroke="none" />
<path d="M352 541 374 541 374 575 352 575 352 541 Z" fill="rgba(160,160,160,0.5)" stroke="none" />
<path d="M374 541 396 541 396 575 374 575 374 541 Z" fill="rgba(64,64,64,0.5)" stroke="none" />
<path d="M396 541 418 541 418 575 396 575 396 541 Z" fill="rgba(0,0,0,0.5)" stroke="none" />
<path d="M418 541 440 541 440 575 418 575 418 541 Z" fill="rgba(0,0,0,0.5)" stroke="none" />
<path d="M0 575 22 575 22 609 0 609 0 575 Z" fill="rgba(185,185,185,0.5)" stroke="none" />
<path d="M22 575 44 575 44 609 22 609 22 575 Z" fill="rgba(189,189,189,0.5)" stroke="none" />
<path d="M44 575 66 575 66 609 44 609 44 575 Z" fill="rgba(150,150,150,0.5)" stroke="none" />
<path d="M66 575 88 575 88 609 66 609 66 575 Z" fill="rgba(125,125,125,0.5)" stroke="none" />
<path d="M88 575 110 575 110 609 88 609 88 575 Z" fill="rgba(140,140,140,0.5)" stroke="none" />
<path d="M110 575 132 575 132 609 110 609 110 575 Z" fill="rgba(117,117,117,0.5)" stroke="none" />
<path d="M132 575 154 575 154 609 132 609 132 575 Z" fill="rgba(111,111,111,0.5)" stroke="none" />
<path d="M154 575 176 575 176 609 154 609 154 575 Z" fill="rgba(155,155,155,0.5)" stroke="none" />
<path d="M176 575 198 575 198 609 176 609 176 575 Z" fill="rgba(183,183,183,0.5)" stroke="none" />
<path d="M198 575 220 575 220 609 198 609 198 575 Z" fill="rgba(190,190,190,0.5)" stroke="none" />
<path d="M220 575 242 575 242 609 220 609 220 575 Z" fill="rgba(183,183,183,0.5)" stroke="none" />
<path d="M242 575 264 575 264 609 242 609 242 575 Z" fill="rgba(168,168,168,0.5)" stroke="none" />
<path d="M264 575 286 575 286 609 264 609 264 575 Z" fill="rgba(149,149,149,0.5)" stroke="none" />
<path d="M286 575 308 575 308 609 286 609 286 575 Z" fill="rgba(103,103,103,0.5)" stroke="none" />
<path d="M308 575 330 575 330 609 308 609 308 575 Z" fill="rgba(93,93,93,0.5)" stroke="none" />
<path d="M330 575 352 575 352 609 330 609 330 575 Z" fill="rgba(156,156,156,0.5)" stroke="none" />
<path d="M352 575 374 575 374 609 352 609 352 575 Z" fill="rgba(110,110,110,0.5)" stroke="none" />
<path d="M374 575 396 575 396 609 374 609 374 575 Z" fill="rgba(0,0,0,0.5)" stroke="none" />
<path d="M396 575 418 575 418 609 396 609 396 575 Z" fill="rgba(0,0,0,0.5)" stroke="none" />
<path d="M418 575 440 575 440 609 418 609 418 575 Z" fill="rgba(0,0,0,0.5)" stroke="none" />
<path d="M0 609 22 609 22 643 0 643 0 609 Z" fill="rgba(137,137,137,0.5)" stroke="none" />
<path d="M22 609 44 609 44 643 22 643 22 609 Z" fill="rgba(191,191,191,0.5)" stroke="none" />
<path d="M44 609 66 609 66 643 44 643 44 609 Z" fill="rgba(128,128,128,0.5)" stroke="none" />
<path d="M66 609 88 609 88 643 66 643 66 609 Z" fill="rgba(157,157,157,0.5)" stroke="none" />
<path d="M88 609 110 609 110 643 88 643 88 609 Z" fill="rgba(149,149,149,0.5)" stroke="none" />
<path d="M110 609 132 609 132 643 110 643 110 609 Z" fill="rgba(105,105,105,0.5)" stroke="none" />
<path d="M132 609 154 609 154 643 132 643 132 609 Z" fill="rgba(104,104,104,0.5)" stroke="none" />
<path d="M154 609 176 609 176 643 154 643 154 609 Z" fill="rgba(116,116,116,0.5)" stroke="none" />
<path d="M176 609 198 609 198 643 176 643 176 609 Z" fill="rgba(155,155,155,0.5)" stroke="none" />
<path d="M198 609 220 609 220 643 198 643 198 609 Z" fill="rgba(170,170,170,0.5)" stroke="none" />
<path d="M220 609 242 609 242 643 220 643 220 609 Z" fill="rgba(163,163,163,0.5)" stroke="none" />
<path d="M242 609 264 609 264 643 242 643 242 609 Z" fill="rgba(145,145,145,0.5)" stroke="none" />
<path d="M264 609 286 609 286 643 264 643 264 609 Z" fill="rgba(111,111,111,0.5)" stroke="none" />
<path d="M286 609 308 609 308 643 286 643 286 609 Z" fill="rgba(65,65,65,0.5)" stroke="none" />
<path d="M308 609 330 609 330 643 308 643 308 609 Z" fill="rgba(109,109,109,0.5)" stroke="none" />
<path d="M330 609 352 609 352 643 330 643 330 609 Z" fill="rgba(149,149,149,0.5)" stroke="none" />
<path d="M352 609 374 609 374 643 352 643 352 609 Z" fill="rgba(71,71,71,0.5)" stroke="none" />
<path d="M374 609 396 609 396 643 374 643 374 609 Z" fill="rgba(0,0,0,0.5)" stroke="none" />
<path d="M396 609 418 609 418 643 396 643 396 609 Z" fill="rgba(0,0,0,0.5)" stroke="none" />
<path d="M418 609 440 609 440 643 418 643 418 609 Z" fill="rgba(0,0,0,0.5)" stroke="none" />
<path d="M0 643 22 643 22 676 0 676 0 643 Z" fill="rgba(54,54,54,0.5)" stroke="none" />
<path d="M22 643 44 643 44 676 22 676 22 643 Z" fill="rgba(168,168,168,0.5)" stroke="none" />
<path d="M44 643 66 643 66 676 44 676 44 643 Z" fill="rgba(122,122,122,0.5)" stroke="none" />
<path d="M66 643 88 643 88 676 66 676 66 643 Z" fill="rgba(134,134,134,0.5)" stroke="none" />
<path d="M88 643 110 643 110 676 88 676 88 643 Z" fill="rgba(130,130,130,0.5)" stroke="none" />
<path d="M110 643 132 643 132 676 110 676 110 643 Z" fill="rgba(97,97,97,0.5)" stroke="none" />
<path d="M132 643 154 643 154 676 132 676 132 643 Z" fill="rgba(126,126,126,0.5)" stroke="none" />
<path d="M154 643 176 643 176 676 154 676 154 643 Z" fill="rgba(116,116,116,0.5)" stroke="none" />
<path d="M176 643 198 643 198 676 176 676 176 643 Z" fill="rgba(148,148,148,0.5)" stroke="none" />
<path d="M198 643 220 643 220 676 198 676 198 643 Z" fill="rgba(151,151,151,0.5)" stroke="none" />
<path d="M220 643 242 643 242 676 220 676 220 643 Z" fill="rgba(146,146,146,0.5)" stroke="none" />
<path d="M242 643 264 643 264 676 242 676 242 643 Z" fill="rgba(140,140,140,0.5)" stroke="none" />
<path d="M264 643 286 643 286 676 264 676 264 643 Z" fill="rgba(104,104,104,0.5)" stroke="none" />
<path d="M286 643 308 643 308 676 286 676 286 643 Z" fill="rgba(58,58,58,0.5)" stroke="none" />
<path d="M308 643 330 643 330 676 308 676 308 643 Z" fill="rgba(89,89,89,0.5)" stroke="none" />
<path d="M330 643 352 643 352 676 330 676 330 643 Z" fill="rgba(65,65,65,0.5)" stroke="none" />
<path d="M352 643 374 643 374 676 352 676 352 643 Z" fill="rgba(0,0,0,0.5)" stroke="none" />
<path d="M374 643 396 643 396 676 374 676 374 643 Z" fill="rgba(0,0,0,0.5)" stroke="none" />
<path d="M396 643 418 643 418 676 396 676 396 643 Z" fill="rgba(0,0,0,0.5)" stroke="none" />
<path d="M418 643 440 643 440 676 418 676 418 643 Z" fill="rgba(0,0,0,0.5)" stroke="none" />
</svg>