<svg width="100%" height="100%" version="1.1" xmlns="http://www.w3.org/2000/svg"> 
<path d="M234 414 229 429 223 424 232 431 232 421 238 428 238 423 243 423 234 420 Z" fill="none" stroke="black" stroke-width="1.118153" />
<path d="M157 413 167 423 184 432 171 425 162 414 Z" fill="none" stroke="black" stroke-width="1.084910" />
<path d="M208 399 208 411 219 416 214 418 217 420 221 416 219 414 225 411 224 407 219 413 213 413 Z" fill="none" stroke="black" stroke-width="1.096149" />
<path d="M152 392 161 400 165 410 162 399 Z" fill="none" stroke="black" stroke-width="1.002665" />
<path d="M186 388 192 397 187 408 190 411 199 400 190 410 188 408 193 396 Z" fill="none" stroke="black" stroke-width="1.109115" />
<path d="M195 377 197 383 192 391 196 393 194 394 198 393 200 386 196 393 194 390 198 383 204 387 200 405 204 409 207 403 201 407 202 394 207 383 202 384 Z" fill="none" stroke="black" stroke-width="1.279820" />
<path d="M272 377 267 372 272 380 263 387 260 384 256 388 244 389 241 384 235 388 229 384 225 386 221 382 222 379 220 383 225 388 227 385 233 388 238 394 241 391 238 393 235 388 240 385 243 391 259 387 261 401 266 407 262 401 261 389 271 383 Z" fill="none" stroke="black" stroke-width="1.512427" />
<path d="M287 353 270 364 239 372 222 370 201 357 214 367 227 370 230 374 224 379 229 377 232 371 248 371 273 364 Z" fill="none" stroke="black" stroke-width="1.459968" />
<path d="M279 349 253 354 198 351 186 361 198 351 254 354 Z" fill="none" stroke="black" stroke-width="1.396233" />
<path d="M305 344 295 346 304 344 307 347 303 353 300 352 305 356 296 364 287 362 298 364 301 368 299 364 309 356 303 353 308 348 312 352 Z" fill="none" stroke="black" stroke-width="1.237577" />
<path d="M166 343 166 359 170 363 166 347 169 344 Z" fill="none" stroke="black" stroke-width="1.026567" />
<path d="M315 340 313 345 317 352 314 345 316 342 324 348 Z" fill="none" stroke="black" stroke-width="1.003995" />
<path d="M128 339 141 355 138 349 140 344 136 347 Z" fill="none" stroke="black" stroke-width="1.012880" />
<path d="M123 335 133 364 142 377 145 389 150 392 144 385 142 374 134 363 Z" fill="none" stroke="black" stroke-width="1.191097" />
<path d="M334 330 329 337 331 345 323 352 331 349 330 339 Z" fill="none" stroke="black" stroke-width="1.037324" />
<path d="M260 325 262 331 264 324 273 336 283 336 279 333 274 335 264 323 Z" fill="none" stroke="black" stroke-width="1.091501" />
<path d="M167 374 173 376 178 372 173 376 169 374 176 368 180 355 186 348 189 350 185 355 196 346 208 347 231 343 253 346 264 341 293 340 297 336 275 341 266 340 262 335 248 335 243 338 235 328 238 336 234 337 232 334 227 337 222 333 206 342 197 341 194 336 203 331 210 320 202 330 192 336 195 340 187 348 178 351 180 355 177 364 Z" fill="none" stroke="black" stroke-width="2.083914" />
<path d="M188 348 195 341 206 343 223 334 226 339 240 337 246 340 249 336 264 338 252 346 236 341 207 347 194 346 190 350 Z" fill="none" stroke="black" stroke-width="1.389641" />
<path d="M232 312 229 314 219 308 215 320 210 314 211 309 206 318 201 317 191 324 201 318 204 322 209 316 217 321 220 311 223 313 221 317 225 312 228 315 Z" fill="none" stroke="black" stroke-width="1.286980" />
<path d="M298 305 323 327 Z" fill="none" stroke="black" stroke-width="1.000000" />
<path d="M282 285 277 277 280 290 269 298 265 296 266 292 253 307 240 307 219 293 210 296 216 304 225 303 244 322 241 325 235 322 241 327 244 321 238 312 225 303 218 304 212 297 221 294 239 308 253 308 265 296 270 298 280 292 Z" fill="none" stroke="black" stroke-width="1.800390" />
<path d="M132 275 139 300 157 320 160 341 167 340 174 328 179 327 179 332 183 333 186 323 182 332 179 323 167 333 166 339 160 338 158 319 140 299 140 293 135 288 137 285 141 291 142 287 135 282 Z" fill="none" stroke="black" stroke-width="1.631719" />
<path d="M278 270 288 297 286 309 282 314 294 324 299 336 306 340 307 337 304 339 297 332 293 321 283 314 287 311 289 297 Z" fill="none" stroke="black" stroke-width="1.322833" />
<path d="M146 267 162 275 187 274 163 275 Z" fill="none" stroke="black" stroke-width="1.098279" />
<path d="M265 247 283 269 308 281 337 288 345 293 339 302 344 298 345 293 338 287 296 276 284 268 Z" fill="none" stroke="black" stroke-width="1.442762" />
<path d="M282 231 308 243 318 244 322 248 320 244 Z" fill="none" stroke="black" stroke-width="1.045337" />
<path d="M335 227 327 234 309 238 328 235 Z" fill="none" stroke="black" stroke-width="1.043847" />
<path d="M369 214 364 219 359 246 347 264 334 272 305 275 331 273 343 269 360 247 362 250 355 263 341 275 340 279 311 277 339 281 354 266 363 248 360 245 364 223 Z" fill="none" stroke="black" stroke-width="1.876871" />
<path d="M259 215 252 211 237 214 236 225 225 250 205 271 182 280 164 281 153 278 173 282 197 276 210 269 230 242 238 215 252 212 258 217 262 243 261 260 268 271 269 282 269 272 262 260 263 243 Z" fill="none" stroke="black" stroke-width="2.062852" />
<path d="M295 205 321 202 331 208 332 206 321 202 Z" fill="none" stroke="black" stroke-width="1.053990" />
<path d="M99 202 106 212 112 238 111 279 115 282 121 333 117 288 113 278 113 237 106 209 Z" fill="none" stroke="black" stroke-width="1.668567" />
<path d="M197 206 180 200 173 205 158 208 147 215 140 224 142 225 146 217 159 209 181 201 Z" fill="none" stroke="black" stroke-width="1.242337" />
<path d="M105 198 103 203 106 200 118 208 115 214 115 232 118 240 119 267 128 296 127 305 128 296 119 263 119 240 116 232 116 214 119 207 Z" fill="none" stroke="black" stroke-width="1.557796" />
<path d="M351 207 340 199 326 196 346 204 356 222 353 248 345 258 332 267 306 269 295 266 284 259 271 242 279 230 277 227 290 221 289 216 304 223 313 223 317 219 326 223 319 231 296 231 315 233 323 230 326 222 320 219 319 214 319 218 316 215 311 223 296 221 291 213 286 217 289 221 277 226 271 243 276 252 292 266 301 269 327 269 336 266 350 254 356 240 357 222 Z" fill="none" stroke="black" stroke-width="2.567928" />
<path d="M204 204 186 195 173 194 161 199 154 206 151 205 156 199 147 206 144 214 149 206 154 207 174 194 185 195 Z" fill="none" stroke="black" stroke-width="1.301348" />
<path d="M141 206 136 220 137 238 144 253 157 263 170 267 197 265 207 260 222 242 227 226 226 218 215 214 206 215 200 211 192 217 180 218 173 211 172 217 173 215 180 219 193 218 197 213 224 218 227 226 220 244 201 262 187 266 162 264 144 251 137 234 137 220 142 206 151 198 162 194 150 198 Z" fill="none" stroke="black" stroke-width="2.330846" />
<path d="M136 196 158 191 201 191 159 190 Z" fill="none" stroke="black" stroke-width="1.217061" />
<path d="M87 186 87 192 92 195 88 199 97 207 98 266 112 286 115 325 120 342 130 360 134 390 125 417 112 429 92 437 68 457 31 474 0 493 13 487 5 495 35 477 69 462 84 448 115 433 128 421 133 398 129 418 117 430 93 441 68 461 13 487 34 473 65 460 93 438 114 429 125 419 134 392 137 395 141 430 145 441 160 457 189 469 218 474 251 475 284 468 301 461 333 441 350 414 349 411 336 436 314 454 283 467 251 475 196 470 168 460 151 447 142 430 131 361 124 350 116 325 113 285 98 265 97 206 90 199 94 194 87 188 91 187 102 199 92 186 Z" fill="none" stroke="black" stroke-width="6.000000" />
<path d="M332 176 326 180 301 180 278 185 262 199 246 195 230 199 199 185 206 191 217 192 230 199 251 196 268 203 307 192 305 189 298 192 303 191 303 194 268 203 263 199 279 186 301 181 324 181 Z" fill="none" stroke="black" stroke-width="2.034274" />
<path d="M163 176 167 179 173 173 179 173 191 178 210 178 220 183 225 192 227 189 221 182 211 178 192 178 180 173 170 174 169 178 Z" fill="none" stroke="black" stroke-width="1.319809" />
<path d="M169 172 163 169 159 172 151 170 144 174 151 170 159 175 161 171 Z" fill="none" stroke="black" stroke-width="1.048758" />
<path d="M124 160 118 175 118 192 125 196 134 196 143 176 131 195 122 194 118 184 Z" fill="none" stroke="black" stroke-width="1.237152" />
<path d="M350 97 361 120 360 130 362 119 Z" fill="none" stroke="black" stroke-width="1.039231" />
<path d="M399 84 400 104 395 113 390 175 373 202 372 211 374 214 383 202 387 188 389 192 391 189 387 186 393 185 403 195 402 221 399 236 382 277 378 277 382 268 379 276 366 287 365 317 360 338 353 351 351 384 360 407 371 416 392 424 411 436 419 436 498 472 490 467 498 468 474 455 446 445 422 432 414 432 375 412 363 402 355 382 356 355 364 344 369 322 369 292 383 278 400 234 403 215 402 191 397 186 386 183 392 169 395 113 400 104 Z" fill="none" stroke="black" stroke-width="4.110083" />
<path d="M356 345 360 347 355 355 355 384 366 407 411 432 421 433 452 446 491 466 483 465 419 435 411 435 364 409 351 382 353 351 Z" fill="none" stroke="black" stroke-width="2.097593" />
<path d="M378 277 380 279 369 291 371 306 368 309 368 321 361 347 357 344 366 317 367 287 Z" fill="none" stroke="black" stroke-width="1.314419" />
<path d="M385 184 387 186 382 201 374 211 372 205 Z" fill="none" stroke="black" stroke-width="1.013061" />
<path d="M261 73 278 85 287 86 282 86 Z" fill="none" stroke="black" stroke-width="1.004566" />
<path d="M232 55 240 58 233 58 234 61 241 59 263 70 284 77 293 77 313 88 321 88 330 98 320 86 314 87 295 77 282 76 Z" fill="none" stroke="black" stroke-width="1.435194" />
<path d="M183 48 190 57 195 50 198 51 198 48 190 54 185 46 Z" fill="none" stroke="black" stroke-width="1.035944" />
<path d="M314 44 282 61 Z" fill="none" stroke="black" stroke-width="1.008574" />
<path d="M181 44 176 52 162 57 149 68 137 90 144 75 157 62 177 52 Z" fill="none" stroke="black" stroke-width="1.264158" />
<path d="M353 38 352 51 341 68 352 53 Z" fill="none" stroke="black" stroke-width="1.054319" />
<path d="M335 39 323 34 283 56 299 50 301 46 323 35 329 40 Z" fill="none" stroke="black" stroke-width="1.231806" />
<path d="M238 34 234 33 216 42 210 40 208 44 211 41 217 43 234 34 236 36 226 43 238 37 Z" fill="none" stroke="black" stroke-width="1.175343" />
<path d="M154 32 151 31 141 40 130 44 111 66 105 86 106 105 105 93 110 71 120 54 131 44 143 40 Z" fill="none" stroke="black" stroke-width="1.426212" />
<path d="M350 30 330 60 313 71 330 62 Z" fill="none" stroke="black" stroke-width="1.123442" />
<path d="M385 24 384 32 387 33 385 28 390 31 387 38 392 32 Z" fill="none" stroke="black" stroke-width="1.013342" />
<path d="M288 23 283 25 285 26 282 30 268 30 249 36 252 32 268 26 274 19 268 25 248 33 248 37 267 31 284 30 Z" fill="none" stroke="black" stroke-width="1.337648" />
<path d="M278 8 259 12 248 18 245 23 259 13 275 11 Z" fill="none" stroke="black" stroke-width="1.110487" />
<path d="M378 3 383 11 378 5 381 3 386 6 386 12 392 20 385 21 389 22 400 44 399 81 401 44 390 22 394 22 404 45 403 109 398 117 396 159 391 182 396 160 396 130 399 115 403 110 404 43 387 11 387 5 Z" fill="none" stroke="black" stroke-width="2.447961" />
<path d="M217 7 224 3 241 2 257 6 259 9 275 6 259 7 234 2 Z" fill="none" stroke="black" stroke-width="1.203681" />
<path d="M367 0 352 17 341 17 289 45 282 46 272 54 256 58 266 57 316 31 315 35 275 56 277 57 347 20 320 32 320 28 344 17 353 18 Z" fill="none" stroke="black" stroke-width="2.057732" />
<path d="M288 1 296 2 323 24 314 13 297 2 Z" fill="none" stroke="black" stroke-width="1.128738" />
<path d="M257 19 279 13 284 19 274 27 286 20 288 11 288 19 293 20 284 4 299 11 306 18 309 17 281 0 284 4 282 9 286 13 284 16 278 12 Z" fill="none" stroke="black" stroke-width="1.449830" />
<path d="M127 0 116 11 108 35 98 39 96 43 100 51 95 70 96 91 92 102 93 162 100 178 100 193 103 196 93 155 93 102 96 103 95 149 96 159 104 178 105 196 116 200 129 214 132 241 139 256 146 263 157 269 185 272 160 269 140 255 132 237 129 212 119 201 105 193 105 178 96 158 96 103 100 92 98 76 104 58 103 48 114 36 114 28 124 10 134 3 131 0 124 8 113 28 113 35 103 47 97 102 94 101 95 72 100 54 97 42 109 36 114 17 Z" fill="none" stroke="black" stroke-width="4.046105" />

<path d="M0 0 25 0 25 38 0 38 0 0 Z" fill="rgba(0,0,0,0.5)" stroke="none" />
<path d="M25 0 50 0 50 38 25 38 25 0 Z" fill="rgba(0,0,0,0.5)" stroke="none" />
<path d="M50 0 75 0 75 38 50 38 50 0 Z" fill="rgba(0,0,0,0.5)" stroke="none" />
<path d="M75 0 100 0 100 38 75 38 75 0 Z" fill="rgba(0,0,0,0.5)" stroke="none" />
<path d="M100 0 125 0 125 38 100 38 100 0 Z" fill="rgba(0,0,0,0.5)" stroke="none" />
<path d="M125 0 150 0 150 38 125 38 125 0 Z" fill="rgba(72,72,72,0.5)" stroke="none" />
<path d="M150 0 175 0 175 38 150 38 150 0 Z" fill="rgba(39,39,39,0.5)" stroke="none" />
<path d="M175 0 200 0 200 38 175 38 175 0 Z" fill="rgba(33,33,33,0.5)" stroke="none" />
<path d="M200 0 225 0 225 38 200 38 200 0 Z" fill="rgba(28,28,28,0.5)" stroke="none" />
<path d="M225 0 250 0 250 38 225 38 225 0 Z" fill="rgba(38,38,38,0.5)" stroke="none" />
<path d="M250 0 275 0 275 38 250 38 250 0 Z" fill="rgba(50,50,50,0.5)" stroke="none" />
<path d="M275 0 300 0 300 38 275 38 275 0 Z" fill="rgba(67,67,67,0.5)" stroke="none" />
<path d="M300 0 325 0 325 38 300 38 300 0 Z" fill="rgba(48,48,48,0.5)" stroke="none" />
<path d="M325 0 350 0 350 38 325 38 325 0 Z" fill="rgba(10,10,10,0.5)" stroke="none" />
<path d="M350 0 375 0 375 38 350 38 350 0 Z" fill="rgba(24,24,24,0.5)" stroke="none" />
<path d="M375 0 400 0 400 38 375 38 375 0 Z" fill="rgba(55,55,55,0.5)" stroke="none" />
<path d="M400 0 425 0 425 38 400 38 400 0 Z" fill="rgba(36,36,36,0.5)" stroke="none" />
<path d="M425 0 450 0 450 38 425 38 425 0 Z" fill="rgba(0,0,0,0.5)" stroke="none" />
<path d="M450 0 475 0 475 38 450 38 450 0 Z" fill="rgba(0,0,0,0.5)" stroke="none" />
<path d="M475 0 500 0 500 38 475 38 475 0 Z" fill="rgba(0,0,0,0.5)" stroke="none" />
<path d="M0 38 25 38 25 76 0 76 0 38 Z" fill="rgba(0,0,0,0.5)" stroke="none" />
<path d="M25 38 50 38 50 76 25 76 25 38 Z" fill="rgba(0,0,0,0.5)" stroke="none" />
<path d="M50 38 75 38 75 76 50 76 50 38 Z" fill="rgba(0,0,0,0.5)" stroke="none" />
<path d="M75 38 100 38 100 76 75 76 75 38 Z" fill="rgba(0,0,0,0.5)" stroke="none" />
<path d="M100 38 125 38 125 76 100 76 100 38 Z" fill="rgba(51,51,51,0.5)" stroke="none" />
<path d="M125 38 150 38 150 76 125 76 125 38 Z" fill="rgba(57,57,57,0.5)" stroke="none" />
<path d="M150 38 175 38 175 76 150 76 150 38 Z" fill="rgba(39,39,39,0.5)" stroke="none" />
<path d="M175 38 200 38 200 76 175 76 175 38 Z" fill="rgba(39,39,39,0.5)" stroke="none" />
<path d="M200 38 225 38 225 76 200 76 200 38 Z" fill="rgba(48,48,48,0.5)" stroke="none" />
<path d="M225 38 250 38 250 76 225 76 225 38 Z" fill="rgba(49,49,49,0.5)" stroke="none" />
<path d="M250 38 275 38 275 76 250 76 250 38 Z" fill="rgba(38,38,38,0.5)" stroke="none" />
<path d="M275 38 300 38 300 76 275 76 275 38 Z" fill="rgba(35,35,35,0.5)" stroke="none" />
<path d="M300 38 325 38 325 76 300 76 300 38 Z" fill="rgba(59,59,59,0.5)" stroke="none" />
<path d="M325 38 350 38 350 76 325 76 325 38 Z" fill="rgba(61,61,61,0.5)" stroke="none" />
<path d="M350 38 375 38 375 76 350 76 350 38 Z" fill="rgba(30,30,30,0.5)" stroke="none" />
<path d="M375 38 400 38 400 76 375 76 375 38 Z" fill="rgba(34,34,34,0.5)" stroke="none" />
<path d="M400 38 425 38 425 76 400 76 400 38 Z" fill="rgba(39,39,39,0.5)" stroke="none" />
<path d="M425 38 450 38 450 76 425 76 425 38 Z" fill="rgba(0,0,0,0.5)" stroke="none" />
<path d="M450 38 475 38 475 76 450 76 450 38 Z" fill="rgba(0,0,0,0.5)" stroke="none" />
<path d="M475 38 500 38 500 76 475 76 475 38 Z" fill="rgba(0,0,0,0.5)" stroke="none" />
<path d="M0 76 25 76 25 115 0 115 0 76 Z" fill="rgba(0,0,0,0.5)" stroke="none" />
<path d="M25 76 50 76 50 115 25 115 25 76 Z" fill="rgba(0,0,0,0.5)" stroke="none" />
<path d="M50 76 75 76 75 115 50 115 50 76 Z" fill="rgba(0,0,0,0.5)" stroke="none" />
<path d="M75 76 100 76 100 115 75 115 75 76 Z" fill="rgba(0,0,0,0.5)" stroke="none" />
<path d="M100 76 125 76 125 115 100 115 100 76 Z" fill="rgba(46,46,46,0.5)" stroke="none" />
<path d="M125 76 150 76 150 115 125 115 125 76 Z" fill="rgba(65,65,65,0.5)" stroke="none" />
<path d="M150 76 175 76 175 115 150 115 150 76 Z" fill="rgba(149,149,149,0.5)" stroke="none" />
<path d="M175 76 200 76 200 115 175 115 175 76 Z" fill="rgba(167,167,167,0.5)" stroke="none" />
<path d="M200 76 225 76 225 115 200 115 200 76 Z" fill="rgba(198,198,198,0.5)" stroke="none" />
<path d="M225 76 250 76 250 115 225 115 225 76 Z" fill="rgba(201,201,201,0.5)" stroke="none" />
<path d="M250 76 275 76 275 115 250 115 250 76 Z" fill="rgba(117,117,117,0.5)" stroke="none" />
<path d="M275 76 300 76 300 115 275 115 275 76 Z" fill="rgba(43,43,43,0.5)" stroke="none" />
<path d="M300 76 325 76 325 115 300 115 300 76 Z" fill="rgba(37,37,37,0.5)" stroke="none" />
<path d="M325 76 350 76 350 115 325 115 325 76 Z" fill="rgba(42,42,42,0.5)" stroke="none" />
<path d="M350 76 375 76 375 115 350 115 350 76 Z" fill="rgba(28,28,28,0.5)" stroke="none" />
<path d="M375 76 400 76 400 115 375 115 375 76 Z" fill="rgba(31,31,31,0.5)" stroke="none" />
<path d="M400 76 425 76 425 115 400 115 400 76 Z" fill="rgba(31,31,31,0.5)" stroke="none" />
<path d="M425 76 450 76 450 115 425 115 425 76 Z" fill="rgba(0,0,0,0.5)" stroke="none" />
<path d="M450 76 475 76 475 115 450 115 450 76 Z" fill="rgba(0,0,0,0.5)" stroke="none" />
<path d="M475 76 500 76 500 115 475 115 475 76 Z" fill="rgba(0,0,0,0.5)" stroke="none" />
<path d="M0 115 25 115 25 153 0 153 0 115 Z" fill="rgba(0,0,0,0.5)" stroke="none" />
<path d="M25 115 50 115 50 153 25 153 25 115 Z" fill="rgba(0,0,0,0.5)" stroke="none" />
<path d="M50 115 75 115 75 153 50 153 50 115 Z" fill="rgba(0,0,0,0.5)" stroke="none" />
<path d="M75 115 100 115 100 153 75 153 75 115 Z" fill="rgba(0,0,0,0.5)" stroke="none" />
<path d="M100 115 125 115 125 153 100 153 100 115 Z" fill="rgba(46,46,46,0.5)" stroke="none" />
<path d="M125 115 150 115 150 153 125 153 125 115 Z" fill="rgba(92,92,92,0.5)" stroke="none" />
<path d="M150 115 175 115 175 153 150 153 150 115 Z" fill="rgba(181,181,181,0.5)" stroke="none" />
<path d="M175 115 200 115 200 153 175 153 175 115 Z" fill="rgba(219,219,219,0.5)" stroke="none" />
<path d="M200 115 225 115 225 153 200 153 200 115 Z" fill="rgba(232,232,232,0.5)" stroke="none" />
<path d="M225 115 250 115 250 153 225 153 225 115 Z" fill="rgba(239,239,239,0.5)" stroke="none" />
<path d="M250 115 275 115 275 153 250 153 250 115 Z" fill="rgba(228,228,228,0.5)" stroke="none" />
<path d="M275 115 300 115 300 153 275 153 275 115 Z" fill="rgba(203,203,203,0.5)" stroke="none" />
<path d="M300 115 325 115 325 153 300 153 300 115 Z" fill="rgba(166,166,166,0.5)" stroke="none" />
<path d="M325 115 350 115 350 153 325 153 325 115 Z" fill="rgba(103,103,103,0.5)" stroke="none" />
<path d="M350 115 375 115 375 153 350 153 350 115 Z" fill="rgba(45,45,45,0.5)" stroke="none" />
<path d="M375 115 400 115 400 153 375 153 375 115 Z" fill="rgba(29,29,29,0.5)" stroke="none" />
<path d="M400 115 425 115 425 153 400 153 400 115 Z" fill="rgba(19,19,19,0.5)" stroke="none" />
<path d="M425 115 450 115 450 153 425 153 425 115 Z" fill="rgba(0,0,0,0.5)" stroke="none" />
<path d="M450 115 475 115 475 153 450 153 450 115 Z" fill="rgba(0,0,0,0.5)" stroke="none" />
<path d="M475 115 500 115 500 153 475 153 475 115 Z" fill="rgba(0,0,0,0.5)" stroke="none" />
<path d="M0 153 25 153 25 192 0 192 0 153 Z" fill="rgba(0,0,0,0.5)" stroke="none" />
<path d="M25 153 50 153 50 192 25 192 25 153 Z" fill="rgba(0,0,0,0.5)" stroke="none" />
<path d="M50 153 75 153 75 192 50 192 50 153 Z" fill="rgba(0,0,0,0.5)" stroke="none" />
<path d="M75 153 100 153 100 192 75 192 75 153 Z" fill="rgba(0,0,0,0.5)" stroke="none" />
<path d="M100 153 125 153 125 192 100 192 100 153 Z" fill="rgba(38,38,38,0.5)" stroke="none" />
<path d="M125 153 150 153 150 192 125 192 125 153 Z" fill="rgba(122,122,122,0.5)" stroke="none" />
<path d="M150 153 175 153 175 192 150 192 150 153 Z" fill="rgba(189,189,189,0.5)" stroke="none" />
<path d="M175 153 200 153 200 192 175 192 175 153 Z" fill="rgba(223,223,223,0.5)" stroke="none" />
<path d="M200 153 225 153 225 192 200 192 200 153 Z" fill="rgba(238,238,238,0.5)" stroke="none" />
<path d="M225 153 250 153 250 192 225 192 225 153 Z" fill="rgba(245,245,245,0.5)" stroke="none" />
<path d="M250 153 275 153 275 192 250 192 250 153 Z" fill="rgba(244,244,244,0.5)" stroke="none" />
<path d="M275 153 300 153 300 192 275 192 275 153 Z" fill="rgba(233,233,233,0.5)" stroke="none" />
<path d="M300 153 325 153 325 192 300 192 300 153 Z" fill="rgba(216,216,216,0.5)" stroke="none" />
<path d="M325 153 350 153 350 192 325 192 325 153 Z" fill="rgba(170,170,170,0.5)" stroke="none" />
<path d="M350 153 375 153 375 192 350 192 350 153 Z" fill="rgba(86,86,86,0.5)" stroke="none" />
<path d="M375 153 400 153 400 192 375 192 375 153 Z" fill="rgba(31,31,31,0.5)" stroke="none" />
<path d="M400 153 425 153 425 192 400 192 400 153 Z" fill="rgba(22,22,22,0.5)" stroke="none" />
<path d="M425 153 450 153 450 192 425 192 425 153 Z" fill="rgba(0,0,0,0.5)" stroke="none" />
<path d="M450 153 475 153 475 192 450 192 450 153 Z" fill="rgba(0,0,0,0.5)" stroke="none" />
<path d="M475 153 500 153 500 192 475 192 475 153 Z" fill="rgba(0,0,0,0.5)" stroke="none" />
<path d="M0 192 25 192 25 230 0 230 0 192 Z" fill="rgba(0,0,0,0.5)" stroke="none" />
<path d="M25 192 50 192 50 230 25 230 25 192 Z" fill="rgba(0,0,0,0.5)" stroke="none" />
<path d="M50 192 75 192 75 230 50 230 50 192 Z" fill="rgba(0,0,0,0.5)" stroke="none" />
<path d="M75 192 100 192 100 230 75 230 75 192 Z" fill="rgba(0,0,0,0.5)" stroke="none" />
<path d="M100 192 125 192 125 230 100 230 100 192 Z" fill="rgba(20,20,20,0.5)" stroke="none" />
<path d="M125 192 150 192 150 230 125 230 125 192 Z" fill="rgba(123,123,123,0.5)" stroke="none" />
<path d="M150 192 175 192 175 230 150 230 150 192 Z" fill="rgba(199,199,199,0.5)" stroke="none" />
<path d="M175 192 200 192 200 230 175 230 175 192 Z" fill="rgba(223,223,223,0.5)" stroke="none" />
<path d="M200 192 225 192 225 230 200 230 200 192 Z" fill="rgba(238,238,238,0.5)" stroke="none" />
<path d="M225 192 250 192 250 230 225 230 225 192 Z" fill="rgba(245,245,245,0.5)" stroke="none" />
<path d="M250 192 275 192 275 230 250 230 250 192 Z" fill="rgba(241,241,241,0.5)" stroke="none" />
<path d="M275 192 300 192 300 230 275 230 275 192 Z" fill="rgba(231,231,231,0.5)" stroke="none" />
<path d="M300 192 325 192 325 230 300 230 300 192 Z" fill="rgba(213,213,213,0.5)" stroke="none" />
<path d="M325 192 350 192 350 230 325 230 325 192 Z" fill="rgba(189,189,189,0.5)" stroke="none" />
<path d="M350 192 375 192 375 230 350 230 350 192 Z" fill="rgba(120,120,120,0.5)" stroke="none" />
<path d="M375 192 400 192 400 230 375 230 375 192 Z" fill="rgba(45,45,45,0.5)" stroke="none" />
<path d="M400 192 425 192 425 230 400 230 400 192 Z" fill="rgba(25,25,25,0.5)" stroke="none" />
<path d="M425 192 450 192 450 230 425 230 425 192 Z" fill="rgba(0,0,0,0.5)" stroke="none" />
<path d="M450 192 475 192 475 230 450 230 450 192 Z" fill="rgba(0,0,0,0.5)" stroke="none" />
<path d="M475 192 500 192 500 230 475 230 475 192 Z" fill="rgba(0,0,0,0.5)" stroke="none" />
<path d="M0 230 25 230 25 269 0 269 0 230 Z" fill="rgba(0,0,0,0.5)" stroke="none" />
<path d="M25 230 50 230 50 269 25 269 25 230 Z" fill="rgba(0,0,0,0.5)" stroke="none" />
<path d="M50 230 75 230 75 269 50 269 50 230 Z" fill="rgba(0,0,0,0.5)" stroke="none" />
<path d="M75 230 100 230 100 269 75 269 75 230 Z" fill="rgba(0,0,0,0.5)" stroke="none" />
<path d="M100 230 125 230 125 269 100 269 100 230 Z" fill="rgba(18,18,18,0.5)" stroke="none" />
<path d="M125 230 150 230 150 269 125 269 125 230 Z" fill="rgba(118,118,118,0.5)" stroke="none" />
<path d="M150 230 175 230 175 269 150 269 150 230 Z" fill="rgba(201,201,201,0.5)" stroke="none" />
<path d="M175 230 200 230 200 269 175 269 175 230 Z" fill="rgba(228,228,228,0.5)" stroke="none" />
<path d="M200 230 225 230 225 269 200 269 200 230 Z" fill="rgba(242,242,242,0.5)" stroke="none" />
<path d="M225 230 250 230 250 269 225 269 225 230 Z" fill="rgba(247,247,247,0.5)" stroke="none" />
<path d="M250 230 275 230 275 269 250 269 250 230 Z" fill="rgba(244,244,244,0.5)" stroke="none" />
<path d="M275 230 300 230 300 269 275 269 275 230 Z" fill="rgba(236,236,236,0.5)" stroke="none" />
<path d="M300 230 325 230 325 269 300 269 300 230 Z" fill="rgba(225,225,225,0.5)" stroke="none" />
<path d="M325 230 350 230 350 269 325 269 325 230 Z" fill="rgba(199,199,199,0.5)" stroke="none" />
<path d="M350 230 375 230 375 269 350 269 350 230 Z" fill="rgba(120,120,120,0.5)" stroke="none" />
<path d="M375 230 400 230 400 269 375 269 375 230 Z" fill="rgba(38,38,38,0.5)" stroke="none" />
<path d="M400 230 425 230 425 269 400 269 400 230 Z" fill="rgba(16,16,16,0.5)" stroke="none" />
<path d="M425 230 450 230 450 269 425 269 425 230 Z" fill="rgba(0,0,0,0.5)" stroke="none" />
<path d="M450 230 475 230 475 269 450 269 450 230 Z" fill="rgba(0,0,0,0.5)" stroke="none" />
<path d="M475 230 500 230 500 269 475 269 475 230 Z" fill="rgba(0,0,0,0.5)" stroke="none" />
<path d="M0 269 25 269 25 307 0 307 0 269 Z" fill="rgba(0,0,0,0.5)" stroke="none" />
<path d="M25 269 50 269 50 307 25 307 25 269 Z" fill="rgba(0,0,0,0.5)" stroke="none" />
<path d="M50 269 75 269 75 307 50 307 50 269 Z" fill="rgba(0,0,0,0.5)" stroke="none" />
<path d="M75 269 100 269 100 307 75 307 75 269 Z" fill="rgba(20,20,20,0.5)" stroke="none" />
<path d="M100 269 125 269 125 307 100 307 100 269 Z" fill="rgba(53,53,53,0.5)" stroke="none" />
<path d="M125 269 150 269 150 307 125 307 125 269 Z" fill="rgba(88,88,88,0.5)" stroke="none" />
<path d="M150 269 175 269 175 307 150 307 150 269 Z" fill="rgba(114,114,114,0.5)" stroke="none" />
<path d="M175 269 200 269 200 307 175 307 175 269 Z" fill="rgba(109,109,109,0.5)" stroke="none" />
<path d="M200 269 225 269 225 307 200 307 200 269 Z" fill="rgba(129,129,129,0.5)" stroke="none" />
<path d="M225 269 250 269 250 307 225 307 225 269 Z" fill="rgba(197,197,197,0.5)" stroke="none" />
<path d="M250 269 275 269 275 307 250 307 250 269 Z" fill="rgba(227,227,227,0.5)" stroke="none" />
<path d="M275 269 300 269 300 307 275 307 275 269 Z" fill="rgba(177,177,177,0.5)" stroke="none" />
<path d="M300 269 325 269 325 307 300 307 300 269 Z" fill="rgba(117,117,117,0.5)" stroke="none" />
<path d="M325 269 350 269 350 307 325 307 325 269 Z" fill="rgba(87,87,87,0.5)" stroke="none" />
<path d="M350 269 375 269 375 307 350 307 350 269 Z" fill="rgba(63,63,63,0.5)" stroke="none" />
<path d="M375 269 400 269 400 307 375 307 375 269 Z" fill="rgba(58,58,58,0.5)" stroke="none" />
<path d="M400 269 425 269 425 307 400 307 400 269 Z" fill="rgba(47,47,47,0.5)" stroke="none" />
<path d="M425 269 450 269 450 307 425 307 425 269 Z" fill="rgba(0,0,0,0.5)" stroke="none" />
<path d="M450 269 475 269 475 307 450 307 450 269 Z" fill="rgba(0,0,0,0.5)" stroke="none" />
<path d="M475 269 500 269 500 307 475 307 475 269 Z" fill="rgba(0,0,0,0.5)" stroke="none" />
<path d="M0 307 25 307 25 346 0 346 0 307 Z" fill="rgba(0,0,0,0.5)" stroke="none" />
<path d="M25 307 50 307 50 346 25 346 25 307 Z" fill="rgba(0,0,0,0.5)" stroke="none" />
<path d="M50 307 75 307 75 346 50 346 50 307 Z" fill="rgba(0,0,0,0.5)" stroke="none" />
<path d="M75 307 100 307 100 346 75 346 75 307 Z" fill="rgba(9,9,9,0.5)" stroke="none" />
<path d="M100 307 125 307 125 346 100 346 100 307 Z" fill="rgba(33,33,33,0.5)" stroke="none" />
<path d="M125 307 150 307 150 346 125 346 125 307 Z" fill="rgba(44,44,44,0.5)" stroke="none" />
<path d="M150 307 175 307 175 346 150 346 150 307 Z" fill="rgba(52,52,52,0.5)" stroke="none" />
<path d="M175 307 200 307 200 346 175 346 175 307 Z" fill="rgba(40,40,40,0.5)" stroke="none" />
<path d="M200 307 225 307 225 346 200 346 200 307 Z" fill="rgba(66,66,66,0.5)" stroke="none" />
<path d="M225 307 250 307 250 346 225 346 225 307 Z" fill="rgba(89,89,89,0.5)" stroke="none" />
<path d="M250 307 275 307 275 346 250 346 250 307 Z" fill="rgba(88,88,88,0.5)" stroke="none" />
<path d="M275 307 300 307 300 346 275 346 275 307 Z" fill="rgba(70,70,70,0.5)" stroke="none" />
<path d="M300 307 325 307 325 346 300 346 300 307 Z" fill="rgba(45,45,45,0.5)" stroke="none" />
<path d="M325 307 350 307 350 346 325 346 325 307 Z" fill="rgba(61,61,61,0.5)" stroke="none" />
<path d="M350 307 375 307 375 346 350 346 350 307 Z" fill="rgba(64,64,64,0.5)" stroke="none" />
<path d="M375 307 400 307 400 346 375 346 375 307 Z" fill="rgba(40,40,40,0.5)" stroke="none" />
<path d="M400 307 425 307 425 346 400 346 400 307 Z" fill="rgba(36,36,36,0.5)" stroke="none" />
<path d="M425 307 450 307 450 346 425 346 425 307 Z" fill="rgba(0,0,0,0.5)" stroke="none" />
<path d="M450 307 475 307 475 346 450 346 450 307 Z" fill="rgba(0,0,0,0.5)" stroke="none" />
<path d="M475 307 500 307 500 346 475 346 475 307 Z" fill="rgba(0,0,0,0.5)" stroke="none" />
<path d="M0 346 25 346 25 384 0 384 0 346 Z" fill="rgba(0,0,0,0.5)" stroke="none" />
<path d="M25 346 50 346 50 384 25 384 25 346 Z" fill="rgba(0,0,0,0.5)" stroke="none" />
<path d="M50 346 75 346 75 384 50 384 50 346 Z" fill="rgba(0,0,0,0.5)" stroke="none" />
<path d="M75 346 100 346 100 384 75 384 75 346 Z" fill="rgba(0,0,0,0.5)" stroke="none" />
<path d="M100 346 125 346 125 384 100 384 100 346 Z" fill="rgba(75,75,75,0.5)" stroke="none" />
<path d="M125 346 150 346 150 384 125 384 125 346 Z" fill="rgba(54,54,54,0.5)" stroke="none" />
<path d="M150 346 175 346 175 384 150 384 150 346 Z" fill="rgba(123,123,123,0.5)" stroke="none" />
<path d="M175 346 200 346 200 384 175 384 175 346 Z" fill="rgba(144,144,144,0.5)" stroke="none" />
<path d="M200 346 225 346 225 384 200 384 200 346 Z" fill="rgba(156,156,156,0.5)" stroke="none" />
<path d="M225 346 250 346 250 384 225 384 225 346 Z" fill="rgba(157,157,157,0.5)" stroke="none" />
<path d="M250 346 275 346 275 384 250 384 250 346 Z" fill="rgba(97,97,97,0.5)" stroke="none" />
<path d="M275 346 300 346 300 384 275 384 275 346 Z" fill="rgba(103,103,103,0.5)" stroke="none" />
<path d="M300 346 325 346 325 384 300 384 300 346 Z" fill="rgba(106,106,106,0.5)" stroke="none" />
<path d="M325 346 350 346 350 384 325 384 325 346 Z" fill="rgba(107,107,107,0.5)" stroke="none" />
<path d="M350 346 375 346 375 384 350 384 350 346 Z" fill="rgba(90,90,90,0.5)" stroke="none" />
<path d="M375 346 400 346 400 384 375 384 375 346 Z" fill="rgba(46,46,46,0.5)" stroke="none" />
<path d="M400 346 425 346 425 384 400 384 400 346 Z" fill="rgba(44,44,44,0.5)" stroke="none" />
<path d="M425 346 450 346 450 384 425 384 425 346 Z" fill="rgba(0,0,0,0.5)" stroke="none" />
<path d="M450 346 475 346 475 384 450 384 450 346 Z" fill="rgba(0,0,0,0.5)" stroke="none" />
<path d="M475 346 500 346 500 384 475 384 475 346 Z" fill="rgba(0,0,0,0.5)" stroke="none" />
<path d="M0 384 25 384 25 423 0 423 0 384 Z" fill="rgba(0,0,0,0.5)" stroke="none" />
<path d="M25 384 50 384 50 423 25 423 25 384 Z" fill="rgba(0,0,0,0.5)" stroke="none" />
<path d="M50 384 75 384 75 423 50 423 50 384 Z" fill="rgba(0,0,0,0.5)" stroke="none" />
<path d="M75 384 100 384 100 423 75 423 75 384 Z" fill="rgba(0,0,0,0.5)" stroke="none" />
<path d="M100 384 125 384 125 423 100 423 100 384 Z" fill="rgba(122,122,122,0.5)" stroke="none" />
<path d="M125 384 150 384 150 423 125 423 125 384 Z" fill="rgba(141,141,141,0.5)" stroke="none" />
<path d="M150 384 175 384 175 423 150 423 150 384 Z" fill="rgba(197,197,197,0.5)" stroke="none" />
<path d="M175 384 200 384 200 423 175 423 175 384 Z" fill="rgba(218,218,218,0.5)" stroke="none" />
<path d="M200 384 225 384 225 423 200 423 200 384 Z" fill="rgba(134,134,134,0.5)" stroke="none" />
<path d="M225 384 250 384 250 423 225 423 225 384 Z" fill="rgba(171,171,171,0.5)" stroke="none" />
<path d="M250 384 275 384 275 423 250 423 250 384 Z" fill="rgba(166,166,166,0.5)" stroke="none" />
<path d="M275 384 300 384 300 423 275 423 275 384 Z" fill="rgba(145,145,145,0.5)" stroke="none" />
<path d="M300 384 325 384 325 423 300 423 300 384 Z" fill="rgba(164,164,164,0.5)" stroke="none" />
<path d="M325 384 350 384 350 423 325 423 325 384 Z" fill="rgba(183,183,183,0.5)" stroke="none" />
<path d="M350 384 375 384 375 423 350 423 350 384 Z" fill="rgba(131,131,131,0.5)" stroke="none" />
<path d="M375 384 400 384 400 423 375 423 375 384 Z" fill="rgba(61,61,61,0.5)" stroke="none" />
<path d="M400 384 425 384 425 423 400 423 400 384 Z" fill="rgba(47,47,47,0.5)" stroke="none" />
<path d="M425 384 450 384 450 423 425 423 425 384 Z" fill="rgba(0,0,0,0.5)" stroke="none" />
<path d="M450 384 475 384 475 423 450 423 450 384 Z" fill="rgba(0,0,0,0.5)" stroke="none" />
<path d="M475 384 500 384 500 423 475 423 475 384 Z" fill="rgba(0,0,0,0.5)" stroke="none" />
<path d="M0 423 25 423 25 461 0 461 0 423 Z" fill="rgba(0,0,0,0.5)" stroke="none" />
<path d="M25 423 50 423 50 461 25 461 25 423 Z" fill="rgba(0,0,0,0.5)" stroke="none" />
<path d="M50 423 75 423 75 461 50 461 50 423 Z" fill="rgba(0,0,0,0.5)" stroke="none" />
<path d="M75 423 100 423 100 461 75 461 75 423 Z" fill="rgba(0,0,0,0.5)" stroke="none" />
<path d="M100 423 125 423 125 461 100 461 100 423 Z" fill="rgba(72,72,72,0.5)" stroke="none" />
<path d="M125 423 150 423 150 461 125 461 125 423 Z" fill="rgba(143,143,143,0.5)" stroke="none" />
<path d="M150 423 175 423 175 461 150 461 150 423 Z" fill="rgba(197,197,197,0.5)" stroke="none" />
<path d="M175 423 200 423 200 461 175 461 175 423 Z" fill="rgba(222,222,222,0.5)" stroke="none" />
<path d="M200 423 225 423 225 461 200 461 200 423 Z" fill="rgba(152,152,152,0.5)" stroke="none" />
<path d="M225 423 250 423 250 461 225 461 225 423 Z" fill="rgba(183,183,183,0.5)" stroke="none" />
<path d="M250 423 275 423 275 461 250 461 250 423 Z" fill="rgba(199,199,199,0.5)" stroke="none" />
<path d="M275 423 300 423 300 461 275 461 275 423 Z" fill="rgba(173,173,173,0.5)" stroke="none" />
<path d="M300 423 325 423 325 461 300 461 300 423 Z" fill="rgba(191,191,191,0.5)" stroke="none" />
<path d="M325 423 350 423 350 461 325 461 325 423 Z" fill="rgba(190,190,190,0.5)" stroke="none" />
<path d="M350 423 375 423 375 461 350 461 350 423 Z" fill="rgba(110,110,110,0.5)" stroke="none" />
<path d="M375 423 400 423 400 461 375 461 375 423 Z" fill="rgba(38,38,38,0.5)" stroke="none" />
<path d="M400 423 425 423 425 461 400 461 400 423 Z" fill="rgba(19,19,19,0.5)" stroke="none" />
<path d="M425 423 450 423 450 461 425 461 425 423 Z" fill="rgba(0,0,0,0.5)" stroke="none" />
<path d="M450 423 475 423 475 461 450 461 450 423 Z" fill="rgba(0,0,0,0.5)" stroke="none" />
<path d="M475 423 500 423 500 461 475 461 475 423 Z" fill="rgba(0,0,0,0.5)" stroke="none" />
<path d="M0 461 25 461 25 500 0 500 0 461 Z" fill="rgba(0,0,0,0.5)" stroke="none" />
<path d="M25 461 50 461 50 500 25 500 25 461 Z" fill="rgba(0,0,0,0.5)" stroke="none" />
<path d="M50 461 75 461 75 500 50 500 50 461 Z" fill="rgba(0,0,0,0.5)" stroke="none" />
<path d="M75 461 100 461 100 500 75 500 75 461 Z" fill="rgba(0,0,0,0.5)" stroke="none" />
<path d="M100 461 125 461 125 500 100 500 100 461 Z" fill="rgba(17,17,17,0.5)" stroke="none" />
<path d="M125 461 150 461 150 500 125 500 125 461 Z" fill="rgba(107,107,107,0.5)" stroke="none" />
<path d="M150 461 175 461 175 500 150 500 150 461 Z" fill="rgba(179,179,179,0.5)" stroke="none" />
<path d="M175 461 200 461 200 500 175 500 175 461 Z" fill="rgba(221,221,221,0.5)" stroke="none" />
<path d="M200 461 225 461 225 500 200 500 200 461 Z" fill="rgba(206,206,206,0.5)" stroke="none" />
<path d="M225 461 250 461 250 500 225 500 225 461 Z" fill="rgba(165,165,165,0.5)" stroke="none" />
<path d="M250 461 275 461 275 500 250 500 250 461 Z" fill="rgba(121,121,121,0.5)" stroke="none" />
<path d="M275 461 300 461 300 500 275 500 275 461 Z" fill="rgba(132,132,132,0.5)" stroke="none" />
<path d="M300 461 325 461 325 500 300 500 300 461 Z" fill="rgba(179,179,179,0.5)" stroke="none" />
<path d="M325 461 350 461 350 500 325 500 325 461 Z" fill="rgba(155,155,155,0.5)" stroke="none" />
<path d="M350 461 375 461 375 500 350 500 350 461 Z" fill="rgba(69,69,69,0.5)" stroke="none" />
<path d="M375 461 400 461 400 500 375 500 375 461 Z" fill="rgba(14,14,14,0.5)" stroke="none" />
<path d="M400 461 425 461 425 500 400 500 400 461 Z" fill="rgba(0,0,0,0.5)" stroke="none" />
<path d="M425 461 450 461 450 500 425 500 425 461 Z" fill="rgba(0,0,0,0.5)" stroke="none" />
<path d="M450 461 475 461 475 500 450 500 450 461 Z" fill="rgba(0,0,0,0.5)" stroke="none" />
<path d="M475 461 500 461 500 500 475 500 475 461 Z" fill="rgba(0,0,0,0.5)" stroke="none" />
<path d="M0 500 25 500 25 538 0 538 0 500 Z" fill="rgba(0,0,0,0.5)" stroke="none" />
<path d="M25 500 50 500 50 538 25 538 25 500 Z" fill="rgba(0,0,0,0.5)" stroke="none" />
<path d="M50 500 75 500 75 538 50 538 50 500 Z" fill="rgba(0,0,0,0.5)" stroke="none" />
<path d="M75 500 100 500 100 538 75 538 75 500 Z" fill="rgba(0,0,0,0.5)" stroke="none" />
<path d="M100 500 125 500 125 538 100 538 100 500 Z" fill="rgba(5,5,5,0.5)" stroke="none" />
<path d="M125 500 150 500 150 538 125 538 125 500 Z" fill="rgba(94,94,94,0.5)" stroke="none" />
<path d="M150 500 175 500 175 538 150 538 150 500 Z" fill="rgba(151,151,151,0.5)" stroke="none" />
<path d="M175 500 200 500 200 538 175 538 175 500 Z" fill="rgba(167,167,167,0.5)" stroke="none" />
<path d="M200 500 225 500 225 538 200 538 200 500 Z" fill="rgba(149,149,149,0.5)" stroke="none" />
<path d="M225 500 250 500 250 538 225 538 225 500 Z" fill="rgba(115,115,115,0.5)" stroke="none" />
<path d="M250 500 275 500 275 538 250 538 250 500 Z" fill="rgba(92,92,92,0.5)" stroke="none" />
<path d="M275 500 300 500 300 538 275 538 275 500 Z" fill="rgba(98,98,98,0.5)" stroke="none" />
<path d="M300 500 325 500 325 538 300 538 300 500 Z" fill="rgba(114,114,114,0.5)" stroke="none" />
<path d="M325 500 350 500 350 538 325 538 325 500 Z" fill="rgba(92,92,92,0.5)" stroke="none" />
<path d="M350 500 375 500 375 538 350 538 350 500 Z" fill="rgba(52,52,52,0.5)" stroke="none" />
<path d="M375 500 400 500 400 538 375 538 375 500 Z" fill="rgba(25,25,25,0.5)" stroke="none" />
<path d="M400 500 425 500 425 538 400 538 400 500 Z" fill="rgba(0,0,0,0.5)" stroke="none" />
<path d="M425 500 450 500 450 538 425 538 425 500 Z" fill="rgba(0,0,0,0.5)" stroke="none" />
<path d="M450 500 475 500 475 538 450 538 450 500 Z" fill="rgba(0,0,0,0.5)" stroke="none" />
<path d="M475 500 500 500 500 538 475 538 475 500 Z" fill="rgba(0,0,0,0.5)" stroke="none" />
<path d="M0 538 25 538 25 576 0 576 0 538 Z" fill="rgba(0,0,0,0.5)" stroke="none" />
<path d="M25 538 50 538 50 576 25 576 25 538 Z" fill="rgba(0,0,0,0.5)" stroke="none" />
<path d="M50 538 75 538 75 576 50 576 50 538 Z" fill="rgba(0,0,0,0.5)" stroke="none" />
<path d="M75 538 100 538 100 576 75 576 75 538 Z" fill="rgba(0,0,0,0.5)" stroke="none" />
<path d="M100 538 125 538 125 576 100 576 100 538 Z" fill="rgba(0,0,0,0.5)" stroke="none" />
<path d="M125 538 150 538 150 576 125 576 125 538 Z" fill="rgba(51,51,51,0.5)" stroke="none" />
<path d="M150 538 175 538 175 576 150 576 150 538 Z" fill="rgba(81,81,81,0.5)" stroke="none" />
<path d="M175 538 200 538 200 576 175 576 175 538 Z" fill="rgba(110,110,110,0.5)" stroke="none" />
<path d="M200 538 225 538 225 576 200 576 200 538 Z" fill="rgba(129,129,129,0.5)" stroke="none" />
<path d="M225 538 250 538 250 576 225 576 225 538 Z" fill="rgba(161,161,161,0.5)" stroke="none" />
<path d="M250 538 275 538 275 576 250 576 250 538 Z" fill="rgba(179,179,179,0.5)" stroke="none" />
<path d="M275 538 300 538 300 576 275 576 275 538 Z" fill="rgba(143,143,143,0.5)" stroke="none" />
<path d="M300 538 325 538 325 576 300 576 300 538 Z" fill="rgba(84,84,84,0.5)" stroke="none" />
<path d="M325 538 350 538 350 576 325 576 325 538 Z" fill="rgba(42,42,42,0.5)" stroke="none" />
<path d="M350 538 375 538 375 576 350 576 350 538 Z" fill="rgba(30,30,30,0.5)" stroke="none" />
<path d="M375 538 400 538 400 576 375 576 375 538 Z" fill="rgba(22,22,22,0.5)" stroke="none" />
<path d="M400 538 425 538 425 576 400 576 400 538 Z" fill="rgba(0,0,0,0.5)" stroke="none" />
<path d="M425 538 450 538 450 576 425 576 425 538 Z" fill="rgba(0,0,0,0.5)" stroke="none" />
<path d="M450 538 475 538 475 576 450 576 450 538 Z" fill="rgba(0,0,0,0.5)" stroke="none" />
<path d="M475 538 500 538 500 576 475 576 475 538 Z" fill="rgba(0,0,0,0.5)" stroke="none" />
<path d="M0 576 25 576 25 615 0 615 0 576 Z" fill="rgba(0,0,0,0.5)" stroke="none" />
<path d="M25 576 50 576 50 615 25 615 25 576 Z" fill="rgba(0,0,0,0.5)" stroke="none" />
<path d="M50 576 75 576 75 615 50 615 50 576 Z" fill="rgba(0,0,0,0.5)" stroke="none" />
<path d="M75 576 100 576 100 615 75 615 75 576 Z" fill="rgba(0,0,0,0.5)" stroke="none" />
<path d="M100 576 125 576 125 615 100 615 100 576 Z" fill="rgba(0,0,0,0.5)" stroke="none" />
<path d="M125 576 150 576 150 615 125 615 125 576 Z" fill="rgba(44,44,44,0.5)" stroke="none" />
<path d="M150 576 175 576 175 615 150 615 150 576 Z" fill="rgba(42,42,42,0.5)" stroke="none" />
<path d="M175 576 200 576 200 615 175 615 175 576 Z" fill="rgba(97,97,97,0.5)" stroke="none" />
<path d="M200 576 225 576 225 615 200 615 200 576 Z" fill="rgba(170,170,170,0.5)" stroke="none" />
<path d="M225 576 250 576 250 615 225 615 225 576 Z" fill="rgba(180,180,180,0.5)" stroke="none" />
<path d="M250 576 275 576 275 615 250 615 250 576 Z" fill="rgba(167,167,167,0.5)" stroke="none" />
<path d="M275 576 300 576 300 615 275 615 275 576 Z" fill="rgba(140,140,140,0.5)" stroke="none" />
<path d="M300 576 325 576 325 615 300 615 300 576 Z" fill="rgba(93,93,93,0.5)" stroke="none" />
<path d="M325 576 350 576 350 615 325 615 325 576 Z" fill="rgba(46,46,46,0.5)" stroke="none" />
<path d="M350 576 375 576 375 615 350 615 350 576 Z" fill="rgba(13,13,13,0.5)" stroke="none" />
<path d="M375 576 400 576 400 615 375 615 375 576 Z" fill="rgba(0,0,0,0.5)" stroke="none" />
<path d="M400 576 425 576 425 615 400 615 400 576 Z" fill="rgba(0,0,0,0.5)" stroke="none" />
<path d="M425 576 450 576 450 615 425 615 425 576 Z" fill="rgba(0,0,0,0.5)" stroke="none" />
<path d="M450 576 475 576 475 615 450 615 450 576 Z" fill="rgba(0,0,0,0.5)" stroke="none" />
<path d="M475 576 500 576 500 615 475 615 475 576 Z" fill="rgba(0,0,0,0.5)" stroke="none" />
<path d="M0 615 25 615 25 653 0 653 0 615 Z" fill="rgba(0,0,0,0.5)" stroke="none" />
<path d="M25 615 50 615 50 653 25 653 25 615 Z" fill="rgba(0,0,0,0.5)" stroke="none" />
<path d="M50 615 75 615 75 653 50 653 50 615 Z" fill="rgba(0,0,0,0.5)" stroke="none" />
<path d="M75 615 100 615 100 653 75 653 75 615 Z" fill="rgba(0,0,0,0.5)" stroke="none" />
<path d="M100 615 125 615 125 653 100 653 100 615 Z" fill="rgba(0,0,0,0.5)" stroke="none" />
<path d="M125 615 150 615 150 653 125 653 125 615 Z" fill="rgba(61,61,61,0.5)" stroke="none" />
<path d="M150 615 175 615 175 653 150 653 150 615 Z" fill="rgba(84,84,84,0.5)" stroke="none" />
<path d="M175 615 200 615 200 653 175 653 175 615 Z" fill="rgba(73,73,73,0.5)" stroke="none" />
<path d="M200 615 225 615 225 653 200 653 200 615 Z" fill="rgba(129,129,129,0.5)" stroke="none" />
<path d="M225 615 250 615 250 653 225 653 225 615 Z" fill="rgba(131,131,131,0.5)" stroke="none" />
<path d="M250 615 275 615 275 653 250 653 250 615 Z" fill="rgba(118,118,118,0.5)" stroke="none" />
<path d="M275 615 300 615 300 653 275 653 275 615 Z" fill="rgba(99,99,99,0.5)" stroke="none" />
<path d="M300 615 325 615 325 653 300 653 300 615 Z" fill="rgba(63,63,63,0.5)" stroke="none" />
<path d="M325 615 350 615 350 653 325 653 325 615 Z" fill="rgba(39,39,39,0.5)" stroke="none" />
<path d="M350 615 375 615 375 653 350 653 350 615 Z" fill="rgba(18,18,18,0.5)" stroke="none" />
<path d="M375 615 400 615 400 653 375 653 375 615 Z" fill="rgba(0,0,0,0.5)" stroke="none" />
<path d="M400 615 425 615 425 653 400 653 400 615 Z" fill="rgba(0,0,0,0.5)" stroke="none" />
<path d="M425 615 450 615 450 653 425 653 425 615 Z" fill="rgba(0,0,0,0.5)" stroke="none" />
<path d="M450 615 475 615 475 653 450 653 450 615 Z" fill="rgba(0,0,0,0.5)" stroke="none" />
<path d="M475 615 500 615 500 653 475 653 475 615 Z" fill="rgba(0,0,0,0.5)" stroke="none" />
<path d="M0 653 25 653 25 692 0 692 0 653 Z" fill="rgba(0,0,0,0.5)" stroke="none" />
<path d="M25 653 50 653 50 692 25 692 25 653 Z" fill="rgba(0,0,0,0.5)" stroke="none" />
<path d="M50 653 75 653 75 692 50 692 50 653 Z" fill="rgba(0,0,0,0.5)" stroke="none" />
<path d="M75 653 100 653 100 692 75 692 75 653 Z" fill="rgba(0,0,0,0.5)" stroke="none" />
<path d="M100 653 125 653 125 692 100 692 100 653 Z" fill="rgba(0,0,0,0.5)" stroke="none" />
<path d="M125 653 150 653 150 692 125 692 125 653 Z" fill="rgba(10,10,10,0.5)" stroke="none" />
<path d="M150 653 175 653 175 692 150 692 150 653 Z" fill="rgba(127,127,127,0.5)" stroke="none" />
<path d="M175 653 200 653 200 692 175 692 175 653 Z" fill="rgba(99,99,99,0.5)" stroke="none" />
<path d="M200 653 225 653 225 692 200 692 200 653 Z" fill="rgba(84,84,84,0.5)" stroke="none" />
<path d="M225 653 250 653 250 692 225 692 225 653 Z" fill="rgba(112,112,112,0.5)" stroke="none" />
<path d="M250 653 275 653 275 692 250 692 250 653 Z" fill="rgba(117,117,117,0.5)" stroke="none" />
<path d="M275 653 300 653 300 692 275 692 275 653 Z" fill="rgba(78,78,78,0.5)" stroke="none" />
<path d="M300 653 325 653 325 692 300 692 300 653 Z" fill="rgba(42,42,42,0.5)" stroke="none" />
<path d="M325 653 350 653 350 692 325 692 325 653 Z" fill="rgba(35,35,35,0.5)" stroke="none" />
<path d="M350 653 375 653 375 692 350 692 350 653 Z" fill="rgba(22,22,22,0.5)" stroke="none" />
<path d="M375 653 400 653 400 692 375 692 375 653 Z" fill="rgba(0,0,0,0.5)" stroke="none" />
<path d="M400 653 425 653 425 692 400 692 400 653 Z" fill="rgba(1,1,1,0.5)" stroke="none" />
<path d="M425 653 450 653 450 692 425 692 425 653 Z" fill="rgba(2,2,2,0.5)" stroke="none" />
<path d="M450 653 475 653 475 692 450 692 450 653 Z" fill="rgba(0,0,0,0.5)" stroke="none" />
<path d="M475 653 500 653 500 692 475 692 475 653 Z" fill="rgba(0,0,0,0.5)" stroke="none" />
<path d="M0 692 25 692 25 730 0 730 0 692 Z" fill="rgba(0,0,0,0.5)" stroke="none" />
<path d="M25 692 50 692 50 730 25 730 25 692 Z" fill="rgba(0,0,0,0.5)" stroke="none" />
<path d="M50 692 75 692 75 730 50 730 50 692 Z" fill="rgba(12,12,12,0.5)" stroke="none" />
<path d="M75 692 100 692 100 730 75 730 75 692 Z" fill="rgba(1,1,1,0.5)" stroke="none" />
<path d="M100 692 125 692 125 730 100 730 100 692 Z" fill="rgba(1,1,1,0.5)" stroke="none" />
<path d="M125 692 150 692 150 730 125 730 125 692 Z" fill="rgba(0,0,0,0.5)" stroke="none" />
<path d="M150 692 175 692 175 730 150 730 150 692 Z" fill="rgba(104,104,104,0.5)" stroke="none" />
<path d="M175 692 200 692 200 730 175 730 175 692 Z" fill="rgba(155,155,155,0.5)" stroke="none" />
<path d="M200 692 225 692 225 730 200 730 200 692 Z" fill="rgba(91,91,91,0.5)" stroke="none" />
<path d="M225 692 250 692 250 730 225 730 225 692 Z" fill="rgba(44,44,44,0.5)" stroke="none" />
<path d="M250 692 275 692 275 730 250 730 250 692 Z" fill="rgba(31,31,31,0.5)" stroke="none" />
<path d="M275 692 300 692 300 730 275 730 275 692 Z" fill="rgba(28,28,28,0.5)" stroke="none" />
<path d="M300 692 325 692 325 730 300 730 300 692 Z" fill="rgba(31,31,31,0.5)" stroke="none" />
<path d="M325 692 350 692 350 730 325 730 325 692 Z" fill="rgba(25,25,25,0.5)" stroke="none" />
<path d="M350 692 375 692 375 730 350 730 350 692 Z" fill="rgba(8,8,8,0.5)" stroke="none" />
<path d="M375 692 400 692 400 730 375 730 375 692 Z" fill="rgba(0,0,0,0.5)" stroke="none" />
<path d="M400 692 425 692 425 730 400 730 400 692 Z" fill="rgba(3,3,3,0.5)" stroke="none" />
<path d="M425 692 450 692 450 730 425 730 425 692 Z" fill="rgba(6,6,6,0.5)" stroke="none" />
<path d="M450 692 475 692 475 730 450 730 450 692 Z" fill="rgba(0,0,0,0.5)" stroke="none" />
<path d="M475 692 500 692 500 730 475 730 475 692 Z" fill="rgba(0,0,0,0.5)" stroke="none" />
<path d="M0 730 25 730 25 769 0 769 0 730 Z" fill="rgba(6,6,6,0.5)" stroke="none" />
<path d="M25 730 50 730 50 769 25 769 25 730 Z" fill="rgba(0,0,0,0.5)" stroke="none" />
<path d="M50 730 75 730 75 769 50 769 50 730 Z" fill="rgba(32,32,32,0.5)" stroke="none" />
<path d="M75 730 100 730 100 769 75 769 75 730 Z" fill="rgba(4,4,4,0.5)" stroke="none" />
<path d="M100 730 125 730 125 769 100 769 100 730 Z" fill="rgba(0,0,0,0.5)" stroke="none" />
<path d="M125 730 150 730 150 769 125 769 125 730 Z" fill="rgba(0,0,0,0.5)" stroke="none" />
<path d="M150 730 175 730 175 769 150 769 150 730 Z" fill="rgba(1,1,1,0.5)" stroke="none" />
<path d="M175 730 200 730 200 769 175 769 175 730 Z" fill="rgba(111,111,111,0.5)" stroke="none" />
<path d="M200 730 225 730 225 769 200 769 200 730 Z" fill="rgba(106,106,106,0.5)" stroke="none" />
<path d="M225 730 250 730 250 769 225 769 225 730 Z" fill="rgba(59,59,59,0.5)" stroke="none" />
<path d="M250 730 275 730 275 769 250 769 250 730 Z" fill="rgba(36,36,36,0.5)" stroke="none" />
<path d="M275 730 300 730 300 769 275 769 275 730 Z" fill="rgba(26,26,26,0.5)" stroke="none" />
<path d="M300 730 325 730 325 769 300 769 300 730 Z" fill="rgba(11,11,11,0.5)" stroke="none" />
<path d="M325 730 350 730 350 769 325 769 325 730 Z" fill="rgba(0,0,0,0.5)" stroke="none" />
<path d="M350 730 375 730 375 769 350 769 350 730 Z" fill="rgba(0,0,0,0.5)" stroke="none" />
<path d="M375 730 400 730 400 769 375 769 375 730 Z" fill="rgba(0,0,0,0.5)" stroke="none" />
<path d="M400 730 425 730 425 769 400 769 400 730 Z" fill="rgba(0,0,0,0.5)" stroke="none" />
<path d="M425 730 450 730 450 769 425 769 425 730 Z" fill="rgba(0,0,0,0.5)" stroke="none" />
<path d="M450 730 475 730 475 769 450 769 450 730 Z" fill="rgba(0,0,0,0.5)" stroke="none" />
<path d="M475 730 500 730 500 769 475 769 475 730 Z" fill="rgba(2,2,2,0.5)" stroke="none" />
</svg>