<svg width="100%" height="100%" version="1.1" xmlns="http://www.w3.org/2000/svg"> 
<path d="M234 414 229 429 223 424 232 431 232 421 238 428 238 423 243 423 234 420 Z" fill="none" stroke="black" stroke-width="1.118153" />
<path d="M157 413 167 423 184 432 171 425 162 414 Z" fill="none" stroke="black" stroke-width="1.084910" />
<path d="M208 399 208 411 219 416 214 418 217 420 221 416 219 414 225 411 224 407 219 413 213 413 Z" fill="none" stroke="black" stroke-width="1.096149" />
<path d="M152 392 161 400 165 410 162 399 Z" fill="none" stroke="black" stroke-width="1.002665" />
<path d="M186 388 192 397 187 408 190 411 199 400 190 410 188 408 193 396 Z" fill="none" stroke="black" stroke-width="1.109115" />
<path d="M195 377 197 383 192 391 196 393 194 394 198 393 200 386 196 393 194 390 198 383 204 387 200 405 204 409 207 403 201 407 202 394 207 383 202 384 Z" fill="none" stroke="black" stroke-width="1.279820" />
<path d="M272 377 267 372 272 380 263 387 260 384 256 388 244 389 241 384 235 388 229 384 225 386 221 382 222 379 220 383 225 388 227 385 233 388 238 394 241 391 238 393 235 388 240 385 243 391 259 387 261 401 266 407 262 401 261 389 271 383 Z" fill="none" stroke="black" stroke-width="1.512427" />
<path d="M287 353 270 364 239 372 222 370 201 357 214 367 227 370 230 374 224 379 229 377 232 371 248 371 273 364 Z" fill="none" stroke="black" stroke-width="1.459968" />
<path d="M279 349 253 354 198 351 186 361 198 351 254 354 Z" fill="none" stroke="black" stroke-width="1.396233" />
<path d="M305 344 295 346 304 344 307 347 303 353 300 352 305 356 296 364 287 362 298 364 301 368 299 364 309 356 303 353 308 348 312 352 Z" fill="none" stroke="black" stroke-width="1.237577" />
<path d="M166 343 166 359 170 363 166 347 169 344 Z" fill="none" stroke="black" stroke-width="1.026567" />
<path d="M315 340 313 345 317 352 314 345 316 342 324 348 Z" fill="none" stroke="black" stroke-width="1.003995" />
<path d="M128 339 141 355 138 349 140 344 136 347 Z" fill="none" stroke="black" stroke-width="1.012880" />
<path d="M123 335 133 364 142 377 145 389 150 392 144 385 142 374 134 363 Z" fill="none" stroke="black" stroke-width="1.191097" />
<path d="M334 330 329 337 331 345 323 352 331 349 330 339 Z" fill="none" stroke="black" stroke-width="1.037324" />
<path d="M260 325 262 331 264 324 273 336 283 336 279 333 274 335 264 323 Z" fill="none" stroke="black" stroke-width="1.091501" />
<path d="M167 374 173 376 178 372 173 376 169 374 176 368 180 355 186 348 189 350 185 355 196 346 208 347 231 343 253 346 264 341 293 340 297 336 275 341 266 340 262 335 248 335 243 338 235 328 238 336 234 337 232 334 227 337 222 333 206 342 197 341 194 336 203 331 210 320 202 330 192 336 195 340 187 348 178 351 180 355 177 364 Z" fill="none" stroke="black" stroke-width="2.083914" />
<path d="M188 348 195 341 206 343 223 334 226 339 240 337 246 340 249 336 264 338 252 346 236 341 207 347 194 346 190 350 Z" fill="none" stroke="black" stroke-width="1.389641" />
<path d="M232 312 229 314 219 308 215 320 210 314 211 309 206 318 201 317 191 324 201 318 204 322 209 316 217 321 220 311 223 313 221 317 225 312 228 315 Z" fill="none" stroke="black" stroke-width="1.286980" />
<path d="M298 305 323 327 Z" fill="none" stroke="black" stroke-width="1.000000" />
<path d="M282 285 277 277 280 290 269 298 265 296 266 292 253 307 240 307 219 293 210 296 216 304 225 303 244 322 241 325 235 322 241 327 244 321 238 312 225 303 218 304 212 297 221 294 239 308 253 308 265 296 270 298 280 292 Z" fill="none" stroke="black" stroke-width="1.800390" />
<path d="M132 275 139 300 157 320 160 341 167 340 174 328 179 327 179 332 183 333 186 323 182 332 179 323 167 333 166 339 160 338 158 319 140 299 140 293 135 288 137 285 141 291 142 287 135 282 Z" fill="none" stroke="black" stroke-width="1.631719" />
<path d="M278 270 288 297 286 309 282 314 294 324 299 336 306 340 307 337 304 339 297 332 293 321 283 314 287 311 289 297 Z" fill="none" stroke="black" stroke-width="1.322833" />
<path d="M146 267 162 275 187 274 163 275 Z" fill="none" stroke="black" stroke-width="1.098279" />
<path d="M265 247 283 269 308 281 337 288 345 293 339 302 344 298 345 293 338 287 296 276 284 268 Z" fill="none" stroke="black" stroke-width="1.442762" />
<path d="M282 231 308 243 318 244 322 248 320 244 Z" fill="none" stroke="black" stroke-width="1.045337" />
<path d="M335 227 327 234 309 238 328 235 Z" fill="none" stroke="black" stroke-width="1.043847" />
<path d="M369 214 364 219 359 246 347 264 334 272 305 275 331 273 343 269 360 247 362 250 355 263 341 275 340 279 311 277 339 281 354 266 363 248 360 245 364 223 Z" fill="none" stroke="black" stroke-width="1.876871" />
<path d="M259 215 252 211 237 214 236 225 225 250 205 271 182 280 164 281 153 278 173 282 197 276 210 269 230 242 238 215 252 212 258 217 262 243 261 260 268 271 269 282 269 272 262 260 263 243 Z" fill="none" stroke="black" stroke-width="2.062852" />
<path d="M295 205 321 202 331 208 332 206 321 202 Z" fill="none" stroke="black" stroke-width="1.053990" />
<path d="M99 202 106 212 112 238 111 279 115 282 121 333 117 288 113 278 113 237 106 209 Z" fill="none" stroke="black" stroke-width="1.668567" />
<path d="M197 206 180 200 173 205 158 208 147 215 140 224 142 225 146 217 159 209 181 201 Z" fill="none" stroke="black" stroke-width="1.242337" />
<path d="M105 198 103 203 106 200 118 208 115 214 115 232 118 240 119 267 128 296 127 305 128 296 119 263 119 240 116 232 116 214 119 207 Z" fill="none" stroke="black" stroke-width="1.557796" />
<path d="M351 207 340 199 326 196 346 204 356 222 353 248 345 258 332 267 306 269 295 266 284 259 271 242 279 230 277 227 290 221 289 216 304 223 313 223 317 219 326 223 319 231 296 231 315 233 323 230 326 222 320 219 319 214 319 218 316 215 311 223 296 221 291 213 286 217 289 221 277 226 271 243 276 252 292 266 301 269 327 269 336 266 350 254 356 240 357 222 Z" fill="none" stroke="black" stroke-width="2.567928" />
<path d="M204 204 186 195 173 194 161 199 154 206 151 205 156 199 147 206 144 214 149 206 154 207 174 194 185 195 Z" fill="none" stroke="black" stroke-width="1.301348" />
<path d="M141 206 136 220 137 238 144 253 157 263 170 267 197 265 207 260 222 242 227 226 226 218 215 214 206 215 200 211 192 217 180 218 173 211 172 217 173 215 180 219 193 218 197 213 224 218 227 226 220 244 201 262 187 266 162 264 144 251 137 234 137 220 142 206 151 198 162 194 150 198 Z" fill="none" stroke="black" stroke-width="2.330846" />
<path d="M136 196 158 191 201 191 159 190 Z" fill="none" stroke="black" stroke-width="1.217061" />
<path d="M87 186 87 192 92 195 88 199 97 207 98 266 112 286 115 325 120 342 130 360 134 390 125 417 112 429 92 437 68 457 31 474 0 493 13 487 5 495 35 477 69 462 84 448 115 433 128 421 133 398 129 418 117 430 93 441 68 461 13 487 34 473 65 460 93 438 114 429 125 419 134 392 137 395 141 430 145 441 160 457 189 469 218 474 251 475 284 468 301 461 333 441 350 414 349 411 336 436 314 454 283 467 251 475 196 470 168 460 151 447 142 430 131 361 124 350 116 325 113 285 98 265 97 206 90 199 94 194 87 188 91 187 102 199 92 186 Z" fill="none" stroke="black" stroke-width="6.000000" />
<path d="M332 176 326 180 301 180 278 185 262 199 246 195 230 199 199 185 206 191 217 192 230 199 251 196 268 203 307 192 305 189 298 192 303 191 303 194 268 203 263 199 279 186 301 181 324 181 Z" fill="none" stroke="black" stroke-width="2.034274" />
<path d="M163 176 167 179 173 173 179 173 191 178 210 178 220 183 225 192 227 189 221 182 211 178 192 178 180 173 170 174 169 178 Z" fill="none" stroke="black" stroke-width="1.319809" />
<path d="M169 172 163 169 159 172 151 170 144 174 151 170 159 175 161 171 Z" fill="none" stroke="black" stroke-width="1.048758" />
<path d="M124 160 118 175 118 192 125 196 134 196 143 176 131 195 122 194 118 184 Z" fill="none" stroke="black" stroke-width="1.237152" />
<path d="M350 97 361 120 360 130 362 119 Z" fill="none" stroke="black" stroke-width="1.039231" />
<path d="M399 84 400 104 395 113 390 175 373 202 372 211 374 214 383 202 387 188 389 192 391 189 387 186 393 185 403 195 402 221 399 236 382 277 378 277 382 268 379 276 366 287 365 317 360 338 353 351 351 384 360 407 371 416 392 424 411 436 419 436 498 472 490 467 498 468 474 455 446 445 422 432 414 432 375 412 363 402 355 382 356 355 364 344 369 322 369 292 383 278 400 234 403 215 402 191 397 186 386 183 392 169 395 113 400 104 Z" fill="none" stroke="black" stroke-width="4.110083" />
<path d="M356 345 360 347 355 355 355 384 366 407 411 432 421 433 452 446 491 466 483 465 419 435 411 435 364 409 351 382 353 351 Z" fill="none" stroke="black" stroke-width="2.097593" />
<path d="M378 277 380 279 369 291 371 306 368 309 368 321 361 347 357 344 366 317 367 287 Z" fill="none" stroke="black" stroke-width="1.314419" />
<path d="M385 184 387 186 382 201 374 211 372 205 Z" fill="none" stroke="black" stroke-width="1.013061" />
<path d="M261 73 278 85 287 86 282 86 Z" fill="none" stroke="black" stroke-width="1.004566" />
<path d="M232 55 240 58 233 58 234 61 241 59 263 70 284 77 293 77 313 88 321 88 330 98 320 86 314 87 295 77 282 76 Z" fill="none" stroke="black" stroke-width="1.435194" />
<path d="M183 48 190 57 195 50 198 51 198 48 190 54 185 46 Z" fill="none" stroke="black" stroke-width="1.035944" />
<path d="M314 44 282 61 Z" fill="none" stroke="black" stroke-width="1.008574" />
<path d="M181 44 176 52 162 57 149 68 137 90 144 75 157 62 177 52 Z" fill="none" stroke="black" stroke-width="1.264158" />
<path d="M353 38 352 51 341 68 352 53 Z" fill="none" stroke="black" stroke-width="1.054319" />
<path d="M335 39 323 34 283 56 299 50 301 46 323 35 329 40 Z" fill="none" stroke="black" stroke-width="1.231806" />
<path d="M238 34 234 33 216 42 210 40 208 44 211 41 217 43 234 34 236 36 226 43 238 37 Z" fill="none" stroke="black" stroke-width="1.175343" />
<path d="M154 32 151 31 141 40 130 44 111 66 105 86 106 105 105 93 110 71 120 54 131 44 143 40 Z" fill="none" stroke="black" stroke-width="1.426212" />
<path d="M350 30 330 60 313 71 330 62 Z" fill="none" stroke="black" stroke-width="1.123442" />
<path d="M385 24 384 32 387 33 385 28 390 31 387 38 392 32 Z" fill="none" stroke="black" stroke-width="1.013342" />
<path d="M288 23 283 25 285 26 282 30 268 30 249 36 252 32 268 26 274 19 268 25 248 33 248 37 267 31 284 30 Z" fill="none" stroke="black" stroke-width="1.337648" />
<path d="M278 8 259 12 248 18 245 23 259 13 275 11 Z" fill="none" stroke="black" stroke-width="1.110487" />
<path d="M378 3 383 11 378 5 381 3 386 6 386 12 392 20 385 21 389 22 400 44 399 81 401 44 390 22 394 22 404 45 403 109 398 117 396 159 391 182 396 160 396 130 399 115 403 110 404 43 387 11 387 5 Z" fill="none" stroke="black" stroke-width="2.447961" />
<path d="M217 7 224 3 241 2 257 6 259 9 275 6 259 7 234 2 Z" fill="none" stroke="black" stroke-width="1.203681" />
<path d="M367 0 352 17 341 17 289 45 282 46 272 54 256 58 266 57 316 31 315 35 275 56 277 57 347 20 320 32 320 28 344 17 353 18 Z" fill="none" stroke="black" stroke-width="2.057732" />
<path d="M288 1 296 2 323 24 314 13 297 2 Z" fill="none" stroke="black" stroke-width="1.128738" />
<path d="M257 19 279 13 284 19 274 27 286 20 288 11 288 19 293 20 284 4 299 11 306 18 309 17 281 0 284 4 282 9 286 13 284 16 278 12 Z" fill="none" stroke="black" stroke-width="1.449830" />
<path d="M127 0 116 11 108 35 98 39 96 43 100 51 95 70 96 91 92 102 93 162 100 178 100 193 103 196 93 155 93 102 96 103 95 149 96 159 104 178 105 196 116 200 129 214 132 241 139 256 146 263 157 269 185 272 160 269 140 255 132 237 129 212 119 201 105 193 105 178 96 158 96 103 100 92 98 76 104 58 103 48 114 36 114 28 124 10 134 3 131 0 124 8 113 28 113 35 103 47 97 102 94 101 95 72 100 54 97 42 109 36 114 17 Z" fill="none" stroke="black" stroke-width="4.046105" />

</svg>