<svg width="100%" height="100%" version="1.1" xmlns="http://www.w3.org/2000/svg"> 
<path d="M182 498 201 498 203 495 222 497 201 494 198 497 192 495 Z" fill="none" stroke="black" stroke-width="1.264825" />
<path d="M103 497 111 495 113 498 112 494 118 492 130 498 125 492 112 491 Z" fill="none" stroke="black" stroke-width="1.163861" />
<path d="M242 414 231 426 232 438 227 434 229 429 224 432 228 438 226 441 223 436 218 436 218 442 215 442 207 430 204 437 207 439 205 434 208 433 215 445 219 443 220 437 228 443 236 435 233 428 242 420 Z" fill="none" stroke="black" stroke-width="1.877455" />
<path d="M111 407 110 410 124 425 127 437 141 449 142 454 145 447 138 445 139 439 137 442 131 438 125 427 131 423 125 424 118 412 Z" fill="none" stroke="black" stroke-width="1.608455" />
<path d="M182 400 180 430 183 438 178 441 171 432 169 434 181 444 181 447 183 446 184 417 190 423 190 428 198 431 199 440 196 443 200 442 205 450 205 444 199 438 199 428 205 420 195 429 187 415 187 408 198 399 194 397 196 401 189 403 185 410 Z" fill="none" stroke="black" stroke-width="2.419044" />
<path d="M172 391 178 398 188 397 192 393 181 397 175 393 178 388 Z" fill="none" stroke="black" stroke-width="1.122754" />
<path d="M272 385 268 385 262 394 252 383 248 385 243 402 228 417 232 419 231 416 242 407 240 405 245 404 248 387 252 385 257 394 266 395 267 390 272 395 266 409 261 413 251 397 260 415 266 413 267 407 273 401 273 394 269 390 Z" fill="none" stroke="black" stroke-width="2.319445" />
<path d="M92 379 100 391 107 388 118 390 116 386 106 386 102 389 Z" fill="none" stroke="black" stroke-width="1.140753" />
<path d="M210 378 206 374 203 377 174 376 150 380 159 382 175 377 Z" fill="none" stroke="black" stroke-width="1.358710" />
<path d="M239 358 225 358 207 353 182 359 147 356 134 360 124 359 121 362 134 362 148 357 183 360 208 354 224 359 Z" fill="none" stroke="black" stroke-width="2.179783" />
<path d="M308 349 305 349 302 357 301 381 294 391 289 392 286 402 281 406 287 410 284 415 290 494 282 486 276 492 267 492 263 486 256 484 252 488 255 491 254 495 227 495 225 498 257 496 256 487 260 487 266 495 278 493 283 489 287 496 291 496 285 426 288 407 285 404 291 393 299 389 305 352 Z" fill="none" stroke="black" stroke-width="3.739375" />
<path d="M207 347 197 351 192 349 186 353 150 351 187 354 207 350 Z" fill="none" stroke="black" stroke-width="1.523992" />
<path d="M49 338 45 348 50 352 56 366 56 384 64 397 70 399 76 413 74 427 77 493 80 498 75 416 79 413 91 425 92 423 74 408 71 397 65 394 60 387 62 385 57 382 57 365 48 346 Z" fill="none" stroke="black" stroke-width="3.071957" />
<path d="M240 329 251 343 252 352 257 358 253 361 248 351 245 351 254 363 258 356 248 334 Z" fill="none" stroke="black" stroke-width="1.429384" />
<path d="M237 353 197 338 199 321 196 315 196 333 191 338 182 341 163 338 140 350 122 355 136 353 164 339 184 342 196 338 236 356 Z" fill="none" stroke="black" stroke-width="2.539256" />
<path d="M192 299 194 305 207 300 207 296 202 291 195 291 200 292 206 299 197 302 Z" fill="none" stroke="black" stroke-width="1.197055" />
<path d="M195 267 196 278 192 290 180 294 183 300 192 294 193 286 198 280 198 270 Z" fill="none" stroke="black" stroke-width="1.302106" />
<path d="M328 265 319 279 323 298 320 299 318 294 314 304 314 314 307 338 307 345 310 347 323 339 332 321 331 317 325 332 317 342 311 345 308 343 313 319 317 315 323 315 326 309 320 281 326 269 329 269 331 297 334 298 331 267 Z" fill="none" stroke="black" stroke-width="2.795363" />
<path d="M155 259 148 266 142 282 142 303 145 309 153 314 160 312 166 303 175 298 180 299 172 291 167 291 166 287 169 285 165 285 165 290 155 300 151 294 148 298 162 306 159 311 151 311 143 302 143 283 Z" fill="none" stroke="black" stroke-width="2.126890" />
<path d="M206 256 206 262 215 279 215 305 211 309 188 308 182 314 170 306 165 309 166 311 170 309 177 315 184 315 190 309 212 311 216 307 216 278 Z" fill="none" stroke="black" stroke-width="2.000429" />
<path d="M8 241 0 251 3 294 9 301 6 307 13 317 23 322 23 330 30 327 24 325 23 320 26 317 35 321 41 339 40 347 27 344 11 318 12 324 24 345 42 348 42 338 36 320 29 314 22 320 8 307 11 300 4 291 1 276 3 248 8 243 17 244 27 256 26 266 15 252 6 248 3 260 10 267 9 273 6 273 11 279 9 295 14 297 18 268 27 281 24 290 26 297 29 281 21 267 15 264 14 292 11 292 12 266 6 260 8 250 27 269 27 274 29 256 21 244 Z" fill="none" stroke="black" stroke-width="5.335289" />
<path d="M337 240 328 241 320 249 319 265 322 250 327 244 336 241 341 245 323 260 324 264 341 246 344 249 344 260 340 264 340 254 337 252 334 288 338 266 341 266 337 301 320 322 322 327 322 322 334 312 343 278 345 249 Z" fill="none" stroke="black" stroke-width="3.070411" />
<path d="M312 240 313 263 308 263 310 267 302 282 301 298 298 307 290 316 292 320 289 324 293 321 291 316 299 309 305 278 316 259 Z" fill="none" stroke="black" stroke-width="1.846879" />
<path d="M227 217 230 223 234 223 231 217 237 221 246 220 240 220 234 214 230 218 Z" fill="none" stroke="black" stroke-width="1.147520" />
<path d="M104 218 114 220 118 216 108 211 115 216 112 219 108 219 107 216 Z" fill="none" stroke="black" stroke-width="1.107063" />
<path d="M210 219 212 223 236 229 239 235 240 230 247 228 253 220 257 226 264 229 253 217 242 228 213 222 215 217 224 214 221 219 223 220 229 212 237 208 216 214 Z" fill="none" stroke="black" stroke-width="2.009287" />
<path d="M204 217 206 226 219 235 219 232 211 228 205 220 219 206 238 206 257 215 270 226 270 233 264 236 257 228 261 237 272 235 273 226 278 229 259 214 240 206 240 203 256 206 268 217 270 216 264 208 241 200 238 203 234 200 229 205 218 205 Z" fill="none" stroke="black" stroke-width="2.785113" />
<path d="M76 226 80 226 110 206 120 209 128 216 121 217 118 224 112 226 102 225 98 216 88 228 89 231 97 219 99 226 118 228 114 231 104 231 101 228 94 229 95 231 115 232 129 226 137 226 127 211 111 205 89 214 89 210 99 203 114 200 134 205 139 214 129 212 142 221 145 220 138 215 141 213 154 223 156 221 137 205 126 200 114 199 96 203 95 201 101 200 102 197 87 203 80 210 79 220 80 213 87 205 89 207 86 214 90 215 Z" fill="none" stroke="black" stroke-width="4.182310" />
<path d="M291 212 286 200 269 194 229 194 213 199 259 194 283 200 Z" fill="none" stroke="black" stroke-width="1.773688" />
<path d="M92 187 97 191 134 197 127 193 Z" fill="none" stroke="black" stroke-width="1.136328" />
<path d="M272 175 282 184 288 185 295 195 301 214 299 221 302 221 301 208 291 185 Z" fill="none" stroke="black" stroke-width="1.423344" />
<path d="M261 187 258 186 256 179 236 172 206 191 210 191 215 185 237 173 257 182 257 188 Z" fill="none" stroke="black" stroke-width="1.613495" />
<path d="M216 172 206 176 201 188 208 177 214 173 215 175 Z" fill="none" stroke="black" stroke-width="1.102371" />
<path d="M95 167 76 170 72 178 61 182 54 198 53 211 62 185 70 181 79 170 Z" fill="none" stroke="black" stroke-width="1.548556" />
<path d="M141 166 149 175 156 175 162 180 158 172 150 173 Z" fill="none" stroke="black" stroke-width="1.088070" />
<path d="M140 181 127 168 128 166 120 166 91 173 81 181 76 181 76 185 95 173 120 167 131 172 140 184 Z" fill="none" stroke="black" stroke-width="1.754151" />
<path d="M130 164 138 168 149 190 139 166 Z" fill="none" stroke="black" stroke-width="1.181616" />
<path d="M316 92 314 96 320 106 317 107 317 115 325 130 325 137 329 134 323 147 331 171 331 201 322 238 325 241 323 239 328 228 332 202 332 170 325 147 332 131 331 118 326 112 329 105 322 94 Z" fill="none" stroke="black" stroke-width="2.761830" />
<path d="M318 93 328 106 325 114 329 120 326 123 329 124 330 133 326 131 319 115 320 111 323 113 323 107 317 98 Z" fill="none" stroke="black" stroke-width="1.393711" />
<path d="M274 89 295 109 296 114 307 126 310 138 317 137 317 133 311 135 308 125 293 103 280 90 Z" fill="none" stroke="black" stroke-width="1.635270" />
<path d="M74 81 67 81 63 87 53 92 53 96 58 90 64 89 67 83 Z" fill="none" stroke="black" stroke-width="1.124661" />
<path d="M195 68 203 72 220 71 227 75 253 79 262 89 267 89 278 97 268 87 256 83 252 77 228 74 220 69 204 71 Z" fill="none" stroke="black" stroke-width="1.877144" />
<path d="M159 57 168 54 176 63 176 58 184 60 181 56 176 57 168 52 163 52 Z" fill="none" stroke="black" stroke-width="1.180224" />
<path d="M266 45 269 48 274 43 291 45 311 57 291 43 274 42 Z" fill="none" stroke="black" stroke-width="1.382372" />
<path d="M195 24 199 30 206 32 206 36 200 36 209 38 210 41 206 45 235 46 238 49 218 54 253 52 260 61 250 60 239 67 250 61 261 63 263 57 255 51 239 49 240 45 217 45 211 41 207 30 202 28 225 24 203 24 202 28 Z" fill="none" stroke="black" stroke-width="2.753147" />
<path d="M206 19 206 22 211 19 228 22 228 19 Z" fill="none" stroke="black" stroke-width="1.000000" />
<path d="M225 15 241 19 230 22 230 25 257 20 254 18 243 21 241 18 245 15 Z" fill="none" stroke="black" stroke-width="1.315379" />
<path d="M239 12 230 10 216 15 182 13 176 16 159 39 159 52 163 35 182 15 195 13 200 16 219 16 221 13 Z" fill="none" stroke="black" stroke-width="1.978241" />
<path d="M124 3 121 3 113 14 110 24 112 44 106 57 112 49 113 32 118 26 115 15 Z" fill="none" stroke="black" stroke-width="1.468884" />
<path d="M238 7 241 10 250 7 252 9 245 13 250 12 252 15 262 15 266 18 278 13 278 16 296 22 293 20 295 18 302 23 304 30 295 34 305 32 313 41 314 49 297 36 295 39 306 45 310 51 314 51 314 65 319 73 319 79 329 88 326 92 332 105 334 101 329 92 331 86 320 77 316 65 316 44 305 29 302 19 285 10 284 4 281 3 262 4 254 0 252 2 261 5 280 4 283 7 278 7 278 10 288 13 293 19 278 12 267 16 254 13 255 7 253 9 251 6 Z" fill="none" stroke="black" stroke-width="3.970652" />
<path d="M192 0 204 5 246 2 213 1 205 4 199 0 Z" fill="none" stroke="black" stroke-width="1.446077" />
<path d="M163 0 151 11 145 23 144 46 147 55 149 52 156 54 146 48 146 23 153 12 162 5 Z" fill="none" stroke="black" stroke-width="1.626898" />
<path d="M124 0 127 4 141 5 157 2 156 0 147 4 139 0 138 3 130 3 Z" fill="none" stroke="black" stroke-width="1.229126" />
<path d="M113 0 102 13 94 13 91 16 79 13 76 16 73 33 69 39 60 43 70 48 58 48 51 58 42 64 41 73 54 73 39 85 29 101 23 105 23 127 17 134 12 134 6 148 12 206 23 241 23 228 18 222 7 149 12 138 17 136 15 146 18 136 23 132 24 108 41 86 55 75 69 75 58 75 57 69 66 70 60 68 45 73 42 71 44 65 49 63 60 49 72 52 69 49 75 48 67 42 71 40 72 34 75 34 75 22 82 15 88 20 91 18 93 21 96 15 100 14 103 17 101 25 106 39 94 66 98 63 107 40 103 18 115 2 Z" fill="none" stroke="black" stroke-width="6.000000" />

<path d="M0 0 16 0 16 24 0 24 0 0 Z" fill="rgba(0,0,0,0.5)" stroke="none" />
<path d="M16 0 32 0 32 24 16 24 16 0 Z" fill="rgba(0,0,0,0.5)" stroke="none" />
<path d="M32 0 48 0 48 24 32 24 32 0 Z" fill="rgba(0,0,0,0.5)" stroke="none" />
<path d="M48 0 64 0 64 24 48 24 48 0 Z" fill="rgba(0,0,0,0.5)" stroke="none" />
<path d="M64 0 80 0 80 24 64 24 64 0 Z" fill="rgba(0,0,0,0.5)" stroke="none" />
<path d="M80 0 96 0 96 24 80 24 80 0 Z" fill="rgba(0,0,0,0.5)" stroke="none" />
<path d="M96 0 112 0 112 24 96 24 96 0 Z" fill="rgba(0,0,0,0.5)" stroke="none" />
<path d="M112 0 128 0 128 24 112 24 112 0 Z" fill="rgba(60,60,60,0.5)" stroke="none" />
<path d="M128 0 144 0 144 24 128 24 128 0 Z" fill="rgba(105,105,105,0.5)" stroke="none" />
<path d="M144 0 160 0 160 24 144 24 144 0 Z" fill="rgba(58,58,58,0.5)" stroke="none" />
<path d="M160 0 176 0 176 24 160 24 160 0 Z" fill="rgba(49,49,49,0.5)" stroke="none" />
<path d="M176 0 192 0 192 24 176 24 176 0 Z" fill="rgba(99,99,99,0.5)" stroke="none" />
<path d="M192 0 208 0 208 24 192 24 192 0 Z" fill="rgba(100,100,100,0.5)" stroke="none" />
<path d="M208 0 224 0 224 24 208 24 208 0 Z" fill="rgba(103,103,103,0.5)" stroke="none" />
<path d="M224 0 240 0 240 24 224 24 224 0 Z" fill="rgba(67,67,67,0.5)" stroke="none" />
<path d="M240 0 256 0 256 24 240 24 240 0 Z" fill="rgba(14,14,14,0.5)" stroke="none" />
<path d="M256 0 272 0 272 24 256 24 256 0 Z" fill="rgba(0,0,0,0.5)" stroke="none" />
<path d="M272 0 288 0 288 24 272 24 272 0 Z" fill="rgba(0,0,0,0.5)" stroke="none" />
<path d="M288 0 304 0 304 24 288 24 288 0 Z" fill="rgba(0,0,0,0.5)" stroke="none" />
<path d="M304 0 320 0 320 24 304 24 304 0 Z" fill="rgba(0,0,0,0.5)" stroke="none" />
<path d="M0 24 16 24 16 49 0 49 0 24 Z" fill="rgba(0,0,0,0.5)" stroke="none" />
<path d="M16 24 32 24 32 49 16 49 16 24 Z" fill="rgba(0,0,0,0.5)" stroke="none" />
<path d="M32 24 48 24 48 49 32 49 32 24 Z" fill="rgba(0,0,0,0.5)" stroke="none" />
<path d="M48 24 64 24 64 49 48 49 48 24 Z" fill="rgba(0,0,0,0.5)" stroke="none" />
<path d="M64 24 80 24 80 49 64 49 64 24 Z" fill="rgba(0,0,0,0.5)" stroke="none" />
<path d="M80 24 96 24 96 49 80 49 80 24 Z" fill="rgba(0,0,0,0.5)" stroke="none" />
<path d="M96 24 112 24 112 49 96 49 96 24 Z" fill="rgba(35,35,35,0.5)" stroke="none" />
<path d="M112 24 128 24 128 49 112 49 112 24 Z" fill="rgba(94,94,94,0.5)" stroke="none" />
<path d="M128 24 144 24 144 49 128 49 128 24 Z" fill="rgba(90,90,90,0.5)" stroke="none" />
<path d="M144 24 160 24 160 49 144 49 144 24 Z" fill="rgba(52,52,52,0.5)" stroke="none" />
<path d="M160 24 176 24 176 49 160 49 160 24 Z" fill="rgba(31,31,31,0.5)" stroke="none" />
<path d="M176 24 192 24 192 49 176 49 176 24 Z" fill="rgba(83,83,83,0.5)" stroke="none" />
<path d="M192 24 208 24 208 49 192 49 192 24 Z" fill="rgba(102,102,102,0.5)" stroke="none" />
<path d="M208 24 224 24 224 49 208 49 208 24 Z" fill="rgba(61,61,61,0.5)" stroke="none" />
<path d="M224 24 240 24 240 49 224 49 224 24 Z" fill="rgba(31,31,31,0.5)" stroke="none" />
<path d="M240 24 256 24 256 49 240 49 240 24 Z" fill="rgba(16,16,16,0.5)" stroke="none" />
<path d="M256 24 272 24 272 49 256 49 256 24 Z" fill="rgba(2,2,2,0.5)" stroke="none" />
<path d="M272 24 288 24 288 49 272 49 272 24 Z" fill="rgba(0,0,0,0.5)" stroke="none" />
<path d="M288 24 304 24 304 49 288 49 288 24 Z" fill="rgba(0,0,0,0.5)" stroke="none" />
<path d="M304 24 320 24 320 49 304 49 304 24 Z" fill="rgba(0,0,0,0.5)" stroke="none" />
<path d="M0 49 16 49 16 73 0 73 0 49 Z" fill="rgba(0,0,0,0.5)" stroke="none" />
<path d="M16 49 32 49 32 73 16 73 16 49 Z" fill="rgba(0,0,0,0.5)" stroke="none" />
<path d="M32 49 48 49 48 73 32 73 32 49 Z" fill="rgba(0,0,0,0.5)" stroke="none" />
<path d="M48 49 64 49 64 73 48 73 48 49 Z" fill="rgba(0,0,0,0.5)" stroke="none" />
<path d="M64 49 80 49 80 73 64 73 64 49 Z" fill="rgba(0,0,0,0.5)" stroke="none" />
<path d="M80 49 96 49 96 73 80 73 80 49 Z" fill="rgba(42,42,42,0.5)" stroke="none" />
<path d="M96 49 112 49 112 73 96 73 96 49 Z" fill="rgba(49,49,49,0.5)" stroke="none" />
<path d="M112 49 128 49 128 73 112 73 112 49 Z" fill="rgba(111,111,111,0.5)" stroke="none" />
<path d="M128 49 144 49 144 73 128 73 128 49 Z" fill="rgba(119,119,119,0.5)" stroke="none" />
<path d="M144 49 160 49 160 73 144 73 144 49 Z" fill="rgba(127,127,127,0.5)" stroke="none" />
<path d="M160 49 176 49 176 73 160 73 160 49 Z" fill="rgba(103,103,103,0.5)" stroke="none" />
<path d="M176 49 192 49 192 73 176 73 176 49 Z" fill="rgba(62,62,62,0.5)" stroke="none" />
<path d="M192 49 208 49 208 73 192 73 192 49 Z" fill="rgba(43,43,43,0.5)" stroke="none" />
<path d="M208 49 224 49 224 73 208 73 208 49 Z" fill="rgba(62,62,62,0.5)" stroke="none" />
<path d="M224 49 240 49 240 73 224 73 224 49 Z" fill="rgba(77,77,77,0.5)" stroke="none" />
<path d="M240 49 256 49 256 73 240 73 240 49 Z" fill="rgba(62,62,62,0.5)" stroke="none" />
<path d="M256 49 272 49 272 73 256 73 256 49 Z" fill="rgba(24,24,24,0.5)" stroke="none" />
<path d="M272 49 288 49 288 73 272 73 272 49 Z" fill="rgba(0,0,0,0.5)" stroke="none" />
<path d="M288 49 304 49 304 73 288 73 288 49 Z" fill="rgba(0,0,0,0.5)" stroke="none" />
<path d="M304 49 320 49 320 73 304 73 304 49 Z" fill="rgba(0,0,0,0.5)" stroke="none" />
<path d="M0 73 16 73 16 98 0 98 0 73 Z" fill="rgba(0,0,0,0.5)" stroke="none" />
<path d="M16 73 32 73 32 98 16 98 16 73 Z" fill="rgba(0,0,0,0.5)" stroke="none" />
<path d="M32 73 48 73 48 98 32 98 32 73 Z" fill="rgba(0,0,0,0.5)" stroke="none" />
<path d="M48 73 64 73 64 98 48 98 48 73 Z" fill="rgba(0,0,0,0.5)" stroke="none" />
<path d="M64 73 80 73 80 98 64 98 64 73 Z" fill="rgba(29,29,29,0.5)" stroke="none" />
<path d="M80 73 96 73 96 98 80 98 80 73 Z" fill="rgba(82,82,82,0.5)" stroke="none" />
<path d="M96 73 112 73 112 98 96 98 96 73 Z" fill="rgba(135,135,135,0.5)" stroke="none" />
<path d="M112 73 128 73 128 98 112 98 112 73 Z" fill="rgba(169,169,169,0.5)" stroke="none" />
<path d="M128 73 144 73 144 98 128 98 128 73 Z" fill="rgba(182,182,182,0.5)" stroke="none" />
<path d="M144 73 160 73 160 98 144 98 144 73 Z" fill="rgba(192,192,192,0.5)" stroke="none" />
<path d="M160 73 176 73 176 98 160 98 160 73 Z" fill="rgba(197,197,197,0.5)" stroke="none" />
<path d="M176 73 192 73 192 98 176 98 176 73 Z" fill="rgba(190,190,190,0.5)" stroke="none" />
<path d="M192 73 208 73 208 98 192 98 192 73 Z" fill="rgba(177,177,177,0.5)" stroke="none" />
<path d="M208 73 224 73 224 98 208 98 208 73 Z" fill="rgba(145,145,145,0.5)" stroke="none" />
<path d="M224 73 240 73 240 98 224 98 224 73 Z" fill="rgba(86,86,86,0.5)" stroke="none" />
<path d="M240 73 256 73 256 98 240 98 240 73 Z" fill="rgba(49,49,49,0.5)" stroke="none" />
<path d="M256 73 272 73 272 98 256 98 256 73 Z" fill="rgba(21,21,21,0.5)" stroke="none" />
<path d="M272 73 288 73 288 98 272 98 272 73 Z" fill="rgba(0,0,0,0.5)" stroke="none" />
<path d="M288 73 304 73 304 98 288 98 288 73 Z" fill="rgba(0,0,0,0.5)" stroke="none" />
<path d="M304 73 320 73 320 98 304 98 304 73 Z" fill="rgba(0,0,0,0.5)" stroke="none" />
<path d="M0 98 16 98 16 123 0 123 0 98 Z" fill="rgba(0,0,0,0.5)" stroke="none" />
<path d="M16 98 32 98 32 123 16 123 16 98 Z" fill="rgba(0,0,0,0.5)" stroke="none" />
<path d="M32 98 48 98 48 123 32 123 32 98 Z" fill="rgba(0,0,0,0.5)" stroke="none" />
<path d="M48 98 64 98 64 123 48 123 48 98 Z" fill="rgba(0,0,0,0.5)" stroke="none" />
<path d="M64 98 80 98 80 123 64 123 64 98 Z" fill="rgba(45,45,45,0.5)" stroke="none" />
<path d="M80 98 96 98 96 123 80 123 80 98 Z" fill="rgba(113,113,113,0.5)" stroke="none" />
<path d="M96 98 112 98 112 123 96 123 96 98 Z" fill="rgba(160,160,160,0.5)" stroke="none" />
<path d="M112 98 128 98 128 123 112 123 112 98 Z" fill="rgba(190,190,190,0.5)" stroke="none" />
<path d="M128 98 144 98 144 123 128 123 128 98 Z" fill="rgba(203,203,203,0.5)" stroke="none" />
<path d="M144 98 160 98 160 123 144 123 144 98 Z" fill="rgba(209,209,209,0.5)" stroke="none" />
<path d="M160 98 176 98 176 123 160 123 160 98 Z" fill="rgba(211,211,211,0.5)" stroke="none" />
<path d="M176 98 192 98 192 123 176 123 176 98 Z" fill="rgba(209,209,209,0.5)" stroke="none" />
<path d="M192 98 208 98 208 123 192 123 192 98 Z" fill="rgba(201,201,201,0.5)" stroke="none" />
<path d="M208 98 224 98 224 123 208 123 208 98 Z" fill="rgba(178,178,178,0.5)" stroke="none" />
<path d="M224 98 240 98 240 123 224 123 224 98 Z" fill="rgba(138,138,138,0.5)" stroke="none" />
<path d="M240 98 256 98 256 123 240 123 240 98 Z" fill="rgba(72,72,72,0.5)" stroke="none" />
<path d="M256 98 272 98 272 123 256 123 256 98 Z" fill="rgba(13,13,13,0.5)" stroke="none" />
<path d="M272 98 288 98 288 123 272 123 272 98 Z" fill="rgba(0,0,0,0.5)" stroke="none" />
<path d="M288 98 304 98 304 123 288 123 288 98 Z" fill="rgba(0,0,0,0.5)" stroke="none" />
<path d="M304 98 320 98 320 123 304 123 304 98 Z" fill="rgba(0,0,0,0.5)" stroke="none" />
<path d="M0 123 16 123 16 147 0 147 0 123 Z" fill="rgba(0,0,0,0.5)" stroke="none" />
<path d="M16 123 32 123 32 147 16 147 16 123 Z" fill="rgba(0,0,0,0.5)" stroke="none" />
<path d="M32 123 48 123 48 147 32 147 32 123 Z" fill="rgba(0,0,0,0.5)" stroke="none" />
<path d="M48 123 64 123 64 147 48 147 48 123 Z" fill="rgba(27,27,27,0.5)" stroke="none" />
<path d="M64 123 80 123 80 147 64 147 64 123 Z" fill="rgba(52,52,52,0.5)" stroke="none" />
<path d="M80 123 96 123 96 147 80 147 80 123 Z" fill="rgba(115,115,115,0.5)" stroke="none" />
<path d="M96 123 112 123 112 147 96 147 96 123 Z" fill="rgba(164,164,164,0.5)" stroke="none" />
<path d="M112 123 128 123 128 147 112 147 112 123 Z" fill="rgba(192,192,192,0.5)" stroke="none" />
<path d="M128 123 144 123 144 147 128 147 128 123 Z" fill="rgba(211,211,211,0.5)" stroke="none" />
<path d="M144 123 160 123 160 147 144 147 144 123 Z" fill="rgba(217,217,217,0.5)" stroke="none" />
<path d="M160 123 176 123 176 147 160 147 160 123 Z" fill="rgba(215,215,215,0.5)" stroke="none" />
<path d="M176 123 192 123 192 147 176 147 176 123 Z" fill="rgba(213,213,213,0.5)" stroke="none" />
<path d="M192 123 208 123 208 147 192 147 192 123 Z" fill="rgba(205,205,205,0.5)" stroke="none" />
<path d="M208 123 224 123 224 147 208 147 208 123 Z" fill="rgba(182,182,182,0.5)" stroke="none" />
<path d="M224 123 240 123 240 147 224 147 224 123 Z" fill="rgba(147,147,147,0.5)" stroke="none" />
<path d="M240 123 256 123 256 147 240 147 240 123 Z" fill="rgba(85,85,85,0.5)" stroke="none" />
<path d="M256 123 272 123 272 147 256 147 256 123 Z" fill="rgba(20,20,20,0.5)" stroke="none" />
<path d="M272 123 288 123 288 147 272 147 272 123 Z" fill="rgba(0,0,0,0.5)" stroke="none" />
<path d="M288 123 304 123 304 147 288 147 288 123 Z" fill="rgba(0,0,0,0.5)" stroke="none" />
<path d="M304 123 320 123 320 147 304 147 304 123 Z" fill="rgba(0,0,0,0.5)" stroke="none" />
<path d="M0 147 16 147 16 172 0 172 0 147 Z" fill="rgba(0,0,0,0.5)" stroke="none" />
<path d="M16 147 32 147 32 172 16 172 16 147 Z" fill="rgba(0,0,0,0.5)" stroke="none" />
<path d="M32 147 48 147 48 172 32 172 32 147 Z" fill="rgba(0,0,0,0.5)" stroke="none" />
<path d="M48 147 64 147 64 172 48 172 48 147 Z" fill="rgba(29,29,29,0.5)" stroke="none" />
<path d="M64 147 80 147 80 172 64 172 64 147 Z" fill="rgba(48,48,48,0.5)" stroke="none" />
<path d="M80 147 96 147 96 172 80 172 80 147 Z" fill="rgba(109,109,109,0.5)" stroke="none" />
<path d="M96 147 112 147 112 172 96 172 96 147 Z" fill="rgba(166,166,166,0.5)" stroke="none" />
<path d="M112 147 128 147 128 172 112 172 112 147 Z" fill="rgba(199,199,199,0.5)" stroke="none" />
<path d="M128 147 144 147 144 172 128 172 128 147 Z" fill="rgba(220,220,220,0.5)" stroke="none" />
<path d="M144 147 160 147 160 172 144 172 144 147 Z" fill="rgba(229,229,229,0.5)" stroke="none" />
<path d="M160 147 176 147 176 172 160 172 160 147 Z" fill="rgba(231,231,231,0.5)" stroke="none" />
<path d="M176 147 192 147 192 172 176 172 176 147 Z" fill="rgba(225,225,225,0.5)" stroke="none" />
<path d="M192 147 208 147 208 172 192 172 192 147 Z" fill="rgba(216,216,216,0.5)" stroke="none" />
<path d="M208 147 224 147 224 172 208 172 208 147 Z" fill="rgba(195,195,195,0.5)" stroke="none" />
<path d="M224 147 240 147 240 172 224 172 224 147 Z" fill="rgba(150,150,150,0.5)" stroke="none" />
<path d="M240 147 256 147 256 172 240 172 240 147 Z" fill="rgba(91,91,91,0.5)" stroke="none" />
<path d="M256 147 272 147 272 172 256 172 256 147 Z" fill="rgba(28,28,28,0.5)" stroke="none" />
<path d="M272 147 288 147 288 172 272 172 272 147 Z" fill="rgba(0,0,0,0.5)" stroke="none" />
<path d="M288 147 304 147 304 172 288 172 288 147 Z" fill="rgba(0,0,0,0.5)" stroke="none" />
<path d="M304 147 320 147 320 172 304 172 304 147 Z" fill="rgba(0,0,0,0.5)" stroke="none" />
<path d="M0 172 16 172 16 196 0 196 0 172 Z" fill="rgba(0,0,0,0.5)" stroke="none" />
<path d="M16 172 32 172 32 196 16 196 16 172 Z" fill="rgba(0,0,0,0.5)" stroke="none" />
<path d="M32 172 48 172 48 196 32 196 32 172 Z" fill="rgba(0,0,0,0.5)" stroke="none" />
<path d="M48 172 64 172 64 196 48 196 48 172 Z" fill="rgba(34,34,34,0.5)" stroke="none" />
<path d="M64 172 80 172 80 196 64 196 64 172 Z" fill="rgba(58,58,58,0.5)" stroke="none" />
<path d="M80 172 96 172 96 196 80 196 80 172 Z" fill="rgba(72,72,72,0.5)" stroke="none" />
<path d="M96 172 112 172 112 196 96 196 96 172 Z" fill="rgba(110,110,110,0.5)" stroke="none" />
<path d="M112 172 128 172 128 196 112 196 112 172 Z" fill="rgba(100,100,100,0.5)" stroke="none" />
<path d="M128 172 144 172 144 196 128 196 128 172 Z" fill="rgba(118,118,118,0.5)" stroke="none" />
<path d="M144 172 160 172 160 196 144 196 144 172 Z" fill="rgba(169,169,169,0.5)" stroke="none" />
<path d="M160 172 176 172 176 196 160 196 160 172 Z" fill="rgba(192,192,192,0.5)" stroke="none" />
<path d="M176 172 192 172 192 196 176 196 176 172 Z" fill="rgba(151,151,151,0.5)" stroke="none" />
<path d="M192 172 208 172 208 196 192 196 192 172 Z" fill="rgba(108,108,108,0.5)" stroke="none" />
<path d="M208 172 224 172 224 196 208 196 208 172 Z" fill="rgba(101,101,101,0.5)" stroke="none" />
<path d="M224 172 240 172 240 196 224 196 224 172 Z" fill="rgba(95,95,95,0.5)" stroke="none" />
<path d="M240 172 256 172 256 196 240 196 240 172 Z" fill="rgba(76,76,76,0.5)" stroke="none" />
<path d="M256 172 272 172 272 196 256 196 256 172 Z" fill="rgba(31,31,31,0.5)" stroke="none" />
<path d="M272 172 288 172 288 196 272 196 272 172 Z" fill="rgba(0,0,0,0.5)" stroke="none" />
<path d="M288 172 304 172 304 196 288 196 288 172 Z" fill="rgba(0,0,0,0.5)" stroke="none" />
<path d="M304 172 320 172 320 196 304 196 304 172 Z" fill="rgba(0,0,0,0.5)" stroke="none" />
<path d="M0 196 16 196 16 221 0 221 0 196 Z" fill="rgba(0,0,0,0.5)" stroke="none" />
<path d="M16 196 32 196 32 221 16 221 16 196 Z" fill="rgba(0,0,0,0.5)" stroke="none" />
<path d="M32 196 48 196 48 221 32 221 32 196 Z" fill="rgba(0,0,0,0.5)" stroke="none" />
<path d="M48 196 64 196 64 221 48 221 48 196 Z" fill="rgba(17,17,17,0.5)" stroke="none" />
<path d="M64 196 80 196 80 221 64 221 64 196 Z" fill="rgba(65,65,65,0.5)" stroke="none" />
<path d="M80 196 96 196 96 221 80 221 80 196 Z" fill="rgba(85,85,85,0.5)" stroke="none" />
<path d="M96 196 112 196 112 221 96 221 96 196 Z" fill="rgba(117,117,117,0.5)" stroke="none" />
<path d="M112 196 128 196 128 221 112 221 112 196 Z" fill="rgba(70,70,70,0.5)" stroke="none" />
<path d="M128 196 144 196 144 221 128 221 128 196 Z" fill="rgba(134,134,134,0.5)" stroke="none" />
<path d="M144 196 160 196 160 221 144 221 144 196 Z" fill="rgba(162,162,162,0.5)" stroke="none" />
<path d="M160 196 176 196 176 221 160 221 160 196 Z" fill="rgba(176,176,176,0.5)" stroke="none" />
<path d="M176 196 192 196 192 221 176 221 176 196 Z" fill="rgba(169,169,169,0.5)" stroke="none" />
<path d="M192 196 208 196 208 221 192 221 192 196 Z" fill="rgba(103,103,103,0.5)" stroke="none" />
<path d="M208 196 224 196 224 221 208 221 208 196 Z" fill="rgba(94,94,94,0.5)" stroke="none" />
<path d="M224 196 240 196 240 221 224 221 224 196 Z" fill="rgba(96,96,96,0.5)" stroke="none" />
<path d="M240 196 256 196 256 221 240 221 240 196 Z" fill="rgba(73,73,73,0.5)" stroke="none" />
<path d="M256 196 272 196 272 221 256 221 256 196 Z" fill="rgba(32,32,32,0.5)" stroke="none" />
<path d="M272 196 288 196 288 221 272 221 272 196 Z" fill="rgba(0,0,0,0.5)" stroke="none" />
<path d="M288 196 304 196 304 221 288 221 288 196 Z" fill="rgba(0,0,0,0.5)" stroke="none" />
<path d="M304 196 320 196 320 221 304 221 304 196 Z" fill="rgba(0,0,0,0.5)" stroke="none" />
<path d="M0 221 16 221 16 246 0 246 0 221 Z" fill="rgba(0,0,0,0.5)" stroke="none" />
<path d="M16 221 32 221 32 246 16 246 16 221 Z" fill="rgba(0,0,0,0.5)" stroke="none" />
<path d="M32 221 48 221 48 246 32 246 32 221 Z" fill="rgba(0,0,0,0.5)" stroke="none" />
<path d="M48 221 64 221 64 246 48 246 48 221 Z" fill="rgba(3,3,3,0.5)" stroke="none" />
<path d="M64 221 80 221 80 246 64 246 64 221 Z" fill="rgba(79,79,79,0.5)" stroke="none" />
<path d="M80 221 96 221 96 246 80 246 80 221 Z" fill="rgba(124,124,124,0.5)" stroke="none" />
<path d="M96 221 112 221 112 246 96 246 96 221 Z" fill="rgba(129,129,129,0.5)" stroke="none" />
<path d="M112 221 128 221 128 246 112 246 112 221 Z" fill="rgba(137,137,137,0.5)" stroke="none" />
<path d="M128 221 144 221 144 246 128 246 128 221 Z" fill="rgba(171,171,171,0.5)" stroke="none" />
<path d="M144 221 160 221 160 246 144 246 144 221 Z" fill="rgba(166,166,166,0.5)" stroke="none" />
<path d="M160 221 176 221 176 246 160 246 160 221 Z" fill="rgba(177,177,177,0.5)" stroke="none" />
<path d="M176 221 192 221 192 246 176 246 176 221 Z" fill="rgba(181,181,181,0.5)" stroke="none" />
<path d="M192 221 208 221 208 246 192 246 192 221 Z" fill="rgba(152,152,152,0.5)" stroke="none" />
<path d="M208 221 224 221 224 246 208 246 208 221 Z" fill="rgba(127,127,127,0.5)" stroke="none" />
<path d="M224 221 240 221 240 246 224 246 224 221 Z" fill="rgba(127,127,127,0.5)" stroke="none" />
<path d="M240 221 256 221 256 246 240 246 240 221 Z" fill="rgba(98,98,98,0.5)" stroke="none" />
<path d="M256 221 272 221 272 246 256 246 256 221 Z" fill="rgba(32,32,32,0.5)" stroke="none" />
<path d="M272 221 288 221 288 246 272 246 272 221 Z" fill="rgba(0,0,0,0.5)" stroke="none" />
<path d="M288 221 304 221 304 246 288 246 288 221 Z" fill="rgba(0,0,0,0.5)" stroke="none" />
<path d="M304 221 320 221 320 246 304 246 304 221 Z" fill="rgba(0,0,0,0.5)" stroke="none" />
<path d="M0 246 16 246 16 270 0 270 0 246 Z" fill="rgba(0,0,0,0.5)" stroke="none" />
<path d="M16 246 32 246 32 270 16 270 16 246 Z" fill="rgba(0,0,0,0.5)" stroke="none" />
<path d="M32 246 48 246 48 270 32 270 32 246 Z" fill="rgba(0,0,0,0.5)" stroke="none" />
<path d="M48 246 64 246 64 270 48 270 48 246 Z" fill="rgba(34,34,34,0.5)" stroke="none" />
<path d="M64 246 80 246 80 270 64 270 64 246 Z" fill="rgba(89,89,89,0.5)" stroke="none" />
<path d="M80 246 96 246 96 270 80 270 80 246 Z" fill="rgba(154,154,154,0.5)" stroke="none" />
<path d="M96 246 112 246 112 270 96 270 96 246 Z" fill="rgba(178,178,178,0.5)" stroke="none" />
<path d="M112 246 128 246 128 270 112 270 112 246 Z" fill="rgba(193,193,193,0.5)" stroke="none" />
<path d="M128 246 144 246 144 270 128 270 128 246 Z" fill="rgba(182,182,182,0.5)" stroke="none" />
<path d="M144 246 160 246 160 270 144 270 144 246 Z" fill="rgba(157,157,157,0.5)" stroke="none" />
<path d="M160 246 176 246 176 270 160 270 160 246 Z" fill="rgba(184,184,184,0.5)" stroke="none" />
<path d="M176 246 192 246 192 270 176 270 176 246 Z" fill="rgba(179,179,179,0.5)" stroke="none" />
<path d="M192 246 208 246 208 270 192 270 192 246 Z" fill="rgba(184,184,184,0.5)" stroke="none" />
<path d="M208 246 224 246 224 270 208 270 208 246 Z" fill="rgba(186,186,186,0.5)" stroke="none" />
<path d="M224 246 240 246 240 270 224 270 224 246 Z" fill="rgba(175,175,175,0.5)" stroke="none" />
<path d="M240 246 256 246 256 270 240 270 240 246 Z" fill="rgba(121,121,121,0.5)" stroke="none" />
<path d="M256 246 272 246 272 270 256 270 256 246 Z" fill="rgba(64,64,64,0.5)" stroke="none" />
<path d="M272 246 288 246 288 270 272 270 272 246 Z" fill="rgba(32,32,32,0.5)" stroke="none" />
<path d="M288 246 304 246 304 270 288 270 288 246 Z" fill="rgba(0,0,0,0.5)" stroke="none" />
<path d="M304 246 320 246 320 270 304 270 304 246 Z" fill="rgba(0,0,0,0.5)" stroke="none" />
<path d="M0 270 16 270 16 295 0 295 0 270 Z" fill="rgba(0,0,0,0.5)" stroke="none" />
<path d="M16 270 32 270 32 295 16 295 16 270 Z" fill="rgba(0,0,0,0.5)" stroke="none" />
<path d="M32 270 48 270 48 295 32 295 32 270 Z" fill="rgba(0,0,0,0.5)" stroke="none" />
<path d="M48 270 64 270 64 295 48 295 48 270 Z" fill="rgba(94,94,94,0.5)" stroke="none" />
<path d="M64 270 80 270 80 295 64 295 64 270 Z" fill="rgba(85,85,85,0.5)" stroke="none" />
<path d="M80 270 96 270 96 295 80 295 80 270 Z" fill="rgba(153,153,153,0.5)" stroke="none" />
<path d="M96 270 112 270 112 295 96 295 96 270 Z" fill="rgba(196,196,196,0.5)" stroke="none" />
<path d="M112 270 128 270 128 295 112 295 112 270 Z" fill="rgba(210,210,210,0.5)" stroke="none" />
<path d="M128 270 144 270 144 295 128 295 128 270 Z" fill="rgba(190,190,190,0.5)" stroke="none" />
<path d="M144 270 160 270 160 295 144 295 144 270 Z" fill="rgba(150,150,150,0.5)" stroke="none" />
<path d="M160 270 176 270 176 295 160 295 160 270 Z" fill="rgba(172,172,172,0.5)" stroke="none" />
<path d="M176 270 192 270 192 295 176 295 176 270 Z" fill="rgba(161,161,161,0.5)" stroke="none" />
<path d="M192 270 208 270 208 295 192 295 192 270 Z" fill="rgba(186,186,186,0.5)" stroke="none" />
<path d="M208 270 224 270 224 295 208 295 208 270 Z" fill="rgba(209,209,209,0.5)" stroke="none" />
<path d="M224 270 240 270 240 295 224 295 224 270 Z" fill="rgba(186,186,186,0.5)" stroke="none" />
<path d="M240 270 256 270 256 295 240 295 240 270 Z" fill="rgba(114,114,114,0.5)" stroke="none" />
<path d="M256 270 272 270 272 295 256 295 256 270 Z" fill="rgba(80,80,80,0.5)" stroke="none" />
<path d="M272 270 288 270 288 295 272 295 272 270 Z" fill="rgba(56,56,56,0.5)" stroke="none" />
<path d="M288 270 304 270 304 295 288 295 288 270 Z" fill="rgba(0,0,0,0.5)" stroke="none" />
<path d="M304 270 320 270 320 295 304 295 304 270 Z" fill="rgba(0,0,0,0.5)" stroke="none" />
<path d="M0 295 16 295 16 320 0 320 0 295 Z" fill="rgba(0,0,0,0.5)" stroke="none" />
<path d="M16 295 32 295 32 320 16 320 16 295 Z" fill="rgba(0,0,0,0.5)" stroke="none" />
<path d="M32 295 48 295 48 320 32 320 32 295 Z" fill="rgba(0,0,0,0.5)" stroke="none" />
<path d="M48 295 64 295 64 320 48 320 48 295 Z" fill="rgba(126,126,126,0.5)" stroke="none" />
<path d="M64 295 80 295 80 320 64 320 64 295 Z" fill="rgba(64,64,64,0.5)" stroke="none" />
<path d="M80 295 96 295 96 320 80 320 80 295 Z" fill="rgba(130,130,130,0.5)" stroke="none" />
<path d="M96 295 112 295 112 320 96 320 96 295 Z" fill="rgba(188,188,188,0.5)" stroke="none" />
<path d="M112 295 128 295 128 320 112 320 112 295 Z" fill="rgba(210,210,210,0.5)" stroke="none" />
<path d="M128 295 144 295 144 320 128 320 128 295 Z" fill="rgba(190,190,190,0.5)" stroke="none" />
<path d="M144 295 160 295 160 320 144 320 144 295 Z" fill="rgba(146,146,146,0.5)" stroke="none" />
<path d="M160 295 176 295 176 320 160 320 160 295 Z" fill="rgba(140,140,140,0.5)" stroke="none" />
<path d="M176 295 192 295 192 320 176 320 176 295 Z" fill="rgba(143,143,143,0.5)" stroke="none" />
<path d="M192 295 208 295 208 320 192 320 192 295 Z" fill="rgba(184,184,184,0.5)" stroke="none" />
<path d="M208 295 224 295 224 320 208 320 208 295 Z" fill="rgba(208,208,208,0.5)" stroke="none" />
<path d="M224 295 240 295 240 320 224 320 224 295 Z" fill="rgba(170,170,170,0.5)" stroke="none" />
<path d="M240 295 256 295 256 320 240 320 240 295 Z" fill="rgba(102,102,102,0.5)" stroke="none" />
<path d="M256 295 272 295 272 320 256 320 256 295 Z" fill="rgba(51,51,51,0.5)" stroke="none" />
<path d="M272 295 288 295 288 320 272 320 272 295 Z" fill="rgba(22,22,22,0.5)" stroke="none" />
<path d="M288 295 304 295 304 320 288 320 288 295 Z" fill="rgba(0,0,0,0.5)" stroke="none" />
<path d="M304 295 320 295 320 320 304 320 304 295 Z" fill="rgba(0,0,0,0.5)" stroke="none" />
<path d="M0 320 16 320 16 344 0 344 0 320 Z" fill="rgba(0,0,0,0.5)" stroke="none" />
<path d="M16 320 32 320 32 344 16 344 16 320 Z" fill="rgba(0,0,0,0.5)" stroke="none" />
<path d="M32 320 48 320 48 344 32 344 32 320 Z" fill="rgba(0,0,0,0.5)" stroke="none" />
<path d="M48 320 64 320 64 344 48 344 48 320 Z" fill="rgba(56,56,56,0.5)" stroke="none" />
<path d="M64 320 80 320 80 344 64 344 64 320 Z" fill="rgba(66,66,66,0.5)" stroke="none" />
<path d="M80 320 96 320 96 344 80 344 80 320 Z" fill="rgba(104,104,104,0.5)" stroke="none" />
<path d="M96 320 112 320 112 344 96 344 96 320 Z" fill="rgba(172,172,172,0.5)" stroke="none" />
<path d="M112 320 128 320 128 344 112 344 112 320 Z" fill="rgba(186,186,186,0.5)" stroke="none" />
<path d="M128 320 144 320 144 344 128 344 128 320 Z" fill="rgba(170,170,170,0.5)" stroke="none" />
<path d="M144 320 160 320 160 344 144 344 144 320 Z" fill="rgba(164,164,164,0.5)" stroke="none" />
<path d="M160 320 176 320 176 344 160 344 160 320 Z" fill="rgba(169,169,169,0.5)" stroke="none" />
<path d="M176 320 192 320 192 344 176 344 176 320 Z" fill="rgba(163,163,163,0.5)" stroke="none" />
<path d="M192 320 208 320 208 344 192 344 192 320 Z" fill="rgba(173,173,173,0.5)" stroke="none" />
<path d="M208 320 224 320 224 344 208 344 208 320 Z" fill="rgba(187,187,187,0.5)" stroke="none" />
<path d="M224 320 240 320 240 344 224 344 224 320 Z" fill="rgba(147,147,147,0.5)" stroke="none" />
<path d="M240 320 256 320 256 344 240 344 240 320 Z" fill="rgba(105,105,105,0.5)" stroke="none" />
<path d="M256 320 272 320 272 344 256 344 256 320 Z" fill="rgba(48,48,48,0.5)" stroke="none" />
<path d="M272 320 288 320 288 344 272 344 272 320 Z" fill="rgba(0,0,0,0.5)" stroke="none" />
<path d="M288 320 304 320 304 344 288 344 288 320 Z" fill="rgba(0,0,0,0.5)" stroke="none" />
<path d="M304 320 320 320 320 344 304 344 304 320 Z" fill="rgba(0,0,0,0.5)" stroke="none" />
<path d="M0 344 16 344 16 369 0 369 0 344 Z" fill="rgba(0,0,0,0.5)" stroke="none" />
<path d="M16 344 32 344 32 369 16 369 16 344 Z" fill="rgba(0,0,0,0.5)" stroke="none" />
<path d="M32 344 48 344 48 369 32 369 32 344 Z" fill="rgba(0,0,0,0.5)" stroke="none" />
<path d="M48 344 64 344 64 369 48 369 48 344 Z" fill="rgba(0,0,0,0.5)" stroke="none" />
<path d="M64 344 80 344 80 369 64 369 64 344 Z" fill="rgba(32,32,32,0.5)" stroke="none" />
<path d="M80 344 96 344 96 369 80 369 80 344 Z" fill="rgba(77,77,77,0.5)" stroke="none" />
<path d="M96 344 112 344 112 369 96 369 96 344 Z" fill="rgba(147,147,147,0.5)" stroke="none" />
<path d="M112 344 128 344 128 369 112 369 112 344 Z" fill="rgba(169,169,169,0.5)" stroke="none" />
<path d="M128 344 144 344 144 369 128 369 128 344 Z" fill="rgba(144,144,144,0.5)" stroke="none" />
<path d="M144 344 160 344 160 369 144 369 144 344 Z" fill="rgba(159,159,159,0.5)" stroke="none" />
<path d="M160 344 176 344 176 369 160 369 160 344 Z" fill="rgba(183,183,183,0.5)" stroke="none" />
<path d="M176 344 192 344 192 369 176 369 176 344 Z" fill="rgba(161,161,161,0.5)" stroke="none" />
<path d="M192 344 208 344 208 369 192 369 192 344 Z" fill="rgba(155,155,155,0.5)" stroke="none" />
<path d="M208 344 224 344 224 369 208 369 208 344 Z" fill="rgba(165,165,165,0.5)" stroke="none" />
<path d="M224 344 240 344 240 369 224 369 224 344 Z" fill="rgba(127,127,127,0.5)" stroke="none" />
<path d="M240 344 256 344 256 369 240 369 240 344 Z" fill="rgba(74,74,74,0.5)" stroke="none" />
<path d="M256 344 272 344 272 369 256 369 256 344 Z" fill="rgba(26,26,26,0.5)" stroke="none" />
<path d="M272 344 288 344 288 369 272 369 272 344 Z" fill="rgba(0,0,0,0.5)" stroke="none" />
<path d="M288 344 304 344 304 369 288 369 288 344 Z" fill="rgba(0,0,0,0.5)" stroke="none" />
<path d="M304 344 320 344 320 369 304 369 304 344 Z" fill="rgba(0,0,0,0.5)" stroke="none" />
<path d="M0 369 16 369 16 393 0 393 0 369 Z" fill="rgba(0,0,0,0.5)" stroke="none" />
<path d="M16 369 32 369 32 393 16 393 16 369 Z" fill="rgba(0,0,0,0.5)" stroke="none" />
<path d="M32 369 48 369 48 393 32 393 32 369 Z" fill="rgba(0,0,0,0.5)" stroke="none" />
<path d="M48 369 64 369 64 393 48 393 48 369 Z" fill="rgba(0,0,0,0.5)" stroke="none" />
<path d="M64 369 80 369 80 393 64 393 64 369 Z" fill="rgba(0,0,0,0.5)" stroke="none" />
<path d="M80 369 96 369 96 393 80 393 80 369 Z" fill="rgba(52,52,52,0.5)" stroke="none" />
<path d="M96 369 112 369 112 393 96 393 96 369 Z" fill="rgba(125,125,125,0.5)" stroke="none" />
<path d="M112 369 128 369 128 393 112 393 112 369 Z" fill="rgba(166,166,166,0.5)" stroke="none" />
<path d="M128 369 144 369 144 393 128 393 128 369 Z" fill="rgba(151,151,151,0.5)" stroke="none" />
<path d="M144 369 160 369 160 393 144 393 144 369 Z" fill="rgba(141,141,141,0.5)" stroke="none" />
<path d="M160 369 176 369 176 393 160 393 160 369 Z" fill="rgba(151,151,151,0.5)" stroke="none" />
<path d="M176 369 192 369 192 393 176 393 176 369 Z" fill="rgba(150,150,150,0.5)" stroke="none" />
<path d="M192 369 208 369 208 393 192 393 192 369 Z" fill="rgba(161,161,161,0.5)" stroke="none" />
<path d="M208 369 224 369 224 393 208 393 208 369 Z" fill="rgba(158,158,158,0.5)" stroke="none" />
<path d="M224 369 240 369 240 393 224 393 224 369 Z" fill="rgba(104,104,104,0.5)" stroke="none" />
<path d="M240 369 256 369 256 393 240 393 240 369 Z" fill="rgba(35,35,35,0.5)" stroke="none" />
<path d="M256 369 272 369 272 393 256 393 256 369 Z" fill="rgba(0,0,0,0.5)" stroke="none" />
<path d="M272 369 288 369 288 393 272 393 272 369 Z" fill="rgba(0,0,0,0.5)" stroke="none" />
<path d="M288 369 304 369 304 393 288 393 288 369 Z" fill="rgba(0,0,0,0.5)" stroke="none" />
<path d="M304 369 320 369 320 393 304 393 304 369 Z" fill="rgba(0,0,0,0.5)" stroke="none" />
<path d="M0 393 16 393 16 418 0 418 0 393 Z" fill="rgba(0,0,0,0.5)" stroke="none" />
<path d="M16 393 32 393 32 418 16 418 16 393 Z" fill="rgba(0,0,0,0.5)" stroke="none" />
<path d="M32 393 48 393 48 418 32 418 32 393 Z" fill="rgba(0,0,0,0.5)" stroke="none" />
<path d="M48 393 64 393 64 418 48 418 48 393 Z" fill="rgba(0,0,0,0.5)" stroke="none" />
<path d="M64 393 80 393 80 418 64 418 64 393 Z" fill="rgba(0,0,0,0.5)" stroke="none" />
<path d="M80 393 96 393 96 418 80 418 80 393 Z" fill="rgba(19,19,19,0.5)" stroke="none" />
<path d="M96 393 112 393 112 418 96 418 96 393 Z" fill="rgba(90,90,90,0.5)" stroke="none" />
<path d="M112 393 128 393 128 418 112 418 112 393 Z" fill="rgba(129,129,129,0.5)" stroke="none" />
<path d="M128 393 144 393 144 418 128 418 128 393 Z" fill="rgba(169,169,169,0.5)" stroke="none" />
<path d="M144 393 160 393 160 418 144 418 144 393 Z" fill="rgba(163,163,163,0.5)" stroke="none" />
<path d="M160 393 176 393 176 418 160 418 160 393 Z" fill="rgba(153,153,153,0.5)" stroke="none" />
<path d="M176 393 192 393 192 418 176 418 176 393 Z" fill="rgba(172,172,172,0.5)" stroke="none" />
<path d="M192 393 208 393 208 418 192 418 192 393 Z" fill="rgba(158,158,158,0.5)" stroke="none" />
<path d="M208 393 224 393 224 418 208 418 208 393 Z" fill="rgba(118,118,118,0.5)" stroke="none" />
<path d="M224 393 240 393 240 418 224 418 224 393 Z" fill="rgba(59,59,59,0.5)" stroke="none" />
<path d="M240 393 256 393 256 418 240 418 240 393 Z" fill="rgba(14,14,14,0.5)" stroke="none" />
<path d="M256 393 272 393 272 418 256 418 256 393 Z" fill="rgba(0,0,0,0.5)" stroke="none" />
<path d="M272 393 288 393 288 418 272 418 272 393 Z" fill="rgba(0,0,0,0.5)" stroke="none" />
<path d="M288 393 304 393 304 418 288 418 288 393 Z" fill="rgba(0,0,0,0.5)" stroke="none" />
<path d="M304 393 320 393 320 418 304 418 304 393 Z" fill="rgba(0,0,0,0.5)" stroke="none" />
<path d="M0 418 16 418 16 443 0 443 0 418 Z" fill="rgba(0,0,0,0.5)" stroke="none" />
<path d="M16 418 32 418 32 443 16 443 16 418 Z" fill="rgba(0,0,0,0.5)" stroke="none" />
<path d="M32 418 48 418 48 443 32 443 32 418 Z" fill="rgba(0,0,0,0.5)" stroke="none" />
<path d="M48 418 64 418 64 443 48 443 48 418 Z" fill="rgba(0,0,0,0.5)" stroke="none" />
<path d="M64 418 80 418 80 443 64 443 64 418 Z" fill="rgba(0,0,0,0.5)" stroke="none" />
<path d="M80 418 96 418 96 443 80 443 80 418 Z" fill="rgba(0,0,0,0.5)" stroke="none" />
<path d="M96 418 112 418 112 443 96 443 96 418 Z" fill="rgba(48,48,48,0.5)" stroke="none" />
<path d="M112 418 128 418 128 443 112 443 112 418 Z" fill="rgba(66,66,66,0.5)" stroke="none" />
<path d="M128 418 144 418 144 443 128 443 128 418 Z" fill="rgba(127,127,127,0.5)" stroke="none" />
<path d="M144 418 160 418 160 443 144 443 144 418 Z" fill="rgba(149,149,149,0.5)" stroke="none" />
<path d="M160 418 176 418 176 443 160 443 160 418 Z" fill="rgba(145,145,145,0.5)" stroke="none" />
<path d="M176 418 192 418 192 443 176 443 176 418 Z" fill="rgba(155,155,155,0.5)" stroke="none" />
<path d="M192 418 208 418 208 443 192 443 192 418 Z" fill="rgba(113,113,113,0.5)" stroke="none" />
<path d="M208 418 224 418 224 443 208 443 208 418 Z" fill="rgba(62,62,62,0.5)" stroke="none" />
<path d="M224 418 240 418 240 443 224 443 224 418 Z" fill="rgba(23,23,23,0.5)" stroke="none" />
<path d="M240 418 256 418 256 443 240 443 240 418 Z" fill="rgba(3,3,3,0.5)" stroke="none" />
<path d="M256 418 272 418 272 443 256 443 256 418 Z" fill="rgba(0,0,0,0.5)" stroke="none" />
<path d="M272 418 288 418 288 443 272 443 272 418 Z" fill="rgba(0,0,0,0.5)" stroke="none" />
<path d="M288 418 304 418 304 443 288 443 288 418 Z" fill="rgba(0,0,0,0.5)" stroke="none" />
<path d="M304 418 320 418 320 443 304 443 304 418 Z" fill="rgba(0,0,0,0.5)" stroke="none" />
<path d="M0 443 16 443 16 467 0 467 0 443 Z" fill="rgba(0,0,0,0.5)" stroke="none" />
<path d="M16 443 32 443 32 467 16 467 16 443 Z" fill="rgba(0,0,0,0.5)" stroke="none" />
<path d="M32 443 48 443 48 467 32 467 32 443 Z" fill="rgba(0,0,0,0.5)" stroke="none" />
<path d="M48 443 64 443 64 467 48 467 48 443 Z" fill="rgba(0,0,0,0.5)" stroke="none" />
<path d="M64 443 80 443 80 467 64 467 64 443 Z" fill="rgba(0,0,0,0.5)" stroke="none" />
<path d="M80 443 96 443 96 467 80 467 80 443 Z" fill="rgba(0,0,0,0.5)" stroke="none" />
<path d="M96 443 112 443 112 467 96 467 96 443 Z" fill="rgba(47,47,47,0.5)" stroke="none" />
<path d="M112 443 128 443 128 467 112 467 112 443 Z" fill="rgba(40,40,40,0.5)" stroke="none" />
<path d="M128 443 144 443 144 467 128 467 128 443 Z" fill="rgba(55,55,55,0.5)" stroke="none" />
<path d="M144 443 160 443 160 467 144 467 144 443 Z" fill="rgba(72,72,72,0.5)" stroke="none" />
<path d="M160 443 176 443 176 467 160 467 160 443 Z" fill="rgba(78,78,78,0.5)" stroke="none" />
<path d="M176 443 192 443 192 467 176 467 176 443 Z" fill="rgba(79,79,79,0.5)" stroke="none" />
<path d="M192 443 208 443 208 467 192 467 192 443 Z" fill="rgba(57,57,57,0.5)" stroke="none" />
<path d="M208 443 224 443 224 467 208 467 208 443 Z" fill="rgba(52,52,52,0.5)" stroke="none" />
<path d="M224 443 240 443 240 467 224 467 224 443 Z" fill="rgba(34,34,34,0.5)" stroke="none" />
<path d="M240 443 256 443 256 467 240 467 240 443 Z" fill="rgba(7,7,7,0.5)" stroke="none" />
<path d="M256 443 272 443 272 467 256 467 256 443 Z" fill="rgba(0,0,0,0.5)" stroke="none" />
<path d="M272 443 288 443 288 467 272 467 272 443 Z" fill="rgba(0,0,0,0.5)" stroke="none" />
<path d="M288 443 304 443 304 467 288 467 288 443 Z" fill="rgba(0,0,0,0.5)" stroke="none" />
<path d="M304 443 320 443 320 467 304 467 304 443 Z" fill="rgba(0,0,0,0.5)" stroke="none" />
<path d="M0 467 16 467 16 492 0 492 0 467 Z" fill="rgba(0,0,0,0.5)" stroke="none" />
<path d="M16 467 32 467 32 492 16 492 16 467 Z" fill="rgba(0,0,0,0.5)" stroke="none" />
<path d="M32 467 48 467 48 492 32 492 32 467 Z" fill="rgba(0,0,0,0.5)" stroke="none" />
<path d="M48 467 64 467 64 492 48 492 48 467 Z" fill="rgba(0,0,0,0.5)" stroke="none" />
<path d="M64 467 80 467 80 492 64 492 64 467 Z" fill="rgba(0,0,0,0.5)" stroke="none" />
<path d="M80 467 96 467 96 492 80 492 80 467 Z" fill="rgba(0,0,0,0.5)" stroke="none" />
<path d="M96 467 112 467 112 492 96 492 96 467 Z" fill="rgba(78,78,78,0.5)" stroke="none" />
<path d="M112 467 128 467 128 492 112 492 112 467 Z" fill="rgba(70,70,70,0.5)" stroke="none" />
<path d="M128 467 144 467 144 492 128 492 128 467 Z" fill="rgba(46,46,46,0.5)" stroke="none" />
<path d="M144 467 160 467 160 492 144 492 144 467 Z" fill="rgba(41,41,41,0.5)" stroke="none" />
<path d="M160 467 176 467 176 492 160 492 160 467 Z" fill="rgba(41,41,41,0.5)" stroke="none" />
<path d="M176 467 192 467 192 492 176 492 176 467 Z" fill="rgba(39,39,39,0.5)" stroke="none" />
<path d="M192 467 208 467 208 492 192 492 192 467 Z" fill="rgba(41,41,41,0.5)" stroke="none" />
<path d="M208 467 224 467 224 492 208 492 208 467 Z" fill="rgba(79,79,79,0.5)" stroke="none" />
<path d="M224 467 240 467 240 492 224 492 224 467 Z" fill="rgba(71,71,71,0.5)" stroke="none" />
<path d="M240 467 256 467 256 492 240 492 240 467 Z" fill="rgba(21,21,21,0.5)" stroke="none" />
<path d="M256 467 272 467 272 492 256 492 256 467 Z" fill="rgba(0,0,0,0.5)" stroke="none" />
<path d="M272 467 288 467 288 492 272 492 272 467 Z" fill="rgba(0,0,0,0.5)" stroke="none" />
<path d="M288 467 304 467 304 492 288 492 288 467 Z" fill="rgba(0,0,0,0.5)" stroke="none" />
<path d="M304 467 320 467 320 492 304 492 304 467 Z" fill="rgba(0,0,0,0.5)" stroke="none" />
</svg>