<svg width="100%" height="100%" version="1.1" xmlns="http://www.w3.org/2000/svg"> 
<path d="M415 433 421 433 481 460 481 464 419 435 414 437 440 445 498 472 483 464 484 462 497 467 424 433 415 433 Z" fill="none" stroke="black" stroke-width="1.965956" />
<path d="M234 414 229 429 223 424 232 431 232 421 238 428 238 423 243 423 234 420 234 414 Z" fill="none" stroke="black" stroke-width="1.142855" />
<path d="M157 413 167 423 184 432 171 425 162 414 157 413 Z" fill="none" stroke="black" stroke-width="1.109509" />
<path d="M208 399 208 411 219 416 214 418 217 420 221 416 219 414 225 411 224 407 219 413 213 413 208 399 Z" fill="none" stroke="black" stroke-width="1.120783" />
<path d="M152 392 161 400 165 410 162 399 152 392 Z" fill="none" stroke="black" stroke-width="1.027011" />
<path d="M137 392 141 430 151 448 160 457 179 466 218 474 251 475 284 468 310 457 337 437 351 412 349 411 336 436 312 455 277 469 251 475 219 474 182 466 158 454 144 437 137 392 Z" fill="none" stroke="black" stroke-width="2.491377" />
<path d="M186 388 192 397 187 408 190 411 199 400 190 410 188 408 193 396 186 388 Z" fill="none" stroke="black" stroke-width="1.133788" />
<path d="M195 377 197 383 192 391 196 393 194 394 198 393 200 386 196 393 194 390 198 383 204 387 200 405 204 409 207 403 201 407 202 394 207 383 202 384 195 377 Z" fill="none" stroke="black" stroke-width="1.305021" />
<path d="M272 377 267 372 272 380 263 387 260 384 256 388 244 389 241 384 235 388 229 384 225 386 221 382 222 379 220 383 225 388 227 385 233 388 238 394 241 391 238 393 235 388 240 385 243 391 259 387 261 401 266 407 262 401 261 389 271 383 272 377 Z" fill="none" stroke="black" stroke-width="1.538346" />
<path d="M287 353 270 364 239 372 222 370 201 357 214 367 227 370 230 374 224 379 229 377 232 371 248 371 273 364 287 353 Z" fill="none" stroke="black" stroke-width="1.485725" />
<path d="M279 349 253 354 198 351 186 361 198 351 254 354 279 349 Z" fill="none" stroke="black" stroke-width="1.421793" />
<path d="M127 345 144 387 150 392 144 385 142 374 134 363 127 345 Z" fill="none" stroke="black" stroke-width="1.182114" />
<path d="M305 344 295 346 304 344 307 347 303 353 300 352 305 356 296 364 287 362 298 364 301 368 299 364 309 356 303 353 308 348 312 352 305 344 Z" fill="none" stroke="black" stroke-width="1.262648" />
<path d="M166 343 166 359 170 363 166 347 169 344 166 343 Z" fill="none" stroke="black" stroke-width="1.050986" />
<path d="M315 340 313 345 317 352 314 345 316 342 324 348 315 340 Z" fill="none" stroke="black" stroke-width="1.028345" />
<path d="M334 330 329 337 331 345 323 352 331 349 330 339 334 330 Z" fill="none" stroke="black" stroke-width="1.061776" />
<path d="M125 327 128 342 141 355 138 349 140 344 136 347 130 343 125 327 Z" fill="none" stroke="black" stroke-width="1.096702" />
<path d="M260 325 262 331 264 324 273 336 283 336 279 333 274 335 264 323 260 325 Z" fill="none" stroke="black" stroke-width="1.116121" />
<path d="M167 374 173 376 178 372 173 376 169 374 176 368 180 355 186 348 189 350 185 355 196 346 208 347 231 343 253 346 264 341 293 340 297 336 275 341 266 340 262 335 248 335 243 338 235 328 238 336 234 337 232 334 227 337 222 333 206 342 197 341 194 336 203 331 210 320 202 330 192 336 195 340 187 348 178 351 180 355 177 364 167 374 Z" fill="none" stroke="black" stroke-width="2.111598" />
<path d="M188 348 195 341 206 343 223 334 226 339 240 337 246 340 249 336 264 338 252 346 236 341 207 347 194 346 190 350 188 348 Z" fill="none" stroke="black" stroke-width="1.415181" />
<path d="M232 312 229 314 219 308 215 320 210 314 211 309 206 318 201 317 191 324 201 318 204 322 209 316 217 321 220 311 223 313 221 317 225 312 228 315 232 312 Z" fill="none" stroke="black" stroke-width="1.312203" />
<path d="M298 305 323 327 298 305 Z" fill="none" stroke="black" stroke-width="1.024337" />
<path d="M282 285 277 277 280 290 269 298 265 296 266 292 253 307 240 307 219 293 210 296 216 304 225 303 244 322 241 325 235 322 241 327 244 321 238 312 225 303 218 304 212 297 221 294 239 308 253 308 265 296 270 298 280 292 282 285 Z" fill="none" stroke="black" stroke-width="1.827198" />
<path d="M132 275 139 300 157 320 160 341 167 340 174 328 179 327 179 332 183 333 186 323 182 332 179 323 167 333 166 339 160 338 158 319 140 299 140 293 135 288 137 285 141 291 142 287 135 282 132 275 Z" fill="none" stroke="black" stroke-width="1.658006" />
<path d="M278 270 288 297 286 309 282 314 294 324 299 336 306 340 307 337 304 339 297 332 293 321 283 314 287 311 289 297 278 270 Z" fill="none" stroke="black" stroke-width="1.348167" />
<path d="M146 267 162 275 187 274 163 275 146 267 Z" fill="none" stroke="black" stroke-width="1.122919" />
<path d="M114 252 115 275 112 278 116 288 121 333 114 278 114 252 Z" fill="none" stroke="black" stroke-width="1.333482" />
<path d="M265 247 283 269 308 281 337 288 345 293 339 302 344 298 345 293 338 287 296 276 284 268 265 247 Z" fill="none" stroke="black" stroke-width="1.468466" />
<path d="M282 231 308 243 318 244 322 248 320 244 282 231 Z" fill="none" stroke="black" stroke-width="1.069814" />
<path d="M335 227 327 234 309 238 328 235 335 227 Z" fill="none" stroke="black" stroke-width="1.068319" />
<path d="M369 214 364 219 359 246 347 264 334 272 305 275 331 273 343 269 360 247 362 250 355 263 341 275 340 279 311 277 339 281 354 266 363 248 360 245 364 223 369 214 Z" fill="none" stroke="black" stroke-width="1.903916" />
<path d="M259 215 252 211 237 214 236 225 225 250 205 271 182 280 164 281 153 278 173 282 210 269 230 242 238 215 252 212 258 217 262 243 261 260 268 271 269 282 269 272 262 260 263 243 259 215 Z" fill="none" stroke="black" stroke-width="2.089632" />
<path d="M295 205 321 202 331 208 332 206 321 202 295 205 Z" fill="none" stroke="black" stroke-width="1.078493" />
<path d="M197 206 180 200 173 205 158 208 147 215 140 224 142 225 146 217 159 209 181 201 197 206 Z" fill="none" stroke="black" stroke-width="1.267422" />
<path d="M351 207 340 199 326 196 346 204 356 222 353 248 345 258 332 267 306 269 295 266 284 259 271 242 279 230 277 227 290 221 289 216 304 223 313 223 317 219 326 223 319 231 296 231 315 233 323 230 326 222 320 219 319 214 319 218 316 215 311 223 296 221 291 213 286 217 289 221 277 226 271 243 276 252 292 266 301 269 327 269 336 266 350 254 356 240 357 222 351 207 Z" fill="none" stroke="black" stroke-width="2.597106" />
<path d="M107 195 116 200 129 214 132 241 139 256 146 263 157 269 186 271 163 270 147 262 135 246 129 212 119 201 107 195 Z" fill="none" stroke="black" stroke-width="1.615395" />
<path d="M204 204 186 195 173 194 161 199 154 206 151 205 156 199 147 206 144 214 149 206 154 207 174 194 185 195 204 204 Z" fill="none" stroke="black" stroke-width="1.326615" />
<path d="M141 206 136 220 139 244 150 259 162 265 187 267 200 264 218 249 227 226 226 218 215 214 206 215 200 211 192 217 180 218 173 211 172 217 173 215 180 219 193 218 197 213 224 218 227 226 217 248 201 262 187 266 163 264 144 251 137 234 137 220 142 206 151 198 162 194 150 198 141 206 Z" fill="none" stroke="black" stroke-width="2.357784" />
<path d="M136 196 158 191 201 191 159 190 136 196 Z" fill="none" stroke="black" stroke-width="1.242069" />
<path d="M332 176 326 180 301 180 278 185 262 199 246 195 230 199 199 185 206 191 217 192 230 199 251 196 268 203 307 192 305 189 298 192 303 191 303 194 268 203 263 199 279 186 301 181 324 181 332 176 Z" fill="none" stroke="black" stroke-width="2.061804" />
<path d="M163 176 167 179 173 173 179 173 191 178 210 178 220 183 225 192 227 189 221 182 211 178 192 178 180 173 170 174 169 178 163 176 Z" fill="none" stroke="black" stroke-width="1.345133" />
<path d="M169 172 163 169 159 172 151 170 144 174 151 170 159 175 161 171 169 172 Z" fill="none" stroke="black" stroke-width="1.073245" />
<path d="M124 160 118 175 118 192 125 196 134 196 143 176 131 195 122 194 118 184 124 160 Z" fill="none" stroke="black" stroke-width="1.262222" />
<path d="M350 97 361 120 360 130 362 119 350 97 Z" fill="none" stroke="black" stroke-width="1.063689" />
<path d="M261 73 278 85 287 86 282 86 261 73 Z" fill="none" stroke="black" stroke-width="1.028917" />
<path d="M399 56 399 81 399 56 Z" fill="none" stroke="black" stroke-width="1.000000" />
<path d="M232 55 240 58 233 58 234 61 241 59 263 70 284 77 293 77 313 88 321 88 330 98 320 86 314 87 295 77 282 76 232 55 Z" fill="none" stroke="black" stroke-width="1.460875" />
<path d="M183 48 190 57 195 50 198 51 198 48 190 54 185 46 183 48 Z" fill="none" stroke="black" stroke-width="1.060391" />
<path d="M314 44 282 61 314 44 Z" fill="none" stroke="black" stroke-width="1.032937" />
<path d="M181 44 176 52 162 57 149 68 137 90 144 75 157 62 177 52 181 44 Z" fill="none" stroke="black" stroke-width="1.289310" />
<path d="M353 38 352 51 341 68 352 53 353 38 Z" fill="none" stroke="black" stroke-width="1.078824" />
<path d="M335 39 323 34 283 56 299 50 301 46 323 35 329 40 335 39 Z" fill="none" stroke="black" stroke-width="1.256858" />
<path d="M238 34 234 33 216 42 210 40 208 44 211 41 217 43 234 34 236 36 226 43 238 37 238 34 Z" fill="none" stroke="black" stroke-width="1.200222" />
<path d="M154 32 151 31 141 40 130 44 111 66 105 86 106 105 105 93 110 71 120 54 131 44 143 40 154 32 Z" fill="none" stroke="black" stroke-width="1.451865" />
<path d="M350 30 330 60 313 71 330 62 350 30 Z" fill="none" stroke="black" stroke-width="1.148160" />
<path d="M385 24 384 32 387 33 385 28 390 31 387 38 392 32 385 24 Z" fill="none" stroke="black" stroke-width="1.037720" />
<path d="M288 23 283 25 285 26 282 30 268 30 249 36 252 32 268 26 274 19 268 25 248 33 248 37 267 31 284 30 288 23 Z" fill="none" stroke="black" stroke-width="1.363028" />
<path d="M292 11 287 8 284 16 278 12 257 19 279 13 284 19 274 27 286 20 286 15 289 20 293 20 292 11 Z" fill="none" stroke="black" stroke-width="1.266379" />
<path d="M278 8 259 12 248 18 245 23 259 13 275 11 278 8 Z" fill="none" stroke="black" stroke-width="1.135165" />
<path d="M128 6 118 17 114 29 128 6 Z" fill="none" stroke="black" stroke-width="1.007373" />
<path d="M217 7 224 3 241 2 257 6 259 9 275 6 259 7 234 2 217 7 Z" fill="none" stroke="black" stroke-width="1.228647" />
<path d="M375 0 383 11 379 4 386 6 386 12 391 18 386 19 399 43 393 27 397 27 403 43 402 109 398 115 396 153 393 146 395 113 399 108 399 84 399 106 395 112 393 126 393 178 387 182 391 175 391 158 390 175 373 202 372 211 374 214 381 205 387 188 389 192 390 189 387 186 392 185 402 193 400 233 380 279 379 275 366 285 365 317 353 351 351 384 363 410 412 435 413 433 400 423 368 407 363 402 355 382 356 353 363 342 369 322 369 291 383 278 400 234 402 191 391 182 394 177 398 116 402 110 403 42 387 11 387 5 375 0 Z" fill="none" stroke="black" stroke-width="4.805715" />
<path d="M361 333 364 334 362 342 355 353 355 384 362 403 374 413 399 423 410 434 372 415 359 402 351 382 353 351 361 333 Z" fill="none" stroke="black" stroke-width="1.651610" />
<path d="M378 277 380 279 369 290 370 304 366 323 364 321 367 286 378 277 Z" fill="none" stroke="black" stroke-width="1.189947" />
<path d="M385 184 387 186 382 201 374 211 372 205 385 184 Z" fill="none" stroke="black" stroke-width="1.037438" />
<path d="M367 0 352 17 341 17 289 45 282 46 272 54 256 58 266 57 316 31 315 35 275 56 277 57 347 20 320 32 320 28 344 17 353 18 367 0 Z" fill="none" stroke="black" stroke-width="2.085335" />
<path d="M288 1 296 2 323 24 314 13 297 2 288 1 Z" fill="none" stroke="black" stroke-width="1.153472" />
<path d="M282 0 306 18 309 17 282 0 Z" fill="none" stroke="black" stroke-width="1.023928" />
<path d="M128 0 114 15 110 33 104 37 105 42 101 47 96 68 96 93 92 104 92 153 100 178 100 194 98 195 92 186 89 185 86 189 92 195 88 199 103 210 106 227 111 236 111 275 105 278 112 286 115 324 124 351 130 360 135 389 130 397 126 416 112 429 89 439 68 457 40 469 0 494 12 487 14 488 7 494 35 477 69 462 84 448 115 433 130 417 135 397 131 396 136 384 131 361 124 350 115 319 113 285 106 278 112 276 112 238 115 236 118 239 116 242 119 267 123 274 128 303 119 263 117 211 116 234 112 236 108 229 109 226 111 228 110 214 102 201 105 178 97 158 105 179 104 197 102 200 99 198 100 178 94 162 94 154 97 156 95 119 99 84 95 118 96 151 93 152 96 70 99 69 99 77 102 68 98 67 99 56 104 43 121 31 111 37 111 27 119 9 128 2 134 3 128 0 Z" fill="none" stroke="black" stroke-width="6.000000" />
<path d="M42 473 13 487 34 473 42 473 Z" fill="none" stroke="black" stroke-width="1.095104" />
<path d="M133 398 130 417 116 431 82 448 73 458 60 463 83 444 114 429 126 418 129 401 133 398 Z" fill="none" stroke="black" stroke-width="1.519599" />
<path d="M89 186 107 209 108 227 103 208 90 199 94 194 88 191 89 186 Z" fill="none" stroke="black" stroke-width="1.207566" />
<path d="M415 433 421 433 481 460 481 464 419 435 414 437 440 445 498 472 483 464 484 462 497 467 424 433 415 433 Z" fill="black" stroke="none" />
<path d="M234 414 229 429 223 424 232 431 232 421 238 428 238 423 243 423 234 420 234 414 Z" fill="black" stroke="none" />
<path d="M157 413 167 423 184 432 171 425 162 414 157 413 Z" fill="black" stroke="none" />
<path d="M208 399 208 411 219 416 214 418 217 420 221 416 219 414 225 411 224 407 219 413 213 413 208 399 Z" fill="black" stroke="none" />
<path d="M152 392 161 400 165 410 162 399 152 392 Z" fill="black" stroke="none" />
<path d="M137 392 141 430 151 448 160 457 179 466 218 474 251 475 284 468 310 457 337 437 351 412 349 411 336 436 312 455 277 469 251 475 219 474 182 466 158 454 144 437 137 392 Z" fill="black" stroke="none" />
<path d="M186 388 192 397 187 408 190 411 199 400 190 410 188 408 193 396 186 388 Z" fill="black" stroke="none" />
<path d="M195 377 197 383 192 391 196 393 194 394 198 393 200 386 196 393 194 390 198 383 204 387 200 405 204 409 207 403 201 407 202 394 207 383 202 384 195 377 Z" fill="black" stroke="none" />
<path d="M272 377 267 372 272 380 263 387 260 384 256 388 244 389 241 384 235 388 229 384 225 386 221 382 222 379 220 383 225 388 227 385 233 388 238 394 241 391 238 393 235 388 240 385 243 391 259 387 261 401 266 407 262 401 261 389 271 383 272 377 Z" fill="black" stroke="none" />
<path d="M287 353 270 364 239 372 222 370 201 357 214 367 227 370 230 374 224 379 229 377 232 371 248 371 273 364 287 353 Z" fill="black" stroke="none" />
<path d="M279 349 253 354 198 351 186 361 198 351 254 354 279 349 Z" fill="black" stroke="none" />
<path d="M127 345 144 387 150 392 144 385 142 374 134 363 127 345 Z" fill="black" stroke="none" />
<path d="M305 344 295 346 304 344 307 347 303 353 300 352 305 356 296 364 287 362 298 364 301 368 299 364 309 356 303 353 308 348 312 352 305 344 Z" fill="black" stroke="none" />
<path d="M166 343 166 359 170 363 166 347 169 344 166 343 Z" fill="black" stroke="none" />
<path d="M315 340 313 345 317 352 314 345 316 342 324 348 315 340 Z" fill="black" stroke="none" />
<path d="M334 330 329 337 331 345 323 352 331 349 330 339 334 330 Z" fill="black" stroke="none" />
<path d="M125 327 128 342 141 355 138 349 140 344 136 347 130 343 125 327 Z" fill="black" stroke="none" />
<path d="M260 325 262 331 264 324 273 336 283 336 279 333 274 335 264 323 260 325 Z" fill="black" stroke="none" />
<path d="M167 374 173 376 178 372 173 376 169 374 176 368 180 355 186 348 189 350 185 355 196 346 208 347 231 343 253 346 264 341 293 340 297 336 275 341 266 340 262 335 248 335 243 338 235 328 238 336 234 337 232 334 227 337 222 333 206 342 197 341 194 336 203 331 210 320 202 330 192 336 195 340 187 348 178 351 180 355 177 364 167 374 Z" fill="black" stroke="none" />
<path d="M188 348 195 341 206 343 223 334 226 339 240 337 246 340 249 336 264 338 252 346 236 341 207 347 194 346 190 350 188 348 Z" fill="black" stroke="none" />
<path d="M232 312 229 314 219 308 215 320 210 314 211 309 206 318 201 317 191 324 201 318 204 322 209 316 217 321 220 311 223 313 221 317 225 312 228 315 232 312 Z" fill="black" stroke="none" />
<path d="M298 305 323 327 298 305 Z" fill="black" stroke="none" />
<path d="M282 285 277 277 280 290 269 298 265 296 266 292 253 307 240 307 219 293 210 296 216 304 225 303 244 322 241 325 235 322 241 327 244 321 238 312 225 303 218 304 212 297 221 294 239 308 253 308 265 296 270 298 280 292 282 285 Z" fill="black" stroke="none" />
<path d="M132 275 139 300 157 320 160 341 167 340 174 328 179 327 179 332 183 333 186 323 182 332 179 323 167 333 166 339 160 338 158 319 140 299 140 293 135 288 137 285 141 291 142 287 135 282 132 275 Z" fill="black" stroke="none" />
<path d="M278 270 288 297 286 309 282 314 294 324 299 336 306 340 307 337 304 339 297 332 293 321 283 314 287 311 289 297 278 270 Z" fill="black" stroke="none" />
<path d="M146 267 162 275 187 274 163 275 146 267 Z" fill="black" stroke="none" />
<path d="M114 252 115 275 112 278 116 288 121 333 114 278 114 252 Z" fill="black" stroke="none" />
<path d="M265 247 283 269 308 281 337 288 345 293 339 302 344 298 345 293 338 287 296 276 284 268 265 247 Z" fill="black" stroke="none" />
<path d="M282 231 308 243 318 244 322 248 320 244 282 231 Z" fill="black" stroke="none" />
<path d="M335 227 327 234 309 238 328 235 335 227 Z" fill="black" stroke="none" />
<path d="M369 214 364 219 359 246 347 264 334 272 305 275 331 273 343 269 360 247 362 250 355 263 341 275 340 279 311 277 339 281 354 266 363 248 360 245 364 223 369 214 Z" fill="black" stroke="none" />
<path d="M259 215 252 211 237 214 236 225 225 250 205 271 182 280 164 281 153 278 173 282 210 269 230 242 238 215 252 212 258 217 262 243 261 260 268 271 269 282 269 272 262 260 263 243 259 215 Z" fill="black" stroke="none" />
<path d="M295 205 321 202 331 208 332 206 321 202 295 205 Z" fill="black" stroke="none" />
<path d="M197 206 180 200 173 205 158 208 147 215 140 224 142 225 146 217 159 209 181 201 197 206 Z" fill="black" stroke="none" />
<path d="M351 207 340 199 326 196 346 204 356 222 353 248 345 258 332 267 306 269 295 266 284 259 271 242 279 230 277 227 290 221 289 216 304 223 313 223 317 219 326 223 319 231 296 231 315 233 323 230 326 222 320 219 319 214 319 218 316 215 311 223 296 221 291 213 286 217 289 221 277 226 271 243 276 252 292 266 301 269 327 269 336 266 350 254 356 240 357 222 351 207 Z" fill="black" stroke="none" />
<path d="M107 195 116 200 129 214 132 241 139 256 146 263 157 269 186 271 163 270 147 262 135 246 129 212 119 201 107 195 Z" fill="black" stroke="none" />
<path d="M204 204 186 195 173 194 161 199 154 206 151 205 156 199 147 206 144 214 149 206 154 207 174 194 185 195 204 204 Z" fill="black" stroke="none" />
<path d="M141 206 136 220 139 244 150 259 162 265 187 267 200 264 218 249 227 226 226 218 215 214 206 215 200 211 192 217 180 218 173 211 172 217 173 215 180 219 193 218 197 213 224 218 227 226 217 248 201 262 187 266 163 264 144 251 137 234 137 220 142 206 151 198 162 194 150 198 141 206 Z" fill="black" stroke="none" />
<path d="M136 196 158 191 201 191 159 190 136 196 Z" fill="black" stroke="none" />
<path d="M332 176 326 180 301 180 278 185 262 199 246 195 230 199 199 185 206 191 217 192 230 199 251 196 268 203 307 192 305 189 298 192 303 191 303 194 268 203 263 199 279 186 301 181 324 181 332 176 Z" fill="black" stroke="none" />
<path d="M163 176 167 179 173 173 179 173 191 178 210 178 220 183 225 192 227 189 221 182 211 178 192 178 180 173 170 174 169 178 163 176 Z" fill="black" stroke="none" />
<path d="M169 172 163 169 159 172 151 170 144 174 151 170 159 175 161 171 169 172 Z" fill="black" stroke="none" />
<path d="M124 160 118 175 118 192 125 196 134 196 143 176 131 195 122 194 118 184 124 160 Z" fill="black" stroke="none" />
<path d="M350 97 361 120 360 130 362 119 350 97 Z" fill="black" stroke="none" />
<path d="M261 73 278 85 287 86 282 86 261 73 Z" fill="black" stroke="none" />
<path d="M399 56 399 81 399 56 Z" fill="black" stroke="none" />
<path d="M232 55 240 58 233 58 234 61 241 59 263 70 284 77 293 77 313 88 321 88 330 98 320 86 314 87 295 77 282 76 232 55 Z" fill="black" stroke="none" />
<path d="M183 48 190 57 195 50 198 51 198 48 190 54 185 46 183 48 Z" fill="black" stroke="none" />
<path d="M314 44 282 61 314 44 Z" fill="black" stroke="none" />
<path d="M181 44 176 52 162 57 149 68 137 90 144 75 157 62 177 52 181 44 Z" fill="black" stroke="none" />
<path d="M353 38 352 51 341 68 352 53 353 38 Z" fill="black" stroke="none" />
<path d="M335 39 323 34 283 56 299 50 301 46 323 35 329 40 335 39 Z" fill="black" stroke="none" />
<path d="M238 34 234 33 216 42 210 40 208 44 211 41 217 43 234 34 236 36 226 43 238 37 238 34 Z" fill="black" stroke="none" />
<path d="M154 32 151 31 141 40 130 44 111 66 105 86 106 105 105 93 110 71 120 54 131 44 143 40 154 32 Z" fill="black" stroke="none" />
<path d="M350 30 330 60 313 71 330 62 350 30 Z" fill="black" stroke="none" />
<path d="M385 24 384 32 387 33 385 28 390 31 387 38 392 32 385 24 Z" fill="black" stroke="none" />
<path d="M288 23 283 25 285 26 282 30 268 30 249 36 252 32 268 26 274 19 268 25 248 33 248 37 267 31 284 30 288 23 Z" fill="black" stroke="none" />
<path d="M292 11 287 8 284 16 278 12 257 19 279 13 284 19 274 27 286 20 286 15 289 20 293 20 292 11 Z" fill="black" stroke="none" />
<path d="M278 8 259 12 248 18 245 23 259 13 275 11 278 8 Z" fill="black" stroke="none" />
<path d="M128 6 118 17 114 29 128 6 Z" fill="black" stroke="none" />
<path d="M217 7 224 3 241 2 257 6 259 9 275 6 259 7 234 2 217 7 Z" fill="black" stroke="none" />
<path d="M375 0 383 11 379 4 386 6 386 12 391 18 386 19 399 43 393 27 397 27 403 43 402 109 398 115 396 153 393 146 395 113 399 108 399 84 399 106 395 112 393 126 393 178 387 182 391 175 391 158 390 175 373 202 372 211 374 214 381 205 387 188 389 192 390 189 387 186 392 185 402 193 400 233 380 279 379 275 366 285 365 317 353 351 351 384 363 410 412 435 413 433 400 423 368 407 363 402 355 382 356 353 363 342 369 322 369 291 383 278 400 234 402 191 391 182 394 177 398 116 402 110 403 42 387 11 387 5 375 0 Z" fill="black" stroke="none" />
<path d="M361 333 364 334 362 342 355 353 355 384 362 403 374 413 399 423 410 434 372 415 359 402 351 382 353 351 361 333 Z" fill="black" stroke="none" />
<path d="M378 277 380 279 369 290 370 304 366 323 364 321 367 286 378 277 Z" fill="black" stroke="none" />
<path d="M385 184 387 186 382 201 374 211 372 205 385 184 Z" fill="black" stroke="none" />
<path d="M367 0 352 17 341 17 289 45 282 46 272 54 256 58 266 57 316 31 315 35 275 56 277 57 347 20 320 32 320 28 344 17 353 18 367 0 Z" fill="black" stroke="none" />
<path d="M288 1 296 2 323 24 314 13 297 2 288 1 Z" fill="black" stroke="none" />
<path d="M282 0 306 18 309 17 282 0 Z" fill="black" stroke="none" />
<path d="M128 0 114 15 110 33 104 37 105 42 101 47 96 68 96 93 92 104 92 153 100 178 100 194 98 195 92 186 89 185 86 189 92 195 88 199 103 210 106 227 111 236 111 275 105 278 112 286 115 324 124 351 130 360 135 389 130 397 126 416 112 429 89 439 68 457 40 469 0 494 12 487 14 488 7 494 35 477 69 462 84 448 115 433 130 417 135 397 131 396 136 384 131 361 124 350 115 319 113 285 106 278 112 276 112 238 115 236 118 239 116 242 119 267 123 274 128 303 119 263 117 211 116 234 112 236 108 229 109 226 111 228 110 214 102 201 105 178 97 158 105 179 104 197 102 200 99 198 100 178 94 162 94 154 97 156 95 119 99 84 95 118 96 151 93 152 96 70 99 69 99 77 102 68 98 67 99 56 104 43 121 31 111 37 111 27 119 9 128 2 134 3 128 0 Z" fill="black" stroke="none" />
<path d="M42 473 13 487 34 473 42 473 Z" fill="black" stroke="none" />
<path d="M133 398 130 417 116 431 82 448 73 458 60 463 83 444 114 429 126 418 129 401 133 398 Z" fill="black" stroke="none" />
<path d="M89 186 107 209 108 227 103 208 90 199 94 194 88 191 89 186 Z" fill="black" stroke="none" />
</svg>