<svg width="100%" height="100%" version="1.1" xmlns="http://www.w3.org/2000/svg"> 
<path d="M182 498 201 498 203 495 222 497 201 494 198 497 192 495 Z" fill="none" stroke="black" stroke-width="1.264825" />
<path d="M103 497 111 495 113 498 112 494 118 492 130 498 125 492 112 491 Z" fill="none" stroke="black" stroke-width="1.163861" />
<path d="M242 414 231 426 232 438 227 434 229 429 224 432 228 438 226 441 223 436 218 436 218 442 215 442 207 430 204 437 207 439 205 434 208 433 215 445 219 443 220 437 228 443 236 435 233 428 242 420 Z" fill="none" stroke="black" stroke-width="1.877455" />
<path d="M111 407 110 410 124 425 127 437 141 449 142 454 145 447 138 445 139 439 137 442 131 438 125 427 131 423 125 424 118 412 Z" fill="none" stroke="black" stroke-width="1.608455" />
<path d="M182 400 180 430 183 438 178 441 171 432 169 434 181 444 181 447 183 446 184 417 190 423 190 428 198 431 199 440 196 443 200 442 205 450 205 444 199 438 199 428 205 420 195 429 187 415 187 408 198 399 194 397 196 401 189 403 185 410 Z" fill="none" stroke="black" stroke-width="2.419044" />
<path d="M172 391 178 398 188 397 192 393 181 397 175 393 178 388 Z" fill="none" stroke="black" stroke-width="1.122754" />
<path d="M272 385 268 385 262 394 252 383 248 385 243 402 228 417 232 419 231 416 242 407 240 405 245 404 248 387 252 385 257 394 266 395 267 390 272 395 266 409 261 413 251 397 260 415 266 413 267 407 273 401 273 394 269 390 Z" fill="none" stroke="black" stroke-width="2.319445" />
<path d="M92 379 100 391 107 388 118 390 116 386 106 386 102 389 Z" fill="none" stroke="black" stroke-width="1.140753" />
<path d="M210 378 206 374 203 377 174 376 150 380 159 382 175 377 Z" fill="none" stroke="black" stroke-width="1.358710" />
<path d="M239 358 225 358 207 353 182 359 147 356 134 360 124 359 121 362 134 362 148 357 183 360 208 354 224 359 Z" fill="none" stroke="black" stroke-width="2.179783" />
<path d="M308 349 305 349 302 357 301 381 294 391 289 392 286 402 281 406 287 410 284 415 290 494 282 486 276 492 267 492 263 486 256 484 252 488 255 491 254 495 227 495 225 498 257 496 256 487 260 487 266 495 278 493 283 489 287 496 291 496 285 426 288 407 285 404 291 393 299 389 305 352 Z" fill="none" stroke="black" stroke-width="3.739375" />
<path d="M207 347 197 351 192 349 186 353 150 351 187 354 207 350 Z" fill="none" stroke="black" stroke-width="1.523992" />
<path d="M49 338 45 348 50 352 56 366 56 384 64 397 70 399 76 413 74 427 77 493 80 498 75 416 79 413 91 425 92 423 74 408 71 397 65 394 60 387 62 385 57 382 57 365 48 346 Z" fill="none" stroke="black" stroke-width="3.071957" />
<path d="M240 329 251 343 252 352 257 358 253 361 248 351 245 351 254 363 258 356 248 334 Z" fill="none" stroke="black" stroke-width="1.429384" />
<path d="M237 353 197 338 199 321 196 315 196 333 191 338 182 341 163 338 140 350 122 355 136 353 164 339 184 342 196 338 236 356 Z" fill="none" stroke="black" stroke-width="2.539256" />
<path d="M192 299 194 305 207 300 207 296 202 291 195 291 200 292 206 299 197 302 Z" fill="none" stroke="black" stroke-width="1.197055" />
<path d="M195 267 196 278 192 290 180 294 183 300 192 294 193 286 198 280 198 270 Z" fill="none" stroke="black" stroke-width="1.302106" />
<path d="M328 265 319 279 323 298 320 299 318 294 314 304 314 314 307 338 307 345 310 347 323 339 332 321 331 317 325 332 317 342 311 345 308 343 313 319 317 315 323 315 326 309 320 281 326 269 329 269 331 297 334 298 331 267 Z" fill="none" stroke="black" stroke-width="2.795363" />
<path d="M155 259 148 266 142 282 142 303 145 309 153 314 160 312 166 303 175 298 180 299 172 291 167 291 166 287 169 285 165 285 165 290 155 300 151 294 148 298 162 306 159 311 151 311 143 302 143 283 Z" fill="none" stroke="black" stroke-width="2.126890" />
<path d="M206 256 206 262 215 279 215 305 211 309 188 308 182 314 170 306 165 309 166 311 170 309 177 315 184 315 190 309 212 311 216 307 216 278 Z" fill="none" stroke="black" stroke-width="2.000429" />
<path d="M8 241 0 251 3 294 9 301 6 307 13 317 23 322 23 330 30 327 24 325 23 320 26 317 35 321 41 339 40 347 27 344 11 318 12 324 24 345 42 348 42 338 36 320 29 314 22 320 8 307 11 300 4 291 1 276 3 248 8 243 17 244 27 256 26 266 15 252 6 248 3 260 10 267 9 273 6 273 11 279 9 295 14 297 18 268 27 281 24 290 26 297 29 281 21 267 15 264 14 292 11 292 12 266 6 260 8 250 27 269 27 274 29 256 21 244 Z" fill="none" stroke="black" stroke-width="5.335289" />
<path d="M337 240 328 241 320 249 319 265 322 250 327 244 336 241 341 245 323 260 324 264 341 246 344 249 344 260 340 264 340 254 337 252 334 288 338 266 341 266 337 301 320 322 322 327 322 322 334 312 343 278 345 249 Z" fill="none" stroke="black" stroke-width="3.070411" />
<path d="M312 240 313 263 308 263 310 267 302 282 301 298 298 307 290 316 292 320 289 324 293 321 291 316 299 309 305 278 316 259 Z" fill="none" stroke="black" stroke-width="1.846879" />
<path d="M233 214 237 221 246 220 240 220 236 216 245 213 240 214 239 211 236 216 Z" fill="none" stroke="black" stroke-width="1.138743" />
<path d="M104 218 114 220 118 216 108 211 115 216 112 219 108 219 107 216 Z" fill="none" stroke="black" stroke-width="1.107063" />
<path d="M210 219 212 223 236 229 239 235 240 230 247 228 253 220 257 226 264 229 253 217 242 228 213 222 215 217 224 214 221 220 227 216 230 223 234 223 227 215 237 208 227 211 226 214 216 214 Z" fill="none" stroke="black" stroke-width="2.147212" />
<path d="M204 217 206 226 219 235 219 232 211 228 205 220 219 206 238 206 257 215 270 226 270 233 264 236 257 228 261 237 272 235 273 226 278 229 259 214 240 206 240 203 256 206 268 217 270 216 264 208 241 200 238 203 234 200 229 205 218 205 Z" fill="none" stroke="black" stroke-width="2.785113" />
<path d="M76 226 80 226 110 206 120 209 128 216 121 217 118 224 112 226 102 225 98 216 88 228 89 231 97 219 99 226 118 228 114 231 104 231 101 228 94 229 95 231 115 232 129 226 137 226 127 211 111 205 89 214 89 210 99 203 114 200 134 205 139 214 129 212 142 221 145 220 138 215 141 213 154 223 156 221 137 205 126 200 114 199 96 203 95 201 101 200 102 197 87 203 80 210 79 220 80 213 87 205 89 207 86 214 90 215 Z" fill="none" stroke="black" stroke-width="4.182310" />
<path d="M291 212 286 200 269 194 229 194 213 199 259 194 283 200 Z" fill="none" stroke="black" stroke-width="1.773688" />
<path d="M92 187 97 191 134 197 127 193 Z" fill="none" stroke="black" stroke-width="1.136328" />
<path d="M272 175 282 184 288 185 295 195 301 214 299 221 302 221 301 208 291 185 Z" fill="none" stroke="black" stroke-width="1.423344" />
<path d="M261 187 258 186 256 179 236 172 206 191 210 191 215 185 237 173 257 182 257 188 Z" fill="none" stroke="black" stroke-width="1.613495" />
<path d="M216 172 206 176 201 188 208 177 214 173 215 175 Z" fill="none" stroke="black" stroke-width="1.102371" />
<path d="M95 167 76 170 72 178 61 182 54 198 53 211 62 185 70 181 79 170 Z" fill="none" stroke="black" stroke-width="1.548556" />
<path d="M141 166 149 175 156 175 162 180 158 172 150 173 Z" fill="none" stroke="black" stroke-width="1.088070" />
<path d="M140 181 127 168 128 166 120 166 91 173 81 181 76 181 76 185 95 173 120 167 131 172 140 184 Z" fill="none" stroke="black" stroke-width="1.754151" />
<path d="M130 164 138 168 149 190 139 166 Z" fill="none" stroke="black" stroke-width="1.181616" />
<path d="M316 92 314 96 320 106 317 107 317 115 325 130 325 137 329 134 323 147 331 171 331 201 322 238 325 241 323 239 328 228 332 202 332 170 325 147 332 131 331 118 326 112 329 105 322 94 Z" fill="none" stroke="black" stroke-width="2.761830" />
<path d="M318 93 328 106 325 114 329 120 326 123 329 124 330 133 326 131 319 115 320 111 323 113 323 107 317 98 Z" fill="none" stroke="black" stroke-width="1.393711" />
<path d="M274 89 295 109 296 114 307 126 310 138 317 137 317 133 311 135 308 125 293 103 280 90 Z" fill="none" stroke="black" stroke-width="1.635270" />
<path d="M74 81 67 81 63 87 53 92 53 96 58 90 64 89 67 83 Z" fill="none" stroke="black" stroke-width="1.124661" />
<path d="M195 68 203 72 220 71 227 75 253 79 262 89 267 89 278 97 268 87 256 83 252 77 228 74 220 69 204 71 Z" fill="none" stroke="black" stroke-width="1.877144" />
<path d="M159 57 168 54 176 63 176 58 184 60 181 56 176 57 168 52 163 52 Z" fill="none" stroke="black" stroke-width="1.180224" />
<path d="M266 45 269 48 274 43 291 45 311 57 291 43 274 42 Z" fill="none" stroke="black" stroke-width="1.382372" />
<path d="M195 24 199 30 206 32 206 36 200 36 209 38 210 41 206 45 235 46 238 49 218 54 253 52 260 61 250 60 239 67 250 61 261 63 263 57 255 51 239 49 240 45 217 45 211 41 207 30 202 28 225 24 203 24 202 28 Z" fill="none" stroke="black" stroke-width="2.753147" />
<path d="M206 19 206 22 211 19 228 22 228 19 Z" fill="none" stroke="black" stroke-width="1.000000" />
<path d="M225 15 241 19 230 22 230 25 257 20 254 18 243 21 241 18 245 15 Z" fill="none" stroke="black" stroke-width="1.315379" />
<path d="M239 12 230 10 216 15 182 13 176 16 159 39 159 52 163 35 182 15 195 13 200 16 219 16 221 13 Z" fill="none" stroke="black" stroke-width="1.978241" />
<path d="M124 3 121 3 113 14 110 24 112 44 106 57 112 49 113 32 118 26 115 15 Z" fill="none" stroke="black" stroke-width="1.468884" />
<path d="M238 7 241 10 250 7 252 9 245 13 250 12 252 15 262 15 266 18 278 13 278 16 296 22 293 20 295 18 302 23 304 30 295 34 305 32 313 41 314 49 297 36 295 39 306 45 310 51 314 51 314 65 319 73 319 79 329 88 326 92 332 105 334 101 329 92 331 86 320 77 316 65 316 44 305 29 302 19 285 10 284 4 281 3 262 4 254 0 252 2 261 5 280 4 283 7 278 7 278 10 288 13 293 19 278 12 267 16 254 13 255 7 253 9 251 6 Z" fill="none" stroke="black" stroke-width="3.970652" />
<path d="M192 0 204 5 246 2 213 1 205 4 199 0 Z" fill="none" stroke="black" stroke-width="1.446077" />
<path d="M163 0 151 11 145 23 144 46 147 55 149 52 156 54 146 48 146 23 153 12 162 5 Z" fill="none" stroke="black" stroke-width="1.626898" />
<path d="M124 0 127 4 141 5 157 2 156 0 147 4 139 0 138 3 130 3 Z" fill="none" stroke="black" stroke-width="1.229126" />
<path d="M113 0 102 13 94 13 91 16 79 13 76 16 73 33 69 39 60 43 70 48 58 48 51 58 42 64 41 73 54 73 39 85 29 101 23 105 23 127 17 134 12 134 6 148 12 206 23 241 23 228 18 222 7 149 12 138 17 136 15 146 18 136 23 132 24 108 41 86 55 75 69 75 58 75 57 69 66 70 60 68 45 73 42 71 44 65 49 63 60 49 72 52 69 49 75 48 67 42 71 40 72 34 75 34 75 22 82 15 88 20 91 18 93 21 96 15 100 14 103 17 101 25 106 39 94 66 98 63 107 40 103 18 115 2 Z" fill="none" stroke="black" stroke-width="6.000000" />

<path d="M0 0 24 0 24 24 0 24 0 0 Z" fill="rgba(0,0,0,0.5)" stroke="none" />
<path d="M24 0 48 0 48 24 24 24 24 0 Z" fill="rgba(0,0,0,0.5)" stroke="none" />
<path d="M48 0 72 0 72 24 48 24 48 0 Z" fill="rgba(0,0,0,0.5)" stroke="none" />
<path d="M72 0 96 0 96 24 72 24 72 0 Z" fill="rgba(0,0,0,0.5)" stroke="none" />
<path d="M96 0 120 0 120 24 96 24 96 0 Z" fill="rgba(0,0,0,0.5)" stroke="none" />
<path d="M120 0 144 0 144 24 120 24 120 0 Z" fill="rgba(0,0,0,0.5)" stroke="none" />
<path d="M144 0 168 0 168 24 144 24 144 0 Z" fill="rgba(0,0,0,0.5)" stroke="none" />
<path d="M168 0 192 0 192 24 168 24 168 0 Z" fill="rgba(88,88,88,0.5)" stroke="none" />
<path d="M192 0 216 0 216 24 192 24 192 0 Z" fill="rgba(109,109,109,0.5)" stroke="none" />
<path d="M216 0 240 0 240 24 216 24 216 0 Z" fill="rgba(54,54,54,0.5)" stroke="none" />
<path d="M240 0 264 0 264 24 240 24 240 0 Z" fill="rgba(39,39,39,0.5)" stroke="none" />
<path d="M264 0 288 0 288 24 264 24 264 0 Z" fill="rgba(92,92,92,0.5)" stroke="none" />
<path d="M288 0 312 0 312 24 288 24 288 0 Z" fill="rgba(90,90,90,0.5)" stroke="none" />
<path d="M312 0 336 0 336 24 312 24 312 0 Z" fill="rgba(91,91,91,0.5)" stroke="none" />
<path d="M336 0 360 0 360 24 336 24 336 0 Z" fill="rgba(50,50,50,0.5)" stroke="none" />
<path d="M360 0 384 0 384 24 360 24 360 0 Z" fill="rgba(6,6,6,0.5)" stroke="none" />
<path d="M384 0 408 0 408 24 384 24 384 0 Z" fill="rgba(0,0,0,0.5)" stroke="none" />
<path d="M408 0 432 0 432 24 408 24 408 0 Z" fill="rgba(0,0,0,0.5)" stroke="none" />
<path d="M432 0 456 0 456 24 432 24 432 0 Z" fill="rgba(0,0,0,0.5)" stroke="none" />
<path d="M456 0 480 0 480 24 456 24 456 0 Z" fill="rgba(0,0,0,0.5)" stroke="none" />
<path d="M0 24 24 24 24 48 0 48 0 24 Z" fill="rgba(0,0,0,0.5)" stroke="none" />
<path d="M24 24 48 24 48 48 24 48 24 24 Z" fill="rgba(0,0,0,0.5)" stroke="none" />
<path d="M48 24 72 24 72 48 48 48 48 24 Z" fill="rgba(0,0,0,0.5)" stroke="none" />
<path d="M72 24 96 24 96 48 72 48 72 24 Z" fill="rgba(0,0,0,0.5)" stroke="none" />
<path d="M96 24 120 24 120 48 96 48 96 24 Z" fill="rgba(0,0,0,0.5)" stroke="none" />
<path d="M120 24 144 24 144 48 120 48 120 24 Z" fill="rgba(0,0,0,0.5)" stroke="none" />
<path d="M144 24 168 24 168 48 144 48 144 24 Z" fill="rgba(33,33,33,0.5)" stroke="none" />
<path d="M168 24 192 24 192 48 168 48 168 24 Z" fill="rgba(95,95,95,0.5)" stroke="none" />
<path d="M192 24 216 24 216 48 192 48 192 24 Z" fill="rgba(98,98,98,0.5)" stroke="none" />
<path d="M216 24 240 24 240 48 216 48 216 24 Z" fill="rgba(54,54,54,0.5)" stroke="none" />
<path d="M240 24 264 24 264 48 240 48 240 24 Z" fill="rgba(34,34,34,0.5)" stroke="none" />
<path d="M264 24 288 24 288 48 264 48 264 24 Z" fill="rgba(107,107,107,0.5)" stroke="none" />
<path d="M288 24 312 24 312 48 288 48 288 24 Z" fill="rgba(95,95,95,0.5)" stroke="none" />
<path d="M312 24 336 24 336 48 312 48 312 24 Z" fill="rgba(48,48,48,0.5)" stroke="none" />
<path d="M336 24 360 24 360 48 336 48 336 24 Z" fill="rgba(36,36,36,0.5)" stroke="none" />
<path d="M360 24 384 24 384 48 360 48 360 24 Z" fill="rgba(17,17,17,0.5)" stroke="none" />
<path d="M384 24 408 24 408 48 384 48 384 24 Z" fill="rgba(0,0,0,0.5)" stroke="none" />
<path d="M408 24 432 24 432 48 408 48 408 24 Z" fill="rgba(0,0,0,0.5)" stroke="none" />
<path d="M432 24 456 24 456 48 432 48 432 24 Z" fill="rgba(0,0,0,0.5)" stroke="none" />
<path d="M456 24 480 24 480 48 456 48 456 24 Z" fill="rgba(0,0,0,0.5)" stroke="none" />
<path d="M0 48 24 48 24 72 0 72 0 48 Z" fill="rgba(0,0,0,0.5)" stroke="none" />
<path d="M24 48 48 48 48 72 24 72 24 48 Z" fill="rgba(0,0,0,0.5)" stroke="none" />
<path d="M48 48 72 48 72 72 48 72 48 48 Z" fill="rgba(0,0,0,0.5)" stroke="none" />
<path d="M72 48 96 48 96 72 72 72 72 48 Z" fill="rgba(0,0,0,0.5)" stroke="none" />
<path d="M96 48 120 48 120 72 96 72 96 48 Z" fill="rgba(1,1,1,0.5)" stroke="none" />
<path d="M120 48 144 48 144 72 120 72 120 48 Z" fill="rgba(37,37,37,0.5)" stroke="none" />
<path d="M144 48 168 48 168 72 144 72 144 48 Z" fill="rgba(54,54,54,0.5)" stroke="none" />
<path d="M168 48 192 48 192 72 168 72 168 48 Z" fill="rgba(119,119,119,0.5)" stroke="none" />
<path d="M192 48 216 48 216 72 192 72 192 48 Z" fill="rgba(128,128,128,0.5)" stroke="none" />
<path d="M216 48 240 48 240 72 216 72 216 48 Z" fill="rgba(141,141,141,0.5)" stroke="none" />
<path d="M240 48 264 48 264 72 240 72 240 48 Z" fill="rgba(112,112,112,0.5)" stroke="none" />
<path d="M264 48 288 48 288 72 264 72 264 48 Z" fill="rgba(65,65,65,0.5)" stroke="none" />
<path d="M288 48 312 48 312 72 288 72 288 48 Z" fill="rgba(46,46,46,0.5)" stroke="none" />
<path d="M312 48 336 48 336 72 312 72 312 48 Z" fill="rgba(61,61,61,0.5)" stroke="none" />
<path d="M336 48 360 48 360 72 336 72 336 48 Z" fill="rgba(76,76,76,0.5)" stroke="none" />
<path d="M360 48 384 48 384 72 360 72 360 48 Z" fill="rgba(60,60,60,0.5)" stroke="none" />
<path d="M384 48 408 48 408 72 384 72 384 48 Z" fill="rgba(22,22,22,0.5)" stroke="none" />
<path d="M408 48 432 48 432 72 408 72 408 48 Z" fill="rgba(0,0,0,0.5)" stroke="none" />
<path d="M432 48 456 48 456 72 432 72 432 48 Z" fill="rgba(0,0,0,0.5)" stroke="none" />
<path d="M456 48 480 48 480 72 456 72 456 48 Z" fill="rgba(0,0,0,0.5)" stroke="none" />
<path d="M0 72 24 72 24 96 0 96 0 72 Z" fill="rgba(0,0,0,0.5)" stroke="none" />
<path d="M24 72 48 72 48 96 24 96 24 72 Z" fill="rgba(0,0,0,0.5)" stroke="none" />
<path d="M48 72 72 72 72 96 48 96 48 72 Z" fill="rgba(0,0,0,0.5)" stroke="none" />
<path d="M72 72 96 72 96 96 72 96 72 72 Z" fill="rgba(0,0,0,0.5)" stroke="none" />
<path d="M96 72 120 72 120 96 96 96 96 72 Z" fill="rgba(60,60,60,0.5)" stroke="none" />
<path d="M120 72 144 72 144 96 120 96 120 72 Z" fill="rgba(103,103,103,0.5)" stroke="none" />
<path d="M144 72 168 72 168 96 144 96 144 72 Z" fill="rgba(135,135,135,0.5)" stroke="none" />
<path d="M168 72 192 72 192 96 168 96 168 72 Z" fill="rgba(170,170,170,0.5)" stroke="none" />
<path d="M192 72 216 72 216 96 192 96 192 72 Z" fill="rgba(183,183,183,0.5)" stroke="none" />
<path d="M216 72 240 72 240 96 216 96 216 72 Z" fill="rgba(194,194,194,0.5)" stroke="none" />
<path d="M240 72 264 72 264 96 240 96 240 72 Z" fill="rgba(194,194,194,0.5)" stroke="none" />
<path d="M264 72 288 72 288 96 264 96 264 72 Z" fill="rgba(183,183,183,0.5)" stroke="none" />
<path d="M288 72 312 72 312 96 288 96 288 72 Z" fill="rgba(172,172,172,0.5)" stroke="none" />
<path d="M312 72 336 72 336 96 312 96 312 72 Z" fill="rgba(140,140,140,0.5)" stroke="none" />
<path d="M336 72 360 72 360 96 336 96 336 72 Z" fill="rgba(81,81,81,0.5)" stroke="none" />
<path d="M360 72 384 72 384 96 360 96 360 72 Z" fill="rgba(46,46,46,0.5)" stroke="none" />
<path d="M384 72 408 72 408 96 384 96 384 72 Z" fill="rgba(19,19,19,0.5)" stroke="none" />
<path d="M408 72 432 72 432 96 408 96 408 72 Z" fill="rgba(0,0,0,0.5)" stroke="none" />
<path d="M432 72 456 72 456 96 432 96 432 72 Z" fill="rgba(0,0,0,0.5)" stroke="none" />
<path d="M456 72 480 72 480 96 456 96 456 72 Z" fill="rgba(0,0,0,0.5)" stroke="none" />
<path d="M0 96 24 96 24 120 0 120 0 96 Z" fill="rgba(0,0,0,0.5)" stroke="none" />
<path d="M24 96 48 96 48 120 24 120 24 96 Z" fill="rgba(0,0,0,0.5)" stroke="none" />
<path d="M48 96 72 96 72 120 48 120 48 96 Z" fill="rgba(0,0,0,0.5)" stroke="none" />
<path d="M72 96 96 96 96 120 72 120 72 96 Z" fill="rgba(0,0,0,0.5)" stroke="none" />
<path d="M96 96 120 96 120 120 96 120 96 96 Z" fill="rgba(57,57,57,0.5)" stroke="none" />
<path d="M120 96 144 96 144 120 120 120 120 96 Z" fill="rgba(131,131,131,0.5)" stroke="none" />
<path d="M144 96 168 96 168 120 144 120 144 96 Z" fill="rgba(164,164,164,0.5)" stroke="none" />
<path d="M168 96 192 96 192 120 168 120 168 96 Z" fill="rgba(193,193,193,0.5)" stroke="none" />
<path d="M192 96 216 96 216 120 192 120 192 96 Z" fill="rgba(206,206,206,0.5)" stroke="none" />
<path d="M216 96 240 96 240 120 216 120 216 96 Z" fill="rgba(210,210,210,0.5)" stroke="none" />
<path d="M240 96 264 96 264 120 240 120 240 96 Z" fill="rgba(209,209,209,0.5)" stroke="none" />
<path d="M264 96 288 96 288 120 264 120 264 96 Z" fill="rgba(209,209,209,0.5)" stroke="none" />
<path d="M288 96 312 96 312 120 288 120 288 96 Z" fill="rgba(201,201,201,0.5)" stroke="none" />
<path d="M312 96 336 96 336 120 312 120 312 96 Z" fill="rgba(175,175,175,0.5)" stroke="none" />
<path d="M336 96 360 96 360 120 336 120 336 96 Z" fill="rgba(128,128,128,0.5)" stroke="none" />
<path d="M360 96 384 96 384 120 360 120 360 96 Z" fill="rgba(67,67,67,0.5)" stroke="none" />
<path d="M384 96 408 96 408 120 384 120 384 96 Z" fill="rgba(14,14,14,0.5)" stroke="none" />
<path d="M408 96 432 96 432 120 408 120 408 96 Z" fill="rgba(0,0,0,0.5)" stroke="none" />
<path d="M432 96 456 96 456 120 432 120 432 96 Z" fill="rgba(0,0,0,0.5)" stroke="none" />
<path d="M456 96 480 96 480 120 456 120 456 96 Z" fill="rgba(0,0,0,0.5)" stroke="none" />
<path d="M0 120 24 120 24 144 0 144 0 120 Z" fill="rgba(0,0,0,0.5)" stroke="none" />
<path d="M24 120 48 120 48 144 24 144 24 120 Z" fill="rgba(0,0,0,0.5)" stroke="none" />
<path d="M48 120 72 120 72 144 48 144 48 120 Z" fill="rgba(0,0,0,0.5)" stroke="none" />
<path d="M72 120 96 120 96 144 72 144 72 120 Z" fill="rgba(40,40,40,0.5)" stroke="none" />
<path d="M96 120 120 120 120 144 96 144 96 120 Z" fill="rgba(65,65,65,0.5)" stroke="none" />
<path d="M120 120 144 120 144 144 120 144 120 120 Z" fill="rgba(129,129,129,0.5)" stroke="none" />
<path d="M144 120 168 120 168 144 144 144 144 120 Z" fill="rgba(167,167,167,0.5)" stroke="none" />
<path d="M168 120 192 120 192 144 168 144 168 120 Z" fill="rgba(198,198,198,0.5)" stroke="none" />
<path d="M192 120 216 120 216 144 192 144 192 120 Z" fill="rgba(214,214,214,0.5)" stroke="none" />
<path d="M216 120 240 120 240 144 216 144 216 120 Z" fill="rgba(217,217,217,0.5)" stroke="none" />
<path d="M240 120 264 120 264 144 240 144 240 120 Z" fill="rgba(215,215,215,0.5)" stroke="none" />
<path d="M264 120 288 120 288 144 264 144 264 120 Z" fill="rgba(214,214,214,0.5)" stroke="none" />
<path d="M288 120 312 120 312 144 288 144 288 120 Z" fill="rgba(206,206,206,0.5)" stroke="none" />
<path d="M312 120 336 120 336 144 312 144 312 120 Z" fill="rgba(180,180,180,0.5)" stroke="none" />
<path d="M336 120 360 120 360 144 336 144 336 120 Z" fill="rgba(143,143,143,0.5)" stroke="none" />
<path d="M360 120 384 120 384 144 360 144 360 120 Z" fill="rgba(85,85,85,0.5)" stroke="none" />
<path d="M384 120 408 120 408 144 384 144 384 120 Z" fill="rgba(22,22,22,0.5)" stroke="none" />
<path d="M408 120 432 120 432 144 408 144 408 120 Z" fill="rgba(0,0,0,0.5)" stroke="none" />
<path d="M432 120 456 120 456 144 432 144 432 120 Z" fill="rgba(0,0,0,0.5)" stroke="none" />
<path d="M456 120 480 120 480 144 456 144 456 120 Z" fill="rgba(0,0,0,0.5)" stroke="none" />
<path d="M0 144 24 144 24 168 0 168 0 144 Z" fill="rgba(0,0,0,0.5)" stroke="none" />
<path d="M24 144 48 144 48 168 24 168 24 144 Z" fill="rgba(0,0,0,0.5)" stroke="none" />
<path d="M48 144 72 144 72 168 48 168 48 144 Z" fill="rgba(0,0,0,0.5)" stroke="none" />
<path d="M72 144 96 144 96 168 72 168 72 144 Z" fill="rgba(37,37,37,0.5)" stroke="none" />
<path d="M96 144 120 144 120 168 96 168 96 144 Z" fill="rgba(64,64,64,0.5)" stroke="none" />
<path d="M120 144 144 144 144 168 120 168 120 144 Z" fill="rgba(121,121,121,0.5)" stroke="none" />
<path d="M144 144 168 144 168 168 144 168 144 144 Z" fill="rgba(168,168,168,0.5)" stroke="none" />
<path d="M168 144 192 144 192 168 168 168 168 144 Z" fill="rgba(198,198,198,0.5)" stroke="none" />
<path d="M192 144 216 144 216 168 192 168 192 144 Z" fill="rgba(218,218,218,0.5)" stroke="none" />
<path d="M216 144 240 144 240 168 216 168 216 144 Z" fill="rgba(228,228,228,0.5)" stroke="none" />
<path d="M240 144 264 144 264 168 240 168 240 144 Z" fill="rgba(230,230,230,0.5)" stroke="none" />
<path d="M264 144 288 144 288 168 264 168 264 144 Z" fill="rgba(223,223,223,0.5)" stroke="none" />
<path d="M288 144 312 144 312 168 288 168 288 144 Z" fill="rgba(214,214,214,0.5)" stroke="none" />
<path d="M312 144 336 144 336 168 312 168 312 144 Z" fill="rgba(189,189,189,0.5)" stroke="none" />
<path d="M336 144 360 144 360 168 336 168 336 144 Z" fill="rgba(145,145,145,0.5)" stroke="none" />
<path d="M360 144 384 144 384 168 360 168 360 144 Z" fill="rgba(96,96,96,0.5)" stroke="none" />
<path d="M384 144 408 144 408 168 384 168 384 144 Z" fill="rgba(34,34,34,0.5)" stroke="none" />
<path d="M408 144 432 144 432 168 408 168 408 144 Z" fill="rgba(0,0,0,0.5)" stroke="none" />
<path d="M432 144 456 144 456 168 432 168 432 144 Z" fill="rgba(0,0,0,0.5)" stroke="none" />
<path d="M456 144 480 144 480 168 456 168 456 144 Z" fill="rgba(0,0,0,0.5)" stroke="none" />
<path d="M0 168 24 168 24 192 0 192 0 168 Z" fill="rgba(0,0,0,0.5)" stroke="none" />
<path d="M24 168 48 168 48 192 24 192 24 168 Z" fill="rgba(0,0,0,0.5)" stroke="none" />
<path d="M48 168 72 168 72 192 48 192 48 168 Z" fill="rgba(0,0,0,0.5)" stroke="none" />
<path d="M72 168 96 168 96 192 72 192 72 168 Z" fill="rgba(32,32,32,0.5)" stroke="none" />
<path d="M96 168 120 168 120 192 96 192 96 168 Z" fill="rgba(71,71,71,0.5)" stroke="none" />
<path d="M120 168 144 168 144 192 120 192 120 168 Z" fill="rgba(74,74,74,0.5)" stroke="none" />
<path d="M144 168 168 168 168 192 144 192 144 168 Z" fill="rgba(116,116,116,0.5)" stroke="none" />
<path d="M168 168 192 168 192 192 168 192 168 168 Z" fill="rgba(106,106,106,0.5)" stroke="none" />
<path d="M192 168 216 168 216 192 192 192 192 168 Z" fill="rgba(127,127,127,0.5)" stroke="none" />
<path d="M216 168 240 168 240 192 216 192 216 168 Z" fill="rgba(176,176,176,0.5)" stroke="none" />
<path d="M240 168 264 168 264 192 240 192 240 168 Z" fill="rgba(188,188,188,0.5)" stroke="none" />
<path d="M264 168 288 168 288 192 264 192 264 168 Z" fill="rgba(135,135,135,0.5)" stroke="none" />
<path d="M288 168 312 168 312 192 288 192 288 168 Z" fill="rgba(101,101,101,0.5)" stroke="none" />
<path d="M312 168 336 168 336 192 312 192 312 168 Z" fill="rgba(98,98,98,0.5)" stroke="none" />
<path d="M336 168 360 168 360 192 336 192 336 168 Z" fill="rgba(95,95,95,0.5)" stroke="none" />
<path d="M360 168 384 168 384 192 360 192 360 168 Z" fill="rgba(77,77,77,0.5)" stroke="none" />
<path d="M384 168 408 168 408 192 384 192 384 168 Z" fill="rgba(31,31,31,0.5)" stroke="none" />
<path d="M408 168 432 168 432 192 408 192 408 168 Z" fill="rgba(0,0,0,0.5)" stroke="none" />
<path d="M432 168 456 168 456 192 432 192 432 168 Z" fill="rgba(0,0,0,0.5)" stroke="none" />
<path d="M456 168 480 168 480 192 456 192 456 168 Z" fill="rgba(0,0,0,0.5)" stroke="none" />
<path d="M0 192 24 192 24 216 0 216 0 192 Z" fill="rgba(0,0,0,0.5)" stroke="none" />
<path d="M24 192 48 192 48 216 24 216 24 192 Z" fill="rgba(0,0,0,0.5)" stroke="none" />
<path d="M48 192 72 192 72 216 48 216 48 192 Z" fill="rgba(0,0,0,0.5)" stroke="none" />
<path d="M72 192 96 192 96 216 72 216 72 192 Z" fill="rgba(31,31,31,0.5)" stroke="none" />
<path d="M96 192 120 192 120 216 96 216 96 192 Z" fill="rgba(77,77,77,0.5)" stroke="none" />
<path d="M120 192 144 192 144 216 120 216 120 192 Z" fill="rgba(94,94,94,0.5)" stroke="none" />
<path d="M144 192 168 192 168 216 144 216 144 192 Z" fill="rgba(118,118,118,0.5)" stroke="none" />
<path d="M168 192 192 192 192 216 168 216 168 192 Z" fill="rgba(65,65,65,0.5)" stroke="none" />
<path d="M192 192 216 192 216 216 192 216 192 192 Z" fill="rgba(131,131,131,0.5)" stroke="none" />
<path d="M216 192 240 192 240 216 216 216 216 192 Z" fill="rgba(169,169,169,0.5)" stroke="none" />
<path d="M240 192 264 192 264 216 240 216 240 192 Z" fill="rgba(166,166,166,0.5)" stroke="none" />
<path d="M264 192 288 192 288 216 264 216 264 192 Z" fill="rgba(155,155,155,0.5)" stroke="none" />
<path d="M288 192 312 192 312 216 288 216 288 192 Z" fill="rgba(112,112,112,0.5)" stroke="none" />
<path d="M312 192 336 192 336 216 312 216 312 192 Z" fill="rgba(92,92,92,0.5)" stroke="none" />
<path d="M336 192 360 192 360 216 336 216 336 192 Z" fill="rgba(83,83,83,0.5)" stroke="none" />
<path d="M360 192 384 192 384 216 360 216 360 192 Z" fill="rgba(60,60,60,0.5)" stroke="none" />
<path d="M384 192 408 192 408 216 384 216 384 192 Z" fill="rgba(23,23,23,0.5)" stroke="none" />
<path d="M408 192 432 192 432 216 408 216 408 192 Z" fill="rgba(0,0,0,0.5)" stroke="none" />
<path d="M432 192 456 192 456 216 432 216 432 192 Z" fill="rgba(0,0,0,0.5)" stroke="none" />
<path d="M456 192 480 192 480 216 456 216 456 192 Z" fill="rgba(0,0,0,0.5)" stroke="none" />
<path d="M0 216 24 216 24 240 0 240 0 216 Z" fill="rgba(0,0,0,0.5)" stroke="none" />
<path d="M24 216 48 216 48 240 24 240 24 216 Z" fill="rgba(0,0,0,0.5)" stroke="none" />
<path d="M48 216 72 216 72 240 48 240 48 216 Z" fill="rgba(0,0,0,0.5)" stroke="none" />
<path d="M72 216 96 216 96 240 72 240 72 216 Z" fill="rgba(10,10,10,0.5)" stroke="none" />
<path d="M96 216 120 216 120 240 96 240 96 216 Z" fill="rgba(93,93,93,0.5)" stroke="none" />
<path d="M120 216 144 216 144 240 120 240 120 216 Z" fill="rgba(133,133,133,0.5)" stroke="none" />
<path d="M144 216 168 216 168 240 144 240 144 216 Z" fill="rgba(134,134,134,0.5)" stroke="none" />
<path d="M168 216 192 216 192 240 168 240 168 216 Z" fill="rgba(137,137,137,0.5)" stroke="none" />
<path d="M192 216 216 216 216 240 192 240 192 216 Z" fill="rgba(168,168,168,0.5)" stroke="none" />
<path d="M216 216 240 216 240 240 216 240 216 216 Z" fill="rgba(168,168,168,0.5)" stroke="none" />
<path d="M240 216 264 216 264 240 240 240 240 216 Z" fill="rgba(163,163,163,0.5)" stroke="none" />
<path d="M264 216 288 216 288 240 264 240 264 216 Z" fill="rgba(174,174,174,0.5)" stroke="none" />
<path d="M288 216 312 216 312 240 288 240 288 216 Z" fill="rgba(158,158,158,0.5)" stroke="none" />
<path d="M312 216 336 216 336 240 312 240 312 216 Z" fill="rgba(132,132,132,0.5)" stroke="none" />
<path d="M336 216 360 216 360 240 336 240 336 216 Z" fill="rgba(125,125,125,0.5)" stroke="none" />
<path d="M360 216 384 216 384 240 360 240 360 216 Z" fill="rgba(84,84,84,0.5)" stroke="none" />
<path d="M384 216 408 216 408 240 384 240 384 216 Z" fill="rgba(21,21,21,0.5)" stroke="none" />
<path d="M408 216 432 216 432 240 408 240 408 216 Z" fill="rgba(0,0,0,0.5)" stroke="none" />
<path d="M432 216 456 216 456 240 432 240 432 216 Z" fill="rgba(0,0,0,0.5)" stroke="none" />
<path d="M456 216 480 216 480 240 456 240 456 216 Z" fill="rgba(0,0,0,0.5)" stroke="none" />
<path d="M0 240 24 240 24 264 0 264 0 240 Z" fill="rgba(0,0,0,0.5)" stroke="none" />
<path d="M24 240 48 240 48 264 24 264 24 240 Z" fill="rgba(0,0,0,0.5)" stroke="none" />
<path d="M48 240 72 240 72 264 48 264 48 240 Z" fill="rgba(0,0,0,0.5)" stroke="none" />
<path d="M72 240 96 240 96 264 72 264 72 240 Z" fill="rgba(25,25,25,0.5)" stroke="none" />
<path d="M96 240 120 240 120 264 96 264 96 240 Z" fill="rgba(100,100,100,0.5)" stroke="none" />
<path d="M120 240 144 240 144 264 120 264 120 240 Z" fill="rgba(162,162,162,0.5)" stroke="none" />
<path d="M144 240 168 240 168 264 144 264 144 240 Z" fill="rgba(179,179,179,0.5)" stroke="none" />
<path d="M168 240 192 240 192 264 168 264 168 240 Z" fill="rgba(195,195,195,0.5)" stroke="none" />
<path d="M192 240 216 240 216 264 192 264 192 240 Z" fill="rgba(177,177,177,0.5)" stroke="none" />
<path d="M216 240 240 240 240 264 216 264 216 240 Z" fill="rgba(165,165,165,0.5)" stroke="none" />
<path d="M240 240 264 240 264 264 240 264 240 240 Z" fill="rgba(181,181,181,0.5)" stroke="none" />
<path d="M264 240 288 240 288 264 264 264 264 240 Z" fill="rgba(183,183,183,0.5)" stroke="none" />
<path d="M288 240 312 240 312 264 288 264 288 240 Z" fill="rgba(189,189,189,0.5)" stroke="none" />
<path d="M312 240 336 240 336 264 312 264 312 240 Z" fill="rgba(186,186,186,0.5)" stroke="none" />
<path d="M336 240 360 240 360 264 336 264 336 240 Z" fill="rgba(173,173,173,0.5)" stroke="none" />
<path d="M360 240 384 240 384 264 360 264 360 240 Z" fill="rgba(106,106,106,0.5)" stroke="none" />
<path d="M384 240 408 240 408 264 384 264 384 240 Z" fill="rgba(65,65,65,0.5)" stroke="none" />
<path d="M408 240 432 240 432 264 408 264 408 240 Z" fill="rgba(42,42,42,0.5)" stroke="none" />
<path d="M432 240 456 240 456 264 432 264 432 240 Z" fill="rgba(0,0,0,0.5)" stroke="none" />
<path d="M456 240 480 240 480 264 456 264 456 240 Z" fill="rgba(0,0,0,0.5)" stroke="none" />
<path d="M0 264 24 264 24 288 0 288 0 264 Z" fill="rgba(0,0,0,0.5)" stroke="none" />
<path d="M24 264 48 264 48 288 24 288 24 264 Z" fill="rgba(0,0,0,0.5)" stroke="none" />
<path d="M48 264 72 264 72 288 48 288 48 264 Z" fill="rgba(0,0,0,0.5)" stroke="none" />
<path d="M72 264 96 264 96 288 72 288 72 264 Z" fill="rgba(102,102,102,0.5)" stroke="none" />
<path d="M96 264 120 264 120 288 96 288 96 264 Z" fill="rgba(91,91,91,0.5)" stroke="none" />
<path d="M120 264 144 264 144 288 120 288 120 264 Z" fill="rgba(161,161,161,0.5)" stroke="none" />
<path d="M144 264 168 264 168 288 144 288 144 264 Z" fill="rgba(201,201,201,0.5)" stroke="none" />
<path d="M168 264 192 264 192 288 168 288 168 264 Z" fill="rgba(212,212,212,0.5)" stroke="none" />
<path d="M192 264 216 264 216 288 192 288 192 264 Z" fill="rgba(170,170,170,0.5)" stroke="none" />
<path d="M216 264 240 264 240 288 216 288 216 264 Z" fill="rgba(136,136,136,0.5)" stroke="none" />
<path d="M240 264 264 264 264 288 240 288 240 264 Z" fill="rgba(150,150,150,0.5)" stroke="none" />
<path d="M264 264 288 264 288 288 264 288 264 264 Z" fill="rgba(172,172,172,0.5)" stroke="none" />
<path d="M288 264 312 264 312 288 288 288 288 264 Z" fill="rgba(199,199,199,0.5)" stroke="none" />
<path d="M312 264 336 264 336 288 312 288 312 264 Z" fill="rgba(209,209,209,0.5)" stroke="none" />
<path d="M336 264 360 264 360 288 336 288 336 264 Z" fill="rgba(174,174,174,0.5)" stroke="none" />
<path d="M360 264 384 264 384 288 360 288 360 264 Z" fill="rgba(104,104,104,0.5)" stroke="none" />
<path d="M384 264 408 264 408 288 384 288 384 264 Z" fill="rgba(52,52,52,0.5)" stroke="none" />
<path d="M408 264 432 264 432 288 408 288 408 264 Z" fill="rgba(24,24,24,0.5)" stroke="none" />
<path d="M432 264 456 264 456 288 432 288 432 264 Z" fill="rgba(0,0,0,0.5)" stroke="none" />
<path d="M456 264 480 264 480 288 456 288 456 264 Z" fill="rgba(0,0,0,0.5)" stroke="none" />
<path d="M0 288 24 288 24 312 0 312 0 288 Z" fill="rgba(0,0,0,0.5)" stroke="none" />
<path d="M24 288 48 288 48 312 24 312 24 288 Z" fill="rgba(0,0,0,0.5)" stroke="none" />
<path d="M48 288 72 288 72 312 48 312 48 288 Z" fill="rgba(0,0,0,0.5)" stroke="none" />
<path d="M72 288 96 288 96 312 72 312 72 288 Z" fill="rgba(130,130,130,0.5)" stroke="none" />
<path d="M96 288 120 288 120 312 96 312 96 288 Z" fill="rgba(82,82,82,0.5)" stroke="none" />
<path d="M120 288 144 288 144 312 120 312 120 288 Z" fill="rgba(142,142,142,0.5)" stroke="none" />
<path d="M144 288 168 288 168 312 144 312 144 288 Z" fill="rgba(194,194,194,0.5)" stroke="none" />
<path d="M168 288 192 288 192 312 168 312 168 288 Z" fill="rgba(212,212,212,0.5)" stroke="none" />
<path d="M192 288 216 288 216 312 192 312 192 288 Z" fill="rgba(173,173,173,0.5)" stroke="none" />
<path d="M216 288 240 288 240 312 216 312 216 288 Z" fill="rgba(144,144,144,0.5)" stroke="none" />
<path d="M240 288 264 288 264 312 240 312 240 288 Z" fill="rgba(140,140,140,0.5)" stroke="none" />
<path d="M264 288 288 288 288 312 264 312 264 288 Z" fill="rgba(161,161,161,0.5)" stroke="none" />
<path d="M288 288 312 288 312 312 288 312 288 288 Z" fill="rgba(195,195,195,0.5)" stroke="none" />
<path d="M312 288 336 288 336 312 312 312 312 288 Z" fill="rgba(207,207,207,0.5)" stroke="none" />
<path d="M336 288 360 288 360 312 336 312 336 288 Z" fill="rgba(160,160,160,0.5)" stroke="none" />
<path d="M360 288 384 288 384 312 360 312 360 288 Z" fill="rgba(103,103,103,0.5)" stroke="none" />
<path d="M384 288 408 288 408 312 384 312 384 288 Z" fill="rgba(40,40,40,0.5)" stroke="none" />
<path d="M408 288 432 288 432 312 408 312 408 288 Z" fill="rgba(2,2,2,0.5)" stroke="none" />
<path d="M432 288 456 288 456 312 432 312 432 288 Z" fill="rgba(0,0,0,0.5)" stroke="none" />
<path d="M456 288 480 288 480 312 456 312 456 288 Z" fill="rgba(0,0,0,0.5)" stroke="none" />
<path d="M0 312 24 312 24 336 0 336 0 312 Z" fill="rgba(0,0,0,0.5)" stroke="none" />
<path d="M24 312 48 312 48 336 24 336 24 312 Z" fill="rgba(0,0,0,0.5)" stroke="none" />
<path d="M48 312 72 312 72 336 48 336 48 312 Z" fill="rgba(0,0,0,0.5)" stroke="none" />
<path d="M72 312 96 312 96 336 72 336 72 312 Z" fill="rgba(53,53,53,0.5)" stroke="none" />
<path d="M96 312 120 312 120 336 96 336 96 312 Z" fill="rgba(45,45,45,0.5)" stroke="none" />
<path d="M120 312 144 312 144 336 120 336 120 312 Z" fill="rgba(112,112,112,0.5)" stroke="none" />
<path d="M144 312 168 312 168 336 144 336 144 312 Z" fill="rgba(174,174,174,0.5)" stroke="none" />
<path d="M168 312 192 312 192 336 168 336 168 312 Z" fill="rgba(187,187,187,0.5)" stroke="none" />
<path d="M192 312 216 312 216 336 192 336 192 312 Z" fill="rgba(167,167,167,0.5)" stroke="none" />
<path d="M216 312 240 312 240 336 216 336 216 312 Z" fill="rgba(175,175,175,0.5)" stroke="none" />
<path d="M240 312 264 312 264 336 240 336 240 312 Z" fill="rgba(176,176,176,0.5)" stroke="none" />
<path d="M264 312 288 312 288 336 264 336 264 312 Z" fill="rgba(170,170,170,0.5)" stroke="none" />
<path d="M288 312 312 312 312 336 288 336 288 312 Z" fill="rgba(177,177,177,0.5)" stroke="none" />
<path d="M312 312 336 312 336 336 312 336 312 312 Z" fill="rgba(186,186,186,0.5)" stroke="none" />
<path d="M336 312 360 312 360 336 336 336 336 312 Z" fill="rgba(137,137,137,0.5)" stroke="none" />
<path d="M360 312 384 312 384 336 360 336 360 312 Z" fill="rgba(102,102,102,0.5)" stroke="none" />
<path d="M384 312 408 312 408 336 384 336 384 312 Z" fill="rgba(52,52,52,0.5)" stroke="none" />
<path d="M408 312 432 312 432 336 408 336 408 312 Z" fill="rgba(0,0,0,0.5)" stroke="none" />
<path d="M432 312 456 312 456 336 432 336 432 312 Z" fill="rgba(0,0,0,0.5)" stroke="none" />
<path d="M456 312 480 312 480 336 456 336 456 312 Z" fill="rgba(0,0,0,0.5)" stroke="none" />
<path d="M0 336 24 336 24 360 0 360 0 336 Z" fill="rgba(0,0,0,0.5)" stroke="none" />
<path d="M24 336 48 336 48 360 24 360 24 336 Z" fill="rgba(0,0,0,0.5)" stroke="none" />
<path d="M48 336 72 336 72 360 48 360 48 336 Z" fill="rgba(0,0,0,0.5)" stroke="none" />
<path d="M72 336 96 336 96 360 72 360 72 336 Z" fill="rgba(0,0,0,0.5)" stroke="none" />
<path d="M96 336 120 336 120 360 96 360 96 336 Z" fill="rgba(9,9,9,0.5)" stroke="none" />
<path d="M120 336 144 336 144 360 120 360 120 336 Z" fill="rgba(84,84,84,0.5)" stroke="none" />
<path d="M144 336 168 336 168 360 144 360 144 336 Z" fill="rgba(155,155,155,0.5)" stroke="none" />
<path d="M168 336 192 336 192 360 168 360 168 336 Z" fill="rgba(166,166,166,0.5)" stroke="none" />
<path d="M192 336 216 336 216 360 192 360 192 336 Z" fill="rgba(150,150,150,0.5)" stroke="none" />
<path d="M216 336 240 336 240 360 216 360 216 336 Z" fill="rgba(172,172,172,0.5)" stroke="none" />
<path d="M240 336 264 336 264 360 240 360 240 336 Z" fill="rgba(187,187,187,0.5)" stroke="none" />
<path d="M264 336 288 336 288 360 264 360 264 336 Z" fill="rgba(162,162,162,0.5)" stroke="none" />
<path d="M288 336 312 336 312 360 288 360 288 336 Z" fill="rgba(162,162,162,0.5)" stroke="none" />
<path d="M312 336 336 336 336 360 312 360 312 336 Z" fill="rgba(161,161,161,0.5)" stroke="none" />
<path d="M336 336 360 336 360 360 336 360 336 336 Z" fill="rgba(113,113,113,0.5)" stroke="none" />
<path d="M360 336 384 336 384 360 360 360 360 336 Z" fill="rgba(66,66,66,0.5)" stroke="none" />
<path d="M384 336 408 336 408 360 384 360 384 336 Z" fill="rgba(23,23,23,0.5)" stroke="none" />
<path d="M408 336 432 336 432 360 408 360 408 336 Z" fill="rgba(0,0,0,0.5)" stroke="none" />
<path d="M432 336 456 336 456 360 432 360 432 336 Z" fill="rgba(0,0,0,0.5)" stroke="none" />
<path d="M456 336 480 336 480 360 456 360 456 336 Z" fill="rgba(0,0,0,0.5)" stroke="none" />
<path d="M0 360 24 360 24 384 0 384 0 360 Z" fill="rgba(0,0,0,0.5)" stroke="none" />
<path d="M24 360 48 360 48 384 24 384 24 360 Z" fill="rgba(0,0,0,0.5)" stroke="none" />
<path d="M48 360 72 360 72 384 48 384 48 360 Z" fill="rgba(0,0,0,0.5)" stroke="none" />
<path d="M72 360 96 360 96 384 72 384 72 360 Z" fill="rgba(0,0,0,0.5)" stroke="none" />
<path d="M96 360 120 360 120 384 96 384 96 360 Z" fill="rgba(0,0,0,0.5)" stroke="none" />
<path d="M120 360 144 360 144 384 120 384 120 360 Z" fill="rgba(56,56,56,0.5)" stroke="none" />
<path d="M144 360 168 360 168 384 144 384 144 360 Z" fill="rgba(123,123,123,0.5)" stroke="none" />
<path d="M168 360 192 360 192 384 168 384 168 360 Z" fill="rgba(167,167,167,0.5)" stroke="none" />
<path d="M192 360 216 360 216 384 192 384 192 360 Z" fill="rgba(156,156,156,0.5)" stroke="none" />
<path d="M216 360 240 360 240 384 216 384 216 360 Z" fill="rgba(154,154,154,0.5)" stroke="none" />
<path d="M240 360 264 360 264 384 240 384 240 360 Z" fill="rgba(160,160,160,0.5)" stroke="none" />
<path d="M264 360 288 360 288 384 264 384 264 360 Z" fill="rgba(153,153,153,0.5)" stroke="none" />
<path d="M288 360 312 360 312 384 288 384 288 360 Z" fill="rgba(163,163,163,0.5)" stroke="none" />
<path d="M312 360 336 360 336 384 312 384 312 360 Z" fill="rgba(151,151,151,0.5)" stroke="none" />
<path d="M336 360 360 360 360 384 336 384 336 360 Z" fill="rgba(91,91,91,0.5)" stroke="none" />
<path d="M360 360 384 360 384 384 360 384 360 360 Z" fill="rgba(29,29,29,0.5)" stroke="none" />
<path d="M384 360 408 360 408 384 384 384 384 360 Z" fill="rgba(0,0,0,0.5)" stroke="none" />
<path d="M408 360 432 360 432 384 408 384 408 360 Z" fill="rgba(0,0,0,0.5)" stroke="none" />
<path d="M432 360 456 360 456 384 432 384 432 360 Z" fill="rgba(0,0,0,0.5)" stroke="none" />
<path d="M456 360 480 360 480 384 456 384 456 360 Z" fill="rgba(0,0,0,0.5)" stroke="none" />
<path d="M0 384 24 384 24 408 0 408 0 384 Z" fill="rgba(0,0,0,0.5)" stroke="none" />
<path d="M24 384 48 384 48 408 24 408 24 384 Z" fill="rgba(0,0,0,0.5)" stroke="none" />
<path d="M48 384 72 384 72 408 48 408 48 384 Z" fill="rgba(0,0,0,0.5)" stroke="none" />
<path d="M72 384 96 384 96 408 72 408 72 384 Z" fill="rgba(0,0,0,0.5)" stroke="none" />
<path d="M96 384 120 384 120 408 96 408 96 384 Z" fill="rgba(0,0,0,0.5)" stroke="none" />
<path d="M120 384 144 384 144 408 120 408 120 384 Z" fill="rgba(19,19,19,0.5)" stroke="none" />
<path d="M144 384 168 384 168 408 144 408 144 384 Z" fill="rgba(81,81,81,0.5)" stroke="none" />
<path d="M168 384 192 384 192 408 168 408 168 384 Z" fill="rgba(143,143,143,0.5)" stroke="none" />
<path d="M192 384 216 384 216 408 192 408 192 384 Z" fill="rgba(175,175,175,0.5)" stroke="none" />
<path d="M216 384 240 384 240 408 216 408 216 384 Z" fill="rgba(166,166,166,0.5)" stroke="none" />
<path d="M240 384 264 384 264 408 240 408 240 384 Z" fill="rgba(158,158,158,0.5)" stroke="none" />
<path d="M264 384 288 384 288 408 264 408 264 384 Z" fill="rgba(174,174,174,0.5)" stroke="none" />
<path d="M288 384 312 384 312 408 288 408 288 384 Z" fill="rgba(150,150,150,0.5)" stroke="none" />
<path d="M312 384 336 384 336 408 312 408 312 384 Z" fill="rgba(106,106,106,0.5)" stroke="none" />
<path d="M336 384 360 384 360 408 336 408 336 384 Z" fill="rgba(48,48,48,0.5)" stroke="none" />
<path d="M360 384 384 384 384 408 360 408 360 384 Z" fill="rgba(9,9,9,0.5)" stroke="none" />
<path d="M384 384 408 384 408 408 384 408 384 384 Z" fill="rgba(0,0,0,0.5)" stroke="none" />
<path d="M408 384 432 384 432 408 408 408 408 384 Z" fill="rgba(0,0,0,0.5)" stroke="none" />
<path d="M432 384 456 384 456 408 432 408 432 384 Z" fill="rgba(0,0,0,0.5)" stroke="none" />
<path d="M456 384 480 384 480 408 456 408 456 384 Z" fill="rgba(0,0,0,0.5)" stroke="none" />
<path d="M0 408 24 408 24 432 0 432 0 408 Z" fill="rgba(0,0,0,0.5)" stroke="none" />
<path d="M24 408 48 408 48 432 24 432 24 408 Z" fill="rgba(0,0,0,0.5)" stroke="none" />
<path d="M48 408 72 408 72 432 48 432 48 408 Z" fill="rgba(0,0,0,0.5)" stroke="none" />
<path d="M72 408 96 408 96 432 72 432 72 408 Z" fill="rgba(0,0,0,0.5)" stroke="none" />
<path d="M96 408 120 408 120 432 96 432 96 408 Z" fill="rgba(0,0,0,0.5)" stroke="none" />
<path d="M120 408 144 408 144 432 120 432 120 408 Z" fill="rgba(0,0,0,0.5)" stroke="none" />
<path d="M144 408 168 408 168 432 144 432 144 408 Z" fill="rgba(43,43,43,0.5)" stroke="none" />
<path d="M168 408 192 408 192 432 168 432 168 408 Z" fill="rgba(71,71,71,0.5)" stroke="none" />
<path d="M192 408 216 408 216 432 192 432 192 408 Z" fill="rgba(133,133,133,0.5)" stroke="none" />
<path d="M216 408 240 408 240 432 216 432 216 408 Z" fill="rgba(145,145,145,0.5)" stroke="none" />
<path d="M240 408 264 408 264 432 240 432 240 408 Z" fill="rgba(145,145,145,0.5)" stroke="none" />
<path d="M264 408 288 408 288 432 264 432 264 408 Z" fill="rgba(153,153,153,0.5)" stroke="none" />
<path d="M288 408 312 408 312 432 288 432 288 408 Z" fill="rgba(103,103,103,0.5)" stroke="none" />
<path d="M312 408 336 408 336 432 312 432 312 408 Z" fill="rgba(48,48,48,0.5)" stroke="none" />
<path d="M336 408 360 408 360 432 336 432 336 408 Z" fill="rgba(15,15,15,0.5)" stroke="none" />
<path d="M360 408 384 408 384 432 360 432 360 408 Z" fill="rgba(0,0,0,0.5)" stroke="none" />
<path d="M384 408 408 408 408 432 384 432 384 408 Z" fill="rgba(0,0,0,0.5)" stroke="none" />
<path d="M408 408 432 408 432 432 408 432 408 408 Z" fill="rgba(0,0,0,0.5)" stroke="none" />
<path d="M432 408 456 408 456 432 432 432 432 408 Z" fill="rgba(0,0,0,0.5)" stroke="none" />
<path d="M456 408 480 408 480 432 456 432 456 408 Z" fill="rgba(0,0,0,0.5)" stroke="none" />
<path d="M0 432 24 432 24 456 0 456 0 432 Z" fill="rgba(0,0,0,0.5)" stroke="none" />
<path d="M24 432 48 432 48 456 24 456 24 432 Z" fill="rgba(0,0,0,0.5)" stroke="none" />
<path d="M48 432 72 432 72 456 48 456 48 432 Z" fill="rgba(0,0,0,0.5)" stroke="none" />
<path d="M72 432 96 432 96 456 72 456 72 432 Z" fill="rgba(0,0,0,0.5)" stroke="none" />
<path d="M96 432 120 432 120 456 96 456 96 432 Z" fill="rgba(0,0,0,0.5)" stroke="none" />
<path d="M120 432 144 432 144 456 120 456 120 432 Z" fill="rgba(0,0,0,0.5)" stroke="none" />
<path d="M144 432 168 432 168 456 144 456 144 432 Z" fill="rgba(40,40,40,0.5)" stroke="none" />
<path d="M168 432 192 432 192 456 168 456 168 432 Z" fill="rgba(39,39,39,0.5)" stroke="none" />
<path d="M192 432 216 432 216 456 192 456 192 432 Z" fill="rgba(64,64,64,0.5)" stroke="none" />
<path d="M216 432 240 432 240 456 216 456 216 432 Z" fill="rgba(74,74,74,0.5)" stroke="none" />
<path d="M240 432 264 432 264 456 240 456 240 432 Z" fill="rgba(83,83,83,0.5)" stroke="none" />
<path d="M264 432 288 432 288 456 264 456 264 432 Z" fill="rgba(80,80,80,0.5)" stroke="none" />
<path d="M288 432 312 432 312 456 288 456 288 432 Z" fill="rgba(56,56,56,0.5)" stroke="none" />
<path d="M312 432 336 432 336 456 312 456 312 432 Z" fill="rgba(51,51,51,0.5)" stroke="none" />
<path d="M336 432 360 432 360 456 336 456 336 432 Z" fill="rgba(24,24,24,0.5)" stroke="none" />
<path d="M360 432 384 432 384 456 360 456 360 432 Z" fill="rgba(0,0,0,0.5)" stroke="none" />
<path d="M384 432 408 432 408 456 384 456 384 432 Z" fill="rgba(0,0,0,0.5)" stroke="none" />
<path d="M408 432 432 432 432 456 408 456 408 432 Z" fill="rgba(0,0,0,0.5)" stroke="none" />
<path d="M432 432 456 432 456 456 432 456 432 432 Z" fill="rgba(0,0,0,0.5)" stroke="none" />
<path d="M456 432 480 432 480 456 456 456 456 432 Z" fill="rgba(0,0,0,0.5)" stroke="none" />
<path d="M0 456 24 456 24 480 0 480 0 456 Z" fill="rgba(0,0,0,0.5)" stroke="none" />
<path d="M24 456 48 456 48 480 24 480 24 456 Z" fill="rgba(0,0,0,0.5)" stroke="none" />
<path d="M48 456 72 456 72 480 48 480 48 456 Z" fill="rgba(0,0,0,0.5)" stroke="none" />
<path d="M72 456 96 456 96 480 72 480 72 456 Z" fill="rgba(0,0,0,0.5)" stroke="none" />
<path d="M96 456 120 456 120 480 96 480 96 456 Z" fill="rgba(0,0,0,0.5)" stroke="none" />
<path d="M120 456 144 456 144 480 120 480 120 456 Z" fill="rgba(0,0,0,0.5)" stroke="none" />
<path d="M144 456 168 456 168 480 144 480 144 456 Z" fill="rgba(75,75,75,0.5)" stroke="none" />
<path d="M168 456 192 456 192 480 168 480 168 456 Z" fill="rgba(69,69,69,0.5)" stroke="none" />
<path d="M192 456 216 456 216 480 192 480 192 456 Z" fill="rgba(46,46,46,0.5)" stroke="none" />
<path d="M216 456 240 456 240 480 216 480 216 456 Z" fill="rgba(40,40,40,0.5)" stroke="none" />
<path d="M240 456 264 456 264 480 240 480 240 456 Z" fill="rgba(42,42,42,0.5)" stroke="none" />
<path d="M264 456 288 456 288 480 264 480 264 456 Z" fill="rgba(39,39,39,0.5)" stroke="none" />
<path d="M288 456 312 456 312 480 288 480 288 456 Z" fill="rgba(48,48,48,0.5)" stroke="none" />
<path d="M312 456 336 456 336 480 312 480 312 456 Z" fill="rgba(88,88,88,0.5)" stroke="none" />
<path d="M336 456 360 456 360 480 336 480 336 456 Z" fill="rgba(46,46,46,0.5)" stroke="none" />
<path d="M360 456 384 456 384 480 360 480 360 456 Z" fill="rgba(0,0,0,0.5)" stroke="none" />
<path d="M384 456 408 456 408 480 384 480 384 456 Z" fill="rgba(0,0,0,0.5)" stroke="none" />
<path d="M408 456 432 456 432 480 408 480 408 456 Z" fill="rgba(0,0,0,0.5)" stroke="none" />
<path d="M432 456 456 456 456 480 432 480 432 456 Z" fill="rgba(0,0,0,0.5)" stroke="none" />
<path d="M456 456 480 456 480 480 456 480 456 456 Z" fill="rgba(0,0,0,0.5)" stroke="none" />
</svg>