<svg width="100%" height="100%" version="1.1" xmlns="http://www.w3.org/2000/svg"> 
<path d="M168 345 171 348 180 345 184 349 242 346 185 349 180 344 175 344 174 348 Z" fill="none" stroke="black" stroke-width="1.580978" />
<path d="M173 337 169 340 163 339 172 339 172 342 160 342 172 343 Z" fill="none" stroke="black" stroke-width="1.114758" />
<path d="M195 336 220 338 231 343 241 342 Z" fill="none" stroke="black" stroke-width="1.115156" />
<path d="M134 336 143 341 161 340 157 334 136 333 Z" fill="none" stroke="black" stroke-width="1.157207" />
<path d="M135 335 156 334 160 339 143 341 Z" fill="none" stroke="black" stroke-width="1.103148" />
<path d="M226 296 221 292 215 292 201 300 215 292 Z" fill="none" stroke="black" stroke-width="1.103634" />
<path d="M161 289 173 287 179 291 168 293 183 293 173 287 Z" fill="none" stroke="black" stroke-width="1.160179" />
<path d="M352 263 343 279 333 285 328 294 331 288 345 277 Z" fill="none" stroke="black" stroke-width="1.194417" />
<path d="M36 243 34 254 36 258 34 249 37 247 38 266 34 264 41 270 Z" fill="none" stroke="black" stroke-width="1.178073" />
<path d="M13 243 20 265 25 269 32 268 27 269 20 263 Z" fill="none" stroke="black" stroke-width="1.131655" />
<path d="M19 224 18 235 16 224 17 242 Z" fill="none" stroke="black" stroke-width="1.083841" />
<path d="M44 212 42 238 46 272 42 237 Z" fill="none" stroke="black" stroke-width="1.332607" />
<path d="M6 211 4 243 9 256 4 236 Z" fill="none" stroke="black" stroke-width="1.202420" />
<path d="M44 196 49 236 Z" fill="none" stroke="black" stroke-width="1.084101" />
<path d="M204 215 216 221 228 256 245 274 253 278 272 280 291 278 289 281 275 282 286 282 300 277 315 265 320 258 318 260 317 257 326 247 333 222 338 216 348 218 346 217 349 211 305 189 309 189 305 185 305 189 289 185 259 185 238 193 225 205 226 208 221 213 220 233 215 219 Z" fill="none" stroke="black" stroke-width="2.975423" />
<path d="M228 207 227 221 225 223 224 218 224 234 232 259 225 248 221 231 221 215 Z" fill="none" stroke="black" stroke-width="1.400891" />
<path d="M314 194 334 208 333 212 338 216 332 222 324 248 327 217 Z" fill="none" stroke="black" stroke-width="1.360655" />
<path d="M262 185 283 185 303 189 304 193 314 197 326 214 328 224 323 246 316 254 316 259 293 277 273 280 258 277 243 268 229 249 225 230 230 233 230 229 225 224 228 222 226 216 230 207 242 195 263 190 261 187 287 188 Z" fill="none" stroke="black" stroke-width="2.502735" />
<path d="M248 207 249 217 253 222 270 223 275 210 295 222 302 222 294 221 275 209 274 216 268 223 258 223 250 218 Z" fill="none" stroke="black" stroke-width="1.550635" />
<path d="M230 217 239 218 237 214 234 217 232 215 243 206 265 200 301 218 266 200 243 205 Z" fill="none" stroke="black" stroke-width="1.626071" />
<path d="M52 182 53 188 44 194 58 186 71 195 76 233 85 250 105 265 133 269 155 262 172 246 181 227 185 210 173 188 155 177 125 170 108 170 63 181 62 186 61 181 58 186 Z" fill="none" stroke="black" stroke-width="2.706701" />
<path d="M153 261 132 269 116 268 104 263 135 266 Z" fill="none" stroke="black" stroke-width="1.274603" />
<path d="M178 197 184 216 177 234 Z" fill="none" stroke="black" stroke-width="1.079272" />
<path d="M90 180 103 174 123 173 154 180 170 190 179 208 176 232 168 245 156 257 138 265 115 265 97 256 83 240 76 218 78 195 Z" fill="none" stroke="black" stroke-width="2.215684" />
<path d="M149 196 149 209 145 213 131 213 125 207 125 199 126 210 133 214 146 213 150 205 Z" fill="none" stroke="black" stroke-width="1.308729" />
<path d="M170 210 152 193 144 190 122 192 108 199 96 201 112 198 122 192 143 190 169 208 162 208 152 197 159 207 169 212 Z" fill="none" stroke="black" stroke-width="1.843695" />
<path d="M99 197 123 188 144 187 158 192 175 210 176 208 161 193 145 187 116 189 Z" fill="none" stroke="black" stroke-width="1.604151" />
<path d="M128 171 96 176 83 185 76 200 76 222 80 238 73 220 71 194 62 188 65 185 73 185 70 184 73 182 69 185 64 182 108 170 Z" fill="none" stroke="black" stroke-width="1.959682" />
<path d="M218 148 229 150 239 147 Z" fill="none" stroke="black" stroke-width="1.000000" />
<path d="M77 138 72 149 72 159 83 151 85 154 85 151 82 151 74 157 71 156 Z" fill="none" stroke="black" stroke-width="1.165730" />
<path d="M222 136 250 144 247 141 Z" fill="none" stroke="black" stroke-width="1.052837" />
<path d="M197 132 196 134 198 133 206 142 218 146 Z" fill="none" stroke="black" stroke-width="1.033937" />
<path d="M374 121 374 179 371 183 369 213 360 226 357 252 355 245 354 264 341 299 326 316 317 319 303 363 283 389 284 457 287 470 285 498 287 469 283 391 305 361 317 320 327 316 341 301 354 265 360 228 369 215 371 184 374 179 Z" fill="none" stroke="black" stroke-width="4.349875" />
<path d="M168 111 176 125 189 133 180 128 Z" fill="none" stroke="black" stroke-width="1.090280" />
<path d="M119 111 111 109 104 113 104 123 100 117 92 121 87 120 87 131 88 123 100 118 108 131 106 135 110 127 104 115 111 110 Z" fill="none" stroke="black" stroke-width="1.489129" />
<path d="M180 108 191 133 207 150 221 154 234 153 240 149 255 154 259 166 256 154 247 149 240 149 234 153 219 153 207 149 191 132 Z" fill="none" stroke="black" stroke-width="1.810738" />
<path d="M125 82 163 101 Z" fill="none" stroke="black" stroke-width="1.093884" />
<path d="M93 1 85 6 76 19 49 46 48 53 26 78 27 86 16 102 16 111 12 115 8 172 4 178 3 212 0 218 1 245 13 282 38 309 47 329 46 337 50 352 57 365 63 369 64 407 61 441 56 446 59 450 52 467 53 498 53 464 61 448 63 368 50 352 46 325 37 307 40 306 34 299 45 299 46 314 45 298 29 297 13 281 1 244 0 222 5 178 8 173 8 153 10 163 10 128 18 99 21 99 19 106 28 92 30 73 49 53 49 48 Z" fill="none" stroke="black" stroke-width="6.000000" />
<path d="M294 0 308 10 338 49 335 49 336 53 323 46 324 49 338 56 338 49 347 58 349 66 334 58 335 64 353 85 360 83 360 90 368 100 374 116 373 107 361 91 360 81 355 85 335 63 334 59 337 58 352 70 348 58 325 34 324 28 309 10 Z" fill="none" stroke="black" stroke-width="2.734703" />
</svg>