<svg width="100%" height="100%" version="1.1" xmlns="http://www.w3.org/2000/svg"> 
<path d="M23 436 20 462 30 482 36 484 36 481 30 478 20 457 Z" fill="none" stroke="black" stroke-width="1.109382" />
<path d="M94 410 99 420 118 440 136 449 135 445 116 436 115 430 100 417 97 410 Z" fill="none" stroke="black" stroke-width="1.162561" />
<path d="M293 395 292 426 273 446 271 467 248 484 262 479 273 468 274 450 294 428 Z" fill="none" stroke="black" stroke-width="1.285668" />
<path d="M279 384 279 387 275 387 258 402 222 446 236 435 238 427 277 389 282 389 287 396 286 417 282 423 282 430 289 408 289 394 Z" fill="none" stroke="black" stroke-width="1.404440" />
<path d="M84 383 104 407 135 406 105 405 100 401 97 392 Z" fill="none" stroke="black" stroke-width="1.145725" />
<path d="M204 383 196 377 165 374 155 384 163 396 158 411 152 412 142 405 137 410 142 407 153 415 159 415 164 398 159 383 165 376 188 377 202 385 Z" fill="none" stroke="black" stroke-width="1.342367" />
<path d="M135 343 153 344 170 351 223 348 245 357 223 346 170 349 156 343 Z" fill="none" stroke="black" stroke-width="1.320870" />
<path d="M43 330 61 374 69 378 76 392 94 408 92 402 74 385 71 376 63 372 46 330 Z" fill="none" stroke="black" stroke-width="1.293823" />
<path d="M122 327 130 333 150 335 167 341 151 333 137 333 Z" fill="none" stroke="black" stroke-width="1.095428" />
<path d="M250 317 248 320 255 318 263 324 263 342 256 353 261 362 259 352 264 344 266 325 260 318 Z" fill="none" stroke="black" stroke-width="1.149321" />
<path d="M217 299 219 310 220 300 228 295 234 295 245 308 245 312 240 315 250 311 236 294 227 292 Z" fill="none" stroke="black" stroke-width="1.141031" />
<path d="M182 279 165 274 148 280 157 292 158 289 153 283 157 279 167 276 175 281 176 285 166 285 174 287 179 285 177 283 Z" fill="none" stroke="black" stroke-width="1.163005" />
<path d="M184 266 188 274 193 267 206 269 214 275 215 282 221 282 228 289 227 283 218 281 209 268 192 266 188 269 Z" fill="none" stroke="black" stroke-width="1.161337" />
<path d="M234 259 230 287 233 285 Z" fill="none" stroke="black" stroke-width="1.009431" />
<path d="M218 213 222 254 223 239 239 261 242 258 258 266 287 266 303 258 301 263 283 269 288 271 300 266 317 252 316 249 310 253 317 244 314 243 306 253 301 250 303 254 295 261 286 264 254 263 242 254 253 259 258 258 247 254 246 250 240 252 236 248 227 226 231 223 252 240 266 243 277 236 290 233 291 223 287 221 290 230 262 241 252 238 240 225 227 222 225 229 233 246 242 258 239 259 223 235 220 224 222 219 220 212 Z" fill="none" stroke="black" stroke-width="2.143560" />
<path d="M207 209 199 215 214 239 218 260 228 269 218 255 212 230 204 219 209 211 Z" fill="none" stroke="black" stroke-width="1.200974" />
<path d="M310 202 303 205 299 212 287 213 273 219 275 213 287 207 293 200 302 203 296 197 269 216 274 223 280 218 302 213 Z" fill="none" stroke="black" stroke-width="1.241697" />
<path d="M221 192 222 196 217 204 220 205 220 201 223 201 220 210 225 205 225 196 Z" fill="none" stroke="black" stroke-width="1.040501" />
<path d="M74 196 90 195 106 205 110 212 109 206 95 195 81 191 Z" fill="none" stroke="black" stroke-width="1.097916" />
<path d="M182 188 189 198 183 204 186 206 186 212 181 221 186 217 187 201 196 192 209 200 213 212 217 211 210 203 208 195 198 190 188 192 Z" fill="none" stroke="black" stroke-width="1.216991" />
<path d="M263 181 274 188 273 192 289 198 284 192 275 189 280 182 274 186 Z" fill="none" stroke="black" stroke-width="1.072813" />
<path d="M82 189 85 184 98 181 97 185 100 185 105 179 146 181 155 187 151 191 156 196 152 202 123 202 115 196 115 191 111 187 104 186 99 190 111 189 114 196 110 197 105 192 102 195 112 200 115 198 123 204 135 205 153 204 159 198 153 191 156 189 154 182 146 179 138 181 126 177 103 177 100 182 93 179 83 182 Z" fill="none" stroke="black" stroke-width="1.602712" />
<path d="M276 172 265 171 258 179 243 184 252 192 264 194 261 202 258 202 260 207 265 195 270 199 272 197 261 189 257 192 247 186 251 182 260 181 267 174 277 174 Z" fill="none" stroke="black" stroke-width="1.248589" />
<path d="M39 169 37 192 25 221 21 222 15 216 14 203 18 193 30 187 30 179 23 177 19 172 19 176 26 179 28 185 17 191 12 202 14 218 22 224 22 230 26 235 32 235 36 239 37 264 38 238 31 222 32 233 23 228 35 205 40 186 Z" fill="none" stroke="black" stroke-width="1.585294" />
<path d="M284 166 301 174 308 174 325 195 312 174 293 169 288 164 Z" fill="none" stroke="black" stroke-width="1.138683" />
<path d="M253 166 250 164 230 169 214 184 222 182 229 172 238 167 Z" fill="none" stroke="black" stroke-width="1.089862" />
<path d="M253 163 263 169 277 169 282 173 280 179 306 185 318 196 318 209 322 219 320 238 323 231 320 194 308 184 285 179 282 175 291 176 290 172 283 172 278 167 263 167 Z" fill="none" stroke="black" stroke-width="1.408769" />
<path d="M12 156 7 161 9 197 17 172 Z" fill="none" stroke="black" stroke-width="1.076414" />
<path d="M11 161 15 170 10 186 Z" fill="none" stroke="black" stroke-width="1.000000" />
<path d="M89 163 111 161 121 151 155 154 171 172 168 163 159 154 144 151 136 153 121 149 109 159 Z" fill="none" stroke="black" stroke-width="1.258633" />
<path d="M118 148 102 148 91 153 73 154 73 157 Z" fill="none" stroke="black" stroke-width="1.040203" />
<path d="M6 148 2 152 0 164 2 234 14 259 25 269 37 272 38 292 43 300 45 318 43 324 28 335 23 349 28 440 38 480 43 484 36 468 28 430 25 349 30 337 45 326 45 299 38 283 38 269 27 267 15 257 4 232 2 163 8 149 12 149 24 161 34 161 36 158 26 159 15 148 Z" fill="none" stroke="black" stroke-width="2.372895" />
<path d="M120 11 146 15 143 12 Z" fill="none" stroke="black" stroke-width="1.007034" />
<path d="M84 7 59 26 56 39 51 44 51 96 48 102 48 117 40 128 38 160 56 183 54 187 46 176 43 177 63 200 66 221 74 237 96 254 99 253 94 248 110 254 143 254 141 252 147 250 143 256 143 270 147 276 150 275 145 270 145 257 155 250 158 256 166 254 174 237 191 221 191 214 199 211 194 210 189 214 187 222 179 227 166 250 160 254 157 248 162 241 164 244 163 240 173 229 177 211 181 206 179 187 176 187 179 204 173 224 169 229 166 227 169 221 168 214 174 203 174 187 171 186 173 202 166 212 166 224 160 234 155 233 145 243 133 248 141 248 158 235 141 251 111 253 93 245 82 235 73 219 69 195 74 183 83 174 98 167 103 174 107 172 104 170 105 167 129 166 134 163 140 164 140 169 144 168 148 174 152 169 161 169 153 167 149 171 145 167 146 164 134 161 129 164 97 166 82 172 82 164 75 161 79 168 66 178 69 180 62 181 63 176 58 174 57 182 53 173 41 161 41 131 50 117 53 96 53 45 58 39 61 27 70 18 90 7 118 7 124 2 150 2 168 15 196 18 207 26 219 22 242 23 249 30 273 31 286 46 306 51 313 58 322 59 333 73 335 163 328 183 327 197 330 198 330 202 340 201 341 206 327 209 327 212 331 208 338 209 330 214 330 232 320 243 322 265 318 272 314 317 305 326 305 332 299 341 299 350 289 358 286 375 282 378 285 377 294 390 286 376 291 360 299 354 307 327 314 322 323 266 322 245 332 232 332 216 343 208 344 194 340 186 339 169 338 188 343 199 333 200 330 196 330 183 336 164 335 71 325 58 318 58 307 49 289 45 276 30 254 30 245 22 217 20 208 25 199 17 173 15 152 0 122 0 118 5 Z" fill="none" stroke="black" stroke-width="6.000000" />
<path d="M57 185 63 188 64 194 67 187 69 190 69 213 81 240 69 224 64 197 55 188 Z" fill="none" stroke="black" stroke-width="1.196798" />

<path d="M0 0 15 0 15 23 0 23 0 0 Z" fill="rgba(0,0,0,0.5)" stroke="none" />
<path d="M15 0 30 0 30 23 15 23 15 0 Z" fill="rgba(0,0,0,0.5)" stroke="none" />
<path d="M30 0 45 0 45 23 30 23 30 0 Z" fill="rgba(0,0,0,0.5)" stroke="none" />
<path d="M45 0 60 0 60 23 45 23 45 0 Z" fill="rgba(0,0,0,0.5)" stroke="none" />
<path d="M60 0 75 0 75 23 60 23 60 0 Z" fill="rgba(0,0,0,0.5)" stroke="none" />
<path d="M75 0 90 0 90 23 75 23 75 0 Z" fill="rgba(0,0,0,0.5)" stroke="none" />
<path d="M90 0 105 0 105 23 90 23 90 0 Z" fill="rgba(0,0,0,0.5)" stroke="none" />
<path d="M105 0 120 0 120 23 105 23 105 0 Z" fill="rgba(3,3,3,0.5)" stroke="none" />
<path d="M120 0 135 0 135 23 120 23 120 0 Z" fill="rgba(8,8,8,0.5)" stroke="none" />
<path d="M135 0 150 0 150 23 135 23 135 0 Z" fill="rgba(1,1,1,0.5)" stroke="none" />
<path d="M150 0 165 0 165 23 150 23 150 0 Z" fill="rgba(0,0,0,0.5)" stroke="none" />
<path d="M165 0 180 0 180 23 165 23 165 0 Z" fill="rgba(0,0,0,0.5)" stroke="none" />
<path d="M180 0 195 0 195 23 180 23 180 0 Z" fill="rgba(0,0,0,0.5)" stroke="none" />
<path d="M195 0 210 0 210 23 195 23 195 0 Z" fill="rgba(0,0,0,0.5)" stroke="none" />
<path d="M210 0 225 0 225 23 210 23 210 0 Z" fill="rgba(0,0,0,0.5)" stroke="none" />
<path d="M225 0 240 0 240 23 225 23 225 0 Z" fill="rgba(0,0,0,0.5)" stroke="none" />
<path d="M240 0 255 0 255 23 240 23 240 0 Z" fill="rgba(0,0,0,0.5)" stroke="none" />
<path d="M255 0 270 0 270 23 255 23 255 0 Z" fill="rgba(0,0,0,0.5)" stroke="none" />
<path d="M270 0 285 0 285 23 270 23 270 0 Z" fill="rgba(0,0,0,0.5)" stroke="none" />
<path d="M285 0 300 0 300 23 285 23 285 0 Z" fill="rgba(0,0,0,0.5)" stroke="none" />
<path d="M0 23 15 23 15 46 0 46 0 23 Z" fill="rgba(0,0,0,0.5)" stroke="none" />
<path d="M15 23 30 23 30 46 15 46 15 23 Z" fill="rgba(0,0,0,0.5)" stroke="none" />
<path d="M30 23 45 23 45 46 30 46 30 23 Z" fill="rgba(0,0,0,0.5)" stroke="none" />
<path d="M45 23 60 23 60 46 45 46 45 23 Z" fill="rgba(0,0,0,0.5)" stroke="none" />
<path d="M60 23 75 23 75 46 60 46 60 23 Z" fill="rgba(0,0,0,0.5)" stroke="none" />
<path d="M75 23 90 23 90 46 75 46 75 23 Z" fill="rgba(182,182,182,0.5)" stroke="none" />
<path d="M90 23 105 23 105 46 90 46 90 23 Z" fill="rgba(209,209,209,0.5)" stroke="none" />
<path d="M105 23 120 23 120 46 105 46 105 23 Z" fill="rgba(210,210,210,0.5)" stroke="none" />
<path d="M120 23 135 23 135 46 120 46 120 23 Z" fill="rgba(202,202,202,0.5)" stroke="none" />
<path d="M135 23 150 23 150 46 135 46 135 23 Z" fill="rgba(190,190,190,0.5)" stroke="none" />
<path d="M150 23 165 23 165 46 150 46 150 23 Z" fill="rgba(145,145,145,0.5)" stroke="none" />
<path d="M165 23 180 23 180 46 165 46 165 23 Z" fill="rgba(142,142,142,0.5)" stroke="none" />
<path d="M180 23 195 23 195 46 180 46 180 23 Z" fill="rgba(33,33,33,0.5)" stroke="none" />
<path d="M195 23 210 23 210 46 195 46 195 23 Z" fill="rgba(1,1,1,0.5)" stroke="none" />
<path d="M210 23 225 23 225 46 210 46 210 23 Z" fill="rgba(0,0,0,0.5)" stroke="none" />
<path d="M225 23 240 23 240 46 225 46 225 23 Z" fill="rgba(0,0,0,0.5)" stroke="none" />
<path d="M240 23 255 23 255 46 240 46 240 23 Z" fill="rgba(0,0,0,0.5)" stroke="none" />
<path d="M255 23 270 23 270 46 255 46 255 23 Z" fill="rgba(0,0,0,0.5)" stroke="none" />
<path d="M270 23 285 23 285 46 270 46 270 23 Z" fill="rgba(0,0,0,0.5)" stroke="none" />
<path d="M285 23 300 23 300 46 285 46 285 23 Z" fill="rgba(0,0,0,0.5)" stroke="none" />
<path d="M0 46 15 46 15 69 0 69 0 46 Z" fill="rgba(0,0,0,0.5)" stroke="none" />
<path d="M15 46 30 46 30 69 15 69 15 46 Z" fill="rgba(0,0,0,0.5)" stroke="none" />
<path d="M30 46 45 46 45 69 30 69 30 46 Z" fill="rgba(0,0,0,0.5)" stroke="none" />
<path d="M45 46 60 46 60 69 45 69 45 46 Z" fill="rgba(0,0,0,0.5)" stroke="none" />
<path d="M60 46 75 46 75 69 60 69 60 46 Z" fill="rgba(4,4,4,0.5)" stroke="none" />
<path d="M75 46 90 46 90 69 75 69 75 46 Z" fill="rgba(199,199,199,0.5)" stroke="none" />
<path d="M90 46 105 46 105 69 90 69 90 46 Z" fill="rgba(216,216,216,0.5)" stroke="none" />
<path d="M105 46 120 46 120 69 105 69 105 46 Z" fill="rgba(218,218,218,0.5)" stroke="none" />
<path d="M120 46 135 46 135 69 120 69 120 46 Z" fill="rgba(213,213,213,0.5)" stroke="none" />
<path d="M135 46 150 46 150 69 135 69 135 46 Z" fill="rgba(210,210,210,0.5)" stroke="none" />
<path d="M150 46 165 46 165 69 150 69 150 46 Z" fill="rgba(210,210,210,0.5)" stroke="none" />
<path d="M165 46 180 46 180 69 165 69 165 46 Z" fill="rgba(207,207,207,0.5)" stroke="none" />
<path d="M180 46 195 46 195 69 180 69 180 46 Z" fill="rgba(205,205,205,0.5)" stroke="none" />
<path d="M195 46 210 46 210 69 195 69 195 46 Z" fill="rgba(210,210,210,0.5)" stroke="none" />
<path d="M210 46 225 46 225 69 210 69 210 46 Z" fill="rgba(73,73,73,0.5)" stroke="none" />
<path d="M225 46 240 46 240 69 225 69 225 46 Z" fill="rgba(7,7,7,0.5)" stroke="none" />
<path d="M240 46 255 46 255 69 240 69 240 46 Z" fill="rgba(0,0,0,0.5)" stroke="none" />
<path d="M255 46 270 46 270 69 255 69 255 46 Z" fill="rgba(0,0,0,0.5)" stroke="none" />
<path d="M270 46 285 46 285 69 270 69 270 46 Z" fill="rgba(0,0,0,0.5)" stroke="none" />
<path d="M285 46 300 46 300 69 285 69 285 46 Z" fill="rgba(0,0,0,0.5)" stroke="none" />
<path d="M0 69 15 69 15 92 0 92 0 69 Z" fill="rgba(0,0,0,0.5)" stroke="none" />
<path d="M15 69 30 69 30 92 15 92 15 69 Z" fill="rgba(0,0,0,0.5)" stroke="none" />
<path d="M30 69 45 69 45 92 30 92 30 69 Z" fill="rgba(0,0,0,0.5)" stroke="none" />
<path d="M45 69 60 69 60 92 45 92 45 69 Z" fill="rgba(0,0,0,0.5)" stroke="none" />
<path d="M60 69 75 69 75 92 60 92 60 69 Z" fill="rgba(30,30,30,0.5)" stroke="none" />
<path d="M75 69 90 69 90 92 75 92 75 69 Z" fill="rgba(193,193,193,0.5)" stroke="none" />
<path d="M90 69 105 69 105 92 90 92 90 69 Z" fill="rgba(208,208,208,0.5)" stroke="none" />
<path d="M105 69 120 69 120 92 105 92 105 69 Z" fill="rgba(205,205,205,0.5)" stroke="none" />
<path d="M120 69 135 69 135 92 120 92 120 69 Z" fill="rgba(199,199,199,0.5)" stroke="none" />
<path d="M135 69 150 69 150 92 135 92 135 69 Z" fill="rgba(194,194,194,0.5)" stroke="none" />
<path d="M150 69 165 69 165 92 150 92 150 69 Z" fill="rgba(192,192,192,0.5)" stroke="none" />
<path d="M165 69 180 69 180 92 165 92 165 69 Z" fill="rgba(193,193,193,0.5)" stroke="none" />
<path d="M180 69 195 69 195 92 180 92 180 69 Z" fill="rgba(200,200,200,0.5)" stroke="none" />
<path d="M195 69 210 69 210 92 195 92 195 69 Z" fill="rgba(211,211,211,0.5)" stroke="none" />
<path d="M210 69 225 69 225 92 210 92 210 69 Z" fill="rgba(203,203,203,0.5)" stroke="none" />
<path d="M225 69 240 69 240 92 225 92 225 69 Z" fill="rgba(203,203,203,0.5)" stroke="none" />
<path d="M240 69 255 69 255 92 240 92 240 69 Z" fill="rgba(54,54,54,0.5)" stroke="none" />
<path d="M255 69 270 69 270 92 255 92 255 69 Z" fill="rgba(0,0,0,0.5)" stroke="none" />
<path d="M270 69 285 69 285 92 270 92 270 69 Z" fill="rgba(0,0,0,0.5)" stroke="none" />
<path d="M285 69 300 69 300 92 285 92 285 69 Z" fill="rgba(0,0,0,0.5)" stroke="none" />
<path d="M0 92 15 92 15 115 0 115 0 92 Z" fill="rgba(0,0,0,0.5)" stroke="none" />
<path d="M15 92 30 92 30 115 15 115 15 92 Z" fill="rgba(0,0,0,0.5)" stroke="none" />
<path d="M30 92 45 92 45 115 30 115 30 92 Z" fill="rgba(0,0,0,0.5)" stroke="none" />
<path d="M45 92 60 92 60 115 45 115 45 92 Z" fill="rgba(0,0,0,0.5)" stroke="none" />
<path d="M60 92 75 92 75 115 60 115 60 92 Z" fill="rgba(14,14,14,0.5)" stroke="none" />
<path d="M75 92 90 92 90 115 75 115 75 92 Z" fill="rgba(181,181,181,0.5)" stroke="none" />
<path d="M90 92 105 92 105 115 90 115 90 92 Z" fill="rgba(197,197,197,0.5)" stroke="none" />
<path d="M105 92 120 92 120 115 105 115 105 92 Z" fill="rgba(201,201,201,0.5)" stroke="none" />
<path d="M120 92 135 92 135 115 120 115 120 92 Z" fill="rgba(196,196,196,0.5)" stroke="none" />
<path d="M135 92 150 92 150 115 135 115 135 92 Z" fill="rgba(190,190,190,0.5)" stroke="none" />
<path d="M150 92 165 92 165 115 150 115 150 92 Z" fill="rgba(183,183,183,0.5)" stroke="none" />
<path d="M165 92 180 92 180 115 165 115 165 92 Z" fill="rgba(185,185,185,0.5)" stroke="none" />
<path d="M180 92 195 92 195 115 180 115 180 92 Z" fill="rgba(188,188,188,0.5)" stroke="none" />
<path d="M195 92 210 92 210 115 195 115 195 92 Z" fill="rgba(196,196,196,0.5)" stroke="none" />
<path d="M210 92 225 92 225 115 210 115 210 92 Z" fill="rgba(202,202,202,0.5)" stroke="none" />
<path d="M225 92 240 92 240 115 225 115 225 92 Z" fill="rgba(211,211,211,0.5)" stroke="none" />
<path d="M240 92 255 92 255 115 240 115 240 92 Z" fill="rgba(56,56,56,0.5)" stroke="none" />
<path d="M255 92 270 92 270 115 255 115 255 92 Z" fill="rgba(0,0,0,0.5)" stroke="none" />
<path d="M270 92 285 92 285 115 270 115 270 92 Z" fill="rgba(0,0,0,0.5)" stroke="none" />
<path d="M285 92 300 92 300 115 285 115 285 92 Z" fill="rgba(0,0,0,0.5)" stroke="none" />
<path d="M0 115 15 115 15 138 0 138 0 115 Z" fill="rgba(0,0,0,0.5)" stroke="none" />
<path d="M15 115 30 115 30 138 15 138 15 115 Z" fill="rgba(0,0,0,0.5)" stroke="none" />
<path d="M30 115 45 115 45 138 30 138 30 115 Z" fill="rgba(0,0,0,0.5)" stroke="none" />
<path d="M45 115 60 115 60 138 45 138 45 115 Z" fill="rgba(0,0,0,0.5)" stroke="none" />
<path d="M60 115 75 115 75 138 60 138 60 115 Z" fill="rgba(125,125,125,0.5)" stroke="none" />
<path d="M75 115 90 115 90 138 75 138 75 115 Z" fill="rgba(187,187,187,0.5)" stroke="none" />
<path d="M90 115 105 115 105 138 90 138 90 115 Z" fill="rgba(201,201,201,0.5)" stroke="none" />
<path d="M105 115 120 115 120 138 105 138 105 115 Z" fill="rgba(194,194,194,0.5)" stroke="none" />
<path d="M120 115 135 115 135 138 120 138 120 115 Z" fill="rgba(181,181,181,0.5)" stroke="none" />
<path d="M135 115 150 115 150 138 135 138 135 115 Z" fill="rgba(173,173,173,0.5)" stroke="none" />
<path d="M150 115 165 115 165 138 150 138 150 115 Z" fill="rgba(167,167,167,0.5)" stroke="none" />
<path d="M165 115 180 115 180 138 165 138 165 115 Z" fill="rgba(176,176,176,0.5)" stroke="none" />
<path d="M180 115 195 115 195 138 180 138 180 115 Z" fill="rgba(187,187,187,0.5)" stroke="none" />
<path d="M195 115 210 115 210 138 195 138 195 115 Z" fill="rgba(191,191,191,0.5)" stroke="none" />
<path d="M210 115 225 115 225 138 210 138 210 115 Z" fill="rgba(197,197,197,0.5)" stroke="none" />
<path d="M225 115 240 115 240 138 225 138 225 115 Z" fill="rgba(199,199,199,0.5)" stroke="none" />
<path d="M240 115 255 115 255 138 240 138 240 115 Z" fill="rgba(53,53,53,0.5)" stroke="none" />
<path d="M255 115 270 115 270 138 255 138 255 115 Z" fill="rgba(0,0,0,0.5)" stroke="none" />
<path d="M270 115 285 115 285 138 270 138 270 115 Z" fill="rgba(0,0,0,0.5)" stroke="none" />
<path d="M285 115 300 115 300 138 285 138 285 115 Z" fill="rgba(0,0,0,0.5)" stroke="none" />
<path d="M0 138 15 138 15 161 0 161 0 138 Z" fill="rgba(0,0,0,0.5)" stroke="none" />
<path d="M15 138 30 138 30 161 15 161 15 138 Z" fill="rgba(0,0,0,0.5)" stroke="none" />
<path d="M30 138 45 138 45 161 30 161 30 138 Z" fill="rgba(0,0,0,0.5)" stroke="none" />
<path d="M45 138 60 138 60 161 45 161 45 138 Z" fill="rgba(0,0,0,0.5)" stroke="none" />
<path d="M60 138 75 138 75 161 60 161 60 138 Z" fill="rgba(173,173,173,0.5)" stroke="none" />
<path d="M75 138 90 138 90 161 75 161 75 138 Z" fill="rgba(196,196,196,0.5)" stroke="none" />
<path d="M90 138 105 138 105 161 90 161 90 138 Z" fill="rgba(200,200,200,0.5)" stroke="none" />
<path d="M105 138 120 138 120 161 105 161 105 138 Z" fill="rgba(172,172,172,0.5)" stroke="none" />
<path d="M120 138 135 138 135 161 120 161 120 138 Z" fill="rgba(154,154,154,0.5)" stroke="none" />
<path d="M135 138 150 138 150 161 135 161 135 138 Z" fill="rgba(146,146,146,0.5)" stroke="none" />
<path d="M150 138 165 138 165 161 150 161 150 138 Z" fill="rgba(145,145,145,0.5)" stroke="none" />
<path d="M165 138 180 138 180 161 165 161 165 138 Z" fill="rgba(148,148,148,0.5)" stroke="none" />
<path d="M180 138 195 138 195 161 180 161 180 138 Z" fill="rgba(156,156,156,0.5)" stroke="none" />
<path d="M195 138 210 138 210 161 195 161 195 138 Z" fill="rgba(177,177,177,0.5)" stroke="none" />
<path d="M210 138 225 138 225 161 210 161 210 138 Z" fill="rgba(195,195,195,0.5)" stroke="none" />
<path d="M225 138 240 138 240 161 225 161 225 138 Z" fill="rgba(201,201,201,0.5)" stroke="none" />
<path d="M240 138 255 138 255 161 240 161 240 138 Z" fill="rgba(53,53,53,0.5)" stroke="none" />
<path d="M255 138 270 138 270 161 255 161 255 138 Z" fill="rgba(0,0,0,0.5)" stroke="none" />
<path d="M270 138 285 138 285 161 270 161 270 138 Z" fill="rgba(0,0,0,0.5)" stroke="none" />
<path d="M285 138 300 138 300 161 285 161 285 138 Z" fill="rgba(0,0,0,0.5)" stroke="none" />
<path d="M0 161 15 161 15 184 0 184 0 161 Z" fill="rgba(0,0,0,0.5)" stroke="none" />
<path d="M15 161 30 161 30 184 15 184 15 161 Z" fill="rgba(0,0,0,0.5)" stroke="none" />
<path d="M30 161 45 161 45 184 30 184 30 161 Z" fill="rgba(4,4,4,0.5)" stroke="none" />
<path d="M45 161 60 161 60 184 45 184 45 161 Z" fill="rgba(118,118,118,0.5)" stroke="none" />
<path d="M60 161 75 161 75 184 60 184 60 161 Z" fill="rgba(140,140,140,0.5)" stroke="none" />
<path d="M75 161 90 161 90 184 75 184 75 161 Z" fill="rgba(152,152,152,0.5)" stroke="none" />
<path d="M90 161 105 161 105 184 90 184 90 161 Z" fill="rgba(162,162,162,0.5)" stroke="none" />
<path d="M105 161 120 161 120 184 105 184 105 161 Z" fill="rgba(117,117,117,0.5)" stroke="none" />
<path d="M120 161 135 161 135 184 120 184 120 161 Z" fill="rgba(95,95,95,0.5)" stroke="none" />
<path d="M135 161 150 161 150 184 135 184 135 161 Z" fill="rgba(99,99,99,0.5)" stroke="none" />
<path d="M150 161 165 161 165 184 150 184 150 161 Z" fill="rgba(107,107,107,0.5)" stroke="none" />
<path d="M165 161 180 161 180 184 165 184 165 161 Z" fill="rgba(103,103,103,0.5)" stroke="none" />
<path d="M180 161 195 161 195 184 180 184 180 161 Z" fill="rgba(70,70,70,0.5)" stroke="none" />
<path d="M195 161 210 161 210 184 195 184 195 161 Z" fill="rgba(101,101,101,0.5)" stroke="none" />
<path d="M210 161 225 161 225 184 210 184 210 161 Z" fill="rgba(141,141,141,0.5)" stroke="none" />
<path d="M225 161 240 161 240 184 225 184 225 161 Z" fill="rgba(190,190,190,0.5)" stroke="none" />
<path d="M240 161 255 161 255 184 240 184 240 161 Z" fill="rgba(53,53,53,0.5)" stroke="none" />
<path d="M255 161 270 161 270 184 255 184 255 161 Z" fill="rgba(0,0,0,0.5)" stroke="none" />
<path d="M270 161 285 161 285 184 270 184 270 161 Z" fill="rgba(0,0,0,0.5)" stroke="none" />
<path d="M285 161 300 161 300 184 285 184 285 161 Z" fill="rgba(0,0,0,0.5)" stroke="none" />
<path d="M0 184 15 184 15 207 0 207 0 184 Z" fill="rgba(0,0,0,0.5)" stroke="none" />
<path d="M15 184 30 184 30 207 15 207 15 184 Z" fill="rgba(0,0,0,0.5)" stroke="none" />
<path d="M30 184 45 184 45 207 30 207 30 184 Z" fill="rgba(4,4,4,0.5)" stroke="none" />
<path d="M45 184 60 184 60 207 45 207 45 184 Z" fill="rgba(114,114,114,0.5)" stroke="none" />
<path d="M60 184 75 184 75 207 60 207 60 184 Z" fill="rgba(193,193,193,0.5)" stroke="none" />
<path d="M75 184 90 184 90 207 75 207 75 184 Z" fill="rgba(193,193,193,0.5)" stroke="none" />
<path d="M90 184 105 184 105 207 90 207 90 184 Z" fill="rgba(137,137,137,0.5)" stroke="none" />
<path d="M105 184 120 184 120 207 105 207 105 184 Z" fill="rgba(67,67,67,0.5)" stroke="none" />
<path d="M120 184 135 184 135 207 120 207 120 184 Z" fill="rgba(63,63,63,0.5)" stroke="none" />
<path d="M135 184 150 184 150 207 135 207 135 184 Z" fill="rgba(80,80,80,0.5)" stroke="none" />
<path d="M150 184 165 184 165 207 150 207 150 184 Z" fill="rgba(162,162,162,0.5)" stroke="none" />
<path d="M165 184 180 184 180 207 165 207 165 184 Z" fill="rgba(97,97,97,0.5)" stroke="none" />
<path d="M180 184 195 184 195 207 180 207 180 184 Z" fill="rgba(54,54,54,0.5)" stroke="none" />
<path d="M195 184 210 184 210 207 195 207 195 184 Z" fill="rgba(98,98,98,0.5)" stroke="none" />
<path d="M210 184 225 184 225 207 210 207 210 184 Z" fill="rgba(127,127,127,0.5)" stroke="none" />
<path d="M225 184 240 184 240 207 225 207 225 184 Z" fill="rgba(136,136,136,0.5)" stroke="none" />
<path d="M240 184 255 184 255 207 240 207 240 184 Z" fill="rgba(36,36,36,0.5)" stroke="none" />
<path d="M255 184 270 184 270 207 255 207 255 184 Z" fill="rgba(0,0,0,0.5)" stroke="none" />
<path d="M270 184 285 184 285 207 270 207 270 184 Z" fill="rgba(0,0,0,0.5)" stroke="none" />
<path d="M285 184 300 184 300 207 285 207 285 184 Z" fill="rgba(0,0,0,0.5)" stroke="none" />
<path d="M0 207 15 207 15 230 0 230 0 207 Z" fill="rgba(0,0,0,0.5)" stroke="none" />
<path d="M15 207 30 207 30 230 15 230 15 207 Z" fill="rgba(0,0,0,0.5)" stroke="none" />
<path d="M30 207 45 207 45 230 30 230 30 207 Z" fill="rgba(4,4,4,0.5)" stroke="none" />
<path d="M45 207 60 207 60 230 45 230 45 207 Z" fill="rgba(130,130,130,0.5)" stroke="none" />
<path d="M60 207 75 207 75 230 60 230 60 207 Z" fill="rgba(201,201,201,0.5)" stroke="none" />
<path d="M75 207 90 207 90 230 75 230 75 207 Z" fill="rgba(191,191,191,0.5)" stroke="none" />
<path d="M90 207 105 207 105 230 90 230 90 207 Z" fill="rgba(192,192,192,0.5)" stroke="none" />
<path d="M105 207 120 207 120 230 105 230 105 207 Z" fill="rgba(149,149,149,0.5)" stroke="none" />
<path d="M120 207 135 207 135 230 120 230 120 207 Z" fill="rgba(135,135,135,0.5)" stroke="none" />
<path d="M135 207 150 207 150 230 135 230 135 207 Z" fill="rgba(99,99,99,0.5)" stroke="none" />
<path d="M150 207 165 207 165 230 150 230 150 207 Z" fill="rgba(185,185,185,0.5)" stroke="none" />
<path d="M165 207 180 207 180 230 165 230 165 207 Z" fill="rgba(104,104,104,0.5)" stroke="none" />
<path d="M180 207 195 207 195 230 180 230 180 207 Z" fill="rgba(89,89,89,0.5)" stroke="none" />
<path d="M195 207 210 207 210 230 195 230 195 207 Z" fill="rgba(103,103,103,0.5)" stroke="none" />
<path d="M210 207 225 207 225 230 210 230 210 207 Z" fill="rgba(176,176,176,0.5)" stroke="none" />
<path d="M225 207 240 207 240 230 225 230 225 207 Z" fill="rgba(155,155,155,0.5)" stroke="none" />
<path d="M240 207 255 207 255 230 240 230 240 207 Z" fill="rgba(38,38,38,0.5)" stroke="none" />
<path d="M255 207 270 207 270 230 255 230 255 207 Z" fill="rgba(0,0,0,0.5)" stroke="none" />
<path d="M270 207 285 207 285 230 270 230 270 207 Z" fill="rgba(0,0,0,0.5)" stroke="none" />
<path d="M285 207 300 207 300 230 285 230 285 207 Z" fill="rgba(0,0,0,0.5)" stroke="none" />
<path d="M0 230 15 230 15 253 0 253 0 230 Z" fill="rgba(0,0,0,0.5)" stroke="none" />
<path d="M15 230 30 230 30 253 15 253 15 230 Z" fill="rgba(0,0,0,0.5)" stroke="none" />
<path d="M30 230 45 230 45 253 30 253 30 230 Z" fill="rgba(0,0,0,0.5)" stroke="none" />
<path d="M45 230 60 230 60 253 45 253 45 230 Z" fill="rgba(160,160,160,0.5)" stroke="none" />
<path d="M60 230 75 230 75 253 60 253 60 230 Z" fill="rgba(199,199,199,0.5)" stroke="none" />
<path d="M75 230 90 230 90 253 75 253 75 230 Z" fill="rgba(197,197,197,0.5)" stroke="none" />
<path d="M90 230 105 230 105 253 90 253 90 230 Z" fill="rgba(185,185,185,0.5)" stroke="none" />
<path d="M105 230 120 230 120 253 105 253 105 230 Z" fill="rgba(168,168,168,0.5)" stroke="none" />
<path d="M120 230 135 230 135 253 120 253 120 230 Z" fill="rgba(171,171,171,0.5)" stroke="none" />
<path d="M135 230 150 230 150 253 135 253 135 230 Z" fill="rgba(182,182,182,0.5)" stroke="none" />
<path d="M150 230 165 230 165 253 150 253 150 230 Z" fill="rgba(210,210,210,0.5)" stroke="none" />
<path d="M165 230 180 230 180 253 165 253 165 230 Z" fill="rgba(157,157,157,0.5)" stroke="none" />
<path d="M180 230 195 230 195 253 180 253 180 230 Z" fill="rgba(143,143,143,0.5)" stroke="none" />
<path d="M195 230 210 230 210 253 195 253 195 230 Z" fill="rgba(173,173,173,0.5)" stroke="none" />
<path d="M210 230 225 230 225 253 210 253 210 230 Z" fill="rgba(184,184,184,0.5)" stroke="none" />
<path d="M225 230 240 230 240 253 225 253 225 230 Z" fill="rgba(64,64,64,0.5)" stroke="none" />
<path d="M240 230 255 230 255 253 240 253 240 230 Z" fill="rgba(9,9,9,0.5)" stroke="none" />
<path d="M255 230 270 230 270 253 255 253 255 230 Z" fill="rgba(0,0,0,0.5)" stroke="none" />
<path d="M270 230 285 230 285 253 270 253 270 230 Z" fill="rgba(0,0,0,0.5)" stroke="none" />
<path d="M285 230 300 230 300 253 285 253 285 230 Z" fill="rgba(0,0,0,0.5)" stroke="none" />
<path d="M0 253 15 253 15 276 0 276 0 253 Z" fill="rgba(0,0,0,0.5)" stroke="none" />
<path d="M15 253 30 253 30 276 15 276 15 253 Z" fill="rgba(0,0,0,0.5)" stroke="none" />
<path d="M30 253 45 253 45 276 30 276 30 253 Z" fill="rgba(0,0,0,0.5)" stroke="none" />
<path d="M45 253 60 253 60 276 45 276 45 253 Z" fill="rgba(34,34,34,0.5)" stroke="none" />
<path d="M60 253 75 253 75 276 60 276 60 253 Z" fill="rgba(176,176,176,0.5)" stroke="none" />
<path d="M75 253 90 253 90 276 75 276 75 253 Z" fill="rgba(175,175,175,0.5)" stroke="none" />
<path d="M90 253 105 253 105 276 90 276 90 253 Z" fill="rgba(151,151,151,0.5)" stroke="none" />
<path d="M105 253 120 253 120 276 105 276 105 253 Z" fill="rgba(124,124,124,0.5)" stroke="none" />
<path d="M120 253 135 253 135 276 120 276 120 253 Z" fill="rgba(156,156,156,0.5)" stroke="none" />
<path d="M135 253 150 253 150 276 135 276 135 253 Z" fill="rgba(143,143,143,0.5)" stroke="none" />
<path d="M150 253 165 253 165 276 150 276 150 253 Z" fill="rgba(129,129,129,0.5)" stroke="none" />
<path d="M165 253 180 253 180 276 165 276 165 253 Z" fill="rgba(164,164,164,0.5)" stroke="none" />
<path d="M180 253 195 253 195 276 180 276 180 253 Z" fill="rgba(142,142,142,0.5)" stroke="none" />
<path d="M195 253 210 253 210 276 195 276 195 253 Z" fill="rgba(149,149,149,0.5)" stroke="none" />
<path d="M210 253 225 253 225 276 210 276 210 253 Z" fill="rgba(171,171,171,0.5)" stroke="none" />
<path d="M225 253 240 253 240 276 225 276 225 253 Z" fill="rgba(48,48,48,0.5)" stroke="none" />
<path d="M240 253 255 253 255 276 240 276 240 253 Z" fill="rgba(4,4,4,0.5)" stroke="none" />
<path d="M255 253 270 253 270 276 255 276 255 253 Z" fill="rgba(0,0,0,0.5)" stroke="none" />
<path d="M270 253 285 253 285 276 270 276 270 253 Z" fill="rgba(0,0,0,0.5)" stroke="none" />
<path d="M285 253 300 253 300 276 285 276 285 253 Z" fill="rgba(0,0,0,0.5)" stroke="none" />
<path d="M0 276 15 276 15 300 0 300 0 276 Z" fill="rgba(0,0,0,0.5)" stroke="none" />
<path d="M15 276 30 276 30 300 15 300 15 276 Z" fill="rgba(0,0,0,0.5)" stroke="none" />
<path d="M30 276 45 276 45 300 30 300 30 276 Z" fill="rgba(0,0,0,0.5)" stroke="none" />
<path d="M45 276 60 276 60 300 45 300 45 276 Z" fill="rgba(0,0,0,0.5)" stroke="none" />
<path d="M60 276 75 276 75 300 60 300 60 276 Z" fill="rgba(122,122,122,0.5)" stroke="none" />
<path d="M75 276 90 276 90 300 75 300 75 276 Z" fill="rgba(156,156,156,0.5)" stroke="none" />
<path d="M90 276 105 276 105 300 90 300 90 276 Z" fill="rgba(140,140,140,0.5)" stroke="none" />
<path d="M105 276 120 276 120 300 105 300 105 276 Z" fill="rgba(139,139,139,0.5)" stroke="none" />
<path d="M120 276 135 276 135 300 120 300 120 276 Z" fill="rgba(121,121,121,0.5)" stroke="none" />
<path d="M135 276 150 276 150 300 135 300 135 276 Z" fill="rgba(69,69,69,0.5)" stroke="none" />
<path d="M150 276 165 276 165 300 150 300 150 276 Z" fill="rgba(54,54,54,0.5)" stroke="none" />
<path d="M165 276 180 276 180 300 165 300 165 276 Z" fill="rgba(110,110,110,0.5)" stroke="none" />
<path d="M180 276 195 276 195 300 180 300 180 276 Z" fill="rgba(115,115,115,0.5)" stroke="none" />
<path d="M195 276 210 276 210 300 195 300 195 276 Z" fill="rgba(124,124,124,0.5)" stroke="none" />
<path d="M210 276 225 276 225 300 210 300 210 276 Z" fill="rgba(143,143,143,0.5)" stroke="none" />
<path d="M225 276 240 276 240 300 225 300 225 276 Z" fill="rgba(32,32,32,0.5)" stroke="none" />
<path d="M240 276 255 276 255 300 240 300 240 276 Z" fill="rgba(0,0,0,0.5)" stroke="none" />
<path d="M255 276 270 276 270 300 255 300 255 276 Z" fill="rgba(0,0,0,0.5)" stroke="none" />
<path d="M270 276 285 276 285 300 270 300 270 276 Z" fill="rgba(0,0,0,0.5)" stroke="none" />
<path d="M285 276 300 276 300 300 285 300 285 276 Z" fill="rgba(0,0,0,0.5)" stroke="none" />
<path d="M0 300 15 300 15 323 0 323 0 300 Z" fill="rgba(0,0,0,0.5)" stroke="none" />
<path d="M15 300 30 300 30 323 15 323 15 300 Z" fill="rgba(0,0,0,0.5)" stroke="none" />
<path d="M30 300 45 300 45 323 30 323 30 300 Z" fill="rgba(0,0,0,0.5)" stroke="none" />
<path d="M45 300 60 300 60 323 45 323 45 300 Z" fill="rgba(0,0,0,0.5)" stroke="none" />
<path d="M60 300 75 300 75 323 60 323 60 300 Z" fill="rgba(97,97,97,0.5)" stroke="none" />
<path d="M75 300 90 300 90 323 75 323 75 300 Z" fill="rgba(144,144,144,0.5)" stroke="none" />
<path d="M90 300 105 300 105 323 90 323 90 300 Z" fill="rgba(121,121,121,0.5)" stroke="none" />
<path d="M105 300 120 300 120 323 105 323 105 300 Z" fill="rgba(88,88,88,0.5)" stroke="none" />
<path d="M120 300 135 300 135 323 120 323 120 300 Z" fill="rgba(91,91,91,0.5)" stroke="none" />
<path d="M135 300 150 300 150 323 135 323 135 300 Z" fill="rgba(45,45,45,0.5)" stroke="none" />
<path d="M150 300 165 300 165 323 150 323 150 300 Z" fill="rgba(43,43,43,0.5)" stroke="none" />
<path d="M165 300 180 300 180 323 165 323 165 300 Z" fill="rgba(64,64,64,0.5)" stroke="none" />
<path d="M180 300 195 300 195 323 180 323 180 300 Z" fill="rgba(84,84,84,0.5)" stroke="none" />
<path d="M195 300 210 300 210 323 195 323 195 300 Z" fill="rgba(112,112,112,0.5)" stroke="none" />
<path d="M210 300 225 300 225 323 210 323 210 300 Z" fill="rgba(110,110,110,0.5)" stroke="none" />
<path d="M225 300 240 300 240 323 225 323 225 300 Z" fill="rgba(21,21,21,0.5)" stroke="none" />
<path d="M240 300 255 300 255 323 240 323 240 300 Z" fill="rgba(0,0,0,0.5)" stroke="none" />
<path d="M255 300 270 300 270 323 255 323 255 300 Z" fill="rgba(0,0,0,0.5)" stroke="none" />
<path d="M270 300 285 300 285 323 270 323 270 300 Z" fill="rgba(0,0,0,0.5)" stroke="none" />
<path d="M285 300 300 300 300 323 285 323 285 300 Z" fill="rgba(0,0,0,0.5)" stroke="none" />
<path d="M0 323 15 323 15 346 0 346 0 323 Z" fill="rgba(0,0,0,0.5)" stroke="none" />
<path d="M15 323 30 323 30 346 15 346 15 323 Z" fill="rgba(0,0,0,0.5)" stroke="none" />
<path d="M30 323 45 323 45 346 30 346 30 323 Z" fill="rgba(0,0,0,0.5)" stroke="none" />
<path d="M45 323 60 323 60 346 45 346 45 323 Z" fill="rgba(62,62,62,0.5)" stroke="none" />
<path d="M60 323 75 323 75 346 60 346 60 323 Z" fill="rgba(145,145,145,0.5)" stroke="none" />
<path d="M75 323 90 323 90 346 75 346 75 323 Z" fill="rgba(99,99,99,0.5)" stroke="none" />
<path d="M90 323 105 323 105 346 90 346 90 323 Z" fill="rgba(91,91,91,0.5)" stroke="none" />
<path d="M105 323 120 323 120 346 105 346 105 323 Z" fill="rgba(109,109,109,0.5)" stroke="none" />
<path d="M120 323 135 323 135 346 120 346 120 323 Z" fill="rgba(121,121,121,0.5)" stroke="none" />
<path d="M135 323 150 323 150 346 135 346 135 323 Z" fill="rgba(73,73,73,0.5)" stroke="none" />
<path d="M150 323 165 323 165 346 150 346 150 323 Z" fill="rgba(58,58,58,0.5)" stroke="none" />
<path d="M165 323 180 323 180 346 165 346 165 323 Z" fill="rgba(64,64,64,0.5)" stroke="none" />
<path d="M180 323 195 323 195 346 180 346 180 323 Z" fill="rgba(59,59,59,0.5)" stroke="none" />
<path d="M195 323 210 323 210 346 195 346 195 323 Z" fill="rgba(111,111,111,0.5)" stroke="none" />
<path d="M210 323 225 323 225 346 210 346 210 323 Z" fill="rgba(87,87,87,0.5)" stroke="none" />
<path d="M225 323 240 323 240 346 225 346 225 323 Z" fill="rgba(15,15,15,0.5)" stroke="none" />
<path d="M240 323 255 323 255 346 240 346 240 323 Z" fill="rgba(0,0,0,0.5)" stroke="none" />
<path d="M255 323 270 323 270 346 255 346 255 323 Z" fill="rgba(0,0,0,0.5)" stroke="none" />
<path d="M270 323 285 323 285 346 270 346 270 323 Z" fill="rgba(0,0,0,0.5)" stroke="none" />
<path d="M285 323 300 323 300 346 285 346 285 323 Z" fill="rgba(0,0,0,0.5)" stroke="none" />
<path d="M0 346 15 346 15 369 0 369 0 346 Z" fill="rgba(0,0,0,0.5)" stroke="none" />
<path d="M15 346 30 346 30 369 15 369 15 346 Z" fill="rgba(0,0,0,0.5)" stroke="none" />
<path d="M30 346 45 346 45 369 30 369 30 346 Z" fill="rgba(0,0,0,0.5)" stroke="none" />
<path d="M45 346 60 346 60 369 45 369 45 346 Z" fill="rgba(68,68,68,0.5)" stroke="none" />
<path d="M60 346 75 346 75 369 60 369 60 346 Z" fill="rgba(180,180,180,0.5)" stroke="none" />
<path d="M75 346 90 346 90 369 75 369 75 346 Z" fill="rgba(68,68,68,0.5)" stroke="none" />
<path d="M90 346 105 346 105 369 90 369 90 346 Z" fill="rgba(101,101,101,0.5)" stroke="none" />
<path d="M105 346 120 346 120 369 105 369 105 346 Z" fill="rgba(131,131,131,0.5)" stroke="none" />
<path d="M120 346 135 346 135 369 120 369 120 346 Z" fill="rgba(117,117,117,0.5)" stroke="none" />
<path d="M135 346 150 346 150 369 135 369 135 346 Z" fill="rgba(93,93,93,0.5)" stroke="none" />
<path d="M150 346 165 346 165 369 150 369 150 346 Z" fill="rgba(84,84,84,0.5)" stroke="none" />
<path d="M165 346 180 346 180 369 165 369 165 346 Z" fill="rgba(100,100,100,0.5)" stroke="none" />
<path d="M180 346 195 346 195 369 180 369 180 346 Z" fill="rgba(95,95,95,0.5)" stroke="none" />
<path d="M195 346 210 346 210 369 195 369 195 346 Z" fill="rgba(70,70,70,0.5)" stroke="none" />
<path d="M210 346 225 346 225 369 210 369 210 346 Z" fill="rgba(24,24,24,0.5)" stroke="none" />
<path d="M225 346 240 346 240 369 225 369 225 346 Z" fill="rgba(2,2,2,0.5)" stroke="none" />
<path d="M240 346 255 346 255 369 240 369 240 346 Z" fill="rgba(0,0,0,0.5)" stroke="none" />
<path d="M255 346 270 346 270 369 255 369 255 346 Z" fill="rgba(0,0,0,0.5)" stroke="none" />
<path d="M270 346 285 346 285 369 270 369 270 346 Z" fill="rgba(0,0,0,0.5)" stroke="none" />
<path d="M285 346 300 346 300 369 285 369 285 346 Z" fill="rgba(0,0,0,0.5)" stroke="none" />
<path d="M0 369 15 369 15 392 0 392 0 369 Z" fill="rgba(0,0,0,0.5)" stroke="none" />
<path d="M15 369 30 369 30 392 15 392 15 369 Z" fill="rgba(0,0,0,0.5)" stroke="none" />
<path d="M30 369 45 369 45 392 30 392 30 369 Z" fill="rgba(0,0,0,0.5)" stroke="none" />
<path d="M45 369 60 369 60 392 45 392 45 369 Z" fill="rgba(56,56,56,0.5)" stroke="none" />
<path d="M60 369 75 369 75 392 60 392 60 369 Z" fill="rgba(189,189,189,0.5)" stroke="none" />
<path d="M75 369 90 369 90 392 75 392 75 369 Z" fill="rgba(152,152,152,0.5)" stroke="none" />
<path d="M90 369 105 369 105 392 90 392 90 369 Z" fill="rgba(108,108,108,0.5)" stroke="none" />
<path d="M105 369 120 369 120 392 105 392 105 369 Z" fill="rgba(132,132,132,0.5)" stroke="none" />
<path d="M120 369 135 369 135 392 120 392 120 369 Z" fill="rgba(128,128,128,0.5)" stroke="none" />
<path d="M135 369 150 369 150 392 135 392 135 369 Z" fill="rgba(79,79,79,0.5)" stroke="none" />
<path d="M150 369 165 369 165 392 150 392 150 369 Z" fill="rgba(81,81,81,0.5)" stroke="none" />
<path d="M165 369 180 369 180 392 165 392 165 369 Z" fill="rgba(90,90,90,0.5)" stroke="none" />
<path d="M180 369 195 369 195 392 180 392 180 369 Z" fill="rgba(79,79,79,0.5)" stroke="none" />
<path d="M195 369 210 369 210 392 195 392 195 369 Z" fill="rgba(126,126,126,0.5)" stroke="none" />
<path d="M210 369 225 369 225 392 210 392 210 369 Z" fill="rgba(27,27,27,0.5)" stroke="none" />
<path d="M225 369 240 369 240 392 225 392 225 369 Z" fill="rgba(0,0,0,0.5)" stroke="none" />
<path d="M240 369 255 369 255 392 240 392 240 369 Z" fill="rgba(0,0,0,0.5)" stroke="none" />
<path d="M255 369 270 369 270 392 255 392 255 369 Z" fill="rgba(0,0,0,0.5)" stroke="none" />
<path d="M270 369 285 369 285 392 270 392 270 369 Z" fill="rgba(0,0,0,0.5)" stroke="none" />
<path d="M285 369 300 369 300 392 285 392 285 369 Z" fill="rgba(0,0,0,0.5)" stroke="none" />
<path d="M0 392 15 392 15 415 0 415 0 392 Z" fill="rgba(0,0,0,0.5)" stroke="none" />
<path d="M15 392 30 392 30 415 15 415 15 392 Z" fill="rgba(0,0,0,0.5)" stroke="none" />
<path d="M30 392 45 392 45 415 30 415 30 392 Z" fill="rgba(0,0,0,0.5)" stroke="none" />
<path d="M45 392 60 392 60 415 45 415 45 392 Z" fill="rgba(42,42,42,0.5)" stroke="none" />
<path d="M60 392 75 392 75 415 60 415 60 392 Z" fill="rgba(189,189,189,0.5)" stroke="none" />
<path d="M75 392 90 392 90 415 75 415 75 392 Z" fill="rgba(178,178,178,0.5)" stroke="none" />
<path d="M90 392 105 392 105 415 90 415 90 392 Z" fill="rgba(123,123,123,0.5)" stroke="none" />
<path d="M105 392 120 392 120 415 105 415 105 392 Z" fill="rgba(74,74,74,0.5)" stroke="none" />
<path d="M120 392 135 392 135 415 120 415 120 392 Z" fill="rgba(74,74,74,0.5)" stroke="none" />
<path d="M135 392 150 392 150 415 135 415 135 392 Z" fill="rgba(71,71,71,0.5)" stroke="none" />
<path d="M150 392 165 392 165 415 150 415 150 392 Z" fill="rgba(60,60,60,0.5)" stroke="none" />
<path d="M165 392 180 392 180 415 165 415 165 392 Z" fill="rgba(52,52,52,0.5)" stroke="none" />
<path d="M180 392 195 392 195 415 180 415 180 392 Z" fill="rgba(88,88,88,0.5)" stroke="none" />
<path d="M195 392 210 392 210 415 195 415 195 392 Z" fill="rgba(163,163,163,0.5)" stroke="none" />
<path d="M210 392 225 392 225 415 210 415 210 392 Z" fill="rgba(35,35,35,0.5)" stroke="none" />
<path d="M225 392 240 392 240 415 225 415 225 392 Z" fill="rgba(0,0,0,0.5)" stroke="none" />
<path d="M240 392 255 392 255 415 240 415 240 392 Z" fill="rgba(0,0,0,0.5)" stroke="none" />
<path d="M255 392 270 392 270 415 255 415 255 392 Z" fill="rgba(0,0,0,0.5)" stroke="none" />
<path d="M270 392 285 392 285 415 270 415 270 392 Z" fill="rgba(0,0,0,0.5)" stroke="none" />
<path d="M285 392 300 392 300 415 285 415 285 392 Z" fill="rgba(0,0,0,0.5)" stroke="none" />
<path d="M0 415 15 415 15 438 0 438 0 415 Z" fill="rgba(0,0,0,0.5)" stroke="none" />
<path d="M15 415 30 415 30 438 15 438 15 415 Z" fill="rgba(0,0,0,0.5)" stroke="none" />
<path d="M30 415 45 415 45 438 30 438 30 415 Z" fill="rgba(0,0,0,0.5)" stroke="none" />
<path d="M45 415 60 415 60 438 45 438 45 415 Z" fill="rgba(26,26,26,0.5)" stroke="none" />
<path d="M60 415 75 415 75 438 60 438 60 415 Z" fill="rgba(179,179,179,0.5)" stroke="none" />
<path d="M75 415 90 415 90 438 75 438 75 415 Z" fill="rgba(157,157,157,0.5)" stroke="none" />
<path d="M90 415 105 415 105 438 90 438 90 415 Z" fill="rgba(131,131,131,0.5)" stroke="none" />
<path d="M105 415 120 415 120 438 105 438 105 415 Z" fill="rgba(95,95,95,0.5)" stroke="none" />
<path d="M120 415 135 415 135 438 120 438 120 415 Z" fill="rgba(51,51,51,0.5)" stroke="none" />
<path d="M135 415 150 415 150 438 135 438 135 415 Z" fill="rgba(43,43,43,0.5)" stroke="none" />
<path d="M150 415 165 415 165 438 150 438 150 415 Z" fill="rgba(38,38,38,0.5)" stroke="none" />
<path d="M165 415 180 415 180 438 165 438 165 415 Z" fill="rgba(66,66,66,0.5)" stroke="none" />
<path d="M180 415 195 415 195 438 180 438 180 415 Z" fill="rgba(106,106,106,0.5)" stroke="none" />
<path d="M195 415 210 415 210 438 195 438 195 415 Z" fill="rgba(131,131,131,0.5)" stroke="none" />
<path d="M210 415 225 415 225 438 210 438 210 415 Z" fill="rgba(27,27,27,0.5)" stroke="none" />
<path d="M225 415 240 415 240 438 225 438 225 415 Z" fill="rgba(0,0,0,0.5)" stroke="none" />
<path d="M240 415 255 415 255 438 240 438 240 415 Z" fill="rgba(0,0,0,0.5)" stroke="none" />
<path d="M255 415 270 415 270 438 255 438 255 415 Z" fill="rgba(0,0,0,0.5)" stroke="none" />
<path d="M270 415 285 415 285 438 270 438 270 415 Z" fill="rgba(0,0,0,0.5)" stroke="none" />
<path d="M285 415 300 415 300 438 285 438 285 415 Z" fill="rgba(0,0,0,0.5)" stroke="none" />
<path d="M0 438 15 438 15 461 0 461 0 438 Z" fill="rgba(0,0,0,0.5)" stroke="none" />
<path d="M15 438 30 438 30 461 15 461 15 438 Z" fill="rgba(0,0,0,0.5)" stroke="none" />
<path d="M30 438 45 438 45 461 30 461 30 438 Z" fill="rgba(0,0,0,0.5)" stroke="none" />
<path d="M45 438 60 438 60 461 45 461 45 438 Z" fill="rgba(10,10,10,0.5)" stroke="none" />
<path d="M60 438 75 438 75 461 60 461 60 438 Z" fill="rgba(169,169,169,0.5)" stroke="none" />
<path d="M75 438 90 438 90 461 75 461 75 438 Z" fill="rgba(150,150,150,0.5)" stroke="none" />
<path d="M90 438 105 438 105 461 90 461 90 438 Z" fill="rgba(132,132,132,0.5)" stroke="none" />
<path d="M105 438 120 438 120 461 105 461 105 438 Z" fill="rgba(110,110,110,0.5)" stroke="none" />
<path d="M120 438 135 438 135 461 120 461 120 438 Z" fill="rgba(85,85,85,0.5)" stroke="none" />
<path d="M135 438 150 438 150 461 135 461 135 438 Z" fill="rgba(83,83,83,0.5)" stroke="none" />
<path d="M150 438 165 438 165 461 150 461 150 438 Z" fill="rgba(70,70,70,0.5)" stroke="none" />
<path d="M165 438 180 438 180 461 165 461 165 438 Z" fill="rgba(82,82,82,0.5)" stroke="none" />
<path d="M180 438 195 438 195 461 180 461 180 438 Z" fill="rgba(110,110,110,0.5)" stroke="none" />
<path d="M195 438 210 438 210 461 195 461 195 438 Z" fill="rgba(49,49,49,0.5)" stroke="none" />
<path d="M210 438 225 438 225 461 210 461 210 438 Z" fill="rgba(6,6,6,0.5)" stroke="none" />
<path d="M225 438 240 438 240 461 225 461 225 438 Z" fill="rgba(0,0,0,0.5)" stroke="none" />
<path d="M240 438 255 438 255 461 240 461 240 438 Z" fill="rgba(0,0,0,0.5)" stroke="none" />
<path d="M255 438 270 438 270 461 255 461 255 438 Z" fill="rgba(0,0,0,0.5)" stroke="none" />
<path d="M270 438 285 438 285 461 270 461 270 438 Z" fill="rgba(0,0,0,0.5)" stroke="none" />
<path d="M285 438 300 438 300 461 285 461 285 438 Z" fill="rgba(0,0,0,0.5)" stroke="none" />
</svg>