<svg width="100%" height="100%" version="1.1" xmlns="http://www.w3.org/2000/svg"> 
<path d="M154 484 175 498 Z" fill="none" stroke="black" stroke-width="1.000000" />
<path d="M22 469 28 476 29 486 50 498 30 484 27 472 Z" fill="none" stroke="black" stroke-width="1.297389" />
<path d="M164 498 145 488 140 482 148 474 149 465 147 473 137 483 129 480 69 485 58 498 70 486 99 484 106 480 139 483 156 496 Z" fill="none" stroke="black" stroke-width="2.304299" />
<path d="M103 465 89 469 64 484 Z" fill="none" stroke="black" stroke-width="1.099902" />
<path d="M337 435 335 434 313 457 282 476 269 479 209 477 173 456 168 447 162 442 161 444 180 463 208 477 270 479 303 466 Z" fill="none" stroke="black" stroke-width="2.818158" />
<path d="M123 392 129 396 139 413 127 419 134 418 131 423 136 420 140 411 130 396 Z" fill="none" stroke="black" stroke-width="1.333733" />
<path d="M93 389 83 416 81 430 89 446 111 453 132 432 148 425 137 427 111 451 95 449 85 440 82 431 85 422 83 416 92 400 Z" fill="none" stroke="black" stroke-width="2.220012" />
<path d="M189 358 192 365 191 358 226 352 238 355 274 355 302 362 281 355 238 354 226 351 209 352 Z" fill="none" stroke="black" stroke-width="2.063770" />
<path d="M0 350 2 392 6 408 12 412 12 444 20 461 19 466 12 468 12 473 22 480 24 490 37 498 24 488 22 479 13 472 14 468 20 467 20 460 13 444 13 412 6 405 6 398 2 392 Z" fill="none" stroke="black" stroke-width="2.482365" />
<path d="M238 327 237 331 240 326 247 326 250 329 245 336 240 332 243 337 249 336 252 331 249 326 Z" fill="none" stroke="black" stroke-width="1.186755" />
<path d="M430 311 424 325 425 340 419 363 423 360 421 352 426 340 425 326 Z" fill="none" stroke="black" stroke-width="1.373509" />
<path d="M391 293 387 291 384 294 381 314 384 324 378 334 378 350 370 381 348 428 349 431 349 423 365 397 374 363 379 355 379 334 387 325 382 319 385 295 389 293 396 311 386 351 377 422 371 435 356 445 348 441 346 460 326 476 309 483 241 497 213 498 269 493 309 484 340 468 346 462 347 449 350 445 357 446 369 439 378 424 392 324 397 314 Z" fill="none" stroke="black" stroke-width="6.000000" />
<path d="M287 287 278 301 260 303 279 301 Z" fill="none" stroke="black" stroke-width="1.154752" />
<path d="M278 285 266 282 249 286 257 285 262 291 267 291 273 287 262 290 260 284 268 282 Z" fill="none" stroke="black" stroke-width="1.317131" />
<path d="M208 282 212 287 209 282 212 280 227 286 222 292 224 297 224 292 235 286 219 281 Z" fill="none" stroke="black" stroke-width="1.293306" />
<path d="M423 268 420 283 410 300 396 340 384 425 381 430 381 438 385 441 404 413 411 388 423 365 417 371 417 378 411 387 403 412 398 416 386 440 382 437 391 364 410 301 420 286 Z" fill="none" stroke="black" stroke-width="3.653510" />
<path d="M273 251 288 265 293 283 299 291 289 264 Z" fill="none" stroke="black" stroke-width="1.285242" />
<path d="M1 239 3 250 0 252 0 261 4 265 5 281 0 294 6 282 5 266 1 260 Z" fill="none" stroke="black" stroke-width="1.382943" />
<path d="M221 221 209 241 210 246 196 267 196 274 197 266 210 249 211 240 222 224 Z" fill="none" stroke="black" stroke-width="1.504795" />
<path d="M480 219 476 241 462 283 459 318 449 332 447 362 432 370 419 410 412 416 410 414 414 407 412 410 410 405 412 412 402 424 388 457 379 464 368 483 358 493 346 498 359 494 388 458 399 434 400 442 388 464 375 481 356 498 362 496 375 483 400 446 401 436 406 427 420 411 432 371 448 362 448 341 451 330 459 320 463 283 469 259 473 254 Z" fill="none" stroke="black" stroke-width="5.228896" />
<path d="M104 214 102 246 108 263 105 273 108 263 103 245 Z" fill="none" stroke="black" stroke-width="1.348290" />
<path d="M322 203 314 202 314 198 302 199 295 203 294 211 289 207 294 201 286 208 294 213 311 215 310 201 320 207 Z" fill="none" stroke="black" stroke-width="1.497895" />
<path d="M153 203 167 211 177 211 174 205 175 198 174 204 171 204 175 211 170 211 158 202 172 196 Z" fill="none" stroke="black" stroke-width="1.362500" />
<path d="M306 195 336 196 349 204 344 205 338 201 333 203 338 202 345 207 350 203 359 209 356 204 337 196 Z" fill="none" stroke="black" stroke-width="1.514242" />
<path d="M277 205 284 193 302 189 329 189 348 195 329 188 302 188 283 193 Z" fill="none" stroke="black" stroke-width="1.653787" />
<path d="M209 191 201 186 174 185 153 190 147 201 138 208 148 202 153 191 163 188 201 187 Z" fill="none" stroke="black" stroke-width="1.697141" />
<path d="M101 177 106 196 93 207 106 198 106 189 Z" fill="none" stroke="black" stroke-width="1.196001" />
<path d="M213 171 199 177 174 173 158 177 175 174 200 177 Z" fill="none" stroke="black" stroke-width="1.401450" />
<path d="M435 157 433 158 436 159 437 165 429 171 421 185 422 197 427 177 434 168 439 168 Z" fill="none" stroke="black" stroke-width="1.332134" />
<path d="M267 174 277 179 281 176 306 179 335 173 349 177 334 173 306 178 292 178 282 174 277 178 269 174 272 158 280 161 274 156 271 157 Z" fill="none" stroke="black" stroke-width="1.974226" />
<path d="M326 150 298 152 285 171 301 151 Z" fill="none" stroke="black" stroke-width="1.278285" />
<path d="M155 144 166 150 196 153 204 162 210 164 205 157 215 160 213 157 201 157 194 152 181 153 Z" fill="none" stroke="black" stroke-width="1.497971" />
<path d="M403 135 399 141 396 163 394 250 386 275 388 278 392 255 395 252 393 238 397 216 397 171 400 162 407 165 398 160 Z" fill="none" stroke="black" stroke-width="2.392555" />
<path d="M384 0 419 38 438 75 462 109 468 128 472 132 480 181 473 131 468 125 463 108 431 62 420 37 Z" fill="none" stroke="black" stroke-width="2.861291" />
<path d="M284 0 292 6 325 8 334 18 340 36 364 52 377 57 381 62 379 64 383 82 400 127 412 143 421 145 413 142 400 124 384 82 386 78 380 64 382 62 378 56 350 43 336 25 334 16 337 7 349 5 353 9 360 9 364 3 371 0 362 3 358 8 350 4 336 6 333 12 332 8 323 3 290 0 324 5 292 5 Z" fill="none" stroke="black" stroke-width="4.109546" />
<path d="M201 0 218 3 240 1 218 3 Z" fill="none" stroke="black" stroke-width="1.195765" />
<path d="M184 1 177 0 160 8 159 15 141 32 139 55 120 79 113 106 92 141 76 147 63 156 52 158 36 170 3 204 4 226 0 232 5 226 3 206 38 170 53 159 63 157 83 145 87 145 89 149 53 172 47 180 49 184 33 195 35 198 36 194 50 185 49 179 55 172 90 149 88 145 93 142 95 136 97 138 92 147 95 146 117 109 124 82 143 58 146 30 159 17 162 8 173 2 178 2 178 5 Z" fill="none" stroke="black" stroke-width="5.344362" />
<path d="M116 101 116 108 105 127 105 121 Z" fill="none" stroke="black" stroke-width="1.052533" />
<path d="M132 68 123 81 120 92 120 81 Z" fill="none" stroke="black" stroke-width="1.070153" />
<path d="M144 33 143 55 138 62 Z" fill="none" stroke="black" stroke-width="1.029124" />

<path d="M0 0 23 0 23 35 0 35 0 0 Z" fill="rgba(0,0,0,0.5)" stroke="none" />
<path d="M23 0 46 0 46 35 23 35 23 0 Z" fill="rgba(0,0,0,0.5)" stroke="none" />
<path d="M46 0 69 0 69 35 46 35 46 0 Z" fill="rgba(0,0,0,0.5)" stroke="none" />
<path d="M69 0 92 0 92 35 69 35 69 0 Z" fill="rgba(0,0,0,0.5)" stroke="none" />
<path d="M92 0 115 0 115 35 92 35 92 0 Z" fill="rgba(0,0,0,0.5)" stroke="none" />
<path d="M115 0 138 0 138 35 115 35 115 0 Z" fill="rgba(0,0,0,0.5)" stroke="none" />
<path d="M138 0 161 0 161 35 138 35 138 0 Z" fill="rgba(21,21,21,0.5)" stroke="none" />
<path d="M161 0 184 0 184 35 161 35 161 0 Z" fill="rgba(18,18,18,0.5)" stroke="none" />
<path d="M184 0 207 0 207 35 184 35 184 0 Z" fill="rgba(19,19,19,0.5)" stroke="none" />
<path d="M207 0 230 0 230 35 207 35 207 0 Z" fill="rgba(30,30,30,0.5)" stroke="none" />
<path d="M230 0 253 0 253 35 230 35 230 0 Z" fill="rgba(27,27,27,0.5)" stroke="none" />
<path d="M253 0 276 0 276 35 253 35 253 0 Z" fill="rgba(25,25,25,0.5)" stroke="none" />
<path d="M276 0 299 0 299 35 276 35 276 0 Z" fill="rgba(29,29,29,0.5)" stroke="none" />
<path d="M299 0 322 0 322 35 299 35 299 0 Z" fill="rgba(129,129,129,0.5)" stroke="none" />
<path d="M322 0 345 0 345 35 322 35 322 0 Z" fill="rgba(217,217,217,0.5)" stroke="none" />
<path d="M345 0 368 0 368 35 345 35 345 0 Z" fill="rgba(218,218,218,0.5)" stroke="none" />
<path d="M368 0 391 0 391 35 368 35 368 0 Z" fill="rgba(126,126,126,0.5)" stroke="none" />
<path d="M391 0 414 0 414 35 391 35 391 0 Z" fill="rgba(0,0,0,0.5)" stroke="none" />
<path d="M414 0 437 0 437 35 414 35 414 0 Z" fill="rgba(0,0,0,0.5)" stroke="none" />
<path d="M437 0 460 0 460 35 437 35 437 0 Z" fill="rgba(0,0,0,0.5)" stroke="none" />
<path d="M0 35 23 35 23 70 0 70 0 35 Z" fill="rgba(0,0,0,0.5)" stroke="none" />
<path d="M23 35 46 35 46 70 23 70 23 35 Z" fill="rgba(0,0,0,0.5)" stroke="none" />
<path d="M46 35 69 35 69 70 46 70 46 35 Z" fill="rgba(0,0,0,0.5)" stroke="none" />
<path d="M69 35 92 35 92 70 69 70 69 35 Z" fill="rgba(0,0,0,0.5)" stroke="none" />
<path d="M92 35 115 35 115 70 92 70 92 35 Z" fill="rgba(0,0,0,0.5)" stroke="none" />
<path d="M115 35 138 35 138 70 115 70 115 35 Z" fill="rgba(0,0,0,0.5)" stroke="none" />
<path d="M138 35 161 35 161 70 138 70 138 35 Z" fill="rgba(17,17,17,0.5)" stroke="none" />
<path d="M161 35 184 35 184 70 161 70 161 35 Z" fill="rgba(37,37,37,0.5)" stroke="none" />
<path d="M184 35 207 35 207 70 184 70 184 35 Z" fill="rgba(41,41,41,0.5)" stroke="none" />
<path d="M207 35 230 35 230 70 207 70 207 35 Z" fill="rgba(31,31,31,0.5)" stroke="none" />
<path d="M230 35 253 35 253 70 230 70 230 35 Z" fill="rgba(39,39,39,0.5)" stroke="none" />
<path d="M253 35 276 35 276 70 253 70 253 35 Z" fill="rgba(45,45,45,0.5)" stroke="none" />
<path d="M276 35 299 35 299 70 276 70 276 35 Z" fill="rgba(32,32,32,0.5)" stroke="none" />
<path d="M299 35 322 35 322 70 299 70 299 35 Z" fill="rgba(31,31,31,0.5)" stroke="none" />
<path d="M322 35 345 35 345 70 322 70 322 35 Z" fill="rgba(118,118,118,0.5)" stroke="none" />
<path d="M345 35 368 35 368 70 345 70 345 35 Z" fill="rgba(208,208,208,0.5)" stroke="none" />
<path d="M368 35 391 35 391 70 368 70 368 35 Z" fill="rgba(210,210,210,0.5)" stroke="none" />
<path d="M391 35 414 35 414 70 391 70 391 35 Z" fill="rgba(126,126,126,0.5)" stroke="none" />
<path d="M414 35 437 35 437 70 414 70 414 35 Z" fill="rgba(0,0,0,0.5)" stroke="none" />
<path d="M437 35 460 35 460 70 437 70 437 35 Z" fill="rgba(0,0,0,0.5)" stroke="none" />
<path d="M0 70 23 70 23 106 0 106 0 70 Z" fill="rgba(0,0,0,0.5)" stroke="none" />
<path d="M23 70 46 70 46 106 23 106 23 70 Z" fill="rgba(0,0,0,0.5)" stroke="none" />
<path d="M46 70 69 70 69 106 46 106 46 70 Z" fill="rgba(0,0,0,0.5)" stroke="none" />
<path d="M69 70 92 70 92 106 69 106 69 70 Z" fill="rgba(0,0,0,0.5)" stroke="none" />
<path d="M92 70 115 70 115 106 92 106 92 70 Z" fill="rgba(0,0,0,0.5)" stroke="none" />
<path d="M115 70 138 70 138 106 115 106 115 70 Z" fill="rgba(55,55,55,0.5)" stroke="none" />
<path d="M138 70 161 70 161 106 138 106 138 70 Z" fill="rgba(73,73,73,0.5)" stroke="none" />
<path d="M161 70 184 70 184 106 161 106 161 70 Z" fill="rgba(99,99,99,0.5)" stroke="none" />
<path d="M184 70 207 70 207 106 184 106 184 70 Z" fill="rgba(127,127,127,0.5)" stroke="none" />
<path d="M207 70 230 70 230 106 207 106 207 70 Z" fill="rgba(120,120,120,0.5)" stroke="none" />
<path d="M230 70 253 70 253 106 230 106 230 70 Z" fill="rgba(131,131,131,0.5)" stroke="none" />
<path d="M253 70 276 70 276 106 253 106 253 70 Z" fill="rgba(126,126,126,0.5)" stroke="none" />
<path d="M276 70 299 70 299 106 276 106 276 70 Z" fill="rgba(117,117,117,0.5)" stroke="none" />
<path d="M299 70 322 70 322 106 299 106 299 70 Z" fill="rgba(97,97,97,0.5)" stroke="none" />
<path d="M322 70 345 70 345 106 322 106 322 70 Z" fill="rgba(59,59,59,0.5)" stroke="none" />
<path d="M345 70 368 70 368 106 345 106 345 70 Z" fill="rgba(114,114,114,0.5)" stroke="none" />
<path d="M368 70 391 70 391 106 368 106 368 70 Z" fill="rgba(217,217,217,0.5)" stroke="none" />
<path d="M391 70 414 70 414 106 391 106 391 70 Z" fill="rgba(134,134,134,0.5)" stroke="none" />
<path d="M414 70 437 70 437 106 414 106 414 70 Z" fill="rgba(0,0,0,0.5)" stroke="none" />
<path d="M437 70 460 70 460 106 437 106 437 70 Z" fill="rgba(0,0,0,0.5)" stroke="none" />
<path d="M0 106 23 106 23 141 0 141 0 106 Z" fill="rgba(0,0,0,0.5)" stroke="none" />
<path d="M23 106 46 106 46 141 23 141 23 106 Z" fill="rgba(0,0,0,0.5)" stroke="none" />
<path d="M46 106 69 106 69 141 46 141 46 106 Z" fill="rgba(0,0,0,0.5)" stroke="none" />
<path d="M69 106 92 106 92 141 69 141 69 106 Z" fill="rgba(0,0,0,0.5)" stroke="none" />
<path d="M92 106 115 106 115 141 92 141 92 106 Z" fill="rgba(0,0,0,0.5)" stroke="none" />
<path d="M115 106 138 106 138 141 115 141 115 106 Z" fill="rgba(23,23,23,0.5)" stroke="none" />
<path d="M138 106 161 106 161 141 138 141 138 106 Z" fill="rgba(78,78,78,0.5)" stroke="none" />
<path d="M161 106 184 106 184 141 161 141 161 106 Z" fill="rgba(137,137,137,0.5)" stroke="none" />
<path d="M184 106 207 106 207 141 184 141 184 106 Z" fill="rgba(165,165,165,0.5)" stroke="none" />
<path d="M207 106 230 106 230 141 207 141 207 106 Z" fill="rgba(171,171,171,0.5)" stroke="none" />
<path d="M230 106 253 106 253 141 230 141 230 106 Z" fill="rgba(174,174,174,0.5)" stroke="none" />
<path d="M253 106 276 106 276 141 253 141 253 106 Z" fill="rgba(173,173,173,0.5)" stroke="none" />
<path d="M276 106 299 106 299 141 276 141 276 106 Z" fill="rgba(170,170,170,0.5)" stroke="none" />
<path d="M299 106 322 106 322 141 299 141 299 106 Z" fill="rgba(154,154,154,0.5)" stroke="none" />
<path d="M322 106 345 106 345 141 322 141 322 106 Z" fill="rgba(96,96,96,0.5)" stroke="none" />
<path d="M345 106 368 106 368 141 345 141 345 106 Z" fill="rgba(83,83,83,0.5)" stroke="none" />
<path d="M368 106 391 106 391 141 368 141 368 106 Z" fill="rgba(169,169,169,0.5)" stroke="none" />
<path d="M391 106 414 106 414 141 391 141 391 106 Z" fill="rgba(210,210,210,0.5)" stroke="none" />
<path d="M414 106 437 106 437 141 414 141 414 106 Z" fill="rgba(125,125,125,0.5)" stroke="none" />
<path d="M437 106 460 106 460 141 437 141 437 106 Z" fill="rgba(0,0,0,0.5)" stroke="none" />
<path d="M0 141 23 141 23 176 0 176 0 141 Z" fill="rgba(0,0,0,0.5)" stroke="none" />
<path d="M23 141 46 141 46 176 23 176 23 141 Z" fill="rgba(0,0,0,0.5)" stroke="none" />
<path d="M46 141 69 141 69 176 46 176 46 141 Z" fill="rgba(0,0,0,0.5)" stroke="none" />
<path d="M69 141 92 141 92 176 69 176 69 141 Z" fill="rgba(0,0,0,0.5)" stroke="none" />
<path d="M92 141 115 141 115 176 92 176 92 141 Z" fill="rgba(76,76,76,0.5)" stroke="none" />
<path d="M115 141 138 141 138 176 115 176 115 141 Z" fill="rgba(54,54,54,0.5)" stroke="none" />
<path d="M138 141 161 141 161 176 138 176 138 141 Z" fill="rgba(64,64,64,0.5)" stroke="none" />
<path d="M161 141 184 141 184 176 161 176 161 141 Z" fill="rgba(127,127,127,0.5)" stroke="none" />
<path d="M184 141 207 141 207 176 184 176 184 141 Z" fill="rgba(163,163,163,0.5)" stroke="none" />
<path d="M207 141 230 141 230 176 207 176 207 141 Z" fill="rgba(185,185,185,0.5)" stroke="none" />
<path d="M230 141 253 141 253 176 230 176 230 141 Z" fill="rgba(194,194,194,0.5)" stroke="none" />
<path d="M253 141 276 141 276 176 253 176 253 141 Z" fill="rgba(185,185,185,0.5)" stroke="none" />
<path d="M276 141 299 141 299 176 276 176 276 141 Z" fill="rgba(173,173,173,0.5)" stroke="none" />
<path d="M299 141 322 141 322 176 299 176 299 141 Z" fill="rgba(164,164,164,0.5)" stroke="none" />
<path d="M322 141 345 141 345 176 322 176 322 141 Z" fill="rgba(129,129,129,0.5)" stroke="none" />
<path d="M345 141 368 141 368 176 345 176 345 141 Z" fill="rgba(73,73,73,0.5)" stroke="none" />
<path d="M368 141 391 141 391 176 368 176 368 141 Z" fill="rgba(125,125,125,0.5)" stroke="none" />
<path d="M391 141 414 141 414 176 391 176 391 141 Z" fill="rgba(220,220,220,0.5)" stroke="none" />
<path d="M414 141 437 141 437 176 414 176 414 141 Z" fill="rgba(199,199,199,0.5)" stroke="none" />
<path d="M437 141 460 141 460 176 437 176 437 141 Z" fill="rgba(121,121,121,0.5)" stroke="none" />
<path d="M0 176 23 176 23 212 0 212 0 176 Z" fill="rgba(0,0,0,0.5)" stroke="none" />
<path d="M23 176 46 176 46 212 23 212 23 176 Z" fill="rgba(0,0,0,0.5)" stroke="none" />
<path d="M46 176 69 176 69 212 46 212 46 176 Z" fill="rgba(0,0,0,0.5)" stroke="none" />
<path d="M69 176 92 176 92 212 69 212 69 176 Z" fill="rgba(0,0,0,0.5)" stroke="none" />
<path d="M92 176 115 176 115 212 92 212 92 176 Z" fill="rgba(35,35,35,0.5)" stroke="none" />
<path d="M115 176 138 176 138 212 115 212 115 176 Z" fill="rgba(66,66,66,0.5)" stroke="none" />
<path d="M138 176 161 176 161 212 138 212 138 176 Z" fill="rgba(89,89,89,0.5)" stroke="none" />
<path d="M161 176 184 176 184 212 161 212 161 176 Z" fill="rgba(149,149,149,0.5)" stroke="none" />
<path d="M184 176 207 176 207 212 184 212 184 176 Z" fill="rgba(188,188,188,0.5)" stroke="none" />
<path d="M207 176 230 176 230 212 207 212 207 176 Z" fill="rgba(201,201,201,0.5)" stroke="none" />
<path d="M230 176 253 176 253 212 230 212 230 176 Z" fill="rgba(202,202,202,0.5)" stroke="none" />
<path d="M253 176 276 176 276 212 253 212 253 176 Z" fill="rgba(200,200,200,0.5)" stroke="none" />
<path d="M276 176 299 176 299 212 276 212 276 176 Z" fill="rgba(188,188,188,0.5)" stroke="none" />
<path d="M299 176 322 176 322 212 299 212 299 176 Z" fill="rgba(163,163,163,0.5)" stroke="none" />
<path d="M322 176 345 176 345 212 322 212 322 176 Z" fill="rgba(136,136,136,0.5)" stroke="none" />
<path d="M345 176 368 176 368 212 345 212 345 176 Z" fill="rgba(85,85,85,0.5)" stroke="none" />
<path d="M368 176 391 176 391 212 368 212 368 176 Z" fill="rgba(108,108,108,0.5)" stroke="none" />
<path d="M391 176 414 176 414 212 391 212 391 176 Z" fill="rgba(201,201,201,0.5)" stroke="none" />
<path d="M414 176 437 176 437 212 414 212 414 176 Z" fill="rgba(200,200,200,0.5)" stroke="none" />
<path d="M437 176 460 176 460 212 437 212 437 176 Z" fill="rgba(146,146,146,0.5)" stroke="none" />
<path d="M0 212 23 212 23 247 0 247 0 212 Z" fill="rgba(0,0,0,0.5)" stroke="none" />
<path d="M23 212 46 212 46 247 23 247 23 212 Z" fill="rgba(0,0,0,0.5)" stroke="none" />
<path d="M46 212 69 212 69 247 46 247 46 212 Z" fill="rgba(169,169,169,0.5)" stroke="none" />
<path d="M69 212 92 212 92 247 69 247 69 212 Z" fill="rgba(131,131,131,0.5)" stroke="none" />
<path d="M92 212 115 212 115 247 92 247 92 212 Z" fill="rgba(49,49,49,0.5)" stroke="none" />
<path d="M115 212 138 212 138 247 115 247 115 212 Z" fill="rgba(45,45,45,0.5)" stroke="none" />
<path d="M138 212 161 212 161 247 138 247 138 212 Z" fill="rgba(53,53,53,0.5)" stroke="none" />
<path d="M161 212 184 212 184 247 161 247 161 212 Z" fill="rgba(72,72,72,0.5)" stroke="none" />
<path d="M184 212 207 212 207 247 184 247 184 212 Z" fill="rgba(125,125,125,0.5)" stroke="none" />
<path d="M207 212 230 212 230 247 207 247 207 212 Z" fill="rgba(189,189,189,0.5)" stroke="none" />
<path d="M230 212 253 212 253 247 230 247 230 212 Z" fill="rgba(206,206,206,0.5)" stroke="none" />
<path d="M253 212 276 212 276 247 253 247 253 212 Z" fill="rgba(183,183,183,0.5)" stroke="none" />
<path d="M276 212 299 212 299 247 276 247 276 212 Z" fill="rgba(123,123,123,0.5)" stroke="none" />
<path d="M299 212 322 212 322 247 299 247 299 212 Z" fill="rgba(80,80,80,0.5)" stroke="none" />
<path d="M322 212 345 212 345 247 322 247 322 212 Z" fill="rgba(73,73,73,0.5)" stroke="none" />
<path d="M345 212 368 212 368 247 345 247 345 212 Z" fill="rgba(62,62,62,0.5)" stroke="none" />
<path d="M368 212 391 212 391 247 368 247 368 212 Z" fill="rgba(111,111,111,0.5)" stroke="none" />
<path d="M391 212 414 212 414 247 391 247 391 212 Z" fill="rgba(194,194,194,0.5)" stroke="none" />
<path d="M414 212 437 212 437 247 414 247 414 212 Z" fill="rgba(195,195,195,0.5)" stroke="none" />
<path d="M437 212 460 212 460 247 437 247 437 212 Z" fill="rgba(146,146,146,0.5)" stroke="none" />
<path d="M0 247 23 247 23 283 0 283 0 247 Z" fill="rgba(0,0,0,0.5)" stroke="none" />
<path d="M23 247 46 247 46 283 23 283 23 247 Z" fill="rgba(165,165,165,0.5)" stroke="none" />
<path d="M46 247 69 247 69 283 46 283 46 247 Z" fill="rgba(191,191,191,0.5)" stroke="none" />
<path d="M69 247 92 247 92 283 69 283 69 247 Z" fill="rgba(153,153,153,0.5)" stroke="none" />
<path d="M92 247 115 247 115 283 92 283 92 247 Z" fill="rgba(47,47,47,0.5)" stroke="none" />
<path d="M115 247 138 247 138 283 115 283 115 247 Z" fill="rgba(87,87,87,0.5)" stroke="none" />
<path d="M138 247 161 247 161 283 138 283 138 247 Z" fill="rgba(125,125,125,0.5)" stroke="none" />
<path d="M161 247 184 247 184 283 161 283 161 247 Z" fill="rgba(125,125,125,0.5)" stroke="none" />
<path d="M184 247 207 247 207 283 184 283 184 247 Z" fill="rgba(149,149,149,0.5)" stroke="none" />
<path d="M207 247 230 247 230 283 207 283 207 247 Z" fill="rgba(178,178,178,0.5)" stroke="none" />
<path d="M230 247 253 247 253 283 230 283 230 247 Z" fill="rgba(190,190,190,0.5)" stroke="none" />
<path d="M253 247 276 247 276 283 253 283 253 247 Z" fill="rgba(184,184,184,0.5)" stroke="none" />
<path d="M276 247 299 247 299 283 276 283 276 247 Z" fill="rgba(170,170,170,0.5)" stroke="none" />
<path d="M299 247 322 247 322 283 299 283 299 247 Z" fill="rgba(158,158,158,0.5)" stroke="none" />
<path d="M322 247 345 247 345 283 322 283 322 247 Z" fill="rgba(138,138,138,0.5)" stroke="none" />
<path d="M345 247 368 247 368 283 345 283 345 247 Z" fill="rgba(83,83,83,0.5)" stroke="none" />
<path d="M368 247 391 247 391 283 368 283 368 247 Z" fill="rgba(108,108,108,0.5)" stroke="none" />
<path d="M391 247 414 247 414 283 391 283 391 247 Z" fill="rgba(206,206,206,0.5)" stroke="none" />
<path d="M414 247 437 247 437 283 414 283 414 247 Z" fill="rgba(211,211,211,0.5)" stroke="none" />
<path d="M437 247 460 247 460 283 437 283 437 247 Z" fill="rgba(143,143,143,0.5)" stroke="none" />
<path d="M0 283 23 283 23 318 0 318 0 283 Z" fill="rgba(140,140,140,0.5)" stroke="none" />
<path d="M23 283 46 283 46 318 23 318 23 283 Z" fill="rgba(192,192,192,0.5)" stroke="none" />
<path d="M46 283 69 283 69 318 46 318 46 283 Z" fill="rgba(183,183,183,0.5)" stroke="none" />
<path d="M69 283 92 283 92 318 69 318 69 283 Z" fill="rgba(130,130,130,0.5)" stroke="none" />
<path d="M92 283 115 283 115 318 92 318 92 283 Z" fill="rgba(42,42,42,0.5)" stroke="none" />
<path d="M115 283 138 283 138 318 115 318 115 283 Z" fill="rgba(117,117,117,0.5)" stroke="none" />
<path d="M138 283 161 283 161 318 138 318 138 283 Z" fill="rgba(124,124,124,0.5)" stroke="none" />
<path d="M161 283 184 283 184 318 161 318 161 283 Z" fill="rgba(104,104,104,0.5)" stroke="none" />
<path d="M184 283 207 283 207 318 184 318 184 283 Z" fill="rgba(123,123,123,0.5)" stroke="none" />
<path d="M207 283 230 283 230 318 207 318 207 283 Z" fill="rgba(144,144,144,0.5)" stroke="none" />
<path d="M230 283 253 283 253 318 230 318 230 283 Z" fill="rgba(156,156,156,0.5)" stroke="none" />
<path d="M253 283 276 283 276 318 253 318 253 283 Z" fill="rgba(142,142,142,0.5)" stroke="none" />
<path d="M276 283 299 283 299 318 276 318 276 283 Z" fill="rgba(128,128,128,0.5)" stroke="none" />
<path d="M299 283 322 283 322 318 299 318 299 283 Z" fill="rgba(139,139,139,0.5)" stroke="none" />
<path d="M322 283 345 283 345 318 322 318 322 283 Z" fill="rgba(155,155,155,0.5)" stroke="none" />
<path d="M345 283 368 283 368 318 345 318 345 283 Z" fill="rgba(105,105,105,0.5)" stroke="none" />
<path d="M368 283 391 283 391 318 368 318 368 283 Z" fill="rgba(104,104,104,0.5)" stroke="none" />
<path d="M391 283 414 283 414 318 391 318 391 283 Z" fill="rgba(200,200,200,0.5)" stroke="none" />
<path d="M414 283 437 283 437 318 414 318 414 283 Z" fill="rgba(207,207,207,0.5)" stroke="none" />
<path d="M437 283 460 283 460 318 437 318 437 283 Z" fill="rgba(147,147,147,0.5)" stroke="none" />
<path d="M0 318 23 318 23 353 0 353 0 318 Z" fill="rgba(203,203,203,0.5)" stroke="none" />
<path d="M23 318 46 318 46 353 23 353 23 318 Z" fill="rgba(186,186,186,0.5)" stroke="none" />
<path d="M46 318 69 318 69 353 46 353 46 318 Z" fill="rgba(173,173,173,0.5)" stroke="none" />
<path d="M69 318 92 318 92 353 69 353 69 318 Z" fill="rgba(139,139,139,0.5)" stroke="none" />
<path d="M92 318 115 318 115 353 92 353 92 318 Z" fill="rgba(65,65,65,0.5)" stroke="none" />
<path d="M115 318 138 318 138 353 115 353 115 318 Z" fill="rgba(120,120,120,0.5)" stroke="none" />
<path d="M138 318 161 318 161 353 138 353 138 318 Z" fill="rgba(149,149,149,0.5)" stroke="none" />
<path d="M161 318 184 318 184 353 161 353 161 318 Z" fill="rgba(154,154,154,0.5)" stroke="none" />
<path d="M184 318 207 318 207 353 184 353 184 318 Z" fill="rgba(137,137,137,0.5)" stroke="none" />
<path d="M207 318 230 318 230 353 207 353 207 318 Z" fill="rgba(135,135,135,0.5)" stroke="none" />
<path d="M230 318 253 318 253 353 230 353 230 318 Z" fill="rgba(132,132,132,0.5)" stroke="none" />
<path d="M253 318 276 318 276 353 253 353 253 318 Z" fill="rgba(146,146,146,0.5)" stroke="none" />
<path d="M276 318 299 318 299 353 276 353 276 318 Z" fill="rgba(159,159,159,0.5)" stroke="none" />
<path d="M299 318 322 318 322 353 299 353 299 318 Z" fill="rgba(164,164,164,0.5)" stroke="none" />
<path d="M322 318 345 318 345 353 322 353 322 318 Z" fill="rgba(162,162,162,0.5)" stroke="none" />
<path d="M345 318 368 318 368 353 345 353 345 318 Z" fill="rgba(112,112,112,0.5)" stroke="none" />
<path d="M368 318 391 318 391 353 368 353 368 318 Z" fill="rgba(112,112,112,0.5)" stroke="none" />
<path d="M391 318 414 318 414 353 391 353 391 318 Z" fill="rgba(197,197,197,0.5)" stroke="none" />
<path d="M414 318 437 318 437 353 414 353 414 318 Z" fill="rgba(207,207,207,0.5)" stroke="none" />
<path d="M437 318 460 318 460 353 437 353 437 318 Z" fill="rgba(145,145,145,0.5)" stroke="none" />
<path d="M0 353 23 353 23 389 0 389 0 353 Z" fill="rgba(196,196,196,0.5)" stroke="none" />
<path d="M23 353 46 353 46 389 23 389 23 353 Z" fill="rgba(191,191,191,0.5)" stroke="none" />
<path d="M46 353 69 353 69 389 46 389 46 353 Z" fill="rgba(150,150,150,0.5)" stroke="none" />
<path d="M69 353 92 353 92 389 69 389 69 353 Z" fill="rgba(143,143,143,0.5)" stroke="none" />
<path d="M92 353 115 353 115 389 92 389 92 353 Z" fill="rgba(92,92,92,0.5)" stroke="none" />
<path d="M115 353 138 353 138 389 115 389 115 353 Z" fill="rgba(137,137,137,0.5)" stroke="none" />
<path d="M138 353 161 353 161 389 138 389 138 353 Z" fill="rgba(174,174,174,0.5)" stroke="none" />
<path d="M161 353 184 353 184 389 161 389 161 353 Z" fill="rgba(188,188,188,0.5)" stroke="none" />
<path d="M184 353 207 353 207 389 184 389 184 353 Z" fill="rgba(138,138,138,0.5)" stroke="none" />
<path d="M207 353 230 353 230 389 207 389 207 353 Z" fill="rgba(154,154,154,0.5)" stroke="none" />
<path d="M230 353 253 353 253 389 230 389 230 353 Z" fill="rgba(161,161,161,0.5)" stroke="none" />
<path d="M253 353 276 353 276 389 253 389 253 353 Z" fill="rgba(157,157,157,0.5)" stroke="none" />
<path d="M276 353 299 353 299 389 276 389 276 353 Z" fill="rgba(178,178,178,0.5)" stroke="none" />
<path d="M299 353 322 353 322 389 299 389 299 353 Z" fill="rgba(189,189,189,0.5)" stroke="none" />
<path d="M322 353 345 353 345 389 322 389 322 353 Z" fill="rgba(176,176,176,0.5)" stroke="none" />
<path d="M345 353 368 353 368 389 345 389 345 353 Z" fill="rgba(124,124,124,0.5)" stroke="none" />
<path d="M368 353 391 353 391 389 368 389 368 353 Z" fill="rgba(114,114,114,0.5)" stroke="none" />
<path d="M391 353 414 353 414 389 391 389 391 353 Z" fill="rgba(183,183,183,0.5)" stroke="none" />
<path d="M414 353 437 353 437 389 414 389 414 353 Z" fill="rgba(205,205,205,0.5)" stroke="none" />
<path d="M437 353 460 353 460 389 437 389 437 353 Z" fill="rgba(149,149,149,0.5)" stroke="none" />
<path d="M0 389 23 389 23 424 0 424 0 389 Z" fill="rgba(199,199,199,0.5)" stroke="none" />
<path d="M23 389 46 389 46 424 23 424 23 389 Z" fill="rgba(190,190,190,0.5)" stroke="none" />
<path d="M46 389 69 389 69 424 46 424 46 389 Z" fill="rgba(160,160,160,0.5)" stroke="none" />
<path d="M69 389 92 389 92 424 69 424 69 389 Z" fill="rgba(131,131,131,0.5)" stroke="none" />
<path d="M92 389 115 389 115 424 92 424 92 389 Z" fill="rgba(99,99,99,0.5)" stroke="none" />
<path d="M115 389 138 389 138 424 115 424 115 389 Z" fill="rgba(150,150,150,0.5)" stroke="none" />
<path d="M138 389 161 389 161 424 138 424 138 389 Z" fill="rgba(178,178,178,0.5)" stroke="none" />
<path d="M161 389 184 389 184 424 161 424 161 389 Z" fill="rgba(193,193,193,0.5)" stroke="none" />
<path d="M184 389 207 389 207 424 184 424 184 389 Z" fill="rgba(165,165,165,0.5)" stroke="none" />
<path d="M207 389 230 389 230 424 207 424 207 389 Z" fill="rgba(175,175,175,0.5)" stroke="none" />
<path d="M230 389 253 389 253 424 230 424 230 389 Z" fill="rgba(142,142,142,0.5)" stroke="none" />
<path d="M253 389 276 389 276 424 253 424 253 389 Z" fill="rgba(147,147,147,0.5)" stroke="none" />
<path d="M276 389 299 389 299 424 276 424 276 389 Z" fill="rgba(182,182,182,0.5)" stroke="none" />
<path d="M299 389 322 389 322 424 299 424 299 389 Z" fill="rgba(189,189,189,0.5)" stroke="none" />
<path d="M322 389 345 389 345 424 322 424 322 389 Z" fill="rgba(181,181,181,0.5)" stroke="none" />
<path d="M345 389 368 389 368 424 345 424 345 389 Z" fill="rgba(128,128,128,0.5)" stroke="none" />
<path d="M368 389 391 389 391 424 368 424 368 389 Z" fill="rgba(96,96,96,0.5)" stroke="none" />
<path d="M391 389 414 389 414 424 391 424 391 389 Z" fill="rgba(158,158,158,0.5)" stroke="none" />
<path d="M414 389 437 389 437 424 414 424 414 389 Z" fill="rgba(192,192,192,0.5)" stroke="none" />
<path d="M437 389 460 389 460 424 437 424 437 389 Z" fill="rgba(139,139,139,0.5)" stroke="none" />
<path d="M0 424 23 424 23 460 0 460 0 424 Z" fill="rgba(200,200,200,0.5)" stroke="none" />
<path d="M23 424 46 424 46 460 23 460 23 424 Z" fill="rgba(171,171,171,0.5)" stroke="none" />
<path d="M46 424 69 424 69 460 46 460 46 424 Z" fill="rgba(181,181,181,0.5)" stroke="none" />
<path d="M69 424 92 424 92 460 69 460 69 424 Z" fill="rgba(124,124,124,0.5)" stroke="none" />
<path d="M92 424 115 424 115 460 92 460 92 424 Z" fill="rgba(110,110,110,0.5)" stroke="none" />
<path d="M115 424 138 424 138 460 115 460 115 424 Z" fill="rgba(144,144,144,0.5)" stroke="none" />
<path d="M138 424 161 424 161 460 138 460 138 424 Z" fill="rgba(169,169,169,0.5)" stroke="none" />
<path d="M161 424 184 424 184 460 161 460 161 424 Z" fill="rgba(171,171,171,0.5)" stroke="none" />
<path d="M184 424 207 424 207 460 184 460 184 424 Z" fill="rgba(150,150,150,0.5)" stroke="none" />
<path d="M207 424 230 424 230 460 207 460 207 424 Z" fill="rgba(168,168,168,0.5)" stroke="none" />
<path d="M230 424 253 424 253 460 230 460 230 424 Z" fill="rgba(140,140,140,0.5)" stroke="none" />
<path d="M253 424 276 424 276 460 253 460 253 424 Z" fill="rgba(141,141,141,0.5)" stroke="none" />
<path d="M276 424 299 424 299 460 276 460 276 424 Z" fill="rgba(168,168,168,0.5)" stroke="none" />
<path d="M299 424 322 424 322 460 299 460 299 424 Z" fill="rgba(177,177,177,0.5)" stroke="none" />
<path d="M322 424 345 424 345 460 322 460 322 424 Z" fill="rgba(173,173,173,0.5)" stroke="none" />
<path d="M345 424 368 424 368 460 345 460 345 424 Z" fill="rgba(135,135,135,0.5)" stroke="none" />
<path d="M368 424 391 424 391 460 368 460 368 424 Z" fill="rgba(123,123,123,0.5)" stroke="none" />
<path d="M391 424 414 424 414 460 391 460 391 424 Z" fill="rgba(170,170,170,0.5)" stroke="none" />
<path d="M414 424 437 424 437 460 414 460 414 424 Z" fill="rgba(154,154,154,0.5)" stroke="none" />
<path d="M437 424 460 424 460 460 437 460 437 424 Z" fill="rgba(77,77,77,0.5)" stroke="none" />
<path d="M0 460 23 460 23 495 0 495 0 460 Z" fill="rgba(190,190,190,0.5)" stroke="none" />
<path d="M23 460 46 460 46 495 23 495 23 460 Z" fill="rgba(167,167,167,0.5)" stroke="none" />
<path d="M46 460 69 460 69 495 46 495 46 460 Z" fill="rgba(182,182,182,0.5)" stroke="none" />
<path d="M69 460 92 460 92 495 69 495 69 460 Z" fill="rgba(125,125,125,0.5)" stroke="none" />
<path d="M92 460 115 460 115 495 92 495 92 460 Z" fill="rgba(142,142,142,0.5)" stroke="none" />
<path d="M115 460 138 460 138 495 115 495 115 460 Z" fill="rgba(121,121,121,0.5)" stroke="none" />
<path d="M138 460 161 460 161 495 138 495 138 460 Z" fill="rgba(152,152,152,0.5)" stroke="none" />
<path d="M161 460 184 460 184 495 161 495 161 460 Z" fill="rgba(152,152,152,0.5)" stroke="none" />
<path d="M184 460 207 460 207 495 184 495 184 460 Z" fill="rgba(140,140,140,0.5)" stroke="none" />
<path d="M207 460 230 460 230 495 207 495 207 460 Z" fill="rgba(172,172,172,0.5)" stroke="none" />
<path d="M230 460 253 460 253 495 230 495 230 460 Z" fill="rgba(174,174,174,0.5)" stroke="none" />
<path d="M253 460 276 460 276 495 253 495 253 460 Z" fill="rgba(156,156,156,0.5)" stroke="none" />
<path d="M276 460 299 460 299 495 276 495 276 460 Z" fill="rgba(151,151,151,0.5)" stroke="none" />
<path d="M299 460 322 460 322 495 299 495 299 460 Z" fill="rgba(164,164,164,0.5)" stroke="none" />
<path d="M322 460 345 460 345 495 322 495 322 460 Z" fill="rgba(157,157,157,0.5)" stroke="none" />
<path d="M345 460 368 460 368 495 345 495 345 460 Z" fill="rgba(134,134,134,0.5)" stroke="none" />
<path d="M368 460 391 460 391 495 368 495 368 460 Z" fill="rgba(165,165,165,0.5)" stroke="none" />
<path d="M391 460 414 460 414 495 391 495 391 460 Z" fill="rgba(202,202,202,0.5)" stroke="none" />
<path d="M414 460 437 460 437 495 414 495 414 460 Z" fill="rgba(131,131,131,0.5)" stroke="none" />
<path d="M437 460 460 460 460 495 437 495 437 460 Z" fill="rgba(17,17,17,0.5)" stroke="none" />
<path d="M0 495 23 495 23 530 0 530 0 495 Z" fill="rgba(185,185,185,0.5)" stroke="none" />
<path d="M23 495 46 495 46 530 23 530 23 495 Z" fill="rgba(188,188,188,0.5)" stroke="none" />
<path d="M46 495 69 495 69 530 46 530 46 495 Z" fill="rgba(179,179,179,0.5)" stroke="none" />
<path d="M69 495 92 495 92 530 69 530 69 495 Z" fill="rgba(130,130,130,0.5)" stroke="none" />
<path d="M92 495 115 495 115 530 92 530 92 495 Z" fill="rgba(160,160,160,0.5)" stroke="none" />
<path d="M115 495 138 495 138 530 115 530 115 495 Z" fill="rgba(111,111,111,0.5)" stroke="none" />
<path d="M138 495 161 495 161 530 138 530 138 495 Z" fill="rgba(144,144,144,0.5)" stroke="none" />
<path d="M161 495 184 495 184 530 161 530 161 495 Z" fill="rgba(168,168,168,0.5)" stroke="none" />
<path d="M184 495 207 495 207 530 184 530 184 495 Z" fill="rgba(148,148,148,0.5)" stroke="none" />
<path d="M207 495 230 495 230 530 207 530 207 495 Z" fill="rgba(161,161,161,0.5)" stroke="none" />
<path d="M230 495 253 495 253 530 230 530 230 495 Z" fill="rgba(167,167,167,0.5)" stroke="none" />
<path d="M253 495 276 495 276 530 253 530 253 495 Z" fill="rgba(142,142,142,0.5)" stroke="none" />
<path d="M276 495 299 495 299 530 276 530 276 495 Z" fill="rgba(152,152,152,0.5)" stroke="none" />
<path d="M299 495 322 495 322 530 299 530 299 495 Z" fill="rgba(172,172,172,0.5)" stroke="none" />
<path d="M322 495 345 495 345 530 322 530 322 495 Z" fill="rgba(141,141,141,0.5)" stroke="none" />
<path d="M345 495 368 495 368 530 345 530 345 495 Z" fill="rgba(113,113,113,0.5)" stroke="none" />
<path d="M368 495 391 495 391 530 368 530 368 495 Z" fill="rgba(165,165,165,0.5)" stroke="none" />
<path d="M391 495 414 495 414 530 391 530 391 495 Z" fill="rgba(213,213,213,0.5)" stroke="none" />
<path d="M414 495 437 495 437 530 414 530 414 495 Z" fill="rgba(132,132,132,0.5)" stroke="none" />
<path d="M437 495 460 495 460 530 437 530 437 495 Z" fill="rgba(0,0,0,0.5)" stroke="none" />
<path d="M0 530 23 530 23 566 0 566 0 530 Z" fill="rgba(190,190,190,0.5)" stroke="none" />
<path d="M23 530 46 530 46 566 23 566 23 530 Z" fill="rgba(199,199,199,0.5)" stroke="none" />
<path d="M46 530 69 530 69 566 46 566 46 530 Z" fill="rgba(176,176,176,0.5)" stroke="none" />
<path d="M69 530 92 530 92 566 69 566 69 530 Z" fill="rgba(132,132,132,0.5)" stroke="none" />
<path d="M92 530 115 530 115 566 92 566 92 530 Z" fill="rgba(150,150,150,0.5)" stroke="none" />
<path d="M115 530 138 530 138 566 115 566 115 530 Z" fill="rgba(119,119,119,0.5)" stroke="none" />
<path d="M138 530 161 530 161 566 138 566 138 530 Z" fill="rgba(146,146,146,0.5)" stroke="none" />
<path d="M161 530 184 530 184 566 161 566 161 530 Z" fill="rgba(178,178,178,0.5)" stroke="none" />
<path d="M184 530 207 530 207 566 184 566 184 530 Z" fill="rgba(160,160,160,0.5)" stroke="none" />
<path d="M207 530 230 530 230 566 207 566 207 530 Z" fill="rgba(156,156,156,0.5)" stroke="none" />
<path d="M230 530 253 530 253 566 230 566 230 530 Z" fill="rgba(164,164,164,0.5)" stroke="none" />
<path d="M253 530 276 530 276 566 253 566 253 530 Z" fill="rgba(148,148,148,0.5)" stroke="none" />
<path d="M276 530 299 530 299 566 276 566 276 530 Z" fill="rgba(169,169,169,0.5)" stroke="none" />
<path d="M299 530 322 530 322 566 299 566 299 530 Z" fill="rgba(171,171,171,0.5)" stroke="none" />
<path d="M322 530 345 530 345 566 322 566 322 530 Z" fill="rgba(119,119,119,0.5)" stroke="none" />
<path d="M345 530 368 530 368 566 345 566 345 530 Z" fill="rgba(92,92,92,0.5)" stroke="none" />
<path d="M368 530 391 530 391 566 368 566 368 530 Z" fill="rgba(143,143,143,0.5)" stroke="none" />
<path d="M391 530 414 530 414 566 391 566 391 530 Z" fill="rgba(166,166,166,0.5)" stroke="none" />
<path d="M414 530 437 530 437 566 414 566 414 530 Z" fill="rgba(75,75,75,0.5)" stroke="none" />
<path d="M437 530 460 530 460 566 437 566 437 530 Z" fill="rgba(0,0,0,0.5)" stroke="none" />
<path d="M0 566 23 566 23 601 0 601 0 566 Z" fill="rgba(151,151,151,0.5)" stroke="none" />
<path d="M23 566 46 566 46 601 23 601 23 566 Z" fill="rgba(196,196,196,0.5)" stroke="none" />
<path d="M46 566 69 566 69 601 46 601 46 566 Z" fill="rgba(172,172,172,0.5)" stroke="none" />
<path d="M69 566 92 566 92 601 69 601 69 566 Z" fill="rgba(142,142,142,0.5)" stroke="none" />
<path d="M92 566 115 566 115 601 92 601 92 566 Z" fill="rgba(159,159,159,0.5)" stroke="none" />
<path d="M115 566 138 566 138 601 115 601 115 566 Z" fill="rgba(132,132,132,0.5)" stroke="none" />
<path d="M138 566 161 566 161 601 138 601 138 566 Z" fill="rgba(139,139,139,0.5)" stroke="none" />
<path d="M161 566 184 566 184 601 161 601 161 566 Z" fill="rgba(169,169,169,0.5)" stroke="none" />
<path d="M184 566 207 566 207 601 184 601 184 566 Z" fill="rgba(193,193,193,0.5)" stroke="none" />
<path d="M207 566 230 566 230 601 207 601 207 566 Z" fill="rgba(193,193,193,0.5)" stroke="none" />
<path d="M230 566 253 566 253 601 230 601 230 566 Z" fill="rgba(197,197,197,0.5)" stroke="none" />
<path d="M253 566 276 566 276 601 253 601 253 566 Z" fill="rgba(198,198,198,0.5)" stroke="none" />
<path d="M276 566 299 566 299 601 276 601 276 566 Z" fill="rgba(187,187,187,0.5)" stroke="none" />
<path d="M299 566 322 566 322 601 299 601 299 566 Z" fill="rgba(146,146,146,0.5)" stroke="none" />
<path d="M322 566 345 566 345 601 322 601 322 566 Z" fill="rgba(102,102,102,0.5)" stroke="none" />
<path d="M345 566 368 566 368 601 345 601 345 566 Z" fill="rgba(103,103,103,0.5)" stroke="none" />
<path d="M368 566 391 566 391 601 368 601 368 566 Z" fill="rgba(138,138,138,0.5)" stroke="none" />
<path d="M391 566 414 566 414 601 391 601 391 566 Z" fill="rgba(96,96,96,0.5)" stroke="none" />
<path d="M414 566 437 566 437 601 414 601 414 566 Z" fill="rgba(0,0,0,0.5)" stroke="none" />
<path d="M437 566 460 566 460 601 437 601 437 566 Z" fill="rgba(0,0,0,0.5)" stroke="none" />
<path d="M0 601 23 601 23 636 0 636 0 601 Z" fill="rgba(60,60,60,0.5)" stroke="none" />
<path d="M23 601 46 601 46 636 23 636 23 601 Z" fill="rgba(192,192,192,0.5)" stroke="none" />
<path d="M46 601 69 601 69 636 46 636 46 601 Z" fill="rgba(166,166,166,0.5)" stroke="none" />
<path d="M69 601 92 601 92 636 69 636 69 601 Z" fill="rgba(163,163,163,0.5)" stroke="none" />
<path d="M92 601 115 601 115 636 92 636 92 601 Z" fill="rgba(162,162,162,0.5)" stroke="none" />
<path d="M115 601 138 601 138 636 115 636 115 601 Z" fill="rgba(114,114,114,0.5)" stroke="none" />
<path d="M138 601 161 601 161 636 138 636 138 601 Z" fill="rgba(105,105,105,0.5)" stroke="none" />
<path d="M161 601 184 601 184 636 161 636 161 601 Z" fill="rgba(153,153,153,0.5)" stroke="none" />
<path d="M184 601 207 601 207 636 184 636 184 601 Z" fill="rgba(188,188,188,0.5)" stroke="none" />
<path d="M207 601 230 601 230 636 207 636 207 601 Z" fill="rgba(196,196,196,0.5)" stroke="none" />
<path d="M230 601 253 601 253 636 230 636 230 601 Z" fill="rgba(196,196,196,0.5)" stroke="none" />
<path d="M253 601 276 601 276 636 253 636 253 601 Z" fill="rgba(192,192,192,0.5)" stroke="none" />
<path d="M276 601 299 601 299 636 276 636 276 601 Z" fill="rgba(174,174,174,0.5)" stroke="none" />
<path d="M299 601 322 601 322 636 299 636 299 601 Z" fill="rgba(127,127,127,0.5)" stroke="none" />
<path d="M322 601 345 601 345 636 322 636 322 601 Z" fill="rgba(100,100,100,0.5)" stroke="none" />
<path d="M345 601 368 601 368 636 345 636 345 601 Z" fill="rgba(128,128,128,0.5)" stroke="none" />
<path d="M368 601 391 601 391 636 368 636 368 601 Z" fill="rgba(124,124,124,0.5)" stroke="none" />
<path d="M391 601 414 601 414 636 391 636 391 601 Z" fill="rgba(49,49,49,0.5)" stroke="none" />
<path d="M414 601 437 601 437 636 414 636 414 601 Z" fill="rgba(0,0,0,0.5)" stroke="none" />
<path d="M437 601 460 601 460 636 437 636 437 601 Z" fill="rgba(0,0,0,0.5)" stroke="none" />
<path d="M0 636 23 636 23 672 0 672 0 636 Z" fill="rgba(1,1,1,0.5)" stroke="none" />
<path d="M23 636 46 636 46 672 23 672 23 636 Z" fill="rgba(189,189,189,0.5)" stroke="none" />
<path d="M46 636 69 636 69 672 46 672 46 636 Z" fill="rgba(152,152,152,0.5)" stroke="none" />
<path d="M69 636 92 636 92 672 69 672 69 636 Z" fill="rgba(153,153,153,0.5)" stroke="none" />
<path d="M92 636 115 636 115 672 92 672 92 636 Z" fill="rgba(119,119,119,0.5)" stroke="none" />
<path d="M115 636 138 636 138 672 115 672 115 636 Z" fill="rgba(82,82,82,0.5)" stroke="none" />
<path d="M138 636 161 636 161 672 138 672 138 636 Z" fill="rgba(82,82,82,0.5)" stroke="none" />
<path d="M161 636 184 636 184 672 161 672 161 636 Z" fill="rgba(117,117,117,0.5)" stroke="none" />
<path d="M184 636 207 636 207 672 184 672 184 636 Z" fill="rgba(160,160,160,0.5)" stroke="none" />
<path d="M207 636 230 636 230 672 207 672 207 636 Z" fill="rgba(176,176,176,0.5)" stroke="none" />
<path d="M230 636 253 636 253 672 230 672 230 636 Z" fill="rgba(176,176,176,0.5)" stroke="none" />
<path d="M253 636 276 636 276 672 253 672 253 636 Z" fill="rgba(166,166,166,0.5)" stroke="none" />
<path d="M276 636 299 636 299 672 276 672 276 636 Z" fill="rgba(147,147,147,0.5)" stroke="none" />
<path d="M299 636 322 636 322 672 299 672 299 636 Z" fill="rgba(113,113,113,0.5)" stroke="none" />
<path d="M322 636 345 636 345 672 322 672 322 636 Z" fill="rgba(83,83,83,0.5)" stroke="none" />
<path d="M345 636 368 636 368 672 345 672 345 636 Z" fill="rgba(103,103,103,0.5)" stroke="none" />
<path d="M368 636 391 636 391 672 368 672 368 636 Z" fill="rgba(78,78,78,0.5)" stroke="none" />
<path d="M391 636 414 636 414 672 391 672 391 636 Z" fill="rgba(0,0,0,0.5)" stroke="none" />
<path d="M414 636 437 636 437 672 414 672 414 636 Z" fill="rgba(0,0,0,0.5)" stroke="none" />
<path d="M437 636 460 636 460 672 437 672 437 636 Z" fill="rgba(0,0,0,0.5)" stroke="none" />
<path d="M0 672 23 672 23 707 0 707 0 672 Z" fill="rgba(0,0,0,0.5)" stroke="none" />
<path d="M23 672 46 672 46 707 23 707 23 672 Z" fill="rgba(171,171,171,0.5)" stroke="none" />
<path d="M46 672 69 672 69 707 46 707 46 672 Z" fill="rgba(144,144,144,0.5)" stroke="none" />
<path d="M69 672 92 672 92 707 69 707 69 672 Z" fill="rgba(88,88,88,0.5)" stroke="none" />
<path d="M92 672 115 672 115 707 92 707 92 672 Z" fill="rgba(60,60,60,0.5)" stroke="none" />
<path d="M115 672 138 672 138 707 115 707 115 672 Z" fill="rgba(73,73,73,0.5)" stroke="none" />
<path d="M138 672 161 672 161 707 138 707 138 672 Z" fill="rgba(98,98,98,0.5)" stroke="none" />
<path d="M161 672 184 672 184 707 161 707 161 672 Z" fill="rgba(103,103,103,0.5)" stroke="none" />
<path d="M184 672 207 672 207 707 184 707 184 672 Z" fill="rgba(146,146,146,0.5)" stroke="none" />
<path d="M207 672 230 672 230 707 207 707 207 672 Z" fill="rgba(165,165,165,0.5)" stroke="none" />
<path d="M230 672 253 672 253 707 230 707 230 672 Z" fill="rgba(163,163,163,0.5)" stroke="none" />
<path d="M253 672 276 672 276 707 253 707 253 672 Z" fill="rgba(148,148,148,0.5)" stroke="none" />
<path d="M276 672 299 672 299 707 276 707 276 672 Z" fill="rgba(120,120,120,0.5)" stroke="none" />
<path d="M299 672 322 672 322 707 299 707 299 672 Z" fill="rgba(91,91,91,0.5)" stroke="none" />
<path d="M322 672 345 672 345 707 322 707 322 672 Z" fill="rgba(54,54,54,0.5)" stroke="none" />
<path d="M345 672 368 672 368 707 345 707 345 672 Z" fill="rgba(50,50,50,0.5)" stroke="none" />
<path d="M368 672 391 672 391 707 368 707 368 672 Z" fill="rgba(46,46,46,0.5)" stroke="none" />
<path d="M391 672 414 672 414 707 391 707 391 672 Z" fill="rgba(0,0,0,0.5)" stroke="none" />
<path d="M414 672 437 672 437 707 414 707 414 672 Z" fill="rgba(0,0,0,0.5)" stroke="none" />
<path d="M437 672 460 672 460 707 437 707 437 672 Z" fill="rgba(0,0,0,0.5)" stroke="none" />
</svg>