<svg width="100%" height="100%" version="1.1" xmlns="http://www.w3.org/2000/svg"> 
<path d="M93 498 111 493 119 493 127 498 121 493 107 493 Z" fill="none" stroke="black" stroke-width="1.083197" />
<path d="M62 460 62 465 43 487 44 498 44 486 59 471 Z" fill="none" stroke="black" stroke-width="1.135250" />
<path d="M120 445 132 461 151 470 163 470 179 466 185 460 191 461 207 446 190 460 187 460 186 456 179 460 173 458 179 461 182 459 182 463 163 469 133 455 158 469 153 470 133 461 Z" fill="none" stroke="black" stroke-width="1.630864" />
<path d="M165 412 171 415 194 413 185 414 177 410 171 414 Z" fill="none" stroke="black" stroke-width="1.075746" />
<path d="M66 388 67 394 79 410 Z" fill="none" stroke="black" stroke-width="1.001951" />
<path d="M173 375 178 377 179 382 193 379 189 381 187 378 185 382 180 382 180 375 Z" fill="none" stroke="black" stroke-width="1.061321" />
<path d="M222 366 201 368 197 371 159 368 151 372 161 381 154 374 158 369 192 370 200 375 200 380 204 368 Z" fill="none" stroke="black" stroke-width="1.353867" />
<path d="M192 364 189 361 181 367 169 365 189 366 186 365 188 363 Z" fill="none" stroke="black" stroke-width="1.069159" />
<path d="M245 360 240 364 220 368 210 376 221 376 227 371 220 376 215 376 214 372 231 364 242 364 Z" fill="none" stroke="black" stroke-width="1.205674" />
<path d="M165 359 159 364 141 362 160 365 Z" fill="none" stroke="black" stroke-width="1.050616" />
<path d="M238 360 209 359 196 353 184 359 160 354 143 359 119 359 119 362 108 363 126 363 131 373 141 380 162 386 165 384 159 385 153 377 154 382 148 382 135 373 136 370 134 373 131 371 131 364 156 368 127 364 120 361 123 359 138 360 161 354 186 359 198 354 217 361 Z" fill="none" stroke="black" stroke-width="2.026374" />
<path d="M217 314 207 315 206 310 209 307 213 312 213 307 208 306 205 314 197 316 197 309 203 304 200 304 195 314 182 322 179 317 173 318 164 314 147 315 159 317 162 314 183 322 190 316 206 317 Z" fill="none" stroke="black" stroke-width="1.445337" />
<path d="M144 301 142 314 151 327 147 333 155 340 159 336 165 336 172 343 167 336 159 336 159 329 163 329 159 324 150 323 143 316 141 310 Z" fill="none" stroke="black" stroke-width="1.261085" />
<path d="M221 294 217 321 202 330 194 330 191 338 196 335 196 340 200 340 206 334 214 334 204 334 201 331 217 322 221 313 Z" fill="none" stroke="black" stroke-width="1.280093" />
<path d="M163 284 156 288 153 286 148 291 148 294 152 287 154 289 145 312 149 310 156 313 148 308 153 291 Z" fill="none" stroke="black" stroke-width="1.181794" />
<path d="M307 258 303 261 303 273 299 283 294 286 298 285 300 290 295 298 295 319 292 323 297 319 294 315 296 296 306 285 309 270 305 276 307 278 304 287 300 288 299 281 303 275 303 261 Z" fill="none" stroke="black" stroke-width="1.423100" />
<path d="M51 242 54 253 52 267 54 256 59 261 56 280 60 261 53 251 Z" fill="none" stroke="black" stroke-width="1.176905" />
<path d="M343 232 339 234 346 235 347 250 340 269 336 271 335 268 341 263 343 248 342 258 334 267 337 273 344 264 347 254 347 234 Z" fill="none" stroke="black" stroke-width="1.313127" />
<path d="M310 227 312 247 310 264 307 266 311 264 Z" fill="none" stroke="black" stroke-width="1.050969" />
<path d="M350 223 350 245 350 237 356 227 352 231 352 224 351 234 348 230 Z" fill="none" stroke="black" stroke-width="1.112392" />
<path d="M20 214 16 239 Z" fill="none" stroke="black" stroke-width="1.000000" />
<path d="M355 202 345 209 346 223 350 216 349 209 350 215 346 216 346 209 Z" fill="none" stroke="black" stroke-width="1.084869" />
<path d="M20 190 30 211 30 233 38 249 43 303 40 257 30 230 32 209 27 206 Z" fill="none" stroke="black" stroke-width="1.494664" />
<path d="M159 211 149 204 151 203 145 204 126 193 129 191 146 201 148 200 136 193 109 188 84 195 77 206 76 212 78 208 80 212 76 216 73 215 70 206 72 214 67 212 64 200 61 200 56 206 53 219 57 207 63 201 69 219 73 220 78 228 93 233 107 233 122 229 131 221 132 224 134 221 141 223 130 227 131 229 140 225 142 221 129 219 149 214 149 209 141 202 148 204 153 210 156 209 159 213 158 218 Z" fill="none" stroke="black" stroke-width="2.116674" />
<path d="M86 215 96 211 93 207 99 201 102 213 110 219 121 218 128 210 130 202 141 211 129 214 136 213 140 217 130 217 126 221 123 219 127 223 116 222 113 225 109 221 99 223 94 221 94 218 104 219 88 218 Z" fill="none" stroke="black" stroke-width="1.461980" />
<path d="M120 198 125 201 121 207 125 207 116 215 107 207 110 200 111 207 117 209 Z" fill="none" stroke="black" stroke-width="1.093940" />
<path d="M130 199 126 212 115 219 108 216 119 215 124 211 123 198 105 198 103 211 101 200 94 203 91 214 83 213 87 219 85 221 91 221 92 227 97 229 92 225 94 221 101 227 122 222 127 225 117 230 93 233 82 230 79 223 71 219 76 217 89 229 76 217 99 196 120 194 Z" fill="none" stroke="black" stroke-width="1.867985" />
<path d="M122 194 129 194 138 199 146 209 140 209 131 198 Z" fill="none" stroke="black" stroke-width="1.063777" />
<path d="M93 193 86 199 82 207 84 209 80 211 78 206 87 194 Z" fill="none" stroke="black" stroke-width="1.052385" />
<path d="M126 191 122 194 100 195 83 207 91 196 98 194 94 194 95 191 109 188 Z" fill="none" stroke="black" stroke-width="1.165524" />
<path d="M298 187 293 192 301 192 298 196 305 203 Z" fill="none" stroke="black" stroke-width="1.011871" />
<path d="M355 186 350 190 349 184 346 190 337 193 343 198 344 192 346 198 353 197 351 196 356 192 353 190 Z" fill="none" stroke="black" stroke-width="1.109447" />
<path d="M6 181 4 184 27 214 25 207 7 186 Z" fill="none" stroke="black" stroke-width="1.130195" />
<path d="M112 176 124 183 134 184 136 190 141 189 136 189 136 184 124 182 Z" fill="none" stroke="black" stroke-width="1.082190" />
<path d="M264 175 250 170 245 173 220 173 Z" fill="none" stroke="black" stroke-width="1.051996" />
<path d="M305 177 298 165 301 176 293 172 290 165 285 171 276 173 273 169 272 172 266 172 255 166 252 168 257 167 266 172 266 177 214 189 196 205 194 203 201 191 192 208 215 189 242 182 243 188 229 191 217 199 240 188 258 187 262 190 239 191 213 204 203 214 214 204 239 192 262 191 280 201 279 208 274 201 264 195 247 193 217 207 213 213 218 216 224 215 218 216 215 211 232 201 217 213 223 213 224 209 235 202 241 218 257 220 263 214 265 201 271 207 267 219 278 217 277 220 272 220 269 228 261 230 270 229 274 220 276 226 278 216 272 215 272 208 268 202 263 201 264 209 260 216 259 199 259 202 255 202 261 206 251 216 244 211 254 208 251 199 241 199 240 203 243 199 247 200 245 208 237 205 238 197 244 194 259 194 268 198 284 214 280 228 275 232 266 233 241 228 257 233 276 232 281 228 285 214 290 219 285 224 294 220 287 213 290 210 285 200 272 190 245 187 243 183 254 179 266 179 268 176 276 177 282 182 288 180 291 186 299 185 293 184 282 174 277 178 273 176 281 171 292 175 288 174 288 169 299 177 Z" fill="none" stroke="black" stroke-width="4.512583" />
<path d="M153 174 145 165 142 170 132 163 117 163 125 165 120 169 104 165 96 170 92 168 97 166 95 164 88 171 75 169 79 172 69 182 65 178 66 187 60 191 65 192 67 182 71 183 73 188 69 187 79 194 73 188 74 181 70 180 84 171 88 174 77 181 76 185 85 176 91 177 89 176 95 173 99 175 101 172 106 175 105 177 94 177 85 182 93 178 108 177 105 172 115 171 117 167 132 170 124 166 128 163 140 170 145 166 153 177 Z" fill="none" stroke="black" stroke-width="2.044617" />
<path d="M321 157 319 203 323 224 318 224 322 227 Z" fill="none" stroke="black" stroke-width="1.132937" />
<path d="M342 155 338 164 341 169 340 176 343 160 343 168 338 165 Z" fill="none" stroke="black" stroke-width="1.070273" />
<path d="M65 142 71 150 65 173 74 164 77 168 80 165 88 168 89 165 79 163 84 157 81 155 83 157 78 160 78 166 74 163 64 170 71 156 71 149 Z" fill="none" stroke="black" stroke-width="1.301734" />
<path d="M336 138 328 174 Z" fill="none" stroke="black" stroke-width="1.029495" />
<path d="M14 133 19 163 Z" fill="none" stroke="black" stroke-width="1.013002" />
<path d="M357 100 354 102 357 112 353 113 355 116 351 133 352 161 348 159 348 151 351 165 350 170 346 172 346 181 353 181 359 186 360 226 353 240 347 271 342 270 333 279 331 286 342 272 346 272 333 304 322 314 316 313 320 277 327 273 327 282 329 274 326 271 322 273 321 266 324 252 329 245 340 212 343 211 340 210 334 231 324 250 316 314 310 328 312 331 302 373 299 372 301 393 296 439 299 455 295 459 295 468 301 480 302 495 299 498 303 495 302 480 295 467 295 460 299 455 307 463 302 467 299 461 301 469 307 464 297 452 296 444 301 407 302 368 310 347 315 315 326 312 333 305 347 273 351 250 360 228 359 186 347 173 352 163 351 133 355 124 Z" fill="none" stroke="black" stroke-width="4.048301" />
<path d="M352 78 346 85 354 96 357 96 Z" fill="none" stroke="black" stroke-width="1.001283" />
<path d="M322 68 326 70 325 75 329 70 330 82 327 87 326 77 324 82 322 77 322 82 320 76 324 92 324 88 327 88 328 102 325 103 320 85 315 78 325 104 325 115 331 122 332 144 329 144 328 137 328 148 332 144 332 129 327 92 336 94 331 113 334 116 334 129 335 126 339 131 341 140 346 126 344 113 349 116 335 96 343 96 339 94 341 92 329 87 333 75 330 78 329 69 Z" fill="none" stroke="black" stroke-width="2.110423" />
<path d="M264 58 264 64 276 51 284 69 281 56 276 49 270 58 Z" fill="none" stroke="black" stroke-width="1.129695" />
<path d="M277 43 282 54 286 54 286 59 300 74 286 57 283 42 282 49 Z" fill="none" stroke="black" stroke-width="1.154806" />
<path d="M62 39 57 47 54 62 47 71 56 64 53 63 60 49 56 71 37 97 31 112 58 66 62 68 60 72 72 59 77 58 72 57 69 60 66 56 73 45 58 61 63 46 61 50 58 47 Z" fill="none" stroke="black" stroke-width="1.690574" />
<path d="M57 34 49 35 50 31 46 38 43 35 46 31 40 44 41 57 43 47 49 44 48 36 54 36 54 48 51 45 53 50 53 38 Z" fill="none" stroke="black" stroke-width="1.245256" />
<path d="M288 28 303 46 302 59 313 80 311 70 302 57 304 53 311 62 302 52 305 51 301 42 303 31 299 32 298 37 Z" fill="none" stroke="black" stroke-width="1.315378" />
<path d="M297 20 316 44 302 19 Z" fill="none" stroke="black" stroke-width="1.086610" />
<path d="M53 16 50 19 56 19 55 23 52 23 61 32 59 19 Z" fill="none" stroke="black" stroke-width="1.045744" />
<path d="M69 14 71 17 68 21 64 19 66 14 64 17 64 28 70 20 Z" fill="none" stroke="black" stroke-width="1.045289" />
<path d="M245 8 253 17 251 24 261 31 262 43 265 44 265 37 269 36 257 21 259 20 275 39 276 35 279 40 283 39 293 51 288 42 295 39 288 37 280 29 281 25 277 33 269 29 261 17 260 20 257 19 257 11 261 9 Z" fill="none" stroke="black" stroke-width="1.510938" />
<path d="M295 12 290 10 293 9 291 6 278 10 267 7 265 9 272 15 260 15 277 16 282 12 285 14 283 17 280 16 283 18 278 18 282 20 287 18 286 14 Z" fill="none" stroke="black" stroke-width="1.235441" />
<path d="M291 0 296 5 304 7 306 12 299 8 304 14 300 14 312 24 308 19 312 16 315 23 325 25 326 30 319 30 320 35 329 46 320 35 322 29 332 43 333 52 335 49 339 52 339 70 349 77 342 68 338 49 325 27 326 24 306 11 305 7 Z" fill="none" stroke="black" stroke-width="1.675174" />
<path d="M283 2 280 4 280 0 262 4 247 0 229 0 223 8 197 1 185 2 178 7 178 2 163 6 159 3 148 4 143 8 137 2 126 5 123 11 137 10 148 5 155 8 160 6 162 8 152 14 153 20 129 19 131 21 128 22 124 13 110 24 100 26 104 26 103 29 99 29 91 24 98 16 94 16 91 25 96 28 91 29 85 22 93 33 89 30 83 34 83 28 80 42 75 39 77 34 74 28 72 36 75 47 88 52 86 50 91 43 96 45 93 49 97 46 97 41 102 41 105 45 87 56 80 56 69 70 84 56 102 50 91 59 109 49 117 41 120 43 113 59 121 47 125 46 129 50 139 49 129 49 130 45 122 47 120 44 124 42 123 34 121 42 114 41 102 50 106 45 104 42 121 29 128 35 130 43 134 42 141 46 179 43 186 46 183 43 192 43 179 43 188 38 199 43 188 48 182 47 181 51 201 47 221 59 225 56 213 54 221 54 215 52 212 47 211 52 201 46 206 42 213 43 209 37 216 29 225 37 226 43 219 43 224 45 223 49 227 44 227 36 222 34 224 30 240 47 229 54 227 52 232 51 234 44 227 54 237 51 238 56 243 50 253 46 257 56 260 56 257 54 257 48 245 46 251 43 246 38 239 38 241 32 249 35 240 30 242 23 250 30 245 23 248 19 249 22 249 18 236 5 229 3 246 1 265 7 262 5 277 2 277 7 Z" fill="none" stroke="black" stroke-width="4.621280" />
<path d="M89 32 90 36 84 38 84 45 78 49 73 39 81 42 82 35 Z" fill="none" stroke="black" stroke-width="1.066685" />
<path d="M113 30 114 33 107 40 96 39 98 32 Z" fill="none" stroke="black" stroke-width="1.015485" />
<path d="M124 24 138 20 133 27 129 27 155 27 144 29 140 33 144 37 141 41 131 34 Z" fill="none" stroke="black" stroke-width="1.172337" />
<path d="M201 19 211 16 220 21 214 21 215 23 220 23 224 27 225 23 234 30 231 26 235 24 232 24 229 18 234 16 239 20 235 27 239 29 240 37 237 40 237 33 230 30 211 29 211 22 Z" fill="none" stroke="black" stroke-width="1.322209" />
<path d="M193 36 182 38 178 43 142 46 129 40 132 38 129 36 131 34 140 42 143 42 145 37 146 42 149 39 142 34 150 35 151 38 152 29 162 33 153 37 158 37 167 29 166 24 170 16 176 17 174 34 180 33 185 36 178 32 180 30 Z" fill="none" stroke="black" stroke-width="1.533521" />
<path d="M125 16 127 20 122 26 116 25 111 29 105 29 105 25 Z" fill="none" stroke="black" stroke-width="1.024112" />
<path d="M175 9 161 22 153 19 153 15 160 10 166 16 165 13 Z" fill="none" stroke="black" stroke-width="1.067819" />
<path d="M206 8 215 6 217 12 218 8 223 9 215 15 212 12 213 8 Z" fill="none" stroke="black" stroke-width="1.045451" />
<path d="M223 8 227 5 227 9 234 6 245 16 241 20 Z" fill="none" stroke="black" stroke-width="1.030160" />
<path d="M175 6 163 14 162 12 168 8 160 10 165 5 Z" fill="none" stroke="black" stroke-width="1.035385" />
<path d="M201 3 207 11 193 15 200 22 195 28 184 24 179 29 178 24 184 22 182 19 178 23 177 17 184 17 177 16 178 11 184 6 Z" fill="none" stroke="black" stroke-width="1.228294" />
<path d="M69 0 70 5 67 9 71 6 77 16 73 23 74 16 67 29 71 29 65 43 68 40 70 45 70 25 76 24 80 15 79 11 70 5 Z" fill="none" stroke="black" stroke-width="1.283392" />
<path d="M64 0 47 6 22 36 7 76 3 111 6 134 4 141 16 176 3 178 0 203 12 234 23 281 32 300 43 308 50 351 56 366 59 458 40 472 41 478 53 465 60 462 49 465 60 458 60 430 56 407 57 368 52 356 43 306 31 297 20 269 22 265 30 276 28 278 31 273 16 252 12 234 16 212 8 200 16 215 14 223 11 222 3 196 6 213 13 226 12 234 0 203 1 183 6 177 12 177 28 198 27 192 14 178 17 177 19 180 16 176 18 171 12 160 12 144 9 140 12 126 9 125 14 115 15 100 10 81 12 72 12 103 9 106 9 115 6 114 5 118 3 115 6 108 7 77 13 58 19 57 26 49 26 54 16 63 25 61 22 72 25 73 23 81 14 78 14 85 16 86 17 78 23 82 24 88 21 98 16 96 22 100 23 106 19 133 26 158 25 171 26 157 20 138 19 123 23 110 23 117 28 116 23 133 25 143 25 123 29 117 24 116 23 100 34 59 31 53 34 60 28 73 26 89 24 66 28 62 31 45 34 53 34 42 41 33 37 35 33 45 29 44 29 38 51 14 61 10 58 9 61 7 55 10 52 8 44 14 46 8 57 2 63 3 Z" fill="none" stroke="black" stroke-width="6.000000" />
<path d="M8 116 11 128 11 156 5 141 7 134 4 119 Z" fill="none" stroke="black" stroke-width="1.137226" />
<path d="M34 25 24 44 29 39 30 42 16 56 20 42 Z" fill="none" stroke="black" stroke-width="1.103959" />
<path d="M49 15 45 20 40 18 35 26 31 25 39 16 Z" fill="none" stroke="black" stroke-width="1.030793" />
</svg>