<svg width="100%" height="100%" version="1.1" xmlns="http://www.w3.org/2000/svg"> 
<path d="M63 460 62 466 44 485 43 498 45 485 59 471 Z" fill="none" stroke="black" stroke-width="1.229094" />
<path d="M134 456 146 465 161 469 180 466 183 462 180 466 161 468 151 466 Z" fill="none" stroke="black" stroke-width="1.278081" />
<path d="M120 445 130 459 141 466 133 461 Z" fill="none" stroke="black" stroke-width="1.054428" />
<path d="M269 392 262 399 262 403 254 408 260 408 257 415 Z" fill="none" stroke="black" stroke-width="1.042075" />
<path d="M209 363 180 367 170 365 180 367 Z" fill="none" stroke="black" stroke-width="1.099686" />
<path d="M169 360 162 359 159 364 144 363 165 364 Z" fill="none" stroke="black" stroke-width="1.096464" />
<path d="M105 358 110 363 126 363 130 367 130 372 146 383 166 385 158 385 154 379 153 383 148 383 131 371 131 364 155 368 114 363 107 358 110 354 Z" fill="none" stroke="black" stroke-width="1.801428" />
<path d="M236 360 210 359 197 353 185 359 167 354 142 359 119 359 138 360 159 354 185 359 198 354 217 361 Z" fill="none" stroke="black" stroke-width="1.882156" />
<path d="M257 352 243 363 227 365 224 368 158 368 153 375 149 374 161 381 154 375 158 369 197 371 221 367 221 370 232 364 248 362 Z" fill="none" stroke="black" stroke-width="1.971856" />
<path d="M217 315 191 315 184 319 191 316 Z" fill="none" stroke="black" stroke-width="1.063490" />
<path d="M147 315 164 315 184 321 164 314 Z" fill="none" stroke="black" stroke-width="1.142254" />
<path d="M219 305 218 320 203 329 217 322 221 314 Z" fill="none" stroke="black" stroke-width="1.133436" />
<path d="M143 303 141 310 144 319 163 330 167 328 163 329 145 319 142 314 Z" fill="none" stroke="black" stroke-width="1.208685" />
<path d="M18 260 21 275 32 300 43 308 49 347 56 365 59 458 39 473 42 478 40 474 60 458 56 365 48 338 45 311 30 295 Z" fill="none" stroke="black" stroke-width="2.864172" />
<path d="M343 232 338 234 342 232 346 237 347 250 342 266 335 270 338 261 334 267 335 272 342 267 347 254 347 236 Z" fill="none" stroke="black" stroke-width="1.402120" />
<path d="M308 226 312 233 309 258 311 270 312 233 Z" fill="none" stroke="black" stroke-width="1.248002" />
<path d="M355 216 348 216 346 219 351 234 350 244 350 237 356 227 351 234 347 218 Z" fill="none" stroke="black" stroke-width="1.238052" />
<path d="M109 198 111 207 117 209 117 198 114 198 119 203 116 208 112 206 112 200 Z" fill="none" stroke="black" stroke-width="1.114394" />
<path d="M20 190 30 210 30 233 38 249 43 303 40 257 30 230 31 210 Z" fill="none" stroke="black" stroke-width="1.836621" />
<path d="M204 211 204 214 218 203 221 205 213 213 232 219 225 216 223 211 235 202 236 211 242 219 257 220 264 213 265 202 271 207 270 213 270 204 264 201 262 214 255 220 248 220 237 211 237 198 244 194 259 194 272 201 291 220 284 223 283 216 279 229 274 232 255 233 246 230 254 233 276 232 283 223 294 220 273 200 257 193 244 194 221 205 222 201 234 194 257 190 272 195 280 202 281 207 280 200 274 195 257 189 239 191 Z" fill="none" stroke="black" stroke-width="3.657589" />
<path d="M76 208 77 212 79 203 87 194 114 188 136 194 146 200 145 204 123 192 98 196 84 208 85 202 94 194 84 202 84 209 81 211 99 196 120 194 129 200 128 208 122 216 109 218 103 212 100 200 94 204 94 211 94 206 99 201 102 213 107 218 115 220 126 213 130 202 141 211 137 214 142 216 131 218 140 218 150 213 146 207 140 204 146 208 140 209 129 201 130 198 122 194 128 194 145 204 147 199 132 191 115 188 99 189 84 195 Z" fill="none" stroke="black" stroke-width="3.567276" />
<path d="M217 198 236 189 260 187 278 194 289 211 285 200 266 188 254 186 233 189 Z" fill="none" stroke="black" stroke-width="1.564123" />
<path d="M199 184 192 209 198 197 Z" fill="none" stroke="black" stroke-width="1.053073" />
<path d="M5 182 27 213 Z" fill="none" stroke="black" stroke-width="1.046893" />
<path d="M13 179 28 198 24 188 Z" fill="none" stroke="black" stroke-width="1.033146" />
<path d="M123 166 119 168 103 165 93 174 85 170 76 170 83 170 89 174 75 183 85 176 90 177 104 166 120 169 Z" fill="none" stroke="black" stroke-width="1.483367" />
<path d="M302 173 295 162 294 151 292 153 295 155 301 176 294 173 290 166 288 170 276 173 253 168 264 171 263 175 252 173 250 170 246 173 222 172 214 181 203 186 200 193 206 185 215 181 224 172 264 175 267 172 276 174 289 170 300 177 Z" fill="none" stroke="black" stroke-width="2.288962" />
<path d="M22 109 19 134 26 157 25 166 26 156 19 134 20 115 23 110 23 115 25 114 25 110 Z" fill="none" stroke="black" stroke-width="1.452183" />
<path d="M357 100 354 102 354 107 356 102 358 104 357 111 354 112 352 109 355 117 352 146 350 149 347 147 351 151 352 161 345 180 359 186 360 226 352 243 348 269 333 303 323 313 316 311 321 275 329 274 321 271 328 268 333 260 332 250 332 262 325 269 321 267 324 252 332 238 341 211 341 199 340 213 331 239 324 250 316 299 317 314 313 321 301 375 296 445 297 454 307 463 302 467 298 462 303 469 307 461 297 452 296 445 302 394 302 365 310 347 313 321 317 314 324 313 332 306 347 273 351 250 360 228 359 185 351 180 347 173 352 163 352 131 357 114 Z" fill="none" stroke="black" stroke-width="6.000000" />
<path d="M334 96 344 111 345 124 341 135 336 126 336 106 341 112 336 102 337 105 334 106 337 114 334 126 342 136 341 140 346 124 345 110 Z" fill="none" stroke="black" stroke-width="1.631143" />
<path d="M330 91 338 95 342 93 333 88 339 94 Z" fill="none" stroke="black" stroke-width="1.020554" />
<path d="M58 68 32 109 Z" fill="none" stroke="black" stroke-width="1.094606" />
<path d="M302 55 311 76 321 90 327 106 327 116 331 122 334 151 326 182 334 152 331 121 320 85 311 74 Z" fill="none" stroke="black" stroke-width="2.004977" />
<path d="M282 52 300 73 Z" fill="none" stroke="black" stroke-width="1.000000" />
<path d="M102 48 79 58 69 66 73 67 81 58 Z" fill="none" stroke="black" stroke-width="1.119523" />
<path d="M63 40 48 71 53 64 55 66 53 62 Z" fill="none" stroke="black" stroke-width="1.102723" />
<path d="M30 39 17 57 25 48 26 50 Z" fill="none" stroke="black" stroke-width="1.039955" />
<path d="M228 34 238 45 237 56 253 46 257 55 271 59 275 54 275 43 276 48 270 58 259 55 254 46 243 49 240 53 239 49 249 43 247 39 237 40 Z" fill="none" stroke="black" stroke-width="1.652589" />
<path d="M73 34 73 41 78 50 90 39 85 37 88 38 78 49 Z" fill="none" stroke="black" stroke-width="1.132824" />
<path d="M93 57 108 50 118 41 121 43 119 48 115 48 115 57 117 50 122 47 133 49 134 47 131 49 121 46 125 33 130 43 141 46 198 42 201 45 190 51 183 51 182 47 180 51 191 51 208 42 213 30 219 30 223 35 224 30 238 34 225 29 213 29 208 41 201 45 193 40 180 44 185 37 177 33 184 37 178 43 142 46 132 43 128 36 131 34 140 42 147 41 147 38 141 41 126 27 121 41 114 41 107 49 Z" fill="none" stroke="black" stroke-width="3.310056" />
<path d="M167 23 165 30 156 37 151 36 150 30 146 34 144 29 140 33 143 39 143 33 151 37 161 35 166 30 Z" fill="none" stroke="black" stroke-width="1.261876" />
<path d="M80 16 70 24 65 41 71 38 68 35 70 26 77 19 77 23 Z" fill="none" stroke="black" stroke-width="1.167280" />
<path d="M60 11 51 13 33 32 48 20 50 15 Z" fill="none" stroke="black" stroke-width="1.146404" />
<path d="M265 9 270 10 272 15 262 15 258 20 267 29 276 33 281 31 293 41 280 27 276 32 266 26 261 20 263 15 272 16 274 20 283 19 276 20 273 12 Z" fill="none" stroke="black" stroke-width="1.594959" />
<path d="M122 9 138 9 140 12 141 9 124 9 136 2 143 8 152 5 156 9 157 4 160 6 155 3 143 8 138 2 133 2 Z" fill="none" stroke="black" stroke-width="1.410803" />
<path d="M292 0 303 16 322 28 332 45 330 39 333 38 342 62 341 68 351 78 345 85 357 98 353 79 342 67 338 49 325 27 326 24 305 9 303 11 301 9 304 7 Z" fill="none" stroke="black" stroke-width="2.060302" />
<path d="M304 11 324 24 324 28 304 16 Z" fill="none" stroke="black" stroke-width="1.106511" />
<path d="M233 0 266 4 278 11 276 15 280 12 288 15 295 13 279 11 287 8 277 10 267 3 Z" fill="none" stroke="black" stroke-width="1.415939" />
<path d="M229 0 225 7 229 4 245 15 237 22 235 29 239 22 240 32 242 24 250 28 245 23 249 18 243 11 230 4 Z" fill="none" stroke="black" stroke-width="1.432455" />
<path d="M204 0 204 10 206 4 213 9 199 15 207 12 212 14 206 18 200 17 211 16 218 20 230 20 229 26 233 29 232 21 219 14 227 11 230 16 236 15 221 10 218 14 212 13 214 7 Z" fill="none" stroke="black" stroke-width="1.717425" />
<path d="M192 0 185 0 179 6 173 0 176 5 163 13 160 10 169 0 157 12 147 16 160 10 162 14 168 13 174 7 173 17 171 19 170 15 157 24 169 17 171 19 181 16 182 19 176 28 181 21 184 22 182 16 178 17 177 12 175 15 173 13 178 6 Z" fill="none" stroke="black" stroke-width="1.962367" />
<path d="M64 0 47 6 30 24 13 55 7 76 3 112 4 142 9 148 15 176 3 178 0 202 17 256 24 263 31 259 28 258 24 262 18 256 14 239 20 217 14 238 1 207 1 183 6 177 16 177 9 147 5 141 3 116 6 108 7 77 19 44 34 25 33 22 48 6 Z" fill="none" stroke="black" stroke-width="3.843337" />
</svg>