<svg width="100%" height="100%" version="1.1" xmlns="http://www.w3.org/2000/svg"> 
<path d="M168 345 171 348 180 345 184 349 242 346 237 345 234 347 232 346 206 348 192 347 185 349 180 344 175 344 176 346 174 348 171 348 Z" fill="none" stroke="black" stroke-width="2" />
<path d="M173 337 169 340 163 339 172 339 172 342 160 342 172 343 Z" fill="none" stroke="black" stroke-width="2" />
<path d="M195 336 207 338 220 338 225 342 231 343 241 342 228 342 216 337 Z" fill="none" stroke="black" stroke-width="2" />
<path d="M134 336 138 337 143 341 161 340 161 338 157 334 136 333 Z" fill="none" stroke="black" stroke-width="2" />
<path d="M135 335 156 334 160 339 158 341 143 341 140 337 137 337 Z" fill="none" stroke="black" stroke-width="2" />
<path d="M226 296 221 292 215 292 209 294 201 300 215 292 219 292 Z" fill="none" stroke="black" stroke-width="2" />
<path d="M161 289 163 290 166 287 173 287 179 291 174 293 168 293 170 294 180 291 183 293 181 290 173 287 165 287 Z" fill="none" stroke="black" stroke-width="2" />
<path d="M352 263 349 265 348 271 343 279 333 285 329 289 328 294 331 288 345 277 349 269 349 265 Z" fill="none" stroke="black" stroke-width="2" />
<path d="M36 243 34 248 34 254 36 258 34 254 34 249 36 246 37 247 38 266 37 267 34 264 35 263 34 262 34 264 37 269 41 270 38 264 Z" fill="none" stroke="black" stroke-width="2" />
<path d="M13 243 12 244 16 248 16 259 20 265 25 269 32 268 33 266 27 269 17 259 16 248 Z" fill="none" stroke="black" stroke-width="2" />
<path d="M19 224 18 235 16 224 17 242 16 239 17 236 19 236 Z" fill="none" stroke="black" stroke-width="2" />
<path d="M44 212 42 215 42 238 46 261 46 272 45 250 42 237 42 215 Z" fill="none" stroke="black" stroke-width="2" />
<path d="M6 211 4 243 6 245 9 256 4 236 Z" fill="none" stroke="black" stroke-width="2" />
<path d="M44 196 44 205 48 221 47 225 49 236 Z" fill="none" stroke="black" stroke-width="2" />
<path d="M204 215 211 217 216 221 217 229 220 234 221 232 222 233 224 246 228 256 245 274 253 278 259 277 272 280 291 278 292 279 289 281 275 282 286 282 300 277 315 265 320 258 318 260 317 257 324 251 326 247 333 222 338 216 348 218 346 217 349 215 349 211 323 197 320 197 315 193 307 191 305 189 309 189 305 185 307 187 305 189 299 189 289 185 259 185 258 187 246 189 238 193 234 198 233 196 231 198 231 201 227 205 225 205 226 208 221 213 220 233 217 228 215 219 213 217 Z" fill="none" stroke="black" stroke-width="2" />
<path d="M228 207 229 210 226 215 227 221 225 223 224 218 224 234 228 244 228 248 233 257 232 259 225 248 225 243 221 231 221 215 Z" fill="none" stroke="black" stroke-width="2" />
<path d="M314 194 319 196 321 198 320 199 324 202 331 205 334 208 332 209 335 215 338 216 332 222 328 240 324 248 323 243 325 241 328 225 327 217 323 206 314 198 Z" fill="none" stroke="black" stroke-width="2" />
<path d="M262 185 283 185 303 189 304 193 314 197 314 199 323 207 326 214 328 224 323 246 316 254 316 259 306 269 293 277 273 280 258 277 243 268 235 259 229 249 225 237 225 230 226 229 228 233 230 233 230 229 225 224 228 222 226 216 229 213 230 207 242 195 255 190 263 190 260 189 261 187 287 188 262 187 Z" fill="none" stroke="black" stroke-width="2" />
<path d="M248 207 249 217 253 222 262 224 270 223 273 220 275 210 278 210 295 222 302 222 294 221 278 209 275 209 274 216 268 223 258 223 250 218 Z" fill="none" stroke="black" stroke-width="2" />
<path d="M230 217 239 218 239 215 237 214 234 217 232 215 243 206 252 202 260 202 265 200 275 203 286 210 288 213 294 215 297 218 301 218 290 213 280 205 266 200 253 201 243 205 Z" fill="none" stroke="black" stroke-width="2" />
<path d="M52 182 54 185 53 188 48 190 44 194 55 188 53 187 54 186 58 186 59 188 71 195 72 217 76 233 85 250 93 258 105 265 121 269 133 269 155 262 172 246 181 227 185 210 182 208 180 198 173 188 171 188 165 182 155 177 149 177 140 173 132 173 125 170 108 170 99 173 94 173 85 177 63 181 64 184 62 186 61 181 59 181 58 186 55 186 Z" fill="none" stroke="black" stroke-width="2" />
<path d="M153 261 147 265 132 269 116 268 104 263 108 262 118 266 135 266 151 260 Z" fill="none" stroke="black" stroke-width="2" />
<path d="M178 197 182 209 184 211 184 216 177 234 176 229 178 224 179 208 177 201 Z" fill="none" stroke="black" stroke-width="2" />
<path d="M90 180 93 180 96 177 103 174 123 173 135 175 149 180 154 180 170 190 175 196 179 208 176 232 168 245 156 257 138 265 115 265 97 256 83 240 77 226 76 204 78 195 81 189 Z" fill="none" stroke="black" stroke-width="2" />
<path d="M149 196 149 209 145 213 131 213 125 207 125 199 124 205 126 210 129 213 133 214 146 213 149 210 150 205 Z" fill="none" stroke="black" stroke-width="2" />
<path d="M170 210 167 205 164 204 152 193 148 193 144 190 122 192 108 199 96 201 112 198 122 192 143 190 152 194 169 208 168 210 162 208 152 197 152 199 159 207 169 212 Z" fill="none" stroke="black" stroke-width="2" />
<path d="M99 197 123 188 144 187 158 192 174 207 175 210 176 208 161 193 154 189 145 187 128 187 116 189 110 193 107 193 Z" fill="none" stroke="black" stroke-width="2" />
<path d="M128 171 128 173 107 173 96 176 91 180 87 181 83 185 76 200 76 222 80 232 80 238 77 234 73 220 71 194 62 188 65 185 73 185 70 184 73 182 71 182 69 185 66 185 64 182 66 180 81 178 108 170 Z" fill="none" stroke="black" stroke-width="2" />
<path d="M218 148 220 150 221 148 229 150 239 147 226 149 222 148 221 146 220 148 Z" fill="none" stroke="black" stroke-width="2" />
<path d="M77 138 75 142 75 147 72 149 74 151 71 155 72 159 76 156 77 157 83 151 85 154 85 151 82 151 80 154 77 154 74 157 71 156 73 154 73 149 75 147 Z" fill="none" stroke="black" stroke-width="2" />
<path d="M222 136 239 139 250 144 250 142 227 137 225 135 Z" fill="none" stroke="black" stroke-width="2" />
<path d="M197 132 196 134 198 133 206 142 207 141 214 146 218 146 210 143 200 133 Z" fill="none" stroke="black" stroke-width="2" />
<path d="M374 121 372 125 374 179 371 183 369 213 360 226 360 239 358 241 357 252 355 252 355 245 355 252 353 255 355 257 354 264 351 268 344 286 344 291 341 299 326 316 319 317 317 319 316 326 312 334 311 343 303 363 296 373 296 375 283 389 284 457 287 470 287 488 285 498 287 489 287 469 284 449 283 391 294 379 305 361 317 320 319 318 327 316 341 301 347 279 354 265 354 260 357 255 357 247 360 239 360 228 369 215 371 184 374 179 374 156 372 141 Z" fill="none" stroke="black" stroke-width="2" />
<path d="M168 111 176 125 182 131 189 133 184 132 173 119 171 113 Z" fill="none" stroke="black" stroke-width="2" />
<path d="M119 111 111 109 107 113 104 113 104 123 100 117 92 121 87 120 87 131 88 123 100 118 108 131 106 135 108 134 110 127 106 123 104 115 108 114 111 110 Z" fill="none" stroke="black" stroke-width="2" />
<path d="M180 108 192 131 191 133 207 150 211 150 221 154 234 153 240 149 247 150 255 154 259 166 256 154 247 149 240 149 234 153 219 153 217 151 214 152 212 150 207 149 191 132 192 130 185 118 184 113 Z" fill="none" stroke="black" stroke-width="2" />
<path d="M125 82 163 101 161 98 149 94 142 89 131 85 126 81 Z" fill="none" stroke="black" stroke-width="2" />
<path d="M93 1 90 1 85 6 76 19 49 46 48 53 36 64 29 76 26 78 27 86 16 102 16 111 12 115 12 125 10 128 10 149 8 151 8 172 4 178 3 212 0 218 1 245 9 273 11 275 13 282 25 295 32 300 32 303 38 309 40 316 44 321 44 325 47 329 46 337 47 342 50 346 50 352 53 358 56 359 57 365 63 369 64 407 62 413 61 441 56 446 56 448 58 448 59 450 56 454 52 467 53 498 53 464 61 448 62 413 64 408 63 368 57 363 57 358 55 358 53 354 50 352 50 344 47 341 46 325 37 307 38 305 40 306 34 299 45 299 46 314 45 298 29 297 13 281 6 261 4 250 1 244 0 222 1 215 3 213 5 178 8 173 8 153 10 153 10 163 10 128 12 126 12 117 17 109 18 99 21 99 19 106 19 103 28 92 30 87 28 78 30 73 37 64 49 53 49 48 77 19 77 17 Z" fill="none" stroke="black" stroke-width="2" />
<path d="M294 0 308 10 312 17 324 29 325 35 338 49 335 49 337 52 336 53 327 50 323 46 324 49 338 56 336 53 338 49 347 58 350 63 349 66 344 61 337 58 334 58 335 64 353 85 357 85 359 82 360 83 360 90 368 100 372 108 372 114 374 116 373 107 370 105 365 94 361 91 360 81 358 81 355 85 335 63 334 59 337 58 344 62 352 70 353 67 350 64 348 58 325 34 324 28 315 19 309 10 304 5 Z" fill="none" stroke="black" stroke-width="2" />
</svg>