<svg width="100%" height="100%" version="1.1" xmlns="http://www.w3.org/2000/svg"> 
<path d="M168 345 242 346 Z" fill="none" stroke="black" stroke-width="2" />
<path d="M173 337 160 342 172 343 Z" fill="none" stroke="black" stroke-width="2" />
<path d="M195 336 241 342 Z" fill="none" stroke="black" stroke-width="2" />
<path d="M134 336 161 340 157 334 Z" fill="none" stroke="black" stroke-width="2" />
<path d="M135 335 160 339 Z" fill="none" stroke="black" stroke-width="2" />
<path d="M226 296 215 292 201 300 215 292 Z" fill="none" stroke="black" stroke-width="2" />
<path d="M161 289 183 293 Z" fill="none" stroke="black" stroke-width="2" />
<path d="M352 263 328 294 Z" fill="none" stroke="black" stroke-width="2" />
<path d="M36 243 34 264 41 270 Z" fill="none" stroke="black" stroke-width="2" />
<path d="M13 243 20 265 32 268 20 263 Z" fill="none" stroke="black" stroke-width="2" />
<path d="M19 224 17 242 Z" fill="none" stroke="black" stroke-width="2" />
<path d="M44 212 46 272 Z" fill="none" stroke="black" stroke-width="2" />
<path d="M6 211 9 256 Z" fill="none" stroke="black" stroke-width="2" />
<path d="M44 196 49 236 Z" fill="none" stroke="black" stroke-width="2" />
<path d="M204 215 216 221 228 256 245 274 286 282 315 265 333 222 348 218 349 211 305 185 259 185 225 205 220 233 215 219 Z" fill="none" stroke="black" stroke-width="2" />
<path d="M228 207 224 234 232 259 221 231 Z" fill="none" stroke="black" stroke-width="2" />
<path d="M314 194 338 216 324 248 327 217 Z" fill="none" stroke="black" stroke-width="2" />
<path d="M262 185 303 189 326 214 323 246 293 277 258 277 229 249 230 207 261 187 287 188 Z" fill="none" stroke="black" stroke-width="2" />
<path d="M248 207 253 222 270 223 275 210 302 222 275 209 268 223 258 223 Z" fill="none" stroke="black" stroke-width="2" />
<path d="M230 217 265 200 301 218 266 200 243 205 Z" fill="none" stroke="black" stroke-width="2" />
<path d="M52 182 44 194 58 186 71 195 76 233 105 265 133 269 155 262 181 227 180 198 155 177 108 170 62 186 Z" fill="none" stroke="black" stroke-width="2" />
<path d="M153 261 132 269 104 263 Z" fill="none" stroke="black" stroke-width="2" />
<path d="M178 197 184 216 177 234 Z" fill="none" stroke="black" stroke-width="2" />
<path d="M90 180 123 173 170 190 179 208 168 245 138 265 97 256 76 218 78 195 Z" fill="none" stroke="black" stroke-width="2" />
<path d="M149 196 145 213 131 213 125 199 126 210 146 213 Z" fill="none" stroke="black" stroke-width="2" />
<path d="M170 210 144 190 96 201 143 190 Z" fill="none" stroke="black" stroke-width="2" />
<path d="M99 197 144 187 176 208 145 187 Z" fill="none" stroke="black" stroke-width="2" />
<path d="M128 171 83 185 76 200 80 238 71 194 62 188 73 182 64 182 Z" fill="none" stroke="black" stroke-width="2" />
<path d="M218 148 239 147 Z" fill="none" stroke="black" stroke-width="2" />
<path d="M77 138 72 159 85 154 71 156 Z" fill="none" stroke="black" stroke-width="2" />
<path d="M222 136 250 144 Z" fill="none" stroke="black" stroke-width="2" />
<path d="M197 132 218 146 Z" fill="none" stroke="black" stroke-width="2" />
<path d="M374 121 374 179 341 299 317 319 303 363 283 389 285 498 283 391 305 361 317 320 341 301 369 215 Z" fill="none" stroke="black" stroke-width="2" />
<path d="M168 111 189 133 Z" fill="none" stroke="black" stroke-width="2" />
<path d="M119 111 104 113 104 123 100 117 87 120 87 131 100 118 108 134 104 115 Z" fill="none" stroke="black" stroke-width="2" />
<path d="M180 108 207 150 247 150 259 166 247 149 207 149 Z" fill="none" stroke="black" stroke-width="2" />
<path d="M125 82 163 101 Z" fill="none" stroke="black" stroke-width="2" />
<path d="M93 1 26 78 12 115 0 218 9 273 38 309 50 352 63 369 53 498 63 368 50 352 34 299 45 299 46 314 45 298 29 297 13 281 0 222 18 99 49 48 Z" fill="none" stroke="black" stroke-width="2" />
<path d="M294 0 338 49 324 49 338 56 338 49 349 66 337 58 335 64 353 85 360 83 374 116 360 81 355 85 335 63 337 58 352 70 348 58 Z" fill="none" stroke="black" stroke-width="2" />
</svg>