<svg width="100%" height="100%" version="1.1" xmlns="http://www.w3.org/2000/svg"> 
<path d="M239 446 238 451 241 455 234 463 234 467 243 477 250 477 242 475 235 465 242 456 243 448 Z" fill="none" stroke="black" stroke-width="1.177608" />
<path d="M283 442 276 450 282 458 281 461 285 461 281 455 Z" fill="none" stroke="black" stroke-width="1.008873" />
<path d="M312 441 314 450 303 459 303 465 306 458 315 451 315 444 Z" fill="none" stroke="black" stroke-width="1.077740" />
<path d="M291 435 286 447 297 458 287 445 292 439 292 447 299 448 303 443 307 446 299 455 311 446 303 442 295 446 294 436 Z" fill="none" stroke="black" stroke-width="1.343064" />
<path d="M226 432 230 441 224 451 232 443 228 455 234 459 235 454 232 458 230 452 234 447 235 436 232 442 Z" fill="none" stroke="black" stroke-width="1.205111" />
<path d="M194 412 192 416 187 413 184 415 187 414 193 420 193 442 198 451 196 454 182 438 187 433 185 430 181 439 193 452 186 460 197 470 195 466 202 457 194 440 194 414 198 416 199 443 203 448 209 449 207 446 204 447 199 439 199 415 Z" fill="none" stroke="black" stroke-width="1.872044" />
<path d="M129 406 137 482 144 490 138 481 Z" fill="none" stroke="black" stroke-width="1.220611" />
<path d="M300 399 297 399 298 407 295 412 280 424 276 422 281 426 280 430 289 425 291 427 281 437 295 426 290 425 293 421 300 431 295 419 302 412 282 427 283 423 299 409 Z" fill="none" stroke="black" stroke-width="1.536866" />
<path d="M131 396 107 428 92 441 11 477 0 476 13 478 100 438 130 402 Z" fill="none" stroke="black" stroke-width="1.952990" />
<path d="M240 392 236 396 239 401 232 413 230 410 232 402 229 406 230 415 235 415 239 403 245 407 247 413 253 416 245 427 255 427 264 433 261 438 267 451 267 458 273 464 279 464 284 473 282 464 275 463 267 457 266 449 271 445 265 447 262 438 265 433 255 426 249 427 254 416 247 411 237 396 Z" fill="none" stroke="black" stroke-width="1.884363" />
<path d="M307 390 300 397 305 403 308 427 310 423 304 399 Z" fill="none" stroke="black" stroke-width="1.130479" />
<path d="M322 387 320 391 327 399 325 403 322 396 324 406 328 398 Z" fill="none" stroke="black" stroke-width="1.047031" />
<path d="M185 378 174 390 176 410 178 408 174 403 174 392 Z" fill="none" stroke="black" stroke-width="1.081649" />
<path d="M322 377 326 389 339 401 343 400 342 393 347 386 346 376 346 386 341 393 342 399 327 387 Z" fill="none" stroke="black" stroke-width="1.241544" />
<path d="M263 363 269 374 270 387 277 394 271 405 281 412 288 398 282 409 278 408 284 391 282 388 276 392 272 389 270 372 Z" fill="none" stroke="black" stroke-width="1.374219" />
<path d="M248 352 246 369 241 380 246 392 245 402 247 392 242 381 248 359 252 357 Z" fill="none" stroke="black" stroke-width="1.233882" />
<path d="M278 348 254 346 235 349 231 354 212 358 198 375 215 357 231 355 236 350 255 346 Z" fill="none" stroke="black" stroke-width="1.424945" />
<path d="M316 337 313 332 304 330 243 331 223 335 191 347 182 355 181 361 192 348 223 336 280 330 313 334 314 349 311 351 317 362 313 354 Z" fill="none" stroke="black" stroke-width="2.001465" />
<path d="M310 298 305 295 299 283 283 277 270 278 249 290 238 289 236 284 213 286 218 288 221 285 231 285 238 290 245 288 249 291 272 279 283 278 296 282 302 288 304 297 Z" fill="none" stroke="black" stroke-width="1.638324" />
<path d="M291 268 292 276 292 271 297 269 314 285 305 285 313 290 313 287 318 287 299 268 Z" fill="none" stroke="black" stroke-width="1.211281" />
<path d="M213 256 210 256 206 264 189 279 178 295 176 302 179 304 170 319 165 342 170 333 172 317 179 306 183 305 177 301 183 289 202 269 205 271 206 286 214 295 207 301 209 303 218 296 206 283 205 267 Z" fill="none" stroke="black" stroke-width="1.852929" />
<path d="M280 249 309 270 326 288 327 302 337 317 334 335 339 340 335 330 336 322 341 320 328 300 327 288 310 269 Z" fill="none" stroke="black" stroke-width="1.576593" />
<path d="M102 230 118 251 112 237 Z" fill="none" stroke="black" stroke-width="1.031200" />
<path d="M494 217 416 218 413 224 413 237 404 243 406 246 402 264 383 301 383 330 375 348 373 363 369 366 369 374 371 373 370 367 375 363 375 352 383 331 383 302 392 291 399 275 407 244 414 238 414 225 417 219 492 218 494 250 490 265 490 299 486 310 486 354 482 367 482 397 479 401 478 445 469 446 453 437 425 430 401 418 377 390 374 369 374 424 370 433 370 445 362 464 362 475 352 490 363 477 363 464 371 447 377 392 399 418 424 431 453 438 468 447 479 446 482 368 487 356 487 310 491 299 Z" fill="none" stroke="black" stroke-width="5.488380" />
<path d="M201 216 199 214 186 224 172 225 182 226 Z" fill="none" stroke="black" stroke-width="1.036868" />
<path d="M183 218 179 210 174 209 157 225 141 227 155 227 175 210 Z" fill="none" stroke="black" stroke-width="1.206785" />
<path d="M287 195 292 209 295 210 308 209 316 199 326 209 348 209 326 208 318 197 312 200 314 201 308 208 295 209 Z" fill="none" stroke="black" stroke-width="1.385570" />
<path d="M219 201 213 197 197 198 195 193 193 197 185 197 170 203 153 220 147 222 155 221 169 206 185 198 210 199 199 206 189 205 194 212 212 199 Z" fill="none" stroke="black" stroke-width="1.608422" />
<path d="M211 188 163 189 155 197 165 189 196 191 Z" fill="none" stroke="black" stroke-width="1.238557" />
<path d="M268 199 280 206 288 200 287 198 279 205 270 200 292 186 324 191 337 203 346 205 336 201 328 192 311 185 292 185 Z" fill="none" stroke="black" stroke-width="1.539787" />
<path d="M9 185 0 195 15 185 95 187 97 203 101 208 101 223 93 226 89 232 89 258 107 314 117 326 125 365 133 377 133 396 133 376 126 364 118 324 107 310 90 258 91 231 102 224 102 208 98 202 96 185 Z" fill="none" stroke="black" stroke-width="2.797557" />
<path d="M160 174 176 174 182 171 201 174 211 171 222 183 222 191 234 201 238 220 234 199 222 188 223 182 211 170 181 170 176 173 Z" fill="none" stroke="black" stroke-width="1.592375" />
<path d="M328 165 322 167 319 172 297 176 276 187 298 177 318 173 Z" fill="none" stroke="black" stroke-width="1.237176" />
<path d="M330 161 324 157 303 156 290 161 277 161 274 165 303 157 324 158 Z" fill="none" stroke="black" stroke-width="1.265757" />
<path d="M102 144 103 201 Z" fill="none" stroke="black" stroke-width="1.082992" />
<path d="M130 57 118 76 104 114 104 122 99 126 99 187 100 127 104 124 104 114 107 114 106 138 108 115 114 111 116 93 133 61 138 57 132 61 131 59 162 31 171 30 180 20 200 14 216 16 216 13 201 13 201 9 220 8 238 1 268 3 268 7 257 7 266 7 280 16 297 19 305 24 308 22 281 15 280 12 290 13 318 25 353 57 350 58 341 51 354 61 361 76 367 78 375 94 375 107 379 114 379 141 379 131 383 131 386 153 384 187 386 198 391 201 379 218 381 238 378 259 382 239 380 218 393 203 387 196 388 188 391 197 396 198 407 209 410 232 411 218 408 209 399 198 391 194 388 186 388 152 385 150 380 113 376 107 376 93 357 57 319 24 282 11 270 3 238 0 232 4 191 11 176 17 Z" fill="none" stroke="black" stroke-width="6.000000" />
<path d="M130 61 131 65 119 81 121 73 Z" fill="none" stroke="black" stroke-width="1.000000" />
</svg>