<svg width="100%" height="100%" version="1.1" xmlns="http://www.w3.org/2000/svg"> 
<path d="M140 362 161 363 179 368 188 364 212 364 191 363 179 367 Z" fill="none" stroke="black" stroke-width="2" />
<path d="M119 359 156 359 172 364 185 361 222 361 223 364 209 366 225 365 223 361 185 361 175 364 156 359 Z" fill="none" stroke="black" stroke-width="2" />
<path d="M20 268 20 279 26 285 31 299 31 335 34 350 47 377 57 390 57 402 35 423 37 437 52 464 72 483 98 498 73 483 55 466 35 431 37 421 50 412 57 403 58 390 47 376 36 354 32 340 31 299 26 284 21 279 21 268 26 278 Z" fill="none" stroke="black" stroke-width="2" />
<path d="M135 202 144 210 136 207 147 216 129 217 147 216 149 224 146 214 153 216 Z" fill="none" stroke="black" stroke-width="2" />
<path d="M13 198 11 211 15 232 24 248 16 234 12 216 12 201 14 198 23 213 22 230 23 212 20 209 21 205 Z" fill="none" stroke="black" stroke-width="2" />
<path d="M203 219 204 224 203 220 207 216 209 221 226 220 207 219 222 207 224 208 220 211 220 216 229 219 220 214 228 207 229 215 234 221 260 221 264 216 252 207 254 213 248 221 235 221 229 214 228 206 230 202 237 201 224 202 235 197 262 207 270 217 269 220 266 218 272 224 276 223 272 222 274 221 267 210 278 221 284 223 268 209 230 195 220 196 210 207 222 196 234 197 212 208 Z" fill="none" stroke="black" stroke-width="2" />
<path d="M140 197 132 192 95 195 84 199 63 216 80 203 74 211 79 213 77 216 80 218 73 223 66 223 73 224 84 217 86 209 84 215 78 215 82 208 102 199 116 198 122 200 123 205 118 214 108 220 102 218 93 206 88 216 108 220 118 215 123 200 101 199 77 212 75 211 82 204 102 196 118 195 129 199 107 193 130 192 Z" fill="none" stroke="black" stroke-width="2" />
<path d="M12 191 6 197 10 235 5 236 1 230 0 208 4 201 0 206 0 226 4 236 10 236 6 197 9 196 9 203 Z" fill="none" stroke="black" stroke-width="2" />
<path d="M224 189 238 194 274 194 288 198 274 194 259 195 258 192 256 195 239 194 Z" fill="none" stroke="black" stroke-width="2" />
<path d="M119 189 143 193 124 187 Z" fill="none" stroke="black" stroke-width="2" />
<path d="M68 185 73 187 73 190 79 187 89 192 77 187 76 184 98 189 119 187 101 183 109 186 101 189 79 183 Z" fill="none" stroke="black" stroke-width="2" />
<path d="M273 176 285 187 288 196 289 192 Z" fill="none" stroke="black" stroke-width="2" />
<path d="M257 187 254 180 238 173 210 181 237 174 250 178 Z" fill="none" stroke="black" stroke-width="2" />
<path d="M276 170 288 187 289 184 294 187 294 190 291 190 293 201 297 193 288 178 291 182 288 184 Z" fill="none" stroke="black" stroke-width="2" />
<path d="M87 176 105 175 98 174 100 172 96 169 90 169 98 172 89 172 94 174 Z" fill="none" stroke="black" stroke-width="2" />
<path d="M35 167 31 168 33 172 28 186 30 195 26 201 30 201 26 255 31 289 26 236 30 205 29 184 Z" fill="none" stroke="black" stroke-width="2" />
<path d="M96 167 112 172 149 176 156 183 155 187 156 184 143 168 136 169 142 168 147 174 139 175 133 171 113 172 110 169 Z" fill="none" stroke="black" stroke-width="2" />
<path d="M310 164 310 199 Z" fill="none" stroke="black" stroke-width="2" />
<path d="M109 163 85 162 51 177 57 177 51 181 60 178 63 172 71 168 74 169 71 173 63 175 62 179 68 177 66 176 71 175 76 167 85 162 Z" fill="none" stroke="black" stroke-width="2" />
<path d="M14 140 12 158 18 192 21 189 17 188 18 183 15 184 Z" fill="none" stroke="black" stroke-width="2" />
<path d="M302 121 301 151 304 139 301 134 Z" fill="none" stroke="black" stroke-width="2" />
<path d="M300 95 306 120 Z" fill="none" stroke="black" stroke-width="2" />
<path d="M53 69 42 78 46 78 42 95 45 100 42 104 45 101 45 83 49 78 46 75 Z" fill="none" stroke="black" stroke-width="2" />
<path d="M265 63 284 69 288 75 290 71 294 85 301 93 294 83 290 69 288 72 277 65 Z" fill="none" stroke="black" stroke-width="2" />
<path d="M224 67 218 56 223 63 221 65 218 60 217 64 215 61 210 63 203 59 209 63 216 63 209 66 220 67 222 64 Z" fill="none" stroke="black" stroke-width="2" />
<path d="M35 50 27 52 29 62 24 68 24 81 21 86 23 91 17 108 14 138 19 133 17 129 21 125 18 125 20 121 16 119 21 103 19 99 22 96 23 98 22 95 25 93 22 90 24 82 35 77 28 79 30 77 26 73 29 66 26 70 27 75 24 75 24 69 29 63 27 54 31 54 32 63 31 59 34 57 31 55 Z" fill="none" stroke="black" stroke-width="2" />
<path d="M306 43 312 55 304 51 317 65 318 71 316 72 313 67 314 76 315 71 317 79 320 79 316 81 312 77 309 78 313 85 311 93 317 109 316 112 309 101 314 117 317 116 316 121 311 120 317 124 316 137 316 128 319 130 320 147 317 146 314 136 311 136 317 145 317 167 313 175 315 169 318 169 317 177 314 179 315 188 311 194 316 189 312 198 313 204 310 203 314 205 314 210 308 208 307 199 307 230 308 209 312 212 311 223 311 213 317 217 314 238 312 236 303 278 303 293 294 329 283 359 260 398 255 413 223 446 210 455 191 461 156 461 133 458 108 446 83 422 60 393 83 423 104 444 125 456 154 461 191 461 210 456 223 447 253 415 262 426 254 464 248 475 222 498 249 475 255 462 262 435 261 422 254 415 255 409 288 347 303 294 303 282 307 279 322 281 329 264 329 257 315 254 328 259 320 279 304 279 308 253 317 227 314 206 317 206 320 219 322 216 323 219 323 212 312 201 316 191 320 148 312 81 320 79 317 74 318 65 309 48 313 47 318 53 314 47 Z" fill="none" stroke="black" stroke-width="2" />
<path d="M121 38 142 53 Z" fill="none" stroke="black" stroke-width="2" />
<path d="M42 34 43 44 58 60 49 64 59 61 61 67 68 62 76 61 59 61 56 52 53 56 50 53 53 50 50 49 51 42 55 44 56 39 51 41 49 46 49 43 43 40 43 36 52 36 Z" fill="none" stroke="black" stroke-width="2" />
<path d="M210 32 222 55 236 72 239 70 238 65 249 60 255 65 257 63 248 60 238 64 236 62 239 61 239 57 248 58 240 55 239 60 236 62 234 58 232 64 223 55 225 54 Z" fill="none" stroke="black" stroke-width="2" />
<path d="M172 29 190 53 Z" fill="none" stroke="black" stroke-width="2" />
<path d="M298 18 309 18 305 23 301 22 304 26 302 28 309 32 313 31 318 40 315 44 320 54 315 44 318 38 309 28 312 26 308 27 311 17 Z" fill="none" stroke="black" stroke-width="2" />
<path d="M71 28 77 40 85 41 83 37 81 40 72 32 77 30 92 38 93 41 89 40 98 47 92 36 87 34 91 31 98 36 89 29 91 22 101 33 103 31 106 39 109 39 107 36 110 34 116 44 105 29 109 24 104 24 107 36 94 15 89 20 90 32 80 27 83 32 73 26 Z" fill="none" stroke="black" stroke-width="2" />
<path d="M216 14 215 18 224 21 220 21 252 42 237 31 232 23 229 25 224 21 224 18 230 19 Z" fill="none" stroke="black" stroke-width="2" />
<path d="M242 13 277 40 Z" fill="none" stroke="black" stroke-width="2" />
<path d="M113 10 109 22 113 17 112 22 114 24 113 19 127 35 124 27 123 30 118 25 119 19 123 22 118 17 120 15 Z" fill="none" stroke="black" stroke-width="2" />
<path d="M134 9 136 14 155 29 Z" fill="none" stroke="black" stroke-width="2" />
<path d="M121 9 125 19 127 18 131 24 130 28 148 44 133 31 129 19 Z" fill="none" stroke="black" stroke-width="2" />
<path d="M179 8 202 29 212 46 202 28 Z" fill="none" stroke="black" stroke-width="2" />
<path d="M146 8 145 14 148 19 157 22 170 37 159 23 150 19 155 19 149 15 Z" fill="none" stroke="black" stroke-width="2" />
<path d="M229 5 236 10 252 13 Z" fill="none" stroke="black" stroke-width="2" />
<path d="M190 1 184 1 176 6 172 1 138 7 131 4 128 7 132 4 140 9 141 6 149 6 156 2 164 5 162 3 170 1 171 5 176 7 Z" fill="none" stroke="black" stroke-width="2" />
<path d="M267 0 278 1 287 10 298 14 297 16 302 15 287 9 278 0 Z" fill="none" stroke="black" stroke-width="2" />
<path d="M249 1 198 1 Z" fill="none" stroke="black" stroke-width="2" />
</svg>