<svg width="100%" height="100%" version="1.1" xmlns="http://www.w3.org/2000/svg"> 
<path d="M100 424 103 435 108 435 119 444 121 442 118 440 121 430 119 434 115 433 118 434 115 439 101 427 105 426 Z" fill="none" stroke="black" stroke-width="1.088540" />
<path d="M171 399 178 403 173 405 188 403 199 411 189 403 179 403 Z" fill="none" stroke="black" stroke-width="1.056922" />
<path d="M223 364 215 362 197 367 215 362 Z" fill="none" stroke="black" stroke-width="1.029872" />
<path d="M208 361 186 362 176 366 180 363 184 365 Z" fill="none" stroke="black" stroke-width="1.025204" />
<path d="M123 352 148 354 Z" fill="none" stroke="black" stroke-width="1.001216" />
<path d="M110 360 124 359 131 365 132 362 140 365 146 360 173 366 152 360 139 364 119 359 120 356 152 356 171 362 190 359 173 362 156 358 160 355 195 357 184 354 161 356 152 349 159 356 119 356 117 360 Z" fill="none" stroke="black" stroke-width="1.490850" />
<path d="M140 303 153 302 166 307 143 300 Z" fill="none" stroke="black" stroke-width="1.037409" />
<path d="M214 299 205 311 200 312 198 319 201 325 198 318 200 313 211 307 Z" fill="none" stroke="black" stroke-width="1.049427" />
<path d="M136 299 145 314 153 318 154 315 147 314 Z" fill="none" stroke="black" stroke-width="1.017395" />
<path d="M210 274 216 287 217 298 217 290 Z" fill="none" stroke="black" stroke-width="1.012778" />
<path d="M318 230 309 250 310 255 Z" fill="none" stroke="black" stroke-width="1.003939" />
<path d="M188 208 192 213 194 230 192 209 191 211 Z" fill="none" stroke="black" stroke-width="1.031606" />
<path d="M151 216 135 203 143 210 134 207 141 211 144 217 124 217 128 211 125 215 116 217 121 202 118 212 110 219 100 217 93 206 86 217 64 225 83 217 102 221 88 215 93 209 105 220 121 216 146 217 148 225 140 235 148 226 145 214 Z" fill="none" stroke="black" stroke-width="1.468477" />
<path d="M195 212 201 230 200 220 205 215 206 220 227 219 217 213 223 207 233 222 244 222 252 211 259 218 247 222 254 223 245 224 261 221 270 223 263 216 265 222 256 222 261 216 252 208 246 220 234 222 226 213 227 208 221 206 234 201 222 203 230 198 209 208 200 219 200 226 Z" fill="none" stroke="black" stroke-width="1.473310" />
<path d="M221 208 217 212 218 216 223 218 220 221 206 219 213 210 Z" fill="none" stroke="black" stroke-width="1.028954" />
<path d="M14 198 11 202 14 227 24 247 19 236 23 227 23 212 Z" fill="none" stroke="black" stroke-width="1.091098" />
<path d="M14 199 22 212 22 228 19 229 18 236 12 215 Z" fill="none" stroke="black" stroke-width="1.054619" />
<path d="M31 197 26 200 30 200 26 233 26 270 30 274 31 288 26 252 Z" fill="none" stroke="black" stroke-width="1.156199" />
<path d="M208 205 217 197 227 195 259 206 277 222 282 222 278 222 260 206 227 195 216 197 Z" fill="none" stroke="black" stroke-width="1.188442" />
<path d="M140 195 131 192 94 195 81 200 61 215 74 207 74 211 77 212 84 206 104 198 120 199 132 207 125 197 106 195 109 192 130 192 138 197 Z" fill="none" stroke="black" stroke-width="1.294465" />
<path d="M126 199 107 197 94 200 75 210 82 203 104 195 119 195 Z" fill="none" stroke="black" stroke-width="1.108902" />
<path d="M12 191 0 207 0 225 4 236 10 236 5 201 8 195 9 202 Z" fill="none" stroke="black" stroke-width="1.112549" />
<path d="M5 201 9 236 5 236 1 229 0 208 Z" fill="none" stroke="black" stroke-width="1.061565" />
<path d="M221 189 235 194 271 194 284 198 271 194 236 194 Z" fill="none" stroke="black" stroke-width="1.124037" />
<path d="M67 189 75 195 80 195 74 193 75 187 89 192 76 186 72 189 73 192 Z" fill="none" stroke="black" stroke-width="1.056595" />
<path d="M95 188 117 187 98 183 107 186 Z" fill="none" stroke="black" stroke-width="1.037294" />
<path d="M253 182 235 174 208 181 235 174 Z" fill="none" stroke="black" stroke-width="1.071572" />
<path d="M241 173 261 172 268 179 270 177 280 186 279 188 281 186 286 195 280 185 260 171 Z" fill="none" stroke="black" stroke-width="1.102502" />
<path d="M272 170 285 187 285 184 291 187 290 192 287 190 290 200 289 193 291 191 293 194 292 187 284 178 280 180 Z" fill="none" stroke="black" stroke-width="1.088128" />
<path d="M116 172 131 171 145 182 141 176 147 176 152 180 144 172 140 173 143 172 144 175 128 170 Z" fill="none" stroke="black" stroke-width="1.093198" />
<path d="M35 168 28 184 28 197 28 185 Z" fill="none" stroke="black" stroke-width="1.025482" />
<path d="M85 167 93 167 89 170 95 167 103 171 110 170 94 166 Z" fill="none" stroke="black" stroke-width="1.039094" />
<path d="M89 163 84 162 73 169 69 168 57 177 51 177 57 177 50 181 50 184 59 175 62 175 59 179 67 179 65 176 69 173 70 175 76 167 84 162 Z" fill="none" stroke="black" stroke-width="1.132771" />
<path d="M36 160 22 169 32 162 28 173 Z" fill="none" stroke="black" stroke-width="1.022817" />
<path d="M27 148 22 152 19 148 14 148 12 152 17 192 20 187 15 182 15 169 22 162 15 165 14 151 18 148 17 151 23 152 Z" fill="none" stroke="black" stroke-width="1.151696" />
<path d="M47 116 38 129 41 131 25 144 35 136 43 137 36 143 47 134 47 130 43 137 37 135 44 128 42 125 Z" fill="none" stroke="black" stroke-width="1.128442" />
<path d="M305 99 309 111 305 113 312 119 Z" fill="none" stroke="black" stroke-width="1.002976" />
<path d="M293 90 298 95 298 103 301 106 297 123 298 151 307 165 304 179 304 247 304 199 307 199 304 196 304 179 308 167 307 160 298 151 297 123 301 115 303 118 298 94 Z" fill="none" stroke="black" stroke-width="1.431770" />
<path d="M66 69 57 72 53 69 45 76 42 96 44 106 39 112 44 107 45 100 42 96 45 77 Z" fill="none" stroke="black" stroke-width="1.108204" />
<path d="M200 61 212 63 209 67 219 66 227 76 214 56 214 64 Z" fill="none" stroke="black" stroke-width="1.066536" />
<path d="M42 45 38 51 27 55 30 63 24 69 25 82 19 95 20 104 12 142 14 146 17 145 14 144 14 139 19 138 17 135 20 132 18 133 17 129 22 125 19 126 18 123 21 122 23 114 19 106 20 97 25 94 22 91 23 84 36 77 32 80 27 79 28 72 25 79 24 70 31 64 28 57 35 60 44 50 40 48 Z" fill="none" stroke="black" stroke-width="1.380159" />
<path d="M153 46 158 45 165 52 176 55 166 52 162 48 162 42 Z" fill="none" stroke="black" stroke-width="1.033904" />
<path d="M83 55 71 59 79 57 80 61 67 64 56 58 58 62 52 63 60 47 64 45 66 53 65 45 74 47 75 44 73 46 67 42 56 52 49 47 47 49 52 57 52 63 48 66 62 61 66 64 60 64 60 69 66 64 80 62 Z" fill="none" stroke="black" stroke-width="1.276207" />
<path d="M132 39 128 47 141 55 Z" fill="none" stroke="black" stroke-width="1.000000" />
<path d="M88 35 93 42 92 45 97 49 91 53 97 48 89 34 93 37 101 36 105 41 109 37 115 46 114 42 117 39 122 41 113 41 109 36 106 38 103 35 Z" fill="none" stroke="black" stroke-width="1.136858" />
<path d="M260 20 262 25 271 30 268 27 270 26 276 31 Z" fill="none" stroke="black" stroke-width="1.008042" />
<path d="M250 13 262 18 263 16 265 21 272 23 266 21 265 17 270 19 262 14 Z" fill="none" stroke="black" stroke-width="1.040423" />
<path d="M290 13 254 6 247 0 240 3 200 0 199 3 190 4 187 1 183 7 181 5 170 10 175 15 172 23 167 26 173 22 173 29 183 35 174 36 167 28 169 34 161 38 167 36 170 42 179 49 182 46 188 54 175 36 177 34 187 37 195 45 188 38 192 37 186 32 190 31 197 35 198 38 194 37 195 39 199 38 210 48 200 31 207 29 213 35 210 37 206 34 233 73 237 71 234 71 236 66 246 61 252 66 256 62 279 69 285 76 286 72 294 88 293 80 290 80 283 64 286 72 273 66 264 66 267 61 275 63 253 46 255 44 262 47 255 44 241 30 252 45 234 33 230 27 235 24 228 25 229 30 221 21 228 21 214 16 219 13 216 6 213 8 203 5 222 3 225 6 222 7 237 12 238 16 245 18 250 25 259 29 274 43 267 35 273 36 278 42 275 38 277 37 258 25 251 25 239 14 242 12 249 15 236 11 253 11 241 10 240 7 253 5 287 12 295 17 293 20 303 21 303 24 299 24 303 24 312 36 311 49 300 46 304 47 307 54 301 53 311 62 315 72 313 74 309 69 312 78 310 80 305 71 299 71 304 75 299 70 301 69 306 74 306 81 312 91 312 96 308 91 308 95 312 98 312 115 315 121 314 136 312 123 306 120 312 124 313 139 307 137 304 140 310 138 312 146 312 137 315 137 310 204 308 205 307 201 310 210 306 208 309 221 307 213 313 217 310 236 311 224 307 225 306 229 309 229 306 240 308 243 304 252 295 311 284 347 250 412 221 443 194 457 171 459 130 454 114 448 103 440 57 389 39 360 31 333 31 298 21 275 22 269 25 268 19 268 30 295 33 345 41 365 58 390 50 408 35 420 36 432 53 463 68 477 102 498 68 476 50 458 39 439 34 423 56 401 58 391 88 427 110 446 129 454 149 457 187 458 209 452 222 443 250 413 259 423 252 458 245 472 214 498 245 473 252 459 258 439 259 423 250 411 285 345 295 311 299 281 304 278 318 280 325 263 325 256 314 254 324 259 317 277 300 278 304 252 313 226 310 207 315 210 317 221 320 218 320 225 319 212 309 201 315 164 315 121 310 84 317 81 305 49 312 49 312 35 304 27 304 21 295 20 295 16 Z" fill="none" stroke="black" stroke-width="6.000000" />
<path d="M203 23 208 19 215 28 219 28 230 43 232 42 223 32 225 30 222 33 218 25 222 24 269 60 259 64 258 59 235 38 235 43 246 47 258 61 254 61 252 65 238 58 239 54 232 46 238 56 234 63 230 55 229 59 227 56 227 63 216 47 217 41 221 46 Z" fill="none" stroke="black" stroke-width="1.429316" />
<path d="M174 17 180 15 179 17 184 18 191 27 184 29 180 25 175 28 Z" fill="none" stroke="black" stroke-width="1.027388" />
<path d="M178 8 180 7 183 12 187 2 194 2 205 7 202 11 206 6 212 7 208 10 212 9 212 13 205 13 209 12 215 17 211 22 192 11 186 14 192 18 189 20 Z" fill="none" stroke="black" stroke-width="1.152339" />
</svg>