<svg width="100%" height="100%" version="1.1" xmlns="http://www.w3.org/2000/svg"> 
<path d="M172 498 246 498 Z" fill="none" stroke="black" stroke-width="1.202255" />
<path d="M240 347 177 349 Z" fill="none" stroke="black" stroke-width="1.156736" />
<path d="M173 343 173 337 168 341 171 340 171 344 146 340 160 344 Z" fill="none" stroke="black" stroke-width="1.141845" />
<path d="M122 335 126 339 136 338 150 345 129 335 127 339 124 335 129 332 Z" fill="none" stroke="black" stroke-width="1.185330" />
<path d="M149 330 181 330 188 334 209 331 238 341 219 333 202 330 191 333 178 329 Z" fill="none" stroke="black" stroke-width="1.537713" />
<path d="M235 294 225 303 213 304 225 304 Z" fill="none" stroke="black" stroke-width="1.050759" />
<path d="M148 293 167 297 171 302 165 296 Z" fill="none" stroke="black" stroke-width="1.037519" />
<path d="M228 297 214 292 200 301 215 292 Z" fill="none" stroke="black" stroke-width="1.098513" />
<path d="M157 291 174 288 183 295 171 287 Z" fill="none" stroke="black" stroke-width="1.073963" />
<path d="M11 247 12 260 14 246 16 261 21 268 28 271 35 267 41 272 37 245 34 255 36 260 35 249 38 248 38 263 27 271 16 260 15 246 Z" fill="none" stroke="black" stroke-width="1.683348" />
<path d="M8 212 4 238 10 260 5 245 Z" fill="none" stroke="black" stroke-width="1.164576" />
<path d="M185 203 186 206 191 204 193 208 194 203 197 205 196 208 216 208 209 203 Z" fill="none" stroke="black" stroke-width="1.117132" />
<path d="M372 183 368 186 365 218 362 221 354 212 360 221 355 227 355 243 350 263 340 281 325 294 326 299 326 293 341 281 350 264 339 300 327 314 315 319 303 359 281 390 280 435 285 484 282 498 285 471 280 435 281 391 303 361 315 320 326 316 340 299 359 242 358 229 367 215 368 187 Z" fill="none" stroke="black" stroke-width="4.194622" />
<path d="M359 223 359 242 353 257 352 249 356 242 356 227 Z" fill="none" stroke="black" stroke-width="1.170216" />
<path d="M272 178 262 170 244 175 262 171 Z" fill="none" stroke="black" stroke-width="1.102350" />
<path d="M186 208 180 206 175 193 161 181 151 180 155 178 128 170 116 169 128 170 131 174 104 173 59 184 60 187 66 182 108 173 135 176 103 176 84 186 76 202 76 224 81 242 74 226 72 199 62 190 71 187 71 192 72 184 61 190 50 184 55 188 44 196 41 203 38 201 42 213 48 285 43 246 43 216 39 204 57 188 72 199 73 223 85 251 94 260 112 269 140 269 161 258 177 238 184 217 181 209 Z" fill="none" stroke="black" stroke-width="4.707569" />
<path d="M99 262 126 268 145 266 121 270 Z" fill="none" stroke="black" stroke-width="1.190197" />
<path d="M178 201 183 219 174 241 Z" fill="none" stroke="black" stroke-width="1.071326" />
<path d="M97 178 121 175 148 182 155 181 172 195 178 208 174 237 172 239 172 235 167 242 167 230 165 242 169 244 153 260 134 267 118 267 104 262 88 249 77 227 76 206 81 191 Z" fill="none" stroke="black" stroke-width="2.242350" />
<path d="M162 226 133 234 108 230 134 234 152 231 Z" fill="none" stroke="black" stroke-width="1.309970" />
<path d="M80 204 90 208 105 208 123 198 109 206 91 208 80 203 85 196 80 200 Z" fill="none" stroke="black" stroke-width="1.342050" />
<path d="M95 202 111 200 121 194 145 193 169 211 161 210 149 199 149 208 143 215 130 215 124 207 125 199 126 213 132 216 145 214 151 200 160 210 169 214 168 208 144 192 130 192 110 200 Z" fill="none" stroke="black" stroke-width="2.133226" />
<path d="M99 199 123 190 144 189 160 196 174 212 175 210 157 193 145 189 122 190 Z" fill="none" stroke="black" stroke-width="1.509548" />
<path d="M94 197 118 188 146 187 162 193 169 201 163 193 146 187 115 188 Z" fill="none" stroke="black" stroke-width="1.477866" />
<path d="M348 217 341 209 308 194 296 181 301 186 297 188 284 174 280 166 285 169 280 164 279 168 288 181 296 188 301 186 304 192 291 188 259 187 258 190 252 189 230 199 220 215 219 236 213 220 206 217 197 218 184 232 168 261 155 272 151 280 152 285 158 289 152 284 154 275 173 256 184 233 199 218 204 217 214 222 218 239 234 277 230 262 236 272 249 281 280 286 270 284 292 281 313 266 324 248 329 227 334 222 334 219 331 222 324 247 321 248 325 234 325 219 321 208 310 197 343 211 334 213 326 206 333 213 344 215 341 219 331 214 333 217 Z" fill="none" stroke="black" stroke-width="4.798694" />
<path d="M299 276 284 283 267 285 253 281 281 281 Z" fill="none" stroke="black" stroke-width="1.211511" />
<path d="M226 210 223 221 225 245 230 257 248 276 233 265 222 247 219 219 Z" fill="none" stroke="black" stroke-width="1.486589" />
<path d="M302 191 302 195 315 203 324 216 323 240 320 242 322 223 317 250 306 265 314 256 313 261 302 272 282 280 259 279 245 272 230 255 224 239 229 231 223 221 231 206 247 194 265 192 259 192 259 189 287 188 Z" fill="none" stroke="black" stroke-width="2.446281" />
<path d="M240 231 245 238 260 242 288 242 258 241 247 238 Z" fill="none" stroke="black" stroke-width="1.283367" />
<path d="M247 209 249 223 268 225 275 211 291 223 302 223 292 223 273 211 268 224 256 225 249 221 Z" fill="none" stroke="black" stroke-width="1.502734" />
<path d="M229 218 247 205 263 202 300 220 264 202 250 203 Z" fill="none" stroke="black" stroke-width="1.450897" />
<path d="M237 206 248 200 264 199 281 204 300 215 269 199 250 199 Z" fill="none" stroke="black" stroke-width="1.401959" />
<path d="M110 163 118 163 120 166 123 165 119 164 121 162 133 162 135 165 136 162 137 165 144 163 163 172 144 163 Z" fill="none" stroke="black" stroke-width="1.281010" />
<path d="M46 162 43 167 43 187 39 188 43 193 44 190 52 188 43 189 43 167 Z" fill="none" stroke="black" stroke-width="1.222262" />
<path d="M94 161 81 169 75 177 Z" fill="none" stroke="black" stroke-width="1.000000" />
<path d="M30 161 19 179 15 199 20 178 26 170 24 180 30 168 Z" fill="none" stroke="black" stroke-width="1.296430" />
<path d="M295 158 294 161 296 158 304 167 310 184 335 204 310 183 305 168 Z" fill="none" stroke="black" stroke-width="1.382008" />
<path d="M140 157 154 159 173 176 165 166 154 159 Z" fill="none" stroke="black" stroke-width="1.166904" />
<path d="M83 142 79 157 72 159 76 143 79 147 76 141 73 151 71 148 73 165 83 154 86 163 85 154 81 153 82 146 85 147 Z" fill="none" stroke="black" stroke-width="1.434377" />
<path d="M220 138 243 143 248 148 250 145 256 150 255 147 258 146 264 155 257 145 248 146 Z" fill="none" stroke="black" stroke-width="1.228928" />
<path d="M245 133 251 133 264 147 263 139 261 141 252 133 Z" fill="none" stroke="black" stroke-width="1.094508" />
<path d="M233 133 240 139 245 139 249 143 245 139 247 137 253 142 248 137 Z" fill="none" stroke="black" stroke-width="1.074612" />
<path d="M167 113 179 132 188 136 180 132 Z" fill="none" stroke="black" stroke-width="1.066405" />
<path d="M119 114 111 112 104 116 105 128 100 120 88 124 87 120 87 135 88 125 99 120 108 133 101 141 106 141 110 130 104 118 111 113 Z" fill="none" stroke="black" stroke-width="1.546102" />
<path d="M178 109 191 136 204 151 220 156 245 152 255 158 257 168 257 161 251 153 214 148 197 131 188 113 198 133 194 138 Z" fill="none" stroke="black" stroke-width="1.895407" />
<path d="M194 138 197 136 221 154 220 150 239 152 223 156 208 153 Z" fill="none" stroke="black" stroke-width="1.262941" />
<path d="M206 99 213 101 225 114 221 117 215 110 212 113 214 110 226 124 226 120 234 126 237 125 213 100 Z" fill="none" stroke="black" stroke-width="1.381936" />
<path d="M114 107 124 97 133 101 139 101 142 97 137 101 128 100 122 89 124 97 Z" fill="none" stroke="black" stroke-width="1.190741" />
<path d="M298 89 294 87 286 92 260 94 247 99 230 98 245 100 261 94 280 94 294 87 Z" fill="none" stroke="black" stroke-width="1.467084" />
<path d="M120 79 130 88 162 104 159 100 125 85 Z" fill="none" stroke="black" stroke-width="1.274434" />
<path d="M54 67 36 105 Z" fill="none" stroke="black" stroke-width="1.069651" />
<path d="M303 66 326 88 Z" fill="none" stroke="black" stroke-width="1.027238" />
<path d="M190 54 190 58 205 75 Z" fill="none" stroke="black" stroke-width="1.005840" />
<path d="M288 47 295 47 311 66 303 54 306 52 303 53 295 46 Z" fill="none" stroke="black" stroke-width="1.159342" />
<path d="M280 43 280 48 302 57 292 50 286 50 Z" fill="none" stroke="black" stroke-width="1.090105" />
<path d="M175 37 195 53 Z" fill="none" stroke="black" stroke-width="1.001445" />
<path d="M207 34 214 40 218 50 235 63 220 51 214 39 Z" fill="none" stroke="black" stroke-width="1.202323" />
<path d="M291 29 302 39 301 41 296 37 301 41 297 42 293 37 294 40 305 46 303 41 315 53 Z" fill="none" stroke="black" stroke-width="1.220857" />
<path d="M286 0 321 32 323 39 336 53 332 53 333 56 325 55 336 59 333 56 337 54 347 64 348 71 337 62 332 61 332 67 349 86 357 86 359 96 370 111 372 177 370 110 358 93 357 85 352 87 332 63 338 63 348 73 348 64 323 38 322 32 306 20 295 5 Z" fill="none" stroke="black" stroke-width="3.081075" />
<path d="M99 0 90 5 50 49 49 56 36 68 27 82 27 93 19 101 11 130 8 177 5 180 4 209 0 220 2 247 11 278 18 289 32 301 46 328 47 342 53 358 63 369 62 446 53 463 54 498 54 462 63 445 63 367 53 356 51 346 47 342 47 327 43 320 45 319 35 303 37 299 46 301 52 344 46 299 35 299 35 307 32 300 14 283 2 247 1 219 4 210 5 181 9 175 10 141 19 102 22 101 21 106 32 87 29 81 35 70 49 57 50 50 77 23 85 11 Z" fill="none" stroke="black" stroke-width="6.000000" />
</svg>